<?xml version="1.0" encoding="UTF-8" standalone="no"?>
<!-- Created with Inkscape (http://www.inkscape.org/) -->

<svg
   xmlns:dc="http://purl.org/dc/elements/1.1/"
   xmlns:cc="http://creativecommons.org/ns#"
   xmlns:rdf="http://www.w3.org/1999/02/22-rdf-syntax-ns#"
   xmlns:svg="http://www.w3.org/2000/svg"
   xmlns="http://www.w3.org/2000/svg"
   xmlns:sodipodi="http://sodipodi.sourceforge.net/DTD/sodipodi-0.dtd"
   xmlns:inkscape="http://www.inkscape.org/namespaces/inkscape"
   id="svg3336"
   version="1.1"
   inkscape:version="0.91 r13725"
   width="1877.8125"
   height="1409.0625"
   viewBox="0 0 1877.8125 1409.0625"
   sodipodi:docname="StampOutline.svg">
  <metadata
     id="metadata3342">
    <rdf:RDF>
      <cc:Work
         rdf:about="">
        <dc:format>image/svg+xml</dc:format>
        <dc:type
           rdf:resource="http://purl.org/dc/dcmitype/StillImage" />
        <dc:title></dc:title>
      </cc:Work>
    </rdf:RDF>
  </metadata>
  <defs
     id="defs3340" />
  <sodipodi:namedview
     pagecolor="#ffffff"
     bordercolor="#666666"
     borderopacity="1"
     objecttolerance="10"
     gridtolerance="10"
     guidetolerance="10"
     inkscape:pageopacity="0"
     inkscape:pageshadow="2"
     inkscape:window-width="1600"
     inkscape:window-height="837"
     id="namedview3338"
     showgrid="false"
     inkscape:zoom="0.47570745"
     inkscape:cx="938.90628"
     inkscape:cy="704.37943"
     inkscape:window-x="-8"
     inkscape:window-y="-8"
     inkscape:window-maximized="1"
     inkscape:current-layer="svg3336" />
  <path
     style="fill:#000000"
     d="m 34.412949,1408.384 c -0.228627,-0.4003 -0.95047,-3.0481 -1.604094,-5.884 -1.628112,-7.0641 -4.173071,-11.9175 -8.766272,-16.718 -4.689301,-4.9009 -9.371634,-7.448 -17.480083,-9.5089 l -6.09375,-1.5488 0,-13.943 0,-13.9431 6.09375,-1.5488 c 8.108449,-2.0609 12.790782,-4.608 17.480083,-9.5089 4.538894,-4.7438 7.120684,-9.6193 8.742224,-16.5089 1.982663,-8.4241 -1.416583,-19.3869 -8.289662,-26.7348 -4.987004,-5.3315 -8.784113,-7.4601 -17.631679,-9.8837 l -6.394716,-1.7517 0,-13.9066 0,-13.9066 6.09375,-1.5488 c 8.108449,-2.0609 12.790782,-4.608 17.480083,-9.5089 4.538894,-4.7438 7.120684,-9.6193 8.742224,-16.5089 1.982663,-8.4241 -1.416583,-19.3869 -8.289662,-26.7348 -4.987004,-5.3315 -8.784113,-7.4601 -17.631679,-9.8837 l -6.394716,-1.7517 0,-13.9066 0,-13.9066 6.09375,-1.5488 c 8.108449,-2.0609 12.790782,-4.608 17.480083,-9.5089 4.538894,-4.7438 7.120684,-9.6193 8.742224,-16.5089 1.982663,-8.4241 -1.416583,-19.3869 -8.289662,-26.7348 -4.987004,-5.3315 -8.784113,-7.4601 -17.631679,-9.8837 l -6.394716,-1.7517 0,-13.9066 0,-13.9066 6.09375,-1.5488 c 8.108449,-2.0609 12.790782,-4.608 17.480083,-9.5089 4.538894,-4.7438 7.120684,-9.6193 8.742224,-16.5089 1.982663,-8.4241 -1.416583,-19.3869 -8.289662,-26.7348 -4.987004,-5.3315 -8.784113,-7.4601 -17.631679,-9.8837 l -6.394716,-1.75173 0,-13.90659 0,-13.90659 6.09375,-1.54875 c 8.108449,-2.06091 12.790782,-4.608 17.480083,-9.50897 4.538894,-4.74375 7.120684,-9.61922 8.742224,-16.50891 1.982663,-8.42407 -1.416583,-19.38688 -8.289662,-26.73476 -4.987004,-5.33151 -8.784113,-7.46003 -17.631679,-9.88371 l -6.394716,-1.75174 0,-13.90657 0,-13.90656 6.09375,-1.5488 c 8.108449,-2.06085 12.790782,-4.60798 17.480083,-9.50893 4.538894,-4.74375 7.120684,-9.61924 8.742224,-16.50895 1.982663,-8.42405 -1.416583,-19.38686 -8.289662,-26.73474 -4.987004,-5.33151 -8.784113,-7.46003 -17.631679,-9.88371 l -6.394716,-1.75174 0,-13.90657 0,-13.90656 6.09375,-1.5488 c 8.108449,-2.06085 12.790782,-4.60798 17.480083,-9.50893 4.538894,-4.74375 7.120684,-9.61924 8.742224,-16.50895 1.982663,-8.42405 -1.416583,-19.38686 -8.289662,-26.73474 -4.987004,-5.33151 -8.784113,-7.46003 -17.631679,-9.88371 l -6.394716,-1.75174 0,-13.90657 0,-13.90656 6.09375,-1.5488 c 8.108449,-2.06085 12.790782,-4.60798 17.480083,-9.50893 4.538894,-4.74375 7.120684,-9.61924 8.742224,-16.50895 1.982663,-8.42405 -1.416583,-19.38686 -8.289662,-26.73474 -4.987004,-5.33151 -8.784113,-7.46003 -17.631679,-9.88371 l -6.394716,-1.75174 0,-13.90657 0,-13.90656 6.09375,-1.5488 c 8.108449,-2.06085 12.790782,-4.60798 17.480083,-9.50893 4.538894,-4.74375 7.120684,-9.61924 8.742224,-16.50895 1.982663,-8.42405 -1.416583,-19.38686 -8.289662,-26.73474 -4.987004,-5.33151 -8.784113,-7.46003 -17.631679,-9.88371 l -6.394716,-1.75174 0,-13.90657 0,-13.90656 6.09375,-1.5488 c 8.108449,-2.06085 12.790782,-4.60798 17.480083,-9.50893 4.538894,-4.74375 7.120684,-9.61924 8.742224,-16.50895 1.982663,-8.42405 -1.416583,-19.38686 -8.289662,-26.73474 -4.987004,-5.33151 -8.784113,-7.46003 -17.631679,-9.88371 l -6.394716,-1.75174 0,-13.90657 0,-13.90655 6.09375,-1.54881 c 8.108449,-2.06085 12.790782,-4.60798 17.480083,-9.50893 4.538894,-4.74375 7.120684,-9.61924 8.742224,-16.50895 1.982663,-8.42405 -1.416583,-19.38686 -8.289662,-26.73474 -4.987004,-5.33151 -8.784113,-7.46003 -17.631679,-9.88371 l -6.394716,-1.75174 0,-13.90657 0,-13.90655 6.09375,-1.54881 c 8.108449,-2.06085 12.790782,-4.60798 17.480083,-9.50893 4.538894,-4.74375 7.120684,-9.61924 8.742224,-16.50895 1.982663,-8.42405 -1.416583,-19.38686 -8.289662,-26.73474 -4.987004,-5.33151 -8.784113,-7.46003 -17.631679,-9.88371 l -6.394716,-1.75174 0,-13.90657 0,-13.90656 6.09375,-1.5488 c 8.108449,-2.06085 12.790782,-4.60798 17.480083,-9.50893 4.538894,-4.74375 7.120684,-9.61924 8.742224,-16.50895 1.982663,-8.42405 -1.416583,-19.38686 -8.289662,-26.73474 -4.987004,-5.33151 -8.784113,-7.46003 -17.631679,-9.88371 l -6.394716,-1.75174 0,-13.90657 0,-13.90656 6.09375,-1.5488 c 8.108449,-2.06085 12.790782,-4.60798 17.480083,-9.50893 4.538894,-4.74375 7.120684,-9.61924 8.742224,-16.50895 C 34.76747,92.097485 31.368224,81.134678 24.495145,73.786801 19.508141,68.455291 15.711032,66.326763 6.863466,63.90309 l -6.394716,-1.751746 0,-13.906562 0,-13.906562 6.09375,-1.548798 C 21.402116,29.017759 29.017759,21.402116 32.789422,6.5625 l 1.548798,-6.09375 13.94303,0 13.94303,0 1.548797,6.09375 c 2.060859,8.108449 4.607985,12.790782 9.508934,17.480083 7.736368,7.402273 18.363393,10.833274 27.144789,8.763864 14.17034,-3.339362 22.39105,-11.601412 26.11262,-26.243947 l 1.5488,-6.09375 13.94303,0 13.94302,0 1.54881,6.09375 c 2.06085,8.108449 4.60798,12.790782 9.50893,17.480083 7.73636,7.402273 18.3634,10.833274 27.14479,8.763864 14.17034,-3.339362 22.39105,-11.601412 26.11262,-26.243947 l 1.5488,-6.09375 13.94303,0 13.94303,0 1.5488,6.09375 c 2.06085,8.108449 4.60798,12.790782 9.50893,17.480083 7.73636,7.402273 18.3634,10.833274 27.14479,8.763864 14.17034,-3.339362 22.39105,-11.601412 26.11262,-26.243947 l 1.5488,-6.09375 13.94303,0 13.94303,0 1.5488,6.09375 c 2.06085,8.108449 4.60798,12.790782 9.50893,17.480083 7.71945,7.386085 18.04194,10.753314 26.91619,8.780152 C 395.66204,29.66233 404.04153,21.308614 407.78942,6.5625 l 1.5488,-6.09375 13.94303,0 13.94303,0 1.5488,6.09375 c 2.06085,8.108449 4.60798,12.790782 9.50893,17.480083 7.73636,7.402273 18.3634,10.833274 27.14479,8.763864 14.17034,-3.339362 22.39105,-11.601412 26.11262,-26.243947 l 1.5488,-6.09375 13.94303,0 13.94303,0 1.5488,6.09375 c 2.06085,8.108449 4.60798,12.790782 9.50893,17.480083 7.73637,7.402273 18.3634,10.833274 27.14479,8.763864 14.17034,-3.339362 22.39105,-11.601412 26.11262,-26.243947 l 1.5488,-6.09375 13.94303,0 13.94303,0 1.5488,6.09375 c 2.06085,8.108449 4.60798,12.790782 9.50893,17.480083 7.73637,7.402273 18.3634,10.833274 27.14479,8.763864 14.17034,-3.339362 22.39105,-11.601412 26.11262,-26.243947 l 1.5488,-6.09375 13.94303,0 13.94303,0 1.5488,6.09375 c 2.06085,8.108449 4.60798,12.790782 9.50893,17.480083 7.73637,7.402273 18.3634,10.833274 27.14479,8.763864 14.17034,-3.339362 22.39105,-11.601412 26.11262,-26.243947 l 1.5488,-6.09375 13.94303,0 13.94303,0 1.5488,6.09375 c 2.06085,8.108449 4.60798,12.790782 9.50893,17.480083 7.73637,7.402273 18.3634,10.833274 27.14479,8.763864 14.17034,-3.339362 22.39105,-11.601412 26.11262,-26.243947 l 1.5488,-6.09375 13.94303,0 13.94303,0 1.5488,6.09375 c 2.06085,8.108449 4.60798,12.790782 9.50893,17.480083 7.73637,7.402273 18.3634,10.833274 27.14477,8.763864 14.17041,-3.339362 22.39106,-11.601412 26.11266,-26.243947 l 1.54875,-6.09375 13.94306,0 13.94306,0 1.54879,6.09375 c 2.0609,8.108449 4.608,12.790782 9.5089,17.480083 7.7364,7.402273 18.3634,10.833274 27.1448,8.763864 14.1704,-3.339362 22.391,-11.601412 26.1126,-26.243947 l 1.5488,-6.09375 13.9431,0 13.943,0 1.5488,6.09375 c 2.0609,8.108449 4.608,12.790782 9.5089,17.480083 7.7364,7.402273 18.3634,10.833274 27.1448,8.763864 14.1704,-3.339362 22.391,-11.601412 26.1126,-26.243947 l 1.5488,-6.09375 13.9431,0 13.943,0 1.5488,6.09375 c 2.0609,8.108449 4.608,12.790782 9.5089,17.480083 7.7364,7.402273 18.3634,10.833274 27.1448,8.763864 14.1704,-3.339362 22.391,-11.601412 26.1126,-26.243947 l 1.5488,-6.09375 13.9431,0 13.943,0 1.5488,6.09375 c 2.0609,8.108449 4.608,12.790782 9.5089,17.480083 7.7364,7.402273 18.3634,10.833274 27.1448,8.763864 14.1704,-3.339362 22.391,-11.601412 26.1126,-26.243947 l 1.5488,-6.09375 13.9431,0 13.943,0 1.5488,6.09375 c 2.0609,8.108449 4.608,12.790782 9.5089,17.480083 7.7364,7.402273 18.3634,10.833274 27.1448,8.763864 14.1704,-3.339362 22.391,-11.601412 26.1126,-26.243947 l 1.5488,-6.09375 13.9431,0 13.943,0 1.5488,6.09375 c 2.0609,8.108449 4.608,12.790782 9.5089,17.480083 7.7364,7.402273 18.3634,10.833274 27.1448,8.763864 14.1704,-3.339362 22.391,-11.601412 26.1126,-26.243947 l 1.5488,-6.09375 13.9431,0 13.943,0 1.5488,6.09375 c 2.0609,8.108449 4.608,12.790782 9.5089,17.480083 7.7364,7.402273 18.3634,10.833274 27.1448,8.763864 14.1704,-3.339362 22.391,-11.601412 26.1126,-26.243947 l 1.5488,-6.09375 13.9431,0 13.943,0 1.5488,6.09375 c 2.0609,8.108449 4.608,12.790782 9.5089,17.480083 7.7364,7.402273 18.3634,10.833274 27.1448,8.763864 14.1704,-3.339362 22.391,-11.601412 26.1126,-26.243947 l 1.5488,-6.09375 13.9431,0 13.943,0 1.5488,6.09375 c 2.0609,8.108449 4.608,12.790782 9.5089,17.480083 7.7364,7.402273 18.3634,10.833274 27.1448,8.763864 14.1704,-3.339362 22.391,-11.601412 26.1126,-26.243947 l 1.5488,-6.09375 13.9431,0 13.943,0 1.5488,6.09375 c 2.0613,8.110362 4.6089,12.79249 9.5089,17.47618 4.9604,4.741452 8.7757,6.739182 16.718,8.753811 l 6.0938,1.545729 0,13.94303 0,13.94303 -6.0938,1.548797 c -8.1084,2.060859 -12.7908,4.607985 -17.4801,9.508934 -4.5389,4.743752 -7.1206,9.619243 -8.7422,16.508943 -1.9827,8.424058 1.4166,19.386866 8.2896,26.734746 4.987,5.33151 8.7842,7.46003 17.6318,9.88371 l 6.3946,1.75174 0,13.90657 0,13.90655 -6.0937,1.54881 c -8.1084,2.06085 -12.7908,4.60798 -17.4801,9.50893 -4.5389,4.74375 -7.1207,9.61924 -8.7422,16.50895 -1.9827,8.42405 1.4166,19.38686 8.2896,26.73474 4.987,5.33151 8.7842,7.46003 17.6318,9.88371 l 6.3946,1.75174 0,13.90657 0,13.90656 -6.0937,1.5488 c -8.1084,2.06085 -12.7908,4.60798 -17.4801,9.50893 -4.5389,4.74375 -7.1207,9.61924 -8.7422,16.50895 -1.9827,8.42405 1.4166,19.38686 8.2896,26.73474 4.987,5.33151 8.7842,7.46003 17.6318,9.88371 l 6.3946,1.75174 0,13.90657 0,13.90656 -6.0937,1.5488 c -8.1084,2.06085 -12.7908,4.60798 -17.4801,9.50893 -4.5389,4.74375 -7.1207,9.61924 -8.7422,16.50895 -1.9827,8.42405 1.4166,19.38686 8.2896,26.73474 4.987,5.33151 8.7842,7.46003 17.6318,9.88371 l 6.3946,1.75174 0,13.90657 0,13.90656 -6.0937,1.5488 c -8.1084,2.06085 -12.7908,4.60798 -17.4801,9.50893 -4.5389,4.74375 -7.1207,9.61924 -8.7422,16.50895 -1.9827,8.42405 1.4166,19.38686 8.2896,26.73474 4.987,5.33151 8.7842,7.46003 17.6318,9.88371 l 6.3946,1.75174 0,13.90657 0,13.90656 -6.0937,1.5488 c -8.1084,2.06085 -12.7908,4.60798 -17.4801,9.50893 -4.5389,4.74375 -7.1207,9.61924 -8.7422,16.50895 -1.9827,8.42405 1.4166,19.38686 8.2896,26.73474 4.987,5.33151 8.7842,7.46003 17.6318,9.88371 l 6.3946,1.75174 0,13.90657 0,13.90656 -6.0937,1.5488 c -8.1084,2.06085 -12.7908,4.60798 -17.4801,9.50893 -4.5389,4.74375 -7.1207,9.61924 -8.7422,16.50895 -1.9827,8.42405 1.4166,19.38686 8.2896,26.73474 4.987,5.33151 8.7842,7.46003 17.6318,9.88371 l 6.3946,1.75174 0,13.90657 0,13.90656 -6.0937,1.5488 c -8.1084,2.06085 -12.7908,4.60798 -17.4801,9.50893 -4.5389,4.74375 -7.1207,9.61924 -8.7422,16.50895 -1.9827,8.42405 1.4166,19.38686 8.2896,26.73474 4.987,5.33151 8.7842,7.46003 17.6318,9.88371 l 6.3946,1.75174 0,13.90657 0,13.90656 -6.0937,1.5488 c -8.1084,2.06085 -12.7908,4.60798 -17.4801,9.50893 -4.5389,4.74375 -7.1207,9.61924 -8.7422,16.50895 -1.9827,8.42405 1.4166,19.38686 8.2896,26.73474 4.987,5.33151 8.7842,7.46003 17.6318,9.88371 l 6.3946,1.75174 0,13.90657 0,13.90656 -6.0937,1.5488 c -8.1084,2.06085 -12.7908,4.60798 -17.4801,9.50893 -4.5389,4.74375 -7.1207,9.61924 -8.7422,16.50895 -1.9827,8.42407 1.4166,19.38682 8.2896,26.73476 4.987,5.33147 8.7842,7.46006 17.6318,9.88369 l 6.3946,1.75172 0,13.90659 0,13.90659 -6.0937,1.54879 c -8.1084,2.0609 -12.7908,4.608 -17.4801,9.5089 -4.5389,4.7438 -7.1207,9.6193 -8.7422,16.5089 -1.9827,8.4241 1.4166,19.3869 8.2896,26.7348 4.987,5.3315 8.7842,7.4601 17.6318,9.8837 l 6.3946,1.7517 0,13.9066 0,13.9066 -6.0937,1.5488 c -8.1084,2.0609 -12.7908,4.608 -17.4801,9.5089 -4.5389,4.7438 -7.1207,9.6193 -8.7422,16.5089 -1.9827,8.4241 1.4166,19.3869 8.2896,26.7348 4.987,5.3315 8.7842,7.4601 17.6318,9.8837 l 6.3946,1.7517 0,13.9066 0,13.9066 -6.0937,1.5488 c -8.1084,2.0609 -12.7908,4.608 -17.4801,9.5089 -4.5389,4.7438 -7.1207,9.6193 -8.7422,16.5089 -1.9827,8.4241 1.4166,19.3869 8.2896,26.7348 4.987,5.3315 8.7842,7.4601 17.6318,9.8837 l 6.3946,1.7517 0,13.9066 0,13.9066 -6.0937,1.5488 c -8.1084,2.0609 -12.7908,4.608 -17.4801,9.5089 -4.5389,4.7438 -7.1207,9.6193 -8.7422,16.5089 -1.9827,8.4241 1.4166,19.3869 8.2896,26.7348 4.987,5.3315 8.7842,7.4601 17.6318,9.8837 l 6.3946,1.7517 0,13.9066 0,13.9066 -6.0937,1.5488 c -14.8396,3.7716 -22.4553,11.3873 -26.2269,26.2269 l -1.5488,6.0938 -13.9431,0 -13.943,0 -1.5488,-6.0938 c -2.0609,-8.1084 -4.608,-12.7908 -9.5089,-17.4801 -7.7364,-7.4023 -18.3634,-10.8332 -27.1448,-8.7638 -14.1704,3.3393 -22.391,11.6014 -26.1126,26.2439 l -1.5488,6.0938 -13.9431,0 -13.943,0 -1.5488,-6.0938 c -2.0609,-8.1084 -4.608,-12.7908 -9.5089,-17.4801 -7.7364,-7.4023 -18.3634,-10.8332 -27.1448,-8.7638 -14.1704,3.3393 -22.391,11.6014 -26.1126,26.2439 l -1.5488,6.0938 -13.9431,0 -13.943,0 -1.5488,-6.0938 c -2.0609,-8.1084 -4.608,-12.7908 -9.5089,-17.4801 -7.7364,-7.4023 -18.3634,-10.8332 -27.1448,-8.7638 -14.1704,3.3393 -22.391,11.6014 -26.1126,26.2439 l -1.5488,6.0938 -13.9431,0 -13.943,0 -1.5488,-6.0938 c -2.0609,-8.1084 -4.608,-12.7908 -9.5089,-17.4801 -7.7364,-7.4023 -18.3634,-10.8332 -27.1448,-8.7638 -14.1704,3.3393 -22.391,11.6014 -26.1126,26.2439 l -1.5488,6.0938 -13.9431,0 -13.943,0 -1.5488,-6.0938 c -2.0609,-8.1084 -4.608,-12.7908 -9.5089,-17.4801 -7.7364,-7.4023 -18.3634,-10.8332 -27.1448,-8.7638 -14.1704,3.3393 -22.391,11.6014 -26.1126,26.2439 l -1.5488,6.0938 -13.9431,0 -13.943,0 -1.5488,-6.0938 c -2.0609,-8.1084 -4.608,-12.7908 -9.5089,-17.4801 -7.7364,-7.4023 -18.3634,-10.8332 -27.1448,-8.7638 -14.1704,3.3393 -22.391,11.6014 -26.1126,26.2439 l -1.5488,6.0938 -13.9431,0 -13.943,0 -1.5488,-6.0938 c -2.0609,-8.1084 -4.608,-12.7908 -9.5089,-17.4801 -7.7364,-7.4023 -18.3634,-10.8332 -27.1448,-8.7638 -14.1704,3.3393 -22.391,11.6014 -26.1126,26.2439 l -1.5488,6.0938 -13.9431,0 -13.943,0 -1.5488,-6.0938 c -2.0609,-8.1084 -4.608,-12.7908 -9.5089,-17.4801 -7.7364,-7.4023 -18.3634,-10.8332 -27.1448,-8.7638 -14.1704,3.3393 -22.391,11.6014 -26.1126,26.2439 l -1.5488,6.0938 -13.9431,0 -13.943,0 -1.5488,-6.0938 c -2.0609,-8.1084 -4.608,-12.7908 -9.5089,-17.4801 -7.7364,-7.4023 -18.3634,-10.8332 -27.1448,-8.7638 -14.1704,3.3393 -22.391,11.6014 -26.1126,26.2439 l -1.54879,6.0938 -13.94306,0 -13.94306,0 -1.54875,-6.0938 c -2.06091,-8.1084 -4.608,-12.7908 -9.50897,-17.4801 -7.73635,-7.4023 -18.36338,-10.8332 -27.14477,-8.7638 -14.17034,3.3393 -22.39105,11.6014 -26.11262,26.2439 l -1.54881,6.0938 -13.94302,0 -13.94303,0 -1.5488,-6.0938 c -2.06085,-8.1084 -4.60798,-12.7908 -9.50893,-17.4801 -7.73637,-7.4023 -18.3634,-10.8332 -27.14479,-8.7638 -14.17034,3.3393 -22.39105,11.6014 -26.11262,26.2439 l -1.54881,6.0938 -13.94302,0 -13.94303,0 -1.5488,-6.0938 c -2.06085,-8.1084 -4.60798,-12.7908 -9.50893,-17.4801 -7.73637,-7.4023 -18.3634,-10.8332 -27.14479,-8.7638 -14.17034,3.3393 -22.39105,11.6014 -26.11262,26.2439 l -1.54881,6.0938 -13.94302,0 -13.94303,0 -1.5488,-6.0938 c -2.06085,-8.1084 -4.60798,-12.7908 -9.50893,-17.4801 -7.73637,-7.4023 -18.3634,-10.8332 -27.14479,-8.7638 -14.17034,3.3393 -22.39105,11.6014 -26.11262,26.2439 l -1.54881,6.0938 -13.94302,0 -13.94303,0 -1.5488,-6.0938 c -2.06085,-8.1084 -4.60798,-12.7908 -9.50893,-17.4801 -7.73637,-7.4023 -18.3634,-10.8332 -27.14479,-8.7638 -14.17034,3.3393 -22.39105,11.6014 -26.11262,26.2439 l -1.54881,6.0938 -13.94302,0 -13.94303,0 -1.5488,-6.0938 c -2.06085,-8.1084 -4.60798,-12.7908 -9.50893,-17.4801 -7.73637,-7.4023 -18.3634,-10.8332 -27.14479,-8.7638 -14.17034,3.3393 -22.39105,11.6014 -26.11262,26.2439 l -1.54881,6.0938 -13.94302,0 -13.94303,0 -1.5488,-6.0938 c -2.06085,-8.1084 -4.60798,-12.7908 -9.50893,-17.4801 -7.73637,-7.4023 -18.3634,-10.8332 -27.14479,-8.7638 -14.17034,3.3393 -22.39105,11.6014 -26.11262,26.2439 l -1.54881,6.0938 -13.94302,0 -13.94303,0 -1.5488,-6.0938 c -2.06085,-8.1084 -4.60798,-12.7908 -9.50893,-17.4801 -7.73637,-7.4023 -18.3634,-10.8332 -27.14479,-8.7638 -14.17034,3.3393 -22.39105,11.6014 -26.11262,26.2439 l -1.54881,6.0938 -13.94302,0 -13.94303,0 -1.5488,-6.0938 c -2.06085,-8.1084 -4.60798,-12.7908 -9.50893,-17.4801 -7.73637,-7.4023 -18.3634,-10.8332 -27.14479,-8.7638 -14.17034,3.3393 -22.39105,11.6014 -26.11262,26.2439 l -1.54881,6.0938 -13.94302,0 -13.94303,0 -1.5488,-6.0938 c -2.06085,-8.1084 -4.60798,-12.7908 -9.50893,-17.4801 -7.73637,-7.4023 -18.363396,-10.8332 -27.14479,-8.7638 -14.170875,3.3395 -22.393101,11.6033 -26.111522,26.2439 l -1.547699,6.0938 -13.698922,0.259 c -7.534407,0.1425 -13.88598,-0.068 -14.114608,-0.4688 z m 25.549945,-8.4621 c 3.106461,-13.9692 12.121125,-23.4262 25.818356,-27.085 12.772031,-3.4117 26.27087,0.285 35.29371,9.6655 5.1345,5.338 7.63475,10.0334 9.27575,17.4195 l 1.19766,5.3906 10.48288,0 10.48288,0 1.19876,-5.3906 c 3.10647,-13.9692 12.12113,-23.4262 25.81836,-27.085 12.77203,-3.4117 26.27087,0.285 35.29371,9.6655 5.1345,5.338 7.63475,10.0334 9.27575,17.4195 l 1.19766,5.3906 10.48288,0 10.48288,0 1.19876,-5.3906 c 3.10647,-13.9692 12.12113,-23.4262 25.81836,-27.085 12.77203,-3.4117 26.27087,0.285 35.29371,9.6655 5.1345,5.338 7.63475,10.0334 9.27575,17.4195 l 1.19766,5.3906 10.48288,0 10.48288,0 1.19876,-5.3906 c 3.10647,-13.9692 12.12113,-23.4262 25.81836,-27.085 12.77203,-3.4117 26.27087,0.285 35.29371,9.6655 5.1345,5.338 7.63475,10.0334 9.27575,17.4195 l 1.19766,5.3906 10.48288,0 10.48288,0 1.19876,-5.3906 c 3.10647,-13.9692 12.12113,-23.4262 25.81836,-27.085 12.77203,-3.4117 26.27087,0.285 35.29371,9.6655 5.1345,5.338 7.63475,10.0334 9.27575,17.4195 l 1.19766,5.3906 10.48288,0 10.48288,0 1.19876,-5.3906 c 3.10647,-13.9692 12.12113,-23.4262 25.81836,-27.085 12.77203,-3.4117 26.27087,0.285 35.29371,9.6655 5.1345,5.338 7.63475,10.0334 9.27575,17.4195 l 1.19766,5.3906 10.48288,0 10.48288,0 1.19876,-5.3906 c 3.10647,-13.9692 12.12113,-23.4262 25.81836,-27.085 12.77203,-3.4117 26.27087,0.285 35.29371,9.6655 5.1345,5.338 7.63475,10.0334 9.27575,17.4195 l 1.19766,5.3906 10.48288,0 10.48288,0 1.19876,-5.3906 c 3.10647,-13.9692 12.12113,-23.4262 25.81836,-27.085 12.77203,-3.4117 26.27087,0.285 35.29371,9.6655 5.1345,5.338 7.63475,10.0334 9.27575,17.4195 l 1.19766,5.3906 10.48288,0 10.48288,0 1.19876,-5.3906 c 3.10647,-13.9692 12.12113,-23.4262 25.81836,-27.085 12.77203,-3.4117 26.27087,0.285 35.29371,9.6655 5.1345,5.338 7.63475,10.0334 9.27575,17.4195 l 1.19766,5.3906 10.48288,0 10.48288,0 1.19876,-5.3906 c 3.10647,-13.9692 12.12113,-23.4262 25.81836,-27.085 12.77203,-3.4117 26.27091,0.285 35.29369,9.6655 5.1345,5.338 7.63481,10.0334 9.27581,17.4195 l 1.19766,5.3906 10.48284,0 10.48284,0 1.19878,-5.3906 c 3.10653,-13.9692 12.12113,-23.4262 25.81833,-27.085 12.7721,-3.4117 26.271,0.285 35.2937,9.6655 5.1345,5.338 7.6349,10.0334 9.2759,17.4195 l 1.1976,5.3906 10.4829,0 10.4828,0 1.1988,-5.3906 c 3.1065,-13.9692 12.1211,-23.4262 25.8184,-27.085 12.772,-3.4117 26.2709,0.285 35.2936,9.6655 5.1345,5.338 7.6349,10.0334 9.2759,17.4195 l 1.1976,5.3906 10.4829,0 10.4828,0 1.1988,-5.3906 c 3.1065,-13.9692 12.1211,-23.4262 25.8184,-27.085 12.772,-3.4117 26.2709,0.285 35.2936,9.6655 5.1345,5.338 7.6349,10.0334 9.2759,17.4195 l 1.1976,5.3906 10.4829,0 10.4828,0 1.1988,-5.3906 c 3.1065,-13.9692 12.1211,-23.4262 25.8184,-27.085 12.772,-3.4117 26.2709,0.285 35.2936,9.6655 5.1345,5.338 7.6349,10.0334 9.2759,17.4195 l 1.1976,5.3906 10.4829,0 10.4828,0 1.1988,-5.3906 c 3.1065,-13.9692 12.1211,-23.4262 25.8184,-27.085 12.772,-3.4117 26.2709,0.285 35.2936,9.6655 5.1345,5.338 7.6349,10.0334 9.2759,17.4195 l 1.1976,5.3906 10.4829,0 10.4828,0 1.1988,-5.3906 c 3.1065,-13.9692 12.1211,-23.4262 25.8184,-27.085 12.772,-3.4117 26.2709,0.285 35.2936,9.6655 5.1345,5.338 7.6349,10.0334 9.2759,17.4195 l 1.1976,5.3906 10.4829,0 10.4828,0 1.1988,-5.3906 c 3.1065,-13.9692 12.1211,-23.4262 25.8184,-27.085 12.772,-3.4117 26.2709,0.285 35.2936,9.6655 5.1345,5.338 7.6349,10.0334 9.2759,17.4195 l 1.1976,5.3906 10.4829,0 10.4828,0 1.1988,-5.3906 c 3.1065,-13.9692 12.1211,-23.4262 25.8184,-27.085 12.772,-3.4117 26.2709,0.285 35.2936,9.6655 5.1345,5.338 7.6349,10.0334 9.2759,17.4195 l 1.1976,5.3906 10.4829,0 10.4828,0 1.1988,-5.3906 c 3.1065,-13.9692 12.1211,-23.4262 25.8184,-27.085 12.772,-3.4117 26.2709,0.285 35.2936,9.6655 5.1345,5.338 7.6349,10.0334 9.2759,17.4195 l 1.1976,5.3906 10.4829,0 10.4828,0 1.1988,-5.3906 c 3.2269,-14.5112 12.9478,-24.2321 27.459,-27.459 l 5.3906,-1.1988 0,-10.4829 0,-10.4828 -4.9219,-1.1041 c -16.413,-3.6816 -27.1743,-15.9563 -28.5813,-32.6011 -0.9113,-10.7819 2.9784,-21.1892 10.6916,-28.6056 5.3402,-5.1349 10.0355,-7.6349 17.421,-9.2759 l 5.3906,-1.1976 0,-10.4829 0,-10.4828 -4.9219,-1.1041 c -16.413,-3.6816 -27.1743,-15.9563 -28.5813,-32.6011 -0.9113,-10.7819 2.9784,-21.1892 10.6916,-28.6056 5.3402,-5.1349 10.0355,-7.6349 17.421,-9.2759 l 5.3906,-1.1976 0,-10.4829 0,-10.4828 -4.9219,-1.1041 c -16.413,-3.6816 -27.1743,-15.9563 -28.5813,-32.6011 -0.9113,-10.7819 2.9784,-21.1892 10.6916,-28.6056 5.3402,-5.1349 10.0355,-7.6349 17.421,-9.2759 l 5.3906,-1.1976 0,-10.4829 0,-10.4828 -4.9219,-1.1041 c -16.413,-3.6816 -27.1743,-15.9563 -28.5813,-32.6011 -0.9113,-10.7819 2.9784,-21.1892 10.6916,-28.6056 5.3402,-5.1349 10.0355,-7.63494 17.421,-9.27585 l 5.3906,-1.19766 0,-10.48284 0,-10.48284 -4.9219,-1.1041 c -16.413,-3.68156 -27.1743,-15.95634 -28.5813,-32.60109 -0.9113,-10.78188 2.9784,-21.18915 10.6916,-28.60568 5.3402,-5.13485 10.0355,-7.6349 17.421,-9.27575 l 5.3906,-1.19766 0,-10.48288 0,-10.48288 -4.9219,-1.10402 c -16.413,-3.68156 -27.1743,-15.95643 -28.5813,-32.60114 -0.9113,-10.78187 2.9784,-21.18914 10.6916,-28.60567 5.3402,-5.13485 10.0355,-7.6349 17.421,-9.27575 l 5.3906,-1.19766 0,-10.48288 0,-10.48288 -4.9219,-1.10402 c -16.413,-3.68156 -27.1743,-15.95643 -28.5813,-32.60114 -0.9113,-10.78187 2.9784,-21.18914 10.6916,-28.60567 5.3402,-5.13485 10.0355,-7.6349 17.421,-9.27575 l 5.3906,-1.19766 0,-10.48288 0,-10.48288 -4.9219,-1.10402 c -16.413,-3.68156 -27.1743,-15.95643 -28.5813,-32.60114 -0.9113,-10.78187 2.9784,-21.18914 10.6916,-28.60567 5.3402,-5.13485 10.0355,-7.6349 17.421,-9.27575 l 5.3906,-1.19766 0,-10.48288 0,-10.48288 -4.9219,-1.10402 c -16.413,-3.68156 -27.1743,-15.95643 -28.5813,-32.60114 -0.9113,-10.78187 2.9784,-21.18914 10.6916,-28.60567 5.3402,-5.13485 10.0355,-7.6349 17.421,-9.27575 l 5.3906,-1.19766 0,-10.48288 0,-10.48288 -4.9219,-1.10402 c -16.413,-3.68156 -27.1743,-15.95643 -28.5813,-32.60114 -0.9113,-10.78187 2.9784,-21.18914 10.6916,-28.60567 5.3402,-5.13485 10.0355,-7.6349 17.421,-9.27575 l 5.3906,-1.19766 0,-10.48288 0,-10.48288 -4.9219,-1.10402 c -16.413,-3.68156 -27.1743,-15.95643 -28.5813,-32.60114 -0.9113,-10.78187 2.9784,-21.18914 10.6916,-28.60567 5.3402,-5.13485 10.0355,-7.6349 17.421,-9.27575 l 5.3906,-1.19766 0,-10.48288 0,-10.48288 -4.9219,-1.10402 c -16.413,-3.68156 -27.1743,-15.95643 -28.5813,-32.60114 -0.9113,-10.78187 2.9784,-21.18914 10.6916,-28.60567 5.3402,-5.13485 10.0355,-7.6349 17.421,-9.27575 l 5.3906,-1.19766 0,-10.48288 0,-10.48288 -4.9219,-1.10402 c -16.413,-3.68156 -27.1743,-15.95643 -28.5813,-32.60114 -0.9113,-10.78187 2.9784,-21.18914 10.6916,-28.60567 5.3402,-5.13485 10.0355,-7.6349 17.421,-9.27575 l 5.3906,-1.19766 0,-10.48288 0,-10.48288 -4.9219,-1.10402 c -16.413,-3.68156 -27.1743,-15.95643 -28.5813,-32.601141 -0.9113,-10.781866 2.9784,-21.189142 10.6916,-28.605667 5.3402,-5.134854 10.0355,-7.634904 17.421,-9.275754 l 5.3906,-1.197657 0,-10.482881 0,-10.482881 -5.3906,-1.197656 c -7.3855,-1.640851 -12.0808,-4.140901 -17.421,-9.275755 -5.2878,-5.08439 -8.3642,-10.657516 -10.038,-18.184333 L 1840.0141,3.75 l -10.4828,0 -10.4829,0 -1.1988,5.390625 c -3.1065,13.969216 -12.1211,23.426131 -25.8184,27.084981 -12.772,3.411706 -26.2709,-0.285073 -35.2936,-9.665505 -5.1345,-5.337985 -7.6349,-10.033354 -9.2759,-17.419476 L 1746.2641,3.75 l -10.4828,0 -10.4829,0 -1.1988,5.390625 c -3.1065,13.969216 -12.1211,23.426131 -25.8184,27.084981 -12.772,3.411706 -26.2709,-0.285073 -35.2936,-9.665505 -5.1345,-5.337985 -7.6349,-10.033354 -9.2759,-17.419476 L 1652.5141,3.75 l -10.4828,0 -10.4829,0 -1.1988,5.390625 c -3.1065,13.969216 -12.1211,23.426131 -25.8184,27.084981 -12.772,3.411706 -26.2709,-0.285073 -35.2936,-9.665505 -5.1345,-5.337985 -7.6349,-10.033354 -9.2759,-17.419476 L 1558.7641,3.75 l -10.4828,0 -10.4829,0 -1.1988,5.390625 c -3.1065,13.969216 -12.1211,23.426131 -25.8184,27.084981 -12.772,3.411706 -26.2709,-0.285073 -35.2936,-9.665505 -5.1345,-5.337985 -7.6349,-10.033354 -9.2759,-17.419476 L 1465.0141,3.75 l -10.4828,0 -10.4829,0 -1.1988,5.390625 c -3.1065,13.969216 -12.1211,23.426131 -25.8184,27.084981 -12.772,3.411706 -26.2709,-0.285073 -35.2936,-9.665505 -5.1345,-5.337985 -7.6349,-10.033354 -9.2759,-17.419476 L 1371.2641,3.75 l -10.4828,0 -10.4829,0 -1.1988,5.390625 c -3.1065,13.969216 -12.1211,23.426131 -25.8184,27.084981 -12.772,3.411706 -26.2709,-0.285073 -35.2936,-9.665505 -5.1345,-5.337985 -7.6349,-10.033354 -9.2759,-17.419476 L 1277.5141,3.75 l -10.4828,0 -10.4829,0 -1.1988,5.390625 c -3.1065,13.969216 -12.1211,23.426131 -25.8184,27.084981 -12.772,3.411706 -26.2709,-0.285073 -35.2936,-9.665505 -5.1345,-5.337985 -7.6349,-10.033354 -9.2759,-17.419476 L 1183.7641,3.75 l -10.4828,0 -10.4829,0 -1.1988,5.390625 c -3.1065,13.969216 -12.1211,23.426131 -25.8184,27.084981 -12.772,3.411706 -26.2709,-0.285073 -35.2936,-9.665505 -5.1345,-5.337985 -7.6349,-10.033354 -9.2759,-17.419476 L 1090.0141,3.75 l -10.4828,0 -10.4829,0 -1.1988,5.390625 c -3.1065,13.969216 -12.1211,23.426131 -25.8184,27.084981 -12.772,3.411706 -26.2709,-0.285073 -35.2936,-9.665505 -5.1345,-5.337985 -7.63485,-10.033354 -9.27585,-17.419476 L 996.26409,3.75 l -10.48284,0 -10.48284,0 -1.19879,5.390625 c -3.10649,13.969216 -12.12112,23.426131 -25.81837,27.084981 -12.77203,3.411706 -26.27087,-0.285073 -35.29371,-9.665505 -5.1345,-5.337985 -7.63475,-10.033354 -9.27575,-17.419476 L 902.51413,3.75 l -10.48288,0 -10.48288,0 -1.19876,5.390625 c -3.10647,13.969216 -12.12113,23.426131 -25.81836,27.084981 -12.77203,3.411706 -26.27087,-0.285073 -35.29371,-9.665505 -5.1345,-5.337985 -7.63475,-10.033354 -9.27575,-17.419476 L 808.76413,3.75 l -10.48288,0 -10.48288,0 -1.19876,5.390625 c -3.10647,13.969216 -12.12113,23.426131 -25.81836,27.084981 -12.77203,3.411706 -26.27087,-0.285073 -35.29371,-9.665505 -5.1345,-5.337985 -7.63475,-10.033354 -9.27575,-17.419476 L 715.01413,3.75 l -10.48288,0 -10.48288,0 -1.19876,5.390625 c -3.10647,13.969216 -12.12113,23.426131 -25.81836,27.084981 -12.77203,3.411706 -26.27087,-0.285073 -35.29371,-9.665505 -5.1345,-5.337985 -7.63475,-10.033354 -9.27575,-17.419476 L 621.26413,3.75 l -10.48288,0 -10.48288,0 -1.19876,5.390625 c -3.10647,13.969216 -12.12113,23.426131 -25.81836,27.084981 -12.77203,3.411706 -26.27087,-0.285073 -35.29371,-9.665505 -5.1345,-5.337985 -7.63475,-10.033354 -9.27575,-17.419476 L 527.51413,3.75 l -10.48288,0 -10.48288,0 -1.19876,5.390625 c -3.10647,13.969216 -12.12113,23.426131 -25.81836,27.084981 -12.77203,3.411706 -26.27087,-0.285073 -35.29371,-9.665505 -5.1345,-5.337985 -7.63475,-10.033354 -9.27575,-17.419476 L 433.76413,3.75 l -10.48288,0 -10.48288,0 -1.19876,5.390625 c -3.10647,13.969216 -12.12113,23.426131 -25.81836,27.084981 -12.77203,3.411706 -26.27087,-0.285073 -35.29371,-9.665505 -5.1345,-5.337985 -7.63475,-10.033354 -9.27575,-17.419476 L 340.01413,3.75 l -10.48288,0 -10.48288,0 -1.19876,5.390625 c -3.10647,13.969216 -12.12113,23.426131 -25.81836,27.084981 -12.77203,3.411706 -26.27087,-0.285073 -35.29371,-9.665505 -5.1345,-5.337985 -7.63475,-10.033354 -9.27575,-17.419476 L 246.26413,3.75 l -10.48288,0 -10.48288,0 -1.19876,5.390625 c -3.10647,13.969216 -12.12113,23.426131 -25.81836,27.084981 -12.77203,3.411706 -26.27087,-0.285073 -35.29371,-9.665505 -5.1345,-5.337985 -7.63475,-10.033354 -9.27575,-17.419476 L 152.51413,3.75 l -10.48288,0 -10.48288,0 -1.19876,5.390625 C 127.24314,23.109841 118.22848,32.566756 104.53125,36.225606 91.759222,39.637312 78.260385,35.940533 69.237542,26.560101 64.103044,21.222116 61.602792,16.526747 59.961787,9.140625 L 58.764131,3.75 l -10.482881,0 -10.482881,0 -1.198763,5.390625 C 33.372627,23.651786 23.651786,33.372627 9.140625,36.599606 L 3.75,37.798369 l 0,10.482881 0,10.482881 4.921875,1.104018 c 16.412983,3.681567 27.174296,15.956427 28.581268,32.601138 0.911388,10.781873 -2.978372,21.189143 -10.691481,28.605673 -5.340195,5.13485 -10.035604,7.6349 -17.421037,9.27575 L 3.75,131.54837 l 0,10.48288 0,10.48288 4.921875,1.10402 c 16.412983,3.68156 27.174296,15.95643 28.581268,32.60114 0.911388,10.78187 -2.978372,21.18914 -10.691481,28.60567 -5.340195,5.13485 -10.035604,7.6349 -17.421037,9.27575 L 3.75,225.29837 l 0,10.48288 0,10.48288 4.921875,1.10402 c 16.412983,3.68156 27.174296,15.95643 28.581268,32.60114 0.911388,10.78187 -2.978372,21.18914 -10.691481,28.60567 -5.340195,5.13485 -10.035604,7.6349 -17.421037,9.27575 L 3.75,319.04837 l 0,10.48288 0,10.48288 4.921875,1.10402 c 16.412983,3.68156 27.174296,15.95643 28.581268,32.60114 0.911388,10.78187 -2.978372,21.18914 -10.691481,28.60567 -5.340195,5.13485 -10.035604,7.6349 -17.421037,9.27575 L 3.75,412.79837 l 0,10.48288 0,10.48288 4.921875,1.10402 c 16.412983,3.68156 27.174296,15.95643 28.581268,32.60114 0.911388,10.78187 -2.978372,21.18914 -10.691481,28.60567 -5.340195,5.13485 -10.035604,7.6349 -17.421037,9.27575 L 3.75,506.54837 l 0,10.48288 0,10.48288 4.921875,1.10402 c 16.412983,3.68156 27.174296,15.95643 28.581268,32.60114 0.911388,10.78187 -2.978372,21.18914 -10.691481,28.60567 -5.340195,5.13485 -10.035604,7.6349 -17.421037,9.27575 L 3.75,600.29837 l 0,10.48288 0,10.48288 4.921875,1.10402 c 16.412983,3.68156 27.174296,15.95643 28.581268,32.60114 0.911388,10.78187 -2.978372,21.18914 -10.691481,28.60567 -5.340195,5.13485 -10.035604,7.6349 -17.421037,9.27575 L 3.75,694.04837 l 0,10.48288 0,10.48288 4.921875,1.10402 c 16.412983,3.68156 27.174296,15.95643 28.581268,32.60114 0.911388,10.78187 -2.978372,21.18914 -10.691481,28.60567 -5.340195,5.13485 -10.035604,7.6349 -17.421037,9.27575 L 3.75,787.79837 l 0,10.48288 0,10.48288 4.921875,1.10402 c 16.412983,3.68156 27.174296,15.95643 28.581268,32.60114 0.911388,10.78187 -2.978372,21.18914 -10.691481,28.60567 -5.340195,5.13485 -10.035604,7.6349 -17.421037,9.27575 L 3.75,881.54837 l 0,10.48288 0,10.48288 4.921875,1.10402 c 16.412983,3.68156 27.174296,15.95643 28.581268,32.60114 0.888176,10.5073 -2.561287,20.1809 -9.928185,27.84234 -5.08439,5.28778 -10.657516,8.36418 -18.184333,10.038 L 3.75,975.29841 l 0,10.48284 0,10.48284 4.921875,1.1041 c 16.412983,3.68161 27.174296,15.95631 28.581268,32.60111 0.888176,10.5073 -2.561287,20.1809 -9.928185,27.8423 -5.08439,5.2878 -10.657516,8.3642 -18.184333,10.038 l -5.390625,1.1988 0,10.4829 0,10.4828 4.921875,1.1041 c 16.412983,3.6816 27.174296,15.9563 28.581268,32.6011 0.888176,10.5073 -2.561287,20.1809 -9.928185,27.8423 -5.08439,5.2878 -10.657516,8.3642 -18.184333,10.038 l -5.390625,1.1988 0,10.4829 0,10.4828 4.921875,1.1041 c 16.412983,3.6816 27.174296,15.9563 28.581268,32.6011 0.888176,10.5073 -2.561287,20.1809 -9.928185,27.8423 -5.08439,5.2878 -10.657516,8.3642 -18.184333,10.038 l -5.390625,1.1988 0,10.4829 0,10.4828 4.921875,1.1041 c 16.412983,3.6816 27.174296,15.9563 28.581268,32.6011 0.888176,10.5073 -2.561287,20.1809 -9.928185,27.8423 -5.08439,5.2878 -10.657516,8.3642 -18.184333,10.038 l -5.390625,1.1988 0,10.4829 0,10.4828 5.390625,1.1988 c 7.526817,1.6738 13.099943,4.7502 18.184333,10.038 5.134854,5.3402 7.634904,10.0355 9.275754,17.421 l 1.197657,5.3906 10.482881,0 10.482881,0 1.198763,-5.3906 z"
     id="path3346"
     inkscape:connector-curvature="0" />
</svg>
