<?xml version="1.0" encoding="UTF-8" standalone="no"?>
<!-- Uploaded to: SVG Repo, www.svgrepo.com, Generator: SVG Repo Mixer Tools -->

<svg
   fill="#000000"
   height="100.00059mm"
   width="100mm"
   version="1.1"
   id="Capa_1"
   viewBox="0 0 80.3263 80.326771"
   xml:space="preserve"
   xmlns="http://www.w3.org/2000/svg"
   xmlns:svg="http://www.w3.org/2000/svg"><defs
   id="defs1" />
<path
   d="m 79.1067,80.286629 h -4.605498 c -0.651793,0 -1.179929,-0.528137 -1.179929,-1.179929 0,-1.993136 -1.621694,-3.614358 -3.614358,-3.614358 -1.992664,0 -3.613886,1.621694 -3.613886,3.614358 0,0.651792 -0.528137,1.179929 -1.179929,1.179929 h -4.942013 c -0.651793,0 -1.17993,-0.528137 -1.17993,-1.179929 0,-1.993136 -1.621694,-3.614358 -3.614358,-3.614358 -1.992663,0 -3.613886,1.621694 -3.613886,3.614358 0,0.651792 -0.528136,1.179929 -1.179928,1.179929 H 45.44097 c -0.651792,0 -1.179928,-0.528137 -1.179928,-1.179929 0,-1.993136 -1.621222,-3.614358 -3.613886,-3.614358 -1.992664,0 -3.614358,1.621694 -3.614358,3.614358 0,0.651792 -0.528136,1.179929 -1.179929,1.179929 h -4.941541 c -0.651793,0 -1.17993,-0.528137 -1.17993,-1.179929 0,-1.993136 -1.621694,-3.614358 -3.614358,-3.614358 -1.992663,0 -3.613886,1.621694 -3.613886,3.614358 0,0.651792 -0.528136,1.179929 -1.179928,1.179929 h -4.942015 c -0.651792,0 -1.179928,-0.528137 -1.179928,-1.179929 0,-1.993136 -1.621222,-3.614358 -3.613886,-3.614358 -1.9926635,0 -3.6143576,1.621694 -3.6143576,3.614358 0,0.651792 -0.5281362,1.179929 -1.1799289,1.179929 H 1.2200708 c -0.65179271,0 -1.17992885,-0.528137 -1.17992885,-1.179929 v -5.089269 c 0,-0.651793 0.52813614,-1.179929 1.17992885,-1.179929 1.9931357,0 3.6138859,-1.621222 3.6138859,-3.613886 0,-1.992664 -1.6212221,-3.614358 -3.6138859,-3.614358 -0.65179271,0 -1.17992885,-0.528136 -1.17992885,-1.179928 v -4.941542 c 0,-0.651793 0.52813614,-1.17993 1.17992885,-1.17993 1.9931357,0 3.6138859,-1.621694 3.6138859,-3.614357 0,-1.992664 -1.6212221,-3.613887 -3.6138859,-3.613887 -0.65179271,0 -1.17992885,-0.528136 -1.17992885,-1.179928 v -4.942014 c 0,-0.651793 0.52813614,-1.179929 1.17992885,-1.179929 1.9931357,0 3.6138859,-1.621694 3.6138859,-3.614358 0,-1.992664 -1.6207502,-3.614358 -3.6138859,-3.614358 -0.65179271,0 -1.17992885,-0.528136 -1.17992885,-1.179929 v -4.941542 c 0,-0.651792 0.52813614,-1.179928 1.17992885,-1.179928 1.9931357,0 3.6138859,-1.621223 3.6138859,-3.613887 0,-1.992663 -1.6207502,-3.614829 -3.6138859,-3.614829 -0.65179271,0 -1.17992885,-0.528136 -1.17992885,-1.179929 v -4.941542 c 0,-0.651792 0.52813614,-1.179929 1.17992885,-1.179929 1.9931357,0 3.6138859,-1.621694 3.6138859,-3.614358 0,-1.9926632 -1.6207502,-3.6138855 -3.6138859,-3.6138855 -0.65179271,0 -1.17992885,-0.5281361 -1.17992885,-1.1799287 v -5.089269 c 0,-0.65179271 0.52860811,-1.17992885 1.17992885,-1.17992885 h 5.5725678 c 0.6517927,0 1.1799288,0.52813614 1.1799288,1.17992885 0,1.9931357 1.6216942,3.6143579 3.6143576,3.6143579 1.992664,0 3.613886,-1.6216941 3.613886,-3.6143579 0,-0.65179271 0.528136,-1.17992885 1.179929,-1.17992885 h 4.942013 c 0.651793,0 1.17993,0.52813614 1.17993,1.17992885 0,1.9931357 1.621222,3.6143579 3.613885,3.6143579 1.992665,0 3.614359,-1.6216941 3.614359,-3.6143579 0,-0.65179271 0.528136,-1.17992885 1.179928,-1.17992885 h 4.941542 c 0.651793,0 1.179929,0.52813614 1.179929,1.17992885 0,1.9931357 1.621694,3.6143579 3.614358,3.6143579 1.992664,0 3.613886,-1.6216941 3.613886,-3.6143579 0,-0.65179271 0.528137,-1.17992885 1.179929,-1.17992885 h 4.942013 c 0.651793,0 1.17993,0.52813614 1.17993,1.17992885 0,1.9931357 1.621222,3.6143579 3.613885,3.6143579 1.992664,0 3.614359,-1.6216941 3.614359,-3.6143579 0,-0.65179271 0.528136,-1.17992885 1.179928,-1.17992885 h 4.942014 c 0.651793,0 1.179929,0.52813614 1.179929,1.17992885 0,1.9931357 1.621222,3.6143579 3.613886,3.6143579 1.992664,0 3.614358,-1.6216941 3.614358,-3.6143579 0,-0.65179271 0.528136,-1.17992885 1.179928,-1.17992885 h 4.605499 c 0.651793,0 1.179929,0.52813614 1.179929,1.17992885 v 5.089269 c 0,0.6517926 -0.528136,1.1799287 -1.179929,1.1799287 -1.993136,0 -3.613886,1.6212223 -3.613886,3.6138855 0,1.992664 1.621222,3.614358 3.613886,3.614358 0.651793,0 1.179929,0.528137 1.179929,1.179929 v 4.941542 c 0,0.651793 -0.528136,1.179929 -1.179929,1.179929 -1.993136,0 -3.613886,1.621694 -3.613886,3.614357 0,1.992665 1.621222,3.613887 3.613886,3.613887 0.651793,0 1.179929,0.528135 1.179929,1.179928 v 4.942014 c 0,0.651793 -0.528136,1.179929 -1.179929,1.179929 -1.993136,0 -3.613886,1.621223 -3.613886,3.613886 0,1.992664 1.621222,3.614358 3.613886,3.614358 0.651793,0 1.179929,0.528137 1.179929,1.179929 v 4.942013 c 0,0.651793 -0.528136,1.17993 -1.179929,1.17993 -1.993136,0 -3.613886,1.621222 -3.613886,3.613885 0,1.992665 1.621222,3.614359 3.613886,3.614359 0.651793,0 1.179929,0.528136 1.179929,1.179928 v 4.941542 c 0,0.651793 -0.528136,1.179929 -1.179929,1.179929 -1.993136,0 -3.613886,1.621694 -3.613886,3.614358 0,1.992664 1.621222,3.613886 3.613886,3.613886 0.651793,0 1.179929,0.528137 1.179929,1.179929 v 5.089269 c 4.72e-4,0.652264 -0.527665,1.180401 -1.179457,1.180401 z"
   id="stamp31"
   style="fill:none;stroke:#030303;stroke-width:0.0802839;stroke-dasharray:none;stroke-opacity:1" />
<path
   d="M 69.223144,70.403545 H 11.103626 c -0.651792,0 -1.1799283,-0.528137 -1.1799283,-1.179929 V 11.103154 c 0,-0.651793 0.5281363,-1.1799283 1.1799283,-1.1799283 h 58.11999 c 0.651792,0 1.179929,0.5281353 1.179929,1.1799283 v 58.120462 c -4.72e-4,0.651792 -0.528608,1.179929 -1.180401,1.179929 z"
   id="stamp32"
   style="fill:none;stroke:#040404;stroke-width:0.0802839;stroke-dasharray:none;stroke-opacity:1" />
</svg>
