<?xml version="1.0" encoding="UTF-8" standalone="no"?>
<!-- Created with Inkscape (http://www.inkscape.org/) -->

<svg
   id="svg3336"
   version="1.1"
   width="378.12943"
   height="284.26688"
   viewBox="0 0 378.12943 284.26688"
   xmlns="http://www.w3.org/2000/svg"
   xmlns:svg="http://www.w3.org/2000/svg">
  <defs
     id="defs1" />
  <path
     style="fill:none;stroke:#010101;stroke-width:0.377953;stroke-dasharray:none;stroke-opacity:1"
     d="m 7.020796,283.55471 c -0.046015,-0.0806 -0.1912975,-0.61348 -0.3228499,-1.18425 -0.3276839,-1.42176 -0.8398981,-2.39859 -1.7643542,-3.36477 -0.9437977,-0.98638 -1.886193,-1.49903 -3.5181497,-1.91382 l -1.22646582,-0.31172 v -2.80625 -2.80628 L 1.4154422,270.8559 c 1.6319567,-0.41479 2.574352,-0.92743 3.5181497,-1.91382 0.9135259,-0.95477 1.433153,-1.93604 1.7595142,-3.32268 0.399043,-1.69549 -0.2851103,-3.90193 -1.6684287,-5.38081 -1.0037153,-1.07305 -1.767945,-1.50147 -3.5486609,-1.98926 l -1.28704012,-0.35256 v -2.79892 -2.79893 L 1.4154422,251.9872 c 1.6319567,-0.41479 2.574352,-0.92744 3.5181497,-1.91382 0.9135259,-0.95477 1.433153,-1.93604 1.7595142,-3.32269 0.399043,-1.69548 -0.2851103,-3.90193 -1.6684287,-5.38081 -1.0037153,-1.07305 -1.767945,-1.50146 -3.5486609,-1.98925 l -1.28704012,-0.35256 v -2.79893 -2.79893 l 1.22646582,-0.31172 c 1.6319567,-0.41479 2.574352,-0.92743 3.5181497,-1.91382 0.9135259,-0.95477 1.433153,-1.93604 1.7595142,-3.32268 0.399043,-1.69549 -0.2851103,-3.90193 -1.6684287,-5.38081 -1.0037153,-1.07305 -1.767945,-1.50147 -3.5486609,-1.98926 l -1.28704012,-0.35256 v -2.79893 -2.79892 l 1.22646582,-0.31172 c 1.6319567,-0.41479 2.574352,-0.92744 3.5181497,-1.91382 0.9135259,-0.95477 1.433153,-1.93604 1.7595142,-3.32269 0.399043,-1.69548 -0.2851103,-3.90193 -1.6684287,-5.38081 -1.0037153,-1.07305 -1.767945,-1.50147 -3.5486609,-1.98925 l -1.28704012,-0.35257 v -2.79892 -2.79893 l 1.22646582,-0.31171 c 1.6319567,-0.41479 2.574352,-0.92744 3.5181497,-1.91384 0.9135259,-0.95475 1.433153,-1.93602 1.7595142,-3.32268 0.399043,-1.69548 -0.2851103,-3.90193 -1.6684287,-5.3808 -1.0037153,-1.07306 -1.767945,-1.50146 -3.5486609,-1.98926 l -1.28704012,-0.35257 v -2.79892 -2.79892 l 1.22646582,-0.31172 c 1.6319567,-0.41478 2.574352,-0.92743 3.5181497,-1.91383 0.9135259,-0.95475 1.433153,-1.93603 1.7595142,-3.32269 0.399043,-1.69548 -0.2851103,-3.90192 -1.6684287,-5.3808 -1.0037153,-1.07305 -1.767945,-1.50145 -3.5486609,-1.98926 l -1.28704012,-0.35256 v -2.79893 -2.79892 l 1.22646582,-0.31172 c 1.6319567,-0.41478 2.574352,-0.92743 3.5181497,-1.91382 0.9135259,-0.95476 1.433153,-1.93603 1.7595142,-3.3227 0.399043,-1.69547 -0.2851103,-3.90192 -1.6684287,-5.3808 -1.0037153,-1.07305 -1.767945,-1.50145 -3.5486609,-1.98925 l -1.28704012,-0.35257 v -2.79892 -2.79892 l 1.22646582,-0.31172 c 1.6319567,-0.41478 2.574352,-0.92743 3.5181497,-1.91383 0.9135259,-0.95475 1.433153,-1.93603 1.7595142,-3.32269 0.399043,-1.69548 -0.2851103,-3.90192 -1.6684287,-5.3808 -1.0037153,-1.07305 -1.767945,-1.50145 -3.5486609,-1.98926 l -1.28704012,-0.35256 v -2.79893 -2.79892 l 1.22646582,-0.31172 c 1.6319567,-0.41478 2.574352,-0.92743 3.5181497,-1.91382 0.9135259,-0.95476 1.433153,-1.93603 1.7595142,-3.3227 0.399043,-1.69547 -0.2851103,-3.90192 -1.6684287,-5.3808 -1.0037153,-1.07305 -1.767945,-1.50145 -3.5486609,-1.98925 l -1.28704012,-0.35257 v -2.79892 -2.79892 l 1.22646582,-0.31172 c 1.6319567,-0.41478 2.574352,-0.92743 3.5181497,-1.913826 0.9135259,-0.954756 1.433153,-1.936027 1.7595142,-3.322693 C 7.0921491,94.105565 6.4079958,91.899122 5.0246774,90.420242 4.0209621,89.347189 3.2567324,88.91879 1.4760165,88.430985 L 0.18897638,88.078419 V 85.279497 82.480578 L 1.4154422,82.168855 c 1.6319567,-0.414779 2.574352,-0.92743 3.5181497,-1.913826 0.9135259,-0.954756 1.433153,-1.936028 1.7595142,-3.322693 0.399043,-1.695477 -0.2851103,-3.90192 -1.6684287,-5.3808 C 4.0209621,70.478484 3.2567324,70.050085 1.4760165,69.56228 L 0.18897638,69.209714 V 66.410791 63.611873 L 1.4154422,63.30015 C 3.0473989,62.885371 3.9897942,62.372719 4.9335919,61.386324 5.8471178,60.431567 6.3667449,59.450296 6.6931061,58.06363 7.0921491,56.368154 6.4079958,54.161711 5.0246774,52.682831 4.0209621,51.609779 3.2567324,51.181379 1.4760165,50.693575 L 0.18897638,50.341009 v -2.798923 -2.79892 L 1.4154422,44.431445 c 1.6319567,-0.41478 2.574352,-0.927431 3.5181497,-1.913826 0.9135259,-0.954757 1.433153,-1.936028 1.7595142,-3.322694 C 7.0921491,37.499449 6.4079958,35.293006 5.0246774,33.814126 4.0209621,32.741073 3.2567324,32.312674 1.4760165,31.824869 L 0.18897638,31.472303 v -2.798922 -2.79892 L 1.4154422,25.562739 C 3.0473989,25.14796 3.9897942,24.635309 4.9335919,23.648913 5.8471178,22.694157 6.3667449,21.712886 6.6931061,20.32622 7.0921491,18.630742 6.4079958,16.4243 5.0246774,14.945421 4.0209621,13.872368 3.2567324,13.443967 1.4760165,12.956164 L 0.18897638,12.603597 V 9.8046763 7.0057556 L 1.4154422,6.6940349 C 4.4021552,5.9349267 5.9349267,4.4021552 6.6940349,1.4154422 L 7.0057556,0.18897638 h 2.8062605 2.8062599 l 0.311721,1.22646582 c 0.414781,1.6319567 0.927431,2.574352 1.913827,3.5181497 1.557069,1.4898273 3.69593,2.1803718 5.463328,1.7638696 2.85201,-0.6721007 4.506561,-2.334972 5.255587,-5.2820193 l 0.311722,-1.22646582 h 2.80626 2.806259 l 0.311723,1.22646582 c 0.414779,1.6319567 0.92743,2.574352 1.913826,3.5181497 1.557067,1.4898273 3.695931,2.1803718 5.463328,1.7638696 2.852011,-0.6721007 4.506562,-2.334972 5.255588,-5.2820193 l 0.311721,-1.22646582 h 2.80626 2.806261 l 0.311721,1.22646582 c 0.414779,1.6319567 0.927431,2.574352 1.913826,3.5181497 1.557068,1.4898273 3.695932,2.1803718 5.463328,1.7638696 2.852011,-0.6721007 4.506562,-2.334972 5.255588,-5.2820193 l 0.311721,-1.22646582 h 2.806261 2.80626 l 0.311721,1.22646582 c 0.41478,1.6319567 0.927431,2.574352 1.913826,3.5181497 1.553665,1.4865692 3.631233,2.1642786 5.417319,1.7671478 2.860766,-0.6360827 4.547274,-2.3174033 5.301597,-5.2852975 l 0.311721,-1.22646582 h 2.806261 2.80626 l 0.311721,1.22646582 c 0.41478,1.6319567 0.927431,2.574352 1.913827,3.5181497 1.557067,1.4898273 3.695931,2.1803718 5.463328,1.7638696 2.85201,-0.6721007 4.506557,-2.334972 5.255587,-5.2820193 l 0.31172,-1.22646582 h 2.80626 2.80626 l 0.31172,1.22646582 c 0.41478,1.6319567 0.92743,2.574352 1.91383,3.5181497 1.55707,1.4898273 3.69593,2.1803718 5.46333,1.7638696 2.85201,-0.6721007 4.50656,-2.334972 5.25558,-5.2820193 l 0.31172,-1.22646582 h 2.80626 2.80626 l 0.31173,1.22646582 c 0.41478,1.6319567 0.92743,2.574352 1.91382,3.5181497 1.55707,1.4898273 3.69593,2.1803718 5.46333,1.7638696 2.85201,-0.6721007 4.50656,-2.334972 5.25559,-5.2820193 l 0.31172,-1.22646582 h 2.80626 2.80626 l 0.31172,1.22646582 c 0.41478,1.6319567 0.92743,2.574352 1.91383,3.5181497 1.55707,1.4898273 3.69593,2.1803718 5.46333,1.7638696 2.85201,-0.6721007 4.50656,-2.334972 5.25558,-5.2820193 l 0.31172,-1.22646582 h 2.80627 2.80626 l 0.31172,1.22646582 c 0.41478,1.6319567 0.92743,2.574352 1.91382,3.5181497 1.55707,1.4898273 3.69593,2.1803718 5.46333,1.7638696 2.85201,-0.6721007 4.50656,-2.334972 5.25559,-5.2820193 l 0.31172,-1.22646582 h 2.80626 2.80626 l 0.31172,1.22646582 c 0.41478,1.6319567 0.92743,2.574352 1.91383,3.5181497 1.55707,1.4898273 3.69593,2.1803718 5.46332,1.7638696 2.85203,-0.6721007 4.50657,-2.334972 5.2556,-5.2820193 l 0.31171,-1.22646582 h 2.80627 2.80626 l 0.31172,1.22646582 c 0.41479,1.6319567 0.92744,2.574352 1.91382,3.5181497 1.55708,1.4898273 3.69593,2.1803718 5.46333,1.7638696 2.85202,-0.6721007 4.50655,-2.334972 5.25559,-5.2820193 l 0.31172,-1.22646582 h 2.80627 2.80626 l 0.31172,1.22646582 c 0.41479,1.6319567 0.92743,2.574352 1.91382,3.5181497 1.55707,1.4898273 3.69593,2.1803718 5.46333,1.7638696 2.85202,-0.6721007 4.50655,-2.334972 5.25558,-5.2820193 l 0.31172,-1.22646582 h 2.80628 2.80625 l 0.31172,1.22646582 c 0.41479,1.6319567 0.92744,2.574352 1.91382,3.5181497 1.55708,1.4898273 3.69593,2.1803718 5.46333,1.7638696 2.85202,-0.6721007 4.50655,-2.334972 5.25559,-5.2820193 l 0.31172,-1.22646582 h 2.80627 2.80626 l 0.31172,1.22646582 c 0.41479,1.6319567 0.92743,2.574352 1.91382,3.5181497 1.55707,1.4898273 3.69593,2.1803718 5.46333,1.7638696 2.85202,-0.6721007 4.50655,-2.334972 5.25558,-5.2820193 l 0.31172,-1.22646582 h 2.80628 2.80625 l 0.31172,1.22646582 c 0.41479,1.6319567 0.92744,2.574352 1.91382,3.5181497 1.55708,1.4898273 3.69593,2.1803718 5.46333,1.7638696 2.85203,-0.6721007 4.50655,-2.334972 5.25559,-5.2820193 l 0.31172,-1.22646582 h 2.80627 2.80626 l 0.31172,1.22646582 c 0.41479,1.6319567 0.92743,2.574352 1.91382,3.5181497 1.55707,1.4898273 3.69593,2.1803718 5.46333,1.7638696 2.85202,-0.6721007 4.50655,-2.334972 5.25558,-5.2820193 l 0.31172,-1.22646582 h 2.80628 2.80625 l 0.31172,1.22646582 c 0.41479,1.6319567 0.92744,2.574352 1.91382,3.5181497 1.55708,1.4898273 3.69593,2.1803718 5.46333,1.7638696 2.85203,-0.6721007 4.50655,-2.334972 5.25559,-5.2820193 l 0.31172,-1.22646582 h 2.80627 2.80626 l 0.31172,1.22646582 c 0.41479,1.6319567 0.92743,2.574352 1.91382,3.5181497 1.55707,1.4898273 3.69593,2.1803718 5.46333,1.7638696 2.85202,-0.6721007 4.50655,-2.334972 5.25558,-5.2820193 l 0.31172,-1.22646582 h 2.80628 2.80625 l 0.31172,1.22646582 c 0.41479,1.6319567 0.92744,2.574352 1.91382,3.5181497 1.55708,1.4898273 3.69594,2.1803718 5.46333,1.7638696 2.85203,-0.6721007 4.50656,-2.334972 5.25559,-5.2820193 l 0.31172,-1.22646582 h 2.80627 2.80626 l 0.31172,1.22646582 c 0.41487,1.6323417 0.92761,2.5746958 1.91382,3.5173642 0.99836,0.954294 1.76625,1.3563695 3.36477,1.7618462 l 1.22647,0.311103 v 2.8062605 2.8062599 l -1.22647,0.311721 c -1.63195,0.414781 -2.57436,0.927431 -3.51816,1.913827 -0.91352,0.954757 -1.43313,1.936028 -1.75951,3.322692 -0.39905,1.695478 0.28512,3.90192 1.66842,5.3808 1.00372,1.073053 1.76796,1.501452 3.54869,1.989257 l 1.28701,0.352566 v 2.798922 2.798919 l -1.22645,0.311723 c -1.63195,0.414779 -2.57436,0.92743 -3.51816,1.913826 -0.91352,0.954756 -1.43315,1.936028 -1.75951,3.322693 -0.39905,1.695477 0.28512,3.90192 1.66842,5.380799 1.00372,1.073053 1.76796,1.501452 3.54869,1.989257 l 1.28701,0.352566 v 2.798923 2.79892 l -1.22645,0.311721 c -1.63195,0.414779 -2.57436,0.927431 -3.51816,1.913826 -0.91352,0.954757 -1.43315,1.936028 -1.75951,3.322694 -0.39905,1.695476 0.28512,3.901919 1.66842,5.380799 1.00372,1.073052 1.76796,1.501452 3.54869,1.989256 l 1.28701,0.352566 v 2.798923 2.79892 l -1.22645,0.311721 c -1.63195,0.41478 -2.57436,0.927431 -3.51816,1.913826 -0.91352,0.954757 -1.43315,1.936028 -1.75951,3.322694 -0.39905,1.695476 0.28512,3.901919 1.66842,5.380799 1.00372,1.073053 1.76796,1.501452 3.54869,1.989257 l 1.28701,0.352566 v 2.798922 2.79892 l -1.22645,0.311721 c -1.63195,0.41478 -2.57436,0.927431 -3.51816,1.913827 -0.91352,0.954756 -1.43315,1.936027 -1.75951,3.322693 -0.39905,1.695477 0.28512,3.90192 1.66842,5.380799 1.00372,1.073053 1.76796,1.501453 3.54869,1.989253 l 1.28701,0.35257 v 2.79892 2.79892 l -1.22645,0.31172 c -1.63195,0.41478 -2.57436,0.92743 -3.51816,1.91383 -0.91352,0.95475 -1.43315,1.93602 -1.75951,3.32269 -0.39905,1.69548 0.28512,3.90192 1.66842,5.3808 1.00372,1.07305 1.76796,1.50145 3.54869,1.98926 l 1.28701,0.35256 v 2.79892 2.79892 l -1.22645,0.31173 c -1.63195,0.41478 -2.57436,0.92743 -3.51816,1.91382 -0.91352,0.95476 -1.43315,1.93603 -1.75951,3.3227 -0.39905,1.69547 0.28512,3.90192 1.66842,5.38079 1.00372,1.07306 1.76796,1.50146 3.54869,1.98926 l 1.28701,0.35257 v 2.79892 2.79892 l -1.22645,0.31172 c -1.63195,0.41478 -2.57436,0.92743 -3.51816,1.91383 -0.91352,0.95475 -1.43315,1.93603 -1.75951,3.32269 -0.39905,1.69548 0.28512,3.90192 1.66842,5.3808 1.00372,1.07305 1.76796,1.50145 3.54869,1.98926 l 1.28701,0.35256 v 2.79893 2.79892 l -1.22645,0.31172 c -1.63195,0.41478 -2.57436,0.92743 -3.51816,1.91382 -0.91352,0.95476 -1.43315,1.93603 -1.75951,3.3227 -0.39905,1.69547 0.28512,3.90192 1.66842,5.3808 1.00372,1.07305 1.76796,1.50145 3.54869,1.98925 l 1.28701,0.35257 v 2.79892 2.79892 l -1.22645,0.31172 c -1.63195,0.41478 -2.57436,0.92743 -3.51816,1.91383 -0.91352,0.95475 -1.43315,1.93603 -1.75951,3.32269 -0.39905,1.69548 0.28512,3.90191 1.66842,5.3808 1.00372,1.07305 1.76796,1.50146 3.54869,1.98926 l 1.28701,0.35256 v 2.79893 2.79892 l -1.22645,0.31172 c -1.63195,0.41479 -2.57436,0.92744 -3.51816,1.91382 -0.91352,0.95477 -1.43315,1.93604 -1.75951,3.32268 -0.39905,1.69549 0.28512,3.90193 1.66842,5.38082 1.00372,1.07305 1.76796,1.50146 3.54869,1.98925 l 1.28701,0.35256 v 2.79893 2.79893 l -1.22645,0.31172 c -1.63195,0.41479 -2.57436,0.92743 -3.51816,1.91382 -0.91352,0.95476 -1.43315,1.93604 -1.75951,3.32268 -0.39905,1.69549 0.28512,3.90193 1.66842,5.38081 1.00372,1.07305 1.76796,1.50147 3.54869,1.98926 l 1.28701,0.35255 v 2.79893 2.79893 l -1.22645,0.31172 c -1.63195,0.41479 -2.57436,0.92744 -3.51816,1.91382 -0.91352,0.95477 -1.43315,1.93604 -1.75951,3.32269 -0.39905,1.69548 0.28512,3.90192 1.66842,5.38081 1.00372,1.07305 1.76796,1.50146 3.54869,1.98925 l 1.28701,0.35256 v 2.79893 2.79893 l -1.22645,0.31172 c -1.63195,0.41479 -2.57436,0.92743 -3.51816,1.91382 -0.91352,0.95476 -1.43315,1.93604 -1.75951,3.32268 -0.39905,1.69549 0.28512,3.90193 1.66842,5.38081 1.00372,1.07305 1.76796,1.50147 3.54869,1.98926 l 1.28701,0.35255 v 2.79893 2.79893 l -1.22645,0.31172 c -2.98671,0.7591 -4.5195,2.29188 -5.27859,5.27859 l -0.31172,1.22648 h -2.80628 -2.80625 l -0.31172,-1.22648 c -0.41479,-1.63195 -0.92744,-2.57436 -1.91382,-3.51815 -1.55708,-1.48984 -3.69593,-2.18036 -5.46333,-1.76386 -2.85203,0.67209 -4.50655,2.33497 -5.25559,5.28201 l -0.31172,1.22648 h -2.80627 -2.80626 l -0.31172,-1.22648 c -0.41479,-1.63195 -0.92743,-2.57436 -1.91382,-3.51815 -1.55707,-1.48984 -3.69593,-2.18036 -5.46333,-1.76386 -2.85202,0.67209 -4.50655,2.33497 -5.25558,5.28201 l -0.31172,1.22648 h -2.80628 -2.80625 l -0.31172,-1.22648 c -0.41479,-1.63195 -0.92744,-2.57436 -1.91382,-3.51815 -1.55708,-1.48984 -3.69593,-2.18036 -5.46333,-1.76386 -2.85203,0.67209 -4.50655,2.33497 -5.25559,5.28201 l -0.31172,1.22648 h -2.80627 -2.80626 l -0.31172,-1.22648 c -0.41479,-1.63195 -0.92743,-2.57436 -1.91382,-3.51815 -1.55707,-1.48984 -3.69593,-2.18036 -5.46333,-1.76386 -2.85202,0.67209 -4.50655,2.33497 -5.25558,5.28201 l -0.31172,1.22648 h -2.80628 -2.80625 l -0.31172,-1.22648 c -0.41479,-1.63195 -0.92744,-2.57436 -1.91382,-3.51815 -1.55708,-1.48984 -3.69594,-2.18036 -5.46333,-1.76386 -2.85203,0.67209 -4.50656,2.33497 -5.25559,5.28201 l -0.31172,1.22648 h -2.80627 -2.80626 l -0.31172,-1.22648 c -0.41479,-1.63195 -0.92743,-2.57436 -1.91382,-3.51815 -1.55707,-1.48984 -3.69593,-2.18036 -5.46333,-1.76386 -2.85202,0.67209 -4.50655,2.33497 -5.25558,5.28201 l -0.31172,1.22648 h -2.80628 -2.80625 l -0.31172,-1.22648 c -0.41479,-1.63195 -0.92744,-2.57436 -1.91382,-3.51815 -1.55708,-1.48984 -3.69594,-2.18036 -5.46333,-1.76386 -2.85203,0.67209 -4.50656,2.33497 -5.25559,5.28201 l -0.31172,1.22648 h -2.80627 -2.80626 l -0.31172,-1.22648 c -0.41479,-1.63195 -0.92743,-2.57436 -1.91382,-3.51815 -1.55708,-1.48984 -3.69593,-2.18036 -5.46333,-1.76386 -2.85202,0.67209 -4.50655,2.33497 -5.25558,5.28201 l -0.31172,1.22648 h -2.80628 -2.80625 l -0.31172,-1.22648 c -0.41479,-1.63195 -0.92744,-2.57436 -1.91382,-3.51815 -1.55708,-1.48984 -3.69594,-2.18036 -5.46334,-1.76386 -2.85202,0.67209 -4.50655,2.33497 -5.25558,5.28201 l -0.31172,1.22648 h -2.80626 -2.80627 l -0.31171,-1.22648 c -0.41479,-1.63195 -0.92744,-2.57436 -1.91384,-3.51815 -1.55706,-1.48984 -3.69592,-2.18036 -5.46332,-1.76386 -2.85201,0.67209 -4.50656,2.33497 -5.25559,5.28201 l -0.31172,1.22648 h -2.80626 -2.80626 l -0.31172,-1.22648 c -0.41478,-1.63195 -0.92743,-2.57436 -1.91383,-3.51815 -1.55707,-1.48984 -3.69593,-2.18036 -5.46333,-1.76386 -2.85201,0.67209 -4.50656,2.33497 -5.25558,5.28201 l -0.31173,1.22648 h -2.80625 -2.80627 l -0.31172,-1.22648 c -0.41478,-1.63195 -0.92743,-2.57436 -1.91382,-3.51815 -1.55707,-1.48984 -3.69593,-2.18036 -5.46333,-1.76386 -2.85201,0.67209 -4.50656,2.33497 -5.25559,5.28201 l -0.31172,1.22648 h -2.80626 -2.80626 l -0.31172,-1.22648 c -0.41478,-1.63195 -0.92743,-2.57436 -1.91383,-3.51815 -1.55707,-1.48984 -3.69593,-2.18036 -5.46333,-1.76386 -2.85201,0.67209 -4.50656,2.33497 -5.25558,5.28201 l -0.31173,1.22648 h -2.80626 -2.80626 l -0.31172,-1.22648 c -0.41478,-1.63195 -0.92743,-2.57436 -1.91382,-3.51815 -1.55707,-1.48984 -3.69593,-2.18036 -5.46333,-1.76386 -2.85201,0.67209 -4.50656,2.33497 -5.25559,5.28201 l -0.31172,1.22648 h -2.80626 -2.80626 l -0.31172,-1.22648 c -0.41478,-1.63195 -0.92743,-2.57436 -1.913826,-3.51815 -1.557069,-1.48984 -3.695931,-2.18036 -5.463328,-1.76386 -2.85201,0.67209 -4.506561,2.33497 -5.255588,5.28201 l -0.311723,1.22648 h -2.806258 -2.806261 l -0.311721,-1.22648 c -0.414779,-1.63195 -0.92743,-2.57436 -1.913826,-3.51815 -1.55707,-1.48984 -3.695931,-2.18036 -5.463328,-1.76386 -2.852011,0.67209 -4.506562,2.33497 -5.255588,5.28201 l -0.311723,1.22648 h -2.806258 -2.806261 l -0.311721,-1.22648 c -0.414779,-1.63195 -0.927431,-2.57436 -1.913826,-3.51815 -1.55707,-1.48984 -3.695932,-2.18036 -5.463329,-1.76386 -2.85201,0.67209 -4.506561,2.33497 -5.255587,5.28201 l -0.311723,1.22648 h -2.806259 -2.80626 l -0.311721,-1.22648 c -0.41478,-1.63195 -0.927431,-2.57436 -1.913826,-3.51815 -1.55707,-1.48984 -3.695932,-2.18036 -5.463329,-1.76386 -2.85201,0.67209 -4.506561,2.33497 -5.255587,5.28201 l -0.311723,1.22648 h -2.806259 -2.80626 l -0.311722,-1.22648 c -0.414779,-1.63195 -0.92743,-2.57436 -1.913826,-3.51815 -1.557069,-1.48984 -3.69593,-2.18036 -5.463328,-1.76386 -2.852118,0.67213 -4.506974,2.33535 -5.255367,5.28201 l -0.311499,1.22648 -2.7571296,0.0521 c -1.5164214,0.0287 -2.7947783,-0.0137 -2.8407934,-0.0944 z"
     id="stamp1" />
</svg>
