<?xml version="1.0" encoding="UTF-8" standalone="no"?>
<!-- Created with Inkscape (http://www.inkscape.org/) -->

<svg
   id="svg5194"
   viewBox="0 0 377.95275 359.11889"
   version="1.1"
   width="100mm"
   height="95.016876mm"
   xmlns="http://www.w3.org/2000/svg"
   xmlns:svg="http://www.w3.org/2000/svg">
  <defs
     id="defs1" />
  <path
     id="stamp2"
     style="fill:none;stroke:#020202;stroke-width:0.378546;stroke-dasharray:none;stroke-opacity:1"
     d="m 377.76348,7.8342124 c -0.21056,0.0162 -0.42652,0.0324 -0.64248,0.0324 -3.64431,0 -6.61374,-2.94784 -6.61374,-6.5975494 0,-0.36714 0.0433,-0.72886 0.10258,-1.07979 h -6.70013 c 0.0594,0.35093 0.10258,0.71265 0.10258,1.07979 0,3.6497094 -2.96403,6.5975494 -6.61373,6.5975494 -3.64433,0 -6.59756,-2.94784 -6.59756,-6.5975494 0,-0.36714 0.0432,-0.72886 0.10258,-1.07979 h -6.70013 c 0.0594,0.35093 0.10258,0.71265 0.10258,1.07979 0,3.6497094 -2.96405,6.5975494 -6.61376,6.5975494 -3.64429,0 -6.61373,-2.94784 -6.61373,-6.5975494 0,-0.36714 0.0432,-0.72886 0.10258,-1.07979 h -6.70013 c 0.0594,0.35093 0.10257,0.71265 0.10257,1.07979 0,3.6497094 -2.96403,6.5975494 -6.61374,6.5975494 -3.64971,0 -6.59755,-2.94784 -6.59755,-6.5975494 0,-0.36714 0.0431,-0.72886 0.10257,-1.07979 h -6.71631 c 0.0594,0.35093 0.10258,0.71265 0.10258,1.07979 0,3.6497094 -2.94784,6.5975494 -6.59755,6.5975494 -3.64971,0 -6.61375,-2.94784 -6.61375,-6.5975494 0,-0.36714 0.0432,-0.72886 0.10258,-1.07979 h -6.70013 c 0.0594,0.35093 0.10258,0.71265 0.10258,1.07979 0,3.6497094 -2.96944,6.5975494 -6.61374,6.5975494 -3.64971,0 -6.61375,-2.94784 -6.61375,-6.5975494 0,-0.36714 0.0432,-0.72886 0.10258,-1.07979 h -6.70013 c 0.0594,0.35093 0.10258,0.71265 0.10258,1.07979 0,3.6497094 -2.95325,6.5975494 -6.59755,6.5975494 -3.64971,0 -6.61375,-2.94784 -6.61375,-6.5975494 0,-0.36714 0.0432,-0.72886 0.10258,-1.07979 h -6.70013 c 0.0594,0.35093 0.10258,0.71265 0.10258,1.07979 0,3.6497094 -2.96943,6.5975494 -6.61375,6.5975494 -3.64971,0 -6.61373,-2.94784 -6.61373,-6.5975494 0,-0.36714 0.0432,-0.72886 0.0971,-1.07979 H 225.901 c 0.0594,0.35093 0.10257,0.71265 0.10257,1.07979 0,3.6497094 -2.96943,6.5975494 -6.61374,6.5975494 -3.64971,0 -6.59755,-2.94784 -6.59755,-6.5975494 0,-0.36714 0.0431,-0.72886 0.0972,-1.07979 h -6.71093 c 0.0539,0.35093 0.0971,0.71265 0.0971,1.07979 0,3.6497094 -2.94783,6.5975494 -6.59214,6.5975494 -3.64971,0 -6.61375,-2.94784 -6.61375,-6.5975494 0,-0.36714 0.0432,-0.72886 0.0972,-1.07979 h -6.69474 c 0.0594,0.35093 0.0972,0.71265 0.0972,1.07979 0,3.6497094 -2.96405,6.5975494 -6.61376,6.5975494 -3.6443,0 -6.59214,-2.94784 -6.59214,-6.5975494 0,-0.36714 0.0433,-0.72886 0.0971,-1.07979 h -6.71093 c 0.0539,0.35093 0.0972,0.71265 0.0972,1.07979 0,3.6497094 -2.94785,6.5975494 -6.59756,6.5975494 -3.6443,0 -6.61375,-2.94784 -6.61375,-6.5975494 0,-0.36714 0.0433,-0.72886 0.10259,-1.07979 h -6.69474 c 0.0541,0.35093 0.0971,0.71265 0.0971,1.07979 0,3.6497094 -2.96402,6.5975494 -6.61373,6.5975494 -3.64432,0 -6.61376,-2.94784 -6.61376,-6.5975494 0,-0.36714 0.0433,-0.72886 0.10258,-1.07979 h -6.70013 c 0.0594,0.35093 0.10259,0.71265 0.10259,1.07979 0,3.6497094 -2.96404,6.5975494 -6.61375,6.5975494 -3.6443,0 -6.59754,-2.94784 -6.59754,-6.5975494 0,-0.36714 0.0432,-0.72886 0.10258,-1.07979 h -6.6999 c 0.0594,0.35093 0.10258,0.71265 0.10258,1.07979 0,3.6497094 -2.96405,6.5975494 -6.61375,6.5975494 -3.644309,0 -6.613749,-2.94784 -6.613749,-6.5975494 0,-0.36714 0.0432,-0.72886 0.10258,-1.07979 h -6.70014 c 0.0594,0.35093 0.10258,0.71265 0.10258,1.07979 0,3.6497094 -2.96404,6.5975494 -6.61375,6.5975494 -3.6443,0 -6.59754,-2.94784 -6.59754,-6.5975494 0,-0.36714 0.0432,-0.72886 0.10258,-1.07979 h -6.71633 c 0.0594,0.35093 0.10258,0.71265 0.10258,1.07979 0,3.6497094 -2.94784,6.5975494 -6.59755,6.5975494 -3.6443,0 -6.61374,-2.94784 -6.61374,-6.5975494 0,-0.36714 0.0432,-0.72886 0.10258,-1.07979 h -6.70013 c 0.0594,0.35093 0.10258,0.71265 0.10258,1.07979 0,3.6497094 -2.96404,6.5975494 -6.61375,6.5975494 -3.647544,0 -6.613742,-2.94784 -6.613742,-6.5975494 0,-0.36714 0.04319,-0.72886 0.100961,-1.07979 h -6.69797 c 0.05777,0.35093 0.101501,0.71265 0.101501,1.07979 0,3.6497094 -2.949461,6.5975494 -6.597008,6.5975494 -3.64755,0 -6.613748,-2.94784 -6.613748,-6.5975494 0,-0.36714 0.04319,-0.72886 0.100961,-1.07979 H 7.967038 c 0.05831,0.35093 0.101501,0.71265 0.101501,1.07979 0,3.4553394 -2.661695,6.2736094 -6.040375,6.5651594 -0.205161,0.0216 -0.413562,0.0324 -0.624122,0.0324 -0.21056,0 -0.41896,-0.0108 -0.624121,-0.0324 -0.199762,-0.0216 -0.396285,-0.054 -0.590648,-0.0864 v 6.7487186 c 0.409242,-0.081 0.833062,-0.118779 1.26552,-0.118779 3.647548,0 6.613746,2.947839 6.613746,6.597549 0,3.64971 -2.966198,6.613749 -6.613746,6.613749 -0.432458,0 -0.856278,-0.0378 -1.26552,-0.11878 v 6.73252 c 0.409242,-0.0809 0.833062,-0.11877 1.26552,-0.11877 3.647548,0 6.613746,2.969439 6.613746,6.613738 0,3.64971 -2.966198,6.59755 -6.613746,6.59755 -0.432458,0 -0.856278,-0.0378 -1.26552,-0.11877 v 6.748719 c 0.409242,-0.081 0.833062,-0.11877 1.26552,-0.11877 3.647548,0 6.613746,2.95324 6.613746,6.59755 0,3.649699 -2.966198,6.613739 -6.613746,6.613739 -0.432458,0 -0.856278,-0.0378 -1.26552,-0.118771 v 6.73252 c 0.409242,-0.081 0.833062,-0.11878 1.26552,-0.11878 3.647548,0 6.613746,2.96944 6.613746,6.61375 0,3.649708 -2.966198,6.613738 -6.613746,6.613738 -0.432458,0 -0.856278,-0.0378 -1.26552,-0.118769 v 6.732518 c 0.409242,-0.0756 0.833062,-0.11878 1.26552,-0.11878 3.647548,0 6.613746,2.95324 6.613746,6.59755 0,3.649708 -2.966198,6.613748 -6.613746,6.613748 -0.432458,0 -0.856278,-0.0378 -1.26552,-0.11878 v 6.73252 c 0.409242,-0.0756 0.833062,-0.11877 1.26552,-0.11877 3.647548,0 6.613746,2.96943 6.613746,6.61373 0,3.64971 -2.966198,6.61376 -6.613746,6.61376 -0.432458,0 -0.856278,-0.0378 -1.26552,-0.11339 v 6.72713 c 0.409242,-0.0756 0.833062,-0.11338 1.26552,-0.11338 3.647548,0 6.613746,2.96404 6.613746,6.61375 0,3.64431 -2.966198,6.59215 -6.613746,6.59215 -0.432458,0 -0.856278,-0.0378 -1.26552,-0.11339 v 6.74873 c 0.409242,-0.081 0.833062,-0.11878 1.26552,-0.11878 3.647548,0 6.613746,2.94784 6.613746,6.59755 0,3.64431 -2.966198,6.61375 -6.613746,6.61375 -0.432458,0 -0.856278,-0.0432 -1.26552,-0.11878 v 6.73253 c 0.409242,-0.081 0.833062,-0.11878 1.26552,-0.11878 3.647548,0 6.613746,2.96403 6.613746,6.61374 0,3.64431 -2.966198,6.59755 -6.613746,6.59755 -0.432458,0 -0.856278,-0.0431 -1.26552,-0.11877 v 6.74871 c 0.409242,-0.081 0.833062,-0.11877 1.26552,-0.11877 3.647548,0 6.613746,2.94784 6.613746,6.59755 0,3.64431 -2.966198,6.61374 -6.613746,6.61374 -0.432458,0 -0.856278,-0.0432 -1.26552,-0.11877 v 6.73251 c 0.409242,-0.081 0.833062,-0.11878 1.26552,-0.11878 3.647548,0 6.613746,2.96406 6.613746,6.61376 0,3.6443 -2.966198,6.61374 -6.613746,6.61374 -0.432458,0 -0.856278,-0.0378 -1.26552,-0.11878 v 6.73254 c 0.409242,-0.081 0.833062,-0.11878 1.26552,-0.11878 3.647548,0 6.613746,2.96403 6.613746,6.61374 0,3.64432 -2.966198,6.59756 -6.613746,6.59756 -0.432458,0 -0.856278,-0.0378 -1.26552,-0.11879 v 6.74872 c 0.409242,-0.081 0.833062,-0.11878 1.26552,-0.11878 3.647548,0 6.613746,2.94785 6.613746,6.59756 0,3.6443 -2.966198,6.61374 -6.613746,6.61374 -0.432458,0 -0.856278,-0.0378 -1.26552,-0.11878 v 6.73252 c 0.409242,-0.081 0.833062,-0.11877 1.26552,-0.11877 3.647548,0 6.613746,2.96403 6.613746,6.61374 0,3.64971 -2.966198,6.59755 -6.613746,6.59755 -0.432458,0 -0.856278,-0.0378 -1.26552,-0.11878 v 6.74872 c 0.409242,-0.0809 0.833062,-0.11878 1.26552,-0.11878 3.647548,0 6.613746,2.94784 6.613746,6.59755 0,3.64971 -2.966198,6.61375 -6.613746,6.61375 -0.432458,0 -0.856278,-0.0378 -1.26552,-0.11878 v 6.73252 c 0.409242,-0.081 0.833062,-0.11878 1.26552,-0.11878 3.647548,0 6.613746,2.96944 6.613746,6.61376 0,3.6497 -2.966198,6.61374 -6.613746,6.61374 -0.432458,0 -0.856278,-0.0378 -1.26552,-0.11878 v 6.73253 c 0.409242,-0.081 0.833062,-0.11877 1.26552,-0.11877 3.647548,0 6.613746,2.95323 6.613746,6.59754 0,3.64971 -2.966198,6.61375 -6.613746,6.61375 -0.432458,0 -0.856278,-0.0378 -1.26552,-0.11878 v 7.90949 c 0.377928,-0.054 0.767195,-0.10798 1.16402,-0.10798 3.647547,0 6.613745,2.96945 6.613745,6.64075 0,0.5399 -0.07451,1.07979 -0.202461,1.5657 h 6.90097 c -0.127955,-0.48591 -0.202461,-1.0258 -0.202461,-1.5657 0,-3.6713 2.966198,-6.64075 6.613747,-6.64075 3.647009,0 6.596468,2.96945 6.596468,6.64075 0,0.5399 -0.07504,1.07979 -0.202461,1.5657 h 6.917708 c -0.127416,-0.48591 -0.202461,-1.0258 -0.202461,-1.5657 0,-3.6713 2.949461,-6.64075 6.594854,-6.64075 3.6497,0 6.61374,2.96945 6.61374,6.64075 0,0.5399 -0.0702,1.07979 -0.19976,1.5657 h 6.89989 c -0.12958,-0.48591 -0.20516,-1.0258 -0.20516,-1.5657 0,-3.6713 2.96944,-6.64075 6.61375,-6.64075 3.6497,0 6.61374,2.96945 6.61374,6.64075 0,0.5399 -0.0702,1.07979 -0.19976,1.5657 h 6.89989 c -0.12958,-0.48591 -0.19976,-1.0258 -0.19976,-1.5657 0,-3.6713 2.96404,-6.64075 6.61374,-6.64075 3.64431,0 6.59215,2.96945 6.59215,6.64075 0,0.5399 -0.0702,1.07979 -0.19976,1.5657 h 6.89989 c -0.12957,-0.48591 -0.19976,-1.0258 -0.19976,-1.5657 0,-3.6713 2.96405,-6.64075 6.61375,-6.64075 3.644309,0 6.613749,2.96945 6.613749,6.64075 0,0.5399 -0.0756,1.07979 -0.20516,1.5657 h 6.89989 c -0.12418,-0.48591 -0.19976,-1.0258 -0.19976,-1.5657 0,-3.6713 2.96403,-6.64075 6.61374,-6.64075 3.64431,0 6.59755,2.96945 6.59755,6.64075 0,0.5399 -0.0756,1.07979 -0.20516,1.5657 h 6.91609 c -0.12418,-0.48591 -0.19976,-1.0258 -0.19976,-1.5657 0,-3.6713 2.94784,-6.64075 6.59755,-6.64075 3.64431,0 6.61374,2.96945 6.61374,6.64075 0,0.5399 -0.0756,1.07979 -0.20517,1.5657 h 6.8999 c -0.12418,-0.48591 -0.19977,-1.0258 -0.19977,-1.5657 0,-3.6713 2.96405,-6.64075 6.61376,-6.64075 3.6443,0 6.61373,2.96945 6.61373,6.64075 0,0.5399 -0.0756,1.07979 -0.20515,1.5657 h 6.8999 c -0.12419,-0.48591 -0.19977,-1.0258 -0.19977,-1.5657 0,-3.6713 2.94784,-6.64075 6.59754,-6.64075 3.64431,0 6.61376,2.96945 6.61376,6.64075 0,0.5399 -0.0756,1.07979 -0.20516,1.5657 h 6.89988 c -0.12417,-0.48591 -0.19975,-1.0258 -0.19975,-1.5657 0,-3.6713 2.96403,-6.64075 6.61374,-6.64075 3.64971,0 6.61375,2.96945 6.61375,6.64075 0,0.5399 -0.0756,1.07979 -0.20517,1.5657 h 6.9053 c -0.12957,-0.48591 -0.20517,-1.0258 -0.20517,-1.5657 0,-3.6713 2.96943,-6.64075 6.61375,-6.64075 3.64971,0 6.59755,2.96945 6.59755,6.64075 0,0.5399 -0.0756,1.07979 -0.20516,1.5657 h 6.92148 c -0.12958,-0.48591 -0.20515,-1.0258 -0.20515,-1.5657 0,-3.6713 2.95322,-6.64075 6.59754,-6.64075 3.64971,0 6.61375,2.96945 6.61375,6.64075 0,0.5399 -0.0756,1.07979 -0.19976,1.5657 h 6.89988 c -0.12957,-0.48591 -0.20516,-1.0258 -0.20516,-1.5657 0,-3.6713 2.96944,-6.64075 6.61376,-6.64075 3.64971,0 6.59754,2.96945 6.59754,6.64075 0,0.5399 -0.0756,1.07979 -0.19977,1.5657 h 6.9161 c -0.12958,-0.48591 -0.20516,-1.0258 -0.20516,-1.5657 0,-3.6713 2.95324,-6.64075 6.59755,-6.64075 3.6497,0 6.61375,2.96945 6.61375,6.64075 0,0.5399 -0.0756,1.07979 -0.19977,1.5657 h 6.8999 c -0.12959,-0.48591 -0.20517,-1.0258 -0.20517,-1.5657 0,-3.6713 2.96944,-6.64075 6.61374,-6.64075 3.64971,0 6.61375,2.96945 6.61375,6.64075 0,0.5399 -0.0702,1.07979 -0.19976,1.5657 h 6.8999 c -0.12958,-0.48591 -0.20518,-1.0258 -0.20518,-1.5657 0,-3.6713 2.96944,-6.64075 6.61376,-6.64075 3.64971,0 6.59754,2.96945 6.59754,6.64075 0,0.5399 -0.0756,1.07979 -0.19976,1.5657 h 6.89989 c -0.12956,-0.48591 -0.20516,-1.0258 -0.20516,-1.5657 0,-3.6713 2.96944,-6.64075 6.61374,-6.64075 3.64971,0 6.61376,2.96945 6.61376,6.64075 0,0.5399 -0.0702,1.07979 -0.19976,1.5657 h 6.89989 c -0.12958,-0.48591 -0.19976,-1.0258 -0.19976,-1.5657 0,-3.6713 2.96403,-6.64075 6.61374,-6.64075 3.64431,0 6.59215,2.96945 6.59215,6.64075 0,0.5399 -0.0702,1.07979 -0.19976,1.5657 h 7.97969 c -0.12418,-0.48591 -0.19977,-1.0258 -0.19977,-1.5657 0,-3.45533 2.6401,-6.31681 6.01986,-6.58675 0.18896,-0.0539 0.38333,-0.0539 0.57229,-0.0539 h 0.054 0.0485 c 0.21596,0 0.43192,0 0.64248,0.0539 v -6.58674 c -0.24295,0.027 -0.49131,0.0485 -0.74506,0.0485 -3.64431,0 -6.59215,-2.96404 -6.59215,-6.61375 0,-3.64971 2.94784,-6.59755 6.59215,-6.59755 0.25375,0 0.50211,0.0216 0.74506,0.054 v -6.61374 c -0.24295,0.027 -0.49131,0.0486 -0.74506,0.0486 -3.64431,0 -6.59215,-2.94783 -6.59215,-6.59754 0,-3.64971 2.94784,-6.61375 6.59215,-6.61375 0.25375,0 0.50211,0.0216 0.74506,0.0487 v -6.59215 c -0.24295,0.027 -0.49131,0.0486 -0.74506,0.0486 -3.64431,0 -6.59215,-2.96944 -6.59215,-6.61376 0,-3.64971 2.94784,-6.59754 6.59215,-6.59754 0.25375,0 0.50211,0.0216 0.74506,0.0485 v -6.61375 c -0.24295,0.0269 -0.49131,0.054 -0.74506,0.054 -3.64431,0 -6.59215,-2.95325 -6.59215,-6.59755 0,-3.64971 2.94784,-6.61376 6.59215,-6.61376 0.25375,0 0.50211,0.0216 0.74506,0.0487 v -6.59754 c -0.24295,0.0269 -0.49131,0.054 -0.74506,0.054 -3.64431,0 -6.59215,-2.96943 -6.59215,-6.61373 0,-3.64971 2.94784,-6.61376 6.59215,-6.61376 0.25375,0 0.50211,0.0216 0.74506,0.0486 v -6.59755 c -0.24295,0.0269 -0.49131,0.054 -0.74506,0.054 -3.64431,0 -6.59215,-2.95324 -6.59215,-6.59756 0,-3.64971 2.94784,-6.61373 6.59215,-6.61373 0.25375,0 0.50211,0.0216 0.74506,0.0486 v -6.59754 c -0.24295,0.0271 -0.49131,0.054 -0.74506,0.054 -3.64431,0 -6.59215,-2.96943 -6.59215,-6.61374 0,-3.64971 2.94784,-6.61375 6.59215,-6.61375 0.25375,0 0.50211,0.0216 0.74506,0.0487 v -6.59755 c -0.24295,0.0269 -0.49131,0.054 -0.74506,0.054 -3.64431,0 -6.59215,-2.96944 -6.59215,-6.61376 0,-3.6497 2.94784,-6.59754 6.59215,-6.59754 0.25375,0 0.50211,0.0216 0.74506,0.0486 v -6.61374 c -0.24295,0.0269 -0.49131,0.0486 -0.74506,0.0486 -3.64431,0 -6.59215,-2.94784 -6.59215,-6.59215 0,-3.6497 2.94784,-6.61373 6.59215,-6.61373 0.25375,0 0.50211,0.0216 0.74506,0.0486 v -6.59754 c -0.24295,0.0269 -0.49131,0.0486 -0.74506,0.0486 -3.64431,0 -6.59215,-2.96404 -6.59215,-6.61375 0,-3.6443 2.94784,-6.59215 6.59215,-6.59215 0.25375,0 0.50211,0.0216 0.74506,0.0487 v -6.61377 c -0.24295,0.027 -0.49131,0.0487 -0.74506,0.0487 -3.64431,0 -6.59215,-2.94784 -6.59215,-6.59754 0,-3.64432 2.94784,-6.61376 6.59215,-6.61376 0.25375,0 0.50211,0.0269 0.74506,0.0541 v -6.59755 c -0.24295,0.027 -0.49131,0.0485 -0.74506,0.0485 -3.64431,0 -6.59215,-2.96404 -6.59215,-6.61375 0,-3.6443 2.94784,-6.61374 6.59215,-6.61374 0.25375,0 0.50211,0.0269 0.74506,0.054 v -6.59754 c -0.24295,0.0269 -0.49131,0.0485 -0.74506,0.0485 -3.64431,0 -6.59215,-2.96403 -6.59215,-6.61374 0,-3.644298 2.94784,-6.597548 6.59215,-6.597548 0.25375,0 0.50211,0.027 0.74506,0.054 v -6.613739 c -0.24295,0.0269 -0.49131,0.0486 -0.74506,0.0486 -3.64431,0 -6.59215,-2.94784 -6.59215,-6.597548 0,-3.644311 2.94784,-6.61374 6.59215,-6.61374 0.25375,0 0.50211,0.0216 0.74506,0.054 v -6.59755 c -0.24295,0.0269 -0.49131,0.0486 -0.74506,0.0486 -3.64431,0 -6.59215,-2.96404 -6.59215,-6.61375 0,-3.649709 2.94784,-6.597549 6.59215,-6.597549 0.25375,0 0.50211,0.0216 0.74506,0.054 v -6.613728 c -0.24295,0.027 -0.49131,0.0486 -0.74506,0.0486 -3.64431,0 -6.59215,-2.94784 -6.59215,-6.59755 0,-3.649709 2.94784,-6.613738 6.59215,-6.613738 0.25375,0 0.50211,0.0216 0.74506,0.0486 v -6.592149 c -0.24295,0.0269 -0.49131,0.0486 -0.74506,0.0486 -3.64431,0 -6.59215,-2.96945 -6.59215,-6.613749 0,-3.64971 2.94784,-6.61375 6.59215,-6.61375 0.25375,0 0.50211,0.0216 0.74506,0.0486 z" />
</svg>
