<?xml version="1.0" encoding="UTF-8" standalone="no"?>
<svg
   xmlns:dc="http://purl.org/dc/elements/1.1/"
   xmlns:cc="http://creativecommons.org/ns#"
   xmlns:rdf="http://www.w3.org/1999/02/22-rdf-syntax-ns#"
   xmlns:svg="http://www.w3.org/2000/svg"
   xmlns="http://www.w3.org/2000/svg"
   xmlns:sodipodi="http://sodipodi.sourceforge.net/DTD/sodipodi-0.dtd"
   xmlns:inkscape="http://www.inkscape.org/namespaces/inkscape"
   width="100.00mm"
   height="61.86mm"
   id="svg"
   version="1.1"
   inkscape:version="0.92.4 (5da689c313, 2019-01-14)"
   sodipodi:docname="grbl_color.svg"
   viewBox="0 0 354.33 219.20">
  <metadata
     id="metadata12">
    <rdf:RDF>
      <cc:Work
         rdf:about="">
        <dc:format>image/svg+xml</dc:format>
        <dc:type
           rdf:resource="http://purl.org/dc/dcmitype/StillImage" />
        <dc:description>Example for grouping</dc:description>
   </cc:Work>
    </rdf:RDF>
  </metadata>
  <title>Grbl logo with colors</title>
  <defs
     id="defs10" />
  <sodipodi:namedview
     pagecolor="#ffffff"
     bordercolor="#666666"
     borderopacity="1"
     objecttolerance="10"
     gridtolerance="10"
     guidetolerance="10"
     inkscape:pageopacity="0"
     inkscape:pageshadow="2"
     inkscape:window-width="1230"
     inkscape:window-height="745"
     id="namedview8"
     showgrid="false"
     inkscape:zoom="0.926"
     inkscape:cx="170"
     inkscape:cy="117"
     inkscape:window-x="0"
     inkscape:window-y="0"
     inkscape:window-maximized="0"
     inkscape:current-layer="g21" />
  <g
     inkscape:groupmode="layer"
     inkscape:label="0"
     id="g21"
     transform="translate(-93.203501,-472.4674)">
    <path
       d="m 142.42092,606.55353 c -9.87754,0 -18.78254,-5.94669 -22.5623,-15.06692 -3.77975,-9.1202 -1.68984,-19.61773 5.29461,-26.59814 6.98444,-6.98042 17.48803,-9.06913 26.6135,-5.29156 9.12549,3.77757 15.07561,12.67744 15.07561,22.54927 v 60.33496 c 0,13.4798 -10.93384,24.40734 -24.42142,24.40734 -6.74114,0.004 -12.2039,5.46643 -12.2039,12.20367 0,6.73725 5.46276,12.19987 12.2039,12.20367 26.97516,0 48.84285,-21.85508 48.84286,-48.81468 v -60.33496 c 0,-19.74367 -11.90025,-37.5434 -30.15123,-45.09855 -18.25095,-7.55513 -39.25812,-3.37771 -53.22701,10.58311 -13.968884,13.96083 -18.148711,34.95589 -10.589213,53.1963 7.559513,18.24045 25.369513,30.13383 45.124593,30.13383 h 12.21071 l 12.21071,-12.20367 -12.21071,-12.20367 h -12.21071"
       style="fill:#00ff00;stroke:#00ff00;stroke-width:0.749;stroke-linecap:round"
       id="path_g"
       inkscape:connector-curvature="0"
       sodipodi:nodetypes="cssscccscccsssccccc" />
    <path
       d="m 203.13259,582.14618 v 36.61102 c 0,6.73991 5.46693,12.20366 12.21072,12.20366 6.74379,0 12.21072,-5.46375 12.21072,-12.20366 v -36.61102 c 0,-13.4798 10.93384,-24.40734 24.42143,-24.40734 h 18.48702 V 533.3315 h -18.48702 c -26.97517,10e-6 -48.84286,21.85508 -48.84287,48.81468"
       style="fill:#ff0000;stroke:#ff0000;stroke-width:0.749;stroke-linecap:round"
       id="path_r"
       inkscape:connector-curvature="0"
       sodipodi:nodetypes="ccsccccccc" />
    <path
       d="m 325.23976,533.3315 h -18.48703 v 24.40734 h 18.48703 c 9.87753,0 18.78253,5.94669 22.56229,15.06692 3.77975,9.12021 1.68983,19.61773 -5.29461,26.59815 -6.98445,6.98041 -17.48803,9.06912 -26.6135,5.29155 -9.12549,-3.77757 -15.07562,-12.67744 -15.07562,-22.54928 v -96.94596 l -12.21072,-12.20367 -12.21071,12.20367 v 96.94596 c 0,19.74368 11.90025,37.54341 30.15122,45.09856 18.25095,7.55514 39.25812,3.37772 53.22701,-10.5831 13.96889,-13.96083 18.14872,-34.95589 10.58922,-53.1963 -7.55951,-18.24045 -25.36951,-30.13384 -45.12458,-30.13384"
       style="fill:#0000ff;stroke:#0000ff;stroke-width:0.749;stroke-linecap:round"
       id="path_b"
       inkscape:connector-curvature="0"
       sodipodi:nodetypes="ccccssscccccsssc" />
    <path
       d="m 410.37287,582.14618 v -96.94596 c 0,-6.73991 -5.46693,-12.20367 -12.21072,-12.20367 -6.74379,0 -12.21072,5.46376 -12.21072,12.20367 v 96.94596 c 0,26.95961 21.8677,48.81469 48.84287,48.81469 L 447.00501,618.7572 434.7943,606.55353 c -13.48759,0 -24.42143,-10.92754 -24.42143,-24.40735 z"
       style="fill:#ffff00;stroke:#ffff00;stroke-width:0.749;stroke-linecap:round"
       id="path_l"
       inkscape:connector-curvature="0"
       sodipodi:nodetypes="ccscccccc" />
  </g>
</svg>
