999
dxfrw 0.6.3
  0
SECTION
  2
HEADER
  9
$ACADVER
  1
AC1021
  9
$DWGCODEPAGE
  3
ANSI_1252
  9
$INSBASE
 10
0
 20
0
 30
0
  9
$EXTMIN
 10
-428.1584642869893
 20
-449.9751896217733
 30
0
  9
$EXTMAX
 10
428.1584642870046
 20
363.6952178868397
 30
0
  9
$LIMMIN
 10
0
 20
0
  9
$LIMMAX
 10
420
 20
297
  9
$ORTHOMODE
 70
    0
  9
$REGENMODE
 70
    1
  9
$FILLMODE
 70
    1
  9
$QTEXTMODE
 70
    0
  9
$MIRRTEXT
 70
    0
  9
$LTSCALE
 40
1
  9
$ATTMODE
 70
    0
  9
$TEXTSIZE
 40
2.5
  9
$TRACEWID
 40
15.68
  9
$TEXTSTYLE
  7
STANDARD
  9
$CLAYER
  8
0
  9
$CELTYPE
  6
BYLAYER
  9
$CECOLOR
 62
  256
  9
$CELTSCALE
 40
1
  9
$DISPSILH
 70
    0
  9
$DIMSCALE
 40
2.5
  9
$DIMASZ
 40
2.5
  9
$DIMEXO
 40
0.625
  9
$DIMDLI
 40
3.75
  9
$DIMRND
 40
0
  9
$DIMDLE
 40
0
  9
$DIMEXE
 40
1.25
  9
$DIMTP
 40
0
  9
$DIMTM
 40
0
  9
$DIMTXT
 40
2.5
  9
$DIMCEN
 40
2.5
  9
$DIMTSZ
 40
0
  9
$DIMTOL
 70
    0
  9
$DIMLIM
 70
    0
  9
$DIMTIH
 70
    0
  9
$DIMTOH
 70
    0
  9
$DIMSE1
 70
    0
  9
$DIMSE2
 70
    0
  9
$DIMTAD
 70
    1
  9
$DIMZIN
 70
    8
  9
$DIMBLK
  1

  9
$DIMASO
 70
    1
  9
$DIMSHO
 70
    1
  9
$DIMPOST
  1

  9
$DIMAPOST
  1

  9
$DIMALT
 70
    0
  9
$DIMALTD
 70
    3
  9
$DIMALTF
 40
0.03937
  9
$DIMLFAC
 40
1
  9
$DIMTOFL
 70
    1
  9
$DIMTVP
 40
0
  9
$DIMTIX
 70
    0
  9
$DIMSOXD
 70
    0
  9
$DIMSAH
 70
    0
  9
$DIMBLK1
  1

  9
$DIMBLK2
  1

  9
$DIMSTYLE
  2
Standard
  9
$DIMCLRD
 70
    0
  9
$DIMCLRE
 70
    0
  9
$DIMCLRT
 70
    0
  9
$DIMTFAC
 40
1
  9
$DIMGAP
 40
0.625
  9
$DIMJUST
 70
    0
  9
$DIMSD1
 70
    0
  9
$DIMSD2
 70
    0
  9
$DIMTOLJ
 70
    0
  9
$DIMTZIN
 70
    8
  9
$DIMALTZ
 70
    0
  9
$DIMALTTZ
 70
    0
  9
$DIMUPT
 70
    0
  9
$DIMDEC
 70
    2
  9
$DIMTDEC
 70
    2
  9
$DIMALTU
 70
    2
  9
$DIMALTTD
 70
    3
  9
$DIMTXSTY
  7
STANDARD
  9
$DIMAUNIT
 70
    0
  9
$DIMADEC
 70
    0
  9
$DIMALTRND
 40
0
  9
$DIMAZIN
 70
    0
  9
$DIMDSEP
 70
   44
  9
$DIMATFIT
 70
    3
  9
$DIMFRAC
 70
    0
  9
$DIMLDRBLK
  1
STANDARD
  9
$DIMLUNIT
 70
    2
  9
$DIMLWD
 70
   -2
  9
$DIMLWE
 70
   -2
  9
$DIMTMOVE
 70
    0
  9
$DIMFXL
 40
1
  9
$DIMFXLON
 70
    0
  9
$DIMJOGANG
 40
0.7854
  9
$DIMTFILL
 70
    0
  9
$DIMTFILLCLR
 70
    0
  9
$DIMARCSYM
 70
    0
  9
$DIMLTYPE
  6

  9
$DIMLTEX1
  6

  9
$DIMLTEX2
  6

  9
$LUNITS
 70
    2
  9
$LUPREC
 70
    4
  9
$SKETCHINC
 40
1
  9
$FILLETRAD
 40
0
  9
$AUNITS
 70
    0
  9
$AUPREC
 70
    2
  9
$MENU
  1
.
  9
$ELEVATION
 40
0
  9
$PELEVATION
 40
0
  9
$THICKNESS
 40
0
  9
$LIMCHECK
 70
    0
  9
$CHAMFERA
 40
0
  9
$CHAMFERB
 40
0
  9
$CHAMFERC
 40
0
  9
$CHAMFERD
 40
0
  9
$SKPOLY
 70
    0
  9
$USRTIMER
 70
    1
  9
$ANGBASE
 50
0
  9
$ANGDIR
 70
    0
  9
$PDMODE
 70
   34
  9
$PDSIZE
 40
0
  9
$PLINEWID
 40
0
  9
$SPLFRAME
 70
    0
  9
$SPLINETYPE
 70
    2
  9
$SPLINESEGS
 70
    8
  9
$HANDSEED
  5
20000
  9
$SURFTAB1
 70
    6
  9
$SURFTAB2
 70
    6
  9
$SURFTYPE
 70
    6
  9
$SURFU
 70
    6
  9
$SURFV
 70
    6
  9
$UCSBASE
  2

  9
$UCSNAME
  2

  9
$UCSORG
 10
0
 20
0
 30
0
  9
$UCSXDIR
 10
1
 20
0
 30
0
  9
$UCSYDIR
 10
0
 20
1
 30
0
  9
$UCSORTHOREF
  2

  9
$UCSORTHOVIEW
 70
    0
  9
$UCSORGTOP
 10
0
 20
0
 30
0
  9
$UCSORGBOTTOM
 10
0
 20
0
 30
0
  9
$UCSORGLEFT
 10
0
 20
0
 30
0
  9
$UCSORGRIGHT
 10
0
 20
0
 30
0
  9
$UCSORGFRONT
 10
0
 20
0
 30
0
  9
$UCSORGBACK
 10
0
 20
0
 30
0
  9
$PUCSBASE
  2

  9
$PUCSNAME
  2

  9
$PUCSORG
 10
0
 20
0
 30
0
  9
$PUCSXDIR
 10
1
 20
0
 30
0
  9
$PUCSYDIR
 10
0
 20
1
 30
0
  9
$PUCSORTHOREF
  2

  9
$PUCSORTHOVIEW
 70
    0
  9
$PUCSORGTOP
 10
0
 20
0
 30
0
  9
$PUCSORGBOTTOM
 10
0
 20
0
 30
0
  9
$PUCSORGLEFT
 10
0
 20
0
 30
0
  9
$PUCSORGRIGHT
 10
0
 20
0
 30
0
  9
$PUCSORGFRONT
 10
0
 20
0
 30
0
  9
$PUCSORGBACK
 10
0
 20
0
 30
0
  9
$USERI1
 70
    0
  9
$USERI2
 70
    0
  9
$USERI3
 70
    0
  9
$USERI4
 70
    0
  9
$USERI5
 70
    0
  9
$USERR1
 40
0
  9
$USERR2
 40
0
  9
$USERR3
 40
0
  9
$USERR4
 40
0
  9
$USERR5
 40
0
  9
$WORLDVIEW
 70
    1
  9
$SHADEDGE
 70
    3
  9
$SHADEDIF
 70
   70
  9
$TILEMODE
 70
    1
  9
$MAXACTVP
 70
   64
  9
$PINSBASE
 10
0
 20
0
 30
0
  9
$PLIMCHECK
 70
    0
  9
$PEXTMIN
 10
0
 20
0
 30
0
  9
$PEXTMAX
 10
0
 20
0
 30
0
  9
$GRIDMODE
 70
    0
  9
$SNAPSTYLE
 70
    0
  9
$PLIMMIN
 10
0
 20
0
  9
$PLIMMAX
 10
297
 20
210
  9
$UNITMODE
 70
    0
  9
$VISRETAIN
 70
    1
  9
$PLINEGEN
 70
    0
  9
$PSLTSCALE
 70
    1
  9
$TREEDEPTH
 70
 3020
  9
$CMLSTYLE
  2
Standard
  9
$CMLJUST
 70
    0
  9
$CMLSCALE
 40
20
  9
$PROXYGRAPHICS
 70
    1
  9
$MEASUREMENT
 70
    1
  9
$CELWEIGHT
370
   -1
  9
$ENDCAPS
280
    0
  9
$JOINSTYLE
280
    0
  9
$LWDISPLAY
290
    0
  9
$INSUNITS
 70
    4
  9
$HYPERLINKBASE
  1

  9
$STYLESHEET
  1

  9
$XEDIT
290
    1
  9
$CEPSNTYPE
380
    0
  9
$PSTYLEMODE
290
    1
  9
$EXTNAMES
290
    1
  9
$PSVPSCALE
 40
1
  9
$OLESTARTUP
290
    0
  9
$SORTENTS
280
  127
  9
$INDEXCTL
280
    0
  9
$HIDETEXT
280
    1
  9
$XCLIPFRAME
290
    0
  9
$HALOGAP
280
    0
  9
$OBSCOLOR
 70
  257
  9
$OBSLTYPE
280
    0
  9
$INTERSECTIONDISPLAY
280
    0
  9
$INTERSECTIONCOLOR
 70
  257
  9
$DIMASSOC
280
    1
  9
$PROJECTNAME
  1

  9
$CAMERADISPLAY
290
    0
  9
$LENSLENGTH
 40
50
  9
$CAMERAHEIGHT
 40
0
  9
$STEPSPERSEC
 40
2
  9
$STEPSIZE
 40
50
  9
$3DDWFPREC
 40
2
  9
$PSOLWIDTH
 40
5
  9
$PSOLHEIGHT
 40
80
  9
$LOFTANG1
 40
1.570796326794897
  9
$LOFTANG2
 40
1.570796326794897
  9
$LOFTMAG1
 40
0
  9
$LOFTMAG2
 40
0
  9
$LOFTPARAM
 70
    7
  9
$LOFTNORMALS
280
    1
  9
$LATITUDE
 40
1
  9
$LONGITUDE
 40
1
  9
$NORTHDIRECTION
 40
0
  9
$TIMEZONE
 70
-8000
  9
$LIGHTGLYPHDISPLAY
280
    1
  9
$TILEMODELIGHTSYNCH
280
    1
  9
$SOLIDHIST
280
    1
  9
$SHOWHIST
280
    1
  9
$DWFFRAME
280
    2
  9
$DGNFRAME
280
    0
  9
$REALWORLDSCALE
290
    1
  9
$INTERFERECOLOR
 62
    1
  9
$CSHADOW
280
    0
  9
$SHADOWPLANELOCATION
 40
0
  0
ENDSEC
  0
SECTION
  2
CLASSES
  0
ENDSEC
  0
SECTION
  2
TABLES
  0
TABLE
  2
VPORT
  5
8
330
0
100
AcDbSymbolTable
 70
    1
  0
VPORT
  5
31
330
2
100
AcDbSymbolTableRecord
100
AcDbViewportTableRecord
  2
*ACTIVE
 70
    0
 10
0
 20
0
 11
1
 21
1
 12
656.7838338379712
 22
433.0758030984002
 13
0
 23
0
 14
10
 24
10
 15
10
 25
10
 16
0
 26
0
 36
1
 17
0
 27
0
 37
0
 40
1591.768680262332
 41
1.809009009009009
 42
50
 43
0
 44
0
 50
0
 51
0
 71
    0
 72
  100
 73
    1
 74
    3
 75
    0
 76
    0
 77
    0
 78
    0
281
    0
 65
    1
110
0
120
0
130
0
111
1
121
0
131
0
112
0
122
1
132
0
 79
    0
146
0
348
10020
 60
    7
 61
    5
292
1
282
    1
141
0
142
0
 63
  250
421
3358443
  0
ENDTAB
  0
TABLE
  2
LTYPE
  5
5
330
0
100
AcDbSymbolTable
 70
    4
  0
LTYPE
  5
14
330
5
100
AcDbSymbolTableRecord
100
AcDbLinetypeTableRecord
  2
ByBlock
 70
    0
  3

 72
   65
 73
    0
 40
0
  0
LTYPE
  5
15
330
5
100
AcDbSymbolTableRecord
100
AcDbLinetypeTableRecord
  2
ByLayer
 70
    0
  3

 72
   65
 73
    0
 40
0
  0
LTYPE
  5
16
330
5
100
AcDbSymbolTableRecord
100
AcDbLinetypeTableRecord
  2
Continuous
 70
    0
  3
Solid line
 72
   65
 73
    0
 40
0
  0
LTYPE
  5
32
330
5
100
AcDbSymbolTableRecord
100
AcDbLinetypeTableRecord
  2
DOT
 70
    0
  3
Dot . . . . . . . . . . . . . . . . . . . . . .
 72
   65
 73
    2
 40
6.35
 49
0
 74
    0
 49
-6.35
 74
    0
  0
LTYPE
  5
33
330
5
100
AcDbSymbolTableRecord
100
AcDbLinetypeTableRecord
  2
DOTTINY
 70
    0
  3
Dot (.15x) .....................................
 72
   65
 73
    2
 40
0.9525
 49
0
 74
    0
 49
-0.9525
 74
    0
  0
LTYPE
  5
34
330
5
100
AcDbSymbolTableRecord
100
AcDbLinetypeTableRecord
  2
DOT2
 70
    0
  3
Dot (.5x) .....................................
 72
   65
 73
    2
 40
3.175
 49
0
 74
    0
 49
-3.175
 74
    0
  0
LTYPE
  5
35
330
5
100
AcDbSymbolTableRecord
100
AcDbLinetypeTableRecord
  2
DOTX2
 70
    0
  3
Dot (2x) .  .  .  .  .  .  .  .  .  .  .  .  .
 72
   65
 73
    2
 40
12.7
 49
0
 74
    0
 49
-12.7
 74
    0
  0
LTYPE
  5
36
330
5
100
AcDbSymbolTableRecord
100
AcDbLinetypeTableRecord
  2
DASHED
 70
    0
  3
Dashed _ _ _ _ _ _ _ _ _ _ _ _ _ _ _ _ _
 72
   65
 73
    2
 40
19.05
 49
12.7
 74
    0
 49
-6.35
 74
    0
  0
LTYPE
  5
37
330
5
100
AcDbSymbolTableRecord
100
AcDbLinetypeTableRecord
  2
DASHEDTINY
 70
    0
  3
Dashed (.15x) _ _ _ _ _ _ _ _ _ _ _ _ _ _ _ _ _
 72
   65
 73
    2
 40
2.8575
 49
1.905
 74
    0
 49
-0.9525
 74
    0
  0
LTYPE
  5
38
330
5
100
AcDbSymbolTableRecord
100
AcDbLinetypeTableRecord
  2
DASHED2
 70
    0
  3
Dashed (.5x) _ _ _ _ _ _ _ _ _ _ _ _ _ _ _ _ _
 72
   65
 73
    2
 40
9.524999999999999
 49
6.35
 74
    0
 49
-3.175
 74
    0
  0
LTYPE
  5
39
330
5
100
AcDbSymbolTableRecord
100
AcDbLinetypeTableRecord
  2
DASHEDX2
 70
    0
  3
Dashed (2x) ____  ____  ____  ____  ____  ___
 72
   65
 73
    2
 40
38.09999999999999
 49
25.4
 74
    0
 49
-12.7
 74
    0
  0
LTYPE
  5
3A
330
5
100
AcDbSymbolTableRecord
100
AcDbLinetypeTableRecord
  2
DASHDOT
 70
    0
  3
Dash dot __ . __ . __ . __ . __ . __ . __ . __
 72
   65
 73
    4
 40
25.4
 49
12.7
 74
    0
 49
-6.35
 74
    0
 49
0
 74
    0
 49
-6.35
 74
    0
  0
LTYPE
  5
3B
330
5
100
AcDbSymbolTableRecord
100
AcDbLinetypeTableRecord
  2
DASHDOTTINY
 70
    0
  3
Dash dot (.15x) _._._._._._._._._._._._._._._.
 72
   65
 73
    4
 40
3.81
 49
1.905
 74
    0
 49
-0.9525
 74
    0
 49
0
 74
    0
 49
-0.9525
 74
    0
  0
LTYPE
  5
3C
330
5
100
AcDbSymbolTableRecord
100
AcDbLinetypeTableRecord
  2
DASHDOT2
 70
    0
  3
Dash dot (.5x) _._._._._._._._._._._._._._._.
 72
   65
 73
    4
 40
12.7
 49
6.35
 74
    0
 49
-3.175
 74
    0
 49
0
 74
    0
 49
-3.175
 74
    0
  0
LTYPE
  5
3D
330
5
100
AcDbSymbolTableRecord
100
AcDbLinetypeTableRecord
  2
DASHDOTX2
 70
    0
  3
Dash dot (2x) ____  .  ____  .  ____  .  ___
 72
   65
 73
    4
 40
50.8
 49
25.4
 74
    0
 49
-12.7
 74
    0
 49
0
 74
    0
 49
-12.7
 74
    0
  0
LTYPE
  5
3E
330
5
100
AcDbSymbolTableRecord
100
AcDbLinetypeTableRecord
  2
DIVIDE
 70
    0
  3
Divide ____ . . ____ . . ____ . . ____ . . ____
 72
   65
 73
    6
 40
31.75
 49
12.7
 74
    0
 49
-6.35
 74
    0
 49
0
 74
    0
 49
-6.35
 74
    0
 49
0
 74
    0
 49
-6.35
 74
    0
  0
LTYPE
  5
3F
330
5
100
AcDbSymbolTableRecord
100
AcDbLinetypeTableRecord
  2
DIVIDETINY
 70
    0
  3
Divide (.15x) __..__..__..__..__..__..__..__.._
 72
   65
 73
    6
 40
4.7625
 49
1.905
 74
    0
 49
-0.9525
 74
    0
 49
0
 74
    0
 49
-0.9525
 74
    0
 49
0
 74
    0
 49
-0.9525
 74
    0
  0
LTYPE
  5
40
330
5
100
AcDbSymbolTableRecord
100
AcDbLinetypeTableRecord
  2
DIVIDE2
 70
    0
  3
Divide (.5x) __..__..__..__..__..__..__..__.._
 72
   65
 73
    6
 40
15.875
 49
6.35
 74
    0
 49
-3.175
 74
    0
 49
0
 74
    0
 49
-3.175
 74
    0
 49
0
 74
    0
 49
-3.175
 74
    0
  0
LTYPE
  5
41
330
5
100
AcDbSymbolTableRecord
100
AcDbLinetypeTableRecord
  2
DIVIDEX2
 70
    0
  3
Divide (2x) ________  .  .  ________  .  .  _
 72
   65
 73
    6
 40
63.5
 49
25.4
 74
    0
 49
-12.7
 74
    0
 49
0
 74
    0
 49
-12.7
 74
    0
 49
0
 74
    0
 49
-12.7
 74
    0
  0
LTYPE
  5
42
330
5
100
AcDbSymbolTableRecord
100
AcDbLinetypeTableRecord
  2
BORDER
 70
    0
  3
Border __ __ . __ __ . __ __ . __ __ . __ __ .
 72
   65
 73
    6
 40
44.45
 49
12.7
 74
    0
 49
-6.35
 74
    0
 49
12.7
 74
    0
 49
-6.35
 74
    0
 49
0
 74
    0
 49
-6.35
 74
    0
  0
LTYPE
  5
43
330
5
100
AcDbSymbolTableRecord
100
AcDbLinetypeTableRecord
  2
BORDERTINY
 70
    0
  3
Border (.15x) __.__.__.__.__.__.__.__.__.__.__.
 72
   65
 73
    6
 40
6.6675
 49
1.905
 74
    0
 49
-0.9525
 74
    0
 49
1.905
 74
    0
 49
-0.9525
 74
    0
 49
0
 74
    0
 49
-0.9525
 74
    0
  0
LTYPE
  5
44
330
5
100
AcDbSymbolTableRecord
100
AcDbLinetypeTableRecord
  2
BORDER2
 70
    0
  3
Border (.5x) __.__.__.__.__.__.__.__.__.__.__.
 72
   65
 73
    6
 40
22.225
 49
6.35
 74
    0
 49
-3.175
 74
    0
 49
6.35
 74
    0
 49
-3.175
 74
    0
 49
0
 74
    0
 49
-3.175
 74
    0
  0
LTYPE
  5
45
330
5
100
AcDbSymbolTableRecord
100
AcDbLinetypeTableRecord
  2
BORDERX2
 70
    0
  3
Border (2x) ____  ____  .  ____  ____  .  ___
 72
   65
 73
    6
 40
88.89999999999999
 49
25.4
 74
    0
 49
-12.7
 74
    0
 49
25.4
 74
    0
 49
-12.7
 74
    0
 49
0
 74
    0
 49
-12.7
 74
    0
  0
LTYPE
  5
46
330
5
100
AcDbSymbolTableRecord
100
AcDbLinetypeTableRecord
  2
CENTER
 70
    0
  3
Center ____ _ ____ _ ____ _ ____ _ ____ _ ____
 72
   65
 73
    4
 40
50.8
 49
31.75
 74
    0
 49
-6.35
 74
    0
 49
6.35
 74
    0
 49
-6.35
 74
    0
  0
LTYPE
  5
47
330
5
100
AcDbSymbolTableRecord
100
AcDbLinetypeTableRecord
  2
CENTERTINY
 70
    0
  3
Center (.15x) ___ _ ___ _ ___ _ ___ _ ___ _ ___
 72
   65
 73
    4
 40
7.62
 49
4.7625
 74
    0
 49
-0.9525
 74
    0
 49
0.9525
 74
    0
 49
-0.9525
 74
    0
  0
LTYPE
  5
48
330
5
100
AcDbSymbolTableRecord
100
AcDbLinetypeTableRecord
  2
CENTER2
 70
    0
  3
Center (.5x) ___ _ ___ _ ___ _ ___ _ ___ _ ___
 72
   65
 73
    4
 40
28.575
 49
19.05
 74
    0
 49
-3.175
 74
    0
 49
3.175
 74
    0
 49
-3.175
 74
    0
  0
LTYPE
  5
49
330
5
100
AcDbSymbolTableRecord
100
AcDbLinetypeTableRecord
  2
CENTERX2
 70
    0
  3
Center (2x) ________  __  ________  __  _____
 72
   65
 73
    4
 40
101.6
 49
63.5
 74
    0
 49
-12.7
 74
    0
 49
12.7
 74
    0
 49
-12.7
 74
    0
  0
ENDTAB
  0
TABLE
  2
LAYER
  5
2
330
0
100
AcDbSymbolTable
 70
    1
  0
LAYER
  5
10
330
2
100
AcDbSymbolTableRecord
100
AcDbLayerTableRecord
  2
0
 70
    0
 62
    7
  6
CONTINUOUS
370
   -3
390
F
  0
LAYER
  5
4A
330
2
100
AcDbSymbolTableRecord
100
AcDbLayerTableRecord
  2
Layer_1
 70
    0
 62
    7
  6
CONTINUOUS
370
   -3
390
F
  0
ENDTAB
  0
TABLE
  2
STYLE
  5
3
330
0
100
AcDbSymbolTable
 70
    3
  0
STYLE
  5
4B
330
2
100
AcDbSymbolTableRecord
100
AcDbTextStyleTableRecord
  2
Standard
 70
    0
 40
0
 41
1
 50
0
 71
    0
 42
1
  3
txt
  4

  0
ENDTAB
  0
TABLE
  2
VIEW
  5
6
330
0
100
AcDbSymbolTable
 70
    0
  0
ENDTAB
  0
TABLE
  2
UCS
  5
7
330
0
100
AcDbSymbolTable
 70
    0
  0
ENDTAB
  0
TABLE
  2
APPID
  5
9
330
0
100
AcDbSymbolTable
 70
    1
  0
APPID
  5
12
330
9
100
AcDbSymbolTableRecord
100
AcDbRegAppTableRecord
  2
ACAD
 70
    0
  0
APPID
  5
4C
330
9
100
AcDbSymbolTableRecord
100
AcDbRegAppTableRecord
  2
LibreCad
 70
    0
  0
ENDTAB
  0
TABLE
  2
DIMSTYLE
  5
A
330
0
100
AcDbSymbolTable
 70
    1
100
AcDbDimStyleTable
 71
    1
  0
DIMSTYLE
105
4D
330
A
100
AcDbSymbolTableRecord
100
AcDbDimStyleTableRecord
  2
Standard
 70
    0
 40
1
 41
2.5
 42
0.625
 43
0.38
 44
1.25
 45
0
 46
0
 47
0
 48
0
 49
1
140
2.5
141
0.09
142
2.5
143
25.4
144
1
145
0
146
1
147
0.625
148
0
 71
    0
 72
    0
 73
    0
 74
    1
 75
    0
 76
    0
 77
    0
 78
    1
 79
    0
170
    0
171
    2
172
    0
173
    0
174
    0
175
    0
176
    0
177
    0
178
    0
179
    0
271
    2
272
    4
273
    2
274
    2
275
    0
276
    0
277
    2
278
    0
279
    0
280
    0
281
    0
282
    0
283
    1
284
    0
285
    0
286
    0
288
    0
289
    3
340
standard
341

371
   -2
372
   -2
  0
ENDTAB
  0
TABLE
  2
BLOCK_RECORD
  5
1
330
0
100
AcDbSymbolTable
 70
    2
  0
BLOCK_RECORD
  5
1F
330
1
100
AcDbSymbolTableRecord
100
AcDbBlockTableRecord
  2
*Model_Space
 70
    0
280
    1
281
    0
  0
BLOCK_RECORD
  5
1E
330
1
100
AcDbSymbolTableRecord
100
AcDbBlockTableRecord
  2
*Paper_Space
 70
    0
280
    1
281
    0
  0
ENDTAB
  0
ENDSEC
  0
SECTION
  2
BLOCKS
  0
BLOCK
  5
20
330
1F
100
AcDbEntity
  8
0
100
AcDbBlockBegin
  2
*Model_Space
 70
    0
 10
0
 20
0
 30
0
  3
*Model_Space
  1

  0
ENDBLK
  5
21
330
1F
100
AcDbEntity
  8
0
100
AcDbBlockEnd
  0
BLOCK
  5
1C
330
1B
100
AcDbEntity
  8
0
100
AcDbBlockBegin
  2
*Paper_Space
 70
    0
 10
0
 20
0
 30
0
  3
*Paper_Space
  1

  0
ENDBLK
  5
1D
330
1F
100
AcDbEntity
  8
0
100
AcDbBlockEnd
  0
ENDSEC
  0
SECTION
  2
ENTITIES
  0
LWPOLYLINE
  5
4E
100
AcDbEntity
  8
Layer_1
  6
CONTINUOUS
 62
    7
370
   -3
100
AcDbPolyline
 90
   20
 70
    1
 43
0
 10
-1.540868127536399e-015
 20
-2.519751896217797
 10
0.7404973385523005
 20
-1.019072460532276
 10
2.398264082869984
 20
-0.7776818936102147
 10
1.19806334698371
 20
0.390478898831946
 10
1.480490400730314
 20
2.035934078868394
 10
2.055647319032516e-016
 20
1.258796269678806
 10
-1.480490400730314
 20
2.035934078868394
 10
-1.198063346983709
 20
0.3904788988319461
 10
-2.398264082869983
 20
-0.777681893610214
 10
-0.7404973385523026
 20
-1.019072460532275
 10
-1.540868127536399e-015
 20
-2.519751896217797
 10
0.7404973385523005
 20
-1.019072460532276
 10
2.398264082869984
 20
-0.7776818936102147
 10
1.19806334698371
 20
0.390478898831946
 10
1.480490400730314
 20
2.035934078868394
 10
2.055647319032516e-016
 20
1.258796269678806
 10
-1.480490400730314
 20
2.035934078868394
 10
-1.198063346983709
 20
0.3904788988319461
 10
-2.398264082869983
 20
-0.777681893610214
 10
-0.7404973385523026
 20
-1.019072460532275
  0
LWPOLYLINE
  5
4F
100
AcDbEntity
  8
Layer_1
  6
CONTINUOUS
 62
    7
370
   -3
100
AcDbPolyline
 90
   20
 70
    1
 43
0
 10
-3.075881563341376e-015
 20
-7.039503792435593
 10
2.068885677104602
 20
-2.846734921064551
 10
6.698872165739971
 20
-2.172553787220429
 10
3.347298693967419
 20
1.089547797663893
 10
4.136761801460628
 20
5.689058157736788
 10
6.409803243734302e-016
 20
3.517592539357613
 10
-4.136761801460626
 20
5.689058157736787
 10
-3.347298693967419
 20
1.089547797663892
 10
-6.698872165739965
 20
-2.172553787220429
 10
-2.068885677104605
 20
-2.846734921064551
 10
-3.075881563341376e-015
 20
-7.039503792435593
 10
2.068885677104602
 20
-2.846734921064551
 10
6.698872165739971
 20
-2.172553787220429
 10
3.347298693967419
 20
1.089547797663893
 10
4.136761801460628
 20
5.689058157736788
 10
6.409803243734302e-016
 20
3.517592539357613
 10
-4.136761801460626
 20
5.689058157736787
 10
-3.347298693967419
 20
1.089547797663892
 10
-6.698872165739965
 20
-2.172553787220429
 10
-2.068885677104605
 20
-2.846734921064551
  0
LWPOLYLINE
  5
50
100
AcDbEntity
  8
Layer_1
  6
CONTINUOUS
 62
    7
370
   -3
100
AcDbPolyline
 90
   20
 70
    1
 43
0
 10
-9.007985329878565e-015
 20
-11.55925568865338
 10
3.397274015656901
 20
-4.674397381596827
 10
10.99948024860996
 20
-3.567425680830648
 10
5.496534040951127
 20
1.788616696495839
 10
6.793033202190935
 20
9.342182236605177
 10
2.159730727591125e-016
 20
5.776388809036418
 10
-6.793033202190943
 20
9.342182236605183
 10
-5.496534040951129
 20
1.788616696495836
 10
-10.99948024860994
 20
-3.567425680830643
 10
-3.397274015656908
 20
-4.674397381596825
 10
-9.007985329878565e-015
 20
-11.55925568865338
 10
3.397274015656901
 20
-4.674397381596827
 10
10.99948024860996
 20
-3.567425680830648
 10
5.496534040951127
 20
1.788616696495839
 10
6.793033202190935
 20
9.342182236605177
 10
2.159730727591125e-016
 20
5.776388809036418
 10
-6.793033202190943
 20
9.342182236605183
 10
-5.496534040951129
 20
1.788616696495836
 10
-10.99948024860994
 20
-3.567425680830643
 10
-3.397274015656908
 20
-4.674397381596825
  0
LWPOLYLINE
  5
51
100
AcDbEntity
  8
Layer_1
  6
CONTINUOUS
 62
    7
370
   -3
100
AcDbPolyline
 90
   20
 70
    1
 43
0
 10
-2.023554934726945e-015
 20
-16.07900758487117
 10
4.725662354209207
 20
-6.5020598421291
 10
15.30008833147994
 20
-4.962297574440856
 10
7.645769387934839
 20
2.487685595327786
 10
9.449304602921258
 20
12.99530631547358
 10
4.623038063478191e-016
 20
8.035185078715227
 10
-9.449304602921258
 20
12.99530631547358
 10
-7.645769387934839
 20
2.487685595327784
 10
-15.30008833147994
 20
-4.962297574440857
 10
-4.725662354209207
 20
-6.502059842129102
 10
-2.023554934726945e-015
 20
-16.07900758487117
 10
4.725662354209207
 20
-6.5020598421291
 10
15.30008833147994
 20
-4.962297574440856
 10
7.645769387934839
 20
2.487685595327786
 10
9.449304602921258
 20
12.99530631547358
 10
4.623038063478191e-016
 20
8.035185078715227
 10
-9.449304602921258
 20
12.99530631547358
 10
-7.645769387934839
 20
2.487685595327784
 10
-15.30008833147994
 20
-4.962297574440857
 10
-4.725662354209207
 20
-6.502059842129102
  0
LWPOLYLINE
  5
52
100
AcDbEntity
  8
Layer_1
  6
CONTINUOUS
 62
    7
370
   -3
100
AcDbPolyline
 90
   20
 70
    1
 43
0
 10
-2.257742603983814e-015
 20
-20.59875948108897
 10
6.054050692761506
 20
-8.329722302661377
 10
19.60069641434993
 20
-6.35716946805107
 10
9.795004734918544
 20
3.186754494159739
 10
12.10557600365155
 20
16.64843039434196
 10
2.393918396847994e-016
 20
10.29398134839403
 10
-12.10557600365155
 20
16.64843039434196
 10
-9.795004734918544
 20
3.186754494159733
 10
-19.60069641434992
 20
-6.357169468051072
 10
-6.05405069276151
 20
-8.329722302661375
 10
-2.257742603983814e-015
 20
-20.59875948108897
 10
6.054050692761506
 20
-8.329722302661377
 10
19.60069641434993
 20
-6.35716946805107
 10
9.795004734918544
 20
3.186754494159739
 10
12.10557600365155
 20
16.64843039434196
 10
2.393918396847994e-016
 20
10.29398134839403
 10
-12.10557600365155
 20
16.64843039434196
 10
-9.795004734918544
 20
3.186754494159733
 10
-19.60069641434992
 20
-6.357169468051072
 10
-6.05405069276151
 20
-8.329722302661375
  0
LWPOLYLINE
  5
53
100
AcDbEntity
  8
Layer_1
  6
CONTINUOUS
 62
    7
370
   -3
100
AcDbPolyline
 90
   20
 70
    1
 43
0
 10
-3.303433915302634e-014
 20
-25.11851137730676
 10
7.382439031313799
 20
-10.15738476319365
 10
23.90130449721991
 20
-7.752041361661282
 10
11.94424008190226
 20
3.885823392991685
 10
14.76184740438186
 20
20.30155447321033
 10
1.234082280809901e-014
 20
12.55277761807284
 10
-14.76184740438191
 20
20.30155447321039
 10
-11.94424008190226
 20
3.885823392991668
 10
-23.90130449721989
 20
-7.752041361661288
 10
-7.382439031313821
 20
-10.15738476319365
 10
-3.303433915302634e-014
 20
-25.11851137730676
 10
7.382439031313799
 20
-10.15738476319365
 10
23.90130449721991
 20
-7.752041361661282
 10
11.94424008190226
 20
3.885823392991685
 10
14.76184740438186
 20
20.30155447321033
 10
1.234082280809901e-014
 20
12.55277761807284
 10
-14.76184740438191
 20
20.30155447321039
 10
-11.94424008190226
 20
3.885823392991668
 10
-23.90130449721989
 20
-7.752041361661288
 10
-7.382439031313821
 20
-10.15738476319365
  0
LWPOLYLINE
  5
54
100
AcDbEntity
  8
Layer_1
  6
CONTINUOUS
 62
    7
370
   -3
100
AcDbPolyline
 90
   20
 70
    1
 43
0
 10
-4.796510411075872e-016
 20
-29.63826327352455
 10
8.710827369866111
 20
-11.98504722372592
 10
28.2019125800899
 20
-9.146913255271496
 10
14.09347542888597
 20
4.584892291823624
 10
17.41811880511221
 20
23.95467855207875
 10
1.460810639120069e-014
 20
14.81157388775164
 10
-17.41811880511222
 20
23.95467855207879
 10
-14.09347542888597
 20
4.584892291823621
 10
-28.2019125800899
 20
-9.146913255271498
 10
-8.710827369866109
 20
-11.98504722372593
 10
-4.796510411075872e-016
 20
-29.63826327352455
 10
8.710827369866111
 20
-11.98504722372592
 10
28.2019125800899
 20
-9.146913255271496
 10
14.09347542888597
 20
4.584892291823624
 10
17.41811880511221
 20
23.95467855207875
 10
1.460810639120069e-014
 20
14.81157388775164
 10
-17.41811880511222
 20
23.95467855207879
 10
-14.09347542888597
 20
4.584892291823621
 10
-28.2019125800899
 20
-9.146913255271498
 10
-8.710827369866109
 20
-11.98504722372593
  0
LWPOLYLINE
  5
55
100
AcDbEntity
  8
Layer_1
  6
CONTINUOUS
 62
    7
370
   -3
100
AcDbPolyline
 90
   20
 70
    1
 43
0
 10
-2.201190618666971e-014
 20
-34.15801516974239
 10
10.03921570841841
 20
-13.81270968425821
 10
32.5025206629599
 20
-10.54178514888175
 10
16.24271077586967
 20
5.283961190655578
 10
20.07439020584249
 20
27.60780263094718
 10
-3.261280134836397e-015
 20
17.07037015743046
 10
-20.07439020584249
 20
27.60780263094716
 10
-16.24271077586967
 20
5.283961190655584
 10
-32.5025206629599
 20
-10.54178514888171
 10
-10.03921570841842
 20
-13.8127096842582
 10
-2.201190618666971e-014
 20
-34.15801516974239
 10
10.03921570841841
 20
-13.81270968425821
 10
32.5025206629599
 20
-10.54178514888175
 10
16.24271077586967
 20
5.283961190655578
 10
20.07439020584249
 20
27.60780263094718
 10
-3.261280134836397e-015
 20
17.07037015743046
 10
-20.07439020584249
 20
27.60780263094716
 10
-16.24271077586967
 20
5.283961190655584
 10
-32.5025206629599
 20
-10.54178514888171
 10
-10.03921570841842
 20
-13.8127096842582
  0
LWPOLYLINE
  5
56
100
AcDbEntity
  8
Layer_1
  6
CONTINUOUS
 62
    7
370
   -3
100
AcDbPolyline
 90
   20
 70
    1
 43
0
 10
-6.453171330633722e-015
 20
-38.67776706596015
 10
11.36760404697072
 20
-15.64037214479046
 10
36.80312874582981
 20
-11.93665704249188
 10
18.39194612285339
 20
5.983030089487512
 10
22.73066160657285
 20
31.26092670981557
 10
9.645062526431047e-016
 20
19.32916642710926
 10
-22.73066160657287
 20
31.26092670981561
 10
-18.39194612285339
 20
5.983030089487507
 10
-36.80312874582981
 20
-11.93665704249189
 10
-11.36760404697072
 20
-15.64037214479046
 10
-6.453171330633722e-015
 20
-38.67776706596015
 10
11.36760404697072
 20
-15.64037214479046
 10
36.80312874582981
 20
-11.93665704249188
 10
18.39194612285339
 20
5.983030089487512
 10
22.73066160657285
 20
31.26092670981557
 10
9.645062526431047e-016
 20
19.32916642710926
 10
-22.73066160657287
 20
31.26092670981561
 10
-18.39194612285339
 20
5.983030089487507
 10
-36.80312874582981
 20
-11.93665704249189
 10
-11.36760404697072
 20
-15.64037214479046
  0
LWPOLYLINE
  5
57
100
AcDbEntity
  8
Layer_1
  6
CONTINUOUS
 62
    7
370
   -3
100
AcDbPolyline
 90
   20
 70
    1
 43
0
 10
-1.622139922385912e-014
 20
-43.19751896217804
 10
12.69599238552302
 20
-17.46803460532277
 10
41.10373682869988
 20
-13.33152893610219
 10
20.5411814698371
 20
6.682098988319453
 10
25.38693300730316
 20
34.91405078868386
 10
2.834538159746103e-014
 20
21.58796269678805
 10
-25.38693300730306
 20
34.91405078868391
 10
-20.54118146983708
 20
6.682098988319479
 10
-41.10373682869979
 20
-13.3315289361021
 10
-12.69599238552304
 20
-17.46803460532274
 10
-1.622139922385912e-014
 20
-43.19751896217804
 10
12.69599238552302
 20
-17.46803460532277
 10
41.10373682869988
 20
-13.33152893610219
 10
20.5411814698371
 20
6.682098988319453
 10
25.38693300730316
 20
34.91405078868386
 10
2.834538159746103e-014
 20
21.58796269678805
 10
-25.38693300730306
 20
34.91405078868391
 10
-20.54118146983708
 20
6.682098988319479
 10
-41.10373682869979
 20
-13.3315289361021
 10
-12.69599238552304
 20
-17.46803460532274
  0
LWPOLYLINE
  5
58
100
AcDbEntity
  8
Layer_1
  6
CONTINUOUS
 62
    7
370
   -3
100
AcDbPolyline
 90
   20
 70
    1
 43
0
 10
-1.364533486203356e-014
 20
-47.71727085839584
 10
14.02438072407532
 20
-19.29569706585504
 10
45.40434491156987
 20
-14.72640082971241
 10
22.69041681682081
 20
7.381167887151401
 10
28.04320440803347
 20
38.56717486755227
 10
2.60590160561236e-014
 20
23.84675896646687
 10
-28.04320440803337
 20
38.56717486755233
 10
-22.69041681682078
 20
7.381167887151414
 10
-45.40434491156972
 20
-14.72640082971231
 10
-14.02438072407535
 20
-19.29569706585501
 10
-1.364533486203356e-014
 20
-47.71727085839584
 10
14.02438072407532
 20
-19.29569706585504
 10
45.40434491156987
 20
-14.72640082971241
 10
22.69041681682081
 20
7.381167887151401
 10
28.04320440803347
 20
38.56717486755227
 10
2.60590160561236e-014
 20
23.84675896646687
 10
-28.04320440803337
 20
38.56717486755233
 10
-22.69041681682078
 20
7.381167887151414
 10
-45.40434491156972
 20
-14.72640082971231
 10
-14.02438072407535
 20
-19.29569706585501
  0
LWPOLYLINE
  5
59
100
AcDbEntity
  8
Layer_1
  6
CONTINUOUS
 62
    7
370
   -3
100
AcDbPolyline
 90
   20
 70
    1
 43
0
 10
-5.152128723651117e-016
 20
-52.23702275461339
 10
15.35276906262759
 20
-21.12335952638732
 10
49.70495299443992
 20
-16.12127272332262
 10
24.83965216380453
 20
8.080236785983361
 10
30.69947580876382
 20
42.22029894642081
 10
-1.341288191625267e-014
 20
26.10555523614569
 10
-30.69947580876381
 20
42.22029894642077
 10
-24.83965216380452
 20
8.080236785983349
 10
-49.70495299443975
 20
-16.12127272332252
 10
-15.35276906262761
 20
-21.12335952638729
 10
-5.152128723651117e-016
 20
-52.23702275461339
 10
15.35276906262759
 20
-21.12335952638732
 10
49.70495299443992
 20
-16.12127272332262
 10
24.83965216380453
 20
8.080236785983361
 10
30.69947580876382
 20
42.22029894642081
 10
-1.341288191625267e-014
 20
26.10555523614569
 10
-30.69947580876381
 20
42.22029894642077
 10
-24.83965216380452
 20
8.080236785983349
 10
-49.70495299443975
 20
-16.12127272332252
 10
-15.35276906262761
 20
-21.12335952638729
  0
LWPOLYLINE
  5
5A
100
AcDbEntity
  8
Layer_1
  6
CONTINUOUS
 62
    7
370
   -3
100
AcDbPolyline
 90
   20
 70
    1
 43
0
 10
-6.743390568164642e-014
 20
-56.7567746508313
 10
16.68115740117989
 20
-22.9510219869196
 10
54.00556107730984
 20
-17.51614461693284
 10
26.98888751078824
 20
8.779305684815286
 10
33.35574720949413
 20
45.87342302528917
 10
1.087671619437458e-014
 20
28.36435150582449
 10
-33.35574720949414
 20
45.87342302528921
 10
-26.98888751078823
 20
8.779305684815288
 10
-54.00556107730985
 20
-17.51614461693285
 10
-16.68115740117993
 20
-22.9510219869196
 10
-6.743390568164642e-014
 20
-56.7567746508313
 10
16.68115740117989
 20
-22.9510219869196
 10
54.00556107730984
 20
-17.51614461693284
 10
26.98888751078824
 20
8.779305684815286
 10
33.35574720949413
 20
45.87342302528917
 10
1.087671619437458e-014
 20
28.36435150582449
 10
-33.35574720949414
 20
45.87342302528921
 10
-26.98888751078823
 20
8.779305684815288
 10
-54.00556107730985
 20
-17.51614461693285
 10
-16.68115740117993
 20
-22.9510219869196
  0
LWPOLYLINE
  5
5B
100
AcDbEntity
  8
Layer_1
  6
CONTINUOUS
 62
    7
370
   -3
100
AcDbPolyline
 90
   20
 70
    1
 43
0
 10
-8.952907859516301e-014
 20
-61.27652654704914
 10
18.0095457397322
 20
-24.77868444745187
 10
58.30616916017983
 20
-18.91101651054306
 10
29.13812285777191
 20
9.478374583647264
 10
36.01201861022428
 20
49.52654710415747
 10
6.081940506774686e-015
 20
30.62314777550329
 10
-36.01201861022444
 20
49.52654710415756
 10
-29.13812285777194
 20
9.478374583647234
 10
-58.30616916017983
 20
-18.91101651054306
 10
-18.00954573973224
 20
-24.77868444745187
 10
-8.952907859516301e-014
 20
-61.27652654704914
 10
18.0095457397322
 20
-24.77868444745187
 10
58.30616916017983
 20
-18.91101651054306
 10
29.13812285777191
 20
9.478374583647264
 10
36.01201861022428
 20
49.52654710415747
 10
6.081940506774686e-015
 20
30.62314777550329
 10
-36.01201861022444
 20
49.52654710415756
 10
-29.13812285777194
 20
9.478374583647234
 10
-58.30616916017983
 20
-18.91101651054306
 10
-18.00954573973224
 20
-24.77868444745187
  0
LWPOLYLINE
  5
5C
100
AcDbEntity
  8
Layer_1
  6
CONTINUOUS
 62
    7
370
   -3
100
AcDbPolyline
 90
   20
 70
    1
 43
0
 10
-8.552533681260854e-014
 20
-65.7962784432669
 10
19.33793407828451
 20
-26.6063469079841
 10
62.60677724304968
 20
-20.30588840415314
 10
31.28735820475562
 20
10.17744348247922
 10
38.66829001095459
 20
53.17967118302591
 10
2.130240428499519e-015
 20
32.88194404518211
 10
-38.66829001095477
 20
53.179671183026
 10
-31.28735820475564
 20
10.17744348247914
 10
-62.60677724304968
 20
-20.3058884041533
 10
-19.33793407828453
 20
-26.60634690798415
 10
-8.552533681260854e-014
 20
-65.7962784432669
 10
19.33793407828451
 20
-26.6063469079841
 10
62.60677724304968
 20
-20.30588840415314
 10
31.28735820475562
 20
10.17744348247922
 10
38.66829001095459
 20
53.17967118302591
 10
2.130240428499519e-015
 20
32.88194404518211
 10
-38.66829001095477
 20
53.179671183026
 10
-31.28735820475564
 20
10.17744348247914
 10
-62.60677724304968
 20
-20.3058884041533
 10
-19.33793407828453
 20
-26.60634690798415
  0
LWPOLYLINE
  5
5D
100
AcDbEntity
  8
Layer_1
  6
CONTINUOUS
 62
    7
370
   -3
100
AcDbPolyline
 90
   20
 70
    1
 43
0
 10
-1.543903893619358e-015
 20
-70.31603033948453
 10
20.66632241683682
 20
-28.43400936851638
 10
66.90738532591966
 20
-21.70076029776335
 10
33.43659355173933
 20
10.87651238131117
 10
41.3245614116849
 20
56.83279526189425
 10
1.501576640805524e-014
 20
35.14074031486091
 10
-41.32456141168509
 20
56.83279526189441
 10
-33.43659355173936
 20
10.87651238131113
 10
-66.90738532591982
 20
-21.7007602977635
 10
-20.66632241683679
 20
-28.43400936851643
 10
-1.543903893619358e-015
 20
-70.31603033948453
 10
20.66632241683682
 20
-28.43400936851638
 10
66.90738532591966
 20
-21.70076029776335
 10
33.43659355173933
 20
10.87651238131117
 10
41.3245614116849
 20
56.83279526189425
 10
1.501576640805524e-014
 20
35.14074031486091
 10
-41.32456141168509
 20
56.83279526189441
 10
-33.43659355173936
 20
10.87651238131113
 10
-66.90738532591982
 20
-21.7007602977635
 10
-20.66632241683679
 20
-28.43400936851643
  0
LWPOLYLINE
  5
5E
100
AcDbEntity
  8
Layer_1
  6
CONTINUOUS
 62
    7
370
   -3
100
AcDbPolyline
 90
   20
 70
    1
 43
0
 10
-2.421673972463623e-015
 20
-74.83578223570268
 10
21.99471075538917
 20
-30.26167182904865
 10
71.20799340878948
 20
-23.09563219137359
 10
35.58582889872307
 20
11.57558128014303
 10
43.98083281241541
 20
60.48591934076281
 10
-1.611211164487258e-014
 20
37.39953658453972
 10
-43.9808328124154
 20
60.48591934076275
 10
-35.58582889872307
 20
11.57558128014307
 10
-71.20799340878963
 20
-23.09563219137356
 10
-21.99471075538917
 20
-30.26167182904865
 10
-2.421673972463623e-015
 20
-74.83578223570268
 10
21.99471075538917
 20
-30.26167182904865
 10
71.20799340878948
 20
-23.09563219137359
 10
35.58582889872307
 20
11.57558128014303
 10
43.98083281241541
 20
60.48591934076281
 10
-1.611211164487258e-014
 20
37.39953658453972
 10
-43.9808328124154
 20
60.48591934076275
 10
-35.58582889872307
 20
11.57558128014307
 10
-71.20799340878963
 20
-23.09563219137356
 10
-21.99471075538917
 20
-30.26167182904865
  0
LWPOLYLINE
  5
5F
100
AcDbEntity
  8
Layer_1
  6
CONTINUOUS
 62
    7
370
   -3
100
AcDbPolyline
 90
   20
 70
    1
 43
0
 10
9.492059915849893e-014
 20
-79.35553413192028
 10
23.32309909394142
 20
-32.08933428958103
 10
75.50860149165997
 20
-24.49050408498411
 10
37.73506424570669
 20
12.27465017897511
 10
46.63710421314529
 20
64.13904341963092
 10
-2.643718577388654e-015
 20
39.65833285421852
 10
-46.63710421314571
 20
64.13904341963115
 10
-37.73506424570678
 20
12.27465017897501
 10
-75.50860149165996
 20
-24.49050408498411
 10
-23.32309909394136
 20
-32.08933428958104
 10
9.492059915849893e-014
 20
-79.35553413192028
 10
23.32309909394142
 20
-32.08933428958103
 10
75.50860149165997
 20
-24.49050408498411
 10
37.73506424570669
 20
12.27465017897511
 10
46.63710421314529
 20
64.13904341963092
 10
-2.643718577388654e-015
 20
39.65833285421852
 10
-46.63710421314571
 20
64.13904341963115
 10
-37.73506424570678
 20
12.27465017897501
 10
-75.50860149165996
 20
-24.49050408498411
 10
-23.32309909394136
 20
-32.08933428958104
  0
LWPOLYLINE
  5
60
100
AcDbEntity
  8
Layer_1
  6
CONTINUOUS
 62
    7
370
   -3
100
AcDbPolyline
 90
   20
 70
    1
 43
0
 10
-2.316653813227987e-013
 20
-83.87528602813791
 10
24.65148743249366
 20
-33.91699675011321
 10
79.80920957452977
 20
-25.88537597859396
 10
39.88429959269041
 20
12.9737190778071
 10
49.29337561387558
 20
67.7921674984993
 10
4.100886297209172e-014
 20
41.91712912389734
 10
-49.29337561387606
 20
67.79216749849968
 10
-39.8842995926905
 20
12.97371907780696
 10
-79.8092095745296
 20
-25.88537597859399
 10
-24.65148743249379
 20
-33.9169967501132
 10
-2.316653813227987e-013
 20
-83.87528602813791
 10
24.65148743249366
 20
-33.91699675011321
 10
79.80920957452977
 20
-25.88537597859396
 10
39.88429959269041
 20
12.9737190778071
 10
49.29337561387558
 20
67.7921674984993
 10
4.100886297209172e-014
 20
41.91712912389734
 10
-49.29337561387606
 20
67.79216749849968
 10
-39.8842995926905
 20
12.97371907780696
 10
-79.8092095745296
 20
-25.88537597859399
 10
-24.65148743249379
 20
-33.9169967501132
  0
LWPOLYLINE
  5
61
100
AcDbEntity
  8
Layer_1
  6
CONTINUOUS
 62
    7
370
   -3
100
AcDbPolyline
 90
   20
 70
    1
 43
0
 10
2.323835568418531e-014
 20
-88.39503792435603
 10
25.97987577104608
 20
-35.74465921064547
 10
84.10981765739957
 20
-27.28024787220419
 10
42.03353493967411
 20
13.672787976639
 10
51.94964701460587
 20
71.44529157736768
 10
-3.4555691641458e-015
 20
44.17592539357614
 10
-51.94964701460636
 20
71.44529157736795
 10
-42.03353493967421
 20
13.6727879766389
 10
-84.10981765739997
 20
-27.28024787220457
 10
-25.979875771046
 20
-35.7446592106456
 10
2.323835568418531e-014
 20
-88.39503792435603
 10
25.97987577104608
 20
-35.74465921064547
 10
84.10981765739957
 20
-27.28024787220419
 10
42.03353493967411
 20
13.672787976639
 10
51.94964701460587
 20
71.44529157736768
 10
-3.4555691641458e-015
 20
44.17592539357614
 10
-51.94964701460636
 20
71.44529157736795
 10
-42.03353493967421
 20
13.6727879766389
 10
-84.10981765739997
 20
-27.28024787220457
 10
-25.979875771046
 20
-35.7446592106456
  0
LWPOLYLINE
  5
62
100
AcDbEntity
  8
Layer_1
  6
CONTINUOUS
 62
    7
370
   -3
100
AcDbPolyline
 90
   20
 70
    1
 43
0
 10
5.224987109642143e-015
 20
-92.91478982057399
 10
27.3082641095984
 20
-37.57232167117773
 10
88.41042574026956
 20
-28.6751197658144
 10
44.18277028665792
 20
14.37185687547085
 10
54.60591841533667
 20
75.09841565623636
 10
-1.176350683529392e-013
 20
46.43472166325488
 10
-54.60591841533658
 20
75.09841565623584
 10
-44.18277028665791
 20
14.37185687547085
 10
-88.41042574026956
 20
-28.6751197658144
 10
-27.3082641095984
 20
-37.57232167117774
 10
5.224987109642143e-015
 20
-92.91478982057399
 10
27.3082641095984
 20
-37.57232167117773
 10
88.41042574026956
 20
-28.6751197658144
 10
44.18277028665792
 20
14.37185687547085
 10
54.60591841533667
 20
75.09841565623636
 10
-1.176350683529392e-013
 20
46.43472166325488
 10
-54.60591841533658
 20
75.09841565623584
 10
-44.18277028665791
 20
14.37185687547085
 10
-88.41042574026956
 20
-28.6751197658144
 10
-27.3082641095984
 20
-37.57232167117774
  0
LWPOLYLINE
  5
63
100
AcDbEntity
  8
Layer_1
  6
CONTINUOUS
 62
    7
370
   -3
100
AcDbPolyline
 90
   20
 70
    1
 43
0
 10
-6.362965709882928e-015
 20
-97.43454171679181
 10
28.6366524481507
 20
-39.39998413171001
 10
92.71103382313953
 20
-30.06999165942461
 10
46.33200563364161
 20
15.07092577430281
 10
57.26218981606699
 20
78.75153973510486
 10
-3.133604487004504e-014
 20
48.69351793293377
 10
-57.26218981606645
 20
78.75153973510446
 10
-46.33200563364152
 20
15.07092577430296
 10
-92.71103382313973
 20
-30.06999165942458
 10
-28.6366524481507
 20
-39.39998413171001
 10
-6.362965709882928e-015
 20
-97.43454171679181
 10
28.6366524481507
 20
-39.39998413171001
 10
92.71103382313953
 20
-30.06999165942461
 10
46.33200563364161
 20
15.07092577430281
 10
57.26218981606699
 20
78.75153973510486
 10
-3.133604487004504e-014
 20
48.69351793293377
 10
-57.26218981606645
 20
78.75153973510446
 10
-46.33200563364152
 20
15.07092577430296
 10
-92.71103382313973
 20
-30.06999165942458
 10
-28.6366524481507
 20
-39.39998413171001
  0
LWPOLYLINE
  5
64
100
AcDbEntity
  8
Layer_1
  6
CONTINUOUS
 62
    7
370
   -3
100
AcDbPolyline
 90
   20
 70
    1
 43
0
 10
5.92755011741275e-014
 20
-101.9542936130095
 10
29.96504078670294
 20
-41.22764659224243
 10
97.01164190600973
 20
-31.46486355303529
 10
48.48124098062532
 20
15.76999467313469
 10
59.9184612167973
 20
82.40466381397313
 10
3.538142001602296e-014
 20
50.95231420261258
 10
-59.91846121679679
 20
82.40466381397299
 10
-48.48124098062524
 20
15.7699946731349
 10
-97.01164190600973
 20
-31.46486355303479
 10
-29.96504078670298
 20
-41.22764659224229
 10
5.92755011741275e-014
 20
-101.9542936130095
 10
29.96504078670294
 20
-41.22764659224243
 10
97.01164190600973
 20
-31.46486355303529
 10
48.48124098062532
 20
15.76999467313469
 10
59.9184612167973
 20
82.40466381397313
 10
3.538142001602296e-014
 20
50.95231420261258
 10
-59.91846121679679
 20
82.40466381397299
 10
-48.48124098062524
 20
15.7699946731349
 10
-97.01164190600973
 20
-31.46486355303479
 10
-29.96504078670298
 20
-41.22764659224229
  0
LWPOLYLINE
  5
65
100
AcDbEntity
  8
Layer_1
  6
CONTINUOUS
 62
    7
370
   -3
100
AcDbPolyline
 90
   20
 70
    1
 43
0
 10
-2.535784082713377e-013
 20
-106.4740455092269
 10
31.29342912525517
 20
-43.05530905277458
 10
101.3122499888795
 20
-32.85973544664503
 10
50.63047632760905
 20
16.46906357196669
 10
62.57473261752762
 20
86.05778789284153
 10
-5.745404152435185e-015
 20
53.21111047229136
 10
-62.57473261752764
 20
86.05778789284153
 10
-50.63047632760904
 20
16.46906357196662
 10
-101.3122499888792
 20
-32.85973544664507
 10
-31.29342912525531
 20
-43.05530905277456
 10
-2.535784082713377e-013
 20
-106.4740455092269
 10
31.29342912525517
 20
-43.05530905277458
 10
101.3122499888795
 20
-32.85973544664503
 10
50.63047632760905
 20
16.46906357196669
 10
62.57473261752762
 20
86.05778789284153
 10
-5.745404152435185e-015
 20
53.21111047229136
 10
-62.57473261752764
 20
86.05778789284153
 10
-50.63047632760904
 20
16.46906357196662
 10
-101.3122499888792
 20
-32.85973544664507
 10
-31.29342912525531
 20
-43.05530905277456
  0
LWPOLYLINE
  5
66
100
AcDbEntity
  8
Layer_1
  6
CONTINUOUS
 62
    7
370
   -3
100
AcDbPolyline
 90
   20
 70
    1
 43
0
 10
1.221245327087672e-015
 20
-110.9937974054452
 10
32.62181746380755
 20
-44.88297151330699
 10
105.6128580717497
 20
-34.25460734025574
 10
52.77971167459274
 20
17.16813247079859
 10
65.23100401825795
 20
89.71091197171009
 10
-1.804528748650114e-013
 20
55.46990674197011
 10
-65.23100401825782
 20
89.71091197170934
 10
-52.77971167459274
 20
17.16813247079858
 10
-105.6128580717497
 20
-34.25460734025575
 10
-32.62181746380755
 20
-44.88297151330699
 10
1.221245327087672e-015
 20
-110.9937974054452
 10
32.62181746380755
 20
-44.88297151330699
 10
105.6128580717497
 20
-34.25460734025574
 10
52.77971167459274
 20
17.16813247079859
 10
65.23100401825795
 20
89.71091197171009
 10
-1.804528748650114e-013
 20
55.46990674197011
 10
-65.23100401825782
 20
89.71091197170934
 10
-52.77971167459274
 20
17.16813247079858
 10
-105.6128580717497
 20
-34.25460734025575
 10
-32.62181746380755
 20
-44.88297151330699
  0
LWPOLYLINE
  5
67
100
AcDbEntity
  8
Layer_1
  6
CONTINUOUS
 62
    7
370
   -3
100
AcDbPolyline
 90
   20
 70
    1
 43
0
 10
6.952771691715043e-014
 20
-115.5135493016618
 10
33.95020580235977
 20
-46.71063397383913
 10
109.9134661546197
 20
-35.64947923386541
 10
54.92894702157648
 20
17.86720136963065
 10
67.88727541898825
 20
93.36403605057833
 10
2.964295475749168e-014
 20
57.72870301164899
 10
-67.88727541898828
 20
93.36403605057849
 10
-54.92894702157648
 20
17.86720136963065
 10
-109.9134661546197
 20
-35.64947923386542
 10
-33.95020580235972
 20
-46.71063397383914
 10
6.952771691715043e-014
 20
-115.5135493016618
 10
33.95020580235977
 20
-46.71063397383913
 10
109.9134661546197
 20
-35.64947923386541
 10
54.92894702157648
 20
17.86720136963065
 10
67.88727541898825
 20
93.36403605057833
 10
2.964295475749168e-014
 20
57.72870301164899
 10
-67.88727541898828
 20
93.36403605057849
 10
-54.92894702157648
 20
17.86720136963065
 10
-109.9134661546197
 20
-35.64947923386542
 10
-33.95020580235972
 20
-46.71063397383914
  0
LWPOLYLINE
  5
68
100
AcDbEntity
  8
Layer_1
  6
CONTINUOUS
 62
    7
370
   -3
100
AcDbPolyline
 90
   20
 70
    1
 43
0
 10
-9.194034422677078e-016
 20
-120.0333011978809
 10
35.27859414091223
 20
-48.53829643437138
 10
114.2140742374902
 20
-37.04435112747554
 10
57.07818236856021
 20
18.56627026846273
 10
70.54354681971857
 20
97.01716012944672
 10
7.584211036970601e-015
 20
59.98749928132779
 10
-70.54354681971857
 20
97.01716012944674
 10
-57.07818236856019
 20
18.56627026846259
 10
-114.2140742374902
 20
-37.04435112747613
 10
-35.27859414091215
 20
-48.53829643437155
 10
-9.194034422677078e-016
 20
-120.0333011978809
 10
35.27859414091223
 20
-48.53829643437138
 10
114.2140742374902
 20
-37.04435112747554
 10
57.07818236856021
 20
18.56627026846273
 10
70.54354681971857
 20
97.01716012944672
 10
7.584211036970601e-015
 20
59.98749928132779
 10
-70.54354681971857
 20
97.01716012944674
 10
-57.07818236856019
 20
18.56627026846259
 10
-114.2140742374902
 20
-37.04435112747613
 10
-35.27859414091215
 20
-48.53829643437155
  0
LWPOLYLINE
  5
69
100
AcDbEntity
  8
Layer_1
  6
CONTINUOUS
 62
    7
370
   -3
100
AcDbPolyline
 90
   20
 70
    1
 43
0
 10
-2.24535667836534e-013
 20
-124.5530530940979
 10
36.60698247946436
 20
-50.36595889490368
 10
118.5146823203591
 20
-38.43922302108591
 10
59.22741771554388
 20
19.26533916729439
 10
73.19981822044889
 20
100.6702842083151
 10
6.168676680573526e-015
 20
62.24629555100658
 10
-73.19981822044892
 20
100.6702842083151
 10
-59.22741771554389
 20
19.26533916729439
 10
-118.5146823203591
 20
-38.4392230210859
 10
-36.60698247946449
 20
-50.36595889490366
 10
-2.24535667836534e-013
 20
-124.5530530940979
 10
36.60698247946436
 20
-50.36595889490368
 10
118.5146823203591
 20
-38.43922302108591
 10
59.22741771554388
 20
19.26533916729439
 10
73.19981822044889
 20
100.6702842083151
 10
6.168676680573526e-015
 20
62.24629555100658
 10
-73.19981822044892
 20
100.6702842083151
 10
-59.22741771554389
 20
19.26533916729439
 10
-118.5146823203591
 20
-38.4392230210859
 10
-36.60698247946449
 20
-50.36595889490366
  0
LWPOLYLINE
  5
6A
100
AcDbEntity
  8
Layer_1
  6
CONTINUOUS
 62
    7
370
   -3
100
AcDbPolyline
 90
   20
 70
    1
 43
0
 10
1.105365798892421e-014
 20
-129.0728049903165
 10
37.93537081801684
 20
-52.19362135543592
 10
122.8152904032291
 20
-39.83409491469611
 10
61.37665306252758
 20
19.96440806612634
 10
75.85608962117921
 20
104.3234082871835
 10
-1.685387940320027e-013
 20
64.50509182068531
 10
-75.85608962117908
 20
104.3234082871828
 10
-61.37665306252761
 20
19.96440806612648
 10
-122.8152904032297
 20
-39.83409491469603
 10
-37.93537081801683
 20
-52.19362135543592
 10
1.105365798892421e-014
 20
-129.0728049903165
 10
37.93537081801684
 20
-52.19362135543592
 10
122.8152904032291
 20
-39.83409491469611
 10
61.37665306252758
 20
19.96440806612634
 10
75.85608962117921
 20
104.3234082871835
 10
-1.685387940320027e-013
 20
64.50509182068531
 10
-75.85608962117908
 20
104.3234082871828
 10
-61.37665306252761
 20
19.96440806612648
 10
-122.8152904032297
 20
-39.83409491469603
 10
-37.93537081801683
 20
-52.19362135543592
  0
LWPOLYLINE
  5
6B
100
AcDbEntity
  8
Layer_1
  6
CONTINUOUS
 62
    7
370
   -3
100
AcDbPolyline
 90
   20
 70
    1
 43
0
 10
6.571132527000145e-015
 20
-133.5925568865343
 10
39.26375915656906
 20
-54.02128381596839
 10
127.1158984861002
 20
-41.22896680830681
 10
63.52588840951132
 20
20.66347696495843
 10
78.51236102190957
 20
107.9765323660521
 10
1.183081410616182e-014
 20
66.76388809036425
 10
-78.51236102190957
 20
107.9765323660521
 10
-63.52588840951132
 20
20.66347696495843
 10
-127.1158984860997
 20
-41.22896680830624
 10
-39.26375915656915
 20
-54.0212838159682
 10
6.571132527000145e-015
 20
-133.5925568865343
 10
39.26375915656906
 20
-54.02128381596839
 10
127.1158984861002
 20
-41.22896680830681
 10
63.52588840951132
 20
20.66347696495843
 10
78.51236102190957
 20
107.9765323660521
 10
1.183081410616182e-014
 20
66.76388809036425
 10
-78.51236102190957
 20
107.9765323660521
 10
-63.52588840951132
 20
20.66347696495843
 10
-127.1158984860997
 20
-41.22896680830624
 10
-39.26375915656915
 20
-54.0212838159682
  0
LWPOLYLINE
  5
6C
100
AcDbEntity
  8
Layer_1
  6
CONTINUOUS
 62
    7
370
   -3
100
AcDbPolyline
 90
   20
 70
    1
 43
0
 10
7.202571872255703e-014
 20
-138.1123087827519
 10
40.59214749512144
 20
-55.84894627650047
 10
131.4165065689696
 20
-42.62383870191645
 10
65.67512375649503
 20
21.36254586379038
 10
81.16863242263983
 20
111.6296564449203
 10
5.967448757360216e-015
 20
69.02268436004302
 10
-81.16863242263985
 20
111.6296564449203
 10
-65.675123756495
 20
21.36254586379023
 10
-131.416506568969
 20
-42.62383870191653
 10
-40.59214749512141
 20
-55.84894627650047
 10
7.202571872255703e-014
 20
-138.1123087827519
 10
40.59214749512144
 20
-55.84894627650047
 10
131.4165065689696
 20
-42.62383870191645
 10
65.67512375649503
 20
21.36254586379038
 10
81.16863242263983
 20
111.6296564449203
 10
5.967448757360216e-015
 20
69.02268436004302
 10
-81.16863242263985
 20
111.6296564449203
 10
-65.675123756495
 20
21.36254586379023
 10
-131.416506568969
 20
-42.62383870191653
 10
-40.59214749512141
 20
-55.84894627650047
  0
LWPOLYLINE
  5
6D
100
AcDbEntity
  8
Layer_1
  6
CONTINUOUS
 62
    7
370
   -3
100
AcDbPolyline
 90
   20
 70
    1
 43
0
 10
1.144223604754302e-014
 20
-142.6320606789699
 10
41.92053583367366
 20
-57.67660873703293
 10
135.7171146518402
 20
-44.01871059552725
 10
67.82435910347873
 20
22.06161476262233
 10
83.82490382337015
 20
115.2827805237887
 10
-9.658940314238862e-015
 20
71.28148062972181
 10
-83.82490382337019
 20
115.2827805237887
 10
-67.82435910347873
 20
22.06161476262216
 10
-135.717114651839
 20
-44.01871059552675
 10
-41.92053583367375
 20
-57.67660873703274
 10
1.144223604754302e-014
 20
-142.6320606789699
 10
41.92053583367366
 20
-57.67660873703293
 10
135.7171146518402
 20
-44.01871059552725
 10
67.82435910347873
 20
22.06161476262233
 10
83.82490382337015
 20
115.2827805237887
 10
-9.658940314238862e-015
 20
71.28148062972181
 10
-83.82490382337019
 20
115.2827805237887
 10
-67.82435910347873
 20
22.06161476262216
 10
-135.717114651839
 20
-44.01871059552675
 10
-41.92053583367375
 20
-57.67660873703274
  0
LWPOLYLINE
  5
6E
100
AcDbEntity
  8
Layer_1
  6
CONTINUOUS
 62
    7
370
   -3
100
AcDbPolyline
 90
   20
 70
    1
 43
0
 10
-4.415287579995208e-013
 20
-147.1518125751868
 10
43.24892417222561
 20
-59.50427119756545
 10
140.0177227347109
 20
-45.4135824891381
 10
69.97359445046247
 20
22.76068366145426
 10
86.4811752241005
 20
118.9359046026571
 10
-1.398464677393463e-013
 20
73.54027689940055
 10
-86.48117522410043
 20
118.9359046026566
 10
-69.97359445046247
 20
22.76068366145426
 10
-140.0177227347109
 20
-45.41358248913811
 10
-43.24892417222585
 20
-59.50427119756543
 10
-4.415287579995208e-013
 20
-147.1518125751868
 10
43.24892417222561
 20
-59.50427119756545
 10
140.0177227347109
 20
-45.4135824891381
 10
69.97359445046247
 20
22.76068366145426
 10
86.4811752241005
 20
118.9359046026571
 10
-1.398464677393463e-013
 20
73.54027689940055
 10
-86.48117522410043
 20
118.9359046026566
 10
-69.97359445046247
 20
22.76068366145426
 10
-140.0177227347109
 20
-45.41358248913811
 10
-43.24892417222585
 20
-59.50427119756543
  0
LWPOLYLINE
  5
6F
100
AcDbEntity
  8
Layer_1
  6
CONTINUOUS
 62
    7
370
   -3
100
AcDbPolyline
 90
   20
 70
    1
 43
0
 10
8.333611578592581e-015
 20
-151.6715644714051
 10
44.57731251077831
 20
-61.33193365809729
 10
144.3183308175789
 20
-46.80845438274717
 10
72.12282979744613
 20
23.45975256028605
 10
89.1374466248308
 20
122.5890286815255
 10
-1.114386360967501e-014
 20
75.79907316907942
 10
-89.1374466248308
 20
122.5890286815255
 10
-72.12282979744614
 20
23.45975256028606
 10
-144.318330817579
 20
-46.80845438274716
 10
-44.5773125107783
 20
-61.33193365809729
 10
8.333611578592581e-015
 20
-151.6715644714051
 10
44.57731251077831
 20
-61.33193365809729
 10
144.3183308175789
 20
-46.80845438274717
 10
72.12282979744613
 20
23.45975256028605
 10
89.1374466248308
 20
122.5890286815255
 10
-1.114386360967501e-014
 20
75.79907316907942
 10
-89.1374466248308
 20
122.5890286815255
 10
-72.12282979744614
 20
23.45975256028606
 10
-144.318330817579
 20
-46.80845438274716
 10
-44.5773125107783
 20
-61.33193365809729
  0
LWPOLYLINE
  5
70
100
AcDbEntity
  8
Layer_1
  6
CONTINUOUS
 62
    7
370
   -3
100
AcDbPolyline
 90
   20
 70
    1
 43
0
 10
-4.606107162352657e-013
 20
-156.1913163676224
 10
45.90570084933042
 20
-63.15959611862959
 10
148.6189389004489
 20
-48.20332627635737
 10
74.27206514442986
 20
24.15882145911798
 10
91.79371802556113
 20
126.2421527603939
 10
8.679168495007161e-014
 20
78.0578694387583
 10
-91.79371802556119
 20
126.2421527603943
 10
-74.27206514442985
 20
24.158821459118
 10
-148.6189389004489
 20
-48.20332627635739
 10
-45.90570084933066
 20
-63.15959611862957
 10
-4.606107162352657e-013
 20
-156.1913163676224
 10
45.90570084933042
 20
-63.15959611862959
 10
148.6189389004489
 20
-48.20332627635737
 10
74.27206514442986
 20
24.15882145911798
 10
91.79371802556113
 20
126.2421527603939
 10
8.679168495007161e-014
 20
78.0578694387583
 10
-91.79371802556119
 20
126.2421527603943
 10
-74.27206514442985
 20
24.158821459118
 10
-148.6189389004489
 20
-48.20332627635739
 10
-45.90570084933066
 20
-63.15959611862957
  0
LWPOLYLINE
  5
71
100
AcDbEntity
  8
Layer_1
  6
CONTINUOUS
 62
    7
370
   -3
100
AcDbPolyline
 90
   20
 70
    1
 43
0
 10
-9.130196598761131e-014
 20
-160.7110682638409
 10
47.23408918788293
 20
-64.98725857916183
 10
152.9195469833195
 20
-49.59819816996747
 10
76.42130049141359
 20
24.85789035795012
 10
94.44998942629144
 20
129.8952768392624
 10
-1.128264148775315e-014
 20
80.31666570843704
 10
-94.44998942629144
 20
129.8952768392623
 10
-76.42130049141359
 20
24.85789035795012
 10
-152.9195469833196
 20
-49.5981981699675
 10
-47.23408918788297
 20
-64.98725857916183
 10
-9.130196598761131e-014
 20
-160.7110682638409
 10
47.23408918788293
 20
-64.98725857916183
 10
152.9195469833195
 20
-49.59819816996747
 10
76.42130049141359
 20
24.85789035795012
 10
94.44998942629144
 20
129.8952768392624
 10
-1.128264148775315e-014
 20
80.31666570843704
 10
-94.44998942629144
 20
129.8952768392623
 10
-76.42130049141359
 20
24.85789035795012
 10
-152.9195469833196
 20
-49.5981981699675
 10
-47.23408918788297
 20
-64.98725857916183
  0
LWPOLYLINE
  5
72
100
AcDbEntity
  8
Layer_1
  6
CONTINUOUS
 62
    7
370
   -3
100
AcDbPolyline
 90
   20
 70
    1
 43
0
 10
3.171074514085603e-015
 20
-165.2308201600585
 10
48.56247752643522
 20
-66.81492103969411
 10
157.2201550661896
 20
-50.9930700635777
 10
78.5705358383973
 20
25.55695925678205
 10
97.10626082702163
 20
133.5484009181299
 10
-1.360023205165817e-014
 20
82.57546197811564
 10
-97.1062608270216
 20
133.5484009181298
 10
-78.57053583839726
 20
25.55695925678189
 10
-157.2201550661889
 20
-50.99307006357781
 10
-48.5624775264352
 20
-66.81492103969413
 10
3.171074514085603e-015
 20
-165.2308201600585
 10
48.56247752643522
 20
-66.81492103969411
 10
157.2201550661896
 20
-50.9930700635777
 10
78.5705358383973
 20
25.55695925678205
 10
97.10626082702163
 20
133.5484009181299
 10
-1.360023205165817e-014
 20
82.57546197811564
 10
-97.1062608270216
 20
133.5484009181298
 10
-78.57053583839726
 20
25.55695925678189
 10
-157.2201550661889
 20
-50.99307006357781
 10
-48.5624775264352
 20
-66.81492103969413
  0
LWPOLYLINE
  5
73
100
AcDbEntity
  8
Layer_1
  6
CONTINUOUS
 62
    7
370
   -3
100
AcDbPolyline
 90
   20
 70
    1
 43
0
 10
-1.623701173514291e-015
 20
-169.7505720562768
 10
49.8908658649876
 20
-68.64258350022638
 10
161.5207631490588
 20
-52.38794195718801
 10
80.71977118538098
 20
26.25602815561382
 10
99.7625322277519
 20
137.2015249969982
 10
4.039407697220554e-013
 20
84.83425824779466
 10
-99.76253222775222
 20
137.201524997
 10
-80.71977118538098
 20
26.25602815561383
 10
-161.5207631490588
 20
-52.38794195718801
 10
-49.89086586498758
 20
-68.64258350022638
 10
-1.623701173514291e-015
 20
-169.7505720562768
 10
49.8908658649876
 20
-68.64258350022638
 10
161.5207631490588
 20
-52.38794195718801
 10
80.71977118538098
 20
26.25602815561382
 10
99.7625322277519
 20
137.2015249969982
 10
4.039407697220554e-013
 20
84.83425824779466
 10
-99.76253222775222
 20
137.201524997
 10
-80.71977118538098
 20
26.25602815561383
 10
-161.5207631490588
 20
-52.38794195718801
 10
-49.89086586498758
 20
-68.64258350022638
  0
LWPOLYLINE
  5
74
100
AcDbEntity
  8
Layer_1
  6
CONTINUOUS
 62
    7
370
   -3
100
AcDbPolyline
 90
   20
 70
    1
 43
0
 10
-4.815592369311616e-015
 20
-174.2703239524942
 10
51.21925420353983
 20
-70.47024596075865
 10
165.8213712319288
 20
-53.7828138507982
 10
82.86900653236468
 20
26.95509705444577
 10
102.4188036284825
 20
140.8546490758684
 10
3.4555691641458e-015
 20
87.09305451747367
 10
-102.4188036284825
 20
140.8546490758684
 10
-82.86900653236472
 20
26.95509705444596
 10
-165.8213712319295
 20
-53.78281385079811
 10
-51.21925420353983
 20
-70.47024596075865
 10
-4.815592369311616e-015
 20
-174.2703239524942
 10
51.21925420353983
 20
-70.47024596075865
 10
165.8213712319288
 20
-53.7828138507982
 10
82.86900653236468
 20
26.95509705444577
 10
102.4188036284825
 20
140.8546490758684
 10
3.4555691641458e-015
 20
87.09305451747367
 10
-102.4188036284825
 20
140.8546490758684
 10
-82.86900653236472
 20
26.95509705444596
 10
-165.8213712319295
 20
-53.78281385079811
 10
-51.21925420353983
 20
-70.47024596075865
  0
LWPOLYLINE
  5
75
100
AcDbEntity
  8
Layer_1
  6
CONTINUOUS
 62
    7
370
   -3
100
AcDbPolyline
 90
   20
 70
    1
 43
0
 10
4.010680676458378e-015
 20
-178.7900758487128
 10
52.54764254209201
 20
-72.29790842129141
 10
170.1219793148003
 20
-55.17768574440993
 10
85.01824187934839
 20
27.65416595327771
 10
105.0750750292125
 20
144.507773154735
 10
-3.620714839058792e-014
 20
89.35185078715206
 10
-105.0750750292125
 20
144.5077731547349
 10
-85.01824187934844
 20
27.65416595327792
 10
-170.1219793147995
 20
-55.17768574440832
 10
-52.54764254209224
 20
-72.29790842129091
 10
4.010680676458378e-015
 20
-178.7900758487128
 10
52.54764254209201
 20
-72.29790842129141
 10
170.1219793148003
 20
-55.17768574440993
 10
85.01824187934839
 20
27.65416595327771
 10
105.0750750292125
 20
144.507773154735
 10
-3.620714839058792e-014
 20
89.35185078715206
 10
-105.0750750292125
 20
144.5077731547349
 10
-85.01824187934844
 20
27.65416595327792
 10
-170.1219793147995
 20
-55.17768574440832
 10
-52.54764254209224
 20
-72.29790842129091
  0
LWPOLYLINE
  5
76
100
AcDbEntity
  8
Layer_1
  6
CONTINUOUS
 62
    7
370
   -3
100
AcDbPolyline
 90
   20
 70
    1
 43
0
 10
6.654399253847032e-015
 20
-183.3098277449261
 10
53.87603088064393
 20
-74.12557088182328
 10
174.4225873976703
 20
-56.57255763801842
 10
87.16747722633217
 20
28.35323485211004
 10
107.7313464299428
 20
148.1608972336033
 10
-1.75692793646931e-014
 20
91.61064705683084
 10
-107.7313464299429
 20
148.1608972336033
 10
-87.16747722633212
 20
28.35323485210965
 10
-174.4225873976687
 20
-56.57255763801864
 10
-53.87603088064393
 20
-74.12557088182328
 10
6.654399253847032e-015
 20
-183.3098277449261
 10
53.87603088064393
 20
-74.12557088182328
 10
174.4225873976703
 20
-56.57255763801842
 10
87.16747722633217
 20
28.35323485211004
 10
107.7313464299428
 20
148.1608972336033
 10
-1.75692793646931e-014
 20
91.61064705683084
 10
-107.7313464299429
 20
148.1608972336033
 10
-87.16747722633212
 20
28.35323485210965
 10
-174.4225873976687
 20
-56.57255763801864
 10
-53.87603088064393
 20
-74.12557088182328
  0
LWPOLYLINE
  5
77
100
AcDbEntity
  8
Layer_1
  6
CONTINUOUS
 62
    7
370
   -3
100
AcDbPolyline
 90
   20
 70
    1
 43
0
 10
2.329803017175891e-013
 20
-187.829579641148
 10
55.20441921919689
 20
-75.95323334235543
 10
178.7231954805395
 20
-57.96742953162871
 10
89.31671257331585
 20
29.0523037509418
 10
110.3876178306736
 20
151.8140213124742
 10
-5.817291093279664e-013
 20
93.86944332650995
 10
-110.3876178306732
 20
151.8140213124717
 10
-89.31671257331581
 20
29.05230375094161
 10
-178.7231954805387
 20
-57.96742953162885
 10
-55.20441921919673
 20
-75.95323334235549
 10
2.329803017175891e-013
 20
-187.829579641148
 10
55.20441921919689
 20
-75.95323334235543
 10
178.7231954805395
 20
-57.96742953162871
 10
89.31671257331585
 20
29.0523037509418
 10
110.3876178306736
 20
151.8140213124742
 10
-5.817291093279664e-013
 20
93.86944332650995
 10
-110.3876178306732
 20
151.8140213124717
 10
-89.31671257331581
 20
29.05230375094161
 10
-178.7231954805387
 20
-57.96742953162885
 10
-55.20441921919673
 20
-75.95323334235549
  0
LWPOLYLINE
  5
78
100
AcDbEntity
  8
Layer_1
  6
CONTINUOUS
 62
    7
370
   -3
100
AcDbPolyline
 90
   20
 70
    1
 43
0
 10
7.251144129583054e-015
 20
-192.3493315373653
 10
56.53280755774905
 20
-77.78089580288776
 10
183.0238035634086
 20
-59.36230142523906
 10
91.4659479202991
 20
29.75137264977394
 10
113.0438892314018
 20
155.467145391341
 10
-2.287059430727822e-014
 20
96.12823959618895
 10
-113.0438892314039
 20
155.4671453913421
 10
-91.46594792029958
 20
29.75137264977374
 10
-183.0238035634095
 20
-59.36230142523892
 10
-56.53280755774905
 20
-77.78089580288774
 10
7.251144129583054e-015
 20
-192.3493315373653
 10
56.53280755774905
 20
-77.78089580288776
 10
183.0238035634086
 20
-59.36230142523906
 10
91.4659479202991
 20
29.75137264977394
 10
113.0438892314018
 20
155.467145391341
 10
-2.287059430727822e-014
 20
96.12823959618895
 10
-113.0438892314039
 20
155.4671453913421
 10
-91.46594792029958
 20
29.75137264977374
 10
-183.0238035634095
 20
-59.36230142523892
 10
-56.53280755774905
 20
-77.78089580288774
  0
LWPOLYLINE
  5
79
100
AcDbEntity
  8
Layer_1
  6
CONTINUOUS
 62
    7
370
   -3
100
AcDbPolyline
 90
   20
 70
    1
 43
0
 10
1.298267049421042e-014
 20
-196.8690834335841
 10
57.86119589630149
 20
-79.60855826342001
 10
187.3244116462786
 20
-60.75717331884928
 10
93.61518326728323
 20
30.45044154860548
 10
115.7001606321338
 20
159.1202694702084
 10
-1.311450947838466e-014
 20
98.38703586586725
 10
-115.7001606321337
 20
159.1202694702084
 10
-93.61518326728323
 20
30.45044154860549
 10
-187.3244116462803
 20
-60.75717331885093
 10
-57.86119589630118
 20
-79.60855826342056
 10
1.298267049421042e-014
 20
-196.8690834335841
 10
57.86119589630149
 20
-79.60855826342001
 10
187.3244116462786
 20
-60.75717331884928
 10
93.61518326728323
 20
30.45044154860548
 10
115.7001606321338
 20
159.1202694702084
 10
-1.311450947838466e-014
 20
98.38703586586725
 10
-115.7001606321337
 20
159.1202694702084
 10
-93.61518326728323
 20
30.45044154860549
 10
-187.3244116462803
 20
-60.75717331885093
 10
-57.86119589630118
 20
-79.60855826342056
  0
LWPOLYLINE
  5
7A
100
AcDbEntity
  8
Layer_1
  6
CONTINUOUS
 62
    7
370
   -3
100
AcDbPolyline
 90
   20
 70
    1
 43
0
 10
-7.355227538141662e-016
 20
-201.388835329801
 10
59.18958423485367
 20
-81.43622072395229
 10
191.6250197291486
 20
-62.15204521245949
 10
95.76441861426694
 20
31.14951044743743
 10
118.3564320328641
 20
162.7733935490768
 10
-2.155220446553585e-014
 20
100.645832135546
 10
-118.3564320328619
 20
162.7733935490756
 10
-95.7644186142665
 20
31.14951044743786
 10
-191.6250197291486
 20
-62.15204521245949
 10
-59.18958423485365
 20
-81.4362207239523
 10
-7.355227538141662e-016
 20
-201.388835329801
 10
59.18958423485367
 20
-81.43622072395229
 10
191.6250197291486
 20
-62.15204521245949
 10
95.76441861426694
 20
31.14951044743743
 10
118.3564320328641
 20
162.7733935490768
 10
-2.155220446553585e-014
 20
100.645832135546
 10
-118.3564320328619
 20
162.7733935490756
 10
-95.7644186142665
 20
31.14951044743786
 10
-191.6250197291486
 20
-62.15204521245949
 10
-59.18958423485365
 20
-81.4362207239523
  0
LWPOLYLINE
  5
7B
100
AcDbEntity
  8
Layer_1
  6
CONTINUOUS
 62
    7
370
   -3
100
AcDbPolyline
 90
   20
 70
    1
 43
0
 10
2.559827350090416e-013
 20
-205.9085872260193
 10
60.51797257340612
 20
-83.26388318448454
 10
195.9256278120185
 20
-63.54691710606969
 10
97.91365396125065
 20
31.84857934626937
 10
121.0127034335947
 20
166.4265176279473
 10
1.399574900418088e-013
 20
102.9046284052254
 10
-121.0127034335949
 20
166.4265176279479
 10
-97.91365396125067
 20
31.84857934626936
 10
-195.9256278120186
 20
-63.5469171060697
 10
-60.51797257340593
 20
-83.26388318448458
 10
2.559827350090416e-013
 20
-205.9085872260193
 10
60.51797257340612
 20
-83.26388318448454
 10
195.9256278120185
 20
-63.54691710606969
 10
97.91365396125065
 20
31.84857934626937
 10
121.0127034335947
 20
166.4265176279473
 10
1.399574900418088e-013
 20
102.9046284052254
 10
-121.0127034335949
 20
166.4265176279479
 10
-97.91365396125067
 20
31.84857934626936
 10
-195.9256278120186
 20
-63.5469171060697
 10
-60.51797257340593
 20
-83.26388318448458
  0
LWPOLYLINE
  5
7C
100
AcDbEntity
  8
Layer_1
  6
CONTINUOUS
 62
    7
370
   -3
100
AcDbPolyline
 90
   20
 70
    1
 43
0
 10
-2.438743651467234e-013
 20
-210.428339122237
 10
61.84636091195798
 20
-85.09154564501742
 10
200.2262358948922
 20
-64.94178899968142
 10
100.0628893082344
 20
32.54764824510178
 10
123.6689748343251
 20
170.0796417068157
 10
3.594347042223944e-015
 20
105.1634246749042
 10
-123.6689748343229
 20
170.0796417068147
 10
-100.0628893082339
 20
32.54764824510176
 10
-200.2262358948885
 20
-64.9417889996799
 10
-61.8463609119584
 20
-85.09154564501682
 10
-2.438743651467234e-013
 20
-210.428339122237
 10
61.84636091195798
 20
-85.09154564501742
 10
200.2262358948922
 20
-64.94178899968142
 10
100.0628893082344
 20
32.54764824510178
 10
123.6689748343251
 20
170.0796417068157
 10
3.594347042223944e-015
 20
105.1634246749042
 10
-123.6689748343229
 20
170.0796417068147
 10
-100.0628893082339
 20
32.54764824510176
 10
-200.2262358948885
 20
-64.9417889996799
 10
-61.8463609119584
 20
-85.09154564501682
  0
LWPOLYLINE
  5
7D
100
AcDbEntity
  8
Layer_1
  6
CONTINUOUS
 62
    7
370
   -3
100
AcDbPolyline
 90
   20
 70
    1
 43
0
 10
-7.700090565165851e-013
 20
-214.9480910184527
 10
63.17474925051012
 20
-86.91920810554919
 10
204.5268439777585
 20
-66.33666089329012
 10
102.2121246552181
 20
33.24671714393326
 10
126.325246235055
 20
173.7327657856819
 10
-1.709743457922741e-014
 20
107.4222209445824
 10
-126.3252462350551
 20
173.732765785682
 10
-102.2121246552181
 20
33.24671714393325
 10
-204.5268439777585
 20
-66.3366608932901
 10
-63.17474925051055
 20
-86.91920810554912
 10
-7.700090565165851e-013
 20
-214.9480910184527
 10
63.17474925051012
 20
-86.91920810554919
 10
204.5268439777585
 20
-66.33666089329012
 10
102.2121246552181
 20
33.24671714393326
 10
126.325246235055
 20
173.7327657856819
 10
-1.709743457922741e-014
 20
107.4222209445824
 10
-126.3252462350551
 20
173.732765785682
 10
-102.2121246552181
 20
33.24671714393325
 10
-204.5268439777585
 20
-66.3366608932901
 10
-63.17474925051055
 20
-86.91920810554912
  0
LWPOLYLINE
  5
7E
100
AcDbEntity
  8
Layer_1
  6
CONTINUOUS
 62
    7
370
   -3
100
AcDbPolyline
 90
   20
 70
    1
 43
0
 10
1.13312137450805e-014
 20
-219.4678429146722
 10
64.50313758906289
 20
-88.7468705660814
 10
208.8274520606304
 20
-67.73153278690006
 10
104.3613600022018
 20
33.9457860427657
 10
128.9815176357853
 20
177.3858898645503
 10
1.121047699115252e-013
 20
109.6810172142613
 10
-128.9815176357855
 20
177.3858898645509
 10
-104.3613600022019
 20
33.94578604276568
 10
-208.8274520606304
 20
-67.73153278690006
 10
-64.50313758906286
 20
-88.7468705660814
 10
1.13312137450805e-014
 20
-219.4678429146722
 10
64.50313758906289
 20
-88.7468705660814
 10
208.8274520606304
 20
-67.73153278690006
 10
104.3613600022018
 20
33.9457860427657
 10
128.9815176357853
 20
177.3858898645503
 10
1.121047699115252e-013
 20
109.6810172142613
 10
-128.9815176357855
 20
177.3858898645509
 10
-104.3613600022019
 20
33.94578604276568
 10
-208.8274520606304
 20
-67.73153278690006
 10
-64.50313758906286
 20
-88.7468705660814
  0
LWPOLYLINE
  5
7F
100
AcDbEntity
  8
Layer_1
  6
CONTINUOUS
 62
    7
370
   -3
100
AcDbPolyline
 90
   20
 70
    1
 43
0
 10
-2.64399613314481e-013
 20
-223.9875948108904
 10
65.83152592761516
 20
-90.57453302661366
 10
213.1280601434984
 20
-69.12640468051055
 10
106.5105953491855
 20
34.64485494159712
 10
131.6377890365161
 20
181.0390139434211
 10
-5.388328672140119e-013
 20
111.9398134839403
 10
-131.6377890365157
 20
181.0390139434187
 10
-106.5105953491855
 20
34.64485494159712
 10
-213.1280601434984
 20
-69.12640468051055
 10
-65.8315259276153
 20
-90.57453302661364
 10
-2.64399613314481e-013
 20
-223.9875948108904
 10
65.83152592761516
 20
-90.57453302661366
 10
213.1280601434984
 20
-69.12640468051055
 10
106.5105953491855
 20
34.64485494159712
 10
131.6377890365161
 20
181.0390139434211
 10
-5.388328672140119e-013
 20
111.9398134839403
 10
-131.6377890365157
 20
181.0390139434187
 10
-106.5105953491855
 20
34.64485494159712
 10
-213.1280601434984
 20
-69.12640468051055
 10
-65.8315259276153
 20
-90.57453302661364
  0
LWPOLYLINE
  5
80
100
AcDbEntity
  8
Layer_1
  6
CONTINUOUS
 62
    7
370
   -3
100
AcDbPolyline
 90
   20
 70
    1
 43
0
 10
2.969846590872294e-015
 20
-228.5073467071077
 10
67.15991426616746
 20
-92.40219548714595
 10
217.4286682263684
 20
-70.52127657412076
 10
108.6598306961692
 20
35.34392384042908
 10
134.2940604372465
 20
184.6921380222895
 10
4.329869796038111e-015
 20
114.1986097536194
 10
-134.2940604372465
 20
184.6921380222895
 10
-108.6598306961692
 20
35.34392384042908
 10
-217.4286682263704
 20
-70.52127657412268
 10
-67.15991426616716
 20
-92.40219548714657
 10
2.969846590872294e-015
 20
-228.5073467071077
 10
67.15991426616746
 20
-92.40219548714595
 10
217.4286682263684
 20
-70.52127657412076
 10
108.6598306961692
 20
35.34392384042908
 10
134.2940604372465
 20
184.6921380222895
 10
4.329869796038111e-015
 20
114.1986097536194
 10
-134.2940604372465
 20
184.6921380222895
 10
-108.6598306961692
 20
35.34392384042908
 10
-217.4286682263704
 20
-70.52127657412268
 10
-67.15991426616716
 20
-92.40219548714657
  0
LWPOLYLINE
  5
81
100
AcDbEntity
  8
Layer_1
  6
CONTINUOUS
 62
    7
370
   -3
100
AcDbPolyline
 90
   20
 70
    1
 43
0
 10
-1.127410664825135e-012
 20
-233.0270986033233
 10
68.48830260471912
 20
-94.22985794767831
 10
221.7292763092404
 20
-71.91614846773068
 10
110.809066043153
 20
36.0429927392615
 10
136.9503318379764
 20
188.3452621011555
 10
-1.973421426271216e-014
 20
116.4574060232977
 10
-136.9503318379763
 20
188.3452621011554
 10
-110.809066043153
 20
36.04299273926154
 10
-221.7292763092404
 20
-71.91614846773068
 10
-68.48830260471978
 20
-94.22985794767821
 10
-1.127410664825135e-012
 20
-233.0270986033233
 10
68.48830260471912
 20
-94.22985794767831
 10
221.7292763092404
 20
-71.91614846773068
 10
110.809066043153
 20
36.0429927392615
 10
136.9503318379764
 20
188.3452621011555
 10
-1.973421426271216e-014
 20
116.4574060232977
 10
-136.9503318379763
 20
188.3452621011554
 10
-110.809066043153
 20
36.04299273926154
 10
-221.7292763092404
 20
-71.91614846773068
 10
-68.48830260471978
 20
-94.22985794767821
  0
LWPOLYLINE
  5
82
100
AcDbEntity
  8
Layer_1
  6
CONTINUOUS
 62
    7
370
   -3
100
AcDbPolyline
 90
   20
 70
    1
 43
0
 10
-2.710817681439437e-013
 20
-237.5468504995439
 10
69.81669094327209
 20
-96.05752040821048
 10
226.0298843921084
 20
-73.31102036134118
 10
112.9583013901366
 20
36.74206163809295
 10
139.6066032387067
 20
191.9983861800238
 10
-1.096345236817342e-015
 20
118.7162022929764
 10
-139.6066032387066
 20
191.9983861800237
 10
-112.9583013901366
 20
36.74206163809301
 10
-226.0298843921084
 20
-73.31102036134114
 10
-69.81669094327222
 20
-96.05752040821045
 10
-2.710817681439437e-013
 20
-237.5468504995439
 10
69.81669094327209
 20
-96.05752040821048
 10
226.0298843921084
 20
-73.31102036134118
 10
112.9583013901366
 20
36.74206163809295
 10
139.6066032387067
 20
191.9983861800238
 10
-1.096345236817342e-015
 20
118.7162022929764
 10
-139.6066032387066
 20
191.9983861800237
 10
-112.9583013901366
 20
36.74206163809301
 10
-226.0298843921084
 20
-73.31102036134114
 10
-69.81669094327222
 20
-96.05752040821045
  0
LWPOLYLINE
  5
83
100
AcDbEntity
  8
Layer_1
  6
CONTINUOUS
 62
    7
370
   -3
100
AcDbPolyline
 90
   20
 70
    1
 43
0
 10
1.202510313547123e-014
 20
-242.0666023957611
 10
71.14507928182407
 20
-97.88518286874343
 10
230.3304924749804
 20
-74.70589225495343
 10
115.1075367371203
 20
37.44113053692492
 10
142.2628746394373
 20
195.6515102588947
 10
-3.233524559220768e-015
 20
120.9749985626559
 10
-142.2628746394373
 20
195.6515102588947
 10
-115.1075367371203
 20
37.44113053692492
 10
-230.3304924749783
 20
-74.70589225495139
 10
-71.14507928182439
 20
-97.88518286874276
 10
1.202510313547123e-014
 20
-242.0666023957611
 10
71.14507928182407
 20
-97.88518286874343
 10
230.3304924749804
 20
-74.70589225495343
 10
115.1075367371203
 20
37.44113053692492
 10
142.2628746394373
 20
195.6515102588947
 10
-3.233524559220768e-015
 20
120.9749985626559
 10
-142.2628746394373
 20
195.6515102588947
 10
-115.1075367371203
 20
37.44113053692492
 10
-230.3304924749783
 20
-74.70589225495139
 10
-71.14507928182439
 20
-97.88518286874276
  0
LWPOLYLINE
  5
84
100
AcDbEntity
  8
Layer_1
  6
CONTINUOUS
 62
    7
370
   -3
100
AcDbPolyline
 90
   20
 70
    1
 43
0
 10
1.503658308976696e-014
 20
-246.5863542919789
 10
72.4734676203767
 20
-99.71284532927503
 10
234.6311005578483
 20
-76.10076414856159
 10
117.256772084104
 20
38.14019943575688
 10
144.9191460401672
 20
199.3046343377605
 10
5.722505802552291e-013
 20
123.2337948323344
 10
-144.9191460401676
 20
199.3046343377631
 10
-117.2567720841041
 20
38.14019943575743
 10
-234.6311005578504
 20
-76.10076414856128
 10
-72.4734676203767
 20
-99.71284532927503
 10
1.503658308976696e-014
 20
-246.5863542919789
 10
72.4734676203767
 20
-99.71284532927503
 10
234.6311005578483
 20
-76.10076414856159
 10
117.256772084104
 20
38.14019943575688
 10
144.9191460401672
 20
199.3046343377605
 10
5.722505802552291e-013
 20
123.2337948323344
 10
-144.9191460401676
 20
199.3046343377631
 10
-117.2567720841041
 20
38.14019943575743
 10
-234.6311005578504
 20
-76.10076414856128
 10
-72.4734676203767
 20
-99.71284532927503
  0
LWPOLYLINE
  5
85
100
AcDbEntity
  8
Layer_1
  6
CONTINUOUS
 62
    7
370
   -3
100
AcDbPolyline
 90
   20
 70
    1
 43
0
 10
-2.777639229734064e-013
 20
-251.1061061881973
 10
73.80185595892898
 20
-101.5405077898073
 10
238.9317086407183
 20
-77.49563604217182
 10
119.4060074310878
 20
38.8392683345888
 10
147.5754174408975
 20
202.9577584166289
 10
3.358424649491099e-015
 20
125.4925911020129
 10
-147.5754174408976
 20
202.957758416629
 10
-119.4060074310878
 20
38.83926833458878
 10
-238.9317086407183
 20
-77.49563604217182
 10
-73.80185595892914
 20
-101.5405077898073
 10
-2.777639229734064e-013
 20
-251.1061061881973
 10
73.80185595892898
 20
-101.5405077898073
 10
238.9317086407183
 20
-77.49563604217182
 10
119.4060074310878
 20
38.8392683345888
 10
147.5754174408975
 20
202.9577584166289
 10
3.358424649491099e-015
 20
125.4925911020129
 10
-147.5754174408976
 20
202.957758416629
 10
-119.4060074310878
 20
38.83926833458878
 10
-238.9317086407183
 20
-77.49563604217182
 10
-73.80185595892914
 20
-101.5405077898073
  0
LWPOLYLINE
  5
86
100
AcDbEntity
  8
Layer_1
  6
CONTINUOUS
 62
    7
370
   -3
100
AcDbPolyline
 90
   20
 70
    1
 43
0
 10
1.241014235819904e-012
 20
-255.625858084412
 10
75.13024429748128
 20
-103.3681702503396
 10
243.2323167235926
 20
-78.89050793578139
 10
121.5552427780717
 20
39.53833723342183
 10
150.2316888416284
 20
206.6108824955001
 10
-6.145778330690632e-013
 20
127.751387371692
 10
-150.2316888416279
 20
206.6108824954973
 10
-121.5552427780715
 20
39.53833723342073
 10
-243.2323167235882
 20
-78.89050793578203
 10
-75.13024429748059
 20
-103.3681702503397
 10
1.241014235819904e-012
 20
-255.625858084412
 10
75.13024429748128
 20
-103.3681702503396
 10
243.2323167235926
 20
-78.89050793578139
 10
121.5552427780717
 20
39.53833723342183
 10
150.2316888416284
 20
206.6108824955001
 10
-6.145778330690632e-013
 20
127.751387371692
 10
-150.2316888416279
 20
206.6108824954973
 10
-121.5552427780715
 20
39.53833723342073
 10
-243.2323167235882
 20
-78.89050793578203
 10
-75.13024429748059
 20
-103.3681702503397
  0
LWPOLYLINE
  5
87
100
AcDbEntity
  8
Layer_1
  6
CONTINUOUS
 62
    7
370
   -3
100
AcDbPolyline
 90
   20
 70
    1
 43
0
 10
1.006139616066548e-014
 20
-260.1456099806323
 10
76.45863263603329
 20
-105.1958327108725
 10
247.5329248064604
 20
-80.28537982939437
 10
123.7044781250546
 20
40.23740613225322
 10
152.8879602423561
 20
210.2640065743678
 10
-7.949474412072277e-013
 20
130.0101836413709
 10
-152.8879602423582
 20
210.2640065743657
 10
-123.7044781250552
 20
40.23740613225266
 10
-247.5329248064604
 20
-80.28537982939443
 10
-76.45863263603323
 20
-105.1958327108726
 10
1.006139616066548e-014
 20
-260.1456099806323
 10
76.45863263603329
 20
-105.1958327108725
 10
247.5329248064604
 20
-80.28537982939437
 10
123.7044781250546
 20
40.23740613225322
 10
152.8879602423561
 20
210.2640065743678
 10
-7.949474412072277e-013
 20
130.0101836413709
 10
-152.8879602423582
 20
210.2640065743657
 10
-123.7044781250552
 20
40.23740613225266
 10
-247.5329248064604
 20
-80.28537982939443
 10
-76.45863263603323
 20
-105.1958327108726
  0
LWPOLYLINE
  5
88
100
AcDbEntity
  8
Layer_1
  6
CONTINUOUS
 62
    7
370
   -3
100
AcDbPolyline
 90
   20
 70
    1
 43
0
 10
-1.244546132816993e-012
 20
-264.6653618768475
 10
77.7870209745852
 20
-107.0234951714042
 10
251.8335328893281
 20
-81.6802517230024
 10
125.8537134720389
 20
40.9364750310846
 10
155.5442316430886
 20
213.9171306532341
 10
6.542127950481813e-013
 20
132.2689799110496
 10
-155.544231643089
 20
213.9171306532369
 10
-125.8537134720389
 20
40.93647503108463
 10
-251.8335328893281
 20
-81.68025172300241
 10
-77.7870209745859
 20
-107.0234951714041
 10
-1.244546132816993e-012
 20
-264.6653618768475
 10
77.7870209745852
 20
-107.0234951714042
 10
251.8335328893281
 20
-81.6802517230024
 10
125.8537134720389
 20
40.9364750310846
 10
155.5442316430886
 20
213.9171306532341
 10
6.542127950481813e-013
 20
132.2689799110496
 10
-155.544231643089
 20
213.9171306532369
 10
-125.8537134720389
 20
40.93647503108463
 10
-251.8335328893281
 20
-81.68025172300241
 10
-77.7870209745859
 20
-107.0234951714041
  0
LWPOLYLINE
  5
89
100
AcDbEntity
  8
Layer_1
  6
CONTINUOUS
 62
    7
370
   -3
100
AcDbPolyline
 90
   20
 70
    1
 43
0
 10
-3.009537064002643e-013
 20
-269.1851137730686
 10
79.11540931313823
 20
-108.8511576319364
 10
256.1341409721982
 20
-83.07512361661266
 10
128.002948819022
 20
41.63554392991712
 10
158.200503043816
 20
217.570254732101
 10
1.694477891334145e-013
 20
134.5277761807282
 10
-158.2005030438189
 20
217.5702547321031
 10
-128.0029488190226
 20
41.63554392991659
 10
-256.1341409721981
 20
-83.07512361661261
 10
-79.1154093131384
 20
-108.8511576319364
 10
-3.009537064002643e-013
 20
-269.1851137730686
 10
79.11540931313823
 20
-108.8511576319364
 10
256.1341409721982
 20
-83.07512361661266
 10
128.002948819022
 20
41.63554392991712
 10
158.200503043816
 20
217.570254732101
 10
1.694477891334145e-013
 20
134.5277761807282
 10
-158.2005030438189
 20
217.5702547321031
 10
-128.0029488190226
 20
41.63554392991659
 10
-256.1341409721981
 20
-83.07512361661261
 10
-79.1154093131384
 20
-108.8511576319364
  0
LWPOLYLINE
  5
8A
100
AcDbEntity
  8
Layer_1
  6
CONTINUOUS
 62
    7
370
   -3
100
AcDbPolyline
 90
   20
 70
    1
 43
0
 10
5.093148125467906e-015
 20
-273.7048656692858
 10
80.44379765169053
 20
-110.6788200924687
 10
260.4347490550682
 20
-84.46999551022292
 10
130.1521841660063
 20
42.3346128287485
 10
160.8567744445496
 20
221.2233788109736
 10
-6.681044606438036e-013
 20
136.7865724504072
 10
-160.856774444549
 20
221.2233788109707
 10
-130.1521841660063
 20
42.33461282874853
 10
-260.4347490550681
 20
-84.46999551022284
 10
-80.4437976516905
 20
-110.6788200924687
 10
5.093148125467906e-015
 20
-273.7048656692858
 10
80.44379765169053
 20
-110.6788200924687
 10
260.4347490550682
 20
-84.46999551022292
 10
130.1521841660063
 20
42.3346128287485
 10
160.8567744445496
 20
221.2233788109736
 10
-6.681044606438036e-013
 20
136.7865724504072
 10
-160.856774444549
 20
221.2233788109707
 10
-130.1521841660063
 20
42.33461282874853
 10
-260.4347490550681
 20
-84.46999551022284
 10
-80.4437976516905
 20
-110.6788200924687
  0
LWPOLYLINE
  5
8B
100
AcDbEntity
  8
Layer_1
  6
CONTINUOUS
 62
    7
370
   -3
100
AcDbPolyline
 90
   20
 70
    1
 43
0
 10
2.176037128265307e-014
 20
-278.2246175655035
 10
81.77218599024282
 20
-112.5064825530009
 10
264.7353571379404
 20
-85.86486740383269
 10
132.3014195129901
 20
43.03368172758108
 10
163.5130458452799
 20
224.876502889842
 10
-3.080868893334809e-015
 20
139.0453687200864
 10
-163.5130458452769
 20
224.8765028898405
 10
-132.3014195129894
 20
43.03368172758105
 10
-264.7353571379381
 20
-85.86486740383309
 10
-81.7721859902428
 20
-112.506482553001
 10
2.176037128265307e-014
 20
-278.2246175655035
 10
81.77218599024282
 20
-112.5064825530009
 10
264.7353571379404
 20
-85.86486740383269
 10
132.3014195129901
 20
43.03368172758108
 10
163.5130458452799
 20
224.876502889842
 10
-3.080868893334809e-015
 20
139.0453687200864
 10
-163.5130458452769
 20
224.8765028898405
 10
-132.3014195129894
 20
43.03368172758105
 10
-264.7353571379381
 20
-85.86486740383309
 10
-81.7721859902428
 20
-112.506482553001
  0
LWPOLYLINE
  5
8C
100
AcDbEntity
  8
Layer_1
  6
CONTINUOUS
 62
    7
370
   -3
100
AcDbPolyline
 90
   20
 70
    1
 43
0
 10
-3.354955202539145e-013
 20
-282.744369461722
 10
83.10057432879515
 20
-114.3341450135332
 10
269.0359652208081
 20
-87.25973929744329
 10
134.4506548599737
 20
43.73275062641242
 10
166.1693172460097
 20
228.5296269687075
 10
6.793177131925177e-013
 20
141.3041649897648
 10
-166.1693172460103
 20
228.5296269687106
 10
-134.4506548599738
 20
43.73275062641301
 10
-269.0359652208105
 20
-87.25973929744293
 10
-83.1005743287953
 20
-114.3341450135332
 10
-3.354955202539145e-013
 20
-282.744369461722
 10
83.10057432879515
 20
-114.3341450135332
 10
269.0359652208081
 20
-87.25973929744329
 10
134.4506548599737
 20
43.73275062641242
 10
166.1693172460097
 20
228.5296269687075
 10
6.793177131925177e-013
 20
141.3041649897648
 10
-166.1693172460103
 20
228.5296269687106
 10
-134.4506548599738
 20
43.73275062641301
 10
-269.0359652208105
 20
-87.25973929744293
 10
-83.1005743287953
 20
-114.3341450135332
  0
LWPOLYLINE
  5
8D
100
AcDbEntity
  8
Layer_1
  6
CONTINUOUS
 62
    7
370
   -3
100
AcDbPolyline
 90
   20
 70
    1
 43
0
 10
-2.498001805406602e-016
 20
-287.2641213579391
 10
84.42896266734741
 20
-116.1618074740655
 10
273.3365733036781
 20
-88.6546111910535
 10
136.5998902069575
 20
44.43181952524432
 10
168.8255886467401
 20
232.1827510475759
 10
-4.6074255521944e-015
 20
143.5629612594433
 10
-168.8255886467401
 20
232.1827510475759
 10
-136.5998902069574
 20
44.43181952524434
 10
-273.3365733036779
 20
-88.65461119105342
 10
-84.42896266734743
 20
-116.1618074740655
 10
-2.498001805406602e-016
 20
-287.2641213579391
 10
84.42896266734741
 20
-116.1618074740655
 10
273.3365733036781
 20
-88.6546111910535
 10
136.5998902069575
 20
44.43181952524432
 10
168.8255886467401
 20
232.1827510475759
 10
-4.6074255521944e-015
 20
143.5629612594433
 10
-168.8255886467401
 20
232.1827510475759
 10
-136.5998902069574
 20
44.43181952524434
 10
-273.3365733036779
 20
-88.65461119105342
 10
-84.42896266734743
 20
-116.1618074740655
  0
LWPOLYLINE
  5
8E
100
AcDbEntity
  8
Layer_1
  6
CONTINUOUS
 62
    7
370
   -3
100
AcDbPolyline
 90
   20
 70
    1
 43
0
 10
3.400751902304933e-013
 20
-291.7838732541576
 10
85.75735100589991
 20
-117.9894699345978
 10
277.637181386548
 20
-90.04948308466373
 10
138.7491255539412
 20
45.13088842407629
 10
171.481860047471
 20
235.8358751264474
 10
-7.500666754367558e-013
 20
145.8217575291224
 10
-171.4818600474705
 20
235.8358751264443
 10
-138.7491255539413
 20
45.13088842407689
 10
-277.637181386553
 20
-90.04948308466579
 10
-85.75735100589934
 20
-117.9894699345986
 10
3.400751902304933e-013
 20
-291.7838732541576
 10
85.75735100589991
 20
-117.9894699345978
 10
277.637181386548
 20
-90.04948308466373
 10
138.7491255539412
 20
45.13088842407629
 10
171.481860047471
 20
235.8358751264474
 10
-7.500666754367558e-013
 20
145.8217575291224
 10
-171.4818600474705
 20
235.8358751264443
 10
-138.7491255539413
 20
45.13088842407689
 10
-277.637181386553
 20
-90.04948308466579
 10
-85.75735100589934
 20
-117.9894699345986
  0
LWPOLYLINE
  5
8F
100
AcDbEntity
  8
Layer_1
  6
CONTINUOUS
 62
    7
370
   -3
100
AcDbPolyline
 90
   20
 70
    1
 43
0
 10
-1.772859636872681e-012
 20
-296.3036251503726
 10
87.08573934445084
 20
-119.8171323951309
 10
281.9377894694205
 20
-91.44435497827632
 10
140.8983609009255
 20
45.82995732290765
 10
174.1381314482043
 20
239.4889992053174
 10
-7.286116154858746e-013
 20
148.0805537988012
 10
-174.1381314481976
 20
239.4889992053111
 10
-140.8983609009242
 20
45.82995732290883
 10
-281.9377894694153
 20
-91.44435497827142
 10
-87.08573934445263
 20
-119.8171323951292
 10
-1.772859636872681e-012
 20
-296.3036251503726
 10
87.08573934445084
 20
-119.8171323951309
 10
281.9377894694205
 20
-91.44435497827632
 10
140.8983609009255
 20
45.82995732290765
 10
174.1381314482043
 20
239.4889992053174
 10
-7.286116154858746e-013
 20
148.0805537988012
 10
-174.1381314481976
 20
239.4889992053111
 10
-140.8983609009242
 20
45.82995732290883
 10
-281.9377894694153
 20
-91.44435497827142
 10
-87.08573934445263
 20
-119.8171323951292
  0
LWPOLYLINE
  5
90
100
AcDbEntity
  8
Layer_1
  6
CONTINUOUS
 62
    7
370
   -3
100
AcDbPolyline
 90
   20
 70
    1
 43
0
 10
1.803210358808371e-012
 20
-300.8233770465903
 10
88.41412768300412
 20
-121.6447948556631
 10
286.2383975522931
 20
-92.83922687188628
 10
143.0475962479093
 20
46.52902622174021
 10
176.7944028489341
 20
243.1421232841827
 10
7.071287999593778e-013
 20
150.3393500684801
 10
-176.7944028489284
 20
243.1421232841826
 10
-143.0475962479079
 20
46.52902622174079
 10
-286.2383975522905
 20
-92.83922687188665
 10
-88.41412768300312
 20
-121.6447948556632
 10
1.803210358808371e-012
 20
-300.8233770465903
 10
88.41412768300412
 20
-121.6447948556631
 10
286.2383975522931
 20
-92.83922687188628
 10
143.0475962479093
 20
46.52902622174021
 10
176.7944028489341
 20
243.1421232841827
 10
7.071287999593778e-013
 20
150.3393500684801
 10
-176.7944028489284
 20
243.1421232841826
 10
-143.0475962479079
 20
46.52902622174079
 10
-286.2383975522905
 20
-92.83922687188665
 10
-88.41412768300312
 20
-121.6447948556632
  0
LWPOLYLINE
  5
91
100
AcDbEntity
  8
Layer_1
  6
CONTINUOUS
 62
    7
370
   -3
100
AcDbPolyline
 90
   20
 70
    1
 43
0
 10
1.182387521225792e-014
 20
-305.3431289428103
 10
89.74251602155705
 20
-123.4724573161938
 10
290.5390056351553
 20
-94.23409876549179
 10
145.1968315948916
 20
47.22809512057277
 10
179.450674249658
 20
246.7952473630477
 10
2.117750419472486e-014
 20
152.5981463381585
 10
-179.4506742496645
 20
246.7952473630511
 10
-145.196831594893
 20
47.22809512057211
 10
-290.5390056351631
 20
-94.23409876549651
 10
-89.74251602155624
 20
-123.4724573161954
 10
1.182387521225792e-014
 20
-305.3431289428103
 10
89.74251602155705
 20
-123.4724573161938
 10
290.5390056351553
 20
-94.23409876549179
 10
145.1968315948916
 20
47.22809512057277
 10
179.450674249658
 20
246.7952473630477
 10
2.117750419472486e-014
 20
152.5981463381585
 10
-179.4506742496645
 20
246.7952473630511
 10
-145.196831594893
 20
47.22809512057211
 10
-290.5390056351631
 20
-94.23409876549651
 10
-89.74251602155624
 20
-123.4724573161954
  0
LWPOLYLINE
  5
92
100
AcDbEntity
  8
Layer_1
  6
CONTINUOUS
 62
    7
370
   -3
100
AcDbPolyline
 90
   20
 70
    1
 43
0
 10
3.769207168602406e-013
 20
-309.8628808390288
 10
91.07090436010873
 20
-125.3001197767277
 10
294.8396137180304
 20
-95.62897065910707
 10
147.3460669418753
 20
47.92716401940471
 10
182.106945650389
 20
250.4483714419194
 10
-7.210343433428079e-013
 20
154.8569426078377
 10
-182.1069456503948
 20
250.4483714419194
 10
-147.3460669418766
 20
47.92716401940341
 10
-294.8396137180251
 20
-95.62897065910187
 10
-91.07090436010935
 20
-125.300119776726
 10
3.769207168602406e-013
 20
-309.8628808390288
 10
91.07090436010873
 20
-125.3001197767277
 10
294.8396137180304
 20
-95.62897065910707
 10
147.3460669418753
 20
47.92716401940471
 10
182.106945650389
 20
250.4483714419194
 10
-7.210343433428079e-013
 20
154.8569426078377
 10
-182.1069456503948
 20
250.4483714419194
 10
-147.3460669418766
 20
47.92716401940341
 10
-294.8396137180251
 20
-95.62897065910187
 10
-91.07090436010935
 20
-125.300119776726
  0
LWPOLYLINE
  5
93
100
AcDbEntity
  8
Layer_1
  6
CONTINUOUS
 62
    7
370
   -3
100
AcDbPolyline
 90
   20
 70
    1
 43
0
 10
-3.7921055184853e-013
 20
-314.3826327352467
 10
92.3992926986608
 20
-127.12778223726
 10
299.1402218009032
 20
-97.02384255271701
 10
149.4953022888605
 20
48.62623291823599
 10
184.7632170511253
 20
254.1014955207879
 10
7.564227022527348e-013
 20
157.1157388775165
 10
-184.7632170511191
 20
254.1014955207877
 10
-149.495302288859
 20
48.62623291823665
 10
-299.1402218009005
 20
-97.0238425527174
 10
-92.39929269866103
 20
-127.12778223726
 10
-3.7921055184853e-013
 20
-314.3826327352467
 10
92.3992926986608
 20
-127.12778223726
 10
299.1402218009032
 20
-97.02384255271701
 10
149.4953022888605
 20
48.62623291823599
 10
184.7632170511253
 20
254.1014955207879
 10
7.564227022527348e-013
 20
157.1157388775165
 10
-184.7632170511191
 20
254.1014955207877
 10
-149.495302288859
 20
48.62623291823665
 10
-299.1402218009005
 20
-97.0238425527174
 10
-92.39929269866103
 20
-127.12778223726
  0
LWPOLYLINE
  5
94
100
AcDbEntity
  8
Layer_1
  6
CONTINUOUS
 62
    7
370
   -3
100
AcDbPolyline
 90
   20
 70
    1
 43
0
 10
3.815003868368194e-013
 20
-318.9023846314645
 10
93.72768103721417
 20
-128.9554446977905
 10
303.440829883765
 20
-98.41871444632233
 10
151.6445376358441
 20
49.32530181706726
 10
187.4194884518557
 20
257.7546195996563
 10
7.34939886726238e-013
 20
159.3745351471953
 10
-187.4194884518494
 20
257.7546195996561
 10
-151.6445376358428
 20
49.32530181706932
 10
-303.4408298837733
 20
-98.41871444632726
 10
-93.7276810372131
 20
-128.9554446977923
 10
3.815003868368194e-013
 20
-318.9023846314645
 10
93.72768103721417
 20
-128.9554446977905
 10
303.440829883765
 20
-98.41871444632233
 10
151.6445376358441
 20
49.32530181706726
 10
187.4194884518557
 20
257.7546195996563
 10
7.34939886726238e-013
 20
159.3745351471953
 10
-187.4194884518494
 20
257.7546195996561
 10
-151.6445376358428
 20
49.32530181706932
 10
-303.4408298837733
 20
-98.41871444632726
 10
-93.7276810372131
 20
-128.9554446977923
  0
LWPOLYLINE
  5
95
100
AcDbEntity
  8
Layer_1
  6
CONTINUOUS
 62
    7
370
   -3
100
AcDbPolyline
 90
   20
 70
    1
 43
0
 10
3.116507052425277e-012
 20
-323.4221365276815
 10
95.0560693757663
 20
-130.7831071583244
 10
307.7414379666404
 20
-99.81358633993781
 10
153.7937729828264
 20
50.02437071590055
 10
190.0757598525798
 20
261.4077436785246
 10
-7.676359548014489e-013
 20
161.6333314168741
 10
-190.0757598525861
 20
261.4077436785247
 10
-153.7937729828278
 20
50.02437071589918
 10
-307.741437966635
 20
-99.81358633993247
 10
-95.05606937576539
 20
-130.7831071583229
 10
3.116507052425277e-012
 20
-323.4221365276815
 10
95.0560693757663
 20
-130.7831071583244
 10
307.7414379666404
 20
-99.81358633993781
 10
153.7937729828264
 20
50.02437071590055
 10
190.0757598525798
 20
261.4077436785246
 10
-7.676359548014489e-013
 20
161.6333314168741
 10
-190.0757598525861
 20
261.4077436785247
 10
-153.7937729828278
 20
50.02437071589918
 10
-307.741437966635
 20
-99.81358633993247
 10
-95.05606937576539
 20
-130.7831071583229
  0
LWPOLYLINE
  5
96
100
AcDbEntity
  8
Layer_1
  6
CONTINUOUS
 62
    7
370
   -3
100
AcDbPolyline
 90
   20
 70
    1
 43
0
 10
-3.153546868084334e-012
 20
-327.9418884239009
 10
96.38445771431792
 20
-132.6107696188552
 10
312.0420460495049
 20
-101.2084582335427
 10
155.9430083298101
 20
50.72343961473252
 10
192.7320312533099
 20
265.0608677573928
 10
-8.029965581357601e-013
 20
163.8921276865529
 10
-192.7320312533164
 20
265.0608677573931
 10
-155.9430083298115
 20
50.72343961473111
 10
-312.0420460495106
 20
-101.2084582335482
 10
-96.38445771431881
 20
-132.6107696188567
 10
-3.153546868084334e-012
 20
-327.9418884239009
 10
96.38445771431792
 20
-132.6107696188552
 10
312.0420460495049
 20
-101.2084582335427
 10
155.9430083298101
 20
50.72343961473252
 10
192.7320312533099
 20
265.0608677573928
 10
-8.029965581357601e-013
 20
163.8921276865529
 10
-192.7320312533164
 20
265.0608677573931
 10
-155.9430083298115
 20
50.72343961473111
 10
-312.0420460495106
 20
-101.2084582335482
 10
-96.38445771431881
 20
-132.6107696188567
  0
LWPOLYLINE
  5
97
100
AcDbEntity
  8
Layer_1
  6
CONTINUOUS
 62
    7
370
   -3
100
AcDbPolyline
 90
   20
 70
    1
 43
0
 10
3.224240319177341e-012
 20
-332.4616403201187
 10
97.71284605287114
 20
-134.438432079389
 10
316.3426541323806
 20
-102.6033301271584
 10
158.0922436767952
 20
51.42250851356307
 10
195.3883026540466
 20
268.7139918362615
 10
-2.675637489346627e-014
 20
166.1509239562313
 10
-195.3883026540398
 20
268.7139918362578
 10
-158.0922436767938
 20
51.42250851356443
 10
-316.3426541323805
 20
-102.6033301271583
 10
-97.71284605286934
 20
-134.4384320793892
 10
3.224240319177341e-012
 20
-332.4616403201187
 10
97.71284605287114
 20
-134.438432079389
 10
316.3426541323806
 20
-102.6033301271584
 10
158.0922436767952
 20
51.42250851356307
 10
195.3883026540466
 20
268.7139918362615
 10
-2.675637489346627e-014
 20
166.1509239562313
 10
-195.3883026540398
 20
268.7139918362578
 10
-158.0922436767938
 20
51.42250851356443
 10
-316.3426541323805
 20
-102.6033301271583
 10
-97.71284605286934
 20
-134.4384320793892
  0
LWPOLYLINE
  5
98
100
AcDbEntity
  8
Layer_1
  6
CONTINUOUS
 62
    7
370
   -3
100
AcDbPolyline
 90
   20
 70
    1
 43
0
 10
-3.122502256758253e-014
 20
-336.98139221633
 10
99.04123439142161
 20
-136.2660945399215
 10
320.6432622152534
 20
-103.9982020207681
 10
160.241479023779
 20
52.12157741239579
 10
198.044574054777
 20
272.3671159151299
 10
-3.652633751016765e-014
 20
168.4097202259101
 10
-198.04457405477
 20
272.3671159151261
 10
-160.2414790237775
 20
52.12157741239641
 10
-320.6432622152448
 20
-103.998202020763
 10
-99.04123439142253
 20
-136.2660945399197
 10
-3.122502256758253e-014
 20
-336.98139221633
 10
99.04123439142161
 20
-136.2660945399215
 10
320.6432622152534
 20
-103.9982020207681
 10
160.241479023779
 20
52.12157741239579
 10
198.044574054777
 20
272.3671159151299
 10
-3.652633751016765e-014
 20
168.4097202259101
 10
-198.04457405477
 20
272.3671159151261
 10
-160.2414790237775
 20
52.12157741239641
 10
-320.6432622152448
 20
-103.998202020763
 10
-99.04123439142253
 20
-136.2660945399197
  0
LWPOLYLINE
  5
99
100
AcDbEntity
  8
Layer_1
  6
CONTINUOUS
 62
    7
370
   -3
100
AcDbPolyline
 90
   20
 70
    1
 43
0
 10
-3.280445359798989e-012
 20
-341.5011441125543
 10
100.3696227299748
 20
-138.093757000452
 10
324.9438702981147
 20
-105.3930739143732
 10
162.3907143707612
 20
52.82064631122835
 10
200.7008454555003
 20
276.0202399939946
 10
1.593919440878722e-012
 20
170.6685164955898
 10
-200.7008454555086
 20
276.0202399940055
 10
-162.3907143707628
 20
52.82064631122768
 10
-324.9438702981235
 20
-105.3930739143785
 10
-100.3696227299758
 20
-138.0937570004535
 10
-3.280445359798989e-012
 20
-341.5011441125543
 10
100.3696227299748
 20
-138.093757000452
 10
324.9438702981147
 20
-105.3930739143732
 10
162.3907143707612
 20
52.82064631122835
 10
200.7008454555003
 20
276.0202399939946
 10
1.593919440878722e-012
 20
170.6685164955898
 10
-200.7008454555086
 20
276.0202399940055
 10
-162.3907143707628
 20
52.82064631122768
 10
-324.9438702981235
 20
-105.3930739143785
 10
-100.3696227299758
 20
-138.0937570004535
  0
LWPOLYLINE
  5
9A
100
AcDbEntity
  8
Layer_1
  6
CONTINUOUS
 62
    7
370
   -3
100
AcDbPolyline
 90
   20
 70
    1
 43
0
 10
2.518318886757243e-012
 20
-346.0208960087705
 10
101.6980110685276
 20
-139.9214194609859
 10
329.2444783809906
 20
-106.7879458079891
 10
164.5399497177449
 20
53.5197152100603
 10
203.3571168562306
 20
279.6733640728629
 10
1.668554183709148e-012
 20
172.9273127652685
 10
-203.3571168562389
 20
279.673364072874
 10
-164.5399497177464
 20
53.51971521005889
 10
-329.2444783809846
 20
-106.7879458079833
 10
-101.6980110685271
 20
-139.9214194609842
 10
2.518318886757243e-012
 20
-346.0208960087705
 10
101.6980110685276
 20
-139.9214194609859
 10
329.2444783809906
 20
-106.7879458079891
 10
164.5399497177449
 20
53.5197152100603
 10
203.3571168562306
 20
279.6733640728629
 10
1.668554183709148e-012
 20
172.9273127652685
 10
-203.3571168562389
 20
279.673364072874
 10
-164.5399497177464
 20
53.51971521005889
 10
-329.2444783809846
 20
-106.7879458079833
 10
-101.6980110685271
 20
-139.9214194609842
  0
LWPOLYLINE
  5
9B
100
AcDbEntity
  8
Layer_1
  6
CONTINUOUS
 62
    7
370
   -3
100
AcDbPolyline
 90
   20
 70
    1
 43
0
 10
-3.355329902809956e-012
 20
-350.54064790499
 10
103.0263994070785
 20
-141.7490819215184
 10
333.5450864638606
 20
-108.1828177015994
 10
166.6891850647286
 20
54.21878410889228
 10
206.0133882569621
 20
283.3264881517386
 10
-1.689037798513482e-012
 20
175.1861090349473
 10
-206.0133882569607
 20
283.3264881517311
 10
-166.6891850647286
 20
54.21878410889227
 10
-333.5450864638545
 20
-108.1828177015935
 10
-103.0263994070813
 20
-141.7490819215162
 10
-3.355329902809956e-012
 20
-350.54064790499
 10
103.0263994070785
 20
-141.7490819215184
 10
333.5450864638606
 20
-108.1828177015994
 10
166.6891850647286
 20
54.21878410889228
 10
206.0133882569621
 20
283.3264881517386
 10
-1.689037798513482e-012
 20
175.1861090349473
 10
-206.0133882569607
 20
283.3264881517311
 10
-166.6891850647286
 20
54.21878410889227
 10
-333.5450864638545
 20
-108.1828177015935
 10
-103.0263994070813
 20
-141.7490819215162
  0
LWPOLYLINE
  5
9C
100
AcDbEntity
  8
Layer_1
  6
CONTINUOUS
 62
    7
370
   -3
100
AcDbPolyline
 90
   20
 70
    1
 43
0
 10
-2.593564252251213e-012
 20
-355.0603998012061
 10
104.3547877456317
 20
-143.5767443820487
 10
337.8456945467245
 20
-109.5776895952037
 10
168.8384204117139
 20
54.91785300772272
 10
208.6696596576999
 20
286.979612230611
 10
-1.712241459728148e-012
 20
177.4449053046262
 10
-208.6696596576911
 20
286.9796122305996
 10
-168.8384204117125
 20
54.91785300772499
 10
-337.8456945467336
 20
-109.5776895952091
 10
-104.3547877456323
 20
-143.5767443820504
 10
-2.593564252251213e-012
 20
-355.0603998012061
 10
104.3547877456317
 20
-143.5767443820487
 10
337.8456945467245
 20
-109.5776895952037
 10
168.8384204117139
 20
54.91785300772272
 10
208.6696596576999
 20
286.979612230611
 10
-1.712241459728148e-012
 20
177.4449053046262
 10
-208.6696596576911
 20
286.9796122305996
 10
-168.8384204117125
 20
54.91785300772499
 10
-337.8456945467336
 20
-109.5776895952091
 10
-104.3547877456323
 20
-143.5767443820504
  0
LWPOLYLINE
  5
9D
100
AcDbEntity
  8
Layer_1
  6
CONTINUOUS
 62
    7
370
   -3
100
AcDbPolyline
 90
   20
 70
    1
 43
0
 10
4.289429922366139e-012
 20
-359.580151697424
 10
105.683176084185
 20
-145.4044068425827
 10
342.1463026296037
 20
-110.9725614888195
 10
170.9876557586977
 20
55.61692190655548
 10
211.3259310584288
 20
290.6327363094719
 10
-7.197020757132577e-014
 20
179.7037015743041
 10
-211.3259310584214
 20
290.632736309468
 10
-170.987655758696
 20
55.61692190655615
 10
-342.1463026295944
 20
-110.9725614888139
 10
-105.6831760841836
 20
-145.404406842581
 10
4.289429922366139e-012
 20
-359.580151697424
 10
105.683176084185
 20
-145.4044068425827
 10
342.1463026296037
 20
-110.9725614888195
 10
170.9876557586977
 20
55.61692190655548
 10
211.3259310584288
 20
290.6327363094719
 10
-7.197020757132577e-014
 20
179.7037015743041
 10
-211.3259310584214
 20
290.632736309468
 10
-170.987655758696
 20
55.61692190655615
 10
-342.1463026295944
 20
-110.9725614888139
 10
-105.6831760841836
 20
-145.404406842581
  0
LWPOLYLINE
  5
9E
100
AcDbEntity
  8
Layer_1
  6
CONTINUOUS
 62
    7
370
   -3
100
AcDbPolyline
 90
   20
 70
    1
 43
0
 10
-4.345288018292592e-012
 20
-364.0999035936417
 10
107.0115644227348
 20
-147.2320693031153
 10
346.4469107124706
 20
-112.3674333824302
 10
173.1368911056797
 20
56.31599080538815
 10
213.9822024591514
 20
294.2858603883362
 10
4.470035452897037e-013
 20
181.9624978439831
 10
-213.9822024591597
 20
294.2858603883423
 10
-173.1368911056813
 20
56.3159908053866
 10
-346.4469107124706
 20
-112.3674333824301
 10
-107.0115644227373
 20
-147.232069303115
 10
-4.345288018292592e-012
 20
-364.0999035936417
 10
107.0115644227348
 20
-147.2320693031153
 10
346.4469107124706
 20
-112.3674333824302
 10
173.1368911056797
 20
56.31599080538815
 10
213.9822024591514
 20
294.2858603883362
 10
4.470035452897037e-013
 20
181.9624978439831
 10
-213.9822024591597
 20
294.2858603883423
 10
-173.1368911056813
 20
56.3159908053866
 10
-346.4469107124706
 20
-112.3674333824301
 10
-107.0115644227373
 20
-147.232069303115
  0
LWPOLYLINE
  5
9F
100
AcDbEntity
  8
Layer_1
  6
CONTINUOUS
 62
    7
370
   -3
100
AcDbPolyline
 90
   20
 70
    1
 43
0
 10
-4.401520814489857e-012
 20
-368.6196554898596
 10
108.3399527612881
 20
-149.0597317636456
 10
350.7475187953343
 20
-113.7623052760342
 10
175.2861264526634
 20
57.01505970422013
 10
216.6384738598817
 20
297.9389844672045
 10
-3.469446951953614e-014
 20
184.2212941136617
 10
-216.6384738598896
 20
297.9389844672087
 10
-175.2861264526651
 20
57.01505970421932
 10
-350.7475187953438
 20
-113.7623052760399
 10
-108.3399527612896
 20
-149.0597317636472
 10
-4.401520814489857e-012
 20
-368.6196554898596
 10
108.3399527612881
 20
-149.0597317636456
 10
350.7475187953343
 20
-113.7623052760342
 10
175.2861264526634
 20
57.01505970422013
 10
216.6384738598817
 20
297.9389844672045
 10
-3.469446951953614e-014
 20
184.2212941136617
 10
-216.6384738598896
 20
297.9389844672087
 10
-175.2861264526651
 20
57.01505970421932
 10
-350.7475187953438
 20
-113.7623052760399
 10
-108.3399527612896
 20
-149.0597317636472
  0
LWPOLYLINE
  5
A0
100
AcDbEntity
  8
Layer_1
  6
CONTINUOUS
 62
    7
370
   -3
100
AcDbPolyline
 90
   20
 70
    1
 43
0
 10
3.587866115317695e-012
 20
-373.1394073860791
 10
109.6683410998419
 20
-150.8873942241795
 10
355.0481268782107
 20
-115.1571771696507
 10
177.4353617996487
 20
57.71412860305048
 10
219.29474526062
 20
301.5921085460771
 10
-4.179989687713714e-014
 20
186.4800903833405
 10
-219.2947452606122
 20
301.592108546073
 10
-177.4353617996472
 20
57.71412860305201
 10
-355.0481268782042
 20
-115.1571771696444
 10
-109.6683410998409
 20
-150.8873942241778
 10
3.587866115317695e-012
 20
-373.1394073860791
 10
109.6683410998419
 20
-150.8873942241795
 10
355.0481268782107
 20
-115.1571771696507
 10
177.4353617996487
 20
57.71412860305048
 10
219.29474526062
 20
301.5921085460771
 10
-4.179989687713714e-014
 20
186.4800903833405
 10
-219.2947452606122
 20
301.592108546073
 10
-177.4353617996472
 20
57.71412860305201
 10
-355.0481268782042
 20
-115.1571771696444
 10
-109.6683410998409
 20
-150.8873942241778
  0
LWPOLYLINE
  5
A1
100
AcDbEntity
  8
Layer_1
  6
CONTINUOUS
 62
    7
370
   -3
100
AcDbPolyline
 90
   20
 70
    1
 43
0
 10
-3.636826950703664e-012
 20
-377.6591592822969
 10
110.9967294383932
 20
-152.71505668471
 10
359.3487349610741
 20
-116.5520490632546
 10
179.5845971466324
 20
58.41319750188241
 10
221.9510166613504
 20
305.2452326249455
 10
-4.887756865912252e-014
 20
188.7388866530193
 10
-221.9510166613422
 20
305.2452326249412
 10
-179.5845971466308
 20
58.41319750188399
 10
-359.3487349610806
 20
-116.5520490632609
 10
-110.9967294383943
 20
-152.7150566847118
 10
-3.636826950703664e-012
 20
-377.6591592822969
 10
110.9967294383932
 20
-152.71505668471
 10
359.3487349610741
 20
-116.5520490632546
 10
179.5845971466324
 20
58.41319750188241
 10
221.9510166613504
 20
305.2452326249455
 10
-4.887756865912252e-014
 20
188.7388866530193
 10
-221.9510166613422
 20
305.2452326249412
 10
-179.5845971466308
 20
58.41319750188399
 10
-359.3487349610806
 20
-116.5520490632609
 10
-110.9967294383943
 20
-152.7150566847118
  0
LWPOLYLINE
  5
A2
100
AcDbEntity
  8
Layer_1
  6
CONTINUOUS
 62
    7
370
   -3
100
AcDbPolyline
 90
   20
 70
    1
 43
0
 10
2.661759701538813e-014
 20
-382.1789111785185
 10
112.3251177769471
 20
-154.5427191452421
 10
363.6493430439474
 20
-117.9469209568643
 10
181.7338324936147
 20
59.11226640071675
 10
224.6072880620727
 20
308.8983567038097
 10
1.835198659705384e-012
 20
190.9976829226991
 10
-224.607288062082
 20
308.8983567038219
 10
-181.7338324936161
 20
59.11226640071437
 10
-363.6493430439506
 20
-117.9469209568711
 10
-112.3251177769461
 20
-154.5427191452441
 10
2.661759701538813e-014
 20
-382.1789111785185
 10
112.3251177769471
 20
-154.5427191452421
 10
363.6493430439474
 20
-117.9469209568643
 10
181.7338324936147
 20
59.11226640071675
 10
224.6072880620727
 20
308.8983567038097
 10
1.835198659705384e-012
 20
190.9976829226991
 10
-224.607288062082
 20
308.8983567038219
 10
-181.7338324936161
 20
59.11226640071437
 10
-363.6493430439506
 20
-117.9469209568711
 10
-112.3251177769461
 20
-154.5427191452441
  0
LWPOLYLINE
  5
A3
100
AcDbEntity
  8
Layer_1
  6
CONTINUOUS
 62
    7
370
   -3
100
AcDbPolyline
 90
   20
 70
    1
 43
0
 10
3.730293851589295e-012
 20
-386.6986630747288
 10
113.6535061154984
 20
-156.3703816057765
 10
367.9499511268207
 20
-119.3417928504814
 10
183.8830678405982
 20
59.81133529954788
 10
227.2635594628044
 20
312.5514807826862
 10
-1.855710030085334e-012
 20
193.2564791923779
 10
-227.2635594628109
 20
312.5514807826822
 10
-183.8830678405999
 20
59.81133529954631
 10
-367.949951126814
 20
-119.3417928504749
 10
-113.6535061154973
 20
-156.3703816057747
 10
3.730293851589295e-012
 20
-386.6986630747288
 10
113.6535061154984
 20
-156.3703816057765
 10
367.9499511268207
 20
-119.3417928504814
 10
183.8830678405982
 20
59.81133529954788
 10
227.2635594628044
 20
312.5514807826862
 10
-1.855710030085334e-012
 20
193.2564791923779
 10
-227.2635594628109
 20
312.5514807826822
 10
-183.8830678405999
 20
59.81133529954631
 10
-367.949951126814
 20
-119.3417928504749
 10
-113.6535061154973
 20
-156.3703816057747
  0
LWPOLYLINE
  5
A4
100
AcDbEntity
  8
Layer_1
  6
CONTINUOUS
 62
    7
370
   -3
100
AcDbPolyline
 90
   20
 70
    1
 43
0
 10
-3.763739320206128e-012
 20
-391.2184149709503
 10
114.9818944540501
 20
-158.1980440663068
 10
372.2505592096839
 20
-120.7366647440851
 10
186.0323031875836
 20
60.51040419837822
 10
229.9198308635413
 20
316.2046048615506
 10
-1.601496713021788e-014
 20
195.5152754620557
 10
-229.9198308635331
 20
316.2046048615463
 10
-186.0323031875819
 20
60.51040419837986
 10
-372.2505592096907
 20
-120.7366647440916
 10
-114.9818944540512
 20
-158.1980440663087
 10
-3.763739320206128e-012
 20
-391.2184149709503
 10
114.9818944540501
 20
-158.1980440663068
 10
372.2505592096839
 20
-120.7366647440851
 10
186.0323031875836
 20
60.51040419837822
 10
229.9198308635413
 20
316.2046048615506
 10
-1.601496713021788e-014
 20
195.5152754620557
 10
-229.9198308635331
 20
316.2046048615463
 10
-186.0323031875819
 20
60.51040419837986
 10
-372.2505592096907
 20
-120.7366647440916
 10
-114.9818944540512
 20
-158.1980440663087
  0
LWPOLYLINE
  5
A5
100
AcDbEntity
  8
Layer_1
  6
CONTINUOUS
 62
    7
370
   -3
100
AcDbPolyline
 90
   20
 70
    1
 43
0
 10
-2.470246229790973e-015
 20
-395.7381668671759
 10
116.3102827926035
 20
-160.0257065268409
 10
376.5511672925607
 20
-122.1315366377019
 10
188.1815385345673
 20
61.20947309721019
 10
232.5761022642716
 20
319.8577289404191
 10
-2.578492974691926e-014
 20
197.7740717317345
 10
-232.5761022642635
 20
319.8577289404147
 10
-188.1815385345656
 20
61.20947309721178
 10
-376.5511672925538
 20
-122.1315366376952
 10
-116.3102827926046
 20
-160.0257065268388
 10
-2.470246229790973e-015
 20
-395.7381668671759
 10
116.3102827926035
 20
-160.0257065268409
 10
376.5511672925607
 20
-122.1315366377019
 10
188.1815385345673
 20
61.20947309721019
 10
232.5761022642716
 20
319.8577289404191
 10
-2.578492974691926e-014
 20
197.7740717317345
 10
-232.5761022642635
 20
319.8577289404147
 10
-188.1815385345656
 20
61.20947309721178
 10
-376.5511672925538
 20
-122.1315366376952
 10
-116.3102827926046
 20
-160.0257065268388
  0
LWPOLYLINE
  5
A6
100
AcDbEntity
  8
Layer_1
  6
CONTINUOUS
 62
    7
370
   -3
100
AcDbPolyline
 90
   20
 70
    1
 43
0
 10
-9.296868830332983e-013
 20
-400.2579187633763
 10
117.6386711311531
 20
-161.8533689873736
 10
380.8517753754341
 20
-123.5264085313116
 10
190.3307738815494
 20
61.90854199604463
 10
235.2323736649936
 20
323.5108530192829
 10
-3.289035710452026e-014
 20
200.0328680014133
 10
-235.2323736650022
 20
323.5108530192875
 10
-190.3307738815511
 20
61.90854199604205
 10
-380.8517753754238
 20
-123.5264085313054
 10
-117.6386711311547
 20
-161.8533689873714
 10
-9.296868830332983e-013
 20
-400.2579187633763
 10
117.6386711311531
 20
-161.8533689873736
 10
380.8517753754341
 20
-123.5264085313116
 10
190.3307738815494
 20
61.90854199604463
 10
235.2323736649936
 20
323.5108530192829
 10
-3.289035710452026e-014
 20
200.0328680014133
 10
-235.2323736650022
 20
323.5108530192875
 10
-190.3307738815511
 20
61.90854199604205
 10
-380.8517753754238
 20
-123.5264085313054
 10
-117.6386711311547
 20
-161.8533689873714
  0
LWPOLYLINE
  5
A7
100
AcDbEntity
  8
Layer_1
  6
CONTINUOUS
 62
    7
370
   -3
100
AcDbPolyline
 90
   20
 70
    1
 43
0
 10
-4.849523560501723e-012
 20
-404.7776706596019
 10
118.9670594697065
 20
-163.6810314479037
 10
385.1523834582937
 20
-124.9212804249156
 10
192.480009228533
 20
62.6076108948757
 10
237.888645065724
 20
327.1639770981515
 10
-4.266031972122164e-014
 20
202.2916642710921
 10
-237.8886450657324
 20
327.1639770981558
 10
-192.4800092285348
 20
62.60761089487399
 10
-385.1523834583007
 20
-124.9212804249224
 10
-118.9670594697081
 20
-163.6810314479055
 10
-4.849523560501723e-012
 20
-404.7776706596019
 10
118.9670594697065
 20
-163.6810314479037
 10
385.1523834582937
 20
-124.9212804249156
 10
192.480009228533
 20
62.6076108948757
 10
237.888645065724
 20
327.1639770981515
 10
-4.266031972122164e-014
 20
202.2916642710921
 10
-237.8886450657324
 20
327.1639770981558
 10
-192.4800092285348
 20
62.60761089487399
 10
-385.1523834583007
 20
-124.9212804249224
 10
-118.9670594697081
 20
-163.6810314479055
  0
LWPOLYLINE
  5
A8
100
AcDbEntity
  8
Layer_1
  6
CONTINUOUS
 62
    7
370
   -3
100
AcDbPolyline
 90
   20
 70
    1
 43
0
 10
4.905756356698987e-012
 20
-409.2974225558197
 10
120.2954478082604
 20
-165.5086939084378
 10
389.4529915411707
 20
-126.3161523185326
 10
194.6292445755167
 20
63.30667979370765
 10
240.5449164664543
 20
330.8171011770198
 10
7.077671781985373e-015
 20
204.5504605407709
 10
-240.5449164664541
 20
330.8171011770197
 10
-194.6292445755167
 20
63.30667979370764
 10
-389.4529915411636
 20
-126.3161523185258
 10
-120.2954478082588
 20
-165.508693908436
 10
4.905756356698987e-012
 20
-409.2974225558197
 10
120.2954478082604
 20
-165.5086939084378
 10
389.4529915411707
 20
-126.3161523185326
 10
194.6292445755167
 20
63.30667979370765
 10
240.5449164664543
 20
330.8171011770198
 10
7.077671781985373e-015
 20
204.5504605407709
 10
-240.5449164664541
 20
330.8171011770197
 10
-194.6292445755167
 20
63.30667979370764
 10
-389.4529915411636
 20
-126.3161523185258
 10
-120.2954478082588
 20
-165.508693908436
  0
LWPOLYLINE
  5
A9
100
AcDbEntity
  8
Layer_1
  6
CONTINUOUS
 62
    7
370
   -3
100
AcDbPolyline
 90
   20
 70
    1
 43
0
 10
9.43023437116608e-013
 20
-413.8171744520295
 10
121.6238361468105
 20
-167.3363563689704
 10
393.7535996240407
 20
-127.7110242121429
 10
196.7784799225022
 20
64.00574869253786
 10
243.2011878671933
 20
334.4702252558927
 10
2.518180108879164e-012
 20
206.809256810451
 10
-243.2011878671863
 20
334.470225255899
 10
-196.7784799225004
 20
64.00574869253963
 10
-393.7535996240407
 20
-127.7110242121429
 10
-121.62383614681
 20
-167.3363563689705
 10
9.43023437116608e-013
 20
-413.8171744520295
 10
121.6238361468105
 20
-167.3363563689704
 10
393.7535996240407
 20
-127.7110242121429
 10
196.7784799225022
 20
64.00574869253786
 10
243.2011878671933
 20
334.4702252558927
 10
2.518180108879164e-012
 20
206.809256810451
 10
-243.2011878671863
 20
334.470225255899
 10
-196.7784799225004
 20
64.00574869253963
 10
-393.7535996240407
 20
-127.7110242121429
 10
-121.62383614681
 20
-167.3363563689705
  0
LWPOLYLINE
  5
AA
100
AcDbEntity
  8
Layer_1
  6
CONTINUOUS
 62
    7
370
   -3
100
AcDbPolyline
 90
   20
 70
    1
 43
0
 10
-4.031788791714064e-012
 20
-418.3369263482533
 10
122.9522244853634
 20
-169.1640188295005
 10
398.0542077069
 20
-129.1058961057466
 10
198.9277152694858
 20
64.70481759136891
 10
245.8574592679252
 20
338.12334933477
 10
-5.834221994405198e-014
 20
209.0680530801306
 10
-245.8574592679161
 20
338.1233493347651
 10
-198.9277152694841
 20
64.70481759137161
 10
-398.0542077069107
 20
-129.1058961057531
 10
-122.9522244853645
 20
-169.1640188295024
 10
-4.031788791714064e-012
 20
-418.3369263482533
 10
122.9522244853634
 20
-169.1640188295005
 10
398.0542077069
 20
-129.1058961057466
 10
198.9277152694858
 20
64.70481759136891
 10
245.8574592679252
 20
338.12334933477
 10
-5.834221994405198e-014
 20
209.0680530801306
 10
-245.8574592679161
 20
338.1233493347651
 10
-198.9277152694841
 20
64.70481759137161
 10
-398.0542077069107
 20
-129.1058961057531
 10
-122.9522244853645
 20
-169.1640188295024
  0
LWPOLYLINE
  5
AB
100
AcDbEntity
  8
Layer_1
  6
CONTINUOUS
 62
    7
370
   -3
100
AcDbPolyline
 90
   20
 70
    1
 43
0
 10
3.086753075365323e-012
 20
-422.8566782444731
 10
124.2806128239168
 20
-170.9916812900347
 10
402.3548157897916
 20
-130.5007679993618
 10
201.0769506164683
 20
65.4038864902062
 10
248.5137306686466
 20
341.7764734136338
 10
-1.965511087220762e-012
 20
211.3268493498084
 10
-248.513730668654
 20
341.7764734136295
 10
-201.0769506164695
 20
65.4038864902008
 10
-402.3548157897699
 20
-130.5007679993568
 10
-124.2806128239162
 20
-170.9916812900327
 10
3.086753075365323e-012
 20
-422.8566782444731
 10
124.2806128239168
 20
-170.9916812900347
 10
402.3548157897916
 20
-130.5007679993618
 10
201.0769506164683
 20
65.4038864902062
 10
248.5137306686466
 20
341.7764734136338
 10
-1.965511087220762e-012
 20
211.3268493498084
 10
-248.513730668654
 20
341.7764734136295
 10
-201.0769506164695
 20
65.4038864902008
 10
-402.3548157897699
 20
-130.5007679993568
 10
-124.2806128239162
 20
-170.9916812900327
  0
LWPOLYLINE
  5
AC
100
AcDbEntity
  8
Layer_1
  6
CONTINUOUS
 62
    7
370
   -3
100
AcDbPolyline
 90
   20
 70
    1
 43
0
 10
3.080868893334809e-015
 20
-427.3764301406846
 10
125.6090011624674
 20
-172.8193437505673
 10
406.6554238726544
 20
-131.8956398929731
 10
203.2261859634517
 20
66.10295538903635
 10
251.1700020693754
 20
345.4295974924932
 10
-2.398081733190338e-014
 20
213.5856456194861
 10
-251.1700020693754
 20
345.4295974924932
 10
-203.2261859634514
 20
66.10295538903453
 10
-406.6554238726471
 20
-131.8956398929741
 10
-125.6090011624674
 20
-172.8193437505672
 10
3.080868893334809e-015
 20
-427.3764301406846
 10
125.6090011624674
 20
-172.8193437505673
 10
406.6554238726544
 20
-131.8956398929731
 10
203.2261859634517
 20
66.10295538903635
 10
251.1700020693754
 20
345.4295974924932
 10
-2.398081733190338e-014
 20
213.5856456194861
 10
-251.1700020693754
 20
345.4295974924932
 10
-203.2261859634514
 20
66.10295538903453
 10
-406.6554238726471
 20
-131.8956398929741
 10
-125.6090011624674
 20
-172.8193437505672
  0
LWPOLYLINE
  5
AD
100
AcDbEntity
  8
Layer_1
  6
CONTINUOUS
 62
    7
370
   -3
100
AcDbPolyline
 90
   20
 70
    1
 43
0
 10
-4.143338450113276e-012
 20
-431.8961820369108
 10
126.9373895010208
 20
-174.6470062110972
 10
410.9560319555097
 20
-133.2905117865772
 10
205.3754213104369
 20
66.8020242878647
 10
253.8262734701147
 20
349.0827215713663
 10
-3.375077994860476e-014
 20
215.8444418891649
 10
-253.8262734701056
 20
349.0827215713615
 10
-205.3754213104354
 20
66.80202428786829
 10
-410.9560319555243
 20
-133.2905117865834
 10
-126.937389501022
 20
-174.6470062110992
 10
-4.143338450113276e-012
 20
-431.8961820369108
 10
126.9373895010208
 20
-174.6470062110972
 10
410.9560319555097
 20
-133.2905117865772
 10
205.3754213104369
 20
66.8020242878647
 10
253.8262734701147
 20
349.0827215713663
 10
-3.375077994860476e-014
 20
215.8444418891649
 10
-253.8262734701056
 20
349.0827215713615
 10
-205.3754213104354
 20
66.80202428786829
 10
-410.9560319555243
 20
-133.2905117865834
 10
-126.937389501022
 20
-174.6470062110992
  0
LWPOLYLINE
  5
AE
100
AcDbEntity
  8
Layer_1
  6
CONTINUOUS
 62
    7
370
   -3
100
AcDbPolyline
 90
   20
 70
    1
 43
0
 10
4.232267314385751e-012
 20
-436.4159339331285
 10
128.2657778395743
 20
-176.4746686716315
 10
415.2566400383871
 20
-134.6853836801947
 10
207.5246566574206
 20
67.50109318669659
 10
256.4825448708451
 20
352.7358456502347
 10
-4.085620730620576e-014
 20
218.1032381588437
 10
-256.4825448708359
 20
352.7358456502299
 10
-207.5246566574194
 20
67.50109318670214
 10
-415.2566400383944
 20
-134.6853836801852
 10
-128.2657778395731
 20
-176.4746686716295
 10
4.232267314385751e-012
 20
-436.4159339331285
 10
128.2657778395743
 20
-176.4746686716315
 10
415.2566400383871
 20
-134.6853836801947
 10
207.5246566574206
 20
67.50109318669659
 10
256.4825448708451
 20
352.7358456502347
 10
-4.085620730620576e-014
 20
218.1032381588437
 10
-256.4825448708359
 20
352.7358456502299
 10
-207.5246566574194
 20
67.50109318670214
 10
-415.2566400383944
 20
-134.6853836801852
 10
-128.2657778395731
 20
-176.4746686716295
  0
LWPOLYLINE
  5
AF
100
AcDbEntity
  8
Layer_1
  6
CONTINUOUS
 62
    7
370
   -3
100
AcDbPolyline
 90
   20
 70
    1
 43
0
 10
9.076073226310655e-015
 20
-440.9356858293335
 10
129.5941661781248
 20
-178.3023311321618
 10
419.5572481212568
 20
-136.0802555737964
 10
209.6738920044027
 20
68.20016208553233
 10
259.1388162715662
 20
356.3889697291004
 10
-5.8938964819788e-013
 20
220.3620344285228
 10
-259.1388162715754
 20
356.3889697291031
 10
-209.6738920044047
 20
68.20016208553041
 10
-419.5572481212644
 20
-136.0802555738038
 10
-129.5941661781236
 20
-178.3023311321642
 10
9.076073226310655e-015
 20
-440.9356858293335
 10
129.5941661781248
 20
-178.3023311321618
 10
419.5572481212568
 20
-136.0802555737964
 10
209.6738920044027
 20
68.20016208553233
 10
259.1388162715662
 20
356.3889697291004
 10
-5.8938964819788e-013
 20
220.3620344285228
 10
-259.1388162715754
 20
356.3889697291031
 10
-209.6738920044047
 20
68.20016208553041
 10
-419.5572481212644
 20
-136.0802555738038
 10
-129.5941661781236
 20
-178.3023311321642
  0
LWPOLYLINE
  5
B0
100
AcDbEntity
  8
Layer_1
  6
CONTINUOUS
 62
    7
370
   -3
100
AcDbPolyline
 90
   20
 70
    1
 43
0
 10
1.034602958860376e-012
 20
-445.4554377255708
 10
130.9225545166802
 20
-180.1299935926937
 10
423.8578562041345
 20
-137.4751274674055
 10
211.8231273513867
 20
68.89923098436616
 10
261.795087672296
 20
360.0420938079664
 10
-3.58046925441613e-015
 20
222.6208306982013
 10
-261.7950876723058
 20
360.0420938079715
 10
-211.8231273513881
 20
68.89923098436046
 10
-423.857856204127
 20
-137.4751274674151
 10
-130.9225545166784
 20
-180.1299935926961
 10
1.034602958860376e-012
 20
-445.4554377255708
 10
130.9225545166802
 20
-180.1299935926937
 10
423.8578562041345
 20
-137.4751274674055
 10
211.8231273513867
 20
68.89923098436616
 10
261.795087672296
 20
360.0420938079664
 10
-3.58046925441613e-015
 20
222.6208306982013
 10
-261.7950876723058
 20
360.0420938079715
 10
-211.8231273513881
 20
68.89923098436046
 10
-423.857856204127
 20
-137.4751274674151
 10
-130.9225545166784
 20
-180.1299935926961
  0
LWPOLYLINE
  5
B1
100
AcDbEntity
  8
Layer_1
  6
CONTINUOUS
 62
    7
370
   -3
100
AcDbPolyline
 90
   20
 70
    1
 43
0
 10
-2.373101715136272e-015
 20
-449.9751896217733
 10
132.2509428552288
 20
-181.9576560532287
 10
428.1584642870046
 20
-138.8699993610243
 10
213.9723626983721
 20
69.59829988319437
 10
264.4513590730358
 20
363.6952178868397
 10
-7.965850201685498e-015
 20
224.8796269678801
 10
-264.4513590730267
 20
363.6952178868349
 10
-213.9723626983699
 20
69.59829988319427
 10
-428.1584642869893
 20
-138.8699993610179
 10
-132.25094285523
 20
-181.9576560532263
 10
-2.373101715136272e-015
 20
-449.9751896217733
 10
132.2509428552288
 20
-181.9576560532287
 10
428.1584642870046
 20
-138.8699993610243
 10
213.9723626983721
 20
69.59829988319437
 10
264.4513590730358
 20
363.6952178868397
 10
-7.965850201685498e-015
 20
224.8796269678801
 10
-264.4513590730267
 20
363.6952178868349
 10
-213.9723626983699
 20
69.59829988319427
 10
-428.1584642869893
 20
-138.8699993610179
 10
-132.25094285523
 20
-181.9576560532263
  0
ENDSEC
  0
SECTION
  2
OBJECTS
  0
DICTIONARY
  5
C
330
0
100
AcDbDictionary
281
    1
  3
ACAD_GROUP
350
D
  0
DICTIONARY
  5
D
330
C
100
AcDbDictionary
281
    1
  0
ENDSEC
  0
EOF
