999
dxfrw 0.6.3
  0
SECTION
  2
HEADER
  9
$ACADVER
  1
AC1021
  9
$DWGCODEPAGE
  3
ANSI_1252
  9
$INSBASE
 10
0
 20
0
 30
0
  9
$EXTMIN
 10
-202
 20
-202
 30
0
  9
$EXTMAX
 10
202
 20
202
 30
0
  9
$LIMMIN
 10
0
 20
0
  9
$LIMMAX
 10
420
 20
297
  9
$ORTHOMODE
 70
    0
  9
$REGENMODE
 70
    1
  9
$FILLMODE
 70
    1
  9
$QTEXTMODE
 70
    0
  9
$MIRRTEXT
 70
    0
  9
$LTSCALE
 40
1
  9
$ATTMODE
 70
    0
  9
$TEXTSIZE
 40
2.5
  9
$TRACEWID
 40
15.68
  9
$TEXTSTYLE
  7
STANDARD
  9
$CLAYER
  8
0
  9
$CELTYPE
  6
BYLAYER
  9
$CECOLOR
 62
  256
  9
$CELTSCALE
 40
1
  9
$DISPSILH
 70
    0
  9
$DIMSCALE
 40
2.5
  9
$DIMASZ
 40
2.5
  9
$DIMEXO
 40
0.625
  9
$DIMDLI
 40
3.75
  9
$DIMRND
 40
0
  9
$DIMDLE
 40
0
  9
$DIMEXE
 40
1.25
  9
$DIMTP
 40
0
  9
$DIMTM
 40
0
  9
$DIMTXT
 40
2.5
  9
$DIMCEN
 40
2.5
  9
$DIMTSZ
 40
0
  9
$DIMTOL
 70
    0
  9
$DIMLIM
 70
    0
  9
$DIMTIH
 70
    0
  9
$DIMTOH
 70
    0
  9
$DIMSE1
 70
    0
  9
$DIMSE2
 70
    0
  9
$DIMTAD
 70
    1
  9
$DIMZIN
 70
    8
  9
$DIMBLK
  1

  9
$DIMASO
 70
    1
  9
$DIMSHO
 70
    1
  9
$DIMPOST
  1

  9
$DIMAPOST
  1

  9
$DIMALT
 70
    0
  9
$DIMALTD
 70
    3
  9
$DIMALTF
 40
0.03937
  9
$DIMLFAC
 40
1
  9
$DIMTOFL
 70
    1
  9
$DIMTVP
 40
0
  9
$DIMTIX
 70
    0
  9
$DIMSOXD
 70
    0
  9
$DIMSAH
 70
    0
  9
$DIMBLK1
  1

  9
$DIMBLK2
  1

  9
$DIMSTYLE
  2
STANDARD
  9
$DIMCLRD
 70
    0
  9
$DIMCLRE
 70
    0
  9
$DIMCLRT
 70
    0
  9
$DIMTFAC
 40
1
  9
$DIMGAP
 40
0.625
  9
$DIMJUST
 70
    0
  9
$DIMSD1
 70
    0
  9
$DIMSD2
 70
    0
  9
$DIMTOLJ
 70
    0
  9
$DIMTZIN
 70
    8
  9
$DIMALTZ
 70
    0
  9
$DIMALTTZ
 70
    0
  9
$DIMUPT
 70
    0
  9
$DIMDEC
 70
    2
  9
$DIMTDEC
 70
    2
  9
$DIMALTU
 70
    2
  9
$DIMALTTD
 70
    3
  9
$DIMTXSTY
  7
STANDARD
  9
$DIMAUNIT
 70
    0
  9
$DIMADEC
 70
    0
  9
$DIMALTRND
 40
0
  9
$DIMAZIN
 70
    0
  9
$DIMDSEP
 70
   44
  9
$DIMATFIT
 70
    3
  9
$DIMFRAC
 70
    0
  9
$DIMLDRBLK
  1
STANDARD
  9
$DIMLUNIT
 70
    2
  9
$DIMLWD
 70
   -2
  9
$DIMLWE
 70
   -2
  9
$DIMTMOVE
 70
    0
  9
$DIMFXL
 40
1
  9
$DIMFXLON
 70
    0
  9
$DIMJOGANG
 40
0.7854
  9
$DIMTFILL
 70
    0
  9
$DIMTFILLCLR
 70
    0
  9
$DIMARCSYM
 70
    0
  9
$DIMLTYPE
  6

  9
$DIMLTEX1
  6

  9
$DIMLTEX2
  6

  9
$LUNITS
 70
    2
  9
$LUPREC
 70
    4
  9
$SKETCHINC
 40
1
  9
$FILLETRAD
 40
0
  9
$AUNITS
 70
    0
  9
$AUPREC
 70
    2
  9
$MENU
  1
.
  9
$ELEVATION
 40
0
  9
$PELEVATION
 40
0
  9
$THICKNESS
 40
0
  9
$LIMCHECK
 70
    0
  9
$CHAMFERA
 40
0
  9
$CHAMFERB
 40
0
  9
$CHAMFERC
 40
0
  9
$CHAMFERD
 40
0
  9
$SKPOLY
 70
    0
  9
$USRTIMER
 70
    1
  9
$ANGBASE
 50
0
  9
$ANGDIR
 70
    0
  9
$PDMODE
 70
   34
  9
$PDSIZE
 40
0
  9
$PLINEWID
 40
0
  9
$SPLFRAME
 70
    0
  9
$SPLINETYPE
 70
    2
  9
$SPLINESEGS
 70
    8
  9
$HANDSEED
  5
20000
  9
$SURFTAB1
 70
    6
  9
$SURFTAB2
 70
    6
  9
$SURFTYPE
 70
    6
  9
$SURFU
 70
    6
  9
$SURFV
 70
    6
  9
$UCSBASE
  2

  9
$UCSNAME
  2

  9
$UCSORG
 10
0
 20
0
 30
0
  9
$UCSXDIR
 10
1
 20
0
 30
0
  9
$UCSYDIR
 10
0
 20
1
 30
0
  9
$UCSORTHOREF
  2

  9
$UCSORTHOVIEW
 70
    0
  9
$UCSORGTOP
 10
0
 20
0
 30
0
  9
$UCSORGBOTTOM
 10
0
 20
0
 30
0
  9
$UCSORGLEFT
 10
0
 20
0
 30
0
  9
$UCSORGRIGHT
 10
0
 20
0
 30
0
  9
$UCSORGFRONT
 10
0
 20
0
 30
0
  9
$UCSORGBACK
 10
0
 20
0
 30
0
  9
$PUCSBASE
  2

  9
$PUCSNAME
  2

  9
$PUCSORG
 10
0
 20
0
 30
0
  9
$PUCSXDIR
 10
1
 20
0
 30
0
  9
$PUCSYDIR
 10
0
 20
1
 30
0
  9
$PUCSORTHOREF
  2

  9
$PUCSORTHOVIEW
 70
    0
  9
$PUCSORGTOP
 10
0
 20
0
 30
0
  9
$PUCSORGBOTTOM
 10
0
 20
0
 30
0
  9
$PUCSORGLEFT
 10
0
 20
0
 30
0
  9
$PUCSORGRIGHT
 10
0
 20
0
 30
0
  9
$PUCSORGFRONT
 10
0
 20
0
 30
0
  9
$PUCSORGBACK
 10
0
 20
0
 30
0
  9
$USERI1
 70
    0
  9
$USERI2
 70
    0
  9
$USERI3
 70
    0
  9
$USERI4
 70
    0
  9
$USERI5
 70
    0
  9
$USERR1
 40
0
  9
$USERR2
 40
0
  9
$USERR3
 40
0
  9
$USERR4
 40
0
  9
$USERR5
 40
0
  9
$WORLDVIEW
 70
    1
  9
$SHADEDGE
 70
    3
  9
$SHADEDIF
 70
   70
  9
$TILEMODE
 70
    1
  9
$MAXACTVP
 70
   64
  9
$PINSBASE
 10
0
 20
0
 30
0
  9
$PLIMCHECK
 70
    0
  9
$PEXTMIN
 10
0
 20
0
 30
0
  9
$PEXTMAX
 10
0
 20
0
 30
0
  9
$SNAPSTYLE
 70
    0
  9
$PLIMMIN
 10
0
 20
0
  9
$PLIMMAX
 10
297
 20
210
  9
$UNITMODE
 70
    0
  9
$VISRETAIN
 70
    1
  9
$PLINEGEN
 70
    0
  9
$PSLTSCALE
 70
    1
  9
$TREEDEPTH
 70
 3020
  9
$CMLSTYLE
  2
Standard
  9
$CMLJUST
 70
    0
  9
$CMLSCALE
 40
20
  9
$PROXYGRAPHICS
 70
    1
  9
$MEASUREMENT
 70
    1
  9
$CELWEIGHT
370
   -1
  9
$ENDCAPS
280
    0
  9
$JOINSTYLE
280
    0
  9
$LWDISPLAY
290
    0
  9
$INSUNITS
 70
    4
  9
$HYPERLINKBASE
  1

  9
$STYLESHEET
  1

  9
$XEDIT
290
    1
  9
$CEPSNTYPE
380
    0
  9
$PSTYLEMODE
290
    1
  9
$EXTNAMES
290
    1
  9
$PSVPSCALE
 40
1
  9
$OLESTARTUP
290
    0
  9
$SORTENTS
280
  127
  9
$INDEXCTL
280
    0
  9
$HIDETEXT
280
    1
  9
$XCLIPFRAME
290
    0
  9
$HALOGAP
280
    0
  9
$OBSCOLOR
 70
  257
  9
$OBSLTYPE
280
    0
  9
$INTERSECTIONDISPLAY
280
    0
  9
$INTERSECTIONCOLOR
 70
  257
  9
$DIMASSOC
280
    1
  9
$PROJECTNAME
  1

  9
$CAMERADISPLAY
290
    0
  9
$LENSLENGTH
 40
50
  9
$CAMERAHEIGHT
 40
0
  9
$STEPSPERSEC
 40
2
  9
$STEPSIZE
 40
50
  9
$3DDWFPREC
 40
2
  9
$PSOLWIDTH
 40
5
  9
$PSOLHEIGHT
 40
80
  9
$LOFTANG1
 40
1.570796326794897
  9
$LOFTANG2
 40
1.570796326794897
  9
$LOFTMAG1
 40
0
  9
$LOFTMAG2
 40
0
  9
$LOFTPARAM
 70
    7
  9
$LOFTNORMALS
280
    1
  9
$LATITUDE
 40
1
  9
$LONGITUDE
 40
1
  9
$NORTHDIRECTION
 40
0
  9
$TIMEZONE
 70
-8000
  9
$LIGHTGLYPHDISPLAY
280
    1
  9
$TILEMODELIGHTSYNCH
280
    1
  9
$SOLIDHIST
280
    1
  9
$SHOWHIST
280
    1
  9
$DWFFRAME
280
    2
  9
$DGNFRAME
280
    0
  9
$REALWORLDSCALE
290
    1
  9
$INTERFERECOLOR
 62
    1
  9
$CSHADOW
280
    0
  9
$SHADOWPLANELOCATION
 40
0
  0
ENDSEC
  0
SECTION
  2
CLASSES
  0
ENDSEC
  0
SECTION
  2
TABLES
  0
TABLE
  2
VPORT
  5
8
330
0
100
AcDbSymbolTable
 70
    1
  0
VPORT
  5
31
330
2
100
AcDbSymbolTableRecord
100
AcDbViewportTableRecord
  2
*ACTIVE
 70
    0
 10
0
 20
0
 11
1
 21
1
 12
296.9978952542256
 22
167.4624674616164
 13
0
 23
0
 14
10
 24
10
 15
10
 25
10
 16
0
 26
0
 36
1
 17
0
 27
0
 37
0
 40
647.6771389630461
 41
1.809009009009009
 42
50
 43
0
 44
0
 50
0
 51
0
 71
    0
 72
  100
 73
    1
 74
    3
 75
    0
 76
    1
 77
    0
 78
    0
281
    0
 65
    1
110
0
120
0
130
0
111
1
121
0
131
0
112
0
122
1
132
0
 79
    0
146
0
348
10020
 60
    7
 61
    5
292
1
282
    1
141
0
142
0
 63
  250
421
3358443
  0
ENDTAB
  0
TABLE
  2
LTYPE
  5
5
330
0
100
AcDbSymbolTable
 70
    4
  0
LTYPE
  5
14
330
5
100
AcDbSymbolTableRecord
100
AcDbLinetypeTableRecord
  2
ByBlock
 70
    0
  3

 72
   65
 73
    0
 40
0
  0
LTYPE
  5
15
330
5
100
AcDbSymbolTableRecord
100
AcDbLinetypeTableRecord
  2
ByLayer
 70
    0
  3

 72
   65
 73
    0
 40
0
  0
LTYPE
  5
16
330
5
100
AcDbSymbolTableRecord
100
AcDbLinetypeTableRecord
  2
Continuous
 70
    0
  3
Solid line
 72
   65
 73
    0
 40
0
  0
LTYPE
  5
32
330
5
100
AcDbSymbolTableRecord
100
AcDbLinetypeTableRecord
  2
DOT
 70
    0
  3
Dot . . . . . . . . . . . . . . . . . . . . . .
 72
   65
 73
    2
 40
6.35
 49
0
 74
    0
 49
-6.35
 74
    0
  0
LTYPE
  5
33
330
5
100
AcDbSymbolTableRecord
100
AcDbLinetypeTableRecord
  2
DOTTINY
 70
    0
  3
Dot (.15x) .....................................
 72
   65
 73
    2
 40
0.9525
 49
0
 74
    0
 49
-0.9525
 74
    0
  0
LTYPE
  5
34
330
5
100
AcDbSymbolTableRecord
100
AcDbLinetypeTableRecord
  2
DOT2
 70
    0
  3
Dot (.5x) .....................................
 72
   65
 73
    2
 40
3.175
 49
0
 74
    0
 49
-3.175
 74
    0
  0
LTYPE
  5
35
330
5
100
AcDbSymbolTableRecord
100
AcDbLinetypeTableRecord
  2
DOTX2
 70
    0
  3
Dot (2x) .  .  .  .  .  .  .  .  .  .  .  .  .
 72
   65
 73
    2
 40
12.7
 49
0
 74
    0
 49
-12.7
 74
    0
  0
LTYPE
  5
36
330
5
100
AcDbSymbolTableRecord
100
AcDbLinetypeTableRecord
  2
DASHED
 70
    0
  3
Dashed _ _ _ _ _ _ _ _ _ _ _ _ _ _ _ _ _
 72
   65
 73
    2
 40
19.05
 49
12.7
 74
    0
 49
-6.35
 74
    0
  0
LTYPE
  5
37
330
5
100
AcDbSymbolTableRecord
100
AcDbLinetypeTableRecord
  2
DASHEDTINY
 70
    0
  3
Dashed (.15x) _ _ _ _ _ _ _ _ _ _ _ _ _ _ _ _ _
 72
   65
 73
    2
 40
2.8575
 49
1.905
 74
    0
 49
-0.9525
 74
    0
  0
LTYPE
  5
38
330
5
100
AcDbSymbolTableRecord
100
AcDbLinetypeTableRecord
  2
DASHED2
 70
    0
  3
Dashed (.5x) _ _ _ _ _ _ _ _ _ _ _ _ _ _ _ _ _
 72
   65
 73
    2
 40
9.524999999999999
 49
6.35
 74
    0
 49
-3.175
 74
    0
  0
LTYPE
  5
39
330
5
100
AcDbSymbolTableRecord
100
AcDbLinetypeTableRecord
  2
DASHEDX2
 70
    0
  3
Dashed (2x) ____  ____  ____  ____  ____  ___
 72
   65
 73
    2
 40
38.09999999999999
 49
25.4
 74
    0
 49
-12.7
 74
    0
  0
LTYPE
  5
3A
330
5
100
AcDbSymbolTableRecord
100
AcDbLinetypeTableRecord
  2
DASHDOT
 70
    0
  3
Dash dot __ . __ . __ . __ . __ . __ . __ . __
 72
   65
 73
    4
 40
25.4
 49
12.7
 74
    0
 49
-6.35
 74
    0
 49
0
 74
    0
 49
-6.35
 74
    0
  0
LTYPE
  5
3B
330
5
100
AcDbSymbolTableRecord
100
AcDbLinetypeTableRecord
  2
DASHDOTTINY
 70
    0
  3
Dash dot (.15x) _._._._._._._._._._._._._._._.
 72
   65
 73
    4
 40
3.81
 49
1.905
 74
    0
 49
-0.9525
 74
    0
 49
0
 74
    0
 49
-0.9525
 74
    0
  0
LTYPE
  5
3C
330
5
100
AcDbSymbolTableRecord
100
AcDbLinetypeTableRecord
  2
DASHDOT2
 70
    0
  3
Dash dot (.5x) _._._._._._._._._._._._._._._.
 72
   65
 73
    4
 40
12.7
 49
6.35
 74
    0
 49
-3.175
 74
    0
 49
0
 74
    0
 49
-3.175
 74
    0
  0
LTYPE
  5
3D
330
5
100
AcDbSymbolTableRecord
100
AcDbLinetypeTableRecord
  2
DASHDOTX2
 70
    0
  3
Dash dot (2x) ____  .  ____  .  ____  .  ___
 72
   65
 73
    4
 40
50.8
 49
25.4
 74
    0
 49
-12.7
 74
    0
 49
0
 74
    0
 49
-12.7
 74
    0
  0
LTYPE
  5
3E
330
5
100
AcDbSymbolTableRecord
100
AcDbLinetypeTableRecord
  2
DIVIDE
 70
    0
  3
Divide ____ . . ____ . . ____ . . ____ . . ____
 72
   65
 73
    6
 40
31.75
 49
12.7
 74
    0
 49
-6.35
 74
    0
 49
0
 74
    0
 49
-6.35
 74
    0
 49
0
 74
    0
 49
-6.35
 74
    0
  0
LTYPE
  5
3F
330
5
100
AcDbSymbolTableRecord
100
AcDbLinetypeTableRecord
  2
DIVIDETINY
 70
    0
  3
Divide (.15x) __..__..__..__..__..__..__..__.._
 72
   65
 73
    6
 40
4.7625
 49
1.905
 74
    0
 49
-0.9525
 74
    0
 49
0
 74
    0
 49
-0.9525
 74
    0
 49
0
 74
    0
 49
-0.9525
 74
    0
  0
LTYPE
  5
40
330
5
100
AcDbSymbolTableRecord
100
AcDbLinetypeTableRecord
  2
DIVIDE2
 70
    0
  3
Divide (.5x) __..__..__..__..__..__..__..__.._
 72
   65
 73
    6
 40
15.875
 49
6.35
 74
    0
 49
-3.175
 74
    0
 49
0
 74
    0
 49
-3.175
 74
    0
 49
0
 74
    0
 49
-3.175
 74
    0
  0
LTYPE
  5
41
330
5
100
AcDbSymbolTableRecord
100
AcDbLinetypeTableRecord
  2
DIVIDEX2
 70
    0
  3
Divide (2x) ________  .  .  ________  .  .  _
 72
   65
 73
    6
 40
63.5
 49
25.4
 74
    0
 49
-12.7
 74
    0
 49
0
 74
    0
 49
-12.7
 74
    0
 49
0
 74
    0
 49
-12.7
 74
    0
  0
LTYPE
  5
42
330
5
100
AcDbSymbolTableRecord
100
AcDbLinetypeTableRecord
  2
BORDER
 70
    0
  3
Border __ __ . __ __ . __ __ . __ __ . __ __ .
 72
   65
 73
    6
 40
44.45
 49
12.7
 74
    0
 49
-6.35
 74
    0
 49
12.7
 74
    0
 49
-6.35
 74
    0
 49
0
 74
    0
 49
-6.35
 74
    0
  0
LTYPE
  5
43
330
5
100
AcDbSymbolTableRecord
100
AcDbLinetypeTableRecord
  2
BORDERTINY
 70
    0
  3
Border (.15x) __.__.__.__.__.__.__.__.__.__.__.
 72
   65
 73
    6
 40
6.6675
 49
1.905
 74
    0
 49
-0.9525
 74
    0
 49
1.905
 74
    0
 49
-0.9525
 74
    0
 49
0
 74
    0
 49
-0.9525
 74
    0
  0
LTYPE
  5
44
330
5
100
AcDbSymbolTableRecord
100
AcDbLinetypeTableRecord
  2
BORDER2
 70
    0
  3
Border (.5x) __.__.__.__.__.__.__.__.__.__.__.
 72
   65
 73
    6
 40
22.225
 49
6.35
 74
    0
 49
-3.175
 74
    0
 49
6.35
 74
    0
 49
-3.175
 74
    0
 49
0
 74
    0
 49
-3.175
 74
    0
  0
LTYPE
  5
45
330
5
100
AcDbSymbolTableRecord
100
AcDbLinetypeTableRecord
  2
BORDERX2
 70
    0
  3
Border (2x) ____  ____  .  ____  ____  .  ___
 72
   65
 73
    6
 40
88.89999999999999
 49
25.4
 74
    0
 49
-12.7
 74
    0
 49
25.4
 74
    0
 49
-12.7
 74
    0
 49
0
 74
    0
 49
-12.7
 74
    0
  0
LTYPE
  5
46
330
5
100
AcDbSymbolTableRecord
100
AcDbLinetypeTableRecord
  2
CENTER
 70
    0
  3
Center ____ _ ____ _ ____ _ ____ _ ____ _ ____
 72
   65
 73
    4
 40
50.8
 49
31.75
 74
    0
 49
-6.35
 74
    0
 49
6.35
 74
    0
 49
-6.35
 74
    0
  0
LTYPE
  5
47
330
5
100
AcDbSymbolTableRecord
100
AcDbLinetypeTableRecord
  2
CENTERTINY
 70
    0
  3
Center (.15x) ___ _ ___ _ ___ _ ___ _ ___ _ ___
 72
   65
 73
    4
 40
7.62
 49
4.7625
 74
    0
 49
-0.9525
 74
    0
 49
0.9525
 74
    0
 49
-0.9525
 74
    0
  0
LTYPE
  5
48
330
5
100
AcDbSymbolTableRecord
100
AcDbLinetypeTableRecord
  2
CENTER2
 70
    0
  3
Center (.5x) ___ _ ___ _ ___ _ ___ _ ___ _ ___
 72
   65
 73
    4
 40
28.575
 49
19.05
 74
    0
 49
-3.175
 74
    0
 49
3.175
 74
    0
 49
-3.175
 74
    0
  0
LTYPE
  5
49
330
5
100
AcDbSymbolTableRecord
100
AcDbLinetypeTableRecord
  2
CENTERX2
 70
    0
  3
Center (2x) ________  __  ________  __  _____
 72
   65
 73
    4
 40
101.6
 49
63.5
 74
    0
 49
-12.7
 74
    0
 49
12.7
 74
    0
 49
-12.7
 74
    0
  0
ENDTAB
  0
TABLE
  2
LAYER
  5
2
330
0
100
AcDbSymbolTable
 70
    1
  0
LAYER
  5
10
330
2
100
AcDbSymbolTableRecord
100
AcDbLayerTableRecord
  2
0
 70
    0
 62
    7
  6
CONTINUOUS
370
    0
390
F
  0
ENDTAB
  0
TABLE
  2
STYLE
  5
3
330
0
100
AcDbSymbolTable
 70
    3
  0
STYLE
  5
4A
330
2
100
AcDbSymbolTableRecord
100
AcDbTextStyleTableRecord
  2
Standard
 70
    0
 40
0
 41
1
 50
0
 71
    0
 42
1
  3
txt
  4

  0
ENDTAB
  0
TABLE
  2
VIEW
  5
6
330
0
100
AcDbSymbolTable
 70
    0
  0
ENDTAB
  0
TABLE
  2
UCS
  5
7
330
0
100
AcDbSymbolTable
 70
    0
  0
ENDTAB
  0
TABLE
  2
APPID
  5
9
330
0
100
AcDbSymbolTable
 70
    1
  0
APPID
  5
12
330
9
100
AcDbSymbolTableRecord
100
AcDbRegAppTableRecord
  2
ACAD
 70
    0
  0
APPID
  5
4B
330
9
100
AcDbSymbolTableRecord
100
AcDbRegAppTableRecord
  2
LibreCad
 70
    0
  0
ENDTAB
  0
TABLE
  2
DIMSTYLE
  5
A
330
0
100
AcDbSymbolTable
 70
    1
100
AcDbDimStyleTable
 71
    1
  0
DIMSTYLE
105
4C
330
A
100
AcDbSymbolTableRecord
100
AcDbDimStyleTableRecord
  2
Standard
 70
    0
 40
1
 41
2.5
 42
0.625
 43
0.38
 44
1.25
 45
0
 46
0
 47
0
 48
0
 49
1
140
2.5
141
0.09
142
2.5
143
25.4
144
1
145
0
146
1
147
0.625
148
0
 71
    0
 72
    0
 73
    0
 74
    1
 75
    0
 76
    0
 77
    0
 78
    1
 79
    0
170
    0
171
    2
172
    0
173
    0
174
    0
175
    0
176
    0
177
    0
178
    0
179
    0
271
    2
272
    4
273
    2
274
    2
275
    0
276
    0
277
    2
278
    0
279
    0
280
    0
281
    0
282
    0
283
    1
284
    0
285
    0
286
    0
288
    0
289
    3
340
standard
341

371
   -2
372
   -2
  0
ENDTAB
  0
TABLE
  2
BLOCK_RECORD
  5
1
330
0
100
AcDbSymbolTable
 70
    2
  0
BLOCK_RECORD
  5
1F
330
1
100
AcDbSymbolTableRecord
100
AcDbBlockTableRecord
  2
*Model_Space
 70
    0
280
    1
281
    0
  0
BLOCK_RECORD
  5
1E
330
1
100
AcDbSymbolTableRecord
100
AcDbBlockTableRecord
  2
*Paper_Space
 70
    0
280
    1
281
    0
  0
ENDTAB
  0
ENDSEC
  0
SECTION
  2
BLOCKS
  0
BLOCK
  5
20
330
1F
100
AcDbEntity
  8
0
100
AcDbBlockBegin
  2
*Model_Space
 70
    0
 10
0
 20
0
 30
0
  3
*Model_Space
  1

  0
ENDBLK
  5
21
330
1F
100
AcDbEntity
  8
0
100
AcDbBlockEnd
  0
BLOCK
  5
1C
330
1B
100
AcDbEntity
  8
0
100
AcDbBlockBegin
  2
*Paper_Space
 70
    0
 10
0
 20
0
 30
0
  3
*Paper_Space
  1

  0
ENDBLK
  5
1D
330
1F
100
AcDbEntity
  8
0
100
AcDbBlockEnd
  0
ENDSEC
  0
SECTION
  2
ENTITIES
  0
LWPOLYLINE
  5
4D
100
AcDbEntity
  8
0
  6
ByLayer
 62
  256
370
   -1
100
AcDbPolyline
 90
    4
 70
    1
 43
0
 10
-2
 20
2
 10
2
 20
2
 10
2
 20
-2
 10
-2
 20
-2
  0
LWPOLYLINE
  5
4E
100
AcDbEntity
  8
0
  6
CONTINUOUS
 62
    7
370
    0
100
AcDbPolyline
 90
    4
 70
    1
 43
0
 10
-4
 20
4
 10
4
 20
4
 10
3.999999999999999
 20
-4
 10
-4
 20
-4
  0
LWPOLYLINE
  5
4F
100
AcDbEntity
  8
0
  6
CONTINUOUS
 62
    7
370
    0
100
AcDbPolyline
 90
    4
 70
    1
 43
0
 10
-6
 20
6
 10
6.000000000000002
 20
6
 10
5.999999999999998
 20
-6.000000000000002
 10
-6
 20
-5.999999999999998
  0
LWPOLYLINE
  5
50
100
AcDbEntity
  8
0
  6
CONTINUOUS
 62
    7
370
    0
100
AcDbPolyline
 90
    4
 70
    1
 43
0
 10
-8
 20
8
 10
8.000000000000002
 20
8
 10
7.999999999999998
 20
-8.000000000000002
 10
-8
 20
-7.999999999999998
  0
LWPOLYLINE
  5
51
100
AcDbEntity
  8
0
  6
CONTINUOUS
 62
    7
370
    0
100
AcDbPolyline
 90
    4
 70
    1
 43
0
 10
-10
 20
10
 10
10
 20
10
 10
10
 20
-10
 10
-10
 20
-10
  0
LWPOLYLINE
  5
52
100
AcDbEntity
  8
0
  6
CONTINUOUS
 62
    7
370
    0
100
AcDbPolyline
 90
    4
 70
    1
 43
0
 10
-12
 20
12
 10
12
 20
12
 10
12
 20
-12
 10
-12
 20
-12
  0
LWPOLYLINE
  5
53
100
AcDbEntity
  8
0
  6
CONTINUOUS
 62
    7
370
    0
100
AcDbPolyline
 90
    4
 70
    1
 43
0
 10
-14
 20
14
 10
14
 20
14
 10
14
 20
-14
 10
-14
 20
-14
  0
LWPOLYLINE
  5
54
100
AcDbEntity
  8
0
  6
CONTINUOUS
 62
    7
370
    0
100
AcDbPolyline
 90
    4
 70
    1
 43
0
 10
-16
 20
16
 10
16
 20
16
 10
16
 20
-16
 10
-16
 20
-16
  0
LWPOLYLINE
  5
55
100
AcDbEntity
  8
0
  6
CONTINUOUS
 62
    7
370
    0
100
AcDbPolyline
 90
    4
 70
    1
 43
0
 10
-18
 20
18
 10
18
 20
18
 10
18
 20
-18
 10
-18
 20
-18
  0
LWPOLYLINE
  5
56
100
AcDbEntity
  8
0
  6
CONTINUOUS
 62
    7
370
    0
100
AcDbPolyline
 90
    4
 70
    1
 43
0
 10
-20
 20
20
 10
20
 20
20
 10
20
 20
-20
 10
-20
 20
-20
  0
LWPOLYLINE
  5
57
100
AcDbEntity
  8
0
  6
CONTINUOUS
 62
    7
370
    0
100
AcDbPolyline
 90
    4
 70
    1
 43
0
 10
-22
 20
22
 10
22
 20
22
 10
22
 20
-22
 10
-22
 20
-22
  0
LWPOLYLINE
  5
58
100
AcDbEntity
  8
0
  6
CONTINUOUS
 62
    7
370
    0
100
AcDbPolyline
 90
    4
 70
    1
 43
0
 10
-24
 20
24
 10
24
 20
24
 10
24
 20
-24
 10
-24
 20
-24
  0
LWPOLYLINE
  5
59
100
AcDbEntity
  8
0
  6
CONTINUOUS
 62
    7
370
    0
100
AcDbPolyline
 90
    4
 70
    1
 43
0
 10
-26
 20
26
 10
26
 20
26
 10
26
 20
-26
 10
-26
 20
-26
  0
LWPOLYLINE
  5
5A
100
AcDbEntity
  8
0
  6
CONTINUOUS
 62
    7
370
    0
100
AcDbPolyline
 90
    4
 70
    1
 43
0
 10
-28
 20
28
 10
28
 20
28
 10
28
 20
-28
 10
-28
 20
-28
  0
LWPOLYLINE
  5
5B
100
AcDbEntity
  8
0
  6
CONTINUOUS
 62
    7
370
    0
100
AcDbPolyline
 90
    4
 70
    1
 43
0
 10
-30
 20
30
 10
30
 20
30
 10
30
 20
-30
 10
-30
 20
-30
  0
LWPOLYLINE
  5
5C
100
AcDbEntity
  8
0
  6
CONTINUOUS
 62
    7
370
    0
100
AcDbPolyline
 90
    4
 70
    1
 43
0
 10
-32
 20
32
 10
32
 20
32
 10
32
 20
-32
 10
-32
 20
-32
  0
LWPOLYLINE
  5
5D
100
AcDbEntity
  8
0
  6
CONTINUOUS
 62
    7
370
    0
100
AcDbPolyline
 90
    4
 70
    1
 43
0
 10
-34
 20
34
 10
34
 20
34
 10
34
 20
-34
 10
-34
 20
-34
  0
LWPOLYLINE
  5
5E
100
AcDbEntity
  8
0
  6
CONTINUOUS
 62
    7
370
    0
100
AcDbPolyline
 90
    4
 70
    1
 43
0
 10
-36
 20
36
 10
36
 20
36
 10
36
 20
-36
 10
-36
 20
-36
  0
LWPOLYLINE
  5
5F
100
AcDbEntity
  8
0
  6
CONTINUOUS
 62
    7
370
    0
100
AcDbPolyline
 90
    4
 70
    1
 43
0
 10
-38
 20
38
 10
38
 20
38
 10
38
 20
-38
 10
-38
 20
-38
  0
LWPOLYLINE
  5
60
100
AcDbEntity
  8
0
  6
CONTINUOUS
 62
    7
370
    0
100
AcDbPolyline
 90
    4
 70
    1
 43
0
 10
-40
 20
40
 10
40
 20
40
 10
40
 20
-40
 10
-40
 20
-40
  0
LWPOLYLINE
  5
61
100
AcDbEntity
  8
0
  6
CONTINUOUS
 62
    7
370
    0
100
AcDbPolyline
 90
    4
 70
    1
 43
0
 10
-42
 20
42
 10
42
 20
42
 10
42
 20
-42
 10
-42
 20
-42
  0
LWPOLYLINE
  5
62
100
AcDbEntity
  8
0
  6
CONTINUOUS
 62
    7
370
    0
100
AcDbPolyline
 90
    4
 70
    1
 43
0
 10
-44
 20
44
 10
44
 20
44
 10
44
 20
-44
 10
-44
 20
-44
  0
LWPOLYLINE
  5
63
100
AcDbEntity
  8
0
  6
CONTINUOUS
 62
    7
370
    0
100
AcDbPolyline
 90
    4
 70
    1
 43
0
 10
-46
 20
46
 10
46
 20
46
 10
46
 20
-46
 10
-46
 20
-46
  0
LWPOLYLINE
  5
64
100
AcDbEntity
  8
0
  6
CONTINUOUS
 62
    7
370
    0
100
AcDbPolyline
 90
    4
 70
    1
 43
0
 10
-48
 20
48
 10
48
 20
48
 10
48
 20
-48
 10
-48
 20
-48
  0
LWPOLYLINE
  5
65
100
AcDbEntity
  8
0
  6
CONTINUOUS
 62
    7
370
    0
100
AcDbPolyline
 90
    4
 70
    1
 43
0
 10
-50
 20
50
 10
50
 20
50
 10
50
 20
-50
 10
-50
 20
-50
  0
LWPOLYLINE
  5
66
100
AcDbEntity
  8
0
  6
CONTINUOUS
 62
    7
370
    0
100
AcDbPolyline
 90
    4
 70
    1
 43
0
 10
-52
 20
52
 10
52
 20
52
 10
52
 20
-52
 10
-52
 20
-52
  0
LWPOLYLINE
  5
67
100
AcDbEntity
  8
0
  6
CONTINUOUS
 62
    7
370
    0
100
AcDbPolyline
 90
    4
 70
    1
 43
0
 10
-54
 20
54
 10
54
 20
54
 10
54
 20
-54
 10
-54
 20
-54
  0
LWPOLYLINE
  5
68
100
AcDbEntity
  8
0
  6
CONTINUOUS
 62
    7
370
    0
100
AcDbPolyline
 90
    4
 70
    1
 43
0
 10
-56
 20
56
 10
56
 20
56
 10
56
 20
-56
 10
-56
 20
-56
  0
LWPOLYLINE
  5
69
100
AcDbEntity
  8
0
  6
CONTINUOUS
 62
    7
370
    0
100
AcDbPolyline
 90
    4
 70
    1
 43
0
 10
-58
 20
58
 10
58
 20
58
 10
58
 20
-58
 10
-58
 20
-58
  0
LWPOLYLINE
  5
6A
100
AcDbEntity
  8
0
  6
CONTINUOUS
 62
    7
370
    0
100
AcDbPolyline
 90
    4
 70
    1
 43
0
 10
-60
 20
60
 10
60
 20
60
 10
60
 20
-60
 10
-60
 20
-60
  0
LWPOLYLINE
  5
6B
100
AcDbEntity
  8
0
  6
CONTINUOUS
 62
    7
370
    0
100
AcDbPolyline
 90
    4
 70
    1
 43
0
 10
-62
 20
62
 10
62
 20
62
 10
62
 20
-62
 10
-62
 20
-62
  0
LWPOLYLINE
  5
6C
100
AcDbEntity
  8
0
  6
CONTINUOUS
 62
    7
370
    0
100
AcDbPolyline
 90
    4
 70
    1
 43
0
 10
-64
 20
64
 10
64
 20
64
 10
64
 20
-64
 10
-64
 20
-64
  0
LWPOLYLINE
  5
6D
100
AcDbEntity
  8
0
  6
CONTINUOUS
 62
    7
370
    0
100
AcDbPolyline
 90
    4
 70
    1
 43
0
 10
-66
 20
66
 10
66
 20
66
 10
66
 20
-66
 10
-66
 20
-66
  0
LWPOLYLINE
  5
6E
100
AcDbEntity
  8
0
  6
CONTINUOUS
 62
    7
370
    0
100
AcDbPolyline
 90
    4
 70
    1
 43
0
 10
-68
 20
68
 10
68
 20
68
 10
68
 20
-68
 10
-68
 20
-68
  0
LWPOLYLINE
  5
6F
100
AcDbEntity
  8
0
  6
CONTINUOUS
 62
    7
370
    0
100
AcDbPolyline
 90
    4
 70
    1
 43
0
 10
-70
 20
70
 10
70
 20
70
 10
70
 20
-70
 10
-70
 20
-70
  0
LWPOLYLINE
  5
70
100
AcDbEntity
  8
0
  6
CONTINUOUS
 62
    7
370
    0
100
AcDbPolyline
 90
    4
 70
    1
 43
0
 10
-72
 20
72
 10
72
 20
72
 10
72
 20
-72
 10
-72
 20
-72
  0
LWPOLYLINE
  5
71
100
AcDbEntity
  8
0
  6
CONTINUOUS
 62
    7
370
    0
100
AcDbPolyline
 90
    4
 70
    1
 43
0
 10
-74
 20
74
 10
74
 20
74
 10
74
 20
-74
 10
-74
 20
-74
  0
LWPOLYLINE
  5
72
100
AcDbEntity
  8
0
  6
CONTINUOUS
 62
    7
370
    0
100
AcDbPolyline
 90
    4
 70
    1
 43
0
 10
-76
 20
76
 10
76
 20
76
 10
76
 20
-76
 10
-76
 20
-76
  0
LWPOLYLINE
  5
73
100
AcDbEntity
  8
0
  6
CONTINUOUS
 62
    7
370
    0
100
AcDbPolyline
 90
    4
 70
    1
 43
0
 10
-78
 20
78
 10
78
 20
78
 10
78
 20
-78
 10
-78
 20
-78
  0
LWPOLYLINE
  5
74
100
AcDbEntity
  8
0
  6
CONTINUOUS
 62
    7
370
    0
100
AcDbPolyline
 90
    4
 70
    1
 43
0
 10
-80
 20
80
 10
80
 20
80
 10
80
 20
-80
 10
-80
 20
-80
  0
LWPOLYLINE
  5
75
100
AcDbEntity
  8
0
  6
CONTINUOUS
 62
    7
370
    0
100
AcDbPolyline
 90
    4
 70
    1
 43
0
 10
-82
 20
82
 10
82
 20
82
 10
82
 20
-82
 10
-82
 20
-82
  0
LWPOLYLINE
  5
76
100
AcDbEntity
  8
0
  6
CONTINUOUS
 62
    7
370
    0
100
AcDbPolyline
 90
    4
 70
    1
 43
0
 10
-84
 20
84
 10
84
 20
84
 10
84
 20
-84
 10
-84
 20
-84
  0
LWPOLYLINE
  5
77
100
AcDbEntity
  8
0
  6
CONTINUOUS
 62
    7
370
    0
100
AcDbPolyline
 90
    4
 70
    1
 43
0
 10
-86
 20
86
 10
86
 20
86
 10
86
 20
-86
 10
-86
 20
-86
  0
LWPOLYLINE
  5
78
100
AcDbEntity
  8
0
  6
CONTINUOUS
 62
    7
370
    0
100
AcDbPolyline
 90
    4
 70
    1
 43
0
 10
-88
 20
88
 10
88
 20
88
 10
88
 20
-88
 10
-88
 20
-88
  0
LWPOLYLINE
  5
79
100
AcDbEntity
  8
0
  6
CONTINUOUS
 62
    7
370
    0
100
AcDbPolyline
 90
    4
 70
    1
 43
0
 10
-90
 20
90
 10
90
 20
90
 10
90
 20
-90
 10
-90
 20
-90
  0
LWPOLYLINE
  5
7A
100
AcDbEntity
  8
0
  6
CONTINUOUS
 62
    7
370
    0
100
AcDbPolyline
 90
    4
 70
    1
 43
0
 10
-92
 20
92
 10
92
 20
92
 10
92
 20
-92
 10
-92
 20
-92
  0
LWPOLYLINE
  5
7B
100
AcDbEntity
  8
0
  6
CONTINUOUS
 62
    7
370
    0
100
AcDbPolyline
 90
    4
 70
    1
 43
0
 10
-94
 20
94
 10
94
 20
94
 10
94
 20
-94
 10
-94
 20
-94
  0
LWPOLYLINE
  5
7C
100
AcDbEntity
  8
0
  6
CONTINUOUS
 62
    7
370
    0
100
AcDbPolyline
 90
    4
 70
    1
 43
0
 10
-96
 20
96
 10
96
 20
96
 10
96
 20
-96
 10
-96
 20
-96
  0
LWPOLYLINE
  5
7D
100
AcDbEntity
  8
0
  6
CONTINUOUS
 62
    7
370
    0
100
AcDbPolyline
 90
    4
 70
    1
 43
0
 10
-98
 20
98
 10
98
 20
98
 10
98
 20
-98
 10
-98
 20
-98
  0
LWPOLYLINE
  5
7E
100
AcDbEntity
  8
0
  6
CONTINUOUS
 62
    7
370
    0
100
AcDbPolyline
 90
    4
 70
    1
 43
0
 10
-100
 20
100
 10
100
 20
100
 10
100
 20
-100
 10
-100
 20
-100
  0
LWPOLYLINE
  5
7F
100
AcDbEntity
  8
0
  6
CONTINUOUS
 62
    7
370
    0
100
AcDbPolyline
 90
    4
 70
    1
 43
0
 10
-102
 20
102
 10
102
 20
102
 10
102
 20
-102
 10
-102
 20
-102
  0
LWPOLYLINE
  5
80
100
AcDbEntity
  8
0
  6
CONTINUOUS
 62
    7
370
    0
100
AcDbPolyline
 90
    4
 70
    1
 43
0
 10
-104
 20
104
 10
104
 20
104
 10
104
 20
-104
 10
-104
 20
-104
  0
LWPOLYLINE
  5
81
100
AcDbEntity
  8
0
  6
CONTINUOUS
 62
    7
370
    0
100
AcDbPolyline
 90
    4
 70
    1
 43
0
 10
-106
 20
106
 10
106
 20
106
 10
106
 20
-106
 10
-106
 20
-106
  0
LWPOLYLINE
  5
82
100
AcDbEntity
  8
0
  6
CONTINUOUS
 62
    7
370
    0
100
AcDbPolyline
 90
    4
 70
    1
 43
0
 10
-108
 20
108
 10
108
 20
108
 10
108
 20
-108
 10
-108
 20
-108
  0
LWPOLYLINE
  5
83
100
AcDbEntity
  8
0
  6
CONTINUOUS
 62
    7
370
    0
100
AcDbPolyline
 90
    4
 70
    1
 43
0
 10
-110
 20
110
 10
110
 20
110
 10
110
 20
-110
 10
-110
 20
-110
  0
LWPOLYLINE
  5
84
100
AcDbEntity
  8
0
  6
CONTINUOUS
 62
    7
370
    0
100
AcDbPolyline
 90
    4
 70
    1
 43
0
 10
-112
 20
112
 10
112
 20
112
 10
112
 20
-112
 10
-112
 20
-112
  0
LWPOLYLINE
  5
85
100
AcDbEntity
  8
0
  6
CONTINUOUS
 62
    7
370
    0
100
AcDbPolyline
 90
    4
 70
    1
 43
0
 10
-114
 20
114
 10
114
 20
114
 10
114
 20
-114
 10
-114
 20
-114
  0
LWPOLYLINE
  5
86
100
AcDbEntity
  8
0
  6
CONTINUOUS
 62
    7
370
    0
100
AcDbPolyline
 90
    4
 70
    1
 43
0
 10
-116
 20
116
 10
116
 20
116
 10
116
 20
-116
 10
-116
 20
-116
  0
LWPOLYLINE
  5
87
100
AcDbEntity
  8
0
  6
CONTINUOUS
 62
    7
370
    0
100
AcDbPolyline
 90
    4
 70
    1
 43
0
 10
-118
 20
118
 10
118
 20
118
 10
118
 20
-118
 10
-118
 20
-118
  0
LWPOLYLINE
  5
88
100
AcDbEntity
  8
0
  6
CONTINUOUS
 62
    7
370
    0
100
AcDbPolyline
 90
    4
 70
    1
 43
0
 10
-120
 20
120
 10
120
 20
120
 10
120
 20
-120
 10
-120
 20
-120
  0
LWPOLYLINE
  5
89
100
AcDbEntity
  8
0
  6
CONTINUOUS
 62
    7
370
    0
100
AcDbPolyline
 90
    4
 70
    1
 43
0
 10
-122
 20
122
 10
122
 20
122
 10
122
 20
-122
 10
-122
 20
-122
  0
LWPOLYLINE
  5
8A
100
AcDbEntity
  8
0
  6
CONTINUOUS
 62
    7
370
    0
100
AcDbPolyline
 90
    4
 70
    1
 43
0
 10
-124
 20
124
 10
124
 20
124
 10
124
 20
-124
 10
-124
 20
-124
  0
LWPOLYLINE
  5
8B
100
AcDbEntity
  8
0
  6
CONTINUOUS
 62
    7
370
    0
100
AcDbPolyline
 90
    4
 70
    1
 43
0
 10
-126
 20
126
 10
126
 20
126
 10
126
 20
-126
 10
-126
 20
-126
  0
LWPOLYLINE
  5
8C
100
AcDbEntity
  8
0
  6
CONTINUOUS
 62
    7
370
    0
100
AcDbPolyline
 90
    4
 70
    1
 43
0
 10
-128
 20
128
 10
128
 20
128
 10
128
 20
-128
 10
-128
 20
-128
  0
LWPOLYLINE
  5
8D
100
AcDbEntity
  8
0
  6
CONTINUOUS
 62
    7
370
    0
100
AcDbPolyline
 90
    4
 70
    1
 43
0
 10
-130
 20
130
 10
130
 20
130
 10
130
 20
-130
 10
-130
 20
-130
  0
LWPOLYLINE
  5
8E
100
AcDbEntity
  8
0
  6
CONTINUOUS
 62
    7
370
    0
100
AcDbPolyline
 90
    4
 70
    1
 43
0
 10
-132
 20
132
 10
132
 20
132
 10
132
 20
-132
 10
-132
 20
-132
  0
LWPOLYLINE
  5
8F
100
AcDbEntity
  8
0
  6
CONTINUOUS
 62
    7
370
    0
100
AcDbPolyline
 90
    4
 70
    1
 43
0
 10
-134
 20
134
 10
134
 20
134
 10
134
 20
-134
 10
-134
 20
-134
  0
LWPOLYLINE
  5
90
100
AcDbEntity
  8
0
  6
CONTINUOUS
 62
    7
370
    0
100
AcDbPolyline
 90
    4
 70
    1
 43
0
 10
-136
 20
136
 10
136
 20
136
 10
136
 20
-136
 10
-136
 20
-136
  0
LWPOLYLINE
  5
91
100
AcDbEntity
  8
0
  6
CONTINUOUS
 62
    7
370
    0
100
AcDbPolyline
 90
    4
 70
    1
 43
0
 10
-138
 20
138
 10
138
 20
138
 10
138
 20
-138
 10
-138
 20
-138
  0
LWPOLYLINE
  5
92
100
AcDbEntity
  8
0
  6
CONTINUOUS
 62
    7
370
    0
100
AcDbPolyline
 90
    4
 70
    1
 43
0
 10
-140
 20
140
 10
140
 20
140
 10
140
 20
-140
 10
-140
 20
-140
  0
LWPOLYLINE
  5
93
100
AcDbEntity
  8
0
  6
CONTINUOUS
 62
    7
370
    0
100
AcDbPolyline
 90
    4
 70
    1
 43
0
 10
-142
 20
142
 10
142
 20
142
 10
142
 20
-142
 10
-142
 20
-142
  0
LWPOLYLINE
  5
94
100
AcDbEntity
  8
0
  6
CONTINUOUS
 62
    7
370
    0
100
AcDbPolyline
 90
    4
 70
    1
 43
0
 10
-144
 20
144
 10
144
 20
144
 10
144
 20
-144
 10
-144
 20
-144
  0
LWPOLYLINE
  5
95
100
AcDbEntity
  8
0
  6
CONTINUOUS
 62
    7
370
    0
100
AcDbPolyline
 90
    4
 70
    1
 43
0
 10
-146
 20
146
 10
146
 20
146
 10
146
 20
-146
 10
-146
 20
-146
  0
LWPOLYLINE
  5
96
100
AcDbEntity
  8
0
  6
CONTINUOUS
 62
    7
370
    0
100
AcDbPolyline
 90
    4
 70
    1
 43
0
 10
-148
 20
148
 10
148
 20
148
 10
148
 20
-148
 10
-148
 20
-148
  0
LWPOLYLINE
  5
97
100
AcDbEntity
  8
0
  6
CONTINUOUS
 62
    7
370
    0
100
AcDbPolyline
 90
    4
 70
    1
 43
0
 10
-150
 20
150
 10
150
 20
150
 10
150
 20
-150
 10
-150
 20
-150
  0
LWPOLYLINE
  5
98
100
AcDbEntity
  8
0
  6
CONTINUOUS
 62
    7
370
    0
100
AcDbPolyline
 90
    4
 70
    1
 43
0
 10
-152
 20
152
 10
152
 20
152
 10
152
 20
-152
 10
-152
 20
-152
  0
LWPOLYLINE
  5
99
100
AcDbEntity
  8
0
  6
CONTINUOUS
 62
    7
370
    0
100
AcDbPolyline
 90
    4
 70
    1
 43
0
 10
-154
 20
154
 10
154
 20
154
 10
154
 20
-154
 10
-154
 20
-154
  0
LWPOLYLINE
  5
9A
100
AcDbEntity
  8
0
  6
CONTINUOUS
 62
    7
370
    0
100
AcDbPolyline
 90
    4
 70
    1
 43
0
 10
-156
 20
156
 10
156
 20
156
 10
156
 20
-156
 10
-156
 20
-156
  0
LWPOLYLINE
  5
9B
100
AcDbEntity
  8
0
  6
CONTINUOUS
 62
    7
370
    0
100
AcDbPolyline
 90
    4
 70
    1
 43
0
 10
-158
 20
158
 10
158
 20
158
 10
158
 20
-158
 10
-158
 20
-158
  0
LWPOLYLINE
  5
9C
100
AcDbEntity
  8
0
  6
CONTINUOUS
 62
    7
370
    0
100
AcDbPolyline
 90
    4
 70
    1
 43
0
 10
-160
 20
160
 10
160
 20
160
 10
160
 20
-160
 10
-160
 20
-160
  0
LWPOLYLINE
  5
9D
100
AcDbEntity
  8
0
  6
CONTINUOUS
 62
    7
370
    0
100
AcDbPolyline
 90
    4
 70
    1
 43
0
 10
-162
 20
162
 10
162
 20
162
 10
162
 20
-162
 10
-162
 20
-162
  0
LWPOLYLINE
  5
9E
100
AcDbEntity
  8
0
  6
CONTINUOUS
 62
    7
370
    0
100
AcDbPolyline
 90
    4
 70
    1
 43
0
 10
-164
 20
164
 10
164
 20
164
 10
164
 20
-164
 10
-164
 20
-164
  0
LWPOLYLINE
  5
9F
100
AcDbEntity
  8
0
  6
CONTINUOUS
 62
    7
370
    0
100
AcDbPolyline
 90
    4
 70
    1
 43
0
 10
-166
 20
166
 10
166
 20
166
 10
166
 20
-166
 10
-166
 20
-166
  0
LWPOLYLINE
  5
A0
100
AcDbEntity
  8
0
  6
CONTINUOUS
 62
    7
370
    0
100
AcDbPolyline
 90
    4
 70
    1
 43
0
 10
-168
 20
168
 10
168
 20
168
 10
168
 20
-168
 10
-168
 20
-168
  0
LWPOLYLINE
  5
A1
100
AcDbEntity
  8
0
  6
CONTINUOUS
 62
    7
370
    0
100
AcDbPolyline
 90
    4
 70
    1
 43
0
 10
-170
 20
170
 10
170
 20
170
 10
170
 20
-170
 10
-170
 20
-170
  0
LWPOLYLINE
  5
A2
100
AcDbEntity
  8
0
  6
CONTINUOUS
 62
    7
370
    0
100
AcDbPolyline
 90
    4
 70
    1
 43
0
 10
-172
 20
172
 10
172
 20
172
 10
172
 20
-172
 10
-172
 20
-172
  0
LWPOLYLINE
  5
A3
100
AcDbEntity
  8
0
  6
CONTINUOUS
 62
    7
370
    0
100
AcDbPolyline
 90
    4
 70
    1
 43
0
 10
-174
 20
174
 10
174
 20
174
 10
174
 20
-174
 10
-174
 20
-174
  0
LWPOLYLINE
  5
A4
100
AcDbEntity
  8
0
  6
CONTINUOUS
 62
    7
370
    0
100
AcDbPolyline
 90
    4
 70
    1
 43
0
 10
-176
 20
176
 10
176
 20
176
 10
176
 20
-176
 10
-176
 20
-176
  0
LWPOLYLINE
  5
A5
100
AcDbEntity
  8
0
  6
CONTINUOUS
 62
    7
370
    0
100
AcDbPolyline
 90
    4
 70
    1
 43
0
 10
-178
 20
178
 10
178
 20
178
 10
178
 20
-178
 10
-178
 20
-178
  0
LWPOLYLINE
  5
A6
100
AcDbEntity
  8
0
  6
CONTINUOUS
 62
    7
370
    0
100
AcDbPolyline
 90
    4
 70
    1
 43
0
 10
-180
 20
180
 10
180
 20
180
 10
180
 20
-180
 10
-180
 20
-180
  0
LWPOLYLINE
  5
A7
100
AcDbEntity
  8
0
  6
CONTINUOUS
 62
    7
370
    0
100
AcDbPolyline
 90
    4
 70
    1
 43
0
 10
-182
 20
182
 10
182
 20
182
 10
182
 20
-182
 10
-182
 20
-182
  0
LWPOLYLINE
  5
A8
100
AcDbEntity
  8
0
  6
CONTINUOUS
 62
    7
370
    0
100
AcDbPolyline
 90
    4
 70
    1
 43
0
 10
-184
 20
184
 10
184
 20
184
 10
184
 20
-184
 10
-184
 20
-184
  0
LWPOLYLINE
  5
A9
100
AcDbEntity
  8
0
  6
CONTINUOUS
 62
    7
370
    0
100
AcDbPolyline
 90
    4
 70
    1
 43
0
 10
-186
 20
186
 10
186
 20
186
 10
186
 20
-186
 10
-186
 20
-186
  0
LWPOLYLINE
  5
AA
100
AcDbEntity
  8
0
  6
CONTINUOUS
 62
    7
370
    0
100
AcDbPolyline
 90
    4
 70
    1
 43
0
 10
-188
 20
188
 10
188
 20
188
 10
188
 20
-188
 10
-188
 20
-188
  0
LWPOLYLINE
  5
AB
100
AcDbEntity
  8
0
  6
CONTINUOUS
 62
    7
370
    0
100
AcDbPolyline
 90
    4
 70
    1
 43
0
 10
-190
 20
190
 10
190
 20
190
 10
190
 20
-190
 10
-190
 20
-190
  0
LWPOLYLINE
  5
AC
100
AcDbEntity
  8
0
  6
CONTINUOUS
 62
    7
370
    0
100
AcDbPolyline
 90
    4
 70
    1
 43
0
 10
-192
 20
192
 10
192
 20
192
 10
192
 20
-192
 10
-192
 20
-192
  0
LWPOLYLINE
  5
AD
100
AcDbEntity
  8
0
  6
CONTINUOUS
 62
    7
370
    0
100
AcDbPolyline
 90
    4
 70
    1
 43
0
 10
-194
 20
194
 10
194
 20
194
 10
194
 20
-194
 10
-194
 20
-194
  0
LWPOLYLINE
  5
AE
100
AcDbEntity
  8
0
  6
CONTINUOUS
 62
    7
370
    0
100
AcDbPolyline
 90
    4
 70
    1
 43
0
 10
-196
 20
196
 10
196
 20
196
 10
196
 20
-196
 10
-196
 20
-196
  0
LWPOLYLINE
  5
AF
100
AcDbEntity
  8
0
  6
CONTINUOUS
 62
    7
370
    0
100
AcDbPolyline
 90
    4
 70
    1
 43
0
 10
-198
 20
198
 10
198
 20
198
 10
198
 20
-198
 10
-198
 20
-198
  0
LWPOLYLINE
  5
B0
100
AcDbEntity
  8
0
  6
CONTINUOUS
 62
    7
370
    0
100
AcDbPolyline
 90
    4
 70
    1
 43
0
 10
-200
 20
200
 10
200
 20
200
 10
200
 20
-200
 10
-200
 20
-200
  0
LWPOLYLINE
  5
B1
100
AcDbEntity
  8
0
  6
CONTINUOUS
 62
    7
370
    0
100
AcDbPolyline
 90
    4
 70
    1
 43
0
 10
-202
 20
202
 10
202
 20
202
 10
202
 20
-202
 10
-202
 20
-202
  0
ENDSEC
  0
SECTION
  2
OBJECTS
  0
DICTIONARY
  5
C
330
0
100
AcDbDictionary
281
    1
  3
ACAD_GROUP
350
D
  0
DICTIONARY
  5
D
330
C
100
AcDbDictionary
281
    1
  0
ENDSEC
  0
EOF
