<?xml version="1.0" encoding="UTF-8" standalone="no"?>
<!-- Created with Inkscape (http://www.inkscape.org/) -->

<svg
   xmlns:dc="http://purl.org/dc/elements/1.1/"
   xmlns:cc="http://creativecommons.org/ns#"
   xmlns:rdf="http://www.w3.org/1999/02/22-rdf-syntax-ns#"
   xmlns:svg="http://www.w3.org/2000/svg"
   xmlns="http://www.w3.org/2000/svg"
   xmlns:sodipodi="http://sodipodi.sourceforge.net/DTD/sodipodi-0.dtd"
   xmlns:inkscape="http://www.inkscape.org/namespaces/inkscape"
   width="306.28546mm"
   height="299.9502mm"
   viewBox="0 0 306.28546 299.95019"
   version="1.1"
   id="svg8"
   inkscape:version="0.92.3 (2405546, 2018-03-11)"
   sodipodi:docname="pattern_spiral.svg">
  <defs
     id="defs2" />
  <sodipodi:namedview
     id="base"
     pagecolor="#ffffff"
     bordercolor="#666666"
     borderopacity="1.0"
     inkscape:pageopacity="0.0"
     inkscape:pageshadow="2"
     inkscape:zoom="0.35"
     inkscape:cx="400"
     inkscape:cy="560"
     inkscape:document-units="mm"
     inkscape:current-layer="layer1"
     showgrid="false"
     fit-margin-top="0"
     fit-margin-left="0"
     fit-margin-right="0"
     fit-margin-bottom="0" />
  <metadata
     id="metadata5">
    <rdf:RDF>
      <cc:Work
         rdf:about="">
        <dc:format>image/svg+xml</dc:format>
        <dc:type
           rdf:resource="http://purl.org/dc/dcmitype/StillImage" />
        <dc:title></dc:title>
      </cc:Work>
    </rdf:RDF>
  </metadata>
  <g
     inkscape:label="Layer 1"
     inkscape:groupmode="layer"
     id="layer1"
     transform="translate(105.34434,60.975756)">
    <path
       sodipodi:type="spiral"
       style="fill:none;fill-rule:evenodd;stroke:#000000;stroke-width:0.26458332px;stroke-linecap:butt;stroke-linejoin:miter;stroke-opacity:1"
       id="path815"
       sodipodi:cx="44.601189"
       sodipodi:cy="92.136902"
       sodipodi:expansion="10"
       sodipodi:revolution="120"
       sodipodi:radius="158.42561"
       sodipodi:argument="-18.064157"
       sodipodi:t0="0.62900001"
       d="M 43.387682,91.195597 C 43.896087,90.510841 44.892809,90.376664 45.574139,90.882598 46.281835,91.408111 46.420487,92.438287 45.89752,93.142453 45.354384,93.873777 44.289746,94.017038 43.562057,93.476524 42.806397,92.915233 42.65839,91.8151 43.216979,91.063184 43.796968,90.282462 44.933658,90.129566 45.710525,90.706773 46.517056,91.30602 46.674984,92.480356 46.078603,93.282917 45.459525,94.116021 44.246424,94.27913 43.417407,93.663004 42.556944,93.023506 42.388502,91.770492 43.02496,90.914237 43.685481,90.02561 44.979586,89.851677 45.863882,90.509069 46.781501,91.191234 46.961085,92.527639 46.282141,93.440799 45.577696,94.388259 44.197752,94.573658 43.25488,93.872529 42.27671,93.145151 42.085327,91.720394 42.809291,90.746946 43.560272,89.737171 45.031147,89.539631 46.036062,90.287098 47.078357,91.062368 47.282232,92.580701 46.510578,93.617995 45.710314,94.693749 44.14315,94.904142 43.07254,94.107598 41.962363,93.281617 41.745266,91.664213 42.567419,90.559328 43.419859,89.41374 45.088948,89.189747 46.229093,90.038248 47.411105,90.917907 47.642191,92.640162 46.766584,93.816577 45.858926,95.036053 44.081985,95.274432 42.868266,94.370942 41.610261,93.434486 41.364382,91.601302 42.29655,90.349217 43.262624,89.051592 45.15365,88.797999 46.445188,89.759664 47.783554,90.756197 48.045076,92.706701 47.053078,94.038807 46.025225,95.419062 44.013565,95.688735 42.639746,94.665546 41.216427,93.60549 40.938374,91.530952 41.993634,90.114249 43.086799,88.64666 45.225977,88.359994 46.686765,89.448228 48.19986,90.575428 48.495378,92.781054 47.373246,94.287159 46.211059,95.847024 43.937134,96.151641 42.384452,94.994664 40.776518,93.796515 40.462552,91.452393 41.655345,89.851841 42.890453,88.19451 45.306717,87.870937 46.956463,89.100541 48.664553,90.373632 48.997996,92.864029 47.730562,94.564325 46.418441,96.32457 43.851869,96.668154 42.099633,95.361845 40.285806,94.00962 39.931805,91.364783 41.278057,89.559183 42.671486,87.690309 45.39673,87.325607 47.257152,88.7129 49.182571,90.14866 49.558264,92.956503 48.128809,94.873241 46.649565,96.856741 43.756875,97.243722 41.782292,95.770954 39.739139,94.247043 39.340566,91.267207 40.857824,89.233212 42.427611,87.128797 45.496949,86.71832 47.59196,88.281273 49.759286,89.898176 50.181986,93.059429 48.572102,95.217099 46.906815,97.449022 43.651177,97.884273 41.429168,96.226193 39.130918,94.511222 38.682783,91.158671 40.390353,88.8706 42.156338,86.504256 45.608391,86.042895 47.964286,87.80128 50.400535,89.61964 50.875473,93.173846 49.064915,95.599368 47.192785,98.107376 43.533715,98.596248 41.036718,96.732129 38.455056,94.804803 37.951881,91.038092 39.870984,88.467731 41.854966,85.810472 45.73216,85.29262 48.37782,87.268162 51.112661,89.310295 51.645575,93.30088 49.612105,96.023818 47.510292,98.838274 43.40334,99.386642 40.601097,97.293721 37.704947,95.130661 37.140721,90.904298 39.294656,88.020679 41.520562,85.040705 45.869453,84.460211 48.83657,86.676754 51.902543,88.967146 52.499726,93.441752 50.218943,96.494536 47.862388,99.648737 43.258805,100.26304 40.118135,97.916344 36.873428,95.491912 36.241564,90.756016 38.655882,87.525188 41.149946,84.187645 46.021568,83.53777 49.344875,86.021458 52.777639,88.58695 53.445985,93.597788 50.891138,97.015951 48.252384,100.54637 43.098759,101.23366 39.583311,98.605826 35.952737,95.891932 35.246023,90.591868 37.948719,86.97665 40.739673,83.243375 46.189911,82.516743 49.90744,85.296213 53.746024,88.166192 54.493077,93.770421 51.634875,97.59286 48.683865,101.53942 42.921739,102.30741 38.991733,99.368474 34.934473,96.334378 34.145022,90.410363 37.166735,86.370073 40.286016,82.199326 46.376002,81.387873 50.529354,84.494458 54.816437,87.701071 55.650441,93.961201 52.456845,98.230454 49.160707,102.63679 42.726165,103.4939 38.338109,100.21111 33.809551,96.823202 32.928744,90.209888 36.302974,85.700062 39.784943,81.046235 46.581486,80.141151 51.216117,83.609101 55.998322,87.187476 56.928283,94.171806 53.364277,98.934339 49.6871,103.8481 42.510327,104.80355 37.616722,101.1411 32.568153,97.362676 31.586584,89.988701 35.349919,84.960787 39.232099,79.774093 46.808139,78.765766 51.973672,82.632479 57.301883,86.620968 58.337623,94.404045 54.364981,99.710576 50.26757,105.18377 42.27238,106.24759 36.821396,102.16642 31.199679,97.957414 30.10709,89.744921 34.299459,84.145956 38.622782,78.372097 47.057879,77.250045 52.808433,81.556326 58.738128,85.996756 59.890357,94.659873 55.467385,100.5657 50.907,106.65501 42.010332,107.83814 35.945471,103.29564 29.692695,98.612392 28.477911,89.47652 33.142841,83.24878 37.951922,76.828596 47.332771,75.581403 53.727317,80.371724 60.31893,85.309673 61.599309,94.941394 56.680573,101.50676 51.610655,108.27391 41.722039,109.58827 34.981766,104.53802 28.034877,99.332972 26.685733,89.181311 31.870637,82.261943 37.214055,75.131034 47.635043,73.746277 54.737776,79.069065 62.057081,84.554151 63.478296,95.250879 58.014333,102.54134 52.384206,110.05351 41.405188,111.51204 33.922547,105.90354 26.212952,100.12493 24.716218,88.856939 30.472688,81.177569 36.403295,73.265891 47.967093,71.730061 55.847835,77.638003 63.966351,83.724197 65.542195,95.59077 59.479201,103.67762 53.233757,112.00783 41.057294,113.62462 32.759489,107.40293 24.212635,100.99449 22.553936,88.500873 28.938067,79.987179 35.513311,71.218619 48.331501,69.517041 57.066128,76.067411 66.061555,82.813363 67.807007,95.963693 61.086512,104.9244 54.165875,114.15196 40.67568,115.9423 31.483642,109.04772 22.018565,101.94834 20.182295,88.110388 27.255021,78.681658 34.537295,68.973578 48.73104,67.090325 58.401934,74.345323 68.358616,81.814716 70.289934,96.372471 62.848447,106.29111 55.187618,116.50211 40.257472,118.48259 30.085385,110.85032 19.614236,102.99365 17.583466,87.682559 25.410927,77.251213 33.467931,66.513965 49.168688,64.431761 59.865224,72.458885 70.874642,80.72081 73.00945,96.820137 64.778089,107.78792 56.306566,119.0757 39.799584,121.2643 28.554387,112.82404 16.981925,104.13814 14.738306,87.214242 23.392228,75.685329 32.297367,63.821739 49.647643,61.521865 61.4667,70.394302 73.627992,79.523652 75.985387,97.309946 66.889481,109.4257 57.530853,121.8914 39.298704,124.30761 26.879564,114.98318 14.102614,105.39011 11.626275,86.702069 21.18438,73.972723 31.017176,60.877547 50.171335,58.339735 63.217842,68.136773 76.63836,78.214668 79.239017,97.845387 69.197682,111.21615 58.869204,124.96927 38.75128,127.63416 25.049027,117.34306 10.955912,106.75841 8.225349,86.142425 18.77179,72.101302 29.618328,57.660643 50.743442,54.862962 65.130957,65.670433 79.926856,76.784669 82.793137,98.430202 71.718836,113.17178 60.330969,128.33077 38.153507,131.26716 23.050039,119.92011 7.5199709,108.25257 4.5119312,85.531439 16.137753,70.058107 28.091143,54.148799 51.3679,51.06754 67.219228,62.978286 83.51609,75.223808 86.672168,99.068396 74.470228,115.30601 61.926164,131.9989 37.50131,135.23143 20.868959,122.73191 3.7713939,109.88276 0.46075409,84.864965 13.26438,67.829261 26.42526,50.318217 52.048927,46.92777 69.496766,60.04214 87.430267,73.521548 90.902249,99.764257 77.470364,117.63318 63.665505,135.99829 36.790327,139.55357 18.491188,125.79727 -0.31485404,111.6599 -3.9552196,84.13857 10.132534,65.39992 24.609594,46.143438 52.791031,42.416155 71.97867,56.842531 91.695278,71.666615 95.511341,100.52237 80.739036,120.16866 65.560458,140.35526 36.015896,144.26201 15.901117,129.13632 -4.7655448,113.59564 -8.7649023,83.347511 6.7217487,62.754209 22.63229,41.59724 53.599035,37.503298 74.68108,53.358651 96.3388,69.646956 100.52934,101.34764 84.2974,122.92885 67.623278,145.09796 35.173032,149.38714 13.082058,132.77058 -9.6092899,115.70244 -13.999192,82.48672 3.0101561,59.875165 20.480683,36.650536 54.47809,32.157785 77.621242,49.568267 101.39041,67.449694 105.98817,102.24531 88.168058,125.93128 69.867053,150.25644 34.256411,154.96142 10.016191,136.72302 -14.876647,117.9936 -19.691087,81.550787 -1.0255986,56.744671 18.141246,31.272262 55.433696,26.346074 80.81757,45.44764 106.88167,65.06108 111.92193,103.22095 92.37514,129.19467 72.305761,155.86279 33.260352,161.0195 6.684491,141.01817 -20.600233,120.48334 -25.875811,80.533937 -5.4104416,53.343394 15.599541,25.42927 56.471723,20.032367 84.289714,40.971438 112.84627,62.466442 118.36701,104.28055 96.94439,132.73899 74.954311,161.95126 32.178793,167.59837 3.0666641,145.68218 -26.814841,123.18679 -32.590934,79.430009 -10.17096,49.650708 12.840172,19.086203 57.59843,13.178486 88.058632,36.112643 119.32015,59.650132 125.36219,105.43045 101.90326,136.58553 77.828603,168.55834 31.005271,174.73744 -0.85892748,150.74296 -33.557565,126.12012 -39.876512,78.232437 -15.335497,45.64463 9.8467221,12.205373 58.820488,5.7437323 92.14666,30.842458 126.3416,56.595473 132.94883,106.67744 107.28101,140.757 80.945581,175.72295 29.7329,182.47872 -5.11534,156.23022 -40.867927,129.30055 -47.77522,76.934226 -20.934248,41.301736 6.6017056,4.7466285 60.145005,-2.3152477 96.577594,25.130208 133.9514,53.284701 141.17096,108.02873 113.1088,145.27755 84.32329,183.48652 28.354346,190.86694 -9.727127,162.17562 -48.788014,132.7464 -56.332503,75.527926 -26.999367,36.597086 3.0865019,-3.3327801 61.579546,-11.044614 101.37677,18.943233 142.19297,49.698903 150.07548,109.49202 119.4198,150.17293 87.980941,191.89314 26.861805,199.94973 -14.720422,168.61285 -57.362619,136.47717 -65.596727,74.005611 -33.565071,31.504137 -0.71870398,-12.078344 63.132162,-20.493487 106.57113,12.246785 151.11252,45.817954 159.71227,111.07547 126.2493,155.47051 91.93897,200.98974 25.246975,209.77774 -20.123026,175.57776 -66.639387,140.51364 -75.619335,72.358851 -40.667753,25.994659 -4.8349872,-21.538447 64.811413,-30.714108 112.18936,5.0039046 160.75917,41.620454 170.13437,112.78778 133.63484,161.19939 96.219107,210.8262 23.501029,220.40485 -25.964494,183.10843 -76.668972,144.87786 -86.455021,70.578682 -48.346103,20.038641 -9.2847512,-31.764518 66.626398,-41.762005 118.26192,-2.824688 171.18514,37.083657 181.39817,114.63819 141.61628,167.39051 100.84445,221.45554 21.614588,231.88828 -32.276234,191.24537 -87.505197,149.59328 -98.161895,68.655584 -56.641227,13.604199 -14.091798,-42.811199 68.586785,-53.696174 124.82118,-11.280724 182.4459,32.183399 193.56354,116.6365 150.23599,174.07674 105.83952,232.93407 19.57769,244.28884 -39.091605,200.03158 -99.20522,154.68479 -110.80167,66.579445 -65.596777,6.6574711 -19.281405,-54.736511 70.702837,-66.579258 131.90151,-20.408511 194.60035,26.894023 206.69409,118.79315 159.53896,181.29295 111.23037,245.32156 17.379762,257.67107 -46.446014,209.5127 -111.82972,160.17883 -124.43986,64.339533 -75.259084,-0.83748124 -24.880398,-67.602034 72.985445,-80.477744 139.53939,-30.255074 207.71098,21.188302 220.85729,121.11917 169.57289,189.07617 165.57859,194.36903 161.25114,199.41024 156.62498,204.16076" />
  </g>
</svg>
