<?xml version="1.0" encoding="UTF-8" ?>
<!DOCTYPE svg PUBLIC "-//W3C//DTD SVG 1.1//EN" "http://www.w3.org/Graphics/SVG/1.1/DTD/svg11.dtd" >

<svg xmlns="http://www.w3.org/2000/svg" xmlns:xlink="http://www.w3.org/1999/xlink" version="1.1">

<metadata>
Font name:               EMS Brush
License:                 SIL Open Font License http://scripts.sil.org/OFL
Created by:              Sheldon B. Michaels
SVG font conversion by:  Windell H. Oskay
A derivative of:         Alex Brush
Designer:                Rob Leuschke, TypeSETit
Link:                    http://www.typesetit.com
Google font page:        https://fonts.google.com/specimen/Alex+Brush

</metadata>
<defs>
<font id="EMSBrush" horiz-adv-x="378" >
<font-face
font-family="EMS Brush"
units-per-em="1000"
ascent="800"
descent="-200"
cap-height="500"
x-height="300"
/>
<missing-glyph horiz-adv-x="378" />
<glyph unicode=" " glyph-name="space" horiz-adv-x="378" />
<glyph unicode="!" glyph-name="exclam" horiz-adv-x="369" d="M 502 529 L 392 403 L 326 306 L 288 243 L 263 195 L 253 154 M 187 40.9 L 187 3.15 L 222 0 L 228 37.8 L 187 40.9" />
<glyph unicode="&#x22;" glyph-name="quotedbl" horiz-adv-x="422" d="M 158 523 L 135 536 L 158 554 L 183 526 L 180 472 L 117 406 M 293 523 L 268 536 L 290 554 L 315 526 L 312 472 L 249 406" />
<glyph unicode="#" glyph-name="numbersign" horiz-adv-x="1017.4" d="M 438 756 L 183 53.6 M 743 747 L 488 56.7 M 9.45 280 L 813 280 M 126 548 L 904 551" />
<glyph unicode="$" glyph-name="dollar" horiz-adv-x="709" d="M 50.4 454 L 9.45 413 L 12.6 343 L 53.5 299 L 101 265 L 205 246 L 324 252 L 406 280 L 501 346 L 526 410 L 526 441 L 510 469 L 469 488 L 321 520 L 265 548 L 246 598 L 265 646 L 324 693 L 397 724 L 469 731 L 561 728 L 608 712 L 627 680 L 633 630 L 605 602 L 567 598 M 627 866 L 391 583 L 252 394 L 135 230 L 78.8 139 L 56.7 44.1 L 50.4 6.3" />
<glyph unicode="%" glyph-name="percent" horiz-adv-x="914" d="M 372 835 L 268 759 L 195 671 L 154 595 L 135 520 L 164 469 L 227 472 L 324 545 L 400 639 L 428 699 L 435 778 L 432 828 L 400 857 L 381 850 L 384 803 L 410 750 L 482 750 L 580 772 L 797 835 L 589 583 L 359 280 L 236 101 L 173 -28.4 L 154 -59.9 L 158 -132 M 690 176 L 665 255 L 624 284 L 495 183 L 425 81.9 L 387 0 L 391 -69.3 L 422 -104 L 466 -101 L 564 -28.4 L 646 72.4 L 690 176" />
<glyph unicode="&amp;" glyph-name="ampersand" horiz-adv-x="980" d="M 684 646 L 740 658 L 778 712 L 778 750 L 737 784 L 643 797 L 551 778 L 460 737 L 413 712 L 359 643 L 353 595 L 365 542 L 406 495 L 460 466 L 501 469 L 529 482 L 532 510 L 510 529 L 441 536 L 406 517 L 318 498 L 220 441 L 132 378 L 78.8 312 L 47.2 249 L 41 195 L 53.5 148 L 101 104 L 164 78.8 L 306 66.1 L 457 104 L 573 170 L 630 230 L 662 280 L 671 340 L 665 375 L 627 416 M 904 539 L 882 479 L 803 450 L 699 425 L 554 406 L 410 346 L 312 261 L 265 176 L 243 88.2 L 233 12.6 L 258 -81.9 L 337 -145 L 432 -183 L 491 -170 L 526 -145 L 548 -94.5" />
<glyph unicode="&apos;" glyph-name="quotesingle" horiz-adv-x="315" d="M 217 476 L 198 488 L 224 510 L 252 479 L 230 410 L 173 343" />
<glyph unicode="(" glyph-name="parenleft" horiz-adv-x="498" d="M 750 914 L 520 854 L 328 750 L 167 602 L 72.5 450 L 28.4 318 L 18.9 151 L 56.7 63 L 135 -15.8 L 183 -41 L 246 -44.1" />
<glyph unicode=")" glyph-name="parenright" horiz-adv-x="847" d="M 31.5 -50.4 L 189 -15.8 L 328 44.1 L 482 145 L 583 246 L 671 356 L 737 491 L 765 598 L 762 724 L 696 838 L 617 891 L 539 907" />
<glyph unicode="*" glyph-name="asterisk" horiz-adv-x="479" d="M 186 274 L 243 567 M 88.2 328 L 343 510 M 69.3 419 L 359 422 M 129 536 L 315 302" />
<glyph unicode="+" glyph-name="plus" horiz-adv-x="558" d="M 284 501 L 255 337 L 246 271 L 189 97.7 M 44.1 280 L 422 284" />
<glyph unicode="," glyph-name="comma" horiz-adv-x="277" d="M 132 9.45 L 110 28.4 L 154 44.1 L 154 -15.8 L 139 -53.5 L 85 -107" />
<glyph unicode="-" glyph-name="hyphen" horiz-adv-x="391" d="M 15.8 280 L 293 290" />
<glyph unicode="." glyph-name="period" horiz-adv-x="315" d="M 113 31.5 L 126 6.3 L 164 3.15 L 164 34.6 L 113 31.5" />
<glyph unicode="/" glyph-name="slash" horiz-adv-x="803" d="M 50.4 -161 L 37.8 -123 L 53.5 -53.5 L 113 66.1 L 189 186 L 315 353 L 416 491 L 510 611 L 630 759 L 687 828" />
<glyph unicode="0" glyph-name="zero" horiz-adv-x="740" d="M 762 756 L 652 772 L 536 740 L 397 655 L 246 523 L 151 410 L 91.4 284 L 59.9 170 L 63 56.7 L 94.5 6.3 L 180 -18.9 L 331 12.6 L 460 75.6 L 602 180 L 712 318 L 772 435 L 784 570 L 781 624 L 759 677 L 706 721 L 639 753 L 536 756" />
<glyph unicode="1" glyph-name="one" horiz-adv-x="485" d="M 265 558 L 381 614 L 469 665 L 529 721 L 542 728 L 154 44.1 L 22 -9.45 L 154 44.1 L 233 63 L 356 63" />
<glyph unicode="2" glyph-name="two" horiz-adv-x="857" d="M 315 536 L 476 636 L 636 699 L 734 718 L 806 709 L 841 649 L 828 567 L 778 482 L 699 394 L 576 290 L 299 117 L 205 63 L 113 15.8 L 53.5 -3.15 L 15.8 0 L 25.2 31.5 L 63 59.9 L 126 72.4 L 167 69.3 L 296 37.8 L 501 -34.6 L 621 -63 L 724 -50.4 L 784 -12.6 L 819 34.6 L 819 85.1 L 734 142" />
<glyph unicode="3" glyph-name="three" horiz-adv-x="936" d="M 570 693 L 491 627 L 658 696 L 772 724 L 860 702 L 879 649 L 869 592 L 832 539 L 743 488 L 665 450 L 583 441 L 491 419 L 491 438 L 702 432 L 784 416 L 844 359 L 850 296 L 797 192 L 718 104 L 617 50.4 L 482 0 L 302 -12.6 L 161 6.3 L 91.4 50.4 L 56.7 107 L 63 176 L 135 255 L 246 299 L 309 321" />
<glyph unicode="4" glyph-name="four" horiz-adv-x="740" d="M 413 -94.5 L 391 -44.1 L 397 53.6 L 435 170 L 491 287 L 586 438 L 684 589 L 803 750 L 636 614 L 56.7 208 L 31.5 214 L 34.6 236 L 104 252 L 180 268 L 255 271 L 328 265 L 400 246 L 523 211 L 608 186 L 696 186 L 734 208 L 759 252 L 759 315" />
<glyph unicode="5" glyph-name="five" horiz-adv-x="879" d="M 41 224 L -15.8 145 L -12.6 75.6 L 47.2 18.9 L 164 -15.8 L 284 -3.15 L 384 28.4 L 491 81.9 L 624 176 L 702 274 L 737 375 L 728 441 L 687 488 L 592 513 L 491 513 L 375 495 L 205 416 L 375 621 M 378 702 L 416 728 L 504 740 L 583 734 L 674 712 L 803 690 L 885 690 L 936 709 L 958 734 L 964 769" />
<glyph unicode="6" glyph-name="six" horiz-adv-x="813" d="M 280 44.1 L 312 120 L 403 208 L 513 261 L 614 274 L 684 249 L 699 202 L 677 129 L 595 66.1 L 491 9.45 L 331 -22.1 L 243 -28.4 L 183 -15.8 L 113 9.45 L 75.6 88.2 L 88.2 186 L 164 324 L 296 454 L 479 558 L 731 671 L 863 709 L 743 712" />
<glyph unicode="7" glyph-name="seven" horiz-adv-x="655" d="M 161 -18.9 L 167 78.8 L 230 186 L 321 312 L 447 441 L 608 576 L 822 747 L 762 696 L 636 734 L 507 756 L 362 759 L 274 737 L 202 687 L 161 595 L 173 655 L 180 715" />
<glyph unicode="8" glyph-name="eight" horiz-adv-x="791" d="M 756 646 L 762 690 L 724 734 L 614 750 L 495 721 L 416 677 L 369 614 L 365 564 L 410 520 L 472 488 L 554 454 L 652 400 L 687 350 L 702 290 L 680 220 L 627 173 L 536 97.7 L 425 40.9 L 280 -12.6 L 180 -25.2 L 110 -22.1 L 44.1 15.8 L 22 88.2 L 47.2 161 L 148 271 L 306 400 L 435 479 L 652 570 L 721 602 L 869 649" />
<glyph unicode="9" glyph-name="nine" horiz-adv-x="592" d="M 715 740 L 510 715 L 340 658 L 192 580 L 135 510 L 113 441 L 139 381 L 243 397 L 369 450 L 501 536 L 617 614 L 712 687 L 731 680 L 536 488 L 372 309 L 249 123 L 195 0 L 173 -78.8 L 173 -148 L 205 -195" />
<glyph unicode=":" glyph-name="colon" horiz-adv-x="337" d="M 186 277 L 183 246 L 224 246 L 227 274 L 186 277 M 139 34.6 L 142 6.3 L 173 6.3 L 180 34.6 L 139 34.6" />
<glyph unicode=";" glyph-name="semicolon" horiz-adv-x="331" d="M 176 284 L 176 246 L 211 243 L 217 280 L 176 284 M 154 12.6 L 132 28.4 L 167 44.1 L 180 -15.8 L 142 -72.5 L 110 -104" />
<glyph unicode="&#x3c;" glyph-name="less" horiz-adv-x="438" d="M 255 513 L 120 324 L 258 176" />
<glyph unicode="=" glyph-name="equal" horiz-adv-x="548" d="M 91.4 432 L 491 444 M 44.1 280 L 460 293" />
<glyph unicode="&#x3e;" glyph-name="greater" horiz-adv-x="441" d="M 120 504 L 258 362 L 123 164" />
<glyph unicode="?" glyph-name="question" horiz-adv-x="551" d="M 239 387 L 192 353 L 145 359 L 117 387 L 117 457 L 154 504 L 214 542 L 296 567 L 394 561 L 454 548 L 495 507 L 504 438 L 479 378 L 413 328 L 331 280 L 265 236 L 214 189 L 189 142 M 129 31.5 L 126 0 L 164 -6.3 L 170 28.4 L 129 31.5" />
<glyph unicode="@" glyph-name="at" horiz-adv-x="1099.3" d="M 608 598 L 545 614 L 460 573 L 353 491 L 284 419 L 249 356 L 233 290 L 249 249 L 293 224 L 356 243 L 425 302 L 488 369 L 636 564 L 668 554 L 551 397 L 517 318 L 513 277 L 539 239 L 583 233 L 649 271 L 781 381 L 895 507 L 980 627 L 989 724 L 967 784 L 898 841 L 810 866 L 658 854 L 532 816 L 378 740 L 249 646 L 154 542 L 78.8 416 L 44.1 284 L 53.5 164 L 110 75.6 L 202 31.5 L 356 28.4 L 536 69.3 L 671 142 L 784 227 L 888 334 L 942 428 L 954 523 L 948 605 L 882 687 L 794 734 L 702 762 L 586 756" />
<glyph unicode="A" glyph-name="A" horiz-adv-x="1313.6" d="M 608 350 L 668 438 L 693 532 L 671 598 L 621 627 L 532 627 L 391 573 L 236 454 L 132 321 L 56.7 198 L 18.9 85.1 L 28.4 -34.6 L 88.2 -117 L 195 -151 L 290 -135 L 432 -66.1 L 627 66.1 L 803 217 L 1105.7 517 L 1272.6 693 L 1326.2 747 L 1360.8 769 L 1351.3 709 L 1228.5 523 L 1162.3 403 L 1089.9 280 L 1042.7 148 L 1017.4 59.9 L 1008.0 -6.3 L 1008.0 -44.1 L 1026.9 -66.1 L 1058.4 -75.6 L 1086.8 -66.1 L 1111.9 -44.1 M 747 318 L 759 318 L 806 331 L 1253.7 324" />
<glyph unicode="B" glyph-name="B" horiz-adv-x="1077.3" d="M 202 406 L 158 466 L 173 545 L 230 627 L 359 715 L 501 772 L 680 803 L 832 803 L 932 788 L 1039.5 728 L 1083.6 646 L 1067.8 554 L 1036.3 482 L 954 435 L 863 413 L 715 400 L 639 403 L 643 425 L 803 375 L 863 340 L 910 261 L 917 186 L 879 97.7 L 819 34.6 L 734 -12.6 L 630 -50.4 L 517 -59.9 L 441 -53.5 L 375 -34.6 L 321 22.1 L 293 63 L 261 129 L 217 271 L 205 287 L 170 293 L 123 255 L 78.8 173 L 47.2 94.5 L 41 37.8 L 50.4 -9.45 L 78.8 -37.8 L 139 -22.1 L 208 40.9 L 340 167 L 479 337 L 655 558 L 747 649 L 794 680 L 832 680" />
<glyph unicode="C" glyph-name="C" horiz-adv-x="942" d="M 595 580 L 523 517 L 507 466 L 510 428 L 542 381 L 605 346 L 696 343 L 784 362 L 879 428 L 942 510 L 964 583 L 961 652 L 923 721 L 857 759 L 778 781 L 668 778 L 472 715 L 353 646 L 224 532 L 126 400 L 81.9 280 L 63 132 L 94.5 34.6 L 161 -37.8 L 312 -81.9 L 450 -69.3 L 529 -47.2 L 665 18.9 L 747 75.6 L 810 139" />
<glyph unicode="D" glyph-name="D" horiz-adv-x="1200.2" d="M 180 413 L 164 466 L 186 539 L 277 639 L 403 706 L 523 743 L 668 756 L 825 743 L 936 715 L 1033.2 633 L 1093.1 529 L 1108.8 391 L 1083.6 274 L 1023.8 173 L 945 85.1 L 847 9.45 L 715 -44.1 L 545 -72.5 L 441 -75.6 L 375 -66.1 L 302 -34.6 L 255 6.3 L 211 72.4 L 176 161 L 164 246 L 158 277 L 132 268 L 78.8 186 L 44.1 91.4 L 34.6 28.4 L 44.1 -34.6 L 75.6 -56.7 L 120 -41 L 192 9.45 L 331 151 L 510 375 L 617 510 L 734 624 L 775 649 L 810 649" />
<glyph unicode="E" glyph-name="E" horiz-adv-x="888" d="M 425 34.6 L 400 59.9 L 400 139 L 463 230 L 542 284 L 621 318 L 706 324 L 769 284 L 781 217 L 762 132 L 655 12.6 L 532 -56.7 L 419 -91.4 L 227 -101 L 107 -69.3 L 37.8 -22.1 L 0 53.6 L 0 117 L 44.1 202 L 123 290 L 220 359 L 346 419 L 438 450 L 529 472 L 602 482 L 668 466 L 690 444 L 690 428 L 655 391 L 589 381 L 526 397 L 466 425 L 406 463 L 384 523 L 381 592 L 438 677 L 532 734 L 636 781 L 740 800 L 850 788 L 901 756 L 914 696 L 882 643 L 854 624 L 803 621" />
<glyph unicode="F" glyph-name="F" horiz-adv-x="832" d="M 391 403 L 381 346 L 328 284 L 277 224 L 202 192 L 126 189 L 63 192 L 3.15 249 L 6.3 353 L 53.5 457 L 167 580 L 306 680 L 466 756 L 595 791 L 715 797 L 810 781 L 860 721 L 863 674 L 838 595 L 378 -18.9 L 324 -88.2 L 350 -97.6 M 438 277 L 788 280" />
<glyph unicode="G" glyph-name="G" horiz-adv-x="1071.0" d="M 652 602 L 652 517 L 699 466 L 772 450 L 876 491 L 951 536 L 992 608 L 989 668 L 898 740 L 740 756 L 510 699 L 287 580 L 154 469 L 69.3 372 L 15.8 280 L -3.15 189 L -6.3 123 L 53.5 15.8 L 161 -34.6 L 318 -47.2 L 476 -12.6 L 602 44.1 L 731 123 L 841 220 L 907 302 L 917 331 L 939 334 L 630 -170 M 476 306 L 576 337 L 696 350 L 1108.8 353" />
<glyph unicode="H" glyph-name="H" horiz-adv-x="1231.7" d="M 394 520 L 406 501 L 403 391 L 353 309 L 296 255 L 227 224 L 154 224 L 85 252 L 47.2 356 L 88.2 542 L 173 652 L 321 769 L 454 825 L 554 854 L 718 847 L 784 832 L 825 753 L 816 674 L 756 561 L 372 -63 M 274 151 L 350 211 L 432 230 L 592 224 L 740 205 L 904 208 L 1017.4 217 L 1089.9 239 M 1546.7 885 L 1398.6 775 L 1263.2 630 L 1140.3 476 L 1045.8 324 L 948 167 L 907 50.4 L 898 -25.2 L 904 -63 L 942 -88.2 L 989 -81.9 L 1008.0 -69.3 L 1061.6 -31.5" />
<glyph unicode="I" glyph-name="I" horiz-adv-x="772" d="M 158 271 L 139 202 L 158 151 L 214 123 L 296 148 L 346 205 L 403 280 L 428 356 L 428 460 L 413 488 L 331 523 L 220 491 L 142 422 L 69.3 280 L 47.2 198 L 41 91.4 L 69.3 9.45 L 101 -44.1 L 208 -91.4 L 315 -56.7 L 428 18.9 L 523 139 L 633 302 L 731 476 L 813 586 L 907 677 L 973 728 L 1039.5 734 L 1067.8 734 L 1036.3 784 L 942 832 L 781 828 L 611 734 L 545 636 L 526 551 L 548 469 L 608 410 L 740 375 L 835 391 L 885 419 L 901 447 L 901 495" />
<glyph unicode="J" glyph-name="J" horiz-adv-x="1071.0" d="M 536 107 L 573 173 L 589 252 L 573 296 L 536 346 L 450 365 L 372 359 L 255 306 L 148 208 L 81.9 88.2 L 78.8 -15.8 L 107 -91.4 L 164 -151 L 268 -164 L 384 -148 L 517 -97.6 L 649 -12.6 L 794 135 L 920 299 L 1061.6 526 L 1134.0 658 L 1190.7 778 L 1193.8 838 M 813 589 L 772 652 L 784 715 L 844 772 L 945 806 L 1061.6 828 L 1156.1 828 L 1253.7 806 L 1316.7 791 L 1360.8 762 L 1370.2 728" />
<glyph unicode="K" glyph-name="K" horiz-adv-x="1200.2" d="M 460 334 L 460 353 L 441 378 L 362 397 L 265 381 L 158 318 L 81.9 230 L 47.2 139 L 41 37.8 L 104 -63 L 230 -94.5 L 378 -53.5 L 501 25.2 L 598 120 L 674 198 L 788 356 L 879 507 L 961 662 L 995 728 L 1017.4 791 L 1020.6 825 L 999 828 L 857 772 L 740 706 L 677 639 L 643 592 L 636 548 L 649 529 L 680 526 L 715 526 M 1398.6 -56.7 L 1395.4 -104 L 1357.7 -151 L 1282.1 -158 L 1200.2 -139 L 1118.2 -78.8 L 995 50.4 L 879 233 L 819 375 L 803 416 L 765 438 L 731 435 L 690 403 L 668 369 L 665 302 L 687 268 L 731 246 L 797 258 L 888 315 L 1096.2 469 L 1319.8 643 L 1508.8 769 L 1672.7 850 L 1789.2 879 L 1871.1 885 L 1927.8 876 L 1946.7 860" />
<glyph unicode="L" glyph-name="L" horiz-adv-x="873" d="M 479 536 L 438 558 L 375 536 L 340 495 L 324 428 L 350 356 L 425 309 L 510 268 L 624 280 L 810 365 L 939 491 L 1026.9 643 L 1042.7 753 L 1001.7 806 L 945 822 L 838 781 L 693 636 L 592 482 L 306 101 L 211 0 L 135 -53.5 L 47.2 -50.4 L 15.8 12.6 L 31.5 126 L 69.3 211 L 120 277 L 142 290 L 296 28.4 L 454 -88.2 L 595 -129 L 737 -126 L 813 -91.4 L 844 -50.4 L 847 0" />
<glyph unicode="M" glyph-name="M" horiz-adv-x="1464.8" d="M 447 293 L 441 217 L 378 154 L 309 101 L 195 81.9 L 113 104 L 53.5 170 L 34.6 255 L 66.1 416 L 154 539 L 258 633 L 369 709 L 532 769 L 652 784 L 756 756 L 794 671 L 772 564 L 690 375 L 580 211 L 422 -41 L 447 -41 L 699 312 L 854 498 L 1042.7 674 L 1105.7 709 L 1156.1 706 L 1165.5 680 L 1137.2 602 L 1011.2 353 L 803 -9.45 L 983 211 L 1197.0 438 L 1537.2 728 L 1562.4 706 L 1534.1 655 L 1367.1 454 L 1222.2 217 L 1159.2 88.2 L 1140.3 -6.3 L 1159.2 -75.6 L 1209.6 -78.8 L 1316.7 -31.5" />
<glyph unicode="N" glyph-name="N" horiz-adv-x="1206.4" d="M 410 271 L 419 186 L 362 120 L 271 66.1 L 186 53.6 L 97.6 63 L 41 107 L 15.8 233 L 47.2 359 L 145 495 L 249 586 L 356 662 L 457 709 L 583 740 L 687 734 L 756 687 L 753 551 L 684 378 L 558 183 L 400 -72.5 L 432 -75.6 L 482 44.1 L 652 243 L 866 432 L 1042.7 558 L 1288.3 677 L 1326.2 649 L 1278.9 589 L 1152.9 444 L 989 205 L 920 40.9 L 907 -50.4 L 910 -101 L 929 -126 L 980 -110 L 1083.6 -59.9" />
<glyph unicode="O" glyph-name="O" horiz-adv-x="1004.8" d="M 718 252 L 728 252 L 882 384 L 961 476 L 999 567 L 992 671 L 882 753 L 731 765 L 551 728 L 375 633 L 208 491 L 113 350 L 53.5 195 L 53.5 63 L 113 -25.2 L 198 -75.6 L 406 -72.5 L 586 -9.45 L 772 113 L 926 258 L 967 400 L 945 523 L 854 614 L 750 652 L 608 658" />
<glyph unicode="P" glyph-name="P" horiz-adv-x="1370.2" d="M 441 117 L 479 173 L 491 233 L 450 302 L 359 321 L 268 315 L 167 243 L 85 151 L 63 69.3 L 69.3 -31.5 L 139 -117 L 280 -139 L 438 -94.5 L 545 -9.45 L 680 161 L 876 485 L 989 756 M 561 517 L 469 469 L 378 460 L 293 466 L 249 507 L 243 567 L 306 630 L 422 680 L 598 728 L 857 750 L 964 753 L 1165.5 724 L 1307.2 690 L 1426.9 617 L 1449.0 532 L 1423.8 463 L 1345.1 378 L 1206.4 296 L 1052.1 252 L 939 246 L 797 258" />
<glyph unicode="Q" glyph-name="Q" horiz-adv-x="1023.8" d="M 706 249 L 838 340 L 929 432 L 983 523 L 1001.7 608 L 973 684 L 891 747 L 734 759 L 536 721 L 318 595 L 154 435 L 88.2 309 L 50.4 198 L 56.7 88.2 L 85 -3.15 L 135 -50.4 L 258 -81.9 L 397 -72.5 L 586 -12.6 L 772 110 L 910 246 L 964 391 L 948 510 L 866 602 L 778 649 L 699 662 L 586 649 M 107 -107 L 113 -25.2 L 161 56.7 L 227 81.9 L 328 50.4 L 775 -227 L 866 -258 L 926 -236 L 945 -208 L 939 -158" />
<glyph unicode="R" glyph-name="R" horiz-adv-x="967" d="M 50.4 164 L -50.4 40.9 L -59.9 -31.5 L -37.8 -72.5 L 18.9 -104 L 88.2 -91.4 L 205 -31.5 L 343 94.5 L 677 501 L 743 570 L 781 586 L 810 586 L 816 570 M 419 463 L 394 419 L 302 350 L 198 318 L 154 318 L 113 334 L 101 410 L 164 526 L 268 617 L 438 699 L 646 743 L 813 743 L 951 712 L 1039.5 646 L 1074.2 570 L 1074.2 513 L 1030.1 444 L 948 391 L 806 353 L 671 343 L 532 356 L 479 356 L 463 381 L 488 403 L 529 391 L 561 274 L 643 -12.6 L 699 -94.5 L 762 -126 L 806 -123 L 844 -101 L 888 -6.3" />
<glyph unicode="S" glyph-name="S" horiz-adv-x="964" d="M 337 -126 L 252 -91.4 L 195 -37.8 L 139 50.4 L 117 135 L 107 211 L 97.6 255 L 66.1 274 L 34.6 268 L 3.15 230 L -12.6 202 L 0 104 L 50.4 22.1 L 126 -44.1 L 214 -66.1 L 463 -72.5 L 649 -9.45 L 772 66.1 L 841 170 L 844 239 L 822 284 L 775 321 L 643 350 L 482 387 L 394 444 L 372 491 L 372 548 L 428 624 L 526 684 L 668 734 L 800 737 L 926 728 L 983 699 L 1011.2 646 L 1017.4 589 L 999 545 L 961 517 L 876 507" />
<glyph unicode="T" glyph-name="T" horiz-adv-x="869" d="M 164 208 L 176 167 L 233 148 L 343 195 L 450 280 L 501 350 L 542 432 L 545 504 L 507 539 L 419 551 L 309 501 L 192 410 L 110 302 L 63 176 L 34.6 44.1 L 66.1 -75.6 L 123 -117 L 202 -135 L 315 -97.6 L 403 -31.5 L 513 94.5 L 630 268 L 772 472 L 854 558 L 907 602 L 948 605 L 989 598 M 1294.7 762 L 1313.6 709 L 1291.5 665 L 1241.1 643 L 1178.1 636 L 1108.8 646 L 1011.2 687 L 693 825 L 605 841 L 469 850 L 306 819 L 126 712 L 50.4 595 L 41 469 L 59.9 391 L 113 343 L 198 312 L 309 302" />
<glyph unicode="U" glyph-name="U" horiz-adv-x="1045.8" d="M 350 211 L 236 129 L 142 101 L 44.1 126 L 22 208 L 53.5 334 L 164 476 L 306 605 L 457 712 L 583 765 L 687 791 L 794 781 L 832 753 L 828 696 L 750 573 L 495 208 L 416 81.9 L 397 18.9 L 400 -6.3 L 432 -18.9 L 476 -12.6 L 545 28.4 L 718 173 L 1008.0 479 L 1143.4 646 L 1165.5 649 L 1178.1 630 L 1099.3 536 L 904 255 L 794 53.6 L 772 -6.3 L 794 -18.9 L 866 15.8 L 932 78.8" />
<glyph unicode="V" glyph-name="V" horiz-adv-x="888" d="M 346 321 L 346 249 L 302 186 L 224 139 L 164 129 L 63 170 L -9.45 268 L -12.6 397 L 41 529 L 151 671 L 290 750 L 413 791 L 545 781 L 617 747 L 665 668 L 668 564 L 627 422 L 472 63 L 428 -72.5 L 501 -31.5 L 573 44.1 L 976 517 L 1121.4 662 L 1247.4 759 L 1360.8 816 L 1414.3 828 L 1480.5 810" />
<glyph unicode="W" glyph-name="W" horiz-adv-x="1436.4" d="M 365 274 L 277 205 L 192 183 L 97.6 183 L 37.8 230 L 50.4 324 L 132 457 L 261 580 L 406 674 L 573 750 L 677 759 L 724 747 L 753 702 L 747 646 L 684 523 L 602 387 L 271 -81.9 L 258 -132 L 296 -117 L 419 28.4 L 614 261 L 825 454 L 973 570 L 1001.7 580 L 1017.4 570 L 976 529 L 882 375 L 791 173 L 765 85.1 L 759 -9.45 L 784 -59.9 L 882 -78.8 L 999 -44.1 L 1130.8 63 L 1285.2 224 L 1401.8 419 L 1449.0 526 L 1452.2 602 L 1445.8 649 L 1414.3 709 L 1382.8 731 L 1357.7 709 L 1360.8 680 L 1430.1 649 L 1477.3 652 L 1537.2 674" />
<glyph unicode="X" glyph-name="X" horiz-adv-x="876" d="M -81.9 261 L -148 151 L -167 50.4 L -161 -34.6 L -91.4 -85 L 18.9 -81.9 L 205 18.9 L 463 202 L 1008.0 665 L 1127.7 756 L 1200.2 794 L 1282.1 800 M 340 309 L 268 271 L 186 280 L 148 324 L 142 410 L 192 529 L 261 611 L 369 706 L 472 756 L 561 769 L 643 756 L 696 684 L 712 592 L 693 454 L 608 88.2 L 592 25.2 L 598 -22.1 L 633 -41 L 687 -12.6 L 844 142" />
<glyph unicode="Y" glyph-name="Y" horiz-adv-x="1134.0" d="M 394 306 L 261 211 L 139 195 L 63 230 L 41 369 L 110 517 L 236 630 L 394 724 L 573 788 L 684 797 L 750 762 L 765 690 L 718 605 L 450 255 L 394 154 L 381 94.5 L 387 18.9 L 447 6.3 L 526 53.6 L 630 139 L 1008.0 510 L 1077.3 621 L 1102.5 643 L 1127.7 649 L 684 -120 L 576 -249 L 466 -309 L 381 -315 L 334 -293 L 296 -217" />
<glyph unicode="Z" glyph-name="Z" horiz-adv-x="961" d="M 243 542 L 252 633 L 343 693 L 510 731 L 715 715 L 847 715 L 948 690 L 1064.7 668 L 1137.2 671 L 1137.2 693 M 1052.1 734 L 513 406 L 258 220 L 15.8 0 L -3.15 -12.6 L -53.6 -18.9 L -59.9 12.6 L 85 -6.3 L 249 15.8 L 510 34.6 L 643 22.1 L 756 -3.15 L 794 -31.5 L 803 -81.9 L 781 -126" />
<glyph unicode="[" glyph-name="bracketleft" horiz-adv-x="762" d="M 677 854 L 504 847 L 381 724 L 145 328 L 75.6 139 L 50.4 25.2 L 78.8 -9.45 L 284 -22.1" />
<glyph unicode="\" glyph-name="backslash" horiz-adv-x="743" d="M 53.5 828 L 334 488 L 558 170 L 662 22.1 L 693 -66.1 L 712 -117 L 702 -148" />
<glyph unicode="]" glyph-name="bracketright" horiz-adv-x="724" d="M 428 857 L 624 850 L 662 828 L 668 797 L 595 564 L 495 353 L 375 161 L 261 15.8 L 211 -12.6 L 44.1 -15.8" />
<glyph unicode="^" glyph-name="asciicircum" horiz-adv-x="501" d="M 94.5 406 L 236 520 L 387 406" />
<glyph unicode="_" glyph-name="underscore" horiz-adv-x="1039.5" d="M 6.3 -72.5 L 954 -72.5" />
<glyph unicode="`" glyph-name="grave" horiz-adv-x="328" d="M 53.5 460 L 180 365" />
<glyph unicode="a" glyph-name="a" horiz-adv-x="479" d="M 331 306 L 334 359 L 284 391 L 176 353 L 47.2 258 L -25.2 161 L -50.4 94.5 L -44.1 37.8 L -12.6 -6.3 L 47.2 6.3 L 120 63 L 202 145 L 359 331 L 224 126 L 227 40.9 L 261 3.15 L 315 18.9 L 397 85.1 L 447 145" />
<glyph unicode="b" glyph-name="b" horiz-adv-x="432" d="M 268 545 L 15.8 249 L -47.2 110 L -44.1 28.4 L 6.3 -3.15 L 91.4 37.8 L 176 132 L 217 198 L 265 280 L 271 340 L 246 353 L 214 315 L 217 239 L 271 167 L 328 117 L 372 120 L 400 145" />
<glyph unicode="c" glyph-name="c" horiz-adv-x="321" d="M 205 258 L 236 277 L 252 315 L 243 353 L 198 359 L 120 324 L 34.6 239 L -22 167 L -53.6 94.5 L -50.4 34.6 L -15.8 -22.1 L 94.5 -15.8 L 208 66.1 L 290 145" />
<glyph unicode="d" glyph-name="d" horiz-adv-x="545" d="M 334 346 L 268 391 L 154 343 L 72.5 277 L -9.45 183 L -53.6 110 L -59.9 28.4 L -9.45 -9.45 L 41 -3.15 L 129 66.1 L 211 167 L 400 425 L 504 558 L 532 561 L 469 479 L 261 214 L 233 154 L 224 81.9 L 239 12.6 L 287 -3.15 L 350 9.45 L 419 56.7 L 491 120 L 513 145" />
<glyph unicode="e" glyph-name="e" horiz-adv-x="318" d="M -12.6 151 L 56.7 139 L 180 198 L 252 265 L 271 306 L 258 346 L 202 356 L 69.3 280 L -22 173 L -56.7 81.9 L -37.8 3.15 L 47.2 -18.9 L 170 40.9 L 287 145" />
<glyph unicode="f" glyph-name="f" horiz-adv-x="362" d="M -299 -183 L -249 -249 L -167 -255 L -88.2 -192 L 9.45 -75.6 L 126 161 L 249 435 L 340 592 L 406 630 L 447 624 L 488 595 M 75.6 362 L 255 353 L 400 365" />
<glyph unicode="g" glyph-name="g" horiz-adv-x="444" d="M -176 -183 L -123 -246 L -31.5 -246 L 66.1 -173 L 195 22.1 L 296 202 L 372 324 L 340 318 L 176 117 L 81.9 34.6 L 18.9 -6.3 L -40.9 28.4 L -56.7 88.2 L -15.8 186 L 78.8 290 L 186 365 L 255 391 L 302 397 L 334 375 L 346 340" />
<glyph unicode="h" glyph-name="h" horiz-adv-x="428" d="M 261 576 L 88.2 353 L -113 3.15 L 15.8 158 L 135 252 L 220 312 L 312 353 L 337 346 L 261 239 L 202 148 L 180 91.4 L 180 40.9 L 202 15.8 L 239 3.15 L 397 145" />
<glyph unicode="i" glyph-name="i" horiz-adv-x="252" d="M 104 328 L -6.3 198 L -66.1 72.4 L -66.1 3.15 L -3.15 -25.2 L 123 44.1 L 220 145 M 183 466 L 186 432 L 217 438 L 217 457 L 183 466" />
<glyph unicode="j" glyph-name="j" horiz-adv-x="274" d="M -31.5 145 L 97.6 299 L 142 328 L 101 208 L -34.6 -37.8 L -132 -164 L -189 -227 L -246 -258 L -299 -252 L -350 -224 L -353 -217 M 189 466 L 189 432 L 220 432 L 230 463 L 230 463 L 230 463 L 148 472 L 107 476 L 189 466" />
<glyph unicode="k" glyph-name="k" horiz-adv-x="447" d="M 284 583 L 170 454 L 59.9 306 L -15.8 173 L -63 85.1 L -94.5 12.6 L 50.4 274 L 170 353 L 280 400 L 369 375 L 384 312 L 369 265 L 290 214 L 233 186 L 110 180 L 28.4 186 L 63 91.4 L 117 12.6 L 161 -15.8 L 236 -3.15 L 296 34.6 L 416 145" />
<glyph unicode="l" glyph-name="l" horiz-adv-x="271" d="M 258 570 L 37.8 274 L -53.6 107 L -59.9 34.6 L -9.45 -6.3 L 88.2 3.15 L 183 85.1 L 239 145" />
<glyph unicode="m" glyph-name="m" horiz-adv-x="778" d="M -31.5 145 L 59.9 233 L 151 353 L -3.15 40.9 L 3.15 15.8 L 126 161 L 246 271 L 343 353 L 403 369 L 391 324 L 258 22.1 L 328 123 L 428 239 L 529 302 L 608 350 L 662 359 L 542 192 L 501 94.5 L 517 18.9 L 580 18.9 L 690 85.1 L 750 145" />
<glyph unicode="n" glyph-name="n" horiz-adv-x="495" d="M -31.5 145 L 3.15 180 L 154 353 L 50.4 170 L 0 66.1 L 0 9.45 L 50.4 56.7 L 167 195 L 274 293 L 356 356 L 403 365 L 422 356 L 343 258 L 261 132 L 239 44.1 L 265 0 L 321 3.15 L 413 85.1 L 460 145" />
<glyph unicode="o" glyph-name="o" horiz-adv-x="340" d="M 243 346 L 236 236 L 180 135 L 88.2 34.6 L 12.6 -6.3 L -37.8 9.45 L -59.9 85.1 L -6.3 198 L 56.7 280 L 139 350 L 202 381 L 233 365 L 202 356 L 211 306 L 255 277 L 324 309" />
<glyph unicode="p" glyph-name="p" horiz-adv-x="428" d="M 69.3 252 L 173 324 L 258 346 L 318 337 L 356 284 L 353 233 L 321 167 L 258 85.1 L 158 25.2 L 69.3 -3.15 L -3.15 6.3 L -44.1 28.4 L -66.1 69.3 L -18.9 154 L 132 337 L -75.6 94.5 L -164 -63 L -189 -132 L -186 -189 L -161 -236" />
<glyph unicode="q" glyph-name="q" horiz-adv-x="410" d="M 328 268 L 158 97.7 L 28.4 15.8 L -44.1 3.15 L -72.4 25.2 L -69.3 101 L 12.6 195 L 113 268 L 236 315 L 284 324 L 312 321 L 315 284 L 129 47.2 L 72.5 -72.5 L 31.5 -154 L 25.2 -252 L 66.1 -309 L 117 -296 L 167 -246 L 214 -158 L 230 -78.8 L 211 -34.6 L 189 -22.1 L 113 -9.45" />
<glyph unicode="r" glyph-name="r" horiz-adv-x="485" d="M -31.5 145 L 91.4 290 L 164 381 L 198 432 L 208 463 L 192 469 L 161 438 L 145 400 L 151 356 L 183 321 L 239 324 L 299 353 L 195 230 L 151 129 L 142 50.4 L 167 0 L 227 -6.3 L 328 31.5 L 400 91.4 L 454 145" />
<glyph unicode="s" glyph-name="s" horiz-adv-x="432" d="M -31.5 145 L 101 280 L 299 463 L 318 463 L 290 425 L 265 381 L 243 224 L 217 101 L 195 56.7 L 167 22.1 L 88.2 12.6 L 47.2 28.4 L 9.45 69.3 L -12.6 164 L 9.45 66.1 L 44.1 31.5 L 120 15.8 L 183 28.4 L 265 50.4 L 359 101 L 444 186" />
<glyph unicode="t" glyph-name="t" horiz-adv-x="337" d="M 186 476 L 9.45 233 L -44.1 117 L -56.7 31.5 L -18.9 -9.45 L 56.7 -9.45 L 135 22.1 L 224 66.1 L 306 145 M -12.6 359 L 173 362 L 365 375" />
<glyph unicode="u" glyph-name="u" horiz-adv-x="523" d="M -31.5 145 L 34.6 202 L 142 331 L 173 350 L 66.1 195 L -9.45 66.1 L -15.8 25.2 L 3.15 -3.15 L 53.5 -12.6 L 101 15.8 L 173 85.1 L 419 350 L 438 356 L 441 331 L 268 123 L 249 50.4 L 261 6.3 L 312 -9.45 L 362 22.1 L 457 107 L 491 145" />
<glyph unicode="v" glyph-name="v" horiz-adv-x="346" d="M 50.4 353 L -59.9 75.6 L -53.6 31.5 L -31.5 3.15 L 142 120 L 246 214 L 309 309 L 324 365 L 318 410 L 306 435 L 261 463" />
<glyph unicode="w" glyph-name="w" horiz-adv-x="517" d="M 81.9 356 L -22 173 L -72.4 28.4 L -66.1 12.6 L 3.15 78.8 L 104 198 L 198 306 L 255 353 L 274 343 L 183 208 L 161 129 L 176 50.4 L 208 12.6 L 274 9.45 L 337 44.1 L 400 117 L 438 198 L 454 268 L 460 321 L 438 356" />
<glyph unicode="x" glyph-name="x" horiz-adv-x="529" d="M -31.5 145 L 78.8 280 L 161 391 L 189 419 L 217 428 L 208 176 L 217 47.2 L 233 3.15 L 265 -12.6 L 312 -12.6 L 422 66.1 L 498 145 M -59.9 -123 L 41 15.8 L 120 113 L 189 186 L 293 287 L 460 425 L 520 472" />
<glyph unicode="y" glyph-name="y" horiz-adv-x="435" d="M 126 331 L -9.45 176 L -72.4 81.9 L -81.9 37.8 L -56.7 12.6 L -15.8 9.45 L 47.2 37.8 L 186 151 L 331 261 L 381 318 L 271 126 L 176 -63 L 78.8 -198 L 22 -239 L -44.1 -258 L -81.9 -239 L -129 -195" />
<glyph unicode="z" glyph-name="z" horiz-adv-x="605" d="M 195 261 L 173 290 L 173 340 L 249 372 L 356 350 L 444 318 L 507 299 L 517 299 L 526 324 L 495 343 L 472 340 L 428 315 L 369 271 L 208 101 L 167 50.4 L 132 28.4 L 88.2 15.8 L 53.5 37.8 L 53.5 72.4 L 66.1 104 L 110 110 L 192 37.8 L 258 -6.3 L 353 -22.1 L 435 -9.45 L 491 22.1 L 507 59.9 L 507 101" />
<glyph unicode="{" glyph-name="braceleft" horiz-adv-x="444" d="M 406 762 L 315 740 L 258 662 L 243 561 L 224 460 L 198 384 L 154 350 L 113 328 L 34.6 321 L 126 287 L 164 249 L 161 195 L 132 22.1 L 120 -72.5 L 126 -120 L 173 -154 L 243 -161" />
<glyph unicode="|" glyph-name="bar" horiz-adv-x="302" d="M 148 734 L 158 472 L 132 227 L 110 50.4 L 91.4 -50.4 L 72.5 -126" />
<glyph unicode="}" glyph-name="braceright" horiz-adv-x="592" d="M 321 756 L 394 756 L 435 731 L 438 684 L 413 580 L 369 454 L 359 394 L 372 353 L 425 312 L 488 299 L 406 287 L 321 220 L 280 142 L 239 3.15 L 205 -85 L 151 -135 L 41 -158" />
<glyph unicode="~" glyph-name="asciitilde" horiz-adv-x="422" d="M 69.3 501 L 120 529 L 167 523 L 214 501 L 249 495 L 287 507 L 309 526" />
<glyph unicode="&#xa0;" glyph-name="nbspace" horiz-adv-x="378" />
<glyph unicode="&#xa1;" glyph-name="exclamdown" horiz-adv-x="369" d="M 113 2.84e-14 L 224 126 L 290 224 L 328 287 L 353 334 L 362 375 M 428 488 L 428 526 L 394 529 L 387 491 L 428 488" />
<glyph unicode="&#xa2;" glyph-name="cent" horiz-adv-x="242" d="M 205 258 L 236 277 L 252 315 L 243 353 L 198 359 L 120 324 L 34.6 239 L -22 167 L -53.6 94.5 L -50.4 34.6 L -15.8 -22.1 L 94.5 -15.8 L 208 66.1 L 290 145 M 68 537 L 75.6 328 L 55.4 131 L 37.8 -10.1 L 22.7 -90.7 L 7.56 -151" />
<glyph unicode="&#xa5;" glyph-name="yen" horiz-adv-x="460" d="M 78.8 702 L 47.2 693 L 50.4 649 L 97.6 498 L 151 365 L 164 324 L 142 192 L 117 113 L 94.5 66.1 L 107 63 L 135 117 L 132 148 M 164 337 L 170 337 L 274 428 L 391 551 L 450 633 L 491 715 M 53.5 173 L 34.6 151 L 227 158 M 53.5 299 L 34.6 277 L 227 284" />
<glyph unicode="&#xa6;" glyph-name="brokenbar" horiz-adv-x="90.7" d="M 215 220 L 217 142 L 210 68 L 203 15.1 L 198 -15.1 L 192 -37.8 M 215 693 L 217 614 L 210 541 L 203 488 L 198 457 L 192 435" />
<glyph unicode="&#xa8;" glyph-name="dieresis" horiz-adv-x="567" d=" M 172 553 L 185 528 L 223 525 L 223 556 L 172 553 M 450 562 L 463 537 L 501 534 L 501 566 L 450 562" />
<glyph unicode="&#xa9;" glyph-name="copyright" horiz-adv-x="791" d="M 126 592 L 233 643 L 362 674 L 479 671 L 570 665 L 665 621 L 743 539 L 759 438 L 737 296 L 687 192 L 592 101 L 444 31.5 L 306 25.2 L 186 66.1 L 104 154 L 69.3 277 L 91.4 428 L 135 523 L 195 598 L 287 693 L 391 747 L 495 772 L 558 747 L 545 715 L 510 649 M 487 435 L 490 436 L 498 450 L 493 484 L 461 509 L 419 515 L 353 509 L 298 477 L 257 435 L 227 365 L 220 304 L 235 235 L 269 200 L 317 175 L 370 169 L 428 178 L 479 202 L 502 217 L 520 239 L 520 247" />
<glyph unicode="&#xaa;" glyph-name="ordfeminine" horiz-adv-x="239" d="M 323 783 L 324 810 L 299 825 L 246 806 L 181 759 L 145 710 L 132 677 L 135 649 L 151 627 L 181 633 L 217 662 L 258 702 L 337 795 L 269 693 L 271 650 L 288 632 L 315 639 L 356 673 L 381 702" />
<glyph unicode="&#xab;" glyph-name="guillemotleft" horiz-adv-x="263" d="M 102 411 L 47.9 260 L 103 141 M 228 411 L 174 260 L 229 141" />
<glyph unicode="&#xae;" glyph-name="registered" horiz-adv-x="791" d="M 126 592 L 233 643 L 362 674 L 479 671 L 570 665 L 665 621 L 743 539 L 759 438 L 737 296 L 687 192 L 592 101 L 444 31.5 L 306 25.2 L 186 66.1 L 104 154 L 69.3 277 L 91.4 428 L 135 523 L 195 598 L 287 693 L 391 747 L 495 772 L 558 747 L 545 715 L 510 649 M 236 181 L 239 268 L 250 351 L 268 447 L 285 523 L 293 532 M 243 513 L 328 509 L 389 493 L 422 476 L 438 447 L 436 411 L 414 376 L 376 343 L 337 332 L 298 329 L 260 328 L 235 335 L 290 284 L 343 232 L 386 195 L 428 172 L 454 170 L 466 184 L 474 214 L 474 254" />
<glyph unicode="&#xb0;" glyph-name="degree" horiz-adv-x="362" d="M 357 643 L 360 643 L 406 682 L 430 710 L 441 737 L 439 768 L 406 793 L 361 797 L 307 785 L 254 757 L 204 714 L 176 672 L 158 626 L 158 586 L 176 559 L 201 544 L 264 545 L 318 564 L 373 601 L 420 644 L 432 687 L 425 724 L 398 751 L 367 763 L 324 765" />
<glyph unicode="&#xb1;" glyph-name="plusminus" horiz-adv-x="446" d="M 466 35.3 L 688 42.8 M 680 590 L 658 459 L 650 406 L 605 267 M 489 413 L 791 416" />
<glyph unicode="&#xb2;" glyph-name="twosuperior" horiz-adv-x="428" d="M 315 898 L 395 948 L 476 980 L 524 989 L 561 984 L 578 954 L 572 914 L 547 871 L 507 827 L 446 775 L 307 688 L 260 662 L 214 638 L 184 628 L 165 630 L 170 646 L 189 660 L 220 666 L 241 665 L 306 649 L 408 613 L 468 598 L 520 605 L 550 624 L 567 647 L 567 673 L 524 701" />
<glyph unicode="&#xb3;" glyph-name="threesuperior" horiz-adv-x="468" d="M 443 976 L 403 943 L 487 978 L 543 992 L 587 981 L 597 954 L 592 926 L 573 899 L 529 874 L 490 855 L 449 850 L 403 839 L 403 849 L 509 846 L 550 838 L 580 810 L 583 778 L 556 726 L 517 682 L 466 655 L 398 630 L 309 624 L 238 633 L 203 655 L 186 684 L 189 718 L 225 758 L 280 780 L 312 791" />
<glyph unicode="&#xb4;" glyph-name="acute" horiz-adv-x="378" d=" M 348 557 L 222 462" />
<glyph unicode="&#xb7;" glyph-name="middot" horiz-adv-x="378" d="M 212 340 L 227 310 L 272 306 L 272 344 L 212 340" />
<glyph unicode="&#xb9;" glyph-name="onesuperior" horiz-adv-x="243" d="M 290 909 L 348 937 L 392 962 L 422 991 L 428 994 L 235 652 L 169 625 L 235 652 L 274 662 L 335 662" />
<glyph unicode="&#xba;" glyph-name="ordmasculine" horiz-adv-x="362" d="M 357 643 L 360 643 L 406 682 L 430 710 L 441 737 L 439 768 L 406 793 L 361 797 L 307 785 L 254 757 L 204 714 L 176 672 L 158 626 L 158 586 L 176 559 L 201 544 L 264 545 L 318 564 L 373 601 L 420 644 L 432 687 L 425 724 L 398 751 L 367 763 L 324 765" />
<glyph unicode="&#xbb;" glyph-name="guillemotright" horiz-adv-x="265" d="M 47.9 403 L 103 290 L 49.1 131 M 174 403 L 229 290 L 175 131" />
<glyph unicode="&#xbc;" glyph-name="onequarter" horiz-adv-x="662" d="M 159 731 L 229 765 L 282 796 L 318 830 L 325 833 L 92.6 423 L 13.2 391 L 92.6 423 L 140 435 L 214 435 M 208 -161 L 195 -123 L 211 -53.5 L 271 66.1 L 346 186 L 472 353 L 573 491 L 668 611 L 788 759 L 844 828 M 720 -56.7 L 707 -26.5 L 711 32.1 L 733 102 L 767 172 L 824 263 L 883 353 L 954 450 L 854 369 L 507 125 L 491 129 L 493 142 L 535 151 L 580 161 L 626 163 L 669 159 L 713 147 L 786 127 L 837 112 L 890 112 L 913 125 L 928 151 L 928 189" />
<glyph unicode="&#xbd;" glyph-name="onehalf" horiz-adv-x="725" d="M 159 731 L 229 765 L 282 796 L 318 830 L 325 833 L 92.6 423 L 13.2 391 L 92.6 423 L 140 435 L 214 435 M 208 -161 L 195 -123 L 211 -53.5 L 271 66.1 L 346 186 L 472 353 L 573 491 L 668 611 L 788 759 L 844 828 M 662 321 L 758 382 L 854 420 L 913 431 L 956 425 L 977 389 L 970 340 L 939 289 L 892 236 L 818 174 L 652 69.9 L 595 37.8 L 541 9.45 L 505 -1.89 L 482 0 L 488 18.9 L 510 35.9 L 548 43.5 L 573 41.6 L 650 22.7 L 773 -20.8 L 845 -37.8 L 907 -30.2 L 943 -7.56 L 964 20.8 L 964 51 L 913 85" />
<glyph unicode="&#xbe;" glyph-name="threequarters" horiz-adv-x="905" d="M 342 813 L 295 773 L 395 815 L 463 832 L 516 818 L 527 786 L 522 752 L 499 720 L 446 690 L 399 667 L 350 662 L 295 648 L 295 660 L 421 656 L 471 646 L 507 612 L 510 575 L 478 512 L 431 459 L 370 427 L 289 397 L 181 389 L 96.4 401 L 54.8 427 L 34 461 L 37.8 503 L 81.3 550 L 147 576 L 185 590 M 208 -161 L 195 -123 L 211 -53.5 L 271 66.1 L 346 186 L 472 353 L 573 491 L 668 611 L 788 759 L 844 828 M 720 -56.7 L 707 -26.5 L 711 32.1 L 733 102 L 767 172 L 824 263 L 883 353 L 954 450 L 854 369 L 507 125 L 491 129 L 493 142 L 535 151 L 580 161 L 626 163 L 669 159 L 713 147 L 786 127 L 837 112 L 890 112 L 913 125 L 928 151 L 928 189" />
<glyph unicode="&#xbf;" glyph-name="questiondown" horiz-adv-x="551" d="M 381 173 L 428 208 L 476 202 L 504 173 L 504 104 L 466 56.7 L 406 18.9 L 324 -6.3 L 227 -2.84e-14 L 167 12.6 L 126 53.5 L 117 123 L 142 183 L 208 233 L 290 280 L 356 324 L 406 372 L 432 419 M 491 529 L 495 561 L 457 567 L 450 532 L 491 529" />
<glyph unicode="&#xc0;" glyph-name="Agrave" horiz-adv-x="1313.6" d="M 608 350 L 668 438 L 693 532 L 671 598 L 621 627 L 532 627 L 391 573 L 236 454 L 132 321 L 56.7 198 L 18.9 85.1 L 28.4 -34.6 L 88.2 -117 L 195 -151 L 290 -135 L 432 -66.1 L 627 66.1 L 803 217 L 1105.7 517 L 1272.6 693 L 1326.2 747 L 1360.8 769 L 1351.3 709 L 1228.5 523 L 1162.3 403 L 1089.9 280 L 1042.7 148 L 1017.4 59.9 L 1008.0 -6.3 L 1008.0 -44.1 L 1026.9 -66.1 L 1058.4 -75.6 L 1086.8 -66.1 L 1111.9 -44.1 M 747 318 L 759 318 L 806 331 L 1253.7 324 M 1152.6 1029.5 L 1278.6 935" />
<glyph unicode="&#xc1;" glyph-name="Aacute" horiz-adv-x="1313.6" d="M 608 350 L 668 438 L 693 532 L 671 598 L 621 627 L 532 627 L 391 573 L 236 454 L 132 321 L 56.7 198 L 18.9 85.1 L 28.4 -34.6 L 88.2 -117 L 195 -151 L 290 -135 L 432 -66.1 L 627 66.1 L 803 217 L 1105.7 517 L 1272.6 693 L 1326.2 747 L 1360.8 769 L 1351.3 709 L 1228.5 523 L 1162.3 403 L 1089.9 280 L 1042.7 148 L 1017.4 59.9 L 1008.0 -6.3 L 1008.0 -44.1 L 1026.9 -66.1 L 1058.4 -75.6 L 1086.8 -66.1 L 1111.9 -44.1 M 747 318 L 759 318 L 806 331 L 1253.7 324 M 1408.0 995 L 1282.0 900" />
<glyph unicode="&#xc2;" glyph-name="Acircumflex" horiz-adv-x="1313.6" d="M 608 350 L 668 438 L 693 532 L 671 598 L 621 627 L 532 627 L 391 573 L 236 454 L 132 321 L 56.7 198 L 18.9 85.1 L 28.4 -34.6 L 88.2 -117 L 195 -151 L 290 -135 L 432 -66.1 L 627 66.1 L 803 217 L 1105.7 517 L 1272.6 693 L 1326.2 747 L 1360.8 769 L 1351.3 709 L 1228.5 523 L 1162.3 403 L 1089.9 280 L 1042.7 148 L 1017.4 59.9 L 1008.0 -6.3 L 1008.0 -44.1 L 1026.9 -66.1 L 1058.4 -75.6 L 1086.8 -66.1 L 1111.9 -44.1 M 747 318 L 759 318 L 806 331 L 1253.7 324 M 1130.5 917 L 1218.4 937 L 1319.5 974 L 1420.7 1035.7 L 1455.9 1055.5 L 1442.7 994 L 1442.7 950 L 1460.2 921 L 1477.8 915" />
<glyph unicode="&#xc3;" glyph-name="Atilde" horiz-adv-x="1313.6" d="M 608 350 L 668 438 L 693 532 L 671 598 L 621 627 L 532 627 L 391 573 L 236 454 L 132 321 L 56.7 198 L 18.9 85.1 L 28.4 -34.6 L 88.2 -117 L 195 -151 L 290 -135 L 432 -66.1 L 627 66.1 L 803 217 L 1105.7 517 L 1272.6 693 L 1326.2 747 L 1360.8 769 L 1351.3 709 L 1228.5 523 L 1162.3 403 L 1089.9 280 L 1042.7 148 L 1017.4 59.9 L 1008.0 -6.3 L 1008.0 -44.1 L 1026.9 -66.1 L 1058.4 -75.6 L 1086.8 -66.1 L 1111.9 -44.1 M 747 318 L 759 318 L 806 331 L 1253.7 324 M 1197.4 946 L 1244.1 972 L 1287.9 967 L 1331.7 946 L 1363.8 940 L 1398.9 952 L 1419.3 970" />
<glyph unicode="&#xc4;" glyph-name="Adieresis" horiz-adv-x="1313.6" d="M 608 350 L 668 438 L 693 532 L 671 598 L 621 627 L 532 627 L 391 573 L 236 454 L 132 321 L 56.7 198 L 18.9 85.1 L 28.4 -34.6 L 88.2 -117 L 195 -151 L 290 -135 L 432 -66.1 L 627 66.1 L 803 217 L 1105.7 517 L 1272.6 693 L 1326.2 747 L 1360.8 769 L 1351.3 709 L 1228.5 523 L 1162.3 403 L 1089.9 280 L 1042.7 148 L 1017.4 59.9 L 1008.0 -6.3 L 1008.0 -44.1 L 1026.9 -66.1 L 1058.4 -75.6 L 1086.8 -66.1 L 1111.9 -44.1 M 747 318 L 759 318 L 806 331 L 1253.7 324 M 1095.2 954 L 1107.8 929 L 1145.6 926 L 1145.6 957 L 1095.2 954 M 1340.4 950 L 1353.0 925 L 1390.8 922 L 1390.8 954 L 1340.4 950" />
<glyph unicode="&#xc5;" glyph-name="Aring" horiz-adv-x="1313.6" d="M 608 350 L 668 438 L 693 532 L 671 598 L 621 627 L 532 627 L 391 573 L 236 454 L 132 321 L 56.7 198 L 18.9 85.1 L 28.4 -34.6 L 88.2 -117 L 195 -151 L 290 -135 L 432 -66.1 L 627 66.1 L 803 217 L 1105.7 517 L 1272.6 693 L 1326.2 747 L 1360.8 769 L 1351.3 709 L 1228.5 523 L 1162.3 403 L 1089.9 280 L 1042.7 148 L 1017.4 59.9 L 1008.0 -6.3 L 1008.0 -44.1 L 1026.9 -66.1 L 1058.4 -75.6 L 1086.8 -66.1 L 1111.9 -44.1 M 747 318 L 759 318 L 806 331 L 1253.7 324 M 1507.3 1020.6 L 1510.1 1020.6 L 1556.4 1060.3 L 1580.0 1087.7 L 1591.4 1115.1 L 1589.5 1146.3 L 1556.4 1170.9 L 1511.1 1174.6 L 1457.2 1163.3 L 1404.3 1134.9 L 1354.2 1092.4 L 1325.8 1049.9 L 1307.9 1003.6 L 1307.9 964 L 1325.8 937 L 1351.3 922 L 1413.7 923 L 1467.6 942 L 1523.3 979 L 1569.6 1022.5 L 1581.9 1065.0 L 1575.3 1101.9 L 1547.9 1129.3 L 1516.7 1140.6 L 1474.2 1142.5" />
<glyph unicode="&#xc8;" glyph-name="Egrave" horiz-adv-x="888" d="M 425 34.6 L 400 59.9 L 400 139 L 463 230 L 542 284 L 621 318 L 706 324 L 769 284 L 781 217 L 762 132 L 655 12.6 L 532 -56.7 L 419 -91.4 L 227 -101 L 107 -69.3 L 37.8 -22.1 L 0 53.6 L 0 117 L 44.1 202 L 123 290 L 220 359 L 346 419 L 438 450 L 529 472 L 602 482 L 668 466 L 690 444 L 690 428 L 655 391 L 589 381 L 526 397 L 466 425 L 406 463 L 384 523 L 381 592 L 438 677 L 532 734 L 636 781 L 740 800 L 850 788 L 901 756 L 914 696 L 882 643 L 854 624 L 803 621 M 653 1039.0 L 779 945" />
<glyph unicode="&#xc9;" glyph-name="Eacute" horiz-adv-x="888" d="M 425 34.6 L 400 59.9 L 400 139 L 463 230 L 542 284 L 621 318 L 706 324 L 769 284 L 781 217 L 762 132 L 655 12.6 L 532 -56.7 L 419 -91.4 L 227 -101 L 107 -69.3 L 37.8 -22.1 L 0 53.6 L 0 117 L 44.1 202 L 123 290 L 220 359 L 346 419 L 438 450 L 529 472 L 602 482 L 668 466 L 690 444 L 690 428 L 655 391 L 589 381 L 526 397 L 466 425 L 406 463 L 384 523 L 381 592 L 438 677 L 532 734 L 636 781 L 740 800 L 850 788 L 901 756 L 914 696 L 882 643 L 854 624 L 803 621 M 965 977 L 839 883" />
<glyph unicode="&#xca;" glyph-name="Ecircumflex" horiz-adv-x="888" d="M 425 34.6 L 400 59.9 L 400 139 L 463 230 L 542 284 L 621 318 L 706 324 L 769 284 L 781 217 L 762 132 L 655 12.6 L 532 -56.7 L 419 -91.4 L 227 -101 L 107 -69.3 L 37.8 -22.1 L 0 53.6 L 0 117 L 44.1 202 L 123 290 L 220 359 L 346 419 L 438 450 L 529 472 L 602 482 L 668 466 L 690 444 L 690 428 L 655 391 L 589 381 L 526 397 L 466 425 L 406 463 L 384 523 L 381 592 L 438 677 L 532 734 L 636 781 L 740 800 L 850 788 L 901 756 L 914 696 L 882 643 L 854 624 L 803 621 M 539 868 L 622 887 L 718 922 L 814 981 L 848 999 L 835 941 L 835 899 L 852 872 L 869 866" />
<glyph unicode="&#xcb;" glyph-name="Edieresis" horiz-adv-x="888" d="M 425 34.6 L 400 59.9 L 400 139 L 463 230 L 542 284 L 621 318 L 706 324 L 769 284 L 781 217 L 762 132 L 655 12.6 L 532 -56.7 L 419 -91.4 L 227 -101 L 107 -69.3 L 37.8 -22.1 L 0 53.6 L 0 117 L 44.1 202 L 123 290 L 220 359 L 346 419 L 438 450 L 529 472 L 602 482 L 668 466 L 690 444 L 690 428 L 655 391 L 589 381 L 526 397 L 466 425 L 406 463 L 384 523 L 381 592 L 438 677 L 532 734 L 636 781 L 740 800 L 850 788 L 901 756 L 914 696 L 882 643 L 854 624 L 803 621 M 646 966 L 658 941 L 696 937 L 696 969 L 646 966 M 900 989 L 912 964 L 950 961 L 950 993 L 900 989" />
<glyph unicode="&#xcc;" glyph-name="Igrave" horiz-adv-x="772" d="M 158 271 L 139 202 L 158 151 L 214 123 L 296 148 L 346 205 L 403 280 L 428 356 L 428 460 L 413 488 L 331 523 L 220 491 L 142 422 L 69.3 280 L 47.2 198 L 41 91.4 L 69.3 9.45 L 101 -44.1 L 208 -91.4 L 315 -56.7 L 428 18.9 L 523 139 L 633 302 L 731 476 L 813 586 L 907 677 L 973 728 L 1039.5 734 L 1067.8 734 L 1036.3 784 L 942 832 L 781 828 L 611 734 L 545 636 L 526 551 L 548 469 L 608 410 L 740 375 L 835 391 L 885 419 L 901 447 L 901 495 M 677 1012.9 L 803 918" />
<glyph unicode="&#xcd;" glyph-name="Iacute" horiz-adv-x="772" d="M 158 271 L 139 202 L 158 151 L 214 123 L 296 148 L 346 205 L 403 280 L 428 356 L 428 460 L 413 488 L 331 523 L 220 491 L 142 422 L 69.3 280 L 47.2 198 L 41 91.4 L 69.3 9.45 L 101 -44.1 L 208 -91.4 L 315 -56.7 L 428 18.9 L 523 139 L 633 302 L 731 476 L 813 586 L 907 677 L 973 728 L 1039.5 734 L 1067.8 734 L 1036.3 784 L 942 832 L 781 828 L 611 734 L 545 636 L 526 551 L 548 469 L 608 410 L 740 375 L 835 391 L 885 419 L 901 447 L 901 495 M 986 976 L 860 882" />
<glyph unicode="&#xce;" glyph-name="Icircumflex" horiz-adv-x="772" d="M 158 271 L 139 202 L 158 151 L 214 123 L 296 148 L 346 205 L 403 280 L 428 356 L 428 460 L 413 488 L 331 523 L 220 491 L 142 422 L 69.3 280 L 47.2 198 L 41 91.4 L 69.3 9.45 L 101 -44.1 L 208 -91.4 L 315 -56.7 L 428 18.9 L 523 139 L 633 302 L 731 476 L 813 586 L 907 677 L 973 728 L 1039.5 734 L 1067.8 734 L 1036.3 784 L 942 832 L 781 828 L 611 734 L 545 636 L 526 551 L 548 469 L 608 410 L 740 375 L 835 391 L 885 419 L 901 447 L 901 495 M 657 875 L 741 894 L 838 930 L 935 989 L 969 1008.1 L 956 949 L 956 907 L 973 880 L 990 873" />
<glyph unicode="&#xcf;" glyph-name="Idieresis" horiz-adv-x="772" d="M 158 271 L 139 202 L 158 151 L 214 123 L 296 148 L 346 205 L 403 280 L 428 356 L 428 460 L 413 488 L 331 523 L 220 491 L 142 422 L 69.3 280 L 47.2 198 L 41 91.4 L 69.3 9.45 L 101 -44.1 L 208 -91.4 L 315 -56.7 L 428 18.9 L 523 139 L 633 302 L 731 476 L 813 586 L 907 677 L 973 728 L 1039.5 734 L 1067.8 734 L 1036.3 784 L 942 832 L 781 828 L 611 734 L 545 636 L 526 551 L 548 469 L 608 410 L 740 375 L 835 391 L 885 419 L 901 447 L 901 495 M 705 980 L 717 955 L 755 952 L 755 984 L 705 980 M 914 1001.4 L 926 976 L 964 973 L 964 1004.5 L 914 1001.4" />
<glyph unicode="&#xd0;" glyph-name="Eth" horiz-adv-x="1200.2" d="M 268 280 L 545 290 M 180 413 L 164 466 L 186 539 L 277 639 L 403 706 L 523 743 L 668 756 L 825 743 L 936 715 L 1033.2 633 L 1093.1 529 L 1108.8 391 L 1083.6 274 L 1023.8 173 L 945 85.1 L 847 9.45 L 715 -44.1 L 545 -72.5 L 441 -75.6 L 375 -66.1 L 302 -34.6 L 255 6.3 L 211 72.4 L 176 161 L 164 246 L 158 277 L 132 268 L 78.8 186 L 44.1 91.4 L 34.6 28.4 L 44.1 -34.6 L 75.6 -56.7 L 120 -41 L 192 9.45 L 331 151 L 510 375 L 617 510 L 734 624 L 775 649 L 810 649" />
<glyph unicode="&#xd1;" glyph-name="Ntilde" horiz-adv-x="1206.4" d="M 410 271 L 419 186 L 362 120 L 271 66.1 L 186 53.6 L 97.6 63 L 41 107 L 15.8 233 L 47.2 359 L 145 495 L 249 586 L 356 662 L 457 709 L 583 740 L 687 734 L 756 687 L 753 551 L 684 378 L 558 183 L 400 -72.5 L 432 -75.6 L 482 44.1 L 652 243 L 866 432 L 1042.7 558 L 1288.3 677 L 1326.2 649 L 1278.9 589 L 1152.9 444 L 989 205 L 920 40.9 L 907 -50.4 L 910 -101 L 929 -126 L 980 -110 L 1083.6 -59.9 M 1029.6 970 L 1076.9 996 L 1121.3 990 L 1165.6 970 L 1198.1 964 L 1233.6 975 L 1254.3 993" />
<glyph unicode="&#xd2;" glyph-name="Ograve" horiz-adv-x="1004.8" d="M 718 252 L 728 252 L 882 384 L 961 476 L 999 567 L 992 671 L 882 753 L 731 765 L 551 728 L 375 633 L 208 491 L 113 350 L 53.5 195 L 53.5 63 L 113 -25.2 L 198 -75.6 L 406 -72.5 L 586 -9.45 L 772 113 L 926 258 L 967 400 L 945 523 L 854 614 L 750 652 L 608 658 M 737 1013.7 L 863 919" />
<glyph unicode="&#xd3;" glyph-name="Oacute" horiz-adv-x="1004.8" d="M 718 252 L 728 252 L 882 384 L 961 476 L 999 567 L 992 671 L 882 753 L 731 765 L 551 728 L 375 633 L 208 491 L 113 350 L 53.5 195 L 53.5 63 L 113 -25.2 L 198 -75.6 L 406 -72.5 L 586 -9.45 L 772 113 L 926 258 L 967 400 L 945 523 L 854 614 L 750 652 L 608 658 M 1039.2 1006.7 L 913 912" />
<glyph unicode="&#xd4;" glyph-name="Ocircumflex" horiz-adv-x="1004.8" d="M 718 252 L 728 252 L 882 384 L 961 476 L 999 567 L 992 671 L 882 753 L 731 765 L 551 728 L 375 633 L 208 491 L 113 350 L 53.5 195 L 53.5 63 L 113 -25.2 L 198 -75.6 L 406 -72.5 L 586 -9.45 L 772 113 L 926 258 L 967 400 L 945 523 L 854 614 L 750 652 L 608 658 M 578 871 L 662 890 L 758 926 L 853 984 L 887 1002.8 L 874 944 L 874 903 L 891 876 L 908 869" />
<glyph unicode="&#xd5;" glyph-name="Otilde" horiz-adv-x="1004.8" d="M 718 252 L 728 252 L 882 384 L 961 476 L 999 567 L 992 671 L 882 753 L 731 765 L 551 728 L 375 633 L 208 491 L 113 350 L 53.5 195 L 53.5 63 L 113 -25.2 L 198 -75.6 L 406 -72.5 L 586 -9.45 L 772 113 L 926 258 L 967 400 L 945 523 L 854 614 L 750 652 L 608 658 M 683 983 L 730 1010.0 L 775 1004.0 L 819 983 L 852 977 L 887 989 L 908 1007.0" />
<glyph unicode="&#xd6;" glyph-name="Odieresis" horiz-adv-x="1004.8" d="M 718 252 L 728 252 L 882 384 L 961 476 L 999 567 L 992 671 L 882 753 L 731 765 L 551 728 L 375 633 L 208 491 L 113 350 L 53.5 195 L 53.5 63 L 113 -25.2 L 198 -75.6 L 406 -72.5 L 586 -9.45 L 772 113 L 926 258 L 967 400 L 945 523 L 854 614 L 750 652 L 608 658 M 684 990 L 697 965 L 735 962 L 735 994 L 684 990 M 947 992 L 960 967 L 997 964 L 997 995 L 947 992" />
<glyph unicode="&#xd7;" glyph-name="multiply" horiz-adv-x="324" d="M 88.2 369 L 132 381 L 158 397 L 180 343 L 220 214 L 246 85.1 L 265 31.5 L 261 12.6 M 365 397 L 362 406 L 287 334 L 170 208 L 81.9 101 L 18.9 25.2 L -18.9 -25.2 L -37.8 -66.1" />
<glyph unicode="&#xd8;" glyph-name="Oslash" horiz-adv-x="1004.8" d="M 718 252 L 728 252 L 882 384 L 961 476 L 999 567 L 992 671 L 882 753 L 731 765 L 551 728 L 375 633 L 208 491 L 113 350 L 53.5 195 L 53.5 63 L 113 -25.2 L 198 -75.6 L 406 -72.5 L 586 -9.45 L 772 113 L 926 258 L 967 400 L 945 523 L 854 614 L 750 652 L 608 658 M 206 -262 L 192 -217 L 210 -136 L 280 3.69 L 369 144 L 516 339 L 634 501 L 744 641 L 885 814 L 951 896" />
<glyph unicode="&#xd9;" glyph-name="Ugrave" horiz-adv-x="1045.8" d="M 350 211 L 236 129 L 142 101 L 44.1 126 L 22 208 L 53.5 334 L 164 476 L 306 605 L 457 712 L 583 765 L 687 791 L 794 781 L 832 753 L 828 696 L 750 573 L 495 208 L 416 81.9 L 397 18.9 L 400 -6.3 L 432 -18.9 L 476 -12.6 L 545 28.4 L 718 173 L 1008.0 479 L 1143.4 646 L 1165.5 649 L 1178.1 630 L 1099.3 536 L 904 255 L 794 53.6 L 772 -6.3 L 794 -18.9 L 866 15.8 L 932 78.8 M 808 1012.4 L 934 918" />
<glyph unicode="&#xda;" glyph-name="Uacute" horiz-adv-x="1045.8" d="M 350 211 L 236 129 L 142 101 L 44.1 126 L 22 208 L 53.5 334 L 164 476 L 306 605 L 457 712 L 583 765 L 687 791 L 794 781 L 832 753 L 828 696 L 750 573 L 495 208 L 416 81.9 L 397 18.9 L 400 -6.3 L 432 -18.9 L 476 -12.6 L 545 28.4 L 718 173 L 1008.0 479 L 1143.4 646 L 1165.5 649 L 1178.1 630 L 1099.3 536 L 904 255 L 794 53.6 L 772 -6.3 L 794 -18.9 L 866 15.8 L 932 78.8 M 1147.3 965 L 1021.3 870" />
<glyph unicode="&#xdb;" glyph-name="Ucircumflex" horiz-adv-x="1045.8" d="M 350 211 L 236 129 L 142 101 L 44.1 126 L 22 208 L 53.5 334 L 164 476 L 306 605 L 457 712 L 583 765 L 687 791 L 794 781 L 832 753 L 828 696 L 750 573 L 495 208 L 416 81.9 L 397 18.9 L 400 -6.3 L 432 -18.9 L 476 -12.6 L 545 28.4 L 718 173 L 1008.0 479 L 1143.4 646 L 1165.5 649 L 1178.1 630 L 1099.3 536 L 904 255 L 794 53.6 L 772 -6.3 L 794 -18.9 L 866 15.8 L 932 78.8 M 854 985 L 948 1006.4 L 1055.9 1046.4 L 1164.1 1112.2 L 1201.7 1133.4 L 1187.6 1067.5 L 1187.6 1020.5 L 1206.4 990 L 1225.3 983" />
<glyph unicode="&#xdc;" glyph-name="Udieresis" horiz-adv-x="1045.8" d="M 350 211 L 236 129 L 142 101 L 44.1 126 L 22 208 L 53.5 334 L 164 476 L 306 605 L 457 712 L 583 765 L 687 791 L 794 781 L 832 753 L 828 696 L 750 573 L 495 208 L 416 81.9 L 397 18.9 L 400 -6.3 L 432 -18.9 L 476 -12.6 L 545 28.4 L 718 173 L 1008.0 479 L 1143.4 646 L 1165.5 649 L 1178.1 630 L 1099.3 536 L 904 255 L 794 53.6 L 772 -6.3 L 794 -18.9 L 866 15.8 L 932 78.8 M 835 947 L 848 922 L 886 919 L 886 950 L 835 947 M 1102.8 997 L 1115.4 971 L 1153.2 968 L 1153.2 1e+03 L 1102.8 997" />
<glyph unicode="&#xdd;" glyph-name="Yacute" horiz-adv-x="1134.0" d="M 394 306 L 261 211 L 139 195 L 63 230 L 41 369 L 110 517 L 236 630 L 394 724 L 573 788 L 684 797 L 750 762 L 765 690 L 718 605 L 450 255 L 394 154 L 381 94.5 L 387 18.9 L 447 6.3 L 526 53.6 L 630 139 L 1008.0 510 L 1077.3 621 L 1102.5 643 L 1127.7 649 L 684 -120 L 576 -249 L 466 -309 L 381 -315 L 334 -293 L 296 -217 M 1109.9 1025.8 L 984 931" />
<glyph unicode="&#xe0;" glyph-name="agrave" horiz-adv-x="479" d="M 331 306 L 334 359 L 284 391 L 176 353 L 47.2 258 L -25.2 161 L -50.4 94.5 L -44.1 37.8 L -12.6 -6.3 L 47.2 6.3 L 120 63 L 202 145 L 359 331 L 224 126 L 227 40.9 L 261 3.15 L 315 18.9 L 397 85.1 L 447 145 M 176 581 L 302 487" />
<glyph unicode="&#xe1;" glyph-name="aacute" horiz-adv-x="479" d="M 331 306 L 334 359 L 284 391 L 176 353 L 47.2 258 L -25.2 161 L -50.4 94.5 L -44.1 37.8 L -12.6 -6.3 L 47.2 6.3 L 120 63 L 202 145 L 359 331 L 224 126 L 227 40.9 L 261 3.15 L 315 18.9 L 397 85.1 L 447 145 M 393 595 L 267 500" />
<glyph unicode="&#xe2;" glyph-name="acircumflex" horiz-adv-x="479" d="M 331 306 L 334 359 L 284 391 L 176 353 L 47.2 258 L -25.2 161 L -50.4 94.5 L -44.1 37.8 L -12.6 -6.3 L 47.2 6.3 L 120 63 L 202 145 L 359 331 L 224 126 L 227 40.9 L 261 3.15 L 315 18.9 L 397 85.1 L 447 145 M 76.2 433 L 159 452 L 253 487 L 348 544 L 381 563 L 369 505 L 369 464 L 385 437 L 402 431" />
<glyph unicode="&#xe3;" glyph-name="atilde" horiz-adv-x="479" d="M 331 306 L 334 359 L 284 391 L 176 353 L 47.2 258 L -25.2 161 L -50.4 94.5 L -44.1 37.8 L -12.6 -6.3 L 47.2 6.3 L 120 63 L 202 145 L 359 331 L 224 126 L 227 40.9 L 261 3.15 L 315 18.9 L 397 85.1 L 447 145 M 131 476 L 175 501 L 216 495 L 257 476 L 287 471 L 320 482 L 339 498" />
<glyph unicode="&#xe4;" glyph-name="adieresis" horiz-adv-x="479" d="M 331 306 L 334 359 L 284 391 L 176 353 L 47.2 258 L -25.2 161 L -50.4 94.5 L -44.1 37.8 L -12.6 -6.3 L 47.2 6.3 L 120 63 L 202 145 L 359 331 L 224 126 L 227 40.9 L 261 3.15 L 315 18.9 L 397 85.1 L 447 145 M 172 584 L 185 559 L 223 556 L 223 587 L 172 584 M 430 550 L 443 525 L 481 522 L 481 553 L 430 550" />
<glyph unicode="&#xe5;" glyph-name="aring" horiz-adv-x="479" d="M 331 306 L 334 359 L 284 391 L 176 353 L 47.2 258 L -25.2 161 L -50.4 94.5 L -44.1 37.8 L -12.6 -6.3 L 47.2 6.3 L 120 63 L 202 145 L 359 331 L 224 126 L 227 40.9 L 261 3.15 L 315 18.9 L 397 85.1 L 447 145 M 404 643 L 407 643 L 454 682 L 477 710 L 489 737 L 487 768 L 454 793 L 408 797 L 354 785 L 301 757 L 251 714 L 223 672 L 205 626 L 205 586 L 223 559 L 249 544 L 311 545 L 365 564 L 421 601 L 467 644 L 479 687 L 472 724 L 445 751 L 414 763 L 371 765" />
<glyph unicode="&#xe8;" glyph-name="egrave" horiz-adv-x="318" d="M -12.6 151 L 56.7 139 L 180 198 L 252 265 L 271 306 L 258 346 L 202 356 L 69.3 280 L -22 173 L -56.7 81.9 L -37.8 3.15 L 47.2 -18.9 L 170 40.9 L 287 145 M 84.6 597 L 211 502" />
<glyph unicode="&#xe9;" glyph-name="eacute" horiz-adv-x="318" d="M -12.6 151 L 56.7 139 L 180 198 L 252 265 L 271 306 L 258 346 L 202 356 L 69.3 280 L -22 173 L -56.7 81.9 L -37.8 3.15 L 47.2 -18.9 L 170 40.9 L 287 145 M 299 584 L 173 490" />
<glyph unicode="&#xea;" glyph-name="ecircumflex" horiz-adv-x="318" d="M -12.6 151 L 56.7 139 L 180 198 L 252 265 L 271 306 L 258 346 L 202 356 L 69.3 280 L -22 173 L -56.7 81.9 L -37.8 3.15 L 47.2 -18.9 L 170 40.9 L 287 145 M 35 489 L 128 510 L 235 549 L 342 614 L 379 635 L 365 570 L 365 524 L 383 493 L 402 486" />
<glyph unicode="&#xeb;" glyph-name="edieresis" horiz-adv-x="318" d="M -12.6 151 L 56.7 139 L 180 198 L 252 265 L 271 306 L 258 346 L 202 356 L 69.3 280 L -22 173 L -56.7 81.9 L -37.8 3.15 L 47.2 -18.9 L 170 40.9 L 287 145 M 91 558 L 104 533 L 141 530 L 141 561 L 91 558 M 309 573 L 322 548 L 359 545 L 359 576 L 309 573" />
<glyph unicode="&#xec;" glyph-name="igrave" horiz-adv-x="252" d="M 104 328 L -6.3 198 L -66.1 72.4 L -66.1 3.15 L -3.15 -25.2 L 123 44.1 L 220 145  M 63.2 574 L 189 479" />
<glyph unicode="&#xed;" glyph-name="iacute" horiz-adv-x="252" d="M 104 328 L -6.3 198 L -66.1 72.4 L -66.1 3.15 L -3.15 -25.2 L 123 44.1 L 220 145  M 259 563 L 133 469" />
<glyph unicode="&#xee;" glyph-name="icircumflex" horiz-adv-x="252" d="M 104 328 L -6.3 198 L -66.1 72.4 L -66.1 3.15 L -3.15 -25.2 L 123 44.1 L 220 145  M 1.67 472 L 88.3 492 L 188 528 L 288 589 L 322 609 L 309 548 L 309 505 L 327 476 L 344 470" />
<glyph unicode="&#xef;" glyph-name="idieresis" horiz-adv-x="252" d="M 104 328 L -6.3 198 L -66.1 72.4 L -66.1 3.15 L -3.15 -25.2 L 123 44.1 L 220 145  M 19.6 582 L 32.2 557 L 70 554 L 70 586 L 19.6 582 M 330 552 L 343 527 L 381 524 L 381 555 L 330 552" />
<glyph unicode="&#xf1;" glyph-name="ntilde" horiz-adv-x="495" d="M -31.5 145 L 3.15 180 L 154 353 L 50.4 170 L 0 66.1 L 0 9.45 L 50.4 56.7 L 167 195 L 274 293 L 356 356 L 403 365 L 422 356 L 343 258 L 261 132 L 239 44.1 L 265 0 L 321 3.15 L 413 85.1 L 460 145 M 142 484 L 187 509 L 230 504 L 272 484 L 303 478 L 338 489 L 357 506" />
<glyph unicode="&#xf2;" glyph-name="ograve" horiz-adv-x="340" d="M 243 346 L 236 236 L 180 135 L 88.2 34.6 L 12.6 -6.3 L -37.8 9.45 L -59.9 85.1 L -6.3 198 L 56.7 280 L 139 350 L 202 381 L 233 365 L 202 356 L 211 306 L 255 277 L 324 309 M 92.4 594 L 218 500" />
<glyph unicode="&#xf3;" glyph-name="oacute" horiz-adv-x="340" d="M 243 346 L 236 236 L 180 135 L 88.2 34.6 L 12.6 -6.3 L -37.8 9.45 L -59.9 85.1 L -6.3 198 L 56.7 280 L 139 350 L 202 381 L 233 365 L 202 356 L 211 306 L 255 277 L 324 309 M 334 580 L 208 485" />
<glyph unicode="&#xf4;" glyph-name="ocircumflex" horiz-adv-x="340" d="M 243 346 L 236 236 L 180 135 L 88.2 34.6 L 12.6 -6.3 L -37.8 9.45 L -59.9 85.1 L -6.3 198 L 56.7 280 L 139 350 L 202 381 L 233 365 L 202 356 L 211 306 L 255 277 L 324 309 M 39 455 L 122 474 L 218 509 L 314 567 L 347 586 L 335 528 L 335 486 L 351 459 L 368 453" />
<glyph unicode="&#xf5;" glyph-name="otilde" horiz-adv-x="340" d="M 243 346 L 236 236 L 180 135 L 88.2 34.6 L 12.6 -6.3 L -37.8 9.45 L -59.9 85.1 L -6.3 198 L 56.7 280 L 139 350 L 202 381 L 233 365 L 202 356 L 211 306 L 255 277 L 324 309 M 103 474 L 149 499 L 192 494 L 235 474 L 267 468 L 301 479 L 321 497" />
<glyph unicode="&#xf6;" glyph-name="odieresis" horiz-adv-x="340" d="M 243 346 L 236 236 L 180 135 L 88.2 34.6 L 12.6 -6.3 L -37.8 9.45 L -59.9 85.1 L -6.3 198 L 56.7 280 L 139 350 L 202 381 L 233 365 L 202 356 L 211 306 L 255 277 L 324 309 M 87 598 L 99.6 572 L 137 569 L 137 601 L 87 598 M 325 539 L 337 514 L 375 510 L 375 542 L 325 539" />
<glyph unicode="&#xf7;" glyph-name="divide" horiz-adv-x="586" d="M 222 504 L 234 479 L 272 476 L 272 507 L 222 504 M 213 252 L 226 227 L 263 224 L 263 255 L 213 252 M 23.6 375 L 439 384" />
<glyph unicode="&#xf8;" glyph-name="oslash" horiz-adv-x="340" d="M 243 346 L 236 236 L 180 135 L 88.2 34.6 L 12.6 -6.3 L -37.8 9.45 L -59.9 85.1 L -6.3 198 L 56.7 280 L 139 350 L 202 381 L 233 365 L 202 356 L 211 306 L 255 277 L 324 309 M -75 -157 L -83.8 -130 L -72.8 -81.6 L -30.9 2.2 L 22 86 L 110 203 L 181 300 L 247 384 L 331 487 L 370 536" />
<glyph unicode="&#xf9;" glyph-name="ugrave" horiz-adv-x="523" d="M -31.5 145 L 34.6 202 L 142 331 L 173 350 L 66.1 195 L -9.45 66.1 L -15.8 25.2 L 3.15 -3.15 L 53.5 -12.6 L 101 15.8 L 173 85.1 L 419 350 L 438 356 L 441 331 L 268 123 L 249 50.4 L 261 6.3 L 312 -9.45 L 362 22.1 L 457 107 L 491 145 M 199 579 L 325 485" />
<glyph unicode="&#xfa;" glyph-name="uacute" horiz-adv-x="523" d="M -31.5 145 L 34.6 202 L 142 331 L 173 350 L 66.1 195 L -9.45 66.1 L -15.8 25.2 L 3.15 -3.15 L 53.5 -12.6 L 101 15.8 L 173 85.1 L 419 350 L 438 356 L 441 331 L 268 123 L 249 50.4 L 261 6.3 L 312 -9.45 L 362 22.1 L 457 107 L 491 145 M 414 578 L 288 484" />
<glyph unicode="&#xfb;" glyph-name="ucircumflex" horiz-adv-x="523" d="M -31.5 145 L 34.6 202 L 142 331 L 173 350 L 66.1 195 L -9.45 66.1 L -15.8 25.2 L 3.15 -3.15 L 53.5 -12.6 L 101 15.8 L 173 85.1 L 419 350 L 438 356 L 441 331 L 268 123 L 249 50.4 L 261 6.3 L 312 -9.45 L 362 22.1 L 457 107 L 491 145 M 94.9 467 L 181 486 L 279 523 L 378 583 L 412 602 L 400 542 L 400 499 L 417 471 L 434 465" />
<glyph unicode="&#xfc;" glyph-name="udieresis" horiz-adv-x="523" d="M -31.5 145 L 34.6 202 L 142 331 L 173 350 L 66.1 195 L -9.45 66.1 L -15.8 25.2 L 3.15 -3.15 L 53.5 -12.6 L 101 15.8 L 173 85.1 L 419 350 L 438 356 L 441 331 L 268 123 L 249 50.4 L 261 6.3 L 312 -9.45 L 362 22.1 L 457 107 L 491 145 M 210 561 L 223 536 L 261 533 L 261 564 L 210 561 M 439 550 L 452 525 L 490 522 L 490 553 L 439 550" />
<glyph unicode="&#xfd;" glyph-name="yacute" horiz-adv-x="435" d="M 126 331 L -9.45 176 L -72.4 81.9 L -81.9 37.8 L -56.7 12.6 L -15.8 9.45 L 47.2 37.8 L 186 151 L 331 261 L 381 318 L 271 126 L 176 -63 L 78.8 -198 L 22 -239 L -44.1 -258 L -81.9 -239 L -129 -195 M 366 570 L 240 476" />
<glyph unicode="&#xff;" glyph-name="ydieresis" horiz-adv-x="435" d="M 126 331 L -9.45 176 L -72.4 81.9 L -81.9 37.8 L -56.7 12.6 L -15.8 9.45 L 47.2 37.8 L 186 151 L 331 261 L 381 318 L 271 126 L 176 -63 L 78.8 -198 L 22 -239 L -44.1 -258 L -81.9 -239 L -129 -195 M 92.4 589 L 105 563 L 143 560 L 143 592 L 92.4 589 M 443 563 L 456 538 L 494 535 L 494 566 L 443 563" />
<glyph unicode="&#x2013;" glyph-name="endash" horiz-adv-x="586" d="M 23.6 280 L 439 290" />
<glyph unicode="&#x2014;" glyph-name="emdash" horiz-adv-x="781" d="M 31.5 280 L 586 290" />
<glyph unicode="&#x201c;" glyph-name="quotedblleft" horiz-adv-x="397" d="M 93.6 768 L 102 780 L 90.7 799 L 78 771 L 87.9 709 L 113 649 M 235 768 L 244 780 L 232 799 L 220 771 L 230 709 L 255 649" />
<glyph unicode="&#x201d;" glyph-name="quotedblright" horiz-adv-x="397" d="M 140 712 L 132 723 L 143 743 L 156 714 L 146 652 L 120 593 M 282 712 L 274 723 L 285 743 L 298 714 L 288 652 L 262 593" />
<glyph unicode="&#x2039;" glyph-name="guilsinglleft" horiz-adv-x="175" d="M 102 411 L 47.9 260 L 103 141" />
<glyph unicode="&#x203a;" glyph-name="guilsinglright" horiz-adv-x="176" d="M 47.9 403 L 103 290 L 49.1 131" />
<glyph unicode="&#x20ac;" glyph-name="Euro" horiz-adv-x="942" d="M 595 580 L 523 517 L 507 466 L 510 428 L 542 381 L 605 346 L 696 343 L 784 362 L 879 428 L 942 510 L 964 583 L 961 652 L 923 721 L 857 759 L 778 781 L 668 778 L 472 715 L 353 646 L 224 532 L 126 400 L 81.9 280 L 63 132 L 94.5 34.6 L 161 -37.8 L 312 -81.9 L 450 -69.3 L 529 -47.2 L 665 18.9 L 747 75.6 L 810 139 M 18.9 261 L 352 272 M 18.9 412 L 352 423" />
<glyph unicode="&#x0178;" glyph-name="Ydieresis" horiz-adv-x="1134.0" d="M 394 306 L 261 211 L 139 195 L 63 230 L 41 369 L 110 517 L 236 630 L 394 724 L 573 788 L 684 797 L 750 762 L 765 690 L 718 605 L 450 255 L 394 154 L 381 94.5 L 387 18.9 L 447 6.3 L 526 53.6 L 630 139 L 1008.0 510 L 1077.3 621 L 1102.5 643 L 1127.7 649 L 684 -120 L 576 -249 L 466 -309 L 381 -315 L 334 -293 L 296 -217 M 857 981 L 870 955 L 908 952 L 908 984 L 857 981 M 1119.0 985 L 1131.6 960 L 1169.4 957 L 1169.4 989 L 1119.0 985" />
<glyph unicode="&#x102;" glyph-name="Abreve" horiz-adv-x="1313.6" d="M 608 350 L 668 438 L 693 532 L 671 598 L 621 627 L 532 627 L 391 573 L 236 454 L 132 321 L 56.7 198 L 18.9 85.1 L 28.4 -34.6 L 88.2 -117 L 195 -151 L 290 -135 L 432 -66.1 L 627 66.1 L 803 217 L 1105.7 517 L 1272.6 693 L 1326.2 747 L 1360.8 769 L 1351.3 709 L 1228.5 523 L 1162.3 403 L 1089.9 280 L 1042.7 148 L 1017.4 59.9 L 1008.0 -6.3 L 1008.0 -44.1 L 1026.9 -66.1 L 1058.4 -75.6 L 1086.8 -66.1 L 1111.9 -44.1 M 747 318 L 759 318 L 806 331 L 1253.7 324 M1060.35 1053.37C1060.35 1053.37 1054.53 933.861 1174.72 936.426C1294.91 938.99 1335.15 1037.45 1335.15 1037.45" />
<glyph unicode="&#x114;" glyph-name="Ebreve" horiz-adv-x="888" d="M 425 34.6 L 400 59.9 L 400 139 L 463 230 L 542 284 L 621 318 L 706 324 L 769 284 L 781 217 L 762 132 L 655 12.6 L 532 -56.7 L 419 -91.4 L 227 -101 L 107 -69.3 L 37.8 -22.1 L 0 53.6 L 0 117 L 44.1 202 L 123 290 L 220 359 L 346 419 L 438 450 L 529 472 L 602 482 L 668 466 L 690 444 L 690 428 L 655 391 L 589 381 L 526 397 L 466 425 L 406 463 L 384 523 L 381 592 L 438 677 L 532 734 L 636 781 L 740 800 L 850 788 L 901 756 L 914 696 L 882 643 L 854 624 L 803 621 M665.346 1054.29C665.346 1054.29 659.526 934.78 779.719 937.345C899.911 939.909 940.154 1038.37 940.154 1038.37" />
<glyph unicode="&#x11E;" glyph-name="Gbreve" horiz-adv-x="1071.0" d="M 652 602 L 652 517 L 699 466 L 772 450 L 876 491 L 951 536 L 992 608 L 989 668 L 898 740 L 740 756 L 510 699 L 287 580 L 154 469 L 69.3 372 L 15.8 280 L -3.15 189 L -6.3 123 L 53.5 15.8 L 161 -34.6 L 318 -47.2 L 476 -12.6 L 602 44.1 L 731 123 L 841 220 L 907 302 L 917 331 L 939 334 L 630 -170 M 476 306 L 576 337 L 696 350 L 1108.8 353 M723.346 1085.9C723.346 1085.9 717.526 966.389 837.719 968.954C957.911 971.518 998.154 1069.98 998.154 1069.98" />
<glyph unicode="&#x12C;" glyph-name="Ibreve" horiz-adv-x="772" d="M 158 271 L 139 202 L 158 151 L 214 123 L 296 148 L 346 205 L 403 280 L 428 356 L 428 460 L 413 488 L 331 523 L 220 491 L 142 422 L 69.3 280 L 47.2 198 L 41 91.4 L 69.3 9.45 L 101 -44.1 L 208 -91.4 L 315 -56.7 L 428 18.9 L 523 139 L 633 302 L 731 476 L 813 586 L 907 677 L 973 728 L 1039.5 734 L 1067.8 734 L 1036.3 784 L 942 832 L 781 828 L 611 734 L 545 636 L 526 551 L 548 469 L 608 410 L 740 375 L 835 391 L 885 419 L 901 447 L 901 495 M708.346 1034.77C708.346 1034.77 702.526 915.26 822.719 917.824C942.911 920.389 983.154 1018.85 983.154 1018.85" />
<glyph unicode="&#x14E;" glyph-name="Obreve" horiz-adv-x="1004.8" d="M 718 252 L 728 252 L 882 384 L 961 476 L 999 567 L 992 671 L 882 753 L 731 765 L 551 728 L 375 633 L 208 491 L 113 350 L 53.5 195 L 53.5 63 L 113 -25.2 L 198 -75.6 L 406 -72.5 L 586 -9.45 L 772 113 L 926 258 L 967 400 L 945 523 L 854 614 L 750 652 L 608 658 M702.346 1065.94C702.346 1065.94 696.526 946.432 816.719 948.996C936.911 951.561 977.154 1050.02 977.154 1050.02" />
<glyph unicode="&#x16C;" glyph-name="Ubreve" horiz-adv-x="1045.8" d="M 350 211 L 236 129 L 142 101 L 44.1 126 L 22 208 L 53.5 334 L 164 476 L 306 605 L 457 712 L 583 765 L 687 791 L 794 781 L 832 753 L 828 696 L 750 573 L 495 208 L 416 81.9 L 397 18.9 L 400 -6.3 L 432 -18.9 L 476 -12.6 L 545 28.4 L 718 173 L 1008.0 479 L 1143.4 646 L 1165.5 649 L 1178.1 630 L 1099.3 536 L 904 255 L 794 53.6 L 772 -6.3 L 794 -18.9 L 866 15.8 L 932 78.8 M715.346 1039.58C715.346 1039.58 709.526 920.065 829.719 922.629C949.911 925.194 990.154 1023.66 990.154 1023.66" />
<glyph unicode="&#x103;" glyph-name="abreve" horiz-adv-x="479" d="M 331 306 L 334 359 L 284 391 L 176 353 L 47.2 258 L -25.2 161 L -50.4 94.5 L -44.1 37.8 L -12.6 -6.3 L 47.2 6.3 L 120 63 L 202 145 L 359 331 L 224 126 L 227 40.9 L 261 3.15 L 315 18.9 L 397 85.1 L 447 145 M215.346 680.114C215.346 680.114 209.526 560.601 329.719 563.165C449.911 565.73 490.154 664.191 490.154 664.191" />
<glyph unicode="&#x115;" glyph-name="ebreve" horiz-adv-x="318" d="M -12.6 151 L 56.7 139 L 180 198 L 252 265 L 271 306 L 258 346 L 202 356 L 69.3 280 L -22 173 L -56.7 81.9 L -37.8 3.15 L 47.2 -18.9 L 170 40.9 L 287 145 M164.346 688.66C164.346 688.66 158.526 569.147 278.719 571.711C398.911 574.276 439.154 672.738 439.154 672.738" />
<glyph unicode="&#x11F;" glyph-name="gbreve" horiz-adv-x="444" d="M -176 -183 L -123 -246 L -31.5 -246 L 66.1 -173 L 195 22.1 L 296 202 L 372 324 L 340 318 L 176 117 L 81.9 34.6 L 18.9 -6.3 L -40.9 28.4 L -56.7 88.2 L -15.8 186 L 78.8 290 L 186 365 L 255 391 L 302 397 L 334 375 L 346 340 M204.346 650.217C204.346 650.217 198.526 530.704 318.719 533.268C438.911 535.833 479.154 634.294 479.154 634.294" />
<glyph unicode="&#x12D;" glyph-name="ibreve" horiz-adv-x="252" d="M 104 328 L -6.3 198 L -66.1 72.4 L -66.1 3.15 L -3.15 -25.2 L 123 44.1 L 220 145  M143.346 690.385C143.346 690.385 137.526 570.872 257.719 573.437C377.911 576.001 418.154 674.463 418.154 674.463" />
<glyph unicode="&#x14F;" glyph-name="obreve" horiz-adv-x="340" d="M 243 346 L 236 236 L 180 135 L 88.2 34.6 L 12.6 -6.3 L -37.8 9.45 L -59.9 85.1 L -6.3 198 L 56.7 280 L 139 350 L 202 381 L 233 365 L 202 356 L 211 306 L 255 277 L 324 309 M171.346 647.365C171.346 647.365 165.526 527.852 285.719 530.416C405.911 532.981 446.154 631.443 446.154 631.443" />
<glyph unicode="&#x16D;" glyph-name="ubreve" horiz-adv-x="523" d="M -31.5 145 L 34.6 202 L 142 331 L 173 350 L 66.1 195 L -9.45 66.1 L -15.8 25.2 L 3.15 -3.15 L 53.5 -12.6 L 101 15.8 L 173 85.1 L 419 350 L 438 356 L 441 331 L 268 123 L 249 50.4 L 261 6.3 L 312 -9.45 L 362 22.1 L 457 107 L 491 145 M229.346 677.391C229.346 677.391 223.526 557.878 343.719 560.442C463.911 563.007 504.154 661.469 504.154 661.469" />
<glyph unicode="&#xe7;" glyph-name="ccedilla" horiz-adv-x="321" d="M44.6443 -17.729L44.6443 -40.1835C44.6443 -48.5841 45.243 -57.1667 43.9728 -65.5167C41.9775 -78.6337 26.6623 -115.823 17.7861 -125.971C6.9396 -138.372 -26.4782 -154.006 -46.0021 -148.425M205 258L236 277L252 315L243 353L198 359L120 324L34.6 239L-22 167L-53.6 94.5L-50.4 34.6L-15.8 -22.1L94.5 -15.8L208 66.1L290 145" />
<glyph unicode="&#x2D8;" glyph-name="breve" horiz-adv-x="501" d="M103.346 522.359C103.346 522.359 97.526 402.846 217.719 405.41C337.911 407.975 378.154 506.436 378.154 506.436" />
<glyph unicode="&#x130;" glyph-name="Idotaccent" horiz-adv-x="772" d="M1098.25 944.814L1101.25 910.814L1132.25 916.814L1132.25 935.814L1098.25 944.814M158 271L139 202L158 151L214 123L296 148L346 205L403 280L428 356L428 460L413 488L331 523L220 491L142 422L69.3 280L47.2 198L41 91.4L69.3 9.45L101 -44.1L208 -91.4L315 -56.7L428 18.9L523 139L633 302L731 476L813 586L907 677L973 728L1039.5 734L1067.8 734L1036.3 784L942 832L781 828L611 734L545 636L526 551L548 469L608 410L740 375L835 391L885 419L901 447L901 495" />
<glyph unicode="&#x15E;" glyph-name="Scedilla" horiz-adv-x="964" d="M451.261 -69.0246C445.356 -130.707 420.47 -187.407 363.901 -219.097C336.415 -233.351 257.352 -243.853 214.823 -228.207M337 -126C282.711 -110.144 228.077 -86.1821 195 -37.8C153.464 11.2249 128.375 79.2623 117 135C105.625 190.738 112.597 275.009 58.055 274.887C3.51277 274.765 -13.17 221.243 -13.9132 181.959C-14.5927 93.4445 42.2493 16.404 110.352 -34.6497C162.745 -70.5657 206.793 -69.2453 289.885 -73.8331C372.977 -78.421 485.404 -75.3091 581.341 -39.3057C677.277 -3.30235 776.105 56.1166 819.204 125.046C862.303 193.975 859.817 249.161 813.932 293.841C764.358 344.217 697.182 337.046 623.76 354.022C550.338 370.998 446.019 381.945 388.288 450.947C361.315 490.919 359.711 549.026 393.316 586.144C448.495 659.683 539.417 692.129 622.583 722.482C726.689 742.818 971.078 770.331 1006.44 660.133C1028.65 612.454 1020.97 543.567 968.142 520.027C939.198 508.053 906.762 509.125 876 507" />
<glyph unicode="&#xa3;" glyph-name="sterling" horiz-adv-x="890" d="M268 186L545 195M479 536L438 558L375 536L340 495L324 428L350 356L425 309L510 268L624 280L810 365L939 491L1026.9 643L1042.7 753L1001.7 806L945 822L838 781L693 636L592 482L306 101L211 0L135 -53.5L47.2 -50.4L15.8 12.6L31.5 126L69.3 211L120 277L142 290L296 28.4L454 -88.2L595 -129L737 -126L813 -91.4L844 -50.4L847 0" />
<glyph unicode="&#xb8;" glyph-name="cedilla" horiz-adv-x="942" d="M399.153 -73.5373L399.153 -107.244C399.153 -119.854 400.813 -132.737 397.29 -145.271C391.756 -164.961 349.277 -220.785 324.657 -236.019C294.573 -254.633 201.884 -278.101 147.731 -269.725" />
<glyph unicode="&#x15F;" glyph-name="scedilla" horiz-adv-x="432" d="M92.4627 14.0192C93.8626 -29.1581 82.7549 -73.1584 66.238 -94.746C55.6473 -107.207 23.0176 -122.916 3.9541 -117.309M-31.5 145C-31.5 145 46.1278 226.75 101 280C155.872 333.25 299 463 299 463L318 463L290 425C290 425 276.228 413.999 265 381C253.772 348.001 251.66 280.135 243 224C234.34 167.864 246.611 85.2362 181.746 40.5329C134.115 10.6613 94.4216 -3.53071 47.2 28.4C33.4682 37.7266 21.3765 46.7814 9.45 69.3C-2.47646 91.8186 -12.6 164 -12.6 164C-12.6 164 -2.56476 87.8942 9.45 66.1C21.4648 44.3058 25.5444 41.5007 44.1 31.5C62.6556 21.4993 96.3744 15.8777 120 15.8C143.626 15.7223 158.795 22.7388 183 28.4C207.205 34.0612 235.312 38.6123 265 50.4C294.688 62.1877 328.65 78.4218 359 101C389.35 123.578 444 186 444 186" />
<glyph unicode="&#xC6;" glyph-name="AE" horiz-adv-x="1850.0" d="M1327.08 34.5999C1202.19 198.011 1643.33 458.926 1680.55 223.615C1717.78 -11.6957 1151.68 -261.564 1044.21 30.5668C936.738 322.698 1578.73 569.636 1584.53 439.84C1590.33 310.044 1218.72 420.406 1297.92 610.862C1377.11 801.319 1769.25 837.186 1805 756C1840.75 674.814 1784.51 625.081 1711 621M608 350C792.689 625.709 585.364 666.327 423.194 577.599C190.918 437.595 -5.95775 194.176 33.9637 -0.65812C73.8852 -195.492 286.158 -150.857 466.979 -44.162C647.799 62.5333 847.356 260.961 1105.7 517L1272.6 693C1301.08 725.955 1325.21 746.374 1360.8 769L1351.3 709C1211.52 521.682 1051.28 222.655 1026.9 87.9734M745 318C907.224 344.818 943.256 326.634 1111.7 324" />
<glyph unicode="&#xdf;" glyph-name="germandbls" horiz-adv-x="451" d="M23.3455 111.392C23.3455 111.392 -154.488 -121.287 -120.77 -92.679C-25.2776 -11.66 170.676 465.457 259.26 520.262C345.679 573.728 390.238 449.795 347.162 366.305C304.086 282.815 62.3815 197.546 171.215 231.106C280.049 264.666 503.749 129.592 285.52 -0.95392C67.2913 -131.499 -44.6297 127.255 -44.6297 127.255" />
<glyph unicode="&#xc7;" glyph-name="Ccedilla" horiz-adv-x="942" d="M399.153 -73.5373L399.153 -107.244C399.153 -119.854 400.813 -132.737 397.29 -145.271C391.756 -164.961 349.277 -220.785 324.657 -236.019C294.573 -254.633 201.884 -278.101 147.731 -269.725M595 580L523 517L507 466L510 428L542 381L605 346L696 343L784 362L879 428L942 510L964 583L961 652L923 721L857 759L778 781L668 778L472 715L353 646L224 532L126 400L81.9 280L63 132L94.5 34.6L161 -37.8L312 -81.9L450 -69.3L529 -47.2L665 18.9L747 75.6L810 139" />
<glyph unicode="&#x131;" glyph-name="dotlessi" horiz-adv-x="252" d="M104 328L-6.3 198L-66.1 72.4L-66.1 3.15L-3.15 -25.2L123 44.1L220 145" />
<glyph unicode="&#xE6;" glyph-name="ae" horiz-adv-x="590" d="M331 306C337.562 418.857 244.995 393.053 97.9901 297.572C-49.0149 202.091 -96.7645 6.27217 -11.1785 0.542939C74.4075 -5.18629 170.623 113.623 202 145C233.377 176.377 349.313 338.252 319.25 278.914C303.127 247.09 286.14 234.75 252.395 156.522C330.608 125.745 380.408 155.359 446 200C511.592 244.641 566.32 304.096 526 346C485.68 387.904 309.863 282.351 248.433 181.516C187.003 80.6808 198.492 -19.3454 306.684 -12.2089C414.876 -5.07242 473.746 81.1586 555 145" />
</font>
</defs>
</svg>
