<?xml version="1.0" encoding="UTF-8" ?>
<!DOCTYPE svg PUBLIC "-//W3C//DTD SVG 1.1//EN" "http://www.w3.org/Graphics/SVG/1.1/DTD/svg11.dtd" >

<svg xmlns="http://www.w3.org/2000/svg" xmlns:xlink="http://www.w3.org/1999/xlink" version="1.1">

<metadata>
Font name:               EMS Society
License:                 SIL Open Font License http://scripts.sil.org/OFL
Created by:              Sheldon B. Michaels
SVG font conversion by:  Windell H. Oskay
A derivative of:         Mrs Saint Delafield
Designer:                Alejandro Paul, Sudtipos
Link:                    http://www.sudtipos.com
Google font page:        https://fonts.google.com/specimen/Mrs+Saint+Delafield
</metadata>
<defs>
<font id="EMSSociety" horiz-adv-x="378" >
<font-face
font-family="EMS Society"
units-per-em="1000"
ascent="800"
descent="-200"
cap-height="500"
x-height="300"
/>
<missing-glyph horiz-adv-x="378" />
<glyph unicode=" " glyph-name="space" horiz-adv-x="378" />
<glyph unicode="!" glyph-name="exclam" horiz-adv-x="687" d="M 878 901 L 415 170 M 361 72.4 L 336 31.5" />
<glyph unicode="&#x22;" glyph-name="quotedbl" horiz-adv-x="605" d="M 441 816 L 328 658 M 532 813 L 413 652" />
<glyph unicode="#" glyph-name="numbersign" horiz-adv-x="914" d="M 482 416 L 337 0 M 608 410 L 463 3.15 M 287 258 L 721 265 M 233 148 L 684 154" />
<glyph unicode="$" glyph-name="dollar" horiz-adv-x="1168.7" d="M 951 1137.2 L 847 967 L 721 731 L 586 441 L 463 170 L 356 -107 M 740 876 L 813 857 L 898 876 L 989 907 L 1023.8 951 L 1014.3 989 L 973 1017.4 L 939 1033.2 L 857 1052.1 L 728 1042.7 L 595 1001.7 L 526 932 L 510 876 L 536 797 L 580 743 L 633 684 L 753 595 L 854 491 L 914 391 L 910 274 L 860 180 L 756 78.8 L 646 28.4 L 517 3.15 L 447 9.45 L 324 28.4 L 258 66.1 L 214 123 L 195 220 L 246 324 L 346 384 L 460 403 L 529 391 L 617 356 L 643 315 L 652 255" />
<glyph unicode="%" glyph-name="percent" horiz-adv-x="1477.3" d="M 545 882 L 630 945 L 680 1001.7 L 668 1058.4 L 580 1071.0 L 479 1017.4 L 343 895 L 265 759 L 214 636 L 205 551 L 214 482 L 252 435 L 331 419 L 485 482 L 630 643 L 702 781 L 728 879 L 728 926 L 721 942 L 706 961 L 649 976 L 573 926 L 545 907 L 536 857 M 1074.2 501 L 1159.2 561 L 1209.6 617 L 1197.0 674 L 1108.8 687 L 1008.0 636 L 873 510 L 794 375 L 743 255 L 734 167 L 743 97.6 L 781 53.6 L 860 34.6 L 1014.3 97.6 L 1159.2 258 L 1231.7 400 L 1256.8 495 L 1256.8 542 L 1250.6 561 L 1234.8 576 L 1178.1 595 L 1102.5 542 L 1074.2 526 L 1064.7 472 M 1115.1 1159.2 L 857 788 L 696 532 L 576 340 L 479 142 L 397 -53.5" />
<glyph unicode="&amp;" glyph-name="ampersand" horiz-adv-x="1102.5" d="M 482 394 L 488 249 L 510 324 L 561 378 L 624 425 L 699 469 L 788 495 L 863 491 L 914 457 L 920 394 L 882 306 L 791 198 L 706 126 L 589 59.9 L 463 22 L 337 12.6 L 246 40.9 L 186 110 L 180 220 L 208 328 L 284 438 L 372 532 L 517 662 L 655 765 L 740 832 L 819 910 L 854 954 L 860 992 L 844 1008.0 L 806 1014.3 L 753 986 L 668 898 L 633 832 L 592 684 L 589 570 L 586 463 L 602 337 L 649 195 L 724 56.7 L 797 -6.3 L 885 -37.8 L 948 -34.6 L 986 -28.4 L 1017.4 -15.8 L 1048.9 0 L 1086.8 25.2" />
<glyph unicode="&apos;" glyph-name="quotesingle" horiz-adv-x="513" d="M 450 813 L 337 658" />
<glyph unicode="(" glyph-name="parenleft" horiz-adv-x="662" d="M 838 1077.3 L 589 907 L 416 721 L 331 570 L 268 400 L 233 230 L 230 88.2 L 255 -34.6 L 337 -173" />
<glyph unicode=")" glyph-name="parenright" horiz-adv-x="665" d="M 520 1067.8 L 605 907 L 621 756 L 595 526 L 526 324 L 403 123 L 268 -15.8 L 158 -101 L 22 -173" />
<glyph unicode="*" glyph-name="asterisk" horiz-adv-x="923" d="M 372 444 L 479 284 M 306 372 L 532 372 M 321 299 L 526 444 M 387 265 L 457 472" />
<glyph unicode="+" glyph-name="plus" horiz-adv-x="718" d="M 394 633 L 268 271 M 148 454 L 536 454" />
<glyph unicode="," glyph-name="comma" horiz-adv-x="510" d="M 208 28.4 L 198 63 L 230 69.3 L 230 37.8 L 192 3.15 L 139 -37.8 L 88.2 -53.5 L 75.6 -56.7" />
<glyph unicode="-" glyph-name="hyphen" horiz-adv-x="964" d="M 280 176 L 287 176 L 668 170" />
<glyph unicode="." glyph-name="period" horiz-adv-x="551" d="M 249 63 L 214 15.8" />
<glyph unicode="/" glyph-name="slash" horiz-adv-x="775" d="M 813 1187.6 L 646 901 L 526 652 L 359 309 L 268 63 L 217 -63" />
<glyph unicode="0" glyph-name="zero" horiz-adv-x="1074.2" d="M 652 706 L 665 762 L 718 810 L 822 876 L 863 932 L 866 992 L 832 1036.3 L 731 1042.7 L 602 992 L 428 857 L 277 665 L 173 469 L 135 309 L 123 173 L 158 78.8 L 258 12.6 L 413 37.8 L 536 97.6 L 690 246 L 803 400 L 885 586 L 920 718 L 917 816 L 895 876 L 825 907 L 762 917 L 690 907 L 633 891 L 586 866" />
<glyph unicode="1" glyph-name="one" horiz-adv-x="643" d="M 309 847 L 274 803 L 261 819 L 359 869 L 435 907 L 608 942 L 721 983 L 772 1014.3 L 778 1036.3 L 759 1052.1 L 696 1048.9 L 598 989 L 548 951 L 438 813 L 318 633 L 227 454 L 129 233 L 91.4 113 L 78.8 40.9 L 81.9 0" />
<glyph unicode="2" glyph-name="two" horiz-adv-x="964" d="M 583 863 L 554 778 L 498 696 L 410 636 L 277 627 L 217 665 L 208 731 L 249 822 L 334 917 L 447 980 L 564 1014.3 L 668 1023.8 L 753 995 L 788 920 L 781 832 L 724 696 L 614 510 L 498 362 L 372 224 L 271 113 L 164 34.6 L 69.3 3.15 L 34.6 37.8 L 41 104 L 117 189 L 220 233 L 271 239 L 346 214 L 482 120 L 567 63 L 655 40.9 L 747 63 L 819 97.6" />
<glyph unicode="3" glyph-name="three" horiz-adv-x="926" d="M 576 891 L 523 791 L 447 731 L 337 706 L 284 747 L 277 832 L 340 929 L 419 995 L 513 1036.3 L 614 1061.6 L 702 1064.7 L 797 1030.1 L 828 980 L 825 914 L 791 854 L 712 769 L 598 687 L 479 621 L 328 536 L 391 561 L 441 576 L 580 567 L 633 520 L 658 463 L 652 394 L 608 299 L 545 217 L 432 110 L 328 53.6 L 236 22 L 91.4 18.9 L 15.8 53.6 L 12.6 91.4 L 50.4 117 L 120 123 L 236 91.4 L 346 15.8 L 397 -15.8 L 454 -18.9" />
<glyph unicode="4" glyph-name="four" horiz-adv-x="1033.2" d="M 728 847 L 605 592 L 495 350 L 444 198 L 406 78.8 L 397 3.15 M 819 895 L 891 951 L 917 1001.7 L 910 1052.1 L 841 1074.2 L 731 1058.4 L 573 983 L 425 854 L 306 731 L 208 580 L 145 466 L 123 362 L 145 268 L 208 246 L 287 239 L 381 252 L 617 302 L 684 309 L 753 299 L 794 287 L 832 274" />
<glyph unicode="5" glyph-name="five" horiz-adv-x="961" d="M 693 832 L 662 863 L 658 920 L 680 970 L 715 1014.3 L 803 1064.7 L 879 1067.8 L 907 1048.9 L 898 1020.6 L 850 983 L 810 961 L 756 951 L 684 954 L 617 954 L 526 967 L 397 999 L 356 882 L 306 737 L 261 655 L 195 542 L 299 586 L 422 605 L 551 605 L 624 554 L 646 463 L 605 369 L 520 230 L 428 132 L 315 56.7 L 189 3.15 L 53.5 6.3 L -9.45 31.5 L -31.5 63 L -22 101 L 28.4 110 L 611 104" />
<glyph unicode="6" glyph-name="six" horiz-adv-x="1048.9" d="M 964 986 L 860 1036.3 L 753 1048.9 L 598 983 L 428 866 L 243 595 L 167 419 L 132 261 L 142 151 L 192 66.1 L 265 28.4 L 378 18.9 L 479 56.7 L 548 101 L 630 180 L 721 302 L 775 454 L 775 536 L 734 602 L 693 621 L 586 621 L 495 586 L 413 504 L 378 435 L 378 324 L 406 265 L 447 208 L 545 167 L 677 151 L 769 176 L 828 239" />
<glyph unicode="7" glyph-name="seven" horiz-adv-x="995" d="M 482 882 L 457 819 L 397 778 L 328 772 L 271 781 L 217 835 L 211 920 L 249 1001.7 L 353 1048.9 L 432 1052.1 L 520 1042.7 L 639 992 L 806 936 L 898 914 L 995 907 L 1071.0 945 L 1099.3 976 L 1096.2 1036.3 L 1036.3 1052.1 L 964 1045.8 L 888 1017.4 L 835 976 L 747 904 L 639 765 L 548 633 L 472 507 L 394 340 L 334 170 L 309 81.9 L 312 -6.3 M 302 576 L 743 576" />
<glyph unicode="8" glyph-name="eight" horiz-adv-x="1115.1" d="M 444 605 L 580 624 L 699 671 M 699 671 L 876 791 L 954 888 L 967 942 L 936 1001.7 L 850 1045.8 L 759 1052.1 L 624 1036.3 L 523 992 L 466 920 L 463 835 L 504 753 L 699 586 L 806 476 L 854 397 L 854 280 L 791 161 L 702 81.9 L 564 15.8 L 378 3.15 L 230 72.4 L 148 183 L 142 324 L 205 444 L 296 498 L 422 529 L 495 517 L 561 488 L 592 444 L 602 391" />
<glyph unicode="9" glyph-name="nine" horiz-adv-x="1108.8" d="M 677 646 L 655 573 L 586 485 L 542 444 L 410 422 L 328 438 L 296 507 L 299 617 L 369 756 L 435 866 L 526 945 L 636 1004.8 L 791 1030.1 L 873 983 L 926 901 L 923 775 L 895 624 L 835 495 L 740 321 L 643 198 L 545 113 L 425 47.2 L 324 22 L 198 37.8 L 104 101" />
<glyph unicode=":" glyph-name="colon" horiz-adv-x="567" d="M 353 268 L 337 230 M 246 59.9 L 227 28.4" />
<glyph unicode=";" glyph-name="semicolon" horiz-adv-x="520" d="M 350 265 L 328 233 M 208 37.8 L 195 72.4 L 236 72.4 L 230 31.5 L 189 -6.3 L 135 -47.2 L 97.6 -53.5 L 81.9 -56.7" />
<glyph unicode="&#x3c;" glyph-name="less" horiz-adv-x="850" d="M 583 504 L 536 472 L 422 450 L 334 441 L 208 432 L 299 369 L 425 306 L 495 265 L 513 249 L 523 230" />
<glyph unicode="=" glyph-name="equal" horiz-adv-x="753" d="M 173 510 L 554 510 M 151 419 L 532 425" />
<glyph unicode="&#x3e;" glyph-name="greater" horiz-adv-x="850" d="M 205 529 L 227 495 L 324 435 L 513 334 L 435 318 L 299 309 L 217 287 L 145 252" />
<glyph unicode="?" glyph-name="question" horiz-adv-x="967" d="M 598 857 L 576 778 L 532 718 L 466 649 L 406 621 L 290 614 L 236 646 L 224 699 L 252 803 L 343 898 L 488 976 L 662 1001.7 L 765 980 L 810 898 L 800 769 L 731 639 L 627 526 L 529 454 L 428 387 L 350 318 L 312 265 L 302 211 L 302 180 L 324 154 L 372 145 L 381 148 M 255 63 L 227 18.9" />
<glyph unicode="@" glyph-name="at" horiz-adv-x="986" d="M 545 214 L 592 252 L 611 293 L 595 321 L 510 318 L 403 249 L 346 198 L 290 135 L 265 78.8 L 274 50.4 L 309 44.1 L 350 66.1 L 482 173 L 495 176 L 432 101 L 428 40.9 L 517 28.4 L 636 66.1 L 728 123 L 806 211 L 844 299 L 841 356 L 800 406 L 702 444 L 586 444 L 469 406 L 365 353 L 214 243 L 139 151 L 97.6 78.8 L 91.4 0 L 110 -59.9 L 176 -104 L 296 -120 L 375 -117 L 457 -91.4 L 539 -53.5 L 589 -28.4" />
<glyph unicode="A" glyph-name="A" horiz-adv-x="1338.8" d="M -63 56.7 L 47.2 28.4 L 164 28.4 L 287 56.7 L 410 113 L 507 180 L 643 318 L 803 501 L 926 677 L 1045.8 847 L 1156.1 958 L 1197.0 983 L 1237.9 986 L 1272.6 954 L 1203.3 791 L 1058.4 463 L 932 195 L 841 47.2 L 816 22 L 772 22 L 699 148 L 662 208 L 542 343 L 441 403 L 324 444 L 265 444 L 224 432 L 217 406 L 261 356 L 375 315 L 646 284 L 1052.1 290 L 1162.3 290 L 1241.1 299 L 1288.3 309" />
<glyph unicode="B" glyph-name="B" horiz-adv-x="1307.2" d="M 495 636 L 444 687 L 343 715 L 252 721 L 192 750 L 126 791 L 117 832 L 123 891 L 211 951 L 378 976 L 501 980 L 639 958 L 715 914 L 750 854 L 750 797 L 712 699 L 617 498 L 488 277 L 362 97.6 L 243 -47.2 L 192 -104 L 148 -132 L 123 -148 L 97.6 -139 L 88.2 -107 L 81.9 -72.5 L 123 12.6 L 217 167 L 375 369 L 580 580 L 775 765 L 907 857 L 1042.7 936 L 1140.3 967 L 1225.3 976 L 1263.2 954 L 1266.3 920 L 1222.2 838 L 1115.1 747 L 980 655 L 904 605 L 750 520 L 860 558 L 954 558 L 1036.3 539 L 1080.4 460 L 1074.2 372 L 1004.8 246 L 914 142 L 816 66.1 L 687 12.6 L 580 -3.15 L 504 9.45 L 444 37.8 L 432 59.9 L 438 94.5 L 479 107 L 1067.8 107" />
<glyph unicode="C" glyph-name="C" horiz-adv-x="810" d="M 145 520 L 287 529 L 422 576 L 576 646 L 718 721 L 835 791 L 942 882 L 976 923 L 983 967 L 936 983 L 847 970 L 658 857 L 482 715 L 369 589 L 252 454 L 135 280 L 81.9 139 L 94.5 31.5 L 158 -28.4 L 249 -37.8 L 359 -6.3 L 485 37.8 L 598 126 L 747 258" />
<glyph unicode="D" glyph-name="D" horiz-adv-x="1310.4" d="M 1048.9 1011.2 L 958 954 L 806 775 L 652 570 L 482 309 L 343 113 L 284 34.6 L 211 -34.6 L 158 -59.9 L 97.6 -63 L 78.8 -34.6 L 110 22 L 265 208 L 422 331 L 504 375 L 595 419 L 658 422 L 706 384 L 712 324 L 696 75.6 L 734 34.6 L 794 34.6 L 869 81.9 L 967 183 L 1130.8 406 L 1282.1 639 L 1341.9 797 L 1373.4 891 L 1367.1 983 L 1326.2 1011.2 L 1263.2 1017.4 L 1156.1 983 L 1014.3 873 L 901 721 L 838 605 L 806 476 L 813 394 L 860 324 L 961 296 L 1064.7 306 L 1184.4 365 L 1300.9 425 L 1395.4 479 L 1423.8 501 L 1474.2 507" />
<glyph unicode="E" glyph-name="E" horiz-adv-x="1156.1" d="M 117 976 L 438 951 L 684 942 L 882 948 L 1074.2 954 L 1187.6 983 L 1228.5 1011.2 L 1165.5 1026.9 L 1042.7 1008.0 L 954 999 L 822 958 L 677 914 L 457 813 L 328 734 L 274 680 L 249 630 L 261 595 L 309 586 L 463 586 L 731 621 L 781 630 L 828 624 L 835 602 L 819 570 L 734 510 L 381 343 L 205 224 L 145 142 L 139 63 L 205 28.4 L 391 37.8 L 636 63 L 737 59.9 L 797 53.6 L 828 34.6 L 869 0" />
<glyph unicode="F" glyph-name="F" horiz-adv-x="788" d="M 104 866 L 59.9 895 L 56.7 914 L 353 901 L 627 907 L 828 926 L 1067.8 964 L 1174.9 1001.7 L 1237.9 1036.3 L 1241.1 1061.6 L 1146.6 1067.8 L 1011.2 1017.4 L 942 964 L 863 891 L 712 706 L 576 529 L 447 331 L 340 164 L 236 63 L 158 25.2 L 120 9.45 L 94.5 28.4 L 94.5 63 M 236 450 L 769 460 L 706 425 L 677 397 L 677 381" />
<glyph unicode="G" glyph-name="G" horiz-adv-x="854" d="M 81.9 721 L 176 709 L 321 737 L 450 797 L 558 857 L 621 910 L 658 954 L 671 980 L 665 1001.7 L 633 1017.4 L 536 999 L 410 936 L 309 857 L 211 762 L 148 684 L 120 608 L 132 548 L 164 510 L 227 498 L 315 495 L 422 517 L 570 580 L 750 680 L 879 775 L 1105.7 958 L 863 740 L 747 598 L 621 425 L 495 255 L 406 139 L 343 53.6 L 277 -3.15 L 214 -41 L 173 -44.1 L 154 -37.8 L 123 0 L 101 72.4 L 117 145 L 167 104 L 271 94.5 L 403 104 L 495 132 L 586 164 L 791 258" />
<glyph unicode="H" glyph-name="H" horiz-adv-x="1127.7" d="M 554 680 L 517 721 L 413 753 L 277 791 L 186 838 L 167 888 L 186 942 L 271 995 L 397 1023.8 L 592 1023.8 L 684 1008.0 L 734 976 L 778 917 L 778 822 L 696 665 L 447 255 L 343 117 L 227 -12.6 L 123 -107 L 53.5 -148 L 18.9 -148 L 25.2 -107 L 85 3.15 L 233 132 L 567 372 L 1061.6 693 L 1275.8 850 L 1376.6 948 L 1426.9 1011.2 L 1411.2 1052.1 L 1367.1 1042.7 L 1275.8 992 L 1156.1 879 L 1052.1 740 L 954 624 L 857 485 L 721 258 L 668 139 L 665 53.6 L 706 22 L 762 22 L 838 63 L 914 126 L 1064.7 258" />
<glyph unicode="I" glyph-name="I" horiz-adv-x="684" d="M 822 917 L 734 819 L 526 526 L 346 258 L 189 56.7 L 161 22 L 120 22 L 120 56.7 M 869 860 L 932 917 L 961 983 L 932 1026.9 L 813 1036.3 L 668 995 L 482 907 L 321 803 L 186 696 L 107 592 L 85 536 L 94.5 491 L 145 457 L 233 447 L 375 457 L 630 498 L 721 510 L 772 520 L 822 504 L 895 482" />
<glyph unicode="J" glyph-name="J" horiz-adv-x="1008.0" d="M 1275.8 1074.2 L 1231.7 1042.7 L 1152.9 954 L 1036.3 813 L 942 668 L 803 441 L 715 287 L 602 78.8 L 482 -123 L 384 -274 L 293 -372 L 230 -438 L 180 -460 L 88.2 -469 L 50.4 -413 L 15.8 -331 L 41 -183 L 75.6 -88.2 L 186 53.6 L 321 189 L 469 287 L 712 444 L 951 583 L 1134.0 702 L 1244.2 816 L 1269.4 879 L 1253.7 942 L 1228.5 964 L 1190.7 970 L 1093.1 967 L 904 926 L 680 822 L 507 687 L 400 561 L 346 410 L 365 299 L 416 233 L 523 189 L 614 180 L 747 192 L 850 220 L 942 258" />
<glyph unicode="K" glyph-name="K" horiz-adv-x="1181.2" d="M 460 690 L 438 721 L 406 740 L 280 759 L 164 778 L 72.5 810 L 34.6 832 L 31.5 891 L 69.3 942 L 164 980 L 309 1008.0 L 545 1004.8 L 630 976 L 671 926 L 677 841 L 636 724 L 542 529 L 403 334 L 255 139 L 183 56.7 L 132 3.15 L 97.6 -3.15 L 104 31.5 L 123 63 M 1471.1 1105.7 L 1414.3 1099.3 L 1332.4 1045.8 L 1228.5 973 L 1093.1 857 L 983 756 L 869 658 L 788 602 L 721 554 L 665 545 L 646 554 L 655 592 L 690 652 L 781 724 L 832 734 L 873 715 L 866 671 L 825 558 L 753 356 L 712 198 L 699 97.6 L 721 31.5 L 791 12.6 L 860 28.4 L 917 44.1 L 961 75.6 L 1020.6 132 L 1115.1 258" />
<glyph unicode="L" glyph-name="L" horiz-adv-x="1341.9" d="M 202 687 L 428 680 L 633 715 L 828 762 L 973 806 L 1137.2 879 L 1253.7 948 L 1307.2 1001.7 L 1297.8 1033.2 L 1247.4 1039.5 L 1168.7 1026.9 L 1067.8 976 L 989 917 L 885 797 L 747 633 L 498 309 L 328 91.4 L 252 15.8 L 164 -34.6 L 135 -63 L 88.2 -56.7 L 72.5 -28.4 L 104 53.6 L 205 139 L 296 208 L 356 239 L 403 255 L 507 258 L 621 227 L 690 170 L 794 88.2 L 869 40.9 L 970 28.4 L 1045.8 37.8 L 1130.8 85.1" />
<glyph unicode="M" glyph-name="M" horiz-adv-x="1323.0" d="M 460 721 L 384 617 L 293 536 L 211 485 L 113 476 L 69.3 526 L 94.5 611 L 180 721 L 334 876 L 444 948 L 532 992 L 636 1004.8 L 687 973 L 712 901 L 690 806 L 614 605 L 504 444 L 394 284 L 296 158 L 211 63 L 164 28.4 L 145 28.4 L 123 37.8 L 120 72.4 L 180 192 L 343 384 L 466 529 L 548 605 L 684 712 L 800 784 L 847 806 L 917 810 L 932 781 L 917 721 L 813 539 L 671 324 L 529 151 L 469 78.8 L 460 40.9 L 536 110 L 750 299 L 948 476 L 1077.3 580 L 1134.0 608 L 1165.5 608 L 1168.7 567 L 1146.6 532 L 983 315 L 885 183 L 847 88.2 L 841 37.8 L 879 6.3 L 929 9.45 L 999 40.9 L 1086.8 91.4 L 1260.0 258" />
<glyph unicode="N" glyph-name="N" horiz-adv-x="1039.5" d="M 422 570 L 441 655 L 479 740 L 517 759 L 485 665 L 450 627 L 340 529 L 246 469 L 148 454 L 88.2 476 L 78.8 548 L 167 696 L 296 828 L 438 926 L 586 976 L 662 976 L 721 942 L 747 866 L 718 756 L 643 573 L 576 476 L 469 318 L 365 176 L 261 72.4 L 217 22 L 176 3.15 L 135 15.8 L 145 69.3 L 186 132 L 346 343 L 545 542 L 731 690 L 885 784 L 958 816 L 1004.8 816 L 1011.2 791 L 995 743 L 737 387 L 658 284 L 595 173 L 561 78.8 L 580 37.8 L 630 22 L 706 63 L 781 104 L 973 258" />
<glyph unicode="O" glyph-name="O" horiz-adv-x="954" d="M 655 712 L 658 750 L 687 797 L 800 869 L 844 907 L 876 951 L 873 1011.2 L 838 1045.8 L 753 1055.2 L 630 1017.4 L 479 917 L 302 724 L 176 529 L 113 384 L 91.4 258 L 94.5 132 L 135 59.9 L 220 22 L 321 28.4 L 422 69.3 L 488 107 L 624 227 L 753 381 L 857 561 L 901 690 L 923 810 L 914 866 L 888 895 L 810 929 L 690 914 L 532 825 L 413 712 L 328 558 L 287 432 L 287 299 L 362 180 L 482 145 L 605 132 L 721 167 L 888 255" />
<glyph unicode="P" glyph-name="P" horiz-adv-x="762" d="M 463 605 L 454 662 L 391 731 L 293 784 L 224 825 L 167 866 L 135 926 L 151 967 L 211 1011.2 L 299 1033.2 L 422 1033.2 L 536 1014.3 L 639 976 L 699 929 L 724 841 L 715 753 L 655 617 L 539 416 L 438 277 L 306 113 L 233 37.8 L 151 -25.2 L 81.9 -47.2 L 75.6 -47.2 L 75.6 -6.3 L 148 123 L 290 309 L 472 513 L 589 633 L 734 762 L 936 910 L 1077.3 992 L 1171.8 1014.3 L 1206.4 1011.2 L 1231.7 992 L 1241.1 961 L 1190.7 857 L 1096.2 709 L 1004.8 627 L 917 561 L 863 542 L 819 536 L 781 554 L 750 576 L 734 614" />
<glyph unicode="Q" glyph-name="Q" horiz-adv-x="1426.9" d="M 854 788 L 762 677 L 649 586 L 498 510 L 362 488 L 306 517 L 302 583 L 359 699 L 510 844 L 706 951 L 876 1017.4 L 999 1026.9 L 1108.8 1011.2 L 1152.9 951 L 1165.5 876 L 1137.2 791 L 1052.1 649 L 904 491 L 737 315 L 501 123 L 362 12.6 L 224 -63 L 139 -94.5 L 91.4 -81.9 L 75.6 -50.4 L 107 25.2 L 208 113 L 362 195 L 454 239 L 507 246 L 592 239 L 677 195 L 806 120 L 895 66.1 L 992 34.6 L 1086.8 47.2 L 1134.0 56.7 L 1225.3 104" />
<glyph unicode="R" glyph-name="R" horiz-adv-x="1310.4" d="M 498 665 L 472 731 L 410 775 L 252 822 L 161 885 L 145 939 L 186 983 L 271 1014.3 L 438 1020.6 L 558 1001.7 L 658 958 L 718 882 L 718 806 L 702 706 L 633 567 L 554 428 L 400 224 L 246 53.6 L 167 -12.6 L 135 -34.6 L 101 -47.2 L 81.9 -22 L 97.6 37.8 L 170 158 L 321 346 L 529 567 L 674 702 L 866 844 L 1033.2 942 L 1162.3 995 L 1256.8 1008.0 L 1294.7 992 L 1304.1 980 L 1300.9 929 L 1260.0 857 L 1174.9 750 L 1064.7 639 L 980 573 L 945 551 L 882 529 L 850 532 L 797 545 L 756 567 L 737 595 L 715 639 L 747 643 L 740 359 L 756 239 L 819 88.2 L 885 28.4 L 964 28.4 L 1093.1 110 L 1244.2 265" />
<glyph unicode="S" glyph-name="S" horiz-adv-x="1326.2" d="M 126 9.45 L 217 28.4 L 353 85.1 L 589 195 L 819 334 L 1190.7 561 L 1395.4 731 L 1530.9 860 L 1565.6 914 L 1590.8 958 L 1593.9 992 L 1581.3 1011.2 L 1552.9 1014.3 L 1496.2 1001.7 L 1386.0 926 L 1316.7 841 L 1222.2 706 L 1149.8 576 L 1064.7 419 L 954 220 L 869 110 L 772 40.9 L 693 40.9 L 602 91.4 L 523 183 L 441 299 L 369 387 L 268 463 L 195 485 L 120 476 L 88.2 438 L 129 378 L 265 334 L 595 296 L 917 296 L 1149.8 318 L 1310.4 350" />
<glyph unicode="T" glyph-name="T" horiz-adv-x="775" d="M 88.2 866 L 28.4 891 L 28.4 914 L 192 876 L 432 876 L 721 876 L 967 901 L 1149.8 942 L 1282.1 983 L 1323.0 1014.3 L 1332.4 1048.9 L 1288.3 1067.8 L 1171.8 1052.1 L 1061.6 1008.0 L 961 936 L 819 794 L 668 583 L 548 400 L 450 239 L 369 123 L 321 72.4 L 261 22 L 246 3.15 L 189 -3.15 L 192 28.4 L 214 72.4" />
<glyph unicode="U" glyph-name="U" horiz-adv-x="1124.6" d="M 444 649 L 454 649 L 504 765 L 517 800 L 542 791 L 454 680 L 378 608 L 290 551 L 170 517 L 107 529 L 81.9 580 L 97.6 646 L 183 775 L 309 885 L 460 976 L 580 1023.8 L 652 1042.7 L 753 1026.9 L 794 973 L 788 914 L 747 806 L 639 655 L 495 463 L 312 214 L 277 154 L 265 97.6 L 299 53.6 L 359 47.2 L 463 88.2 L 589 167 L 750 306 L 920 466 L 1080.4 649 L 1171.8 772 L 1190.7 822 L 1181.2 847 L 1165.5 847 L 1080.4 797 L 967 677 L 835 507 L 750 372 L 699 280 L 658 180 L 662 69.3 L 709 22 L 794 18.9 L 844 40.9 L 929 94.5 L 1058.4 258" />
<glyph unicode="V" glyph-name="V" horiz-adv-x="753" d="M 463 668 L 438 715 L 353 756 L 236 775 L 110 800 L 53.5 828 L 28.4 876 L 41 936 L 117 983 L 198 1001.7 L 340 1014.3 L 472 1008.0 L 586 989 L 665 945 L 687 882 L 680 772 L 633 665 L 517 419 L 422 268 L 337 148 L 280 59.9 L 246 28.4 L 227 3.15 L 186 3.15 L 176 28.4 L 192 94.5 L 233 154 L 293 233 L 372 318 L 472 413 L 674 586 L 986 816 L 1089.9 885 L 1250.6 967" />
<glyph unicode="W" glyph-name="W" horiz-adv-x="1181.2" d="M 435 617 L 444 658 L 425 690 L 343 731 L 239 753 L 145 781 L 78.8 806 L 41 825 L 3.15 882 L 3.15 929 L 37.8 970 L 158 1017.4 L 302 1030.1 L 482 1017.4 L 617 967 L 680 882 L 696 772 L 674 636 L 583 438 L 476 255 L 369 113 L 265 3.15 L 220 -28.4 L 176 -34.6 L 164 -9.45 L 180 47.2 L 290 198 L 450 375 L 548 472 L 772 658 L 888 734 L 926 753 L 964 762 L 983 759 L 989 724 L 980 690 L 737 170 L 706 94.5 L 702 66.1 L 753 126 L 825 198 L 945 350 L 1077.3 488 L 1228.5 630 L 1386.0 759 L 1524.6 854 L 1625.4 907 L 1716.8 951 L 1612.8 869" />
<glyph unicode="X" glyph-name="X" horiz-adv-x="1212.8" d="M 482 621 L 576 778 L 586 765 L 479 652 L 381 561 L 233 485 L 151 472 L 113 485 L 85 536 L 110 633 L 170 737 L 296 873 L 422 958 L 583 1026.9 L 696 1042.7 L 778 999 L 806 895 L 788 769 L 630 246 L 617 126 L 633 63 L 709 22 L 794 15.8 L 879 40.9 L 939 78.8 L 1026.9 142 L 1149.8 261 M 1370.2 926 L 1445.8 999 L 1452.2 1026.9 L 948 671 L 529 337 L 353 176 L 198 22" />
<glyph unicode="Y" glyph-name="Y" horiz-adv-x="1203.3" d="M 573 721 L 488 633 L 397 545 L 309 491 L 195 466 L 126 491 L 113 602 L 205 756 L 381 885 L 529 967 L 702 1004.8 L 810 964 L 832 876 L 784 759 L 687 602 L 419 299 L 321 145 L 299 50.4 L 334 9.45 L 444 31.5 L 608 135 L 929 425 L 1143.4 633 L 1209.6 740 L 1225.3 800 M 1237.9 800 L 1187.6 800 L 1017.4 652 L 882 466 L 756 312 L 542 34.6 L 328 -261 L 101 -611 L 44.1 -731 L 37.8 -778 L 104 -803 L 211 -734 L 369 -558 L 435 -447 L 450 -353 L 422 -293 L 346 -252 L 252 -249 L 205 -255 L 520 -135 L 750 -3.15 L 936 107 L 1045.8 189 L 1140.3 258" />
<glyph unicode="Z" glyph-name="Z" horiz-adv-x="1575.0" d="M 1071.0 621 L 1067.8 662 L 1033.2 706 L 917 743 L 740 765 L 580 788 L 504 822 L 463 882 L 513 983 L 633 1036.3 L 828 1052.1 L 983 1045.8 L 1156.1 1011.2 L 1278.9 958 L 1370.2 882 L 1401.8 806 L 1398.6 728 L 1335.6 639 L 1184.4 504 L 945 334 L 740 214 L 482 63 L 211 -56.7 L 129 -75.6 L 88.2 -59.9 L 91.4 -25.2 L 170 44.1 L 312 123 L 416 170 L 501 176 L 576 164 L 655 145 L 769 88.2 L 951 18.9 L 1048.9 18.9 L 1165.5 34.6 L 1244.2 63 L 1360.8 135" />
<glyph unicode="[" glyph-name="bracketleft" horiz-adv-x="794" d="M 828 1124.6 L 504 1121.4 L 306 416 L 135 -195 L 463 -202" />
<glyph unicode="\" glyph-name="backslash" horiz-adv-x="693" d="M 309 1253.7 L 334 983 L 356 643 L 343 353 L 340 104 L 328 -129" />
<glyph unicode="]" glyph-name="bracketright" horiz-adv-x="794" d="M 479 1124.6 L 819 1121.4 L 450 -195 L 142 -195" />
<glyph unicode="^" glyph-name="asciicircum" horiz-adv-x="680" d="M 243 148 L 318 183 L 362 214 L 387 239 L 403 208 L 413 173 L 441 139" />
<glyph unicode="_" glyph-name="underscore" horiz-adv-x="873" d="M 176 12.6 L 573 3.15" />
<glyph unicode="`" glyph-name="grave" horiz-adv-x="674" d="M 202 466 L 265 413 L 350 378" />
<glyph unicode="a" glyph-name="a" horiz-adv-x="394" d="M 56.7 208 L 66.1 208 L 101 236 L 126 271 L 132 293 L 117 315 L 88.2 321 L 31.5 318 L -50.4 268 L -126 202 L -189 135 L -211 88.2 L -208 50.4 L -167 50.4 L -132 66.1 L -69.3 113 L 0 167 L 12.6 173 L -47.2 94.5 L -50.4 50.4 L -28.4 22 L 12.6 34.6 L 110 94.5 L 208 161 L 331 258" />
<glyph unicode="b" glyph-name="b" horiz-adv-x="413" d="M 479 860 L 258 561 L 117 359 L 31.5 220 L -18.9 132 L -31.5 75.6 L -18.9 44.1 L 12.6 50.4 L 50.4 75.6 L 94.5 113 L 123 164 L 135 220 L 135 265 L 120 306 L 81.9 337 L 3.15 356 L -41 334 L -66.1 293 L -63 258 L -47.2 217 L -15.8 180 L 44.1 142 L 85 132 L 161 135 L 224 164 L 350 258" />
<glyph unicode="c" glyph-name="c" horiz-adv-x="324" d="M 47.2 233 L 75.6 261 L 91.4 284 L 88.2 299 L 81.9 309 L 56.7 315 L 12.6 306 L -72.4 252 L -132 189 L -170 113 L -161 53.6 L -139 31.5 L -75.6 28.4 L 15.8 72.4 L 117 139 L 261 258" />
<glyph unicode="d" glyph-name="d" horiz-adv-x="372" d="M 482 841 L 403 721 L 280 561 L 154 391 L 12.6 183 L -28.4 151 L -91.4 101 L -170 53.6 L -217 37.8 L -227 75.6 L -198 129 L -126 205 L -59.9 261 L 6.3 299 L 53.5 302 L 69.3 265 L 3.15 139 L -3.15 72.4 L 12.6 53.6 L 78.8 78.8 L 205 161 L 309 258" />
<glyph unicode="e" glyph-name="e" horiz-adv-x="346" d="M -117 129 L -37.8 176 L 37.8 236 L 85 296 L 85 324 L 47.2 337 L -12.6 306 L -63 258 L -113 192 L -129 145 L -139 97.6 L -132 66.1 L -88.2 34.6 L -31.5 37.8 L 50.4 78.8 L 142 142 L 284 258" />
<glyph unicode="f" glyph-name="f" horiz-adv-x="309" d="M -63 258 L 120 460 L 205 554 L 346 702 L 369 734 L 384 731 L 287 570 L 145 359 L -164 -50.4 L -384 -394 L -438 -479 L -460 -523 L -438 -554 L -416 -554 L -306 -504 L -170 -343 L -104 -214 L -63 -81.9 L -56.7 22 L -88.2 97.6 L -154 148 L -205 158 L -265 148 L -309 123 L -318 97.6 L -309 66.1 L -246 22 L -148 3.15 L -41 31.5 L 63 88.2 L 135 148 L 246 258" />
<glyph unicode="g" glyph-name="g" horiz-adv-x="391" d="M 101 233 L 154 287 L 176 328 L 132 350 L 66.1 343 L -9.45 296 L -126 211 L -208 113 L -205 63 L -145 53.6 L -97.6 81.9 L -6.3 148 L 50.4 198 L 34.6 208 L -139 -63 L -362 -381 L -432 -479 L -457 -520 L -466 -498 L -410 -394 L -318 -274 L -220 -154 L -120 -63 L -66.1 -22 L 94.5 75.6 L 186 142 L 328 258" />
<glyph unicode="h" glyph-name="h" horiz-adv-x="428" d="M 296 803 L -25.2 315 L -202 44.1 L -85.1 151 L 3.15 227 L 53.5 261 L 94.5 280 L 123 284 L 135 284 L 132 252 L 56.7 148 L 22 88.2 L 18.9 50.4 L 53.5 28.4 L 91.4 44.1 L 158 81.9 L 239 142 L 365 255" />
<glyph unicode="i" glyph-name="i" horiz-adv-x="243" d="M -44.1 284 L -120 180 L -158 110 L -170 78.8 L -170 53.6 L -161 34.6 L -132 37.8 L -34.6 97.6 L 110 202 L 180 258 M 53.5 422 L 31.5 384" />
<glyph unicode="j" glyph-name="j" horiz-adv-x="239" d="M -63 258 L 50.4 346 L 66.1 328 L -72.4 126 L -252 -132 L -362 -280 L -460 -425 L -517 -507 L -523 -545 L -491 -561 L -432 -539 L -331 -438 L -255 -318 L -246 -233 L -265 -183 L -296 -142 L -334 -123 L -394 -110 L -284 -101 L -202 -85 L -117 -31.5 L 28.4 97.6 L 176 258 M 132 469 L 101 425" />
<glyph unicode="k" glyph-name="k" horiz-adv-x="507" d="M -63 258 L 28.4 343 L 101 419 L 202 517 L 337 643 L 403 740 L 422 803 L 406 813 L 239 605 L 126 435 L 22 284 L -28.4 217 L -135 69.3 L -135 47.2 L -37.8 173 L 53.5 265 L 151 350 L 246 422 L 309 450 L 343 447 L 353 413 L 324 375 L 258 306 L 183 246 L 145 227 L 113 233 L 66.1 227 L 25.2 249 L 72.5 268 L 91.4 261 L 50.4 176 L 47.2 104 L 97.6 50.4 L 161 50.4 L 261 110 L 444 258" />
<glyph unicode="l" glyph-name="l" horiz-adv-x="331" d="M -56.7 255 L -50.4 255 L 34.6 315 L 183 444 L 315 567 L 406 665 L 460 743 L 472 784 L 463 803 L 444 810 L 400 797 L 302 724 L 183 611 L 72.5 466 L -22 331 L -101 186 L -123 117 L -126 78.8 L -117 50.4 L -91.4 28.4 L -44.1 40.9 L 22 66.1 L 113 132 L 268 255" />
<glyph unicode="m" glyph-name="m" horiz-adv-x="633" d="M 570 258 L 463 161 L 394 107 L 306 53.6 L 246 31.5 L 220 37.8 L 217 66.1 L 246 117 L 306 189 L 334 217 L 350 243 L 350 258 L 324 249 L 274 211 L 173 135 L 91.4 75.6 L 47.2 56.7 L 22 53.6 L 28.4 78.8 L 41 97.6 L 69.3 132 L 107 183 L 164 249 L 167 277 L 139 280 L 104 252 L 41 208 L -85.1 107 L -186 47.2 L -94.5 176 L -22 271 L -3.15 293 L -63 258" />
<glyph unicode="n" glyph-name="n" horiz-adv-x="510" d="M -63 258 L -41 277 L 3.15 315 L 25.2 318 L 31.5 306 L 22 280 L -123 88.2 L -145 53.6 L -139 40.9 L -117 40.9 L -44.1 101 L 72.5 183 L 148 246 L 230 290 L 243 293 L 249 277 L 183 192 L 117 110 L 104 72.4 L 104 34.6 L 139 31.5 L 202 69.3 L 318 148 L 447 255" />
<glyph unicode="o" glyph-name="o" horiz-adv-x="359" d="M -3.15 312 L -59.9 261 L -117 180 L -139 66.1 L -129 22 L -66.1 15.8 L 31.5 94.5 L 97.6 195 L 126 284 L 142 356 L 135 422 L 85 482 L 31.5 479 L -12.6 450 L -28.4 406 L -22 340 L 6.3 255 L 41 211 L 88.2 164 L 142 164 L 195 192 L 243 217 L 296 258" />
<glyph unicode="p" glyph-name="p" horiz-adv-x="469" d="M 410 258 L 274 148 L 205 94.5 L 113 37.8 L 75.6 31.5 L 53.5 50.4 L 59.9 81.9 L 104 129 L 176 220 L 220 268 L 217 293 L 202 299 L 145 293 L 91.4 265 L 6.3 211 L -72.4 148 L -164 75.6 L -280 -44.1 L -410 -189 L -495 -296 L -564 -394 L -595 -460 L -592 -507 L -586 -529 L -551 -526 L -529 -504 L -498 -472 L -447 -403 L -324 -255 L -170 -44.1 L -18.9 176 L 81.9 318 L 227 504 L 268 580 L 243 558 L 186 491 L 113 410 L -63 258" />
<glyph unicode="q" glyph-name="q" horiz-adv-x="413" d="M 110 239 L 164 290 L 180 334 L 161 362 L 72.5 346 L -28.4 287 L -107 224 L -170 154 L -198 94.5 L -202 63 L -139 50.4 L -78.8 88.2 L -15.8 132 L 37.8 180 L 47.2 180 L -142 -53.5 L -287 -243 L -403 -410 L -444 -485 L -457 -523 L -425 -539 L -394 -532 L -337 -482 L -255 -400 L -186 -296 L -126 -192 L -101 -135 L -75.6 -69.3 L -72.4 -37.8 L -75.6 31.5 L -22 25.2 L 56.7 47.2 L 176 123 L 350 258" />
<glyph unicode="r" glyph-name="r" horiz-adv-x="362" d="M -63 258 L 25.2 328 L 72.5 381 L 107 422 L 117 450 L 88.2 454 L 47.2 410 L 37.8 384 L 44.1 343 L 66.1 309 L 94.5 280 L -3.15 161 L -41 107 L -50.4 59.9 L -31.5 44.1 L 9.45 50.4 L 132 126 L 299 258" />
<glyph unicode="s" glyph-name="s" horiz-adv-x="334" d="M -63 258 L -28.4 280 L 12.6 312 L 41 369 L 56.7 372 L 37.8 284 L 25.2 220 L 15.8 135 L 9.45 88.2 L -12.6 53.6 L -28.4 31.5 L -56.7 15.8 L -94.5 25.2 L -117 59.9 L -69.3 15.8 L 3.15 40.9 L 41 63 L 148 132 L 271 258" />
<glyph unicode="t" glyph-name="t" horiz-adv-x="249" d="M 214 586 L 63 413 L -59.9 265 L -139 158 L -158 75.6 L -145 34.6 L -107 40.9 L 12.6 120 L 186 258 M -88.2 554 L -117 564 L -142 583 L -41 605 L 158 630 L 353 636 L 529 643 L 668 627" />
<glyph unicode="u" glyph-name="u" horiz-adv-x="397" d="M -47.2 271 L -123 198 L -176 132 L -211 69.3 L -198 47.2 L -164 47.2 L -50.4 126 L 72.5 227 L 113 268 L 132 271 L 25.2 145 L -6.3 97.6 L -18.9 63 L -9.45 40.9 L 22 34.6 L 94.5 72.4 L 189 145 L 334 258" />
<glyph unicode="v" glyph-name="v" horiz-adv-x="328" d="M -104 233 L -44.1 268 L -22 252 L -63 183 L -139 37.8 L -107 56.7 L 3.15 142 L 132 246 L 211 299 L 243 324 L 277 324 L 290 306 L 265 258" />
<glyph unicode="w" glyph-name="w" horiz-adv-x="454" d="M -12.6 306 L -88.2 233 L -148 158 L -170 94.5 L -167 69.3 L -139 56.7 L -104 63 L -6.3 129 L 97.6 208 L 180 287 L 91.4 176 L 63 120 L 44.1 59.9 L 53.5 28.4 L 75.6 18.9 L 142 37.8 L 189 75.6 L 243 129 L 271 176 L 277 217 L 268 261" />
<glyph unicode="x" glyph-name="x" horiz-adv-x="387" d="M -66.1 258 L 0 302 L -22 208 L -37.8 123 L -37.8 69.3 L -6.3 37.8 L 37.8 50.4 L 148 117 L 324 258 M 198 324 L 117 277 L 44.1 230 L -31.5 176 L -97.6 113 L -176 40.9" />
<glyph unicode="y" glyph-name="y" horiz-adv-x="444" d="M -31.5 296 L -113 195 L -151 142 L -164 91.4 L -139 75.6 L -97.6 91.4 L -15.8 145 L 59.9 208 L 129 255 L 167 280 L 170 268 L 34.6 75.6 L -135 -129 L -255 -274 L -353 -403 L -384 -463 L -387 -504 L -359 -510 L -277 -463 L -192 -372 L -142 -296 L -123 -224 L -135 -176 L -164 -132 L -202 -113 L -239 -101 L -126 -63 L 37.8 15.8 L 202 113 L 381 258" />
<glyph unicode="z" glyph-name="z" horiz-adv-x="277" d="M -123 211 L -28.4 280 L 31.5 318 L 66.1 331 L 91.4 318 L 101 293 L 91.4 271 L 53.5 227 L -3.15 180 L -66.1 132 L -183 66.1 L -113 37.8 L -75.6 9.45 L -66.1 -31.5 L -75.6 -104 L -110 -195 L -154 -255 L -217 -331 L -309 -432 L -384 -504 L -419 -523 L -460 -523 L -482 -504 L -482 -457 L -457 -406 L -435 -353 L -334 -236 L -236 -142 L -126 -63 L -63 -22 L 56.7 37.8" />
<glyph unicode="{" glyph-name="braceleft" horiz-adv-x="788" d="M 759 1036.3 L 706 1058.4 L 611 1071.0 L 548 1052.1 L 501 980 L 488 873 L 466 715 L 447 608 L 419 554 L 375 504 L 309 479 L 362 454 L 387 403 L 369 346 L 293 164 L 252 63 L 239 0 L 233 -53.5 L 258 -101 L 306 -145 L 406 -189" />
<glyph unicode="|" glyph-name="bar" horiz-adv-x="706" d="M 621 1206.4 L 517 810 L 422 548 L 331 315 L 230 53.6 L 161 -97.6" />
<glyph unicode="}" glyph-name="braceright" horiz-adv-x="850" d="M 504 1077.3 L 580 1055.2 L 639 1001.7 L 674 942 L 680 876 L 643 759 L 576 621 L 548 545 L 532 501 L 551 447 L 567 419 L 605 410 L 554 381 L 504 350 L 469 258 L 454 142 L 438 -15.8 L 400 -139 L 343 -176 L 274 -183 L 211 -176 L 161 -154" />
<glyph unicode="~" glyph-name="asciitilde" horiz-adv-x="794" d="M 290 208 L 356 158 L 416 173 L 501 180 L 520 167 L 551 139" />
<glyph unicode="&#xa0;" glyph-name="nbspace" horiz-adv-x="378" />
<glyph unicode="&#xa1;" glyph-name="exclamdown" horiz-adv-x="687" d="M 198 31.5 L 662 762 M 715 860 L 740 901" />
<glyph unicode="&#xa2;" glyph-name="cent" horiz-adv-x="465" d="M 47.2 233 L 75.6 261 L 91.4 284 L 88.2 299 L 81.9 309 L 56.7 315 L 12.6 306 L -72.4 252 L -132 189 L -170 113 L -161 53.6 L -139 31.5 L -75.6 28.4 L 15.8 72.4 L 117 139 L 261 258 M 204 618 L 104 446 L 32.1 297 L -68 90.7 L -123 -56.7 L -153 -132" />
<glyph unicode="&#xa3;" glyph-name="sterling" horiz-adv-x="1341.9" d="M 304 467 L 313 467 L 847 459 M 202 687 L 428 680 L 633 715 L 828 762 L 973 806 L 1137.2 879 L 1253.7 948 L 1307.2 1001.7 L 1297.8 1033.2 L 1247.4 1039.5 L 1168.7 1026.9 L 1067.8 976 L 989 917 L 885 797 L 747 633 L 498 309 L 328 91.4 L 252 15.8 L 164 -34.6 L 135 -63 L 88.2 -56.7 L 72.5 -28.4 L 104 53.6 L 205 139 L 296 208 L 356 239 L 403 255 L 507 258 L 621 227 L 690 170 L 794 88.2 L 869 40.9 L 970 28.4 L 1045.8 37.8 L 1130.8 85.1" />
<glyph unicode="&#xa5;" glyph-name="yen" horiz-adv-x="466" d="M 195 18.9 L 255 306 L 353 576 L 460 810 L 504 891 L 558 954 M 120 951 L 145 699 L 192 488 L 230 369 L 255 324 M 69.3 -50.4 L 161 -15.8 L 268 -6.3 L 350 -15.8 M 97.6 180 L 170 186 L 271 161 L 321 170 L 391 198 M 97.6 306 L 170 312 L 271 287 L 321 296 L 391 324" />
<glyph unicode="&#xa6;" glyph-name="brokenbar" horiz-adv-x="73.7" d="M 215 214 L 207 107 L 204 -40.6 M 215 686 L 207 579 L 204 432" />
<glyph unicode="&#xa8;" glyph-name="dieresis" horiz-adv-x="567" d=" M 160 608 L 125 561 M 439 609 L 405 562" />
<glyph unicode="&#xa9;" glyph-name="copyright" horiz-adv-x="961" d="M 630 904 L 444 876 L 280 781 L 158 643 L 56.7 491 L 9.45 340 L 6.3 195 L 44.1 97.6 L 120 40.9 L 230 6.3 L 356 6.3 L 536 56.7 L 747 208 L 882 391 L 945 573 L 951 709 L 914 810 L 816 876 L 740 898 L 630 904 M 602 521 L 611 547 L 621 573 L 619 594 L 597 616 L 575 628 L 539 636 L 471 630 L 392 598 L 326 543 L 274 487 L 244 435 L 224 381 L 213 318 L 219 266 L 246 224 L 276 202 L 320 189 L 389 186 L 457 198 L 517 217 L 580 257 L 606 284 L 622 301" />
<glyph unicode="&#xaa;" glyph-name="ordfeminine" horiz-adv-x="197" d="M 154 781 L 159 781 L 176 795 L 189 813 L 192 824 L 184 835 L 170 838 L 142 836 L 101 811 L 63 778 L 31.5 745 L 20.5 721 L 22 702 L 42.5 702 L 59.8 710 L 91.3 734 L 126 761 L 132 764 L 102 724 L 101 702 L 112 688 L 132 695 L 181 724 L 230 758 L 291 806" />
<glyph unicode="&#xab;" glyph-name="guillemotleft" horiz-adv-x="293" d="M 181 469 L 120 381 L 51.7 292 L 102 214 L 132 154 L 144 126 L 142 108 M 307 469 L 246 381 L 178 292 L 228 214 L 258 154 L 270 126 L 268 108" />
<glyph unicode="&#xae;" glyph-name="registered" horiz-adv-x="961" d="M 630 904 L 444 876 L 280 781 L 158 643 L 56.7 491 L 9.45 340 L 6.3 195 L 44.1 97.6 L 120 40.9 L 230 6.3 L 356 6.3 L 536 56.7 L 747 208 L 882 391 L 945 573 L 951 709 L 914 810 L 816 876 L 740 898 L 630 904 M 247 526 L 232 558 L 227 583 L 236 600 L 266 614 L 309 627 L 369 632 L 558 630 L 600 616 L 622 572 L 622 534 L 614 498 L 589 460 L 561 432 L 517 414 L 468 403 L 400 402 L 391 395 L 443 295 L 484 236 L 528 205 L 578 202 L 611 220 L 649 255 L 682 301 M 504 630 L 455 616 L 428 584 L 263 268 L 227 216 L 186 191 L 238 224 L 263 222 L 260 257" />
<glyph unicode="&#xb0;" glyph-name="degree" horiz-adv-x="344" d="M 319 809 L 320 820 L 329 834 L 363 856 L 376 868 L 386 881 L 385 899 L 374 909 L 349 912 L 312 901 L 266 870 L 214 813 L 176 754 L 157 711 L 150 673 L 151 635 L 163 613 L 189 602 L 219 604 L 249 616 L 269 627 L 310 663 L 349 710 L 380 764 L 393 802 L 400 838 L 397 855 L 389 864 L 366 874 L 330 869 L 283 843 L 247 809 L 221 763 L 209 725 L 209 685 L 232 649 L 267 639 L 304 635 L 339 645 L 389 672" />
<glyph unicode="&#xb1;" glyph-name="plusminus" horiz-adv-x="428" d="M 524 32.8 L 703 30.2 M 819 650 L 665 272 M 542 479 L 960 474" />
<glyph unicode="&#xb2;" glyph-name="twosuperior" horiz-adv-x="482" d="M 417 1108.8 L 403 1066.3 L 375 1025.3 L 331 995 L 265 991 L 235 1009.6 L 230 1042.7 L 250 1088.3 L 293 1135.6 L 350 1167.1 L 408 1184.4 L 460 1189.1 L 502 1174.9 L 520 1137.2 L 517 1093.1 L 488 1025.3 L 433 932 L 375 858 L 312 789 L 261 734 L 208 695 L 161 679 L 143 696 L 146 729 L 184 772 L 236 794 L 261 797 L 299 784 L 367 737 L 410 709 L 454 698 L 499 709 L 536 726" />
<glyph unicode="&#xb3;" glyph-name="threesuperior" horiz-adv-x="463" d="M 414 1123.0 L 387 1072.6 L 350 1042.7 L 295 1030.1 L 268 1050.5 L 265 1093.1 L 296 1141.9 L 335 1174.9 L 383 1195.4 L 433 1208.0 L 477 1209.6 L 524 1192.3 L 540 1167.1 L 539 1134.0 L 521 1104.1 L 482 1061.6 L 425 1020.6 L 365 988 L 290 945 L 321 958 L 346 965 L 416 961 L 443 937 L 455 909 L 452 874 L 430 827 L 398 786 L 342 732 L 290 704 L 244 688 L 172 687 L 134 704 L 132 723 L 151 736 L 186 739 L 244 723 L 299 685 L 324 669 L 353 668" />
<glyph unicode="&#xb4;" glyph-name="acute" horiz-adv-x="378" d=" M 228 583 L 165 530 L 79.5 495" />
<glyph unicode="&#xb7;" glyph-name="middot" horiz-adv-x="529" d="M 374 378 L 333 321" />
<glyph unicode="&#xb9;" glyph-name="onesuperior" horiz-adv-x="321" d="M 280 1100.9 L 263 1078.9 L 257 1086.8 L 306 1111.9 L 343 1130.8 L 430 1148.2 L 487 1168.7 L 512 1184.4 L 515 1195.4 L 506 1203.3 L 474 1201.7 L 425 1171.8 L 400 1152.9 L 345 1083.6 L 285 994 L 239 904 L 191 794 L 172 734 L 165 698 L 167 677" />
<glyph unicode="&#xba;" glyph-name="ordmasculine" horiz-adv-x="344" d="M 319 809 L 320 820 L 329 834 L 363 856 L 376 868 L 386 881 L 385 899 L 374 909 L 349 912 L 312 901 L 266 870 L 214 813 L 176 754 L 157 711 L 150 673 L 151 635 L 163 613 L 189 602 L 219 604 L 249 616 L 269 627 L 310 663 L 349 710 L 380 764 L 393 802 L 400 838 L 397 855 L 389 864 L 366 874 L 330 869 L 283 843 L 247 809 L 221 763 L 209 725 L 209 685 L 232 649 L 267 639 L 304 635 L 339 645 L 389 672" />
<glyph unicode="&#xbb;" glyph-name="guillemotright" horiz-adv-x="291" d="M 64.3 469 L 106 383 L 126 345 L 159 287 L 86.9 207 L 45.4 149 L 27.7 118 L 31.5 108 M 190 469 L 232 383 L 252 345 L 285 287 L 213 207 L 171 149 L 154 118 L 158 108" />
<glyph unicode="&#xbc;" glyph-name="onequarter" horiz-adv-x="905" d="M 185 886 L 164 860 L 157 869 L 215 900 L 261 922 L 365 943 L 433 968 L 463 987 L 467 1e+03 L 455 1009.3 L 418 1007.4 L 359 971 L 329 949 L 263 866 L 191 758 L 136 650 L 77.5 518 L 54.8 446 L 47.2 403 L 49.1 378 M 876 1187.6 L 709 901 L 589 652 L 422 309 L 331 63 L 280 -63 M 909 508 L 835 355 L 769 210 L 739 119 L 716 47.2 L 711 1.89 M 964 537 L 1007.4 571 L 1022.5 601 L 1018.7 631 L 977 644 L 911 635 L 816 590 L 728 512 L 656 438 L 597 348 L 559 280 L 546 217 L 559 161 L 597 147 L 644 144 L 701 151 L 843 181 L 883 185 L 924 180 L 949 172 L 971 164" />
<glyph unicode="&#xbd;" glyph-name="onehalf" horiz-adv-x="868" d="M 185 886 L 164 860 L 157 869 L 215 900 L 261 922 L 365 943 L 433 968 L 463 987 L 467 1e+03 L 455 1009.3 L 418 1007.4 L 359 971 L 329 949 L 263 866 L 191 758 L 136 650 L 77.5 518 L 54.8 446 L 47.2 403 L 49.1 378 M 876 1187.6 L 709 901 L 589 652 L 422 309 L 331 63 L 280 -63 M 822 518 L 805 467 L 771 418 L 718 382 L 639 376 L 603 399 L 597 438 L 622 493 L 673 550 L 741 588 L 811 609 L 873 614 L 924 597 L 945 552 L 941 499 L 907 418 L 841 306 L 771 217 L 696 134 L 635 68 L 571 20.8 L 514 1.89 L 493 22.7 L 497 62.4 L 542 113 L 605 140 L 635 144 L 680 129 L 762 71.8 L 813 37.8 L 866 24.6 L 920 37.8 L 964 58.6" />
<glyph unicode="&#xbe;" glyph-name="threequarters" horiz-adv-x="1058.0" d="M 346 913 L 314 852 L 268 816 L 202 801 L 170 826 L 166 877 L 204 936 L 251 975 L 308 1e+03 L 369 1014.9 L 421 1016.8 L 478 996 L 497 966 L 495 926 L 474 890 L 427 839 L 359 790 L 287 750 L 197 699 L 234 714 L 265 724 L 348 718 L 380 690 L 395 656 L 391 614 L 365 558 L 327 508 L 259 444 L 197 410 L 142 391 L 54.8 389 L 9.45 410 L 7.56 433 L 30.2 448 L 71.8 452 L 142 433 L 208 387 L 238 369 L 272 367 M 876 1187.6 L 709 901 L 589 652 L 422 309 L 331 63 L 280 -63 M 909 508 L 835 355 L 769 210 L 739 119 L 716 47.2 L 711 1.89 M 964 537 L 1007.4 571 L 1022.5 601 L 1018.7 631 L 977 644 L 911 635 L 816 590 L 728 512 L 656 438 L 597 348 L 559 280 L 546 217 L 559 161 L 597 147 L 644 144 L 701 151 L 843 181 L 883 185 L 924 180 L 949 172 L 971 164" />
<glyph unicode="&#xbf;" glyph-name="questiondown" horiz-adv-x="967" d="M 435 164 L 457 243 L 501 302 L 567 372 L 627 400 L 743 406 L 797 375 L 810 321 L 781 217 L 690 123 L 545 44.1 L 372 18.9 L 268 40.9 L 224 123 L 233 252 L 302 381 L 406 495 L 504 567 L 605 633 L 684 702 L 721 756 L 731 810 L 731 841 L 709 866 L 662 876 L 652 873 M 778 958 L 806 1001.7" />
<glyph unicode="&#xc0;" glyph-name="Agrave" horiz-adv-x="1338.8" d="M -63 56.7 L 47.2 28.4 L 164 28.4 L 287 56.7 L 410 113 L 507 180 L 643 318 L 803 501 L 926 677 L 1045.8 847 L 1156.1 958 L 1197.0 983 L 1237.9 986 L 1272.6 954 L 1203.3 791 L 1058.4 463 L 932 195 L 841 47.2 L 816 22 L 772 22 L 699 148 L 662 208 L 542 343 L 441 403 L 324 444 L 265 444 L 224 432 L 217 406 L 261 356 L 375 315 L 646 284 L 1052.1 290 L 1162.3 290 L 1241.1 299 L 1288.3 309 M 947 1272.6 L 1010.0 1219.1 L 1095.0 1184.4" />
<glyph unicode="&#xc1;" glyph-name="Aacute" horiz-adv-x="1338.8" d="M -63 56.7 L 47.2 28.4 L 164 28.4 L 287 56.7 L 410 113 L 507 180 L 643 318 L 803 501 L 926 677 L 1045.8 847 L 1156.1 958 L 1197.0 983 L 1237.9 986 L 1272.6 954 L 1203.3 791 L 1058.4 463 L 932 195 L 841 47.2 L 816 22 L 772 22 L 699 148 L 662 208 L 542 343 L 441 403 L 324 444 L 265 444 L 224 432 L 217 406 L 261 356 L 375 315 L 646 284 L 1052.1 290 L 1162.3 290 L 1241.1 299 L 1288.3 309 M 1322.7 1195.0 L 1259.7 1141.5 L 1174.7 1106.8" />
<glyph unicode="&#xc2;" glyph-name="Acircumflex" horiz-adv-x="1338.8" d="M -63 56.7 L 47.2 28.4 L 164 28.4 L 287 56.7 L 410 113 L 507 180 L 643 318 L 803 501 L 926 677 L 1045.8 847 L 1156.1 958 L 1197.0 983 L 1237.9 986 L 1272.6 954 L 1203.3 791 L 1058.4 463 L 932 195 L 841 47.2 L 816 22 L 772 22 L 699 148 L 662 208 L 542 343 L 441 403 L 324 444 L 265 444 L 224 432 L 217 406 L 261 356 L 375 315 L 646 284 L 1052.1 290 L 1162.3 290 L 1241.1 299 L 1288.3 309 M 1112.2 1137.7 L 1161.7 1160.3 L 1190.5 1180.9 L 1207.0 1197.4 L 1217.3 1176.8 L 1223.5 1154.2 L 1242.0 1131.5" />
<glyph unicode="&#xc3;" glyph-name="Atilde" horiz-adv-x="1338.8" d="M -63 56.7 L 47.2 28.4 L 164 28.4 L 287 56.7 L 410 113 L 507 180 L 643 318 L 803 501 L 926 677 L 1045.8 847 L 1156.1 958 L 1197.0 983 L 1237.9 986 L 1272.6 954 L 1203.3 791 L 1058.4 463 L 932 195 L 841 47.2 L 816 22 L 772 22 L 699 148 L 662 208 L 542 343 L 441 403 L 324 444 L 265 444 L 224 432 L 217 406 L 261 356 L 375 315 L 646 284 L 1052.1 290 L 1162.3 290 L 1241.1 299 L 1288.3 309 M 1023.2 1081.5 L 1066.4 1048.6 L 1105.5 1058.8 L 1161.0 1063.0 L 1173.3 1054.7 L 1193.9 1036.2" />
<glyph unicode="&#xc4;" glyph-name="Adieresis" horiz-adv-x="1338.8" d="M -63 56.7 L 47.2 28.4 L 164 28.4 L 287 56.7 L 410 113 L 507 180 L 643 318 L 803 501 L 926 677 L 1045.8 847 L 1156.1 958 L 1197.0 983 L 1237.9 986 L 1272.6 954 L 1203.3 791 L 1058.4 463 L 932 195 L 841 47.2 L 816 22 L 772 22 L 699 148 L 662 208 L 542 343 L 441 403 L 324 444 L 265 444 L 224 432 L 217 406 L 261 356 L 375 315 L 646 284 L 1052.1 290 L 1162.3 290 L 1241.1 299 L 1288.3 309 M 1052.5 1192.8 L 1017.9 1145.5 M 1334.1 1226.5 L 1299.5 1179.3" />
<glyph unicode="&#xc5;" glyph-name="Aring" horiz-adv-x="1316.7" d="M 12.6 186 L -9.45 123 L -6.3 56.7 L 37.8 15.8 L 91.4 6.3 L 176 12.6 L 287 69.3 L 428 167 L 693 394 L 866 573 L 958 674 L 1030.1 743 L 1111.9 813 L 1190.7 847 L 1244.2 876 L 1275.8 885 L 1307.2 885 L 1348.2 888 L 1395.4 917 L 1433.2 932 L 1483.7 939 L 1423.8 926 L 1367.1 898 L 1319.8 850 L 1250.6 753 L 1193.8 643 L 1140.3 548 L 1089.9 435 L 1017.4 315 L 970 183 L 951 110 L 951 53.6 L 970 28.4 L 995 25.2 L 1036.3 22 L 1080.4 37.8 L 1137.2 88.2 L 1187.6 139 L 1253.7 224 M 236 284 L 230 312 L 258 359 L 309 384 L 391 413 L 466 422 L 532 425 L 639 422 L 759 413 L 860 413 L 939 416 L 973 416 L 1011.2 438 M 734 643 L 706 684 L 721 759 L 775 819 L 873 860 L 1042.7 882 L 1146.6 879 L 1260.0 882 M 1340.0 1310.7 L 1284.3 1302.2 L 1235.1 1273.9 L 1198.3 1232.3 L 1168.0 1186.9 L 1153.8 1141.6 L 1152.9 1098.1 L 1164.2 1068.8 L 1186.9 1051.8 L 1220.0 1041.4 L 1257.8 1041.4 L 1311.7 1056.5 L 1375.0 1101.9 L 1415.6 1156.7 L 1434.5 1211.5 L 1436.4 1252.1 L 1425.1 1282.4 L 1395.8 1302.2 L 1373.1 1308.8 L 1340.0 1310.7" />
<glyph unicode="&#xc8;" glyph-name="Egrave" horiz-adv-x="1156.1" d="M 117 976 L 438 951 L 684 942 L 882 948 L 1074.2 954 L 1187.6 983 L 1228.5 1011.2 L 1165.5 1026.9 L 1042.7 1008.0 L 954 999 L 822 958 L 677 914 L 457 813 L 328 734 L 274 680 L 249 630 L 261 595 L 309 586 L 463 586 L 731 621 L 781 630 L 828 624 L 835 602 L 819 570 L 734 510 L 381 343 L 205 224 L 145 142 L 139 63 L 205 28.4 L 391 37.8 L 636 63 L 737 59.9 L 797 53.6 L 828 34.6 L 869 0 M 714 1287.2 L 777 1233.7 L 862 1199.0" />
<glyph unicode="&#xc9;" glyph-name="Eacute" horiz-adv-x="1156.1" d="M 117 976 L 438 951 L 684 942 L 882 948 L 1074.2 954 L 1187.6 983 L 1228.5 1011.2 L 1165.5 1026.9 L 1042.7 1008.0 L 954 999 L 822 958 L 677 914 L 457 813 L 328 734 L 274 680 L 249 630 L 261 595 L 309 586 L 463 586 L 731 621 L 781 630 L 828 624 L 835 602 L 819 570 L 734 510 L 381 343 L 205 224 L 145 142 L 139 63 L 205 28.4 L 391 37.8 L 636 63 L 737 59.9 L 797 53.6 L 828 34.6 L 869 0 M 1100.5 1176.5 L 1037.5 1122.9 L 952 1088.3" />
<glyph unicode="&#xca;" glyph-name="Ecircumflex" horiz-adv-x="1156.1" d="M 117 976 L 438 951 L 684 942 L 882 948 L 1074.2 954 L 1187.6 983 L 1228.5 1011.2 L 1165.5 1026.9 L 1042.7 1008.0 L 954 999 L 822 958 L 677 914 L 457 813 L 328 734 L 274 680 L 249 630 L 261 595 L 309 586 L 463 586 L 731 621 L 781 630 L 828 624 L 835 602 L 819 570 L 734 510 L 381 343 L 205 224 L 145 142 L 139 63 L 205 28.4 L 391 37.8 L 636 63 L 737 59.9 L 797 53.6 L 828 34.6 L 869 0 M 810 1162.8 L 861 1185.9 L 891 1207.0 L 907 1223.9 L 918 1202.8 L 924 1179.6 L 943 1156.4" />
<glyph unicode="&#xcb;" glyph-name="Edieresis" horiz-adv-x="1156.1" d="M 117 976 L 438 951 L 684 942 L 882 948 L 1074.2 954 L 1187.6 983 L 1228.5 1011.2 L 1165.5 1026.9 L 1042.7 1008.0 L 954 999 L 822 958 L 677 914 L 457 813 L 328 734 L 274 680 L 249 630 L 261 595 L 309 586 L 463 586 L 731 621 L 781 630 L 828 624 L 835 602 L 819 570 L 734 510 L 381 343 L 205 224 L 145 142 L 139 63 L 205 28.4 L 391 37.8 L 636 63 L 737 59.9 L 797 53.6 L 828 34.6 L 869 0 M 884 1200.3 L 849 1153.0 M 1162.9 1202.7 L 1128.3 1155.5" />
<glyph unicode="&#xcc;" glyph-name="Igrave" horiz-adv-x="684" d="M 822 917 L 734 819 L 526 526 L 346 258 L 189 56.7 L 161 22 L 120 22 L 120 56.7 M 869 860 L 932 917 L 961 983 L 932 1026.9 L 813 1036.3 L 668 995 L 482 907 L 321 803 L 186 696 L 107 592 L 85 536 L 94.5 491 L 145 457 L 233 447 L 375 457 L 630 498 L 721 510 L 772 520 L 822 504 L 895 482 M 485 1280.1 L 548 1226.5 L 633 1191.9" />
<glyph unicode="&#xcd;" glyph-name="Iacute" horiz-adv-x="684" d="M 822 917 L 734 819 L 526 526 L 346 258 L 189 56.7 L 161 22 L 120 22 L 120 56.7 M 869 860 L 932 917 L 961 983 L 932 1026.9 L 813 1036.3 L 668 995 L 482 907 L 321 803 L 186 696 L 107 592 L 85 536 L 94.5 491 L 145 457 L 233 447 L 375 457 L 630 498 L 721 510 L 772 520 L 822 504 L 895 482 M 862 1207.0 L 799 1153.5 L 714 1118.8" />
<glyph unicode="&#xce;" glyph-name="Icircumflex" horiz-adv-x="684" d="M 822 917 L 734 819 L 526 526 L 346 258 L 189 56.7 L 161 22 L 120 22 L 120 56.7 M 869 860 L 932 917 L 961 983 L 932 1026.9 L 813 1036.3 L 668 995 L 482 907 L 321 803 L 186 696 L 107 592 L 85 536 L 94.5 491 L 145 457 L 233 447 L 375 457 L 630 498 L 721 510 L 772 520 L 822 504 L 895 482 M 767 1247.6 L 822 1272.9 L 854 1295.9 L 873 1314.3 L 884 1291.3 L 891 1266.0 L 912 1240.7" />
<glyph unicode="&#xcf;" glyph-name="Idieresis" horiz-adv-x="684" d="M 822 917 L 734 819 L 526 526 L 346 258 L 189 56.7 L 161 22 L 120 22 L 120 56.7 M 869 860 L 932 917 L 961 983 L 932 1026.9 L 813 1036.3 L 668 995 L 482 907 L 321 803 L 186 696 L 107 592 L 85 536 L 94.5 491 L 145 457 L 233 447 L 375 457 L 630 498 L 721 510 L 772 520 L 822 504 L 895 482 M 645 1205.2 L 610 1158.0 M 923 1213.8 L 888 1166.5" />
<glyph unicode="&#xd0;" glyph-name="Eth" horiz-adv-x="1310.4" d="M 437 467 L 445 467 L 979 459 M 1048.9 1011.2 L 958 954 L 806 775 L 652 570 L 482 309 L 343 113 L 284 34.6 L 211 -34.6 L 158 -59.9 L 97.6 -63 L 78.8 -34.6 L 110 22 L 265 208 L 422 331 L 504 375 L 595 419 L 658 422 L 706 384 L 712 324 L 696 75.6 L 734 34.6 L 794 34.6 L 869 81.9 L 967 183 L 1130.8 406 L 1282.1 639 L 1341.9 797 L 1373.4 891 L 1367.1 983 L 1326.2 1011.2 L 1263.2 1017.4 L 1156.1 983 L 1014.3 873 L 901 721 L 838 605 L 806 476 L 813 394 L 860 324 L 961 296 L 1064.7 306 L 1184.4 365 L 1300.9 425 L 1395.4 479 L 1423.8 501 L 1474.2 507" />
<glyph unicode="&#xd1;" glyph-name="Ntilde" horiz-adv-x="1039.5" d="M 422 570 L 441 655 L 479 740 L 517 759 L 485 665 L 450 627 L 340 529 L 246 469 L 148 454 L 88.2 476 L 78.8 548 L 167 696 L 296 828 L 438 926 L 586 976 L 662 976 L 721 942 L 747 866 L 718 756 L 643 573 L 576 476 L 469 318 L 365 176 L 261 72.4 L 217 22 L 176 3.15 L 135 15.8 L 145 69.3 L 186 132 L 346 343 L 545 542 L 731 690 L 885 784 L 958 816 L 1004.8 816 L 1011.2 791 L 995 743 L 737 387 L 658 284 L 595 173 L 561 78.8 L 580 37.8 L 630 22 L 706 63 L 781 104 L 973 258 M 862 1205.8 L 910 1169.1 L 954 1180.5 L 1015.9 1185.1 L 1029.7 1175.9 L 1052.6 1155.3" />
<glyph unicode="&#xd2;" glyph-name="Ograve" horiz-adv-x="954" d="M 655 712 L 658 750 L 687 797 L 800 869 L 844 907 L 876 951 L 873 1011.2 L 838 1045.8 L 753 1055.2 L 630 1017.4 L 479 917 L 302 724 L 176 529 L 113 384 L 91.4 258 L 94.5 132 L 135 59.9 L 220 22 L 321 28.4 L 422 69.3 L 488 107 L 624 227 L 753 381 L 857 561 L 901 690 L 923 810 L 914 866 L 888 895 L 810 929 L 690 914 L 532 825 L 413 712 L 328 558 L 287 432 L 287 299 L 362 180 L 482 145 L 605 132 L 721 167 L 888 255 M 669 1294.0 L 732 1240.4 L 817 1205.8" />
<glyph unicode="&#xd3;" glyph-name="Oacute" horiz-adv-x="954" d="M 655 712 L 658 750 L 687 797 L 800 869 L 844 907 L 876 951 L 873 1011.2 L 838 1045.8 L 753 1055.2 L 630 1017.4 L 479 917 L 302 724 L 176 529 L 113 384 L 91.4 258 L 94.5 132 L 135 59.9 L 220 22 L 321 28.4 L 422 69.3 L 488 107 L 624 227 L 753 381 L 857 561 L 901 690 L 923 810 L 914 866 L 888 895 L 810 929 L 690 914 L 532 825 L 413 712 L 328 558 L 287 432 L 287 299 L 362 180 L 482 145 L 605 132 L 721 167 L 888 255 M 984 1175.9 L 921 1122.4 L 835 1087.7" />
<glyph unicode="&#xd4;" glyph-name="Ocircumflex" horiz-adv-x="954" d="M 655 712 L 658 750 L 687 797 L 800 869 L 844 907 L 876 951 L 873 1011.2 L 838 1045.8 L 753 1055.2 L 630 1017.4 L 479 917 L 302 724 L 176 529 L 113 384 L 91.4 258 L 94.5 132 L 135 59.9 L 220 22 L 321 28.4 L 422 69.3 L 488 107 L 624 227 L 753 381 L 857 561 L 901 690 L 923 810 L 914 866 L 888 895 L 810 929 L 690 914 L 532 825 L 413 712 L 328 558 L 287 432 L 287 299 L 362 180 L 482 145 L 605 132 L 721 167 L 888 255 M 733 1150.8 L 783 1173.8 L 812 1194.7 L 829 1211.4 L 839 1190.5 L 845 1167.5 L 864 1144.5" />
<glyph unicode="&#xd5;" glyph-name="Otilde" horiz-adv-x="954" d="M 655 712 L 658 750 L 687 797 L 800 869 L 844 907 L 876 951 L 873 1011.2 L 838 1045.8 L 753 1055.2 L 630 1017.4 L 479 917 L 302 724 L 176 529 L 113 384 L 91.4 258 L 94.5 132 L 135 59.9 L 220 22 L 321 28.4 L 422 69.3 L 488 107 L 624 227 L 753 381 L 857 561 L 901 690 L 923 810 L 914 866 L 888 895 L 810 929 L 690 914 L 532 825 L 413 712 L 328 558 L 287 432 L 287 299 L 362 180 L 482 145 L 605 132 L 721 167 L 888 255 M 635 1096.5 L 678 1063.3 L 718 1073.7 L 774 1077.8 L 786 1069.5 L 807 1050.9" />
<glyph unicode="&#xd6;" glyph-name="Odieresis" horiz-adv-x="954" d="M 655 712 L 658 750 L 687 797 L 800 869 L 844 907 L 876 951 L 873 1011.2 L 838 1045.8 L 753 1055.2 L 630 1017.4 L 479 917 L 302 724 L 176 529 L 113 384 L 91.4 258 L 94.5 132 L 135 59.9 L 220 22 L 321 28.4 L 422 69.3 L 488 107 L 624 227 L 753 381 L 857 561 L 901 690 L 923 810 L 914 866 L 888 895 L 810 929 L 690 914 L 532 825 L 413 712 L 328 558 L 287 432 L 287 299 L 362 180 L 482 145 L 605 132 L 721 167 L 888 255 M 787 1209.3 L 753 1162.0 M 1049.0 1219.4 L 1014.4 1172.1" />
<glyph unicode="&#xd7;" glyph-name="multiply" horiz-adv-x="457" d="M 91.4 400 L 135 391 L 139 369 L 158 220 L 186 88.2 L 220 9.45 L 258 -18.9 L 302 -12.6 L 334 3.15 M 441 432 L 268 284 L 132 158 L -6.3 3.15 L -88.2 -101" />
<glyph unicode="&#xd8;" glyph-name="Oslash" horiz-adv-x="954" d="M 655 712 L 658 750 L 687 797 L 800 869 L 844 907 L 876 951 L 873 1011.2 L 838 1045.8 L 753 1055.2 L 630 1017.4 L 479 917 L 302 724 L 176 529 L 113 384 L 91.4 258 L 94.5 132 L 135 59.9 L 220 22 L 321 28.4 L 422 69.3 L 488 107 L 624 227 L 753 381 L 857 561 L 901 690 L 923 810 L 914 866 L 888 895 L 810 929 L 690 914 L 532 825 L 413 712 L 328 558 L 287 432 L 287 299 L 362 180 L 482 145 L 605 132 L 721 167 L 888 255 M 877 1315.7 L 682 980 L 542 689 L 346 287 L 240 0 L 181 -147" />
<glyph unicode="&#xd9;" glyph-name="Ugrave" horiz-adv-x="1124.6" d="M 444 649 L 454 649 L 504 765 L 517 800 L 542 791 L 454 680 L 378 608 L 290 551 L 170 517 L 107 529 L 81.9 580 L 97.6 646 L 183 775 L 309 885 L 460 976 L 580 1023.8 L 652 1042.7 L 753 1026.9 L 794 973 L 788 914 L 747 806 L 639 655 L 495 463 L 312 214 L 277 154 L 265 97.6 L 299 53.6 L 359 47.2 L 463 88.2 L 589 167 L 750 306 L 920 466 L 1080.4 649 L 1171.8 772 L 1190.7 822 L 1181.2 847 L 1165.5 847 L 1080.4 797 L 967 677 L 835 507 L 750 372 L 699 280 L 658 180 L 662 69.3 L 709 22 L 794 18.9 L 844 40.9 L 929 94.5 L 1058.4 258 M 820 1297.2 L 883 1243.7 L 968 1209.0" />
<glyph unicode="&#xda;" glyph-name="Uacute" horiz-adv-x="1124.6" d="M 444 649 L 454 649 L 504 765 L 517 800 L 542 791 L 454 680 L 378 608 L 290 551 L 170 517 L 107 529 L 81.9 580 L 97.6 646 L 183 775 L 309 885 L 460 976 L 580 1023.8 L 652 1042.7 L 753 1026.9 L 794 973 L 788 914 L 747 806 L 639 655 L 495 463 L 312 214 L 277 154 L 265 97.6 L 299 53.6 L 359 47.2 L 463 88.2 L 589 167 L 750 306 L 920 466 L 1080.4 649 L 1171.8 772 L 1190.7 822 L 1181.2 847 L 1165.5 847 L 1080.4 797 L 967 677 L 835 507 L 750 372 L 699 280 L 658 180 L 662 69.3 L 709 22 L 794 18.9 L 844 40.9 L 929 94.5 L 1058.4 258 M 1061.7 1196.8 L 999 1143.3 L 914 1108.6" />
<glyph unicode="&#xdb;" glyph-name="Ucircumflex" horiz-adv-x="1124.6" d="M 444 649 L 454 649 L 504 765 L 517 800 L 542 791 L 454 680 L 378 608 L 290 551 L 170 517 L 107 529 L 81.9 580 L 97.6 646 L 183 775 L 309 885 L 460 976 L 580 1023.8 L 652 1042.7 L 753 1026.9 L 794 973 L 788 914 L 747 806 L 639 655 L 495 463 L 312 214 L 277 154 L 265 97.6 L 299 53.6 L 359 47.2 L 463 88.2 L 589 167 L 750 306 L 920 466 L 1080.4 649 L 1171.8 772 L 1190.7 822 L 1181.2 847 L 1165.5 847 L 1080.4 797 L 967 677 L 835 507 L 750 372 L 699 280 L 658 180 L 662 69.3 L 709 22 L 794 18.9 L 844 40.9 L 929 94.5 L 1058.4 258 M 986 1248.6 L 1040.8 1273.8 L 1072.9 1296.7 L 1091.3 1315.1 L 1102.7 1292.1 L 1109.6 1266.9 L 1130.3 1241.7" />
<glyph unicode="&#xdc;" glyph-name="Udieresis" horiz-adv-x="1124.6" d="M 444 649 L 454 649 L 504 765 L 517 800 L 542 791 L 454 680 L 378 608 L 290 551 L 170 517 L 107 529 L 81.9 580 L 97.6 646 L 183 775 L 309 885 L 460 976 L 580 1023.8 L 652 1042.7 L 753 1026.9 L 794 973 L 788 914 L 747 806 L 639 655 L 495 463 L 312 214 L 277 154 L 265 97.6 L 299 53.6 L 359 47.2 L 463 88.2 L 589 167 L 750 306 L 920 466 L 1080.4 649 L 1171.8 772 L 1190.7 822 L 1181.2 847 L 1165.5 847 L 1080.4 797 L 967 677 L 835 507 L 750 372 L 699 280 L 658 180 L 662 69.3 L 709 22 L 794 18.9 L 844 40.9 L 929 94.5 L 1058.4 258 M 882 1190.2 L 847 1143.0 M 1118.4 1215.3 L 1083.8 1168.0" />
<glyph unicode="&#xdd;" glyph-name="Yacute" horiz-adv-x="1203.3" d="M 573 721 L 488 633 L 397 545 L 309 491 L 195 466 L 126 491 L 113 602 L 205 756 L 381 885 L 529 967 L 702 1004.8 L 810 964 L 832 876 L 784 759 L 687 602 L 419 299 L 321 145 L 299 50.4 L 334 9.45 L 444 31.5 L 608 135 L 929 425 L 1143.4 633 L 1209.6 740 L 1225.3 800 M 1237.9 800 L 1187.6 800 L 1017.4 652 L 882 466 L 756 312 L 542 34.6 L 328 -261 L 101 -611 L 44.1 -731 L 37.8 -778 L 104 -803 L 211 -734 L 369 -558 L 435 -447 L 450 -353 L 422 -293 L 346 -252 L 252 -249 L 205 -255 L 520 -135 L 750 -3.15 L 936 107 L 1045.8 189 L 1140.3 258 M 1113.9 1180.8 L 1050.9 1127.3 L 966 1092.6" />
<glyph unicode="&#xe0;" glyph-name="agrave" horiz-adv-x="394" d="M 56.7 208 L 66.1 208 L 101 236 L 126 271 L 132 293 L 117 315 L 88.2 321 L 31.5 318 L -50.4 268 L -126 202 L -189 135 L -211 88.2 L -208 50.4 L -167 50.4 L -132 66.1 L -69.3 113 L 0 167 L 12.6 173 L -47.2 94.5 L -50.4 50.4 L -28.4 22 L 12.6 34.6 L 110 94.5 L 208 161 L 331 258 M -30.2 580 L 32.8 526 L 118 491" />
<glyph unicode="&#xe1;" glyph-name="aacute" horiz-adv-x="394" d="M 56.7 208 L 66.1 208 L 101 236 L 126 271 L 132 293 L 117 315 L 88.2 321 L 31.5 318 L -50.4 268 L -126 202 L -189 135 L -211 88.2 L -208 50.4 L -167 50.4 L -132 66.1 L -69.3 113 L 0 167 L 12.6 173 L -47.2 94.5 L -50.4 50.4 L -28.4 22 L 12.6 34.6 L 110 94.5 L 208 161 L 331 258 M 218 543 L 155 490 L 70.3 455" />
<glyph unicode="&#xe2;" glyph-name="acircumflex" horiz-adv-x="394" d="M 56.7 208 L 66.1 208 L 101 236 L 126 271 L 132 293 L 117 315 L 88.2 321 L 31.5 318 L -50.4 268 L -126 202 L -189 135 L -211 88.2 L -208 50.4 L -167 50.4 L -132 66.1 L -69.3 113 L 0 167 L 12.6 173 L -47.2 94.5 L -50.4 50.4 L -28.4 22 L 12.6 34.6 L 110 94.5 L 208 161 L 331 258 M 15.7 544 L 70.1 569 L 102 591 L 120 609 L 131 587 L 138 562 L 158 537" />
<glyph unicode="&#xe3;" glyph-name="atilde" horiz-adv-x="394" d="M 56.7 208 L 66.1 208 L 101 236 L 126 271 L 132 293 L 117 315 L 88.2 321 L 31.5 318 L -50.4 268 L -126 202 L -189 135 L -211 88.2 L -208 50.4 L -167 50.4 L -132 66.1 L -69.3 113 L 0 167 L 12.6 173 L -47.2 94.5 L -50.4 50.4 L -28.4 22 L 12.6 34.6 L 110 94.5 L 208 161 L 331 258 M 39.2 547 L 86.2 511 L 129 522 L 189 527 L 203 518 L 225 497" />
<glyph unicode="&#xe4;" glyph-name="adieresis" horiz-adv-x="394" d="M 56.7 208 L 66.1 208 L 101 236 L 126 271 L 132 293 L 117 315 L 88.2 321 L 31.5 318 L -50.4 268 L -126 202 L -189 135 L -211 88.2 L -208 50.4 L -167 50.4 L -132 66.1 L -69.3 113 L 0 167 L 12.6 173 L -47.2 94.5 L -50.4 50.4 L -28.4 22 L 12.6 34.6 L 110 94.5 L 208 161 L 331 258 M 77.7 625 L 43.1 577 M 353 585 L 318 538" />
<glyph unicode="&#xe5;" glyph-name="aring" horiz-adv-x="460" d="M 309 438 L 186 454 L 53.5 381 L -56.7 236 L -117 88.2 L -97.6 50.4 L -37.8 53.6 L 132 195 L 173 233 L 233 331 L 265 384 L 265 425 L 324 438 L 173 189 L 139 97.6 L 129 47.2 L 161 34.6 L 236 66.1 L 334 151 L 397 224 M 378 885 L 322 877 L 273 849 L 236 807 L 206 762 L 192 716 L 191 673 L 202 644 L 225 627 L 258 616 L 296 616 L 350 631 L 413 677 L 454 731 L 472 786 L 474 827 L 463 857 L 434 877 L 411 884 L 378 885" />
<glyph unicode="&#xe8;" glyph-name="egrave" horiz-adv-x="346" d="M -117 129 L -37.8 176 L 37.8 236 L 85 296 L 85 324 L 47.2 337 L -12.6 306 L -63 258 L -113 192 L -129 145 L -139 97.6 L -132 66.1 L -88.2 34.6 L -31.5 37.8 L 50.4 78.8 L 142 142 L 284 258 M -68.7 588 L -5.73 534 L 79.3 500" />
<glyph unicode="&#xe9;" glyph-name="eacute" horiz-adv-x="346" d="M -117 129 L -37.8 176 L 37.8 236 L 85 296 L 85 324 L 47.2 337 L -12.6 306 L -63 258 L -113 192 L -129 145 L -139 97.6 L -132 66.1 L -88.2 34.6 L -31.5 37.8 L 50.4 78.8 L 142 142 L 284 258 M 195 532 L 132 478 L 47.1 444" />
<glyph unicode="&#xea;" glyph-name="ecircumflex" horiz-adv-x="346" d="M -117 129 L -37.8 176 L 37.8 236 L 85 296 L 85 324 L 47.2 337 L -12.6 306 L -63 258 L -113 192 L -129 145 L -139 97.6 L -132 66.1 L -88.2 34.6 L -31.5 37.8 L 50.4 78.8 L 142 142 L 284 258 M 4.3 494 L 53.6 516 L 82.4 537 L 98.9 553 L 109 533 L 115 510 L 134 487" />
<glyph unicode="&#xeb;" glyph-name="edieresis" horiz-adv-x="346" d="M -117 129 L -37.8 176 L 37.8 236 L 85 296 L 85 324 L 47.2 337 L -12.6 306 L -63 258 L -113 192 L -129 145 L -139 97.6 L -132 66.1 L -88.2 34.6 L -31.5 37.8 L 50.4 78.8 L 142 142 L 284 258 M 83.1 612 L 48.5 565 M 329 567 L 295 520" />
<glyph unicode="&#xec;" glyph-name="igrave" horiz-adv-x="243" d="M -44.1 284 L -120 180 L -158 110 L -170 78.8 L -170 53.6 L -161 34.6 L -132 37.8 L -34.6 97.6 L 110 202 L 180 258  M -118 600 L -55.4 546 L 29.6 511" />
<glyph unicode="&#xed;" glyph-name="iacute" horiz-adv-x="243" d="M -44.1 284 L -120 180 L -158 110 L -170 78.8 L -170 53.6 L -161 34.6 L -132 37.8 L -34.6 97.6 L 110 202 L 180 258  M 148 567 L 84.5 514 L -0.504 479" />
<glyph unicode="&#xee;" glyph-name="icircumflex" horiz-adv-x="243" d="M -44.1 284 L -120 180 L -158 110 L -170 78.8 L -170 53.6 L -161 34.6 L -132 37.8 L -34.6 97.6 L 110 202 L 180 258  M -28.2 560 L 28.3 586 L 61.2 610 L 80 628 L 91.8 605 L 98.9 579 L 120 553" />
<glyph unicode="&#xef;" glyph-name="idieresis" horiz-adv-x="243" d="M -44.1 284 L -120 180 L -158 110 L -170 78.8 L -170 53.6 L -161 34.6 L -132 37.8 L -34.6 97.6 L 110 202 L 180 258  M 49 600 L 14.3 553 M 281 612 L 247 564" />
<glyph unicode="&#xf1;" glyph-name="ntilde" horiz-adv-x="510" d="M -63 258 L -41 277 L 3.15 315 L 25.2 318 L 31.5 306 L 22 280 L -123 88.2 L -145 53.6 L -139 40.9 L -117 40.9 L -44.1 101 L 72.5 183 L 148 246 L 230 290 L 243 293 L 249 277 L 183 192 L 117 110 L 104 72.4 L 104 34.6 L 139 31.5 L 202 69.3 L 318 148 L 447 255 M 55.2 542 L 102 507 L 145 518 L 206 522 L 219 513 L 241 493" />
<glyph unicode="&#xf2;" glyph-name="ograve" horiz-adv-x="359" d="M -3.15 312 L -59.9 261 L -117 180 L -139 66.1 L -129 22 L -66.1 15.8 L 31.5 94.5 L 97.6 195 L 126 284 L 142 356 L 135 422 L 85 482 L 31.5 479 L -12.6 450 L -28.4 406 L -22 340 L 6.3 255 L 41 211 L 88.2 164 L 142 164 L 195 192 L 243 217 L 296 258 M -44.2 586 L 18.8 533 L 104 498" />
<glyph unicode="&#xf3;" glyph-name="oacute" horiz-adv-x="359" d="M -3.15 312 L -59.9 261 L -117 180 L -139 66.1 L -129 22 L -66.1 15.8 L 31.5 94.5 L 97.6 195 L 126 284 L 142 356 L 135 422 L 85 482 L 31.5 479 L -12.6 450 L -28.4 406 L -22 340 L 6.3 255 L 41 211 L 88.2 164 L 142 164 L 195 192 L 243 217 L 296 258 M 207 550 L 144 496 L 58.5 462" />
<glyph unicode="&#xf4;" glyph-name="ocircumflex" horiz-adv-x="359" d="M -3.15 312 L -59.9 261 L -117 180 L -139 66.1 L -129 22 L -66.1 15.8 L 31.5 94.5 L 97.6 195 L 126 284 L 142 356 L 135 422 L 85 482 L 31.5 479 L -12.6 450 L -28.4 406 L -22 340 L 6.3 255 L 41 211 L 88.2 164 L 142 164 L 195 192 L 243 217 L 296 258 M 1.75 499 L 51.9 522 L 81.1 543 L 97.8 560 L 108 539 L 115 516 L 133 493" />
<glyph unicode="&#xf5;" glyph-name="otilde" horiz-adv-x="359" d="M -3.15 312 L -59.9 261 L -117 180 L -139 66.1 L -129 22 L -66.1 15.8 L 31.5 94.5 L 97.6 195 L 126 284 L 142 356 L 135 422 L 85 482 L 31.5 479 L -12.6 450 L -28.4 406 L -22 340 L 6.3 255 L 41 211 L 88.2 164 L 142 164 L 195 192 L 243 217 L 296 258 M 25.3 566 L 73.8 529 L 118 540 L 180 545 L 194 536 L 217 515" />
<glyph unicode="&#xf6;" glyph-name="odieresis" horiz-adv-x="359" d="M -3.15 312 L -59.9 261 L -117 180 L -139 66.1 L -129 22 L -66.1 15.8 L 31.5 94.5 L 97.6 195 L 126 284 L 142 356 L 135 422 L 85 482 L 31.5 479 L -12.6 450 L -28.4 406 L -22 340 L 6.3 255 L 41 211 L 88.2 164 L 142 164 L 195 192 L 243 217 L 296 258 M 115 589 L 80.6 542 M 332 592 L 297 544" />
<glyph unicode="&#xf7;" glyph-name="divide" horiz-adv-x="914" d="M 426 510 L 404 495 L 429 476 L 454 495 M 446 258 L 424 243 L 449 224 L 474 243 M 198 372 L 702 369" />
<glyph unicode="&#xf8;" glyph-name="oslash" horiz-adv-x="359" d="M -3.15 312 L -59.9 261 L -117 180 L -139 66.1 L -129 22 L -66.1 15.8 L 31.5 94.5 L 97.6 195 L 126 284 L 142 356 L 135 422 L 85 482 L 31.5 479 L -12.6 450 L -28.4 406 L -22 340 L 6.3 255 L 41 211 L 88.2 164 L 142 164 L 195 192 L 243 217 L 296 258 M 213 582 L 131 441 L 72.5 320 L -9.26 151 L -54 30.9 L -78.7 -30.9" />
<glyph unicode="&#xf9;" glyph-name="ugrave" horiz-adv-x="397" d="M -47.2 271 L -123 198 L -176 132 L -211 69.3 L -198 47.2 L -164 47.2 L -50.4 126 L 72.5 227 L 113 268 L 132 271 L 25.2 145 L -6.3 97.6 L -18.9 63 L -9.45 40.9 L 22 34.6 L 94.5 72.4 L 189 145 L 334 258 M -51.9 597 L 11.1 543 L 96.1 508" />
<glyph unicode="&#xfa;" glyph-name="uacute" horiz-adv-x="397" d="M -47.2 271 L -123 198 L -176 132 L -211 69.3 L -198 47.2 L -164 47.2 L -50.4 126 L 72.5 227 L 113 268 L 132 271 L 25.2 145 L -6.3 97.6 L -18.9 63 L -9.45 40.9 L 22 34.6 L 94.5 72.4 L 189 145 L 334 258 M 219 537 L 156 484 L 71.4 449" />
<glyph unicode="&#xfb;" glyph-name="ucircumflex" horiz-adv-x="397" d="M -47.2 271 L -123 198 L -176 132 L -211 69.3 L -198 47.2 L -164 47.2 L -50.4 126 L 72.5 227 L 113 268 L 132 271 L 25.2 145 L -6.3 97.6 L -18.9 63 L -9.45 40.9 L 22 34.6 L 94.5 72.4 L 189 145 L 334 258 M 24.6 527 L 78.5 552 L 110 574 L 128 592 L 139 570 L 146 545 L 166 520" />
<glyph unicode="&#xfc;" glyph-name="udieresis" horiz-adv-x="397" d="M -47.2 271 L -123 198 L -176 132 L -211 69.3 L -198 47.2 L -164 47.2 L -50.4 126 L 72.5 227 L 113 268 L 132 271 L 25.2 145 L -6.3 97.6 L -18.9 63 L -9.45 40.9 L 22 34.6 L 94.5 72.4 L 189 145 L 334 258 M 106 582 L 71.4 535 M 394 615 L 360 568" />
<glyph unicode="&#xfd;" glyph-name="yacute" horiz-adv-x="444" d="M -31.5 296 L -113 195 L -151 142 L -164 91.4 L -139 75.6 L -97.6 91.4 L -15.8 145 L 59.9 208 L 129 255 L 167 280 L 170 268 L 34.6 75.6 L -135 -129 L -255 -274 L -353 -403 L -384 -463 L -387 -504 L -359 -510 L -277 -463 L -192 -372 L -142 -296 L -123 -224 L -135 -176 L -164 -132 L -202 -113 L -239 -101 L -126 -63 L 37.8 15.8 L 202 113 L 381 258 M 249 567 L 186 513 L 101 478" />
<glyph unicode="&#xff;" glyph-name="ydieresis" horiz-adv-x="444" d="M -31.5 296 L -113 195 L -151 142 L -164 91.4 L -139 75.6 L -97.6 91.4 L -15.8 145 L 59.9 208 L 129 255 L 167 280 L 170 268 L 34.6 75.6 L -135 -129 L -255 -274 L -353 -403 L -384 -463 L -387 -504 L -359 -510 L -277 -463 L -192 -372 L -142 -296 L -123 -224 L -135 -176 L -164 -132 L -202 -113 L -239 -101 L -126 -63 L 37.8 15.8 L 202 113 L 381 258 M 129 573 L 93.9 526 M 378 582 L 344 534" />
<glyph unicode="&#x2013;" glyph-name="endash" horiz-adv-x="1445.9" d="M 421 176 L 430 176 L 1001.7 170" />
<glyph unicode="&#x2014;" glyph-name="emdash" horiz-adv-x="1927.8" d="M 561 176 L 573 176 L 1335.6 170" />
<glyph unicode="&#x201c;" glyph-name="quotedblleft" horiz-adv-x="319" d="M 193 1009.3 L 187 1034.8 L 169 1014.9 L 194 975 L 228 947 L 251 938 M 335 1009.3 L 329 1034.8 L 310 1014.9 L 336 975 L 370 947 L 393 938" />
<glyph unicode="&#x201d;" glyph-name="quotedblright" horiz-adv-x="319" d="M 298 1009.3 L 303 1034.8 L 322 1014.9 L 296 975 L 262 947 L 240 938 M 439 1009.3 L 445 1034.8 L 464 1014.9 L 438 975 L 404 947 L 381 938" />
<glyph unicode="&#x2039;" glyph-name="guilsinglleft" horiz-adv-x="195" d="M 181 469 L 120 381 L 51.7 292 L 102 214 L 132 154 L 144 126 L 142 108" />
<glyph unicode="&#x203a;" glyph-name="guilsinglright" horiz-adv-x="194" d="M 64.3 469 L 106 383 L 126 345 L 159 287 L 86.9 207 L 45.4 149 L 27.7 118 L 31.5 108" />
<glyph unicode="&#x20ac;" glyph-name="Euro" horiz-adv-x="545" d="M 580 775 L 570 854 L 498 945 L 413 967 L 337 948 L 239 832 L 151 674 L 94.5 488 L 53.5 315 L 72.5 139 L 135 28.4 L 220 -18.9 L 312 -6.3 L 447 81.9 M 66.1 274 L 139 280 L 239 255 L 290 265 L 359 293 M 66.1 400 L 139 406 L 239 381 L 290 391 L 359 419" />
<glyph unicode="&#x0178;" glyph-name="Ydieresis" horiz-adv-x="1203.3" d="M 573 721 L 488 633 L 397 545 L 309 491 L 195 466 L 126 491 L 113 602 L 205 756 L 381 885 L 529 967 L 702 1004.8 L 810 964 L 832 876 L 784 759 L 687 602 L 419 299 L 321 145 L 299 50.4 L 334 9.45 L 444 31.5 L 608 135 L 929 425 L 1143.4 633 L 1209.6 740 L 1225.3 800 M 1237.9 800 L 1187.6 800 L 1017.4 652 L 882 466 L 756 312 L 542 34.6 L 328 -261 L 101 -611 L 44.1 -731 L 37.8 -778 L 104 -803 L 211 -734 L 369 -558 L 435 -447 L 450 -353 L 422 -293 L 346 -252 L 252 -249 L 205 -255 L 520 -135 L 750 -3.15 L 936 107 L 1045.8 189 L 1140.3 258 M 930 1221.4 L 895 1174.2 M 1175.7 1180.6 L 1141.1 1133.3" />
<glyph unicode="&#x102;" glyph-name="Abreve" horiz-adv-x="1338.8" d="M -63 56.7 L 47.2 28.4 L 164 28.4 L 287 56.7 L 410 113 L 507 180 L 643 318 L 803 501 L 926 677 L 1045.8 847 L 1156.1 958 L 1197.0 983 L 1237.9 986 L 1272.6 954 L 1203.3 791 L 1058.4 463 L 932 195 L 841 47.2 L 816 22 L 772 22 L 699 148 L 662 208 L 542 343 L 441 403 L 324 444 L 265 444 L 224 432 L 217 406 L 261 356 L 375 315 L 646 284 L 1052.1 290 L 1162.3 290 L 1241.1 299 L 1288.3 309 M1266 1270.33C1218.82 1228.79 1173.04 1185.28 1122 1179.33C1070.96 1173.38 1077.94 1240.68 1068 1279.33" />
<glyph unicode="&#x114;" glyph-name="Ebreve" horiz-adv-x="1156.1" d="M 117 976 L 438 951 L 684 942 L 882 948 L 1074.2 954 L 1187.6 983 L 1228.5 1011.2 L 1165.5 1026.9 L 1042.7 1008.0 L 954 999 L 822 958 L 677 914 L 457 813 L 328 734 L 274 680 L 249 630 L 261 595 L 309 586 L 463 586 L 731 621 L 781 630 L 828 624 L 835 602 L 819 570 L 734 510 L 381 343 L 205 224 L 145 142 L 139 63 L 205 28.4 L 391 37.8 L 636 63 L 737 59.9 L 797 53.6 L 828 34.6 L 869 0 M1108 1280.72C1060.82 1239.18 1015.04 1195.67 964 1189.72C912.959 1183.77 919.94 1251.07 910 1289.72" />
<glyph unicode="&#x11E;" glyph-name="Gbreve" horiz-adv-x="854" d="M 81.9 721 L 176 709 L 321 737 L 450 797 L 558 857 L 621 910 L 658 954 L 671 980 L 665 1001.7 L 633 1017.4 L 536 999 L 410 936 L 309 857 L 211 762 L 148 684 L 120 608 L 132 548 L 164 510 L 227 498 L 315 495 L 422 517 L 570 580 L 750 680 L 879 775 L 1105.7 958 L 863 740 L 747 598 L 621 425 L 495 255 L 406 139 L 343 53.6 L 277 -3.15 L 214 -41 L 173 -44.1 L 154 -37.8 L 123 0 L 101 72.4 L 117 145 L 167 104 L 271 94.5 L 403 104 L 495 132 L 586 164 L 791 258 M1012 1254.65C964.819 1213.11 919.041 1169.6 868 1163.65C816.959 1157.7 823.94 1225 814 1263.65" />
<glyph unicode="&#x12C;" glyph-name="Ibreve" horiz-adv-x="684" d="M 822 917 L 734 819 L 526 526 L 346 258 L 189 56.7 L 161 22 L 120 22 L 120 56.7 M 869 860 L 932 917 L 961 983 L 932 1026.9 L 813 1036.3 L 668 995 L 482 907 L 321 803 L 186 696 L 107 592 L 85 536 L 94.5 491 L 145 457 L 233 447 L 375 457 L 630 498 L 721 510 L 772 520 L 822 504 L 895 482 M958 1278.62C910.819 1237.08 865.041 1193.57 814 1187.62C762.959 1181.67 769.94 1248.97 760 1287.62" />
<glyph unicode="&#x14E;" glyph-name="Obreve" horiz-adv-x="954" d="M 655 712 L 658 750 L 687 797 L 800 869 L 844 907 L 876 951 L 873 1011.2 L 838 1045.8 L 753 1055.2 L 630 1017.4 L 479 917 L 302 724 L 176 529 L 113 384 L 91.4 258 L 94.5 132 L 135 59.9 L 220 22 L 321 28.4 L 422 69.3 L 488 107 L 624 227 L 753 381 L 857 561 L 901 690 L 923 810 L 914 866 L 888 895 L 810 929 L 690 914 L 532 825 L 413 712 L 328 558 L 287 432 L 287 299 L 362 180 L 482 145 L 605 132 L 721 167 L 888 255 M1044 1292.78C996.819 1251.24 951.041 1207.73 900 1201.78C848.959 1195.83 855.94 1263.13 846 1301.78" />
<glyph unicode="&#x16C;" glyph-name="Ubreve" horiz-adv-x="1124.6" d="M 444 649 L 454 649 L 504 765 L 517 800 L 542 791 L 454 680 L 378 608 L 290 551 L 170 517 L 107 529 L 81.9 580 L 97.6 646 L 183 775 L 309 885 L 460 976 L 580 1023.8 L 652 1042.7 L 753 1026.9 L 794 973 L 788 914 L 747 806 L 639 655 L 495 463 L 312 214 L 277 154 L 265 97.6 L 299 53.6 L 359 47.2 L 463 88.2 L 589 167 L 750 306 L 920 466 L 1080.4 649 L 1171.8 772 L 1190.7 822 L 1181.2 847 L 1165.5 847 L 1080.4 797 L 967 677 L 835 507 L 750 372 L 699 280 L 658 180 L 662 69.3 L 709 22 L 794 18.9 L 844 40.9 L 929 94.5 L 1058.4 258 M1098 1275.64C1050.82 1234.1 1005.04 1190.59 954 1184.64C902.959 1178.69 909.94 1245.99 900 1284.64" />
<glyph unicode="&#x103;" glyph-name="abreve" horiz-adv-x="394" d="M 56.7 208 L 66.1 208 L 101 236 L 126 271 L 132 293 L 117 315 L 88.2 321 L 31.5 318 L -50.4 268 L -126 202 L -189 135 L -211 88.2 L -208 50.4 L -167 50.4 L -132 66.1 L -69.3 113 L 0 167 L 12.6 173 L -47.2 94.5 L -50.4 50.4 L -28.4 22 L 12.6 34.6 L 110 94.5 L 208 161 L 331 258 M246 608.843C198.819 567.308 153.041 523.792 102 517.843C50.9593 511.893 57.9404 579.197 48 617.843" />
<glyph unicode="&#x115;" glyph-name="ebreve" horiz-adv-x="346" d="M -117 129 L -37.8 176 L 37.8 236 L 85 296 L 85 324 L 47.2 337 L -12.6 306 L -63 258 L -113 192 L -129 145 L -139 97.6 L -132 66.1 L -88.2 34.6 L -31.5 37.8 L 50.4 78.8 L 142 142 L 284 258 M231 597.735C183.819 556.2 138.041 512.685 87 506.735C35.9593 500.785 42.9404 568.09 33 606.735" />
<glyph unicode="&#x11F;" glyph-name="gbreve" horiz-adv-x="391" d="M 101 233 L 154 287 L 176 328 L 132 350 L 66.1 343 L -9.45 296 L -126 211 L -208 113 L -205 63 L -145 53.6 L -97.6 81.9 L -6.3 148 L 50.4 198 L 34.6 208 L -139 -63 L -362 -381 L -432 -479 L -457 -520 L -466 -498 L -410 -394 L -318 -274 L -220 -154 L -120 -63 L -66.1 -22 L 94.5 75.6 L 186 142 L 328 258 M245 626.16C197.819 584.625 152.041 541.11 101 535.16C49.9593 529.211 56.9404 596.515 47 635.16" />
<glyph unicode="&#x12D;" glyph-name="ibreve" horiz-adv-x="243" d="M -44.1 284 L -120 180 L -158 110 L -170 78.8 L -170 53.6 L -161 34.6 L -132 37.8 L -34.6 97.6 L 110 202 L 180 258  M198 605.486C150.819 563.951 105.041 520.436 54 514.486C2.95933 508.537 9.94043 575.841 0 614.486" />
<glyph unicode="&#x14F;" glyph-name="obreve" horiz-adv-x="359" d="M -3.15 312 L -59.9 261 L -117 180 L -139 66.1 L -129 22 L -66.1 15.8 L 31.5 94.5 L 97.6 195 L 126 284 L 142 356 L 135 422 L 85 482 L 31.5 479 L -12.6 450 L -28.4 406 L -22 340 L 6.3 255 L 41 211 L 88.2 164 L 142 164 L 195 192 L 243 217 L 296 258 M235 587.61C187.819 546.075 142.041 502.56 91 496.61C39.9593 490.661 46.9404 557.965 37 596.61" />
<glyph unicode="&#x16D;" glyph-name="ubreve" horiz-adv-x="397" d="M -47.2 271 L -123 198 L -176 132 L -211 69.3 L -198 47.2 L -164 47.2 L -50.4 126 L 72.5 227 L 113 268 L 132 271 L 25.2 145 L -6.3 97.6 L -18.9 63 L -9.45 40.9 L 22 34.6 L 94.5 72.4 L 189 145 L 334 258 M247 606.574C199.819 565.038 154.041 521.523 103 515.574C51.9593 509.624 58.9404 576.928 49 615.574" />
<glyph unicode="&#x15F;" glyph-name="scedilla" horiz-adv-x="334" d="M-59.3446 15.2442C-60.8179 2.37253 -67.2986 -10.4172 -64.8381 -37.0174C-62.3775 -63.6175 -57.7329 -88.8621 -115.403 -75.4522M-63 258C-63 258 -58.0671 270.116 -28.4 280C1.26709 289.884 14.447 346.143 41 369C51.5809 377.022 44.3518 384.632 56.7 372C69.0482 359.368 43.0155 309.341 37.8 284C32.5845 258.659 29.0108 244.834 25.2 220C21.3892 195.166 18.5035 156.959 15.8 135C13.0965 113.041 14.5094 102.012 9.45 88.2C-0.266225 71.8485 -16.8674 42.0361 -28.4 31.5C-47.5752 13.644 -74.025 11.1194 -94.5 25.2C-105.396 32.9729 -130.554 48.4856 -117 59.9C-103.446 71.3144 -92.4054 20.6366 -69.3 15.8C-46.1946 10.9634 -15.0974 32.5094 3.15 40.9C21.3974 49.2906 16.6912 48.0755 41 63C65.3088 77.9245 108.843 100.004 148 132C187.157 163.996 271 258 271 258" />
<glyph unicode="&#xc7;" glyph-name="Ccedilla" horiz-adv-x="810" d="M179.213 -32.7875C174.31 -63.3403 152.744 -93.6986 160.932 -156.838C169.12 -219.977 184.576 -279.899 -7.33194 -248.069M145 520L287 529L422 576L576 646L718 721L835 791L942 882L976 923L983 967L936 983L847 970L658 857L482 715L369 589L252 454L135 280L81.9 139L94.5 31.5L158 -28.4L249 -37.8L359 -6.3L485 37.8L598 126L747 258" />
<glyph unicode="&#x15E;" glyph-name="Scedilla" horiz-adv-x="1326.2" d="M742.339 36.6627C709.187 -145.175 699.987 -200.874 555.794 -178.618M126 9.45C247.78 23.0516 353.499 89.7378 465.132 134.779C643.583 210.945 798.916 329.227 968.329 422.145C1113.06 504.725 1253.74 596.174 1374.3 712.073C1448.82 781.169 1535.28 843.114 1580.33 937.081C1631.4 1000.65 1546.97 1038.26 1496.2 1001.7C1419.49 965.237 1357.27 904.786 1311.4 833.957C1198.24 690.243 1124.44 521.745 1034.89 363.463C970.686 245.118 906.873 112.943 783.925 45.5331C698.318 9.58918 608.109 73.4541 556.946 139.045C467.631 247.136 405.822 384.167 279.806 456.489C226.75 487.905 148.964 503.022 97.6068 460.897C63.9003 393.925 161.502 353.406 215.145 344.933C469.312 289.475 732.197 283.416 991.038 300.505C1098.7 308.025 1205.5 324.591 1310.4 350" />
<glyph unicode="&#xE6;" glyph-name="ae" horiz-adv-x="400" d="M94.9267 325.681C52.6543 348.887 12.4113 314.563 -50.4 268C-113.211 221.437 -247.78 84.9696 -206.131 44.7934C-164.482 4.61725 -96.6865 69.8614 -38.5612 117.178C19.564 164.495 185.554 276.758 147.168 324C108.781 371.242 -28.3182 234.161 -52.5916 167.073C-76.8651 99.9854 -80.4 37.1934 2.4492 35.3121C85.2984 33.4307 246.144 169.893 354 258" />
<glyph unicode="&#x130;" glyph-name="Idotaccent" horiz-adv-x="684" d="M943.33 1294.88L874.72 1184.85M822 917L734 819L526 526L346 258L189 56.7L161 22L120 22L120 56.7M869 860L932 917L961 983L932 1026.9L813 1036.3L668 995L482 907L321 803L186 696L107 592L85 536L94.5 491L145 457L233 447L375 457L630 498L721 510L772 520L822 504L895 482" />
<glyph unicode="&#x131;" glyph-name="dotlessi" horiz-adv-x="243" d="M-44.1 284L-120 180L-158 110L-170 78.8L-170 53.6L-161 34.6L-132 37.8L-34.6 97.6L110 202L180 258" />
<glyph unicode="&#xe7;" glyph-name="ccedilla" horiz-adv-x="324" d="M-104.227 28.6799C-106.144 15.1393 -114.579 1.68499 -111.376 -26.2975C-108.174 -54.2801 -102.129 -80.8366 -177.184 -66.7297M47.2 233L75.6 261L91.4 284L88.2 299L81.9 309L56.7 315L12.6 306L-72.4 252L-132 189L-170 113L-161 53.6L-139 31.5L-75.6 28.4L15.8 72.4L117 139L261 258" />
<glyph unicode="&#x2D8;" glyph-name="breve" horiz-adv-x="680" d="M441 230C393.819 188.465 348.041 144.95 297 139C245.959 133.05 252.94 200.355 243 239" />
<glyph unicode="&#xdf;" glyph-name="germandbls" horiz-adv-x="413" d="M325.59 243.128C181.317 83.0632 92.6973 33.0077 -1.21198 67.4644C31.9252 55.6297 107.184 42.3543 173.147 126.204C239.11 210.054 144.504 285.824 176.543 351.054C208.582 416.284 367.092 536.348 416.324 609.512C520.841 764.835 507.091 906.375 421.845 786.305C305.949 623.065 -115.801 8.69751 -198.327 -202.586C-129.619 -1.38572 -4.42892 114.117 97.3892 328.951" />
<glyph unicode="&#xC6;" glyph-name="AE" horiz-adv-x="2030.0" d="M1449.16 961.109C1812.9 960.816 2090.22 979.84 1979.89 1018.09C1814.48 1075.43 1107.43 799.707 1092.44 643.774C1077.46 487.841 1722.51 719.566 1675 602C1627.49 484.434 942.356 285.713 973.835 118.097C1005.31 -49.5185 1245.75 34.8783 1384.74 57.8346C1523.74 80.7909 1653.43 80.7264 1709 -0M-63 56.7C104.754 -3.5261 255.029 42.066 410 113C755.402 356.466 893.961 646.151 1042.42 842.698C1190.88 1039.25 1272.95 990.991 1272.6 954C1272.6 954 1258.39 917.796 1203.3 791C1148.21 664.204 986.075 282.828 841 47.2C820.043 18.9825 805.088 22 772 22C714.508 145.254 628.678 276.272 542 343C455.322 409.728 183.661 497.43 221.872 412.496C260.083 327.561 469.288 284.644 646 284C766.169 283.562 931.969 277.054 1085.58 285.329" />
<glyph unicode="&#xb8;" glyph-name="cedilla" horiz-adv-x="810" d="M179.213 -32.7875C174.31 -63.3403 152.744 -93.6986 160.932 -156.838C169.12 -219.977 184.576 -279.899 -7.33194 -248.069" />
</font>
</defs>
</svg>
