<?xml version="1.0" encoding="UTF-8" ?>
<!DOCTYPE svg PUBLIC "-//W3C//DTD SVG 1.1//EN" "http://www.w3.org/Graphics/SVG/1.1/DTD/svg11.dtd" >

<svg xmlns="http://www.w3.org/2000/svg" xmlns:xlink="http://www.w3.org/1999/xlink" version="1.1">

<metadata>
Font name: Hershey Sans medium

Originally prepared in 2011 and converted to SVG fonts
in 2019 by Windell H. Oskay, www.evilmadscientist.com

Contents adapted from emergent.unpythonic.net/software/hershey
 by way of "Hershey Fonts in SVG" by Marty McGuire
 http://www.thingiverse.com/thing:6168
 
-------------------------------------------------------------------
The Hershey Fonts are a set of vector fonts with a liberal license.

USE RESTRICTION:
    This distribution of the Hershey Fonts may be used by anyone for
    any purpose, commercial or otherwise, providing that:
        1. The following acknowledgements must be distributed with
            the font data:
            - The Hershey Fonts were originally created by Dr.
                A. V. Hershey while working at the U. S.
                National Bureau of Standards.
            - The format of the Font data in this distribution
                was originally created by
                    James Hurt
                    Cognition, Inc.
                    900 Technology Park Drive
                    Billerica, MA 01821
                    (mit-eddie!ci-dandelion!hurt)
        2. The font data in this distribution may be converted into
            any other format *EXCEPT* the format distributed by
            the U.S. NTIS where each point is described
            in eight bytes as "xxx yyy:", where xxx and yyy are
            the coordinate values as ASCII numbers.

</metadata>
<defs>
<font id="HersheySansMed" horiz-adv-x="378" >
<font-face
font-family="Hershey Sans medium"
units-per-em="1000"
ascent="800"
descent="-200"
cap-height="500"
x-height="300"
/>
<missing-glyph horiz-adv-x="378" />
<glyph unicode=" " glyph-name="space" horiz-adv-x="378" />
<glyph unicode="!" glyph-name="exclam" horiz-adv-x="346" d="M 321 662 L 321 220 L 353 220 M 321 662 L 353 662 L 353 220 M 321 94.5 L 290 63 L 290 31.5 L 321 0 L 353 0 L 384 31.5 L 384 63 L 353 94.5 L 321 94.5 M 321 63 L 321 31.5 L 353 31.5 L 353 63 L 321 63" />
<glyph unicode="&#x22;" glyph-name="quotedbl" horiz-adv-x="567" d="M 252 662 L 220 630 L 220 441 M 252 630 L 220 441 M 252 662 L 284 630 L 220 441 M 536 662 L 504 630 L 504 441 M 536 630 L 504 441 M 536 662 L 567 630 L 504 441" />
<glyph unicode="#" glyph-name="numbersign" horiz-adv-x="662" d="M 441 788 L 220 -220 M 630 788 L 410 -220 M 220 378 L 662 378 M 189 189 L 630 189" />
<glyph unicode="$" glyph-name="dollar" horiz-adv-x="598" d="M 378 788 L 378 -126 L 410 -126 M 378 788 L 410 788 L 410 -126 M 536 567 L 598 567 L 536 630 L 441 662 L 346 662 L 252 630 L 189 567 L 189 504 L 220 441 L 252 410 L 504 284 L 536 252 L 567 189 L 567 126 L 536 63 L 441 31.5 L 346 31.5 L 284 63 L 252 94.5 M 536 567 L 504 598 L 441 630 L 346 630 L 252 598 L 220 567 L 220 504 L 252 441 L 504 315 L 567 252 L 598 189 L 598 126 L 567 63 L 536 31.5 L 441 0 L 346 0 L 252 31.5 L 189 94.5 L 252 94.5 M 567 94.5 L 472 31.5" />
<glyph unicode="%" glyph-name="percent" horiz-adv-x="756" d="M 756 662 L 189 0 M 346 662 L 410 598 L 410 536 L 378 472 L 315 441 L 252 441 L 189 504 L 189 567 L 220 630 L 284 662 L 346 662 L 410 630 L 504 598 L 598 598 L 693 630 L 756 662 M 630 220 L 567 189 L 536 126 L 536 63 L 598 0 L 662 0 L 724 31.5 L 756 94.5 L 756 158 L 693 220 L 630 220" />
<glyph unicode="&amp;" glyph-name="ampersand" horiz-adv-x="788" d="M 756 410 L 724 378 L 756 346 L 788 378 L 788 410 L 756 441 L 724 441 L 693 410 L 662 346 L 598 189 L 536 94.5 L 472 31.5 L 410 0 L 315 0 L 220 31.5 L 189 94.5 L 189 189 L 220 252 L 410 378 L 472 441 L 504 504 L 504 567 L 472 630 L 410 662 L 346 630 L 315 567 L 315 504 L 346 410 L 410 315 L 567 94.5 L 630 31.5 L 724 0 L 756 0 L 788 31.5 L 788 63 M 315 0 L 252 31.5 L 220 94.5 L 220 189 L 252 252 L 315 315 M 315 504 L 346 441 L 598 94.5 L 662 31.5 L 724 0" />
<glyph unicode="&apos;" glyph-name="quotesingle" horiz-adv-x="284" d="M 252 662 L 220 630 L 220 441 M 252 630 L 220 441 M 252 662 L 284 630 L 220 441" />
<glyph unicode="(" glyph-name="parenleft" horiz-adv-x="441" d="M 441 788 L 378 724 L 315 630 L 252 504 L 220 346 L 220 220 L 252 63 L 315 -63 L 378 -158 L 441 -220 M 378 724 L 315 598 L 284 504 L 252 346 L 252 220 L 284 63 L 315 -31.5 L 378 -158" />
<glyph unicode=")" glyph-name="parenright" horiz-adv-x="441" d="M 189 788 L 252 724 L 315 630 L 378 504 L 410 346 L 410 220 L 378 63 L 315 -63 L 252 -158 L 189 -220 M 252 724 L 315 598 L 346 504 L 378 346 L 378 220 L 346 63 L 315 -31.5 L 252 -158" />
<glyph unicode="*" glyph-name="asterisk" horiz-adv-x="504" d="M 346 662 L 315 630 L 378 315 L 346 284 M 346 662 L 346 284 M 346 662 L 378 630 L 315 315 L 346 284 M 189 567 L 220 567 L 472 378 L 504 378 M 189 567 L 504 378 M 189 567 L 189 536 L 504 410 L 504 378 M 504 567 L 472 567 L 220 378 L 189 378 M 504 567 L 189 378 M 504 567 L 504 536 L 189 410 L 189 378" />
<glyph unicode="+" glyph-name="plus" horiz-adv-x="788" d="M 472 567 L 472 31.5 L 504 31.5 M 472 567 L 504 567 L 504 31.5 M 220 315 L 756 315 L 756 284 M 220 315 L 220 284 L 756 284" />
<glyph unicode="," glyph-name="comma" horiz-adv-x="346" d="M 315 31.5 L 284 0 L 252 0 L 220 31.5 L 220 63 L 252 94.5 L 284 94.5 L 315 63 L 315 -31.5 L 284 -94.5 L 220 -126 M 252 63 L 252 31.5 L 284 31.5 L 284 63 L 252 63 M 284 0 L 315 -31.5 M 315 31.5 L 284 -94.5" />
<glyph unicode="-" glyph-name="hyphen" horiz-adv-x="819" d="M 220 284 L 788 284" />
<glyph unicode="." glyph-name="period" horiz-adv-x="346" d="M 252 94.5 L 220 63 L 220 31.5 L 252 0 L 284 0 L 315 31.5 L 315 63 L 284 94.5 L 252 94.5 M 252 63 L 252 31.5 L 284 31.5 L 284 63 L 252 63" />
<glyph unicode="/" glyph-name="slash" horiz-adv-x="724" d="M 724 788 L 158 -220 L 189 -220 M 724 788 L 756 788 L 189 -220" />
<glyph unicode="0" glyph-name="zero" horiz-adv-x="630" d="M 378 662 L 284 630 L 220 536 L 189 378 L 189 284 L 220 126 L 284 31.5 L 378 0 L 441 0 L 536 31.5 L 598 126 L 630 284 L 630 378 L 598 536 L 536 630 L 441 662 L 378 662 M 315 630 L 252 536 L 220 378 L 220 284 L 252 126 L 315 31.5 M 284 63 L 378 31.5 L 441 31.5 L 536 63 M 504 31.5 L 567 126 L 598 284 L 598 378 L 567 536 L 504 630 M 536 598 L 441 630 L 378 630 L 284 598" />
<glyph unicode="1" glyph-name="one" horiz-adv-x="630" d="M 284 536 L 346 567 L 441 662 L 441 0 M 284 536 L 284 504 L 346 536 L 410 598 L 410 0 L 441 0" />
<glyph unicode="2" glyph-name="two" horiz-adv-x="630" d="M 220 504 L 220 536 L 252 598 L 284 630 L 346 662 L 472 662 L 536 630 L 567 598 L 598 536 L 598 472 L 567 410 L 504 315 L 220 0 M 220 504 L 252 504 L 252 536 L 284 598 L 346 630 L 472 630 L 536 598 L 567 536 L 567 472 L 536 410 L 472 315 L 189 0 M 220 31.5 L 630 31.5 L 630 0 M 189 0 L 630 0" />
<glyph unicode="3" glyph-name="three" horiz-adv-x="630" d="M 252 662 L 598 662 L 378 378 M 252 662 L 252 630 L 567 630 M 567 662 L 346 378 M 378 410 L 441 410 L 536 378 L 598 315 L 630 220 L 630 189 L 598 94.5 L 536 31.5 L 441 0 L 346 0 L 252 31.5 L 220 63 L 189 126 L 220 126 M 346 378 L 441 378 L 536 346 L 598 252 M 472 378 L 567 315 L 598 220 L 598 189 L 567 94.5 L 472 31.5 M 598 158 L 536 63 L 441 31.5 L 346 31.5 L 252 63 L 220 126 M 315 31.5 L 220 94.5" />
<glyph unicode="4" glyph-name="four" horiz-adv-x="630" d="M 504 567 L 504 0 L 536 0 M 536 662 L 536 0 M 536 662 L 189 158 L 662 158 M 504 567 L 220 158 M 220 189 L 662 189 L 662 158" />
<glyph unicode="5" glyph-name="five" horiz-adv-x="630" d="M 252 662 L 220 378 M 284 630 L 252 410 M 252 662 L 567 662 L 567 630 M 284 630 L 567 630 M 252 410 L 346 441 L 441 441 L 536 410 L 598 346 L 630 252 L 630 189 L 598 94.5 L 536 31.5 L 441 0 L 346 0 L 252 31.5 L 220 63 L 189 126 L 220 126 M 220 378 L 252 378 L 315 410 L 441 410 L 536 378 L 598 284 M 472 410 L 567 346 L 598 252 L 598 189 L 567 94.5 L 472 31.5 M 598 158 L 536 63 L 441 31.5 L 346 31.5 L 252 63 L 220 126 M 315 31.5 L 220 94.5" />
<glyph unicode="6" glyph-name="six" horiz-adv-x="630" d="M 536 630 L 567 567 L 598 567 L 567 630 L 472 662 L 410 662 L 315 630 L 252 536 L 220 378 L 220 220 L 252 94.5 L 315 31.5 L 410 0 L 441 0 L 536 31.5 L 598 94.5 L 630 189 L 630 220 L 598 315 L 536 378 L 441 410 L 410 410 L 315 378 L 252 315 M 567 598 L 472 630 L 410 630 L 315 598 M 346 630 L 284 536 L 252 378 L 252 220 L 284 94.5 L 378 31.5 M 252 158 L 315 63 L 410 31.5 L 441 31.5 L 536 63 L 598 158 M 472 31.5 L 567 94.5 L 598 189 L 598 220 L 567 315 L 472 378 M 598 252 L 536 346 L 441 378 L 410 378 L 315 346 L 252 252 M 378 378 L 284 315 L 252 220" />
<glyph unicode="7" glyph-name="seven" horiz-adv-x="630" d="M 189 662 L 630 662 L 315 0 M 189 662 L 189 630 L 598 630 M 598 662 L 284 0 L 315 0" />
<glyph unicode="8" glyph-name="eight" horiz-adv-x="630" d="M 346 662 L 252 630 L 220 567 L 220 504 L 252 441 L 284 410 L 346 378 L 472 346 L 536 315 L 567 284 L 598 220 L 598 126 L 567 63 L 472 31.5 L 346 31.5 L 252 63 L 220 126 L 220 220 L 252 284 L 284 315 L 346 346 L 472 378 L 536 410 L 567 441 L 598 504 L 598 567 L 567 630 L 472 662 L 346 662 M 284 630 L 252 567 L 252 504 L 284 441 L 346 410 L 472 378 L 536 346 L 598 284 L 630 220 L 630 126 L 598 63 L 567 31.5 L 472 0 L 346 0 L 252 31.5 L 220 63 L 189 126 L 189 220 L 220 284 L 284 346 L 346 378 L 472 410 L 536 441 L 567 504 L 567 567 L 536 630 M 567 598 L 472 630 L 346 630 L 252 598 M 220 94.5 L 315 31.5 M 504 31.5 L 598 94.5" />
<glyph unicode="9" glyph-name="nine" horiz-adv-x="630" d="M 567 346 L 504 284 L 410 252 L 378 252 L 284 284 L 220 346 L 189 441 L 189 472 L 220 567 L 284 630 L 378 662 L 410 662 L 504 630 L 567 567 L 598 441 L 598 284 L 567 126 L 504 31.5 L 410 0 L 346 0 L 252 31.5 L 220 94.5 L 252 94.5 L 284 31.5 M 567 441 L 536 346 L 441 284 M 567 410 L 504 315 L 410 284 L 378 284 L 284 315 L 220 410 M 346 284 L 252 346 L 220 441 L 220 472 L 252 567 L 346 630 M 220 504 L 284 598 L 378 630 L 410 630 L 504 598 L 567 504 M 441 630 L 536 567 L 567 441 L 567 284 L 536 126 L 472 31.5 M 504 63 L 410 31.5 L 346 31.5 L 252 63" />
<glyph unicode=":" glyph-name="colon" horiz-adv-x="346" d="M 252 441 L 220 410 L 220 378 L 252 346 L 284 346 L 315 378 L 315 410 L 284 441 L 252 441 M 252 410 L 252 378 L 284 378 L 284 410 L 252 410 M 252 94.5 L 220 63 L 220 31.5 L 252 0 L 284 0 L 315 31.5 L 315 63 L 284 94.5 L 252 94.5 M 252 63 L 252 31.5 L 284 31.5 L 284 63 L 252 63" />
<glyph unicode=";" glyph-name="semicolon" horiz-adv-x="346" d="M 252 441 L 220 410 L 220 378 L 252 346 L 284 346 L 315 378 L 315 410 L 284 441 L 252 441 M 252 410 L 252 378 L 284 378 L 284 410 L 252 410 M 315 31.5 L 284 0 L 252 0 L 220 31.5 L 220 63 L 252 94.5 L 284 94.5 L 315 63 L 315 -31.5 L 284 -94.5 L 220 -126 M 252 63 L 252 31.5 L 284 31.5 L 284 63 L 252 63 M 284 0 L 315 -31.5 M 315 31.5 L 284 -94.5" />
<glyph unicode="&#x3c;" glyph-name="less" horiz-adv-x="756" d="M 724 567 L 220 284 L 724 0" />
<glyph unicode="=" glyph-name="equal" horiz-adv-x="788" d="M 220 441 L 756 441 L 756 410 M 220 441 L 220 410 L 756 410 M 220 189 L 756 189 L 756 158 M 220 189 L 220 158 L 756 158" />
<glyph unicode="&#x3e;" glyph-name="greater" horiz-adv-x="756" d="M 220 567 L 724 284 L 220 0" />
<glyph unicode="?" glyph-name="question" horiz-adv-x="598" d="M 189 504 L 189 536 L 220 598 L 252 630 L 346 662 L 441 662 L 536 630 L 567 598 L 598 536 L 598 472 L 567 410 L 536 378 L 472 346 L 378 315 M 189 504 L 220 504 L 220 536 L 252 598 L 346 630 L 441 630 L 536 598 L 567 536 L 567 472 L 536 410 L 472 378 L 378 346 M 220 567 L 315 630 M 472 630 L 567 567 M 567 441 L 441 346 M 378 346 L 378 220 L 410 220 L 410 346 M 378 94.5 L 346 63 L 346 31.5 L 378 0 L 410 0 L 441 31.5 L 441 63 L 410 94.5 L 378 94.5 M 378 63 L 378 31.5 L 410 31.5 L 410 63 L 378 63" />
<glyph unicode="@" glyph-name="at" horiz-adv-x="850" d="M 662 410 L 630 472 L 567 504 L 472 504 L 410 472 L 378 441 L 346 346 L 346 252 L 378 189 L 441 158 L 536 158 L 598 189 L 630 252 M 472 504 L 410 441 L 378 346 L 378 252 L 410 189 L 441 158 M 662 504 L 630 252 L 630 189 L 693 158 L 756 158 L 819 220 L 850 315 L 850 378 L 819 472 L 788 536 L 724 598 L 662 630 L 567 662 L 472 662 L 378 630 L 315 598 L 252 536 L 220 472 L 189 378 L 189 284 L 220 189 L 252 126 L 315 63 L 378 31.5 L 472 0 L 567 0 L 662 31.5 L 724 63 L 756 94.5 M 693 504 L 662 252 L 662 189 L 693 158" />
<glyph unicode="A" glyph-name="A" horiz-adv-x="630" d="M 410 662 L 158 0 M 410 567 L 189 0 L 158 0 M 410 567 L 630 0 L 662 0 M 410 662 L 662 0 M 252 189 L 567 189 M 220 158 L 598 158" />
<glyph unicode="B" glyph-name="B" horiz-adv-x="630" d="M 220 662 L 220 0 M 252 630 L 252 31.5 M 220 662 L 472 662 L 567 630 L 598 598 L 630 536 L 630 441 L 598 378 L 567 346 L 472 315 M 252 630 L 472 630 L 567 598 L 598 536 L 598 441 L 567 378 L 472 346 M 252 346 L 472 346 L 567 315 L 598 284 L 630 220 L 630 126 L 598 63 L 567 31.5 L 472 0 L 220 0 M 252 315 L 472 315 L 567 284 L 598 220 L 598 126 L 567 63 L 472 31.5 L 252 31.5" />
<glyph unicode="C" glyph-name="C" horiz-adv-x="662" d="M 662 504 L 630 567 L 567 630 L 504 662 L 378 662 L 315 630 L 252 567 L 220 504 L 189 410 L 189 252 L 220 158 L 252 94.5 L 315 31.5 L 378 0 L 504 0 L 567 31.5 L 630 94.5 L 662 158 M 662 504 L 630 504 L 598 567 L 567 598 L 504 630 L 378 630 L 315 598 L 252 504 L 220 410 L 220 252 L 252 158 L 315 63 L 378 31.5 L 504 31.5 L 567 63 L 598 94.5 L 630 158 L 662 158" />
<glyph unicode="D" glyph-name="D" horiz-adv-x="662" d="M 220 662 L 220 0 M 252 630 L 252 31.5 M 220 662 L 441 662 L 536 630 L 598 567 L 630 504 L 662 410 L 662 252 L 630 158 L 598 94.5 L 536 31.5 L 441 0 L 220 0 M 252 630 L 441 630 L 536 598 L 567 567 L 598 504 L 630 410 L 630 252 L 598 158 L 567 94.5 L 536 63 L 441 31.5 L 252 31.5" />
<glyph unicode="E" glyph-name="E" horiz-adv-x="598" d="M 220 662 L 220 0 M 252 630 L 252 31.5 M 220 662 L 598 662 M 252 630 L 598 630 L 598 662 M 252 346 L 441 346 L 441 315 M 252 315 L 441 315 M 252 31.5 L 598 31.5 L 598 0 M 220 0 L 598 0" />
<glyph unicode="F" glyph-name="F" horiz-adv-x="567" d="M 220 662 L 220 0 M 252 630 L 252 0 L 220 0 M 220 662 L 598 662 M 252 630 L 598 630 L 598 662 M 252 346 L 441 346 L 441 315 M 252 315 L 441 315" />
<glyph unicode="G" glyph-name="G" horiz-adv-x="662" d="M 662 504 L 630 567 L 567 630 L 504 662 L 378 662 L 315 630 L 252 567 L 220 504 L 189 410 L 189 252 L 220 158 L 252 94.5 L 315 31.5 L 378 0 L 504 0 L 567 31.5 L 630 94.5 L 662 158 L 662 284 L 504 284 M 662 504 L 630 504 L 598 567 L 567 598 L 504 630 L 378 630 L 315 598 L 284 567 L 252 504 L 220 410 L 220 252 L 252 158 L 284 94.5 L 315 63 L 378 31.5 L 504 31.5 L 567 63 L 598 94.5 L 630 158 L 630 252 L 504 252 L 504 284" />
<glyph unicode="H" glyph-name="H" horiz-adv-x="693" d="M 220 662 L 220 0 M 220 662 L 252 662 L 252 0 L 220 0 M 662 662 L 630 662 L 630 0 L 662 0 M 662 662 L 662 0 M 252 346 L 630 346 M 252 315 L 630 315" />
<glyph unicode="I" glyph-name="I" horiz-adv-x="284" d="M 220 662 L 220 0 L 252 0 M 220 662 L 252 662 L 252 0" />
<glyph unicode="J" glyph-name="J" horiz-adv-x="536" d="M 472 662 L 472 158 L 441 63 L 378 31.5 L 315 31.5 L 252 63 L 220 158 L 189 158 M 472 662 L 504 662 L 504 158 L 472 63 L 441 31.5 L 378 0 L 315 0 L 252 31.5 L 220 63 L 189 158" />
<glyph unicode="K" glyph-name="K" horiz-adv-x="662" d="M 220 662 L 220 0 L 252 0 M 220 662 L 252 662 L 252 0 M 662 662 L 630 662 L 252 284 M 662 662 L 252 252 M 346 378 L 630 0 L 662 0 M 378 378 L 662 0" />
<glyph unicode="L" glyph-name="L" horiz-adv-x="536" d="M 220 662 L 220 0 M 220 662 L 252 662 L 252 31.5 M 252 31.5 L 598 31.5 L 598 0 M 220 0 L 598 0" />
<glyph unicode="M" glyph-name="M" horiz-adv-x="756" d="M 220 662 L 220 0 M 252 504 L 252 0 L 220 0 M 252 504 L 472 0 M 220 662 L 472 94.5 M 724 662 L 472 94.5 M 693 504 L 472 0 M 693 504 L 693 0 L 724 0 M 724 662 L 724 0" />
<glyph unicode="N" glyph-name="N" horiz-adv-x="693" d="M 220 662 L 220 0 M 252 567 L 252 0 L 220 0 M 252 567 L 662 0 M 220 662 L 630 94.5 M 630 662 L 630 94.5 M 630 662 L 662 662 L 662 0" />
<glyph unicode="O" glyph-name="O" horiz-adv-x="693" d="M 378 662 L 315 630 L 252 567 L 220 504 L 189 410 L 189 252 L 220 158 L 252 94.5 L 315 31.5 L 378 0 L 504 0 L 567 31.5 L 630 94.5 L 662 158 L 693 252 L 693 410 L 662 504 L 630 567 L 567 630 L 504 662 L 378 662 M 410 630 L 315 598 L 252 504 L 220 410 L 220 252 L 252 158 L 315 63 L 410 31.5 L 472 31.5 L 567 63 L 630 158 L 662 252 L 662 410 L 630 504 L 567 598 L 472 630 L 410 630" />
<glyph unicode="P" glyph-name="P" horiz-adv-x="630" d="M 220 662 L 220 0 M 252 630 L 252 0 L 220 0 M 220 662 L 504 662 L 567 630 L 598 598 L 630 536 L 630 441 L 598 378 L 567 346 L 504 315 L 252 315 M 252 630 L 504 630 L 567 598 L 598 536 L 598 441 L 567 378 L 504 346 L 252 346" />
<glyph unicode="Q" glyph-name="Q" horiz-adv-x="693" d="M 378 662 L 315 630 L 252 567 L 220 504 L 189 410 L 189 252 L 220 158 L 252 94.5 L 315 31.5 L 378 0 L 504 0 L 567 31.5 L 630 94.5 L 662 158 L 693 252 L 693 410 L 662 504 L 630 567 L 567 630 L 504 662 L 378 662 M 410 630 L 315 598 L 252 504 L 220 410 L 220 252 L 252 158 L 315 63 L 410 31.5 L 472 31.5 L 567 63 L 630 158 L 662 252 L 662 410 L 630 504 L 567 598 L 472 630 L 410 630 M 472 94.5 L 630 -63 L 662 -63 M 472 94.5 L 504 94.5 L 662 -63" />
<glyph unicode="R" glyph-name="R" horiz-adv-x="630" d="M 220 662 L 220 0 M 252 630 L 252 0 L 220 0 M 220 662 L 472 662 L 567 630 L 598 598 L 630 536 L 630 441 L 598 378 L 567 346 L 472 315 L 252 315 M 252 630 L 472 630 L 567 598 L 598 536 L 598 441 L 567 378 L 472 346 L 252 346 M 410 315 L 598 0 L 630 0 M 441 315 L 630 0" />
<glyph unicode="S" glyph-name="S" horiz-adv-x="630" d="M 630 567 L 567 630 L 472 662 L 346 662 L 252 630 L 189 567 L 189 504 L 220 441 L 252 410 L 315 378 L 472 315 L 536 284 L 567 252 L 598 189 L 598 94.5 L 567 63 L 472 31.5 L 346 31.5 L 284 63 L 252 94.5 L 189 94.5 M 630 567 L 567 567 L 536 598 L 472 630 L 346 630 L 252 598 L 220 567 L 220 504 L 252 441 L 315 410 L 472 346 L 536 315 L 598 252 L 630 189 L 630 94.5 L 567 31.5 L 472 0 L 346 0 L 252 31.5 L 189 94.5" />
<glyph unicode="T" glyph-name="T" horiz-adv-x="536" d="M 346 630 L 346 0 M 378 630 L 378 0 L 346 0 M 158 662 L 567 662 L 567 630 M 158 662 L 158 630 L 567 630" />
<glyph unicode="U" glyph-name="U" horiz-adv-x="693" d="M 220 662 L 220 189 L 252 94.5 L 315 31.5 L 410 0 L 472 0 L 567 31.5 L 630 94.5 L 662 189 L 662 662 M 220 662 L 252 662 L 252 189 L 284 94.5 L 315 63 L 410 31.5 L 472 31.5 L 567 63 L 598 94.5 L 630 189 L 630 662 L 662 662" />
<glyph unicode="V" glyph-name="V" horiz-adv-x="630" d="M 158 662 L 410 0 M 158 662 L 189 662 L 410 94.5 M 662 662 L 630 662 L 410 94.5 M 662 662 L 410 0" />
<glyph unicode="W" glyph-name="W" horiz-adv-x="819" d="M 158 662 L 346 0 M 158 662 L 189 662 L 346 94.5 M 504 662 L 346 94.5 M 504 567 L 346 0 M 504 567 L 662 0 M 504 662 L 662 94.5 M 850 662 L 819 662 L 662 94.5 M 850 662 L 662 0" />
<glyph unicode="X" glyph-name="X" horiz-adv-x="630" d="M 189 662 L 598 0 L 630 0 M 189 662 L 220 662 L 630 0 M 630 662 L 598 662 L 189 0 M 630 662 L 220 0 L 189 0" />
<glyph unicode="Y" glyph-name="Y" horiz-adv-x="598" d="M 158 662 L 378 346 L 378 0 L 410 0 M 158 662 L 189 662 L 410 346 M 630 662 L 598 662 L 378 346 M 630 662 L 410 346 L 410 0" />
<glyph unicode="Z" glyph-name="Z" horiz-adv-x="630" d="M 598 662 L 189 0 M 630 662 L 220 0 M 189 662 L 630 662 M 189 662 L 189 630 L 598 630 M 220 31.5 L 630 31.5 L 630 0 M 189 0 L 630 0" />
<glyph unicode="[" glyph-name="bracketleft" horiz-adv-x="441" d="M 220 788 L 220 -220 M 252 788 L 252 -220 M 220 788 L 441 788 M 220 -220 L 441 -220" />
<glyph unicode="\" glyph-name="backslash" horiz-adv-x="441" d="M 94.5 662 L 536 -94.5" />
<glyph unicode="]" glyph-name="bracketright" horiz-adv-x="441" d="M 378 788 L 378 -220 M 410 788 L 410 -220 M 189 788 L 410 788 M 189 -220 L 410 -220" />
<glyph unicode="^" glyph-name="asciicircum" horiz-adv-x="693" d="M 189 220 L 441 378 L 693 220 M 189 220 L 441 346 L 693 220" />
<glyph unicode="_" glyph-name="underscore" horiz-adv-x="630" d="M 94.5 -220 L 724 -220" />
<glyph unicode="`" glyph-name="grave" horiz-adv-x="378" d="M 220 662 L 378 472 M 220 662 L 189 630 L 378 472" />
<glyph unicode="a" glyph-name="a" horiz-adv-x="630" d="M 567 441 L 567 0 L 598 0 M 567 441 L 598 441 L 598 0 M 567 346 L 504 410 L 441 441 L 346 441 L 284 410 L 220 346 L 189 252 L 189 189 L 220 94.5 L 284 31.5 L 346 0 L 441 0 L 504 31.5 L 567 94.5 M 567 346 L 441 410 L 346 410 L 284 378 L 252 346 L 220 252 L 220 189 L 252 94.5 L 284 63 L 346 31.5 L 441 31.5 L 567 94.5" />
<glyph unicode="b" glyph-name="b" horiz-adv-x="630" d="M 220 662 L 220 0 L 252 0 M 220 662 L 252 662 L 252 0 M 252 346 L 315 410 L 378 441 L 472 441 L 536 410 L 598 346 L 630 252 L 630 189 L 598 94.5 L 536 31.5 L 472 0 L 378 0 L 315 31.5 L 252 94.5 M 252 346 L 378 410 L 472 410 L 536 378 L 567 346 L 598 252 L 598 189 L 567 94.5 L 536 63 L 472 31.5 L 378 31.5 L 252 94.5" />
<glyph unicode="c" glyph-name="c" horiz-adv-x="567" d="M 567 346 L 504 410 L 441 441 L 346 441 L 284 410 L 220 346 L 189 252 L 189 189 L 220 94.5 L 284 31.5 L 346 0 L 441 0 L 504 31.5 L 567 94.5 M 567 346 L 536 315 L 504 378 L 441 410 L 346 410 L 284 378 L 252 346 L 220 252 L 220 189 L 252 94.5 L 284 63 L 346 31.5 L 441 31.5 L 504 63 L 536 126 L 567 94.5" />
<glyph unicode="d" glyph-name="d" horiz-adv-x="630" d="M 567 662 L 567 0 L 598 0 M 567 662 L 598 662 L 598 0 M 567 346 L 504 410 L 441 441 L 346 441 L 284 410 L 220 346 L 189 252 L 189 189 L 220 94.5 L 284 31.5 L 346 0 L 441 0 L 504 31.5 L 567 94.5 M 567 346 L 441 410 L 346 410 L 284 378 L 252 346 L 220 252 L 220 189 L 252 94.5 L 284 63 L 346 31.5 L 441 31.5 L 567 94.5" />
<glyph unicode="e" glyph-name="e" horiz-adv-x="567" d="M 220 220 L 567 220 L 567 315 L 536 378 L 504 410 L 441 441 L 346 441 L 284 410 L 220 346 L 189 252 L 189 189 L 220 94.5 L 284 31.5 L 346 0 L 441 0 L 504 31.5 L 567 94.5 M 220 252 L 536 252 L 536 315 L 504 378 L 441 410 L 346 410 L 284 378 L 252 346 L 220 252 L 220 189 L 252 94.5 L 284 63 L 346 31.5 L 441 31.5 L 504 63 L 536 126 L 567 94.5" />
<glyph unicode="f" glyph-name="f" horiz-adv-x="441" d="M 441 662 L 378 662 L 315 630 L 284 536 L 284 0 L 315 0 M 441 662 L 441 630 L 378 630 L 315 598 M 346 630 L 315 536 L 315 0 M 189 441 L 410 441 L 410 410 M 189 441 L 189 410 L 410 410" />
<glyph unicode="g" glyph-name="g" horiz-adv-x="630" d="M 598 441 L 567 441 L 567 -31.5 L 536 -126 L 504 -158 L 441 -189 L 378 -189 L 315 -158 L 284 -126 L 220 -126 M 598 441 L 598 -31.5 L 567 -126 L 504 -189 L 441 -220 L 346 -220 L 284 -189 L 220 -126 M 567 346 L 504 410 L 441 441 L 346 441 L 284 410 L 220 346 L 189 252 L 189 189 L 220 94.5 L 284 31.5 L 346 0 L 441 0 L 504 31.5 L 567 94.5 M 567 346 L 441 410 L 346 410 L 284 378 L 252 346 L 220 252 L 220 189 L 252 94.5 L 284 63 L 346 31.5 L 441 31.5 L 567 94.5" />
<glyph unicode="h" glyph-name="h" horiz-adv-x="630" d="M 220 662 L 220 0 L 252 0 M 220 662 L 252 662 L 252 0 M 252 315 L 346 410 L 410 441 L 504 441 L 567 410 L 598 315 L 598 0 M 252 315 L 346 378 L 410 410 L 472 410 L 536 378 L 567 315 L 567 0 L 598 0" />
<glyph unicode="i" glyph-name="i" horiz-adv-x="284" d="M 220 662 L 189 630 L 189 598 L 220 567 L 252 567 L 284 598 L 284 630 L 252 662 L 220 662 M 220 630 L 220 598 L 252 598 L 252 630 L 220 630 M 220 441 L 220 0 L 252 0 M 220 441 L 252 441 L 252 0" />
<glyph unicode="j" glyph-name="j" horiz-adv-x="284" d="M 220 662 L 189 630 L 189 598 L 220 567 L 252 567 L 284 598 L 284 630 L 252 662 L 220 662 M 220 630 L 220 598 L 252 598 L 252 630 L 220 630 M 220 441 L 220 -220 L 252 -220 M 220 441 L 252 441 L 252 -220" />
<glyph unicode="k" glyph-name="k" horiz-adv-x="598" d="M 220 662 L 220 0 L 252 0 M 220 662 L 252 662 L 252 0 M 598 441 L 567 441 L 252 126 M 598 441 L 252 94.5 M 346 220 L 536 0 L 598 0 M 378 252 L 598 0" />
<glyph unicode="l" glyph-name="l" horiz-adv-x="284" d="M 220 662 L 220 0 L 252 0 M 220 662 L 252 662 L 252 0" />
<glyph unicode="m" glyph-name="m" horiz-adv-x="976" d="M 220 441 L 220 0 L 252 0 M 220 441 L 252 441 L 252 0 M 252 315 L 346 410 L 410 441 L 504 441 L 567 410 L 598 315 L 598 0 M 252 315 L 346 378 L 410 410 L 472 410 L 536 378 L 567 315 L 567 0 L 598 0 M 598 315 L 693 410 L 756 441 L 850 441 L 914 410 L 945 315 L 945 0 M 598 315 L 693 378 L 756 410 L 819 410 L 882 378 L 914 315 L 914 0 L 945 0" />
<glyph unicode="n" glyph-name="n" horiz-adv-x="630" d="M 220 441 L 220 0 L 252 0 M 220 441 L 252 441 L 252 0 M 252 315 L 346 410 L 410 441 L 504 441 L 567 410 L 598 315 L 598 0 M 252 315 L 346 378 L 410 410 L 472 410 L 536 378 L 567 315 L 567 0 L 598 0" />
<glyph unicode="o" glyph-name="o" horiz-adv-x="598" d="M 346 441 L 284 410 L 220 346 L 189 252 L 189 189 L 220 94.5 L 284 31.5 L 346 0 L 441 0 L 504 31.5 L 567 94.5 L 598 189 L 598 252 L 567 346 L 504 410 L 441 441 L 346 441 M 346 410 L 284 378 L 252 346 L 220 252 L 220 189 L 252 94.5 L 284 63 L 346 31.5 L 441 31.5 L 504 63 L 536 94.5 L 567 189 L 567 252 L 536 346 L 504 378 L 441 410 L 346 410" />
<glyph unicode="p" glyph-name="p" horiz-adv-x="630" d="M 220 441 L 220 -220 L 252 -220 M 220 441 L 252 441 L 252 -220 M 252 346 L 315 410 L 378 441 L 472 441 L 536 410 L 598 346 L 630 252 L 630 189 L 598 94.5 L 536 31.5 L 472 0 L 378 0 L 315 31.5 L 252 94.5 M 252 346 L 378 410 L 472 410 L 536 378 L 567 346 L 598 252 L 598 189 L 567 94.5 L 536 63 L 472 31.5 L 378 31.5 L 252 94.5" />
<glyph unicode="q" glyph-name="q" horiz-adv-x="630" d="M 567 441 L 567 -220 L 598 -220 M 567 441 L 598 441 L 598 -220 M 567 346 L 504 410 L 441 441 L 346 441 L 284 410 L 220 346 L 189 252 L 189 189 L 220 94.5 L 284 31.5 L 346 0 L 441 0 L 504 31.5 L 567 94.5 M 567 346 L 441 410 L 346 410 L 284 378 L 252 346 L 220 252 L 220 189 L 252 94.5 L 284 63 L 346 31.5 L 441 31.5 L 567 94.5" />
<glyph unicode="r" glyph-name="r" horiz-adv-x="441" d="M 220 441 L 220 0 L 252 0 M 220 441 L 252 441 L 252 0 M 252 252 L 284 346 L 346 410 L 410 441 L 504 441 M 252 252 L 284 315 L 346 378 L 410 410 L 504 410 L 504 441" />
<glyph unicode="s" glyph-name="s" horiz-adv-x="536" d="M 536 346 L 504 410 L 410 441 L 315 441 L 220 410 L 189 346 L 220 284 L 284 252 L 441 189 L 504 158 M 472 189 L 504 126 L 504 94.5 L 472 31.5 M 504 63 L 410 31.5 L 315 31.5 L 220 63 M 252 31.5 L 220 94.5 L 189 94.5 M 536 346 L 504 346 L 472 410 M 504 378 L 410 410 L 315 410 L 220 378 M 252 410 L 220 346 L 252 284 M 220 315 L 284 284 L 441 220 L 504 189 L 536 126 L 536 94.5 L 504 31.5 L 410 0 L 315 0 L 220 31.5 L 189 94.5" />
<glyph unicode="t" glyph-name="t" horiz-adv-x="346" d="M 252 662 L 252 0 L 284 0 M 252 662 L 284 662 L 284 0 M 158 441 L 378 441 L 378 410 M 158 441 L 158 410 L 378 410" />
<glyph unicode="u" glyph-name="u" horiz-adv-x="630" d="M 220 441 L 220 126 L 252 31.5 L 315 0 L 410 0 L 472 31.5 L 567 126 M 220 441 L 252 441 L 252 126 L 284 63 L 346 31.5 L 410 31.5 L 472 63 L 567 126 M 567 441 L 567 0 L 598 0 M 567 441 L 598 441 L 598 0" />
<glyph unicode="v" glyph-name="v" horiz-adv-x="504" d="M 158 441 L 346 0 M 158 441 L 189 441 L 346 63 M 536 441 L 504 441 L 346 63 M 536 441 L 346 0" />
<glyph unicode="w" glyph-name="w" horiz-adv-x="756" d="M 189 441 L 346 0 M 189 441 L 220 441 L 346 94.5 M 472 441 L 346 94.5 M 472 346 L 346 0 M 472 346 L 598 0 M 472 441 L 598 94.5 M 756 441 L 724 441 L 598 94.5 M 756 441 L 598 0" />
<glyph unicode="x" glyph-name="x" horiz-adv-x="567" d="M 189 441 L 536 0 L 567 0 M 189 441 L 220 441 L 567 0 M 567 441 L 536 441 L 189 0 M 567 441 L 220 0 L 189 0" />
<glyph unicode="y" glyph-name="y" horiz-adv-x="504" d="M 158 441 L 346 0 M 158 441 L 189 441 L 346 63 M 536 441 L 504 441 L 346 63 L 220 -220 M 536 441 L 346 0 L 252 -220 L 220 -220" />
<glyph unicode="z" glyph-name="z" horiz-adv-x="567" d="M 504 410 L 189 0 M 567 441 L 252 31.5 M 189 441 L 567 441 M 189 441 L 189 410 L 504 410 M 252 31.5 L 567 31.5 L 567 0 M 189 0 L 567 0" />
<glyph unicode="{" glyph-name="braceleft" horiz-adv-x="441" d="M 410 788 L 189 284 L 410 -220" />
<glyph unicode="|" glyph-name="bar" horiz-adv-x="252" d="M 220 788 L 220 -220" />
<glyph unicode="}" glyph-name="braceright" horiz-adv-x="441" d="M 220 788 L 441 284 L 220 -220" />
<glyph unicode="~" glyph-name="asciitilde" horiz-adv-x="756" d="M 189 189 L 189 252 L 220 346 L 284 378 L 346 378 L 410 346 L 536 252 L 598 220 L 662 220 L 724 252 L 756 315 M 189 252 L 220 315 L 284 346 L 346 346 L 410 315 L 536 220 L 598 189 L 662 189 L 724 220 L 756 315 L 756 378" />
<glyph unicode="&#xa0;" glyph-name="nbspace" horiz-adv-x="378" />
<glyph unicode="&#xa1;" glyph-name="exclamdown" horiz-adv-x="346" d="M 284 0 L 284 441 L 252 441 M 284 0 L 252 0 L 252 441 M 284 567 L 315 598 L 315 630 L 284 662 L 252 662 L 220 630 L 220 598 L 252 567 L 284 567 M 284 598 L 284 630 L 252 630 L 252 598 L 284 598" />
<glyph unicode="&#xa2;" glyph-name="cent" horiz-adv-x="202" d="M 567 346 L 504 410 L 441 441 L 346 441 L 284 410 L 220 346 L 189 252 L 189 189 L 220 94.5 L 284 31.5 L 346 0 L 441 0 L 504 31.5 L 567 94.5 M 567 346 L 536 315 L 504 378 L 441 410 L 346 410 L 284 378 L 252 346 L 220 252 L 220 189 L 252 94.5 L 284 63 L 346 31.5 L 441 31.5 L 504 63 L 536 126 L 567 94.5 M 403 630 L 403 -176" />
<glyph unicode="&#xa5;" glyph-name="yen" horiz-adv-x="598" d="M 158 662 L 378 346 L 378 0 L 410 0 M 158 662 L 189 662 L 410 346 M 630 662 L 598 662 L 378 346 M 630 662 L 410 346 L 410 0 M 227 189 L 567 189 M 227 265 L 567 265" />
<glyph unicode="&#xa6;" glyph-name="brokenbar" horiz-adv-x="75.6" d="M 236 236 L 236 -66.1 M 236 709 L 236 406" />
<glyph unicode="&#xa8;" glyph-name="dieresis" horiz-adv-x="567" d=" M 246 756 L 215 724 L 215 693 L 246 662 L 278 662 L 309 693 L 309 724 L 278 756 L 246 756 M 246 724 L 246 693 L 278 693 L 278 724 L 246 724 M 510 756 L 478 724 L 478 693 L 510 662 L 541 662 L 573 693 L 573 724 L 541 756 L 510 756 M 510 724 L 510 693 L 541 693 L 541 724 L 510 724" />
<glyph unicode="&#xa9;" glyph-name="copyright" horiz-adv-x="693" d="M 378 662 L 315 630 L 252 567 L 220 504 L 189 410 L 189 252 L 220 158 L 252 94.5 L 315 31.5 L 378 0 L 504 0 L 567 31.5 L 630 94.5 L 662 158 L 693 252 L 693 410 L 662 504 L 630 567 L 567 630 L 504 662 L 378 662 M 551 410 L 536 441 L 504 472 L 472 488 L 410 488 L 378 472 L 346 441 L 331 410 L 315 362 L 315 284 L 331 236 L 346 205 L 378 173 L 410 158 L 472 158 L 504 173 L 536 205 L 551 236" />
<glyph unicode="&#xaa;" glyph-name="ordfeminine" horiz-adv-x="315" d="M 410 850 L 410 630 L 425 630 M 410 850 L 425 850 L 425 630 M 410 803 L 378 835 L 346 850 L 299 850 L 268 835 L 236 803 L 220 756 L 220 724 L 236 677 L 268 646 L 299 630 L 346 630 L 378 646 L 410 677 M 410 803 L 346 835 L 299 835 L 268 819 L 252 803 L 236 756 L 236 724 L 252 677 L 268 662 L 299 646 L 346 646 L 410 677" />
<glyph unicode="&#xab;" glyph-name="guillemotleft" horiz-adv-x="454" d="M 290 454 L 88.2 227 L 290 0 M 416 454 L 214 227 L 416 0" />
<glyph unicode="&#xae;" glyph-name="registered" horiz-adv-x="693" d="M 378 662 L 315 630 L 252 567 L 220 504 L 189 410 L 189 252 L 220 158 L 252 94.5 L 315 31.5 L 378 0 L 504 0 L 567 31.5 L 630 94.5 L 662 158 L 693 252 L 693 410 L 662 504 L 630 567 L 567 630 L 504 662 L 378 662 M 331 488 L 331 158 M 331 488 L 472 488 L 520 472 L 536 457 L 551 425 L 551 394 L 536 362 L 520 346 L 472 331 L 331 331 M 441 331 L 551 158" />
<glyph unicode="&#xb0;" glyph-name="degree" horiz-adv-x="249" d="M 236 765 L 217 756 L 198 737 L 189 718 L 180 690 L 180 643 L 189 614 L 198 595 L 217 576 L 236 567 L 274 567 L 293 576 L 312 595 L 321 614 L 331 643 L 331 690 L 321 718 L 312 737 L 293 756 L 274 765 L 236 765 M 246 756 L 217 747 L 198 718 L 189 690 L 189 643 L 198 614 L 217 586 L 246 576 L 265 576 L 293 586 L 312 614 L 321 643 L 321 690 L 312 718 L 293 747 L 265 756 L 246 756" />
<glyph unicode="&#xb1;" glyph-name="plusminus" horiz-adv-x="630" d="M 630 37.8 L 1083.6 37.8 M 832 643 L 832 214 L 857 214 M 832 643 L 857 643 L 857 214 M 630 441 L 1058.4 441 L 1058.4 416 M 630 441 L 630 416 L 1058.4 416" />
<glyph unicode="&#xb2;" glyph-name="twosuperior" horiz-adv-x="315" d="M 236 882 L 236 898 L 252 929 L 268 945 L 299 961 L 362 961 L 394 945 L 410 929 L 425 898 L 425 866 L 410 835 L 378 788 L 236 630 M 236 882 L 252 882 L 252 898 L 268 929 L 299 945 L 362 945 L 394 929 L 410 898 L 410 866 L 394 835 L 362 788 L 220 630 M 236 646 L 441 646 L 441 630 M 220 630 L 441 630" />
<glyph unicode="&#xb3;" glyph-name="threesuperior" horiz-adv-x="315" d="M 252 961 L 425 961 L 315 819 M 252 961 L 252 945 L 410 945 M 410 961 L 299 819 M 315 835 L 346 835 L 394 819 L 425 788 L 441 740 L 441 724 L 425 677 L 394 646 L 346 630 L 299 630 L 252 646 L 236 662 L 220 693 L 236 693 M 299 819 L 346 819 L 394 803 L 425 756 M 362 819 L 410 788 L 425 740 L 425 724 L 410 677 L 362 646 M 425 709 L 394 662 L 346 646 L 299 646 L 252 662 L 236 693 M 284 646 L 236 677" />
<glyph unicode="&#xb4;" glyph-name="acute" horiz-adv-x="378" d=" M 472 819 L 315 630 M 472 819 L 504 788 L 315 630" />
<glyph unicode="&#xb7;" glyph-name="middot" horiz-adv-x="416" d="M 378 416 L 340 378 L 340 340 L 378 302 L 416 302 L 454 340 L 454 378 L 416 416 L 378 416 M 378 378 L 378 340 L 416 340 L 416 378 L 378 378" />
<glyph unicode="&#xb9;" glyph-name="onesuperior" horiz-adv-x="315" d="M 268 898 L 299 914 L 346 961 L 346 630 M 268 898 L 268 882 L 299 898 L 331 929 L 331 630 L 346 630" />
<glyph unicode="&#xba;" glyph-name="ordmasculine" horiz-adv-x="249" d="M 236 765 L 217 756 L 198 737 L 189 718 L 180 690 L 180 643 L 189 614 L 198 595 L 217 576 L 236 567 L 274 567 L 293 576 L 312 595 L 321 614 L 331 643 L 331 690 L 321 718 L 312 737 L 293 756 L 274 765 L 236 765 M 246 756 L 217 747 L 198 718 L 189 690 L 189 643 L 198 614 L 217 586 L 246 576 L 265 576 L 293 586 L 312 614 L 321 643 L 321 690 L 312 718 L 293 747 L 265 756 L 246 756" />
<glyph unicode="&#xbb;" glyph-name="guillemotright" horiz-adv-x="454" d="M 88.2 454 L 290 227 L 88.2 0 M 214 454 L 416 227 L 214 0" />
<glyph unicode="&#xbc;" glyph-name="onequarter" horiz-adv-x="680" d="M 170 699 L 208 718 L 265 775 L 265 378 M 170 699 L 170 680 L 208 699 L 246 737 L 246 378 L 265 378 M 756 788 L 189 -220 L 220 -220 M 756 788 L 788 788 L 220 -220 M 813 340 L 813 0 L 832 0 M 832 397 L 832 0 M 832 397 L 624 94.5 L 907 94.5 M 813 340 L 643 94.5 M 643 113 L 907 113 L 907 94.5" />
<glyph unicode="&#xbd;" glyph-name="onehalf" horiz-adv-x="680" d="M 170 699 L 208 718 L 265 775 L 265 378 M 170 699 L 170 680 L 208 699 L 246 737 L 246 378 L 265 378 M 756 788 L 189 -220 L 220 -220 M 756 788 L 788 788 L 220 -220 M 643 302 L 643 321 L 662 359 L 680 378 L 718 397 L 794 397 L 832 378 L 850 359 L 869 321 L 869 284 L 850 246 L 813 189 L 643 0 M 643 302 L 662 302 L 662 321 L 680 359 L 718 378 L 794 378 L 832 359 L 850 321 L 850 284 L 832 246 L 794 189 L 624 0 M 643 18.9 L 888 18.9 L 888 0 M 624 0 L 888 0" />
<glyph unicode="&#xbe;" glyph-name="threequarters" horiz-adv-x="680" d="M 151 775 L 359 775 L 227 605 M 151 775 L 151 756 L 340 756 M 340 775 L 208 605 M 227 624 L 265 624 L 321 605 L 359 567 L 378 510 L 378 491 L 359 435 L 321 397 L 265 378 L 208 378 L 151 397 L 132 416 L 113 454 L 132 454 M 208 605 L 265 605 L 321 586 L 359 529 M 284 605 L 340 567 L 359 510 L 359 491 L 340 435 L 284 397 M 359 472 L 321 416 L 265 397 L 208 397 L 151 416 L 132 454 M 189 397 L 132 435 M 756 788 L 189 -220 L 220 -220 M 756 788 L 788 788 L 220 -220 M 813 340 L 813 0 L 832 0 M 832 397 L 832 0 M 832 397 L 624 94.5 L 907 94.5 M 813 340 L 643 94.5 M 643 113 L 907 113 L 907 94.5" />
<glyph unicode="&#xbf;" glyph-name="questiondown" horiz-adv-x="598" d="M 598 158 L 598 126 L 567 63 L 536 31.5 L 441 0 L 346 0 L 252 31.5 L 220 63 L 189 126 L 189 189 L 220 252 L 252 284 L 315 315 L 410 346 M 598 158 L 567 158 L 567 126 L 536 63 L 441 31.5 L 346 31.5 L 252 63 L 220 126 L 220 189 L 252 252 L 315 284 L 410 315 M 567 94.5 L 472 31.5 M 315 31.5 L 220 94.5 M 220 220 L 346 315 M 410 315 L 410 441 L 378 441 L 378 315 M 410 567 L 441 598 L 441 630 L 410 662 L 378 662 L 346 630 L 346 598 L 378 567 L 410 567 M 410 598 L 410 630 L 378 630 L 378 598 L 410 598" />
<glyph unicode="&#xc0;" glyph-name="Agrave" horiz-adv-x="630" d="M 410 662 L 158 0 M 410 567 L 189 0 L 158 0 M 410 567 L 630 0 L 662 0 M 410 662 L 662 0 M 252 189 L 567 189 M 220 158 L 598 158 M 284 1071.0 L 441 882 M 284 1071.0 L 252 1039.5 L 441 882" />
<glyph unicode="&#xc1;" glyph-name="Aacute" horiz-adv-x="630" d="M 410 662 L 158 0 M 410 567 L 189 0 L 158 0 M 410 567 L 630 0 L 662 0 M 410 662 L 662 0 M 252 189 L 567 189 M 220 158 L 598 158 M 567 1071.0 L 410 882 M 567 1071.0 L 598 1039.5 L 410 882" />
<glyph unicode="&#xc2;" glyph-name="Acircumflex" horiz-adv-x="630" d="M 410 662 L 158 0 M 410 567 L 189 0 L 158 0 M 410 567 L 630 0 L 662 0 M 410 662 L 662 0 M 252 189 L 567 189 M 220 158 L 598 158 M 265 794 L 416 888 L 567 794 M 265 794 L 416 869 L 567 794" />
<glyph unicode="&#xc3;" glyph-name="Atilde" horiz-adv-x="630" d="M 410 662 L 158 0 M 410 567 L 189 0 L 158 0 M 410 567 L 630 0 L 662 0 M 410 662 L 662 0 M 252 189 L 567 189 M 220 158 L 598 158 M 239 775 L 239 813 L 258 869 L 296 888 L 334 888 L 372 869 L 447 813 L 485 794 L 523 794 L 561 813 L 580 850 M 239 813 L 258 850 L 296 869 L 334 869 L 372 850 L 447 794 L 485 775 L 523 775 L 561 794 L 580 850 L 580 888" />
<glyph unicode="&#xc4;" glyph-name="Adieresis" horiz-adv-x="630" d="M 410 662 L 158 0 M 410 567 L 189 0 L 158 0 M 410 567 L 630 0 L 662 0 M 410 662 L 662 0 M 252 189 L 567 189 M 220 158 L 598 158 M 319 945 L 287 914 L 287 882 L 319 850 L 350 850 L 382 882 L 382 914 L 350 945 L 319 945 M 319 914 L 319 882 L 350 882 L 350 914 L 319 914 M 563 945 L 532 914 L 532 882 L 563 850 L 595 850 L 626 882 L 626 914 L 595 945 L 563 945 M 563 914 L 563 882 L 595 882 L 595 914 L 563 914" />
<glyph unicode="&#xc5;" glyph-name="Aring" horiz-adv-x="630" d="M 410 662 L 158 0 M 410 567 L 189 0 L 158 0 M 410 567 L 630 0 L 662 0 M 410 662 L 662 0 M 252 189 L 567 189 M 220 158 L 598 158 M 397 1048.9 L 378 1039.5 L 359 1020.6 L 350 1001.7 L 340 973 L 340 926 L 350 898 L 359 879 L 378 860 L 397 850 L 435 850 L 454 860 L 472 879 L 482 898 L 491 926 L 491 973 L 482 1001.7 L 472 1020.6 L 454 1039.5 L 435 1048.9 L 397 1048.9 M 406 1039.5 L 378 1030.0 L 359 1001.7 L 350 973 L 350 926 L 359 898 L 378 869 L 406 860 L 425 860 L 454 869 L 472 898 L 482 926 L 482 973 L 472 1001.7 L 454 1030.0 L 425 1039.5 L 406 1039.5" />
<glyph unicode="&#xc8;" glyph-name="Egrave" horiz-adv-x="598" d="M 220 662 L 220 0 M 252 630 L 252 31.5 M 220 662 L 598 662 M 252 630 L 598 630 L 598 662 M 252 346 L 441 346 L 441 315 M 252 315 L 441 315 M 252 31.5 L 598 31.5 L 598 0 M 220 0 L 598 0 M 268 1071.0 L 425 882 M 268 1071.0 L 236 1039.5 L 425 882" />
<glyph unicode="&#xc9;" glyph-name="Eacute" horiz-adv-x="598" d="M 220 662 L 220 0 M 252 630 L 252 31.5 M 220 662 L 598 662 M 252 630 L 598 630 L 598 662 M 252 346 L 441 346 L 441 315 M 252 315 L 441 315 M 252 31.5 L 598 31.5 L 598 0 M 220 0 L 598 0 M 551 1071.0 L 394 882 M 551 1071.0 L 583 1039.5 L 394 882" />
<glyph unicode="&#xca;" glyph-name="Ecircumflex" horiz-adv-x="598" d="M 220 662 L 220 0 M 252 630 L 252 31.5 M 220 662 L 598 662 M 252 630 L 598 630 L 598 662 M 252 346 L 441 346 L 441 315 M 252 315 L 441 315 M 252 31.5 L 598 31.5 L 598 0 M 220 0 L 598 0 M 255 794 L 406 888 L 558 794 M 255 794 L 406 869 L 558 794" />
<glyph unicode="&#xcb;" glyph-name="Edieresis" horiz-adv-x="598" d="M 220 662 L 220 0 M 252 630 L 252 31.5 M 220 662 L 598 662 M 252 630 L 598 630 L 598 662 M 252 346 L 441 346 L 441 315 M 252 315 L 441 315 M 252 31.5 L 598 31.5 L 598 0 M 220 0 L 598 0 M 271 945 L 240 914 L 240 882 L 271 850 L 303 850 L 334 882 L 334 914 L 303 945 L 271 945 M 271 914 L 271 882 L 303 882 L 303 914 L 271 914 M 516 945 L 485 914 L 485 882 L 516 850 L 548 850 L 579 882 L 579 914 L 548 945 L 516 945 M 516 914 L 516 882 L 548 882 L 548 914 L 516 914" />
<glyph unicode="&#xcc;" glyph-name="Igrave" horiz-adv-x="284" d="M 220 662 L 220 0 L 252 0 M 220 662 L 252 662 L 252 0 M 110 1071.0 L 268 882 M 110 1071.0 L 78.8 1039.5 L 268 882" />
<glyph unicode="&#xcd;" glyph-name="Iacute" horiz-adv-x="284" d="M 220 662 L 220 0 L 252 0 M 220 662 L 252 662 L 252 0 M 394 1071.0 L 236 882 M 394 1071.0 L 425 1039.5 L 236 882" />
<glyph unicode="&#xce;" glyph-name="Icircumflex" horiz-adv-x="284" d="M 220 662 L 220 0 L 252 0 M 220 662 L 252 662 L 252 0 M 104 794 L 255 888 L 406 794 M 104 794 L 255 869 L 406 794" />
<glyph unicode="&#xcf;" glyph-name="Idieresis" horiz-adv-x="284" d="M 220 662 L 220 0 L 252 0 M 220 662 L 252 662 L 252 0 M 116 945 L 84.9 914 L 84.9 882 L 116 850 L 148 850 L 179 882 L 179 914 L 148 945 L 116 945 M 116 914 L 116 882 L 148 882 L 148 914 L 116 914 M 356 945 L 325 914 L 325 882 L 356 850 L 388 850 L 419 882 L 419 914 L 388 945 L 356 945 M 356 914 L 356 882 L 388 882 L 388 914 L 356 914" />
<glyph unicode="&#xd0;" glyph-name="Eth" horiz-adv-x="662" d="M 110 252 L 394 252 M 220 662 L 220 0 M 252 630 L 252 31.5 M 220 662 L 441 662 L 536 630 L 598 567 L 630 504 L 662 410 L 662 252 L 630 158 L 598 94.5 L 536 31.5 L 441 0 L 220 0 M 252 630 L 441 630 L 536 598 L 567 567 L 598 504 L 630 410 L 630 252 L 598 158 L 567 94.5 L 536 63 L 441 31.5 L 252 31.5" />
<glyph unicode="&#xd1;" glyph-name="Ntilde" horiz-adv-x="693" d="M 220 662 L 220 0 M 252 567 L 252 0 L 220 0 M 252 567 L 662 0 M 220 662 L 630 94.5 M 630 662 L 630 94.5 M 630 662 L 662 662 L 662 0 M 252 775 L 252 813 L 271 869 L 309 888 L 346 888 L 384 869 L 460 813 L 498 794 L 535 794 L 573 813 L 592 850 M 252 813 L 271 850 L 309 869 L 346 869 L 384 850 L 460 794 L 498 775 L 535 775 L 573 794 L 592 850 L 592 888" />
<glyph unicode="&#xd2;" glyph-name="Ograve" horiz-adv-x="693" d="M 378 662 L 315 630 L 252 567 L 220 504 L 189 410 L 189 252 L 220 158 L 252 94.5 L 315 31.5 L 378 0 L 504 0 L 567 31.5 L 630 94.5 L 662 158 L 693 252 L 693 410 L 662 504 L 630 567 L 567 630 L 504 662 L 378 662 M 410 630 L 315 598 L 252 504 L 220 410 L 220 252 L 252 158 L 315 63 L 410 31.5 L 472 31.5 L 567 63 L 630 158 L 662 252 L 662 410 L 630 504 L 567 598 L 472 630 L 410 630 M 315 1071.0 L 472 882 M 315 1071.0 L 284 1039.5 L 472 882" />
<glyph unicode="&#xd3;" glyph-name="Oacute" horiz-adv-x="693" d="M 378 662 L 315 630 L 252 567 L 220 504 L 189 410 L 189 252 L 220 158 L 252 94.5 L 315 31.5 L 378 0 L 504 0 L 567 31.5 L 630 94.5 L 662 158 L 693 252 L 693 410 L 662 504 L 630 567 L 567 630 L 504 662 L 378 662 M 410 630 L 315 598 L 252 504 L 220 410 L 220 252 L 252 158 L 315 63 L 410 31.5 L 472 31.5 L 567 63 L 630 158 L 662 252 L 662 410 L 630 504 L 567 598 L 472 630 L 410 630 M 598 1071.0 L 441 882 M 598 1071.0 L 630 1039.5 L 441 882" />
<glyph unicode="&#xd4;" glyph-name="Ocircumflex" horiz-adv-x="693" d="M 378 662 L 315 630 L 252 567 L 220 504 L 189 410 L 189 252 L 220 158 L 252 94.5 L 315 31.5 L 378 0 L 504 0 L 567 31.5 L 630 94.5 L 662 158 L 693 252 L 693 410 L 662 504 L 630 567 L 567 630 L 504 662 L 378 662 M 410 630 L 315 598 L 252 504 L 220 410 L 220 252 L 252 158 L 315 63 L 410 31.5 L 472 31.5 L 567 63 L 630 158 L 662 252 L 662 410 L 630 504 L 567 598 L 472 630 L 410 630 M 284 794 L 435 888 L 586 794 M 284 794 L 435 869 L 586 794" />
<glyph unicode="&#xd5;" glyph-name="Otilde" horiz-adv-x="693" d="M 378 662 L 315 630 L 252 567 L 220 504 L 189 410 L 189 252 L 220 158 L 252 94.5 L 315 31.5 L 378 0 L 504 0 L 567 31.5 L 630 94.5 L 662 158 L 693 252 L 693 410 L 662 504 L 630 567 L 567 630 L 504 662 L 378 662 M 410 630 L 315 598 L 252 504 L 220 410 L 220 252 L 252 158 L 315 63 L 410 31.5 L 472 31.5 L 567 63 L 630 158 L 662 252 L 662 410 L 630 504 L 567 598 L 472 630 L 410 630 M 252 775 L 252 813 L 271 869 L 309 888 L 346 888 L 384 869 L 460 813 L 498 794 L 535 794 L 573 813 L 592 850 M 252 813 L 271 850 L 309 869 L 346 869 L 384 850 L 460 794 L 498 775 L 535 775 L 573 794 L 592 850 L 592 888" />
<glyph unicode="&#xd6;" glyph-name="Odieresis" horiz-adv-x="693" d="M 378 662 L 315 630 L 252 567 L 220 504 L 189 410 L 189 252 L 220 158 L 252 94.5 L 315 31.5 L 378 0 L 504 0 L 567 31.5 L 630 94.5 L 662 158 L 693 252 L 693 410 L 662 504 L 630 567 L 567 630 L 504 662 L 378 662 M 410 630 L 315 598 L 252 504 L 220 410 L 220 252 L 252 158 L 315 63 L 410 31.5 L 472 31.5 L 567 63 L 630 158 L 662 252 L 662 410 L 630 504 L 567 598 L 472 630 L 410 630 M 308 945 L 276 914 L 276 882 L 308 850 L 339 850 L 371 882 L 371 914 L 339 945 L 308 945 M 308 914 L 308 882 L 339 882 L 339 914 L 308 914 M 574 945 L 543 914 L 543 882 L 574 850 L 606 850 L 637 882 L 637 914 L 606 945 L 574 945 M 574 914 L 574 882 L 606 882 L 606 914 L 574 914" />
<glyph unicode="&#xd7;" glyph-name="multiply" horiz-adv-x="567" d="M 189 441 L 536 0 L 567 0 M 189 441 L 220 441 L 567 0 M 567 441 L 536 441 L 189 0 M 567 441 L 220 0 L 189 0" />
<glyph unicode="&#xd8;" glyph-name="Oslash" horiz-adv-x="693" d="M 378 662 L 315 630 L 252 567 L 220 504 L 189 410 L 189 252 L 220 158 L 252 94.5 L 315 31.5 L 378 0 L 504 0 L 567 31.5 L 630 94.5 L 662 158 L 693 252 L 693 410 L 662 504 L 630 567 L 567 630 L 504 662 L 378 662 M 410 630 L 315 598 L 252 504 L 220 410 L 220 252 L 252 158 L 315 63 L 410 31.5 L 472 31.5 L 567 63 L 630 158 L 662 252 L 662 410 L 630 504 L 567 598 L 472 630 L 410 630 M 680 794 L 170 -113 L 198 -113 M 680 794 L 709 794 L 198 -113" />
<glyph unicode="&#xd9;" glyph-name="Ugrave" horiz-adv-x="693" d="M 220 662 L 220 189 L 252 94.5 L 315 31.5 L 410 0 L 472 0 L 567 31.5 L 630 94.5 L 662 189 L 662 662 M 220 662 L 252 662 L 252 189 L 284 94.5 L 315 63 L 410 31.5 L 472 31.5 L 567 63 L 598 94.5 L 630 189 L 630 662 L 662 662 M 315 1071.0 L 472 882 M 315 1071.0 L 284 1039.5 L 472 882" />
<glyph unicode="&#xda;" glyph-name="Uacute" horiz-adv-x="693" d="M 220 662 L 220 189 L 252 94.5 L 315 31.5 L 410 0 L 472 0 L 567 31.5 L 630 94.5 L 662 189 L 662 662 M 220 662 L 252 662 L 252 189 L 284 94.5 L 315 63 L 410 31.5 L 472 31.5 L 567 63 L 598 94.5 L 630 189 L 630 662 L 662 662 M 598 1071.0 L 441 882 M 598 1071.0 L 630 1039.5 L 441 882" />
<glyph unicode="&#xdb;" glyph-name="Ucircumflex" horiz-adv-x="693" d="M 220 662 L 220 189 L 252 94.5 L 315 31.5 L 410 0 L 472 0 L 567 31.5 L 630 94.5 L 662 189 L 662 662 M 220 662 L 252 662 L 252 189 L 284 94.5 L 315 63 L 410 31.5 L 472 31.5 L 567 63 L 598 94.5 L 630 189 L 630 662 L 662 662 M 284 794 L 435 888 L 586 794 M 284 794 L 435 869 L 586 794" />
<glyph unicode="&#xdc;" glyph-name="Udieresis" horiz-adv-x="693" d="M 220 662 L 220 189 L 252 94.5 L 315 31.5 L 410 0 L 472 0 L 567 31.5 L 630 94.5 L 662 189 L 662 662 M 220 662 L 252 662 L 252 189 L 284 94.5 L 315 63 L 410 31.5 L 472 31.5 L 567 63 L 598 94.5 L 630 189 L 630 662 L 662 662 M 316 945 L 284 914 L 284 882 L 316 850 L 347 850 L 379 882 L 379 914 L 347 945 L 316 945 M 316 914 L 316 882 L 347 882 L 347 914 L 316 914 M 566 945 L 535 914 L 535 882 L 566 850 L 598 850 L 629 882 L 629 914 L 598 945 L 566 945 M 566 914 L 566 882 L 598 882 L 598 914 L 566 914" />
<glyph unicode="&#xdd;" glyph-name="Yacute" horiz-adv-x="598" d="M 158 662 L 378 346 L 378 0 L 410 0 M 158 662 L 189 662 L 410 346 M 630 662 L 598 662 L 378 346 M 630 662 L 410 346 L 410 0 M 551 1071.0 L 394 882 M 551 1071.0 L 583 1039.5 L 394 882" />
<glyph unicode="&#xe0;" glyph-name="agrave" horiz-adv-x="630" d="M 567 441 L 567 0 L 598 0 M 567 441 L 598 441 L 598 0 M 567 346 L 504 410 L 441 441 L 346 441 L 284 410 L 220 346 L 189 252 L 189 189 L 220 94.5 L 284 31.5 L 346 0 L 441 0 L 504 31.5 L 567 94.5 M 567 346 L 441 410 L 346 410 L 284 378 L 252 346 L 220 252 L 220 189 L 252 94.5 L 284 63 L 346 31.5 L 441 31.5 L 567 94.5 M 284 819 L 441 630 M 284 819 L 252 788 L 441 630" />
<glyph unicode="&#xe1;" glyph-name="aacute" horiz-adv-x="630" d="M 567 441 L 567 0 L 598 0 M 567 441 L 598 441 L 598 0 M 567 346 L 504 410 L 441 441 L 346 441 L 284 410 L 220 346 L 189 252 L 189 189 L 220 94.5 L 284 31.5 L 346 0 L 441 0 L 504 31.5 L 567 94.5 M 567 346 L 441 410 L 346 410 L 284 378 L 252 346 L 220 252 L 220 189 L 252 94.5 L 284 63 L 346 31.5 L 441 31.5 L 567 94.5 M 598 819 L 441 630 M 598 819 L 630 788 L 441 630" />
<glyph unicode="&#xe2;" glyph-name="acircumflex" horiz-adv-x="630" d="M 567 441 L 567 0 L 598 0 M 567 441 L 598 441 L 598 0 M 567 346 L 504 410 L 441 441 L 346 441 L 284 410 L 220 346 L 189 252 L 189 189 L 220 94.5 L 284 31.5 L 346 0 L 441 0 L 504 31.5 L 567 94.5 M 567 346 L 441 410 L 346 410 L 284 378 L 252 346 L 220 252 L 220 189 L 252 94.5 L 284 63 L 346 31.5 L 441 31.5 L 567 94.5 M 265 586 L 416 680 L 567 586 M 265 586 L 416 662 L 567 586" />
<glyph unicode="&#xe3;" glyph-name="atilde" horiz-adv-x="630" d="M 567 441 L 567 0 L 598 0 M 567 441 L 598 441 L 598 0 M 567 346 L 504 410 L 441 441 L 346 441 L 284 410 L 220 346 L 189 252 L 189 189 L 220 94.5 L 284 31.5 L 346 0 L 441 0 L 504 31.5 L 567 94.5 M 567 346 L 441 410 L 346 410 L 284 378 L 252 346 L 220 252 L 220 189 L 252 94.5 L 284 63 L 346 31.5 L 441 31.5 L 567 94.5 M 239 586 L 239 624 L 258 680 L 296 699 L 334 699 L 372 680 L 447 624 L 485 605 L 523 605 L 561 624 L 580 662 M 239 624 L 258 662 L 296 680 L 334 680 L 372 662 L 447 605 L 485 586 L 523 586 L 561 605 L 580 662 L 580 699" />
<glyph unicode="&#xe4;" glyph-name="adieresis" horiz-adv-x="630" d="M 567 441 L 567 0 L 598 0 M 567 441 L 598 441 L 598 0 M 567 346 L 504 410 L 441 441 L 346 441 L 284 410 L 220 346 L 189 252 L 189 189 L 220 94.5 L 284 31.5 L 346 0 L 441 0 L 504 31.5 L 567 94.5 M 567 346 L 441 410 L 346 410 L 284 378 L 252 346 L 220 252 L 220 189 L 252 94.5 L 284 63 L 346 31.5 L 441 31.5 L 567 94.5 M 285 756 L 254 724 L 254 693 L 285 662 L 317 662 L 348 693 L 348 724 L 317 756 L 285 756 M 285 724 L 285 693 L 317 693 L 317 724 L 285 724 M 534 756 L 502 724 L 502 693 L 534 662 L 565 662 L 597 693 L 597 724 L 565 756 L 534 756 M 534 724 L 534 693 L 565 693 L 565 724 L 534 724" />
<glyph unicode="&#xe5;" glyph-name="aring" horiz-adv-x="630" d="M 567 441 L 567 0 L 598 0 M 567 441 L 598 441 L 598 0 M 567 346 L 504 410 L 441 441 L 346 441 L 284 410 L 220 346 L 189 252 L 189 189 L 220 94.5 L 284 31.5 L 346 0 L 441 0 L 504 31.5 L 567 94.5 M 567 346 L 441 410 L 346 410 L 284 378 L 252 346 L 220 252 L 220 189 L 252 94.5 L 284 63 L 346 31.5 L 441 31.5 L 567 94.5 M 397 860 L 378 850 L 359 832 L 350 813 L 340 784 L 340 737 L 350 709 L 359 690 L 378 671 L 397 662 L 435 662 L 454 671 L 472 690 L 482 709 L 491 737 L 491 784 L 482 813 L 472 832 L 454 850 L 435 860 L 397 860 M 406 850 L 378 841 L 359 813 L 350 784 L 350 737 L 359 709 L 378 680 L 406 671 L 425 671 L 454 680 L 472 709 L 482 737 L 482 784 L 472 813 L 454 841 L 425 850 L 406 850" />
<glyph unicode="&#xe8;" glyph-name="egrave" horiz-adv-x="567" d="M 220 220 L 567 220 L 567 315 L 536 378 L 504 410 L 441 441 L 346 441 L 284 410 L 220 346 L 189 252 L 189 189 L 220 94.5 L 284 31.5 L 346 0 L 441 0 L 504 31.5 L 567 94.5 M 220 252 L 536 252 L 536 315 L 504 378 L 441 410 L 346 410 L 284 378 L 252 346 L 220 252 L 220 189 L 252 94.5 L 284 63 L 346 31.5 L 441 31.5 L 504 63 L 536 126 L 567 94.5 M 252 819 L 410 630 M 252 819 L 220 788 L 410 630" />
<glyph unicode="&#xe9;" glyph-name="eacute" horiz-adv-x="567" d="M 220 220 L 567 220 L 567 315 L 536 378 L 504 410 L 441 441 L 346 441 L 284 410 L 220 346 L 189 252 L 189 189 L 220 94.5 L 284 31.5 L 346 0 L 441 0 L 504 31.5 L 567 94.5 M 220 252 L 536 252 L 536 315 L 504 378 L 441 410 L 346 410 L 284 378 L 252 346 L 220 252 L 220 189 L 252 94.5 L 284 63 L 346 31.5 L 441 31.5 L 504 63 L 536 126 L 567 94.5 M 567 819 L 410 630 M 567 819 L 598 788 L 410 630" />
<glyph unicode="&#xea;" glyph-name="ecircumflex" horiz-adv-x="567" d="M 220 220 L 567 220 L 567 315 L 536 378 L 504 410 L 441 441 L 346 441 L 284 410 L 220 346 L 189 252 L 189 189 L 220 94.5 L 284 31.5 L 346 0 L 441 0 L 504 31.5 L 567 94.5 M 220 252 L 536 252 L 536 315 L 504 378 L 441 410 L 346 410 L 284 378 L 252 346 L 220 252 L 220 189 L 252 94.5 L 284 63 L 346 31.5 L 441 31.5 L 504 63 L 536 126 L 567 94.5 M 246 586 L 397 680 L 548 586 M 246 586 L 397 662 L 548 586" />
<glyph unicode="&#xeb;" glyph-name="edieresis" horiz-adv-x="567" d="M 220 220 L 567 220 L 567 315 L 536 378 L 504 410 L 441 441 L 346 441 L 284 410 L 220 346 L 189 252 L 189 189 L 220 94.5 L 284 31.5 L 346 0 L 441 0 L 504 31.5 L 567 94.5 M 220 252 L 536 252 L 536 315 L 504 378 L 441 410 L 346 410 L 284 378 L 252 346 L 220 252 L 220 189 L 252 94.5 L 284 63 L 346 31.5 L 441 31.5 L 504 63 L 536 126 L 567 94.5 M 245 756 L 214 724 L 214 693 L 245 662 L 277 662 L 308 693 L 308 724 L 277 756 L 245 756 M 245 724 L 245 693 L 277 693 L 277 724 L 245 724 M 511 756 L 479 724 L 479 693 L 511 662 L 542 662 L 574 693 L 574 724 L 542 756 L 511 756 M 511 724 L 511 693 L 542 693 L 542 724 L 511 724" />
<glyph unicode="&#xec;" glyph-name="igrave" horiz-adv-x="284" d="M 220 441 L 220 0 L 252 0 M 220 441 L 252 441 L 252 0 M 110 819 L 268 630 M 110 819 L 78.8 788 L 268 630" />
<glyph unicode="&#xed;" glyph-name="iacute" horiz-adv-x="284" d="M 220 441 L 220 0 L 252 0 M 220 441 L 252 441 L 252 0 M 425 819 L 268 630 M 425 819 L 457 788 L 268 630" />
<glyph unicode="&#xee;" glyph-name="icircumflex" horiz-adv-x="284" d="M 220 441 L 220 0 L 252 0 M 220 441 L 252 441 L 252 0 M 104 586 L 255 680 L 406 586 M 104 586 L 255 662 L 406 586" />
<glyph unicode="&#xef;" glyph-name="idieresis" horiz-adv-x="284" d="M 220 441 L 220 0 L 252 0 M 220 441 L 252 441 L 252 0 M 118 756 L 86.3 724 L 86.3 693 L 118 662 L 149 662 L 181 693 L 181 724 L 149 756 L 118 756 M 118 724 L 118 693 L 149 693 L 149 724 L 118 724 M 355 756 L 323 724 L 323 693 L 355 662 L 386 662 L 418 693 L 418 724 L 386 756 L 355 756 M 355 724 L 355 693 L 386 693 L 386 724 L 355 724" />
<glyph unicode="&#xf1;" glyph-name="ntilde" horiz-adv-x="630" d="M 220 441 L 220 0 L 252 0 M 220 441 L 252 441 L 252 0 M 252 315 L 346 410 L 410 441 L 504 441 L 567 410 L 598 315 L 598 0 M 252 315 L 346 378 L 410 410 L 472 410 L 536 378 L 567 315 L 567 0 L 598 0 M 239 586 L 239 624 L 258 680 L 296 699 L 334 699 L 372 680 L 447 624 L 485 605 L 523 605 L 561 624 L 580 662 M 239 624 L 258 662 L 296 680 L 334 680 L 372 662 L 447 605 L 485 586 L 523 586 L 561 605 L 580 662 L 580 699" />
<glyph unicode="&#xf2;" glyph-name="ograve" horiz-adv-x="598" d="M 346 441 L 284 410 L 220 346 L 189 252 L 189 189 L 220 94.5 L 284 31.5 L 346 0 L 441 0 L 504 31.5 L 567 94.5 L 598 189 L 598 252 L 567 346 L 504 410 L 441 441 L 346 441 M 346 410 L 284 378 L 252 346 L 220 252 L 220 189 L 252 94.5 L 284 63 L 346 31.5 L 441 31.5 L 504 63 L 536 94.5 L 567 189 L 567 252 L 536 346 L 504 378 L 441 410 L 346 410 M 268 819 L 425 630 M 268 819 L 236 788 L 425 630" />
<glyph unicode="&#xf3;" glyph-name="oacute" horiz-adv-x="598" d="M 346 441 L 284 410 L 220 346 L 189 252 L 189 189 L 220 94.5 L 284 31.5 L 346 0 L 441 0 L 504 31.5 L 567 94.5 L 598 189 L 598 252 L 567 346 L 504 410 L 441 441 L 346 441 M 346 410 L 284 378 L 252 346 L 220 252 L 220 189 L 252 94.5 L 284 63 L 346 31.5 L 441 31.5 L 504 63 L 536 94.5 L 567 189 L 567 252 L 536 346 L 504 378 L 441 410 L 346 410 M 583 819 L 425 630 M 583 819 L 614 788 L 425 630" />
<glyph unicode="&#xf4;" glyph-name="ocircumflex" horiz-adv-x="598" d="M 346 441 L 284 410 L 220 346 L 189 252 L 189 189 L 220 94.5 L 284 31.5 L 346 0 L 441 0 L 504 31.5 L 567 94.5 L 598 189 L 598 252 L 567 346 L 504 410 L 441 441 L 346 441 M 346 410 L 284 378 L 252 346 L 220 252 L 220 189 L 252 94.5 L 284 63 L 346 31.5 L 441 31.5 L 504 63 L 536 94.5 L 567 189 L 567 252 L 536 346 L 504 378 L 441 410 L 346 410 M 217 586 L 369 680 L 520 586 M 217 586 L 369 662 L 520 586" />
<glyph unicode="&#xf5;" glyph-name="otilde" horiz-adv-x="598" d="M 346 441 L 284 410 L 220 346 L 189 252 L 189 189 L 220 94.5 L 284 31.5 L 346 0 L 441 0 L 504 31.5 L 567 94.5 L 598 189 L 598 252 L 567 346 L 504 410 L 441 441 L 346 441 M 346 410 L 284 378 L 252 346 L 220 252 L 220 189 L 252 94.5 L 284 63 L 346 31.5 L 441 31.5 L 504 63 L 536 94.5 L 567 189 L 567 252 L 536 346 L 504 378 L 441 410 L 346 410 M 233 586 L 233 624 L 252 680 L 290 699 L 328 699 L 365 680 L 441 624 L 479 605 L 517 605 L 554 624 L 573 662 M 233 624 L 252 662 L 290 680 L 328 680 L 365 662 L 441 605 L 479 586 L 517 586 L 554 605 L 573 662 L 573 699" />
<glyph unicode="&#xf6;" glyph-name="odieresis" horiz-adv-x="598" d="M 346 441 L 284 410 L 220 346 L 189 252 L 189 189 L 220 94.5 L 284 31.5 L 346 0 L 441 0 L 504 31.5 L 567 94.5 L 598 189 L 598 252 L 567 346 L 504 410 L 441 441 L 346 441 M 346 410 L 284 378 L 252 346 L 220 252 L 220 189 L 252 94.5 L 284 63 L 346 31.5 L 441 31.5 L 504 63 L 536 94.5 L 567 189 L 567 252 L 536 346 L 504 378 L 441 410 L 346 410 M 268 756 L 237 724 L 237 693 L 268 662 L 300 662 L 331 693 L 331 724 L 300 756 L 268 756 M 268 724 L 268 693 L 300 693 L 300 724 L 268 724 M 519 756 L 488 724 L 488 693 L 519 662 L 551 662 L 582 693 L 582 724 L 551 756 L 519 756 M 519 724 L 519 693 L 551 693 L 551 724 L 519 724" />
<glyph unicode="&#xf7;" glyph-name="divide" horiz-adv-x="614" d="M 378 630 L 346 598 L 346 567 L 378 536 L 410 536 L 441 567 L 441 598 L 410 630 L 378 630 M 378 598 L 378 567 L 410 567 L 410 598 L 378 598 M 378 252 L 346 220 L 346 189 L 378 158 L 410 158 L 441 189 L 441 220 L 410 252 L 378 252 M 378 220 L 378 189 L 410 189 L 410 220 L 378 220 M 165 378 L 591 378" />
<glyph unicode="&#xf8;" glyph-name="oslash" horiz-adv-x="598" d="M 346 441 L 284 410 L 220 346 L 189 252 L 189 189 L 220 94.5 L 284 31.5 L 346 0 L 441 0 L 504 31.5 L 567 94.5 L 598 189 L 598 252 L 567 346 L 504 410 L 441 441 L 346 441 M 346 410 L 284 378 L 252 346 L 220 252 L 220 189 L 252 94.5 L 284 63 L 346 31.5 L 441 31.5 L 504 63 L 536 94.5 L 567 189 L 567 252 L 536 346 L 504 378 L 441 410 L 346 410 M 573 573 L 176 -132 L 198 -132 M 573 573 L 595 573 L 198 -132" />
<glyph unicode="&#xf9;" glyph-name="ugrave" horiz-adv-x="630" d="M 220 441 L 220 126 L 252 31.5 L 315 0 L 410 0 L 472 31.5 L 567 126 M 220 441 L 252 441 L 252 126 L 284 63 L 346 31.5 L 410 31.5 L 472 63 L 567 126 M 567 441 L 567 0 L 598 0 M 567 441 L 598 441 L 598 0 M 284 819 L 441 630 M 284 819 L 252 788 L 441 630" />
<glyph unicode="&#xfa;" glyph-name="uacute" horiz-adv-x="630" d="M 220 441 L 220 126 L 252 31.5 L 315 0 L 410 0 L 472 31.5 L 567 126 M 220 441 L 252 441 L 252 126 L 284 63 L 346 31.5 L 410 31.5 L 472 63 L 567 126 M 567 441 L 567 0 L 598 0 M 567 441 L 598 441 L 598 0 M 598 819 L 441 630 M 598 819 L 630 788 L 441 630" />
<glyph unicode="&#xfb;" glyph-name="ucircumflex" horiz-adv-x="630" d="M 220 441 L 220 126 L 252 31.5 L 315 0 L 410 0 L 472 31.5 L 567 126 M 220 441 L 252 441 L 252 126 L 284 63 L 346 31.5 L 410 31.5 L 472 63 L 567 126 M 567 441 L 567 0 L 598 0 M 567 441 L 598 441 L 598 0 M 265 586 L 416 680 L 567 586 M 265 586 L 416 662 L 567 586" />
<glyph unicode="&#xfc;" glyph-name="udieresis" horiz-adv-x="630" d="M 220 441 L 220 126 L 252 31.5 L 315 0 L 410 0 L 472 31.5 L 567 126 M 220 441 L 252 441 L 252 126 L 284 63 L 346 31.5 L 410 31.5 L 472 63 L 567 126 M 567 441 L 567 0 L 598 0 M 567 441 L 598 441 L 598 0 M 290 756 L 258 724 L 258 693 L 290 662 L 321 662 L 353 693 L 353 724 L 321 756 L 290 756 M 290 724 L 290 693 L 321 693 L 321 724 L 290 724 M 529 756 L 498 724 L 498 693 L 529 662 L 561 662 L 592 693 L 592 724 L 561 756 L 529 756 M 529 724 L 529 693 L 561 693 L 561 724 L 529 724" />
<glyph unicode="&#xfd;" glyph-name="yacute" horiz-adv-x="504" d="M 158 441 L 346 0 M 158 441 L 189 441 L 346 63 M 536 441 L 504 441 L 346 63 L 220 -220 M 536 441 L 346 0 L 252 -220 L 220 -220 M 536 819 L 378 630 M 536 819 L 567 788 L 378 630" />
<glyph unicode="&#xff;" glyph-name="ydieresis" horiz-adv-x="504" d="M 158 441 L 346 0 M 158 441 L 189 441 L 346 63 M 536 441 L 504 441 L 346 63 L 220 -220 M 536 441 L 346 0 L 252 -220 L 220 -220 M 222 756 L 190 724 L 190 693 L 222 662 L 253 662 L 285 693 L 285 724 L 253 756 L 222 756 M 222 724 L 222 693 L 253 693 L 253 724 L 222 724 M 471 756 L 440 724 L 440 693 L 471 662 L 503 662 L 534 693 L 534 724 L 503 756 L 471 756 M 471 724 L 471 693 L 503 693 L 503 724 L 471 724" />
<glyph unicode="&#x2013;" glyph-name="endash" horiz-adv-x="614" d="M 165 284 L 591 284" />
<glyph unicode="&#x2014;" glyph-name="emdash" horiz-adv-x="819" d="M 220 284 L 788 284" />
<glyph unicode="&#x201c;" glyph-name="quotedblleft" horiz-adv-x="425" d="M 198 709 L 269 539 M 198 709 L 184 680 L 269 539 M 340 709 L 411 539 M 340 709 L 326 680 L 411 539" />
<glyph unicode="&#x201d;" glyph-name="quotedblright" horiz-adv-x="425" d="M 227 624 L 156 454 M 227 624 L 241 595 L 156 454 M 369 624 L 298 454 M 369 624 L 383 595 L 298 454" />
<glyph unicode="&#x2039;" glyph-name="guilsinglleft" horiz-adv-x="302" d="M 290 454 L 88.2 227 L 290 0" />
<glyph unicode="&#x203a;" glyph-name="guilsinglright" horiz-adv-x="302" d="M 88.2 454 L 290 227 L 88.2 0" />
<glyph unicode="&#x20ac;" glyph-name="Euro" horiz-adv-x="662" d="M 662 504 L 630 567 L 567 630 L 504 662 L 378 662 L 315 630 L 252 567 L 220 504 L 189 410 L 189 252 L 220 158 L 252 94.5 L 315 31.5 L 378 0 L 504 0 L 567 31.5 L 630 94.5 L 662 158 M 662 504 L 630 504 L 598 567 L 567 598 L 504 630 L 378 630 L 315 598 L 252 504 L 220 410 L 220 252 L 252 158 L 315 63 L 378 31.5 L 504 31.5 L 567 63 L 598 94.5 L 630 158 L 662 158 M 110 236 L 394 236 M 110 331 L 394 331" />
<glyph unicode="&#x0178;" glyph-name="Ydieresis" horiz-adv-x="598" d="M 158 662 L 378 346 L 378 0 L 410 0 M 158 662 L 189 662 L 410 346 M 630 662 L 598 662 L 378 346 M 630 662 L 410 346 L 410 0 M 273 945 L 242 914 L 242 882 L 273 850 L 305 850 L 336 882 L 336 914 L 305 945 L 273 945 M 273 914 L 273 882 L 305 882 L 305 914 L 273 914 M 514 945 L 483 914 L 483 882 L 514 850 L 546 850 L 577 882 L 577 914 L 546 945 L 514 945 M 514 914 L 514 882 L 546 882 L 546 914 L 514 914" />
<glyph unicode="&#x102;" glyph-name="Abreve" horiz-adv-x="630" d="M 410 662 L 158 0 M 410 567 L 189 0 L 158 0 M 410 567 L 630 0 L 662 0 M 410 662 L 662 0 M 252 189 L 567 189 M 220 158 L 598 158 M298.86 982.168C298.86 982.168 367.051 880 411.281 880C455.511 880 523.702 982.168 523.702 982.168M298.86 982.168C298.86 982.168 369.384 900.692 411.281 900.692C453.178 900.692 523.702 982.168 523.702 982.168" />
<glyph unicode="&#x114;" glyph-name="Ebreve" horiz-adv-x="598" d="M 220 662 L 220 0 M 252 630 L 252 31.5 M 220 662 L 598 662 M 252 630 L 598 630 L 598 662 M 252 346 L 441 346 L 441 315 M 252 315 L 441 315 M 252 31.5 L 598 31.5 L 598 0 M 220 0 L 598 0 M288.86 982.168C288.86 982.168 357.051 880 401.281 880C445.511 880 513.702 982.168 513.702 982.168M288.86 982.168C288.86 982.168 359.384 900.692 401.281 900.692C443.178 900.692 513.702 982.168 513.702 982.168" />
<glyph unicode="&#x11E;" glyph-name="Gbreve" horiz-adv-x="662" d="M 662 504 L 630 567 L 567 630 L 504 662 L 378 662 L 315 630 L 252 567 L 220 504 L 189 410 L 189 252 L 220 158 L 252 94.5 L 315 31.5 L 378 0 L 504 0 L 567 31.5 L 630 94.5 L 662 158 L 662 284 L 504 284 M 662 504 L 630 504 L 598 567 L 567 598 L 504 630 L 378 630 L 315 598 L 284 567 L 252 504 L 220 410 L 220 252 L 252 158 L 284 94.5 L 315 63 L 378 31.5 L 504 31.5 L 567 63 L 598 94.5 L 630 158 L 630 252 L 504 252 L 504 284 M308.86 982.168C308.86 982.168 377.051 880 421.281 880C465.511 880 533.702 982.168 533.702 982.168M308.86 982.168C308.86 982.168 379.384 900.692 421.281 900.692C463.178 900.692 533.702 982.168 533.702 982.168" />
<glyph unicode="&#x12C;" glyph-name="Ibreve" horiz-adv-x="284" d="M 220 662 L 220 0 L 252 0 M 220 662 L 252 662 L 252 0 M188.86 982.168C188.86 982.168 257.051 880 301.281 880C345.511 880 413.702 982.168 413.702 982.168M188.86 982.168C188.86 982.168 259.384 900.692 301.281 900.692C343.178 900.692 413.702 982.168 413.702 982.168" />
<glyph unicode="&#x14E;" glyph-name="Obreve" horiz-adv-x="693" d="M 378 662 L 315 630 L 252 567 L 220 504 L 189 410 L 189 252 L 220 158 L 252 94.5 L 315 31.5 L 378 0 L 504 0 L 567 31.5 L 630 94.5 L 662 158 L 693 252 L 693 410 L 662 504 L 630 567 L 567 630 L 504 662 L 378 662 M 410 630 L 315 598 L 252 504 L 220 410 L 220 252 L 252 158 L 315 63 L 410 31.5 L 472 31.5 L 567 63 L 630 158 L 662 252 L 662 410 L 630 504 L 567 598 L 472 630 L 410 630 M318.86 982.168C318.86 982.168 387.051 880 431.281 880C475.511 880 543.702 982.168 543.702 982.168M318.86 982.168C318.86 982.168 389.384 900.692 431.281 900.692C473.178 900.692 543.702 982.168 543.702 982.168" />
<glyph unicode="&#x16C;" glyph-name="Ubreve" horiz-adv-x="693" d="M 220 662 L 220 189 L 252 94.5 L 315 31.5 L 410 0 L 472 0 L 567 31.5 L 630 94.5 L 662 189 L 662 662 M 220 662 L 252 662 L 252 189 L 284 94.5 L 315 63 L 410 31.5 L 472 31.5 L 567 63 L 598 94.5 L 630 189 L 630 662 L 662 662 M318.86 982.168C318.86 982.168 387.051 880 431.281 880C475.511 880 543.702 982.168 543.702 982.168M318.86 982.168C318.86 982.168 389.384 900.692 431.281 900.692C473.178 900.692 543.702 982.168 543.702 982.168" />
<glyph unicode="&#x103;" glyph-name="abreve" horiz-adv-x="630" d="M 567 441 L 567 0 L 598 0 M 567 441 L 598 441 L 598 0 M 567 346 L 504 410 L 441 441 L 346 441 L 284 410 L 220 346 L 189 252 L 189 189 L 220 94.5 L 284 31.5 L 346 0 L 441 0 L 504 31.5 L 567 94.5 M 567 346 L 441 410 L 346 410 L 284 378 L 252 346 L 220 252 L 220 189 L 252 94.5 L 284 63 L 346 31.5 L 441 31.5 L 567 94.5 M298.86 762.168C298.86 762.168 367.051 660 411.281 660C455.511 660 523.702 762.168 523.702 762.168M298.86 762.168C298.86 762.168 369.384 680.692 411.281 680.692C453.178 680.692 523.702 762.168 523.702 762.168" />
<glyph unicode="&#x115;" glyph-name="ebreve" horiz-adv-x="567" d="M 220 220 L 567 220 L 567 315 L 536 378 L 504 410 L 441 441 L 346 441 L 284 410 L 220 346 L 189 252 L 189 189 L 220 94.5 L 284 31.5 L 346 0 L 441 0 L 504 31.5 L 567 94.5 M 220 252 L 536 252 L 536 315 L 504 378 L 441 410 L 346 410 L 284 378 L 252 346 L 220 252 L 220 189 L 252 94.5 L 284 63 L 346 31.5 L 441 31.5 L 504 63 L 536 126 L 567 94.5 M278.86 762.168C278.86 762.168 347.051 660 391.281 660C435.511 660 503.702 762.168 503.702 762.168M278.86 762.168C278.86 762.168 349.384 680.692 391.281 680.692C433.178 680.692 503.702 762.168 503.702 762.168" />
<glyph unicode="&#x11F;" glyph-name="gbreve" horiz-adv-x="630" d="M 598 441 L 567 441 L 567 -31.5 L 536 -126 L 504 -158 L 441 -189 L 378 -189 L 315 -158 L 284 -126 L 220 -126 M 598 441 L 598 -31.5 L 567 -126 L 504 -189 L 441 -220 L 346 -220 L 284 -189 L 220 -126 M 567 346 L 504 410 L 441 441 L 346 441 L 284 410 L 220 346 L 189 252 L 189 189 L 220 94.5 L 284 31.5 L 346 0 L 441 0 L 504 31.5 L 567 94.5 M 567 346 L 441 410 L 346 410 L 284 378 L 252 346 L 220 252 L 220 189 L 252 94.5 L 284 63 L 346 31.5 L 441 31.5 L 567 94.5 M298.86 762.168C298.86 762.168 367.051 660 411.281 660C455.511 660 523.702 762.168 523.702 762.168M298.86 762.168C298.86 762.168 369.384 680.692 411.281 680.692C453.178 680.692 523.702 762.168 523.702 762.168" />
<glyph unicode="&#x12D;" glyph-name="ibreve" horiz-adv-x="284" d="M 220 441 L 220 0 L 252 0 M 220 441 L 252 441 L 252 0 M188.86 762.168C188.86 762.168 257.051 660 301.281 660C345.511 660 413.702 762.168 413.702 762.168M188.86 762.168C188.86 762.168 259.384 680.692 301.281 680.692C343.178 680.692 413.702 762.168 413.702 762.168" />
<glyph unicode="&#x14F;" glyph-name="obreve" horiz-adv-x="598" d="M 346 441 L 284 410 L 220 346 L 189 252 L 189 189 L 220 94.5 L 284 31.5 L 346 0 L 441 0 L 504 31.5 L 567 94.5 L 598 189 L 598 252 L 567 346 L 504 410 L 441 441 L 346 441 M 346 410 L 284 378 L 252 346 L 220 252 L 220 189 L 252 94.5 L 284 63 L 346 31.5 L 441 31.5 L 504 63 L 536 94.5 L 567 189 L 567 252 L 536 346 L 504 378 L 441 410 L 346 410 M288.86 762.168C288.86 762.168 357.051 660 401.281 660C445.511 660 513.702 762.168 513.702 762.168M288.86 762.168C288.86 762.168 359.384 680.692 401.281 680.692C443.178 680.692 513.702 762.168 513.702 762.168" />
<glyph unicode="&#x16D;" glyph-name="ubreve" horiz-adv-x="630" d="M 220 441 L 220 126 L 252 31.5 L 315 0 L 410 0 L 472 31.5 L 567 126 M 220 441 L 252 441 L 252 126 L 284 63 L 346 31.5 L 410 31.5 L 472 63 L 567 126 M 567 441 L 567 0 L 598 0 M 567 441 L 598 441 L 598 0 M298.86 762.168C298.86 762.168 367.051 660 411.281 660C455.511 660 523.702 762.168 523.702 762.168M298.86 762.168C298.86 762.168 369.384 680.692 411.281 680.692C453.178 680.692 523.702 762.168 523.702 762.168" />
<glyph unicode="&#xc7;" glyph-name="Ccedilla" horiz-adv-x="662" d="M662 504L630 567L567 630L504 662L378 662L315 630L252 567L220 504L189 410L189 252L220 158L252 94.5L315 31.5L378 -0L431.602 -0.381108C433.428 -51.9778 468.454 -44.7512 459.772 -81.4044C452.367 -108.468 427.107 -109.974 396.738 -110.124C480.72 -146.083 499.693 -75.2779 468.052 -33.4328C461.797 -25.1602 464.303 -10.1067 461.698 -0L504 -0L567 31.5L630 94.5L662 158M662 504L630 504L598 567L567 598L504 630L378 630L315 598L252 504L220 410L220 252L252 158L315 63L378 31.5L504 31.5L567 63L598 94.5L630 158L662 158" />
<glyph unicode="&#xC6;" glyph-name="AE" horiz-adv-x="850" d="M520 -0L520 662L898 662L898 630L552 630L552 31.5L898 31.5L898 -0L520 -0M552 315L741 315L741 346L552 346M310 158L518 158M332 189L519 189M516 569L231 -0L184 -0M516 662L184 -0" />
<glyph unicode="&#xe7;" glyph-name="ccedilla" horiz-adv-x="567" d="M567 346L504 410L441 441L346 441L284 410L220 346L189 252L189 189L220 94.5L284 31.5L346 -0L375.616 -0.381138C377.442 -51.9778 412.468 -44.7512 403.786 -81.4044C396.38 -108.468 371.12 -109.974 340.752 -110.124C424.734 -146.083 443.707 -75.2779 412.066 -33.4328C405.811 -25.1602 408.317 -10.1068 405.712 -3.04669e-05L441 -0L504 31.5L567 94.5M567 346L536 315L504 378L441 410L346 410L284 378L252 346L220 252L220 189L252 94.5L284 63L346 31.5L441 31.5L504 63L536 126L567 94.5" />
<glyph unicode="&#x131;" glyph-name="dotlessi" horiz-adv-x="284" d="M220 441L220 -0L252 -0M220 441L252 441L252 -0" />
<glyph unicode="&#x15F;" glyph-name="scedilla" horiz-adv-x="536" d="M347.933 -4.56521C349.759 -56.1619 384.785 -48.9353 376.103 -85.5885C368.697 -112.652 343.438 -114.158 313.069 -114.308C397.051 -150.267 416.024 -79.462 384.383 -37.6169C378.128 -29.3443 380.634 -14.2908 378.029 -4.1841M536 346L504 410L410 441L315 441L220 410L189 346L220 284L284 252L441 189L504 158M472 189L504 126L504 94.5L472 31.5M504 63L410 31.5L315 31.5L220 63M252 31.5L220 94.5L189 94.5M536 346L504 346L472 410M504 378L410 410L315 410L220 378M252 410L220 346L252 284M220 315L284 284L441 220L504 189L536 126L536 94.5L504 31.5L410 -0L315 -0L220 31.5L189 94.5" />
<glyph unicode="&#xdf;" glyph-name="germandbls" horiz-adv-x="630" d="M371.923 -5.00641e-05L484 -5.00641e-05C579.32 -5.00641e-05 662 60.2654 662 126C662 126 670.864 154.251 662 220C653.136 285.749 599.164 317.319 504 346C669.388 433.156 659.792 630.885 488 662C441.446 670.099 377.955 685.164 288.953 596.163C199.952 507.161 220 429.783 220 342L220 -79.8019L252.781 -79.8019L252.781 356.914C252.781 431.628 235.719 497.485 311.461 573.235C387.203 648.986 441.236 636.164 480.854 629.271C655.416 582.697 585.672 406.226 440.197 340.318C496.525 311.617 565.809 308.549 601.698 264.095C637.587 219.64 645.912 143.628 601.698 85.453C557.484 27.2781 456.598 31.8327 371.923 31.8327Z" />
<glyph unicode="&#xE6;" glyph-name="ae" horiz-adv-x="930" d="M598.265 220L914.351 220L914.351 315L883.351 378L851.351 410L788.351 441L693.351 441L631.351 410L580.241 365.354M561.252 90.259L631.351 31.5L693.351 -2.84217e-14L788.351 -2.84217e-14L851.351 31.5L914.351 94.5M597.522 252L883.351 252L883.351 315L851.351 378L788.351 410L693.351 410L631.351 378L589.009 338.89M597.411 92.5609L631.351 63L693.351 31.5L788.351 31.5L851.351 63L883.351 126L914.351 94.5M549.783 265.124L355.776 224.233L270.172 198.751L249.172 158L249.172 94.5L272.047 45.8741L343.547 20.6236L430.597 20.6236L486.218 46.8063L552.464 115.552M564.172 315L532.172 284L344.172 252L249.172 220L218.172 158L218.172 94.5L249.172 31.5L344.172 -0L438.172 -0L501.172 31.5L564.172 94.5M564.172 378L564.172 94.5M596.172 94.5L596.172 315L564.172 378L532.172 410L470.172 441L344.172 441L280.172 410L249.172 378L266.233 361.786L295.606 391.159L349.977 418.032L464.345 419.907L524.766 387.559L546.839 358.036" />
<glyph unicode="&#x15E;" glyph-name="Scedilla" horiz-adv-x="630" d="M399.933 -4.56521C401.759 -56.1619 436.785 -48.9353 428.103 -85.5885C420.697 -112.652 395.438 -114.158 365.069 -114.308C449.051 -150.267 468.024 -79.462 436.383 -37.6169C430.128 -29.3443 432.634 -14.2908 430.029 -4.1841M630 567L567 630L472 662L346 662L252 630L189 567L189 504L220 441L252 410L315 378L472 315L536 284L567 252L598 189L598 94.5L567 63L472 31.5L346 31.5L284 63L252 94.5L189 94.5M630 567L567 567L536 598L472 630L346 630L252 598L220 567L220 504L252 441L315 410L472 346L536 315L598 252L630 189L630 94.5L567 31.5L472 -0L346 -0L252 31.5L189 94.5" />
<glyph unicode="&#xa3;" glyph-name="sterling" horiz-adv-x="536" d="M354.658 662C276.539 662 220 611.417 220 471.119L220 274.723L168.723 274.723L168.723 242.945L220 242.945L220 -0L598 -0L598 38.4199L251.875 38.4199L251.875 242.945L452.389 242.945L452.389 274.723L251.875 274.723L251.875 454.855C251.875 578.869 287.85 623.58 356.902 623.58C425.954 623.58 460.537 567.623 460.537 474.008L492.264 474.008C492.264 607.696 432.778 662 354.658 662Z" />
<glyph unicode="&#x2D8;" glyph-name="breve" horiz-adv-x="693" d="M218.86 362.168C218.86 362.168 287.051 260 331.281 260C375.511 260 443.702 362.168 443.702 362.168M218.86 362.168C218.86 362.168 289.384 280.692 331.281 280.692C373.178 280.692 443.702 362.168 443.702 362.168" />
<glyph unicode="&#x130;" glyph-name="Idotaccent" horiz-adv-x="284" d="M218 882L187 850L187 818L218 787L250 787L282 818L282 850L250 882L218 882M218 850L218 818L250 818L250 850L218 850M220 662L220 -0L252 -0M220 662L252 662L252 -0" />
<glyph unicode="&#xb8;" glyph-name="cedilla" horiz-adv-x="662" d="M431.602 -0.381108C433.428 -51.9778 468.454 -44.7512 459.772 -81.4044C452.367 -108.468 427.107 -109.974 396.738 -110.124C480.72 -146.083 499.693 -75.2779 468.052 -33.4328C461.797 -25.1602 464.303 -10.1067 461.698 -0L431.602 -0.381108" />
</font>
</defs>
</svg>
