<?xml version="1.0" encoding="UTF-8" ?>
<!DOCTYPE svg PUBLIC "-//W3C//DTD SVG 1.1//EN" "http://www.w3.org/Graphics/SVG/1.1/DTD/svg11.dtd" >

<svg xmlns="http://www.w3.org/2000/svg" xmlns:xlink="http://www.w3.org/1999/xlink" version="1.1">

<metadata>
Font name: Hershey Script medium

Originally prepared in 2011 and converted to SVG fonts
in 2019 by Windell H. Oskay, www.evilmadscientist.com

Contents adapted from emergent.unpythonic.net/software/hershey
 by way of "Hershey Fonts in SVG" by Marty McGuire
 http://www.thingiverse.com/thing:6168
 
-------------------------------------------------------------------
The Hershey Fonts are a set of vector fonts with a liberal license.

USE RESTRICTION:
    This distribution of the Hershey Fonts may be used by anyone for
    any purpose, commercial or otherwise, providing that:
        1. The following acknowledgements must be distributed with
            the font data:
            - The Hershey Fonts were originally created by Dr.
                A. V. Hershey while working at the U. S.
                National Bureau of Standards.
            - The format of the Font data in this distribution
                was originally created by
                    James Hurt
                    Cognition, Inc.
                    900 Technology Park Drive
                    Billerica, MA 01821
                    (mit-eddie!ci-dandelion!hurt)
        2. The font data in this distribution may be converted into
            any other format *EXCEPT* the format distributed by
            the U.S. NTIS where each point is described
            in eight bytes as "xxx yyy:", where xxx and yyy are
            the coordinate values as ASCII numbers.

</metadata>
<defs>
<font id="HersheyScriptMed" horiz-adv-x="378" >
<font-face
font-family="Hershey Script medium"
units-per-em="1000"
ascent="800"
descent="-200"
cap-height="500"
x-height="300"
/>
<missing-glyph horiz-adv-x="378" />
<glyph unicode=" " glyph-name="space" horiz-adv-x="378" />
<glyph unicode="!" glyph-name="exclam" horiz-adv-x="346" d="M 353 662 L 321 630 L 258 252 M 353 630 L 258 252 M 353 662 L 384 630 L 258 252 M 195 63 L 164 31.5 L 195 0 L 227 31.5 L 195 63" />
<glyph unicode="&#x22;" glyph-name="quotedbl" horiz-adv-x="567" d="M 252 662 L 189 441 M 284 662 L 189 441 M 536 662 L 472 441 M 567 662 L 472 441" />
<glyph unicode="#" glyph-name="numbersign" horiz-adv-x="662" d="M 378 662 L 158 -220 M 567 662 L 346 -220 M 158 315 L 598 315 M 126 126 L 567 126" />
<glyph unicode="$" glyph-name="dollar" horiz-adv-x="662" d="M 410 788 L 158 -126 M 567 788 L 315 -126 M 598 536 L 567 504 L 598 472 L 630 504 L 630 536 L 598 598 L 567 630 L 472 662 L 346 662 L 252 630 L 189 567 L 189 504 L 220 441 L 252 410 L 472 284 L 536 220 M 189 504 L 252 441 L 472 315 L 504 284 L 536 220 L 536 126 L 504 63 L 472 31.5 L 378 0 L 252 0 L 158 31.5 L 126 63 L 94.5 126 L 94.5 158 L 126 189 L 158 158 L 126 126" />
<glyph unicode="%" glyph-name="percent" horiz-adv-x="756" d="M 693 662 L 126 0 M 284 662 L 346 598 L 346 536 L 315 472 L 252 441 L 189 441 L 126 504 L 126 567 L 158 630 L 220 662 L 284 662 L 346 630 L 441 598 L 536 598 L 630 630 L 693 662 M 567 220 L 504 189 L 472 126 L 472 63 L 536 0 L 598 0 L 662 31.5 L 693 94.5 L 693 158 L 630 220 L 567 220" />
<glyph unicode="&amp;" glyph-name="ampersand" horiz-adv-x="819" d="M 756 410 L 724 378 L 756 346 L 788 378 L 788 410 L 756 441 L 724 441 L 662 410 L 598 346 L 441 94.5 L 378 31.5 L 315 0 L 220 0 L 126 31.5 L 94.5 94.5 L 94.5 158 L 126 220 L 158 252 L 220 284 L 378 346 L 441 378 L 504 441 L 536 504 L 536 567 L 504 630 L 441 662 L 378 630 L 346 567 L 346 472 L 378 284 L 410 189 L 472 94.5 L 536 31.5 L 598 0 L 662 0 L 693 63 L 693 94.5 M 220 0 L 158 31.5 L 126 94.5 L 126 158 L 158 220 L 189 252 L 378 346 M 346 472 L 378 315 L 410 220 L 472 126 L 536 63 L 598 31.5 L 662 31.5 L 693 63" />
<glyph unicode="&apos;" glyph-name="quotesingle" horiz-adv-x="346" d="M 284 598 L 252 630 L 284 662 L 315 630 L 315 598 L 284 536 L 220 472" />
<glyph unicode="(" glyph-name="parenleft" horiz-adv-x="472" d="M 504 788 L 378 693 L 284 598 L 220 504 L 158 378 L 126 220 L 126 94.5 L 158 -63 L 189 -158 L 220 -220 M 378 693 L 284 567 L 220 441 L 189 346 L 158 189 L 158 31.5 L 189 -126 L 220 -220" />
<glyph unicode=")" glyph-name="parenright" horiz-adv-x="472" d="M 315 788 L 346 724 L 378 630 L 410 472 L 410 346 L 378 189 L 315 63 L 252 -31.5 L 158 -126 L 31.5 -220 M 315 788 L 346 693 L 378 536 L 378 378 L 346 220 L 315 126 L 252 0 L 158 -126" />
<glyph unicode="*" glyph-name="asterisk" horiz-adv-x="536" d="M 346 662 L 346 284 M 189 567 L 504 378 M 504 567 L 189 378" />
<glyph unicode="+" glyph-name="plus" horiz-adv-x="819" d="M 441 567 L 441 0 M 158 284 L 724 284" />
<glyph unicode="," glyph-name="comma" horiz-adv-x="346" d="M 126 0 L 94.5 31.5 L 126 63 L 158 31.5 L 158 0 L 126 -63 L 63 -126" />
<glyph unicode="-" glyph-name="hyphen" horiz-adv-x="819" d="M 158 284 L 724 284" />
<glyph unicode="." glyph-name="period" horiz-adv-x="346" d="M 126 63 L 94.5 31.5 L 126 0 L 158 31.5 L 126 63" />
<glyph unicode="/" glyph-name="slash" horiz-adv-x="693" d="M 788 788 L -31.5 -220" />
<glyph unicode="0" glyph-name="zero" horiz-adv-x="662" d="M 410 662 L 315 630 L 252 567 L 189 472 L 158 378 L 126 252 L 126 158 L 158 63 L 189 31.5 L 252 0 L 315 0 L 410 31.5 L 472 94.5 L 536 189 L 567 284 L 598 410 L 598 504 L 567 598 L 536 630 L 472 662 L 410 662 M 410 662 L 346 630 L 284 567 L 220 472 L 189 378 L 158 252 L 158 158 L 189 63 L 252 0 M 315 0 L 378 31.5 L 441 94.5 L 504 189 L 536 284 L 567 410 L 567 504 L 536 598 L 472 662" />
<glyph unicode="1" glyph-name="one" horiz-adv-x="662" d="M 410 536 L 252 0 M 472 662 L 284 0 M 472 662 L 378 567 L 284 504 L 220 472 M 441 567 L 315 504 L 220 472" />
<glyph unicode="2" glyph-name="two" horiz-adv-x="662" d="M 252 536 L 284 504 L 252 472 L 220 504 L 220 536 L 252 598 L 284 630 L 378 662 L 472 662 L 567 630 L 598 567 L 598 504 L 567 441 L 504 378 L 410 315 L 284 252 L 189 189 L 126 126 L 63 0 M 472 662 L 536 630 L 567 567 L 567 504 L 536 441 L 472 378 L 284 252 M 94.5 63 L 126 94.5 L 189 94.5 L 346 31.5 L 441 31.5 L 504 63 L 536 126 M 189 94.5 L 346 0 L 441 0 L 504 31.5 L 536 126" />
<glyph unicode="3" glyph-name="three" horiz-adv-x="662" d="M 252 536 L 284 504 L 252 472 L 220 504 L 220 536 L 252 598 L 284 630 L 378 662 L 472 662 L 567 630 L 598 567 L 598 504 L 567 441 L 472 378 L 378 346 M 472 662 L 536 630 L 567 567 L 567 504 L 536 441 L 472 378 M 315 346 L 378 346 L 472 315 L 504 284 L 536 220 L 536 126 L 504 63 L 472 31.5 L 378 0 L 252 0 L 158 31.5 L 126 63 L 94.5 126 L 94.5 158 L 126 189 L 158 158 L 126 126 M 378 346 L 441 315 L 472 284 L 504 220 L 504 126 L 472 63 L 441 31.5 L 378 0" />
<glyph unicode="4" glyph-name="four" horiz-adv-x="662" d="M 536 630 L 346 0 M 567 662 L 378 0 M 567 662 L 94.5 189 L 598 189" />
<glyph unicode="5" glyph-name="five" horiz-adv-x="662" d="M 315 662 L 158 346 M 315 662 L 630 662 M 315 630 L 472 630 L 630 662 M 158 346 L 189 378 L 284 410 L 378 410 L 472 378 L 504 346 L 536 284 L 536 189 L 504 94.5 L 441 31.5 L 346 0 L 252 0 L 158 31.5 L 126 63 L 94.5 126 L 94.5 158 L 126 189 L 158 158 L 126 126 M 378 410 L 441 378 L 472 346 L 504 284 L 504 189 L 472 94.5 L 410 31.5 L 346 0" />
<glyph unicode="6" glyph-name="six" horiz-adv-x="662" d="M 567 567 L 536 536 L 567 504 L 598 536 L 598 567 L 567 630 L 504 662 L 410 662 L 315 630 L 252 567 L 189 472 L 158 378 L 126 252 L 126 126 L 158 63 L 189 31.5 L 252 0 L 346 0 L 441 31.5 L 504 94.5 L 536 158 L 536 252 L 504 315 L 472 346 L 410 378 L 315 378 L 252 346 L 189 284 L 158 220 M 410 662 L 346 630 L 284 567 L 220 472 L 189 378 L 158 252 L 158 94.5 L 189 31.5 M 346 0 L 410 31.5 L 472 94.5 L 504 158 L 504 284 L 472 346" />
<glyph unicode="7" glyph-name="seven" horiz-adv-x="662" d="M 220 662 L 158 472 M 630 662 L 598 567 L 536 472 L 378 284 L 315 189 L 284 126 L 252 0 M 536 472 L 346 284 L 284 189 L 252 126 L 220 0 M 189 567 L 284 662 L 346 662 L 504 567 M 220 598 L 284 630 L 346 630 L 504 567 L 567 567 L 598 598 L 630 662" />
<glyph unicode="8" glyph-name="eight" horiz-adv-x="662" d="M 378 662 L 284 630 L 252 598 L 220 536 L 220 441 L 252 378 L 315 346 L 410 346 L 536 378 L 567 410 L 598 472 L 598 567 L 567 630 L 472 662 L 378 662 M 378 662 L 315 630 L 284 598 L 252 536 L 252 441 L 284 378 L 315 346 M 410 346 L 504 378 L 536 410 L 567 472 L 567 567 L 536 630 L 472 662 M 315 346 L 189 315 L 126 252 L 94.5 189 L 94.5 94.5 L 126 31.5 L 220 0 L 346 0 L 472 31.5 L 504 63 L 536 126 L 536 220 L 504 284 L 472 315 L 410 346 M 315 346 L 220 315 L 158 252 L 126 189 L 126 94.5 L 158 31.5 L 220 0 M 346 0 L 441 31.5 L 472 63 L 504 126 L 504 252 L 472 315" />
<glyph unicode="9" glyph-name="nine" horiz-adv-x="662" d="M 567 441 L 536 378 L 472 315 L 410 284 L 315 284 L 252 315 L 220 346 L 189 410 L 189 504 L 220 567 L 284 630 L 378 662 L 472 662 L 536 630 L 567 598 L 598 536 L 598 410 L 567 284 L 536 189 L 472 94.5 L 410 31.5 L 315 0 L 220 0 L 158 31.5 L 126 94.5 L 126 126 L 158 158 L 189 126 L 158 94.5 M 252 315 L 220 378 L 220 504 L 252 567 L 315 630 L 378 662 M 536 630 L 567 567 L 567 410 L 536 284 L 504 189 L 441 94.5 L 378 31.5 L 315 0" />
<glyph unicode=":" glyph-name="colon" horiz-adv-x="346" d="M 220 441 L 189 410 L 220 378 L 252 410 L 220 441 M 126 63 L 94.5 31.5 L 126 0 L 158 31.5" />
<glyph unicode=";" glyph-name="semicolon" horiz-adv-x="346" d="M 220 441 L 189 410 L 220 378 L 252 410 L 220 441 M 126 0 L 94.5 31.5 L 126 63 L 158 31.5 L 158 0 L 126 -63 L 63 -126" />
<glyph unicode="&#x3c;" glyph-name="less" horiz-adv-x="756" d="M 662 567 L 158 284 L 662 0" />
<glyph unicode="=" glyph-name="equal" horiz-adv-x="819" d="M 158 378 L 724 378 M 158 189 L 724 189" />
<glyph unicode="&#x3e;" glyph-name="greater" horiz-adv-x="756" d="M 158 567 L 662 284 L 158 0" />
<glyph unicode="?" glyph-name="question" horiz-adv-x="662" d="M 252 536 L 284 504 L 252 472 L 220 504 L 220 536 L 252 598 L 284 630 L 378 662 L 504 662 L 598 630 L 630 567 L 630 504 L 598 441 L 567 410 L 378 346 L 315 315 L 315 252 L 346 220 L 410 220 M 504 662 L 567 630 L 598 567 L 598 504 L 567 441 L 536 410 L 472 378 M 284 63 L 252 31.5 L 284 0 L 315 31.5 L 284 63" />
<glyph unicode="@" glyph-name="at" horiz-adv-x="850" d="M 598 410 L 567 472 L 504 504 L 410 504 L 346 472 L 315 441 L 284 346 L 284 252 L 315 189 L 378 158 L 472 158 L 536 189 L 567 252 M 410 504 L 346 441 L 315 346 L 315 252 L 346 189 L 378 158 M 598 504 L 567 252 L 567 189 L 630 158 L 693 158 L 756 220 L 788 315 L 788 378 L 756 472 L 724 536 L 662 598 L 598 630 L 504 662 L 410 662 L 315 630 L 252 598 L 189 536 L 158 472 L 126 378 L 126 284 L 158 189 L 189 126 L 252 63 L 315 31.5 L 410 0 L 504 0 L 598 31.5 L 662 63 L 693 94.5 M 630 504 L 598 252 L 598 189 L 630 158" />
<glyph unicode="A" glyph-name="A" horiz-adv-x="724" d="M 630 662 L 567 598 L 504 504 L 410 346 L 346 252 L 252 126 L 158 31.5 L 94.5 0 L 31.5 0 L 0 31.5 L 0 94.5 L 31.5 126 L 63 94.5 L 31.5 63 M 630 662 L 598 536 L 536 220 L 504 0 M 630 662 L 536 0 M 504 0 L 504 63 L 472 158 L 441 220 L 378 284 L 315 315 L 252 315 L 220 284 L 220 220 L 252 126 L 346 31.5 L 441 0 L 567 0 L 630 31.5" />
<glyph unicode="B" glyph-name="B" horiz-adv-x="756" d="M 504 630 L 472 598 L 441 536 L 378 378 L 315 189 L 284 126 L 220 31.5 L 158 0 M 472 598 L 441 504 L 378 252 L 346 158 L 315 94.5 L 252 31.5 L 158 0 L 94.5 0 L 63 31.5 L 63 94.5 L 94.5 126 L 126 94.5 L 94.5 63 M 315 472 L 284 410 L 252 378 L 189 378 L 158 410 L 158 472 L 189 536 L 252 598 L 315 630 L 410 662 L 598 662 L 662 630 L 693 567 L 693 504 L 662 441 L 598 410 L 472 378 L 410 378 M 598 662 L 630 630 L 662 567 L 662 504 L 630 441 L 598 410 M 472 378 L 567 346 L 598 315 L 630 252 L 630 158 L 598 63 L 567 31.5 L 504 0 L 441 0 L 410 31.5 L 410 94.5 L 441 189 M 472 378 L 536 346 L 567 315 L 598 252 L 598 158 L 567 63 L 504 0" />
<glyph unicode="C" glyph-name="C" horiz-adv-x="662" d="M 126 598 L 94.5 536 L 94.5 472 L 126 410 L 220 378 L 315 378 L 441 410 L 504 441 L 567 504 L 598 567 L 598 630 L 567 662 L 504 662 L 410 630 L 315 536 L 252 441 L 189 315 L 158 189 L 158 94.5 L 189 31.5 L 284 0 L 346 0 L 441 31.5 L 504 94.5 L 536 158 L 536 220 L 504 284 L 441 284 L 378 252 L 346 189 M 504 662 L 441 630 L 346 536 L 284 441 L 220 315 L 189 189 L 189 94.5 L 220 31.5 L 284 0" />
<glyph unicode="D" glyph-name="D" horiz-adv-x="724" d="M 504 630 L 472 598 L 441 536 L 378 378 L 315 189 L 284 126 L 220 31.5 L 158 0 M 472 598 L 441 504 L 378 252 L 346 158 L 315 94.5 L 252 31.5 L 158 0 L 94.5 0 L 63 31.5 L 63 94.5 L 94.5 126 L 158 126 L 220 94.5 L 284 31.5 L 346 0 L 441 0 L 504 31.5 L 567 94.5 L 630 220 L 662 378 L 662 472 L 630 567 L 567 630 L 504 662 L 346 662 L 252 630 L 189 567 L 158 504 L 158 441 L 189 410 L 252 410 L 284 441 L 315 504" />
<glyph unicode="E" glyph-name="E" horiz-adv-x="598" d="M 472 567 L 441 536 L 441 472 L 472 441 L 536 441 L 567 504 L 567 567 L 536 630 L 472 662 L 378 662 L 315 630 L 284 598 L 252 536 L 252 472 L 284 410 L 346 378 M 378 662 L 315 598 L 284 536 L 284 441 L 346 378 M 346 378 L 284 378 L 189 346 L 126 284 L 94.5 220 L 94.5 126 L 126 63 L 158 31.5 L 220 0 L 315 0 L 410 31.5 L 472 94.5 L 504 158 L 504 220 L 472 284 L 410 284 L 346 252 L 315 189 M 284 378 L 220 346 L 158 284 L 126 220 L 126 94.5 L 158 31.5" />
<glyph unicode="F" glyph-name="F" horiz-adv-x="662" d="M 536 598 L 504 536 L 441 378 L 378 189 L 346 126 L 284 31.5 L 220 0 M 346 472 L 315 410 L 252 378 L 189 378 L 158 441 L 158 504 L 189 567 L 252 630 L 346 662 L 662 662 L 567 630 L 536 598 L 504 504 L 441 252 L 410 158 L 378 94.5 L 315 31.5 L 220 0 L 158 0 L 94.5 31.5 L 63 63 L 63 94.5 L 94.5 126 L 126 94.5 L 94.5 63 M 410 662 L 536 630 L 567 630 M 284 252 L 315 284 L 378 315 L 504 315 L 567 346 L 630 441 L 567 220" />
<glyph unicode="G" glyph-name="G" horiz-adv-x="693" d="M 126 567 L 94.5 504 L 94.5 441 L 126 378 L 189 346 L 284 346 L 378 378 L 441 410 L 536 504 L 567 598 L 567 630 L 536 662 L 504 662 L 441 630 L 378 567 L 346 504 L 315 410 L 315 315 L 346 252 L 410 220 L 472 220 L 536 252 L 598 315 L 630 378 M 536 662 L 472 630 L 410 567 L 378 504 L 346 410 L 346 284 L 410 220 M 630 378 L 598 252 L 536 126 L 472 63 L 410 31.5 L 284 0 L 189 0 L 126 31.5 L 94.5 94.5 L 94.5 126 L 126 158 L 158 126 L 126 94.5 M 598 252 L 536 158 L 472 94.5 L 378 31.5 L 284 0" />
<glyph unicode="H" glyph-name="H" horiz-adv-x="756" d="M 220 472 L 189 504 L 189 567 L 220 630 L 315 662 L 410 662 L 315 315 L 252 126 L 220 63 L 189 31.5 L 126 0 L 63 0 L 31.5 31.5 L 31.5 94.5 L 63 126 L 94.5 94.5 L 63 63 M 410 662 L 315 378 L 284 284 L 220 126 L 189 63 L 126 0 M 158 220 L 189 252 L 252 284 L 536 378 L 598 410 L 693 472 L 756 536 L 788 598 L 788 630 L 756 662 L 724 662 L 662 630 L 598 536 L 567 472 L 504 284 L 472 158 L 472 63 L 536 0 L 567 0 L 630 31.5 L 693 94.5 M 724 662 L 662 598 L 598 472 L 536 284 L 504 158 L 504 63 L 536 0" />
<glyph unicode="I" glyph-name="I" horiz-adv-x="504" d="M 472 598 L 410 504 L 346 346 L 284 189 L 252 126 L 189 31.5 L 126 0 M 536 472 L 472 410 L 378 378 L 284 378 L 220 410 L 189 472 L 189 536 L 220 598 L 284 630 L 410 662 L 536 662 L 472 598 L 441 536 L 378 346 L 315 158 L 284 94.5 L 220 31.5 L 126 0 L 63 0 L 31.5 31.5 L 31.5 94.5 L 63 126 L 94.5 94.5 L 63 63" />
<glyph unicode="J" glyph-name="J" horiz-adv-x="536" d="M 536 662 L 472 598 L 410 504 L 346 346 L 252 63 L 189 -63 M 536 441 L 472 378 L 378 346 L 284 346 L 220 378 L 189 441 L 189 504 L 220 567 L 284 630 L 410 662 L 536 662 L 472 567 L 441 504 L 346 220 L 284 94.5 L 252 31.5 L 189 -63 L 158 -94.5 L 94.5 -126 L 63 -94.5 L 63 -31.5 L 94.5 31.5 L 158 94.5 L 220 126 L 315 158 L 441 189" />
<glyph unicode="K" glyph-name="K" horiz-adv-x="756" d="M 220 472 L 189 504 L 189 567 L 252 630 L 346 662 L 410 662 L 315 315 L 252 126 L 220 63 L 189 31.5 L 126 0 L 63 0 L 31.5 31.5 L 31.5 94.5 L 63 126 L 94.5 94.5 L 63 63 M 410 662 L 315 378 L 284 284 L 220 126 L 189 63 L 126 0 M 662 630 L 567 504 L 504 441 L 441 410 L 346 378 M 756 630 L 724 598 L 756 567 L 788 598 L 788 630 L 756 662 L 724 662 L 662 630 L 567 472 L 536 441 L 472 410 L 346 378 M 346 378 L 441 346 L 472 284 L 504 63 L 536 0 M 346 378 L 410 346 L 441 284 L 472 63 L 536 0 L 567 0 L 630 31.5 L 693 94.5" />
<glyph unicode="L" glyph-name="L" horiz-adv-x="567" d="M 158 567 L 126 504 L 126 441 L 158 378 L 220 346 L 315 346 L 410 378 L 472 410 L 567 504 L 598 598 L 598 630 L 567 662 L 536 662 L 472 630 L 441 598 L 378 504 L 252 189 L 220 126 L 158 31.5 L 94.5 0 M 441 598 L 378 472 L 315 252 L 284 158 L 252 94.5 L 189 31.5 L 94.5 0 L 31.5 0 L 0 31.5 L 0 94.5 L 31.5 126 L 94.5 126 L 158 94.5 L 252 31.5 L 315 0 L 410 0 L 472 31.5 L 536 94.5" />
<glyph unicode="M" glyph-name="M" horiz-adv-x="882" d="M 472 662 L 346 378 L 252 189 L 189 94.5 L 126 31.5 L 63 0 L 0 0 L -31.5 31.5 L -31.5 94.5 L 0 126 L 31.5 94.5 L 0 63 M 472 662 L 410 441 L 378 315 L 346 158 L 346 31.5 L 410 0 M 472 662 L 441 536 L 410 378 L 378 158 L 378 31.5 L 410 0 M 756 662 L 630 378 L 472 94.5 L 410 0 M 756 662 L 693 441 L 662 315 L 630 158 L 630 31.5 L 693 0 L 724 0 L 788 31.5 L 850 94.5 M 756 662 L 724 536 L 693 378 L 662 158 L 662 31.5 L 693 0" />
<glyph unicode="N" glyph-name="N" horiz-adv-x="724" d="M 378 662 L 346 536 L 284 346 L 220 189 L 189 126 L 126 31.5 L 63 0 L 0 0 L -31.5 31.5 L -31.5 94.5 L 0 126 L 31.5 94.5 L 0 63 M 378 662 L 378 504 L 410 158 L 441 0 M 378 662 L 410 504 L 441 158 L 441 0 M 819 630 L 788 598 L 819 567 L 850 598 L 850 630 L 819 662 L 756 662 L 693 630 L 630 536 L 598 472 L 536 315 L 472 126 L 441 0" />
<glyph unicode="O" glyph-name="O" horiz-adv-x="662" d="M 378 662 L 315 630 L 252 567 L 189 472 L 158 410 L 126 284 L 126 158 L 158 63 L 189 31.5 L 252 0 L 315 0 L 410 31.5 L 472 94.5 L 536 189 L 567 252 L 598 378 L 598 504 L 567 598 L 536 630 L 504 630 L 441 598 L 378 536 L 315 410 L 284 252 L 284 158 M 315 630 L 252 536 L 189 410 L 158 284 L 158 158 L 189 63 L 252 0" />
<glyph unicode="P" glyph-name="P" horiz-adv-x="724" d="M 504 630 L 472 598 L 441 536 L 378 378 L 315 189 L 284 126 L 220 31.5 L 158 0 M 472 598 L 441 504 L 378 252 L 346 158 L 315 94.5 L 252 31.5 L 158 0 L 94.5 0 L 63 31.5 L 63 94.5 L 94.5 126 L 126 94.5 L 94.5 63 M 315 472 L 284 410 L 252 378 L 189 378 L 158 410 L 158 472 L 189 536 L 252 598 L 315 630 L 410 662 L 536 662 L 630 630 L 662 598 L 693 536 L 693 441 L 662 378 L 630 346 L 536 315 L 472 315 L 410 346 M 536 662 L 598 630 L 630 598 L 662 536 L 662 441 L 630 378 L 598 346 L 536 315" />
<glyph unicode="Q" glyph-name="Q" horiz-adv-x="662" d="M 441 536 L 441 472 L 410 410 L 378 378 L 315 346 L 252 346 L 220 410 L 220 472 L 252 567 L 315 630 L 410 662 L 504 662 L 567 630 L 598 567 L 598 441 L 567 346 L 504 252 L 378 126 L 284 63 L 220 31.5 L 126 0 L 63 0 L 31.5 31.5 L 31.5 94.5 L 63 126 L 126 126 L 189 94.5 L 284 31.5 L 378 0 L 472 0 L 536 31.5 L 598 94.5 M 504 662 L 536 630 L 567 567 L 567 441 L 536 346 L 472 252 L 378 158 L 252 63 L 126 0" />
<glyph unicode="R" glyph-name="R" horiz-adv-x="756" d="M 504 630 L 472 598 L 441 536 L 378 378 L 315 189 L 284 126 L 220 31.5 L 158 0 M 472 598 L 441 504 L 378 252 L 346 158 L 315 94.5 L 252 31.5 L 158 0 L 94.5 0 L 63 31.5 L 63 94.5 L 94.5 126 L 126 94.5 L 94.5 63 M 315 472 L 284 410 L 252 378 L 189 378 L 158 410 L 158 472 L 189 536 L 252 598 L 315 630 L 410 662 L 567 662 L 662 630 L 693 567 L 693 504 L 662 441 L 630 410 L 536 378 L 410 378 M 567 662 L 630 630 L 662 567 L 662 504 L 630 441 L 598 410 L 536 378 M 410 378 L 504 346 L 536 284 L 567 63 L 598 0 M 410 378 L 472 346 L 504 284 L 536 63 L 598 0 L 630 0 L 693 31.5 L 756 94.5" />
<glyph unicode="S" glyph-name="S" horiz-adv-x="630" d="M 220 567 L 189 504 L 189 441 L 220 378 L 284 346 L 378 346 L 472 378 L 536 410 L 630 504 L 662 598 L 662 630 L 630 662 L 598 662 L 536 630 L 504 598 L 472 536 L 441 441 L 378 220 L 346 126 L 284 31.5 L 220 0 M 472 536 L 441 410 L 410 189 L 378 94.5 L 315 31.5 L 220 0 L 126 0 L 63 31.5 L 31.5 94.5 L 31.5 126 L 63 158 L 94.5 126 L 63 94.5" />
<glyph unicode="T" glyph-name="T" horiz-adv-x="567" d="M 536 598 L 504 536 L 441 378 L 378 189 L 346 126 L 284 31.5 L 220 0 M 346 472 L 315 410 L 252 378 L 189 378 L 158 441 L 158 504 L 189 567 L 252 630 L 346 662 L 630 662 L 567 630 L 536 598 L 504 504 L 441 252 L 410 158 L 378 94.5 L 315 31.5 L 220 0 L 158 0 L 94.5 31.5 L 63 63 L 63 94.5 L 94.5 126 L 126 94.5 L 94.5 63 M 410 662 L 536 630 L 567 630" />
<glyph unicode="U" glyph-name="U" horiz-adv-x="693" d="M 63 536 L 126 630 L 189 662 L 220 662 L 284 598 L 284 504 L 252 410 L 158 158 L 158 63 L 189 0 M 220 662 L 252 598 L 252 504 L 158 252 L 126 158 L 126 63 L 189 0 L 252 0 L 315 31.5 L 410 126 L 472 220 L 504 284 M 630 662 L 504 284 L 472 158 L 472 63 L 536 0 L 567 0 L 630 31.5 L 693 94.5 M 662 662 L 536 284 L 504 158 L 504 63 L 536 0" />
<glyph unicode="V" glyph-name="V" horiz-adv-x="662" d="M 63 536 L 126 630 L 189 662 L 220 662 L 284 598 L 284 504 L 252 378 L 189 158 L 189 63 L 220 0 M 220 662 L 252 598 L 252 504 L 189 284 L 158 158 L 158 63 L 220 0 L 252 0 L 346 31.5 L 441 126 L 504 220 L 567 346 L 598 441 L 630 567 L 630 630 L 598 662 L 567 662 L 536 630 L 504 567 L 504 472 L 536 410 L 598 346 L 662 315 L 724 315" />
<glyph unicode="W" glyph-name="W" horiz-adv-x="724" d="M 126 472 L 94.5 472 L 63 504 L 63 567 L 94.5 630 L 158 662 L 284 662 L 252 598 L 220 472 L 189 189 L 158 0 M 220 472 L 220 189 L 189 0 M 536 662 L 472 598 L 410 472 L 315 189 L 252 63 L 189 0 M 536 662 L 504 598 L 472 472 L 441 189 L 410 0 M 472 472 L 472 189 L 441 0 M 850 662 L 788 630 L 724 567 L 662 472 L 567 189 L 504 63 L 441 0" />
<glyph unicode="X" glyph-name="X" horiz-adv-x="630" d="M 284 504 L 252 472 L 189 472 L 158 504 L 158 567 L 189 630 L 252 662 L 315 662 L 378 630 L 410 567 L 410 472 L 378 346 L 315 189 L 252 94.5 L 189 31.5 L 94.5 0 L 31.5 0 L 0 31.5 L 0 94.5 L 31.5 126 L 63 94.5 L 31.5 63 M 315 662 L 346 630 L 378 567 L 378 472 L 346 346 L 284 189 L 220 94.5 L 158 31.5 L 94.5 0 M 693 630 L 662 598 L 693 567 L 724 598 L 724 630 L 693 662 L 630 662 L 567 630 L 504 567 L 441 472 L 378 346 L 346 189 L 346 94.5 L 378 31.5 L 410 0 L 441 0 L 504 31.5 L 567 94.5" />
<glyph unicode="Y" glyph-name="Y" horiz-adv-x="693" d="M 126 536 L 189 630 L 252 662 L 284 662 L 346 630 L 346 567 L 284 378 L 284 284 L 315 220 M 284 662 L 315 630 L 315 567 L 252 378 L 252 284 L 315 220 L 378 220 L 472 252 L 536 315 L 598 410 L 630 472 M 693 662 L 630 472 L 536 220 L 472 94.5 M 724 662 L 662 472 L 598 315 L 536 189 L 472 94.5 L 410 31.5 L 315 0 L 189 0 L 126 31.5 L 94.5 94.5 L 94.5 126 L 126 158 L 158 126 L 126 94.5" />
<glyph unicode="Z" glyph-name="Z" horiz-adv-x="662" d="M 630 598 L 598 536 L 536 378 L 504 284 L 472 220 L 410 126 L 346 63 L 284 31.5 L 189 0 M 410 472 L 378 410 L 315 378 L 252 378 L 220 441 L 220 504 L 252 567 L 315 630 L 410 662 L 724 662 L 662 630 L 630 598 L 598 504 L 567 378 L 504 189 L 441 94.5 L 346 31.5 L 189 0 L 63 0 L 31.5 31.5 L 31.5 94.5 L 63 126 L 126 126 L 189 94.5 L 284 31.5 L 346 0 L 441 0 L 536 31.5 L 598 94.5 M 504 662 L 630 630 L 662 630" />
<glyph unicode="[" glyph-name="bracketleft" horiz-adv-x="441" d="M 158 788 L 158 -220 M 189 788 L 189 -220 M 158 788 L 378 788 M 158 -220 L 378 -220" />
<glyph unicode="\" glyph-name="backslash" horiz-adv-x="441" d="M 31.5 662 L 472 -94.5" />
<glyph unicode="]" glyph-name="bracketright" horiz-adv-x="441" d="M 315 788 L 315 -220 M 346 788 L 346 -220 M 126 788 L 346 788 M 126 -220 L 346 -220" />
<glyph unicode="^" glyph-name="asciicircum" horiz-adv-x="693" d="M 126 220 L 378 378 L 630 220 M 126 220 L 378 346 L 630 220" />
<glyph unicode="_" glyph-name="underscore" horiz-adv-x="504" d="M 31.5 -63 L 536 -63" />
<glyph unicode="`" glyph-name="grave" horiz-adv-x="346" d="M 315 662 L 252 598 L 220 536 L 220 504 L 252 472 L 284 504 L 252 536" />
<glyph unicode="a" glyph-name="a" horiz-adv-x="504" d="M 346 189 L 315 252 L 252 284 L 189 284 L 126 252 L 94.5 220 L 63 158 L 63 94.5 L 94.5 31.5 L 158 0 L 220 0 L 284 31.5 L 315 94.5 M 189 284 L 126 220 L 94.5 158 L 94.5 63 L 158 0 M 378 284 L 315 94.5 L 315 31.5 L 378 0 L 441 31.5 L 472 63 L 536 158 M 410 284 L 346 94.5 L 346 31.5 L 378 0" />
<glyph unicode="b" glyph-name="b" horiz-adv-x="441" d="M 31.5 158 L 94.5 252 L 158 378 M 252 662 L 63 94.5 L 63 31.5 L 126 0 L 158 0 L 220 31.5 L 284 94.5 L 315 189 L 315 284 L 346 158 L 378 126 L 410 126 L 472 158 M 284 662 L 94.5 94.5 L 94.5 31.5 L 126 0" />
<glyph unicode="c" glyph-name="c" horiz-adv-x="378" d="M 284 252 L 252 220 L 284 220 L 284 252 L 252 284 L 189 284 L 126 252 L 94.5 220 L 63 158 L 63 94.5 L 94.5 31.5 L 158 0 L 252 0 L 346 63 L 410 158 M 189 284 L 126 220 L 94.5 158 L 94.5 63 L 158 0" />
<glyph unicode="d" glyph-name="d" horiz-adv-x="504" d="M 346 189 L 315 252 L 252 284 L 189 284 L 126 252 L 94.5 220 L 63 158 L 63 94.5 L 94.5 31.5 L 158 0 L 220 0 L 284 31.5 L 315 94.5 M 189 284 L 126 220 L 94.5 158 L 94.5 63 L 158 0 M 504 662 L 315 94.5 L 315 31.5 L 378 0 L 441 31.5 L 472 63 L 536 158 M 536 662 L 346 94.5 L 346 31.5 L 378 0" />
<glyph unicode="e" glyph-name="e" horiz-adv-x="378" d="M 126 63 L 189 94.5 L 220 126 L 252 189 L 252 252 L 220 284 L 189 284 L 126 252 L 94.5 220 L 63 158 L 63 94.5 L 94.5 31.5 L 158 0 L 252 0 L 346 63 L 410 158 M 189 284 L 126 220 L 94.5 158 L 94.5 63 L 158 0" />
<glyph unicode="f" glyph-name="f" horiz-adv-x="284" d="M 126 284 L 220 378 L 284 472 L 315 567 L 315 630 L 284 662 L 220 630 L 189 567 L -94.5 -284 L -94.5 -346 L -63 -378 L 0 -346 L 31.5 -252 L 63 31.5 L 94.5 0 L 158 0 L 220 31.5 L 252 63 L 315 158 M 189 567 L 158 410 L 126 284 L 31.5 0 L -31.5 -158 L -94.5 -284" />
<glyph unicode="g" glyph-name="g" horiz-adv-x="504" d="M 346 189 L 315 252 L 252 284 L 189 284 L 126 252 L 94.5 220 L 63 158 L 63 94.5 L 94.5 31.5 L 158 0 L 220 0 L 284 31.5 L 315 94.5 M 189 284 L 126 220 L 94.5 158 L 94.5 63 L 158 0 M 378 284 L 189 -284 M 410 284 L 315 0 L 252 -158 L 189 -284 L 158 -346 L 94.5 -378 L 63 -346 L 63 -284 L 94.5 -189 L 158 -126 L 252 -63 L 378 0 L 472 63 L 536 158" />
<glyph unicode="h" glyph-name="h" horiz-adv-x="472" d="M 31.5 158 L 94.5 252 L 158 378 M 252 662 L 31.5 0 M 284 662 L 63 0 M 126 189 L 189 252 L 252 284 L 284 284 L 346 252 L 346 189 L 315 94.5 L 315 31.5 L 346 0 M 284 284 L 315 252 L 315 189 L 284 94.5 L 284 31.5 L 346 0 L 410 31.5 L 441 63 L 504 158" />
<glyph unicode="i" glyph-name="i" horiz-adv-x="252" d="M 189 472 L 158 441 L 189 410 L 220 441 L 189 472 M 126 284 L 63 94.5 L 63 31.5 L 126 0 L 189 31.5 L 220 63 L 284 158 M 158 284 L 94.5 94.5 L 94.5 31.5 L 126 0" />
<glyph unicode="j" glyph-name="j" horiz-adv-x="252" d="M 189 472 L 158 441 L 189 410 L 220 441 L 189 472 M 126 284 L -63 -284 M 158 284 L 63 0 L 0 -158 L -63 -284 L -94.5 -346 L -158 -378 L -189 -346 L -189 -284 L -158 -189 L -94.5 -126 L 0 -63 L 126 0 L 220 63 L 284 158" />
<glyph unicode="k" glyph-name="k" horiz-adv-x="441" d="M 31.5 158 L 94.5 252 L 158 378 M 252 662 L 31.5 0 M 284 662 L 63 0 M 315 284 L 315 252 L 346 252 L 315 284 L 284 284 L 220 220 L 126 189 M 126 189 L 220 158 L 252 31.5 L 284 0 M 126 189 L 189 158 L 220 31.5 L 284 0 L 315 0 L 410 63 L 472 158" />
<glyph unicode="l" glyph-name="l" horiz-adv-x="252" d="M 31.5 158 L 94.5 252 L 158 378 M 252 662 L 63 94.5 L 63 31.5 L 126 0 L 189 31.5 L 220 63 L 284 158 M 284 662 L 94.5 94.5 L 94.5 31.5 L 126 0" />
<glyph unicode="m" glyph-name="m" horiz-adv-x="788" d="M 31.5 158 L 94.5 252 L 158 284 L 220 252 L 220 189 L 158 0 M 158 284 L 189 252 L 189 189 L 126 0 M 220 189 L 284 252 L 346 284 L 378 284 L 441 252 L 441 189 L 378 0 M 378 284 L 410 252 L 410 189 L 346 0 M 441 189 L 504 252 L 567 284 L 598 284 L 662 252 L 662 189 L 630 94.5 L 630 31.5 L 662 0 M 598 284 L 630 252 L 630 189 L 598 94.5 L 598 31.5 L 662 0 L 724 31.5 L 756 63 L 819 158" />
<glyph unicode="n" glyph-name="n" horiz-adv-x="567" d="M 31.5 158 L 94.5 252 L 158 284 L 220 252 L 220 189 L 158 0 M 158 284 L 189 252 L 189 189 L 126 0 M 220 189 L 284 252 L 346 284 L 378 284 L 441 252 L 441 189 L 410 94.5 L 410 31.5 L 441 0 M 378 284 L 410 252 L 410 189 L 378 94.5 L 378 31.5 L 441 0 L 504 31.5 L 536 63 L 598 158" />
<glyph unicode="o" glyph-name="o" horiz-adv-x="441" d="M 252 284 L 189 284 L 126 252 L 94.5 220 L 63 158 L 63 94.5 L 94.5 31.5 L 158 0 L 220 0 L 284 31.5 L 315 63 L 346 126 L 346 189 L 315 252 L 252 284 L 220 252 L 220 189 L 252 126 L 315 94.5 L 378 94.5 L 441 126 L 472 158 M 189 284 L 126 220 L 94.5 158 L 94.5 63 L 158 0" />
<glyph unicode="p" glyph-name="p" horiz-adv-x="472" d="M 31.5 158 L 94.5 252 L 158 378 M 189 472 L -94.5 -378 M 220 472 L -63 -378 M 126 189 L 189 252 L 252 284 L 284 284 L 346 252 L 346 189 L 315 94.5 L 315 31.5 L 346 0 M 284 284 L 315 252 L 315 189 L 284 94.5 L 284 31.5 L 346 0 L 410 31.5 L 441 63 L 504 158" />
<glyph unicode="q" glyph-name="q" horiz-adv-x="504" d="M 346 189 L 315 252 L 252 284 L 189 284 L 126 252 L 94.5 220 L 63 158 L 63 94.5 L 94.5 31.5 L 158 0 L 220 0 L 284 31.5 M 189 284 L 126 220 L 94.5 158 L 94.5 63 L 158 0 M 378 284 L 189 -284 L 189 -346 L 220 -378 L 284 -346 L 315 -252 L 315 0 L 378 0 L 472 63 L 536 158 M 410 284 L 315 0 L 252 -158 L 189 -284" />
<glyph unicode="r" glyph-name="r" horiz-adv-x="441" d="M 31.5 158 L 94.5 252 L 158 284 L 220 252 L 220 189 L 158 0 M 158 284 L 189 252 L 189 189 L 126 0 M 220 189 L 284 252 L 346 284 L 378 284 L 346 189 M 346 284 L 346 189 L 378 126 L 410 126 L 472 158" />
<glyph unicode="s" glyph-name="s" horiz-adv-x="378" d="M 31.5 158 L 94.5 252 L 126 315 L 126 252 L 220 189 L 252 126 L 252 63 L 220 31.5 L 158 0 M 126 252 L 189 189 L 220 126 L 220 63 L 158 0 M 31.5 31.5 L 94.5 0 L 252 0 L 346 63 L 410 158" />
<glyph unicode="t" glyph-name="t" horiz-adv-x="252" d="M 31.5 158 L 94.5 252 L 158 378 M 252 662 L 63 94.5 L 63 31.5 L 126 0 L 189 31.5 L 220 63 L 284 158 M 284 662 L 94.5 94.5 L 94.5 31.5 L 126 0 M 94.5 410 L 284 410" />
<glyph unicode="u" glyph-name="u" horiz-adv-x="504" d="M 126 284 L 63 94.5 L 63 31.5 L 126 0 L 158 0 L 220 31.5 L 284 94.5 L 346 189 M 158 284 L 94.5 94.5 L 94.5 31.5 L 126 0 M 378 284 L 315 94.5 L 315 31.5 L 378 0 L 441 31.5 L 472 63 L 536 158 M 410 284 L 346 94.5 L 346 31.5 L 378 0" />
<glyph unicode="v" glyph-name="v" horiz-adv-x="472" d="M 126 284 L 94.5 220 L 63 126 L 63 31.5 L 126 0 L 158 0 L 252 31.5 L 315 94.5 L 346 189 L 346 284 M 158 284 L 126 220 L 94.5 126 L 94.5 31.5 L 126 0 M 346 284 L 378 158 L 410 126 L 441 126 L 504 158" />
<glyph unicode="w" glyph-name="w" horiz-adv-x="662" d="M 158 284 L 94.5 220 L 63 126 L 63 31.5 L 126 0 L 158 0 L 220 31.5 L 284 94.5 M 189 284 L 126 220 L 94.5 126 L 94.5 31.5 L 126 0 M 346 284 L 284 94.5 L 284 31.5 L 346 0 L 378 0 L 441 31.5 L 504 94.5 L 536 189 L 536 284 M 378 284 L 315 94.5 L 315 31.5 L 346 0 M 536 284 L 567 158 L 598 126 L 630 126 L 693 158" />
<glyph unicode="x" glyph-name="x" horiz-adv-x="504" d="M 31.5 158 L 94.5 252 L 158 284 L 220 284 L 252 252 L 252 189 L 220 94.5 L 189 31.5 L 126 0 L 94.5 0 L 63 31.5 L 63 63 L 94.5 63 L 63 31.5 M 441 252 L 410 220 L 441 220 L 441 252 L 410 284 L 378 284 L 315 252 L 284 189 L 252 94.5 L 252 31.5 L 284 0 L 378 0 L 472 63 L 536 158 M 252 252 L 284 189 M 315 252 L 252 189 M 220 94.5 L 252 31.5 M 252 94.5 L 189 31.5" />
<glyph unicode="y" glyph-name="y" horiz-adv-x="504" d="M 126 284 L 63 94.5 L 63 31.5 L 126 0 L 158 0 L 220 31.5 L 284 94.5 L 346 189 M 158 284 L 94.5 94.5 L 94.5 31.5 L 126 0 M 378 284 L 189 -284 M 410 284 L 315 0 L 252 -158 L 189 -284 L 158 -346 L 94.5 -378 L 63 -346 L 63 -284 L 94.5 -189 L 158 -126 L 252 -63 L 378 0 L 472 63 L 536 158" />
<glyph unicode="z" glyph-name="z" horiz-adv-x="410" d="M 31.5 158 L 94.5 252 L 158 284 L 220 284 L 284 252 L 284 158 L 252 94.5 L 158 31.5 L 94.5 0 M 220 284 L 252 252 L 252 158 L 220 94.5 L 158 31.5 M 94.5 0 L 158 -31.5 L 189 -94.5 L 189 -189 L 158 -284 L 94.5 -346 L 31.5 -378 L 0 -346 L 0 -284 L 31.5 -189 L 126 -94.5 L 220 -31.5 L 346 63 L 441 158 M 94.5 0 L 126 -31.5 L 158 -94.5 L 158 -189 L 126 -284 L 94.5 -346" />
<glyph unicode="{" glyph-name="braceleft" horiz-adv-x="441" d="M 315 788 L 252 756 L 220 724 L 189 662 L 189 598 L 220 536 L 252 504 L 284 441 L 284 378 L 220 315 M 252 756 L 220 693 L 220 630 L 252 567 L 284 536 L 315 472 L 315 410 L 284 346 L 158 284 L 284 220 L 315 158 L 315 94.5 L 284 31.5 L 252 0 L 220 -63 L 220 -126 L 252 -189 M 220 252 L 284 189 L 284 126 L 252 63 L 220 31.5 L 189 -31.5 L 189 -94.5 L 220 -158 L 252 -189 L 315 -220" />
<glyph unicode="|" glyph-name="bar" horiz-adv-x="252" d="M 158 788 L 158 -220" />
<glyph unicode="}" glyph-name="braceright" horiz-adv-x="441" d="M 189 788 L 252 756 L 284 724 L 315 662 L 315 598 L 284 536 L 252 504 L 220 441 L 220 378 L 284 315 M 252 756 L 284 693 L 284 630 L 252 567 L 220 536 L 189 472 L 189 410 L 220 346 L 346 284 L 220 220 L 189 158 L 189 94.5 L 220 31.5 L 252 0 L 284 -63 L 284 -126 L 252 -189 M 284 252 L 220 189 L 220 126 L 252 63 L 284 31.5 L 315 -31.5 L 315 -94.5 L 284 -158 L 252 -189 L 189 -220" />
<glyph unicode="~" glyph-name="asciitilde" horiz-adv-x="756" d="M 126 189 L 126 252 L 158 346 L 220 378 L 284 378 L 346 346 L 472 252 L 536 220 L 598 220 L 662 252 L 693 315 M 126 252 L 158 315 L 220 346 L 284 346 L 346 315 L 472 220 L 536 189 L 598 189 L 662 220 L 693 315 L 693 378" />
<glyph unicode="&#xa0;" glyph-name="nbspace" horiz-adv-x="378" />
<glyph unicode="&#xa1;" glyph-name="exclamdown" horiz-adv-x="346" d="M 126 0 L 158 31.5 L 220 410 M 126 31.5 L 220 410 M 126 0 L 94.5 31.5 L 220 410 M 284 598 L 315 630 L 284 662 L 252 630 L 284 598" />
<glyph unicode="&#xa2;" glyph-name="cent" horiz-adv-x="151" d="M 284 252 L 252 220 L 284 220 L 284 252 L 252 284 L 189 284 L 126 252 L 94.5 220 L 63 158 L 63 94.5 L 94.5 31.5 L 158 0 L 252 0 L 346 63 L 410 158 M 189 284 L 126 220 L 94.5 158 L 94.5 63 L 158 0 M 227 472 L 227 -132" />
<glyph unicode="&#xa3;" glyph-name="sterling" horiz-adv-x="567" d="M 158 236 L 441 236 M 158 567 L 126 504 L 126 441 L 158 378 L 220 346 L 315 346 L 410 378 L 472 410 L 567 504 L 598 598 L 598 630 L 567 662 L 536 662 L 472 630 L 441 598 L 378 504 L 252 189 L 220 126 L 158 31.5 L 94.5 0 M 441 598 L 378 472 L 315 252 L 284 158 L 252 94.5 L 189 31.5 L 94.5 0 L 31.5 0 L 0 31.5 L 0 94.5 L 31.5 126 L 94.5 126 L 158 94.5 L 252 31.5 L 315 0 L 410 0 L 472 31.5 L 536 94.5" />
<glyph unicode="&#xa5;" glyph-name="yen" horiz-adv-x="598" d="M 158 662 L 378 346 L 378 0 L 410 0 M 158 662 L 189 662 L 410 346 M 630 662 L 598 662 L 378 346 M 630 662 L 410 346 L 410 0 M 227 189 L 567 189 M 227 265 L 567 265" />
<glyph unicode="&#xa6;" glyph-name="brokenbar" horiz-adv-x="75.6" d="M 217 236 L 217 -66.1 M 217 709 L 217 406" />
<glyph unicode="&#xa8;" glyph-name="dieresis" horiz-adv-x="567" d=" M 225 536 L 193 504 L 225 472 L 256 504 L 225 536 M 468 536 L 437 504 L 468 472 L 500 504 L 468 536" />
<glyph unicode="&#xa9;" glyph-name="copyright" horiz-adv-x="693" d="M 378 662 L 315 630 L 252 567 L 220 504 L 189 410 L 189 252 L 220 158 L 252 94.5 L 315 31.5 L 378 0 L 504 0 L 567 31.5 L 630 94.5 L 662 158 L 693 252 L 693 410 L 662 504 L 630 567 L 567 630 L 504 662 L 378 662 M 410 630 L 315 598 L 252 504 L 220 410 L 220 252 L 252 158 L 315 63 L 410 31.5 L 472 31.5 L 567 63 L 630 158 L 662 252 L 662 410 L 630 504 L 567 598 L 472 630 L 410 630 M 551 410 L 536 441 L 504 472 L 472 488 L 410 488 L 378 472 L 346 441 L 331 410 L 315 362 L 315 284 L 331 236 L 346 205 L 378 173 L 410 158 L 472 158 L 504 173 L 536 205 L 551 236 M 551 410 L 536 410 L 520 441 L 504 457 L 472 472 L 410 472 L 378 457 L 346 410 L 331 362 L 331 284 L 346 236 L 378 189 L 410 173 L 472 173 L 504 189 L 520 205 L 536 236 L 551 236" />
<glyph unicode="&#xaa;" glyph-name="ordfeminine" horiz-adv-x="252" d="M 299 724 L 284 756 L 252 772 L 220 772 L 189 756 L 173 740 L 158 709 L 158 677 L 173 646 L 205 630 L 236 630 L 268 646 L 284 677 M 220 772 L 189 740 L 173 709 L 173 662 L 205 630 M 315 772 L 284 677 L 284 646 L 315 630 L 346 646 L 362 662 L 394 709 M 331 772 L 299 677 L 299 646 L 315 630" />
<glyph unicode="&#xab;" glyph-name="guillemotleft" horiz-adv-x="454" d="M 265 454 L 63 227 L 265 0 M 391 454 L 189 227 L 391 0" />
<glyph unicode="&#xae;" glyph-name="registered" horiz-adv-x="693" d="M 378 662 L 315 630 L 252 567 L 220 504 L 189 410 L 189 252 L 220 158 L 252 94.5 L 315 31.5 L 378 0 L 504 0 L 567 31.5 L 630 94.5 L 662 158 L 693 252 L 693 410 L 662 504 L 630 567 L 567 630 L 504 662 L 378 662 M 410 630 L 315 598 L 252 504 L 220 410 L 220 252 L 252 158 L 315 63 L 410 31.5 L 472 31.5 L 567 63 L 630 158 L 662 252 L 662 410 L 630 504 L 567 598 L 472 630 L 410 630 M 331 488 L 331 158 M 346 472 L 346 158 L 331 158 M 331 488 L 457 488 L 504 472 L 520 457 L 536 425 L 536 378 L 520 346 L 504 331 L 457 315 L 346 315 M 346 472 L 457 472 L 504 457 L 520 425 L 520 378 L 504 346 L 457 331 L 346 331 M 425 315 L 520 158 L 536 158 M 441 315 L 536 158" />
<glyph unicode="&#xb0;" glyph-name="degree" horiz-adv-x="238" d="M 236 765 L 217 756 L 198 737 L 180 709 L 170 690 L 161 652 L 161 614 L 170 586 L 180 576 L 198 567 L 217 567 L 246 576 L 265 595 L 284 624 L 293 643 L 302 680 L 302 718 L 293 747 L 284 756 L 274 756 L 255 747 L 236 728 L 217 690 L 208 643 L 208 614 M 217 756 L 198 728 L 180 690 L 170 652 L 170 614 L 180 586 L 198 567" />
<glyph unicode="&#xb1;" glyph-name="plusminus" horiz-adv-x="655" d="M 580 37.8 L 1033.2 37.8 M 806 643 L 806 189 M 580 416 L 1033.2 416" />
<glyph unicode="&#xb2;" glyph-name="twosuperior" horiz-adv-x="331" d="M 252 898 L 268 882 L 252 866 L 236 882 L 236 898 L 252 929 L 268 945 L 315 961 L 362 961 L 410 945 L 425 914 L 425 882 L 410 850 L 378 819 L 331 788 L 268 756 L 220 724 L 189 693 L 158 630 M 362 961 L 394 945 L 410 914 L 410 882 L 394 850 L 362 819 L 268 756 M 173 662 L 189 677 L 220 677 L 299 646 L 346 646 L 378 662 L 394 693 M 220 677 L 299 630 L 346 630 L 378 646 L 394 693" />
<glyph unicode="&#xb3;" glyph-name="threesuperior" horiz-adv-x="331" d="M 252 898 L 268 882 L 252 866 L 236 882 L 236 898 L 252 929 L 268 945 L 315 961 L 362 961 L 410 945 L 425 914 L 425 882 L 410 850 L 362 819 L 315 803 M 362 961 L 394 945 L 410 914 L 410 882 L 394 850 L 362 819 M 284 803 L 315 803 L 362 788 L 378 772 L 394 740 L 394 693 L 378 662 L 362 646 L 315 630 L 252 630 L 205 646 L 189 662 L 173 693 L 173 709 L 189 724 L 205 709 L 189 693 M 315 803 L 346 788 L 362 772 L 378 740 L 378 693 L 362 662 L 346 646 L 315 630" />
<glyph unicode="&#xb4;" glyph-name="acute" horiz-adv-x="378" d=" M 378 693 L 220 504 M 378 693 L 410 662 L 220 504" />
<glyph unicode="&#xb7;" glyph-name="middot" horiz-adv-x="374" d="M 265 378 L 227 340 L 265 302 L 302 340 L 265 378" />
<glyph unicode="&#xb9;" glyph-name="onesuperior" horiz-adv-x="331" d="M 331 898 L 252 630 M 362 961 L 268 630 M 362 961 L 315 914 L 268 882 L 236 866 M 346 914 L 284 882 L 236 866" />
<glyph unicode="&#xba;" glyph-name="ordmasculine" horiz-adv-x="238" d="M 236 765 L 217 756 L 198 737 L 180 709 L 170 690 L 161 652 L 161 614 L 170 586 L 180 576 L 198 567 L 217 567 L 246 576 L 265 595 L 284 624 L 293 643 L 302 680 L 302 718 L 293 747 L 284 756 L 274 756 L 255 747 L 236 728 L 217 690 L 208 643 L 208 614 M 217 756 L 198 728 L 180 690 L 170 652 L 170 614 L 180 586 L 198 567" />
<glyph unicode="&#xbb;" glyph-name="guillemotright" horiz-adv-x="454" d="M 63 454 L 265 227 L 63 0 M 189 454 L 391 227 L 189 0" />
<glyph unicode="&#xbc;" glyph-name="onequarter" horiz-adv-x="714" d="M 246 699 L 151 378 M 284 775 L 170 378 M 284 775 L 227 718 L 170 680 L 132 662 M 265 718 L 189 680 L 132 662 M 819 788 L 0 -220 M 813 378 L 699 0 M 832 397 L 718 0 M 832 397 L 548 113 L 850 113" />
<glyph unicode="&#xbd;" glyph-name="onehalf" horiz-adv-x="714" d="M 246 699 L 151 378 M 284 775 L 170 378 M 284 775 L 227 718 L 170 680 L 132 662 M 265 718 L 189 680 L 132 662 M 819 788 L 0 -220 M 643 321 L 662 302 L 643 284 L 624 302 L 624 321 L 643 359 L 662 378 L 718 397 L 775 397 L 832 378 L 850 340 L 850 302 L 832 265 L 794 227 L 737 189 L 662 151 L 605 113 L 567 75.6 L 529 0 M 775 397 L 813 378 L 832 340 L 832 302 L 813 265 L 775 227 L 662 151 M 548 37.8 L 567 56.7 L 605 56.7 L 699 18.9 L 756 18.9 L 794 37.8 L 813 75.6 M 605 56.7 L 699 0 L 756 0 L 794 18.9 L 813 75.6" />
<glyph unicode="&#xbe;" glyph-name="threequarters" horiz-adv-x="714" d="M 151 699 L 170 680 L 151 662 L 132 680 L 132 699 L 151 737 L 170 756 L 227 775 L 284 775 L 340 756 L 359 718 L 359 680 L 340 643 L 284 605 L 227 586 M 284 775 L 321 756 L 340 718 L 340 680 L 321 643 L 284 605 M 189 586 L 227 586 L 284 567 L 302 548 L 321 510 L 321 454 L 302 416 L 284 397 L 227 378 L 151 378 L 94.5 397 L 75.6 416 L 56.7 454 L 56.7 472 L 75.6 491 L 94.5 472 L 75.6 454 M 227 586 L 265 567 L 284 548 L 302 510 L 302 454 L 284 416 L 265 397 L 227 378 M 819 788 L 0 -220 M 813 378 L 699 0 M 832 397 L 718 0 M 832 397 L 548 113 L 850 113" />
<glyph unicode="&#xbf;" glyph-name="questiondown" horiz-adv-x="662" d="M 472 126 L 441 158 L 472 189 L 504 158 L 504 126 L 472 63 L 441 31.5 L 346 0 L 220 0 L 126 31.5 L 94.5 94.5 L 94.5 158 L 126 220 L 158 252 L 346 315 L 410 346 L 410 410 L 378 441 L 315 441 M 220 0 L 158 31.5 L 126 94.5 L 126 158 L 158 220 L 189 252 L 252 284 M 441 598 L 472 630 L 441 662 L 410 630 L 441 598" />
<glyph unicode="&#xc0;" glyph-name="Agrave" horiz-adv-x="724" d="M 630 662 L 567 598 L 504 504 L 410 346 L 346 252 L 252 126 L 158 31.5 L 94.5 0 L 31.5 0 L 0 31.5 L 0 94.5 L 31.5 126 L 63 94.5 L 31.5 63 M 630 662 L 598 536 L 536 220 L 504 0 M 630 662 L 536 0 M 504 0 L 504 63 L 472 158 L 441 220 L 378 284 L 315 315 L 252 315 L 220 284 L 220 220 L 252 126 L 346 31.5 L 441 0 L 567 0 L 630 31.5 M 394 1039.5 L 551 850 M 394 1039.5 L 362 1008.0 L 551 850" />
<glyph unicode="&#xc1;" glyph-name="Aacute" horiz-adv-x="724" d="M 630 662 L 567 598 L 504 504 L 410 346 L 346 252 L 252 126 L 158 31.5 L 94.5 0 L 31.5 0 L 0 31.5 L 0 94.5 L 31.5 126 L 63 94.5 L 31.5 63 M 630 662 L 598 536 L 536 220 L 504 0 M 630 662 L 536 0 M 504 0 L 504 63 L 472 158 L 441 220 L 378 284 L 315 315 L 252 315 L 220 284 L 220 220 L 252 126 L 346 31.5 L 441 0 L 567 0 L 630 31.5 M 740 1071.0 L 583 882 M 740 1071.0 L 772 1039.5 L 583 882" />
<glyph unicode="&#xc2;" glyph-name="Acircumflex" horiz-adv-x="724" d="M 630 662 L 567 598 L 504 504 L 410 346 L 346 252 L 252 126 L 158 31.5 L 94.5 0 L 31.5 0 L 0 31.5 L 0 94.5 L 31.5 126 L 63 94.5 L 31.5 63 M 630 662 L 598 536 L 536 220 L 504 0 M 630 662 L 536 0 M 504 0 L 504 63 L 472 158 L 441 220 L 378 284 L 315 315 L 252 315 L 220 284 L 220 220 L 252 126 L 346 31.5 L 441 0 L 567 0 L 630 31.5 M 387 756 L 539 850 L 690 756 M 387 756 L 539 832 L 690 756" />
<glyph unicode="&#xc3;" glyph-name="Atilde" horiz-adv-x="724" d="M 630 662 L 567 598 L 504 504 L 410 346 L 346 252 L 252 126 L 158 31.5 L 94.5 0 L 31.5 0 L 0 31.5 L 0 94.5 L 31.5 126 L 63 94.5 L 31.5 63 M 630 662 L 598 536 L 536 220 L 504 0 M 630 662 L 536 0 M 504 0 L 504 63 L 472 158 L 441 220 L 378 284 L 315 315 L 252 315 L 220 284 L 220 220 L 252 126 L 346 31.5 L 441 0 L 567 0 L 630 31.5 M 420 803 L 420 835 L 436 882 L 467 898 L 499 898 L 530 882 L 593 835 L 625 819 L 656 819 L 688 835 L 704 866 M 420 835 L 436 866 L 467 882 L 499 882 L 530 866 L 593 819 L 625 803 L 656 803 L 688 819 L 704 866 L 704 898" />
<glyph unicode="&#xc4;" glyph-name="Adieresis" horiz-adv-x="724" d="M 630 662 L 567 598 L 504 504 L 410 346 L 346 252 L 252 126 L 158 31.5 L 94.5 0 L 31.5 0 L 0 31.5 L 0 94.5 L 31.5 126 L 63 94.5 L 31.5 63 M 630 662 L 598 536 L 536 220 L 504 0 M 630 662 L 536 0 M 504 0 L 504 63 L 472 158 L 441 220 L 378 284 L 315 315 L 252 315 L 220 284 L 220 220 L 252 126 L 346 31.5 L 441 0 L 567 0 L 630 31.5 M 421 914 L 390 882 L 421 850 L 453 882 L 421 914 M 681 914 L 650 882 L 681 850 L 713 882 L 681 914" />
<glyph unicode="&#xc5;" glyph-name="Aring" horiz-adv-x="630" d="M 410 662 L 158 0 M 410 567 L 189 0 L 158 0 M 410 567 L 630 0 L 662 0 M 410 662 L 662 0 M 252 189 L 567 189 M 220 158 L 598 158 M 378 1048.9 L 359 1039.5 L 340 1020.6 L 331 1001.7 L 321 973 L 321 926 L 331 898 L 340 879 L 359 860 L 378 850 L 416 850 L 435 860 L 454 879 L 463 898 L 472 926 L 472 973 L 463 1001.7 L 454 1020.6 L 435 1039.5 L 416 1048.9 L 378 1048.9 M 387 1039.5 L 359 1030.0 L 340 1001.7 L 331 973 L 331 926 L 340 898 L 359 869 L 387 860 L 406 860 L 435 869 L 454 898 L 463 926 L 463 973 L 454 1001.7 L 435 1030.0 L 406 1039.5 L 387 1039.5" />
<glyph unicode="&#xc8;" glyph-name="Egrave" horiz-adv-x="598" d="M 472 567 L 441 536 L 441 472 L 472 441 L 536 441 L 567 504 L 567 567 L 536 630 L 472 662 L 378 662 L 315 630 L 284 598 L 252 536 L 252 472 L 284 410 L 346 378 M 378 662 L 315 598 L 284 536 L 284 441 L 346 378 M 346 378 L 284 378 L 189 346 L 126 284 L 94.5 220 L 94.5 126 L 126 63 L 158 31.5 L 220 0 L 315 0 L 410 31.5 L 472 94.5 L 504 158 L 504 220 L 472 284 L 410 284 L 346 252 L 315 189 M 284 378 L 220 346 L 158 284 L 126 220 L 126 94.5 L 158 31.5 M 331 1039.5 L 488 850 M 331 1039.5 L 299 1008.0 L 488 850" />
<glyph unicode="&#xc9;" glyph-name="Eacute" horiz-adv-x="598" d="M 472 567 L 441 536 L 441 472 L 472 441 L 536 441 L 567 504 L 567 567 L 536 630 L 472 662 L 378 662 L 315 630 L 284 598 L 252 536 L 252 472 L 284 410 L 346 378 M 378 662 L 315 598 L 284 536 L 284 441 L 346 378 M 346 378 L 284 378 L 189 346 L 126 284 L 94.5 220 L 94.5 126 L 126 63 L 158 31.5 L 220 0 L 315 0 L 410 31.5 L 472 94.5 L 504 158 L 504 220 L 472 284 L 410 284 L 346 252 L 315 189 M 284 378 L 220 346 L 158 284 L 126 220 L 126 94.5 L 158 31.5 M 677 1071.0 L 520 882 M 677 1071.0 L 709 1039.5 L 520 882" />
<glyph unicode="&#xca;" glyph-name="Ecircumflex" horiz-adv-x="598" d="M 472 567 L 441 536 L 441 472 L 472 441 L 536 441 L 567 504 L 567 567 L 536 630 L 472 662 L 378 662 L 315 630 L 284 598 L 252 536 L 252 472 L 284 410 L 346 378 M 378 662 L 315 598 L 284 536 L 284 441 L 346 378 M 346 378 L 284 378 L 189 346 L 126 284 L 94.5 220 L 94.5 126 L 126 63 L 158 31.5 L 220 0 L 315 0 L 410 31.5 L 472 94.5 L 504 158 L 504 220 L 472 284 L 410 284 L 346 252 L 315 189 M 284 378 L 220 346 L 158 284 L 126 220 L 126 94.5 L 158 31.5 M 274 756 L 425 850 L 576 756 M 274 756 L 425 832 L 576 756" />
<glyph unicode="&#xcb;" glyph-name="Edieresis" horiz-adv-x="598" d="M 472 567 L 441 536 L 441 472 L 472 441 L 536 441 L 567 504 L 567 567 L 536 630 L 472 662 L 378 662 L 315 630 L 284 598 L 252 536 L 252 472 L 284 410 L 346 378 M 378 662 L 315 598 L 284 536 L 284 441 L 346 378 M 346 378 L 284 378 L 189 346 L 126 284 L 94.5 220 L 94.5 126 L 126 63 L 158 31.5 L 220 0 L 315 0 L 410 31.5 L 472 94.5 L 504 158 L 504 220 L 472 284 L 410 284 L 346 252 L 315 189 M 284 378 L 220 346 L 158 284 L 126 220 L 126 94.5 L 158 31.5 M 368 914 L 337 882 L 368 850 L 400 882 L 368 914 M 608 914 L 577 882 L 608 850 L 640 882 L 608 914" />
<glyph unicode="&#xcc;" glyph-name="Igrave" horiz-adv-x="504" d="M 472 598 L 410 504 L 346 346 L 284 189 L 252 126 L 189 31.5 L 126 0 M 536 472 L 472 410 L 378 378 L 284 378 L 220 410 L 189 472 L 189 536 L 220 598 L 284 630 L 410 662 L 536 662 L 472 598 L 441 536 L 378 346 L 315 158 L 284 94.5 L 220 31.5 L 126 0 L 63 0 L 31.5 31.5 L 31.5 94.5 L 63 126 L 94.5 94.5 L 63 63 M 284 1039.5 L 441 850 M 284 1039.5 L 252 1008.0 L 441 850" />
<glyph unicode="&#xcd;" glyph-name="Iacute" horiz-adv-x="504" d="M 472 598 L 410 504 L 346 346 L 284 189 L 252 126 L 189 31.5 L 126 0 M 536 472 L 472 410 L 378 378 L 284 378 L 220 410 L 189 472 L 189 536 L 220 598 L 284 630 L 410 662 L 536 662 L 472 598 L 441 536 L 378 346 L 315 158 L 284 94.5 L 220 31.5 L 126 0 L 63 0 L 31.5 31.5 L 31.5 94.5 L 63 126 L 94.5 94.5 L 63 63 M 630 1071.0 L 472 882 M 630 1071.0 L 662 1039.5 L 472 882" />
<glyph unicode="&#xce;" glyph-name="Icircumflex" horiz-adv-x="504" d="M 472 598 L 410 504 L 346 346 L 284 189 L 252 126 L 189 31.5 L 126 0 M 536 472 L 472 410 L 378 378 L 284 378 L 220 410 L 189 472 L 189 536 L 220 598 L 284 630 L 410 662 L 536 662 L 472 598 L 441 536 L 378 346 L 315 158 L 284 94.5 L 220 31.5 L 126 0 L 63 0 L 31.5 31.5 L 31.5 94.5 L 63 126 L 94.5 94.5 L 63 63 M 246 756 L 397 850 L 548 756 M 246 756 L 397 832 L 548 756" />
<glyph unicode="&#xcf;" glyph-name="Idieresis" horiz-adv-x="504" d="M 472 598 L 410 504 L 346 346 L 284 189 L 252 126 L 189 31.5 L 126 0 M 536 472 L 472 410 L 378 378 L 284 378 L 220 410 L 189 472 L 189 536 L 220 598 L 284 630 L 410 662 L 536 662 L 472 598 L 441 536 L 378 346 L 315 158 L 284 94.5 L 220 31.5 L 126 0 L 63 0 L 31.5 31.5 L 31.5 94.5 L 63 126 L 94.5 94.5 L 63 63 M 317 914 L 286 882 L 317 850 L 349 882 L 317 914 M 565 914 L 533 882 L 565 850 L 596 882 L 565 914" />
<glyph unicode="&#xd0;" glyph-name="Eth" horiz-adv-x="724" d="M 158 236 L 441 236 M 504 630 L 472 598 L 441 536 L 378 378 L 315 189 L 284 126 L 220 31.5 L 158 0 M 472 598 L 441 504 L 378 252 L 346 158 L 315 94.5 L 252 31.5 L 158 0 L 94.5 0 L 63 31.5 L 63 94.5 L 94.5 126 L 158 126 L 220 94.5 L 284 31.5 L 346 0 L 441 0 L 504 31.5 L 567 94.5 L 630 220 L 662 378 L 662 472 L 630 567 L 567 630 L 504 662 L 346 662 L 252 630 L 189 567 L 158 504 L 158 441 L 189 410 L 252 410 L 284 441 L 315 504" />
<glyph unicode="&#xd1;" glyph-name="Ntilde" horiz-adv-x="724" d="M 378 662 L 346 536 L 284 346 L 220 189 L 189 126 L 126 31.5 L 63 0 L 0 0 L -31.5 31.5 L -31.5 94.5 L 0 126 L 31.5 94.5 L 0 63 M 378 662 L 378 504 L 410 158 L 441 0 M 378 662 L 410 504 L 441 158 L 441 0 M 819 630 L 788 598 L 819 567 L 850 598 L 850 630 L 819 662 L 756 662 L 693 630 L 630 536 L 598 472 L 536 315 L 472 126 L 441 0 M 404 803 L 404 835 L 420 882 L 452 898 L 483 898 L 515 882 L 578 835 L 609 819 L 641 819 L 672 835 L 688 866 M 404 835 L 420 866 L 452 882 L 483 882 L 515 866 L 578 819 L 609 803 L 641 803 L 672 819 L 688 866 L 688 898" />
<glyph unicode="&#xd2;" glyph-name="Ograve" horiz-adv-x="662" d="M 378 662 L 315 630 L 252 567 L 189 472 L 158 410 L 126 284 L 126 158 L 158 63 L 189 31.5 L 252 0 L 315 0 L 410 31.5 L 472 94.5 L 536 189 L 567 252 L 598 378 L 598 504 L 567 598 L 536 630 L 504 630 L 441 598 L 378 536 L 315 410 L 284 252 L 284 158 M 315 630 L 252 536 L 189 410 L 158 284 L 158 158 L 189 63 L 252 0 M 362 1039.5 L 520 850 M 362 1039.5 L 331 1008.0 L 520 850" />
<glyph unicode="&#xd3;" glyph-name="Oacute" horiz-adv-x="662" d="M 378 662 L 315 630 L 252 567 L 189 472 L 158 410 L 126 284 L 126 158 L 158 63 L 189 31.5 L 252 0 L 315 0 L 410 31.5 L 472 94.5 L 536 189 L 567 252 L 598 378 L 598 504 L 567 598 L 536 630 L 504 630 L 441 598 L 378 536 L 315 410 L 284 252 L 284 158 M 315 630 L 252 536 L 189 410 L 158 284 L 158 158 L 189 63 L 252 0 M 709 1071.0 L 551 882 M 709 1071.0 L 740 1039.5 L 551 882" />
<glyph unicode="&#xd4;" glyph-name="Ocircumflex" horiz-adv-x="662" d="M 378 662 L 315 630 L 252 567 L 189 472 L 158 410 L 126 284 L 126 158 L 158 63 L 189 31.5 L 252 0 L 315 0 L 410 31.5 L 472 94.5 L 536 189 L 567 252 L 598 378 L 598 504 L 567 598 L 536 630 L 504 630 L 441 598 L 378 536 L 315 410 L 284 252 L 284 158 M 315 630 L 252 536 L 189 410 L 158 284 L 158 158 L 189 63 L 252 0 M 293 756 L 444 850 L 595 756 M 293 756 L 444 832 L 595 756" />
<glyph unicode="&#xd5;" glyph-name="Otilde" horiz-adv-x="662" d="M 378 662 L 315 630 L 252 567 L 189 472 L 158 410 L 126 284 L 126 158 L 158 63 L 189 31.5 L 252 0 L 315 0 L 410 31.5 L 472 94.5 L 536 189 L 567 252 L 598 378 L 598 504 L 567 598 L 536 630 L 504 630 L 441 598 L 378 536 L 315 410 L 284 252 L 284 158 M 315 630 L 252 536 L 189 410 L 158 284 L 158 158 L 189 63 L 252 0 M 284 803 L 284 835 L 299 882 L 331 898 L 362 898 L 394 882 L 457 835 L 488 819 L 520 819 L 551 835 L 567 866 M 284 835 L 299 866 L 331 882 L 362 882 L 394 866 L 457 819 L 488 803 L 520 803 L 551 819 L 567 866 L 567 898" />
<glyph unicode="&#xd6;" glyph-name="Odieresis" horiz-adv-x="662" d="M 378 662 L 315 630 L 252 567 L 189 472 L 158 410 L 126 284 L 126 158 L 158 63 L 189 31.5 L 252 0 L 315 0 L 410 31.5 L 472 94.5 L 536 189 L 567 252 L 598 378 L 598 504 L 567 598 L 536 630 L 504 630 L 441 598 L 378 536 L 315 410 L 284 252 L 284 158 M 315 630 L 252 536 L 189 410 L 158 284 L 158 158 L 189 63 L 252 0 M 395 914 L 363 882 L 395 850 L 426 882 L 395 914 M 645 914 L 613 882 L 645 850 L 676 882 L 645 914" />
<glyph unicode="&#xd7;" glyph-name="multiply" horiz-adv-x="567" d="M 189 441 L 536 0 L 567 0 M 189 441 L 220 441 L 567 0 M 567 441 L 536 441 L 189 0 M 567 441 L 220 0 L 189 0" />
<glyph unicode="&#xd8;" glyph-name="Oslash" horiz-adv-x="662" d="M 378 662 L 315 630 L 252 567 L 189 472 L 158 410 L 126 284 L 126 158 L 158 63 L 189 31.5 L 252 0 L 315 0 L 410 31.5 L 472 94.5 L 536 189 L 567 252 L 598 378 L 598 504 L 567 598 L 536 630 L 504 630 L 441 598 L 378 536 L 315 410 L 284 252 L 284 158 M 315 630 L 252 536 L 189 410 L 158 284 L 158 158 L 189 63 L 252 0 M 680 658 L 90.7 -68" />
<glyph unicode="&#xd9;" glyph-name="Ugrave" horiz-adv-x="693" d="M 63 536 L 126 630 L 189 662 L 220 662 L 284 598 L 284 504 L 252 410 L 158 158 L 158 63 L 189 0 M 220 662 L 252 598 L 252 504 L 158 252 L 126 158 L 126 63 L 189 0 L 252 0 L 315 31.5 L 410 126 L 472 220 L 504 284 M 630 662 L 504 284 L 472 158 L 472 63 L 536 0 L 567 0 L 630 31.5 L 693 94.5 M 662 662 L 536 284 L 504 158 L 504 63 L 536 0 M 378 1039.5 L 536 850 M 378 1039.5 L 346 1008.0 L 536 850" />
<glyph unicode="&#xda;" glyph-name="Uacute" horiz-adv-x="693" d="M 63 536 L 126 630 L 189 662 L 220 662 L 284 598 L 284 504 L 252 410 L 158 158 L 158 63 L 189 0 M 220 662 L 252 598 L 252 504 L 158 252 L 126 158 L 126 63 L 189 0 L 252 0 L 315 31.5 L 410 126 L 472 220 L 504 284 M 630 662 L 504 284 L 472 158 L 472 63 L 536 0 L 567 0 L 630 31.5 L 693 94.5 M 662 662 L 536 284 L 504 158 L 504 63 L 536 0 M 724 1071.0 L 567 882 M 724 1071.0 L 756 1039.5 L 567 882" />
<glyph unicode="&#xdb;" glyph-name="Ucircumflex" horiz-adv-x="693" d="M 63 536 L 126 630 L 189 662 L 220 662 L 284 598 L 284 504 L 252 410 L 158 158 L 158 63 L 189 0 M 220 662 L 252 598 L 252 504 L 158 252 L 126 158 L 126 63 L 189 0 L 252 0 L 315 31.5 L 410 126 L 472 220 L 504 284 M 630 662 L 504 284 L 472 158 L 472 63 L 536 0 L 567 0 L 630 31.5 L 693 94.5 M 662 662 L 536 284 L 504 158 L 504 63 L 536 0 M 302 756 L 454 850 L 605 756 M 302 756 L 454 832 L 605 756" />
<glyph unicode="&#xdc;" glyph-name="Udieresis" horiz-adv-x="693" d="M 63 536 L 126 630 L 189 662 L 220 662 L 284 598 L 284 504 L 252 410 L 158 158 L 158 63 L 189 0 M 220 662 L 252 598 L 252 504 L 158 252 L 126 158 L 126 63 L 189 0 L 252 0 L 315 31.5 L 410 126 L 472 220 L 504 284 M 630 662 L 504 284 L 472 158 L 472 63 L 536 0 L 567 0 L 630 31.5 L 693 94.5 M 662 662 L 536 284 L 504 158 L 504 63 L 536 0 M 415 914 L 383 882 L 415 850 L 446 882 L 415 914 M 656 914 L 625 882 L 656 850 L 688 882 L 656 914" />
<glyph unicode="&#xdd;" glyph-name="Yacute" horiz-adv-x="693" d="M 126 536 L 189 630 L 252 662 L 284 662 L 346 630 L 346 567 L 284 378 L 284 284 L 315 220 M 284 662 L 315 630 L 315 567 L 252 378 L 252 284 L 315 220 L 378 220 L 472 252 L 536 315 L 598 410 L 630 472 M 693 662 L 630 472 L 536 220 L 472 94.5 M 724 662 L 662 472 L 598 315 L 536 189 L 472 94.5 L 410 31.5 L 315 0 L 189 0 L 126 31.5 L 94.5 94.5 L 94.5 126 L 126 158 L 158 126 L 126 94.5 M 724 1071.0 L 567 882 M 724 1071.0 L 756 1039.5 L 567 882" />
<glyph unicode="&#xe0;" glyph-name="agrave" horiz-adv-x="504" d="M 346 189 L 315 252 L 252 284 L 189 284 L 126 252 L 94.5 220 L 63 158 L 63 94.5 L 94.5 31.5 L 158 0 L 220 0 L 284 31.5 L 315 94.5 M 189 284 L 126 220 L 94.5 158 L 94.5 63 L 158 0 M 378 284 L 315 94.5 L 315 31.5 L 378 0 L 441 31.5 L 472 63 L 536 158 M 410 284 L 346 94.5 L 346 31.5 L 378 0 M 158 693 L 315 504 M 158 693 L 126 662 L 315 504" />
<glyph unicode="&#xe1;" glyph-name="aacute" horiz-adv-x="504" d="M 346 189 L 315 252 L 252 284 L 189 284 L 126 252 L 94.5 220 L 63 158 L 63 94.5 L 94.5 31.5 L 158 0 L 220 0 L 284 31.5 L 315 94.5 M 189 284 L 126 220 L 94.5 158 L 94.5 63 L 158 0 M 378 284 L 315 94.5 L 315 31.5 L 378 0 L 441 31.5 L 472 63 L 536 158 M 410 284 L 346 94.5 L 346 31.5 L 378 0 M 441 693 L 284 504 M 441 693 L 472 662 L 284 504" />
<glyph unicode="&#xe2;" glyph-name="acircumflex" horiz-adv-x="504" d="M 346 189 L 315 252 L 252 284 L 189 284 L 126 252 L 94.5 220 L 63 158 L 63 94.5 L 94.5 31.5 L 158 0 L 220 0 L 284 31.5 L 315 94.5 M 189 284 L 126 220 L 94.5 158 L 94.5 63 L 158 0 M 378 284 L 315 94.5 L 315 31.5 L 378 0 L 441 31.5 L 472 63 L 536 158 M 410 284 L 346 94.5 L 346 31.5 L 378 0 M 113 416 L 265 510 L 416 416 M 113 416 L 265 491 L 416 416" />
<glyph unicode="&#xe3;" glyph-name="atilde" horiz-adv-x="504" d="M 346 189 L 315 252 L 252 284 L 189 284 L 126 252 L 94.5 220 L 63 158 L 63 94.5 L 94.5 31.5 L 158 0 L 220 0 L 284 31.5 L 315 94.5 M 189 284 L 126 220 L 94.5 158 L 94.5 63 L 158 0 M 378 284 L 315 94.5 L 315 31.5 L 378 0 L 441 31.5 L 472 63 L 536 158 M 410 284 L 346 94.5 L 346 31.5 L 378 0 M 147 441 L 147 472 L 163 520 L 194 536 L 226 536 L 257 520 L 320 472 L 352 457 L 383 457 L 415 472 L 430 504 M 147 472 L 163 504 L 194 520 L 226 520 L 257 504 L 320 457 L 352 441 L 383 441 L 415 457 L 430 504 L 430 536" />
<glyph unicode="&#xe4;" glyph-name="adieresis" horiz-adv-x="504" d="M 346 189 L 315 252 L 252 284 L 189 284 L 126 252 L 94.5 220 L 63 158 L 63 94.5 L 94.5 31.5 L 158 0 L 220 0 L 284 31.5 L 315 94.5 M 189 284 L 126 220 L 94.5 158 L 94.5 63 L 158 0 M 378 284 L 315 94.5 L 315 31.5 L 378 0 L 441 31.5 L 472 63 L 536 158 M 410 284 L 346 94.5 L 346 31.5 L 378 0 M 189 536 L 158 504 L 189 472 L 221 504 L 189 536 M 441 536 L 409 504 L 441 472 L 472 504 L 441 536" />
<glyph unicode="&#xe5;" glyph-name="aring" horiz-adv-x="630" d="M 567 441 L 567 0 L 598 0 M 567 441 L 598 441 L 598 0 M 567 346 L 504 410 L 441 441 L 346 441 L 284 410 L 220 346 L 189 252 L 189 189 L 220 94.5 L 284 31.5 L 346 0 L 441 0 L 504 31.5 L 567 94.5 M 567 346 L 441 410 L 346 410 L 284 378 L 252 346 L 220 252 L 220 189 L 252 94.5 L 284 63 L 346 31.5 L 441 31.5 L 567 94.5 M 397 860 L 378 850 L 359 832 L 350 813 L 340 784 L 340 737 L 350 709 L 359 690 L 378 671 L 397 662 L 435 662 L 454 671 L 472 690 L 482 709 L 491 737 L 491 784 L 482 813 L 472 832 L 454 850 L 435 860 L 397 860 M 406 850 L 378 841 L 359 813 L 350 784 L 350 737 L 359 709 L 378 680 L 406 671 L 425 671 L 454 680 L 472 709 L 482 737 L 482 784 L 472 813 L 454 841 L 425 850 L 406 850" />
<glyph unicode="&#xe8;" glyph-name="egrave" horiz-adv-x="378" d="M 126 63 L 189 94.5 L 220 126 L 252 189 L 252 252 L 220 284 L 189 284 L 126 252 L 94.5 220 L 63 158 L 63 94.5 L 94.5 31.5 L 158 0 L 252 0 L 346 63 L 410 158 M 189 284 L 126 220 L 94.5 158 L 94.5 63 L 158 0 M 94.5 693 L 252 504 M 94.5 693 L 63 662 L 252 504" />
<glyph unicode="&#xe9;" glyph-name="eacute" horiz-adv-x="378" d="M 126 63 L 189 94.5 L 220 126 L 252 189 L 252 252 L 220 284 L 189 284 L 126 252 L 94.5 220 L 63 158 L 63 94.5 L 94.5 31.5 L 158 0 L 252 0 L 346 63 L 410 158 M 189 284 L 126 220 L 94.5 158 L 94.5 63 L 158 0 M 378 693 L 220 504 M 378 693 L 410 662 L 220 504" />
<glyph unicode="&#xea;" glyph-name="ecircumflex" horiz-adv-x="378" d="M 126 63 L 189 94.5 L 220 126 L 252 189 L 252 252 L 220 284 L 189 284 L 126 252 L 94.5 220 L 63 158 L 63 94.5 L 94.5 31.5 L 158 0 L 252 0 L 346 63 L 410 158 M 189 284 L 126 220 L 94.5 158 L 94.5 63 L 158 0 M 75.6 416 L 227 510 L 378 416 M 75.6 416 L 227 491 L 378 416" />
<glyph unicode="&#xeb;" glyph-name="edieresis" horiz-adv-x="378" d="M 126 63 L 189 94.5 L 220 126 L 252 189 L 252 252 L 220 284 L 189 284 L 126 252 L 94.5 220 L 63 158 L 63 94.5 L 94.5 31.5 L 158 0 L 252 0 L 346 63 L 410 158 M 189 284 L 126 220 L 94.5 158 L 94.5 63 L 158 0 M 121 536 L 89.4 504 L 121 472 L 152 504 L 121 536 M 383 536 L 352 504 L 383 472 L 415 504 L 383 536" />
<glyph unicode="&#xec;" glyph-name="igrave" horiz-adv-x="252" d="M 126 284 L 63 94.5 L 63 31.5 L 126 0 L 189 31.5 L 220 63 L 284 158 M 158 284 L 94.5 94.5 L 94.5 31.5 L 126 0 M 31.5 693 L 189 504 M 31.5 693 L 0 662 L 189 504" />
<glyph unicode="&#xed;" glyph-name="iacute" horiz-adv-x="252" d="M 126 284 L 63 94.5 L 63 31.5 L 126 0 L 189 31.5 L 220 63 L 284 158 M 158 284 L 94.5 94.5 L 94.5 31.5 L 126 0 M 315 693 L 158 504 M 315 693 L 346 662 L 158 504" />
<glyph unicode="&#xee;" glyph-name="icircumflex" horiz-adv-x="252" d="M 126 284 L 63 94.5 L 63 31.5 L 126 0 L 189 31.5 L 220 63 L 284 158 M 158 284 L 94.5 94.5 L 94.5 31.5 L 126 0 M 37.8 416 L 189 510 L 340 416 M 37.8 416 L 189 491 L 340 416" />
<glyph unicode="&#xef;" glyph-name="idieresis" horiz-adv-x="252" d="M 126 284 L 63 94.5 L 63 31.5 L 126 0 L 189 31.5 L 220 63 L 284 158 M 158 284 L 94.5 94.5 L 94.5 31.5 L 126 0 M 68 536 L 36.5 504 L 68 472 L 99.5 504 L 68 536 M 310 536 L 278 504 L 310 472 L 341 504 L 310 536" />
<glyph unicode="&#xf1;" glyph-name="ntilde" horiz-adv-x="567" d="M 31.5 158 L 94.5 252 L 158 284 L 220 252 L 220 189 L 158 0 M 158 284 L 189 252 L 189 189 L 126 0 M 220 189 L 284 252 L 346 284 L 378 284 L 441 252 L 441 189 L 410 94.5 L 410 31.5 L 441 0 M 378 284 L 410 252 L 410 189 L 378 94.5 L 378 31.5 L 441 0 L 504 31.5 L 536 63 L 598 158 M 158 441 L 158 472 L 173 520 L 205 536 L 236 536 L 268 520 L 331 472 L 362 457 L 394 457 L 425 472 L 441 504 M 158 472 L 173 504 L 205 520 L 236 520 L 268 504 L 331 457 L 362 441 L 394 441 L 425 457 L 441 504 L 441 536" />
<glyph unicode="&#xf2;" glyph-name="ograve" horiz-adv-x="441" d="M 252 284 L 189 284 L 126 252 L 94.5 220 L 63 158 L 63 94.5 L 94.5 31.5 L 158 0 L 220 0 L 284 31.5 L 315 63 L 346 126 L 346 189 L 315 252 L 252 284 L 220 252 L 220 189 L 252 126 L 315 94.5 L 378 94.5 L 441 126 L 472 158 M 189 284 L 126 220 L 94.5 158 L 94.5 63 L 158 0 M 126 693 L 284 504 M 126 693 L 94.5 662 L 284 504" />
<glyph unicode="&#xf3;" glyph-name="oacute" horiz-adv-x="441" d="M 252 284 L 189 284 L 126 252 L 94.5 220 L 63 158 L 63 94.5 L 94.5 31.5 L 158 0 L 220 0 L 284 31.5 L 315 63 L 346 126 L 346 189 L 315 252 L 252 284 L 220 252 L 220 189 L 252 126 L 315 94.5 L 378 94.5 L 441 126 L 472 158 M 189 284 L 126 220 L 94.5 158 L 94.5 63 L 158 0 M 410 693 L 252 504 M 410 693 L 441 662 L 252 504" />
<glyph unicode="&#xf4;" glyph-name="ocircumflex" horiz-adv-x="441" d="M 252 284 L 189 284 L 126 252 L 94.5 220 L 63 158 L 63 94.5 L 94.5 31.5 L 158 0 L 220 0 L 284 31.5 L 315 63 L 346 126 L 346 189 L 315 252 L 252 284 L 220 252 L 220 189 L 252 126 L 315 94.5 L 378 94.5 L 441 126 L 472 158 M 189 284 L 126 220 L 94.5 158 L 94.5 63 L 158 0 M 94.5 416 L 246 510 L 397 416 M 94.5 416 L 246 491 L 397 416" />
<glyph unicode="&#xf5;" glyph-name="otilde" horiz-adv-x="441" d="M 252 284 L 189 284 L 126 252 L 94.5 220 L 63 158 L 63 94.5 L 94.5 31.5 L 158 0 L 220 0 L 284 31.5 L 315 63 L 346 126 L 346 189 L 315 252 L 252 284 L 220 252 L 220 189 L 252 126 L 315 94.5 L 378 94.5 L 441 126 L 472 158 M 189 284 L 126 220 L 94.5 158 L 94.5 63 L 158 0 M 137 441 L 137 472 L 152 520 L 184 536 L 215 536 L 247 520 L 310 472 L 341 457 L 373 457 L 404 472 L 420 504 M 137 472 L 152 504 L 184 520 L 215 520 L 247 504 L 310 457 L 341 441 L 373 441 L 404 457 L 420 504 L 420 536" />
<glyph unicode="&#xf6;" glyph-name="odieresis" horiz-adv-x="441" d="M 252 284 L 189 284 L 126 252 L 94.5 220 L 63 158 L 63 94.5 L 94.5 31.5 L 158 0 L 220 0 L 284 31.5 L 315 63 L 346 126 L 346 189 L 315 252 L 252 284 L 220 252 L 220 189 L 252 126 L 315 94.5 L 378 94.5 L 441 126 L 472 158 M 189 284 L 126 220 L 94.5 158 L 94.5 63 L 158 0 M 150 536 L 119 504 L 150 472 L 182 504 L 150 536 M 417 536 L 385 504 L 417 472 L 448 504 L 417 536" />
<glyph unicode="&#xf7;" glyph-name="divide" horiz-adv-x="614" d="M 346 536 L 315 504 L 346 472 L 378 504 L 346 536 M 346 252 L 315 220 L 346 189 L 378 220 L 346 252 M 118 378 L 543 378" />
<glyph unicode="&#xf8;" glyph-name="oslash" horiz-adv-x="441" d="M 252 284 L 189 284 L 126 252 L 94.5 220 L 63 158 L 63 94.5 L 94.5 31.5 L 158 0 L 220 0 L 284 31.5 L 315 63 L 346 126 L 346 189 L 315 252 L 252 284 L 220 252 L 220 189 L 252 126 L 315 94.5 L 378 94.5 L 441 126 L 472 158 M 189 284 L 126 220 L 94.5 158 L 94.5 63 L 158 0 M 386 386 L -15.4 -108" />
<glyph unicode="&#xf9;" glyph-name="ugrave" horiz-adv-x="504" d="M 126 284 L 63 94.5 L 63 31.5 L 126 0 L 158 0 L 220 31.5 L 284 94.5 L 346 189 M 158 284 L 94.5 94.5 L 94.5 31.5 L 126 0 M 378 284 L 315 94.5 L 315 31.5 L 378 0 L 441 31.5 L 472 63 L 536 158 M 410 284 L 346 94.5 L 346 31.5 L 378 0 M 158 693 L 315 504 M 158 693 L 126 662 L 315 504" />
<glyph unicode="&#xfa;" glyph-name="uacute" horiz-adv-x="504" d="M 126 284 L 63 94.5 L 63 31.5 L 126 0 L 158 0 L 220 31.5 L 284 94.5 L 346 189 M 158 284 L 94.5 94.5 L 94.5 31.5 L 126 0 M 378 284 L 315 94.5 L 315 31.5 L 378 0 L 441 31.5 L 472 63 L 536 158 M 410 284 L 346 94.5 L 346 31.5 L 378 0 M 441 693 L 284 504 M 441 693 L 472 662 L 284 504" />
<glyph unicode="&#xfb;" glyph-name="ucircumflex" horiz-adv-x="504" d="M 126 284 L 63 94.5 L 63 31.5 L 126 0 L 158 0 L 220 31.5 L 284 94.5 L 346 189 M 158 284 L 94.5 94.5 L 94.5 31.5 L 126 0 M 378 284 L 315 94.5 L 315 31.5 L 378 0 L 441 31.5 L 472 63 L 536 158 M 410 284 L 346 94.5 L 346 31.5 L 378 0 M 113 416 L 265 510 L 416 416 M 113 416 L 265 491 L 416 416" />
<glyph unicode="&#xfc;" glyph-name="udieresis" horiz-adv-x="504" d="M 126 284 L 63 94.5 L 63 31.5 L 126 0 L 158 0 L 220 31.5 L 284 94.5 L 346 189 M 158 284 L 94.5 94.5 L 94.5 31.5 L 126 0 M 378 284 L 315 94.5 L 315 31.5 L 378 0 L 441 31.5 L 472 63 L 536 158 M 410 284 L 346 94.5 L 346 31.5 L 378 0 M 195 536 L 163 504 L 195 472 L 226 504 L 195 536 M 435 536 L 404 504 L 435 472 L 467 504 L 435 536" />
<glyph unicode="&#xfd;" glyph-name="yacute" horiz-adv-x="504" d="M 126 284 L 63 94.5 L 63 31.5 L 126 0 L 158 0 L 220 31.5 L 284 94.5 L 346 189 M 158 284 L 94.5 94.5 L 94.5 31.5 L 126 0 M 378 284 L 189 -284 M 410 284 L 315 0 L 252 -158 L 189 -284 L 158 -346 L 94.5 -378 L 63 -346 L 63 -284 L 94.5 -189 L 158 -126 L 252 -63 L 378 0 L 472 63 L 536 158 M 441 693 L 284 504 M 441 693 L 472 662 L 284 504" />
<glyph unicode="&#xff;" glyph-name="ydieresis" horiz-adv-x="504" d="M 126 284 L 63 94.5 L 63 31.5 L 126 0 L 158 0 L 220 31.5 L 284 94.5 L 346 189 M 158 284 L 94.5 94.5 L 94.5 31.5 L 126 0 M 378 284 L 189 -284 M 410 284 L 315 0 L 252 -158 L 189 -284 L 158 -346 L 94.5 -378 L 63 -346 L 63 -284 L 94.5 -189 L 158 -126 L 252 -63 L 378 0 L 472 63 L 536 158 M 195 536 L 164 504 L 195 472 L 227 504 L 195 536 M 435 536 L 403 504 L 435 472 L 466 504 L 435 536" />
<glyph unicode="&#x2013;" glyph-name="endash" horiz-adv-x="614" d="M 118 284 L 543 284" />
<glyph unicode="&#x2014;" glyph-name="emdash" horiz-adv-x="819" d="M 158 284 L 724 284" />
<glyph unicode="&#x201c;" glyph-name="quotedblleft" horiz-adv-x="378" d="M 227 879 L 198 822 L 184 765 L 184 737 L 198 709 L 213 737 L 198 765 M 369 879 L 340 822 L 326 765 L 326 737 L 340 709 L 354 737 L 340 765" />
<glyph unicode="&#x201d;" glyph-name="quotedblright" horiz-adv-x="378" d="M 184 539 L 170 567 L 184 595 L 198 567 L 198 539 L 184 482 L 156 425 M 326 539 L 312 567 L 326 595 L 340 567 L 340 539 L 326 482 L 298 425" />
<glyph unicode="&#x2039;" glyph-name="guilsinglleft" horiz-adv-x="302" d="M 265 454 L 63 227 L 265 0" />
<glyph unicode="&#x203a;" glyph-name="guilsinglright" horiz-adv-x="302" d="M 63 454 L 265 227 L 63 0" />
<glyph unicode="&#x20ac;" glyph-name="Euro" horiz-adv-x="662" d="M 662 504 L 630 567 L 567 630 L 504 662 L 378 662 L 315 630 L 252 567 L 220 504 L 189 410 L 189 252 L 220 158 L 252 94.5 L 315 31.5 L 378 0 L 504 0 L 567 31.5 L 630 94.5 L 662 158 M 662 504 L 630 504 L 598 567 L 567 598 L 504 630 L 378 630 L 315 598 L 252 504 L 220 410 L 220 252 L 252 158 L 315 63 L 378 31.5 L 504 31.5 L 567 63 L 598 94.5 L 630 158 L 662 158 M 126 236 L 410 236 M 126 331 L 410 331" />
<glyph unicode="&#x0178;" glyph-name="Ydieresis" horiz-adv-x="693" d="M 126 536 L 189 630 L 252 662 L 284 662 L 346 630 L 346 567 L 284 378 L 284 284 L 315 220 M 284 662 L 315 630 L 315 567 L 252 378 L 252 284 L 315 220 L 378 220 L 472 252 L 536 315 L 598 410 L 630 472 M 693 662 L 630 472 L 536 220 L 472 94.5 M 724 662 L 662 472 L 598 315 L 536 189 L 472 94.5 L 410 31.5 L 315 0 L 189 0 L 126 31.5 L 94.5 94.5 L 94.5 126 L 126 158 L 158 126 L 126 94.5 M 412 914 L 380 882 L 412 850 L 443 882 L 412 914 M 659 914 L 628 882 L 659 850 L 691 882 L 659 914" />
<glyph unicode="&#x102;" glyph-name="Abreve" horiz-adv-x="724" d="M 630 662 L 567 598 L 504 504 L 410 346 L 346 252 L 252 126 L 158 31.5 L 94.5 0 L 31.5 0 L 0 31.5 L 0 94.5 L 31.5 126 L 63 94.5 L 31.5 63 M 630 662 L 598 536 L 536 220 L 504 0 M 630 662 L 536 0 M 504 0 L 504 63 L 472 158 L 441 220 L 378 284 L 315 315 L 252 315 L 220 284 L 220 220 L 252 126 L 346 31.5 L 441 0 L 567 0 L 630 31.5 M408.86 962.168C408.86 962.168 477.051 860 521.281 860C565.511 860 633.702 962.168 633.702 962.168M408.86 962.168C408.86 962.168 479.384 880.692 521.281 880.692C563.178 880.692 633.702 962.168 633.702 962.168" />
<glyph unicode="&#x114;" glyph-name="Ebreve" horiz-adv-x="598" d="M 472 567 L 441 536 L 441 472 L 472 441 L 536 441 L 567 504 L 567 567 L 536 630 L 472 662 L 378 662 L 315 630 L 284 598 L 252 536 L 252 472 L 284 410 L 346 378 M 378 662 L 315 598 L 284 536 L 284 441 L 346 378 M 346 378 L 284 378 L 189 346 L 126 284 L 94.5 220 L 94.5 126 L 126 63 L 158 31.5 L 220 0 L 315 0 L 410 31.5 L 472 94.5 L 504 158 L 504 220 L 472 284 L 410 284 L 346 252 L 315 189 M 284 378 L 220 346 L 158 284 L 126 220 L 126 94.5 L 158 31.5 M368.86 962.168C368.86 962.168 437.051 860 481.281 860C525.511 860 593.702 962.168 593.702 962.168M368.86 962.168C368.86 962.168 439.384 880.692 481.281 880.692C523.178 880.692 593.702 962.168 593.702 962.168" />
<glyph unicode="&#x11E;" glyph-name="Gbreve" horiz-adv-x="693" d="M 126 567 L 94.5 504 L 94.5 441 L 126 378 L 189 346 L 284 346 L 378 378 L 441 410 L 536 504 L 567 598 L 567 630 L 536 662 L 504 662 L 441 630 L 378 567 L 346 504 L 315 410 L 315 315 L 346 252 L 410 220 L 472 220 L 536 252 L 598 315 L 630 378 M 536 662 L 472 630 L 410 567 L 378 504 L 346 410 L 346 284 L 410 220 M 630 378 L 598 252 L 536 126 L 472 63 L 410 31.5 L 284 0 L 189 0 L 126 31.5 L 94.5 94.5 L 94.5 126 L 126 158 L 158 126 L 126 94.5 M 598 252 L 536 158 L 472 94.5 L 378 31.5 L 284 0 M398.86 962.168C398.86 962.168 467.051 860 511.281 860C555.511 860 623.702 962.168 623.702 962.168M398.86 962.168C398.86 962.168 469.384 880.692 511.281 880.692C553.178 880.692 623.702 962.168 623.702 962.168" />
<glyph unicode="&#x12C;" glyph-name="Ibreve" horiz-adv-x="504" d="M 472 598 L 410 504 L 346 346 L 284 189 L 252 126 L 189 31.5 L 126 0 M 536 472 L 472 410 L 378 378 L 284 378 L 220 410 L 189 472 L 189 536 L 220 598 L 284 630 L 410 662 L 536 662 L 472 598 L 441 536 L 378 346 L 315 158 L 284 94.5 L 220 31.5 L 126 0 L 63 0 L 31.5 31.5 L 31.5 94.5 L 63 126 L 94.5 94.5 L 63 63 M338.86 962.168C338.86 962.168 407.051 860 451.281 860C495.511 860 563.702 962.168 563.702 962.168M338.86 962.168C338.86 962.168 409.384 880.692 451.281 880.692C493.178 880.692 563.702 962.168 563.702 962.168" />
<glyph unicode="&#x14E;" glyph-name="Obreve" horiz-adv-x="662" d="M 378 662 L 315 630 L 252 567 L 189 472 L 158 410 L 126 284 L 126 158 L 158 63 L 189 31.5 L 252 0 L 315 0 L 410 31.5 L 472 94.5 L 536 189 L 567 252 L 598 378 L 598 504 L 567 598 L 536 630 L 504 630 L 441 598 L 378 536 L 315 410 L 284 252 L 284 158 M 315 630 L 252 536 L 189 410 L 158 284 L 158 158 L 189 63 L 252 0 M388.86 962.168C388.86 962.168 457.051 860 501.281 860C545.511 860 613.702 962.168 613.702 962.168M388.86 962.168C388.86 962.168 459.384 880.692 501.281 880.692C543.178 880.692 613.702 962.168 613.702 962.168" />
<glyph unicode="&#x16C;" glyph-name="Ubreve" horiz-adv-x="693" d="M 63 536 L 126 630 L 189 662 L 220 662 L 284 598 L 284 504 L 252 410 L 158 158 L 158 63 L 189 0 M 220 662 L 252 598 L 252 504 L 158 252 L 126 158 L 126 63 L 189 0 L 252 0 L 315 31.5 L 410 126 L 472 220 L 504 284 M 630 662 L 504 284 L 472 158 L 472 63 L 536 0 L 567 0 L 630 31.5 L 693 94.5 M 662 662 L 536 284 L 504 158 L 504 63 L 536 0 M398.86 962.168C398.86 962.168 467.051 860 511.281 860C555.511 860 623.702 962.168 623.702 962.168M398.86 962.168C398.86 962.168 469.384 880.692 511.281 880.692C553.178 880.692 623.702 962.168 623.702 962.168" />
<glyph unicode="&#x103;" glyph-name="abreve" horiz-adv-x="504" d="M 346 189 L 315 252 L 252 284 L 189 284 L 126 252 L 94.5 220 L 63 158 L 63 94.5 L 94.5 31.5 L 158 0 L 220 0 L 284 31.5 L 315 94.5 M 189 284 L 126 220 L 94.5 158 L 94.5 63 L 158 0 M 378 284 L 315 94.5 L 315 31.5 L 378 0 L 441 31.5 L 472 63 L 536 158 M 410 284 L 346 94.5 L 346 31.5 L 378 0 M178.86 622.168C178.86 622.168 247.051 520 291.281 520C335.511 520 403.702 622.168 403.702 622.168M178.86 622.168C178.86 622.168 249.384 540.692 291.281 540.692C333.178 540.692 403.702 622.168 403.702 622.168" />
<glyph unicode="&#x115;" glyph-name="ebreve" horiz-adv-x="378" d="M 126 63 L 189 94.5 L 220 126 L 252 189 L 252 252 L 220 284 L 189 284 L 126 252 L 94.5 220 L 63 158 L 63 94.5 L 94.5 31.5 L 158 0 L 252 0 L 346 63 L 410 158 M 189 284 L 126 220 L 94.5 158 L 94.5 63 L 158 0 M138.86 622.168C138.86 622.168 207.051 520 251.281 520C295.511 520 363.702 622.168 363.702 622.168M138.86 622.168C138.86 622.168 209.384 540.692 251.281 540.692C293.178 540.692 363.702 622.168 363.702 622.168" />
<glyph unicode="&#x11F;" glyph-name="gbreve" horiz-adv-x="504" d="M 346 189 L 315 252 L 252 284 L 189 284 L 126 252 L 94.5 220 L 63 158 L 63 94.5 L 94.5 31.5 L 158 0 L 220 0 L 284 31.5 L 315 94.5 M 189 284 L 126 220 L 94.5 158 L 94.5 63 L 158 0 M 378 284 L 189 -284 M 410 284 L 315 0 L 252 -158 L 189 -284 L 158 -346 L 94.5 -378 L 63 -346 L 63 -284 L 94.5 -189 L 158 -126 L 252 -63 L 378 0 L 472 63 L 536 158 M178.86 622.168C178.86 622.168 247.051 520 291.281 520C335.511 520 403.702 622.168 403.702 622.168M178.86 622.168C178.86 622.168 249.384 540.692 291.281 540.692C333.178 540.692 403.702 622.168 403.702 622.168" />
<glyph unicode="&#x12D;" glyph-name="ibreve" horiz-adv-x="252" d="M 126 284 L 63 94.5 L 63 31.5 L 126 0 L 189 31.5 L 220 63 L 284 158 M 158 284 L 94.5 94.5 L 94.5 31.5 L 126 0 M98.8599 622.168C98.8599 622.168 167.051 520 211.281 520C255.511 520 323.702 622.168 323.702 622.168M98.8599 622.168C98.8599 622.168 169.384 540.692 211.281 540.692C253.178 540.692 323.702 622.168 323.702 622.168" />
<glyph unicode="&#x14F;" glyph-name="obreve" horiz-adv-x="441" d="M 252 284 L 189 284 L 126 252 L 94.5 220 L 63 158 L 63 94.5 L 94.5 31.5 L 158 0 L 220 0 L 284 31.5 L 315 63 L 346 126 L 346 189 L 315 252 L 252 284 L 220 252 L 220 189 L 252 126 L 315 94.5 L 378 94.5 L 441 126 L 472 158 M 189 284 L 126 220 L 94.5 158 L 94.5 63 L 158 0 M158.86 622.168C158.86 622.168 227.051 520 271.281 520C315.511 520 383.702 622.168 383.702 622.168M158.86 622.168C158.86 622.168 229.384 540.692 271.281 540.692C313.178 540.692 383.702 622.168 383.702 622.168" />
<glyph unicode="&#x16D;" glyph-name="ubreve" horiz-adv-x="504" d="M 126 284 L 63 94.5 L 63 31.5 L 126 0 L 158 0 L 220 31.5 L 284 94.5 L 346 189 M 158 284 L 94.5 94.5 L 94.5 31.5 L 126 0 M 378 284 L 315 94.5 L 315 31.5 L 378 0 L 441 31.5 L 472 63 L 536 158 M 410 284 L 346 94.5 L 346 31.5 L 378 0 M178.86 622.168C178.86 622.168 247.051 520 291.281 520C335.511 520 403.702 622.168 403.702 622.168M178.86 622.168C178.86 622.168 249.384 540.692 291.281 540.692C333.178 540.692 403.702 622.168 403.702 622.168" />
<glyph unicode="&#xC6;" glyph-name="AE" horiz-adv-x="1030.0" d="M872.271 536L872.271 504L904.271 472L967.271 472L998.271 504L998.271 567L967.271 630L872.271 662L746.271 662L652.271 630L620.271 567L620.271 472L652.271 410L684.271 378L778.271 346L684.271 346L611.271 315L580.271 284L548.271 220L548.271 126L580.271 63L589.271 31.5L684.271 -0L778.271 -0L872.271 31.5L936.271 94.5L967.271 158M630 662L567 598L504 504L410 346L346 252L252 126L158 31.5L94.5 -0L31.5 -0L0 31.5L0 94.5L31.5 126L63 94.5L31.5 63M630 662L598 536L536 220L504 -0M504 -0L504 63L472 158L441 220L378 284L315 315L252 315L220 284L220 220L252 126L346 31.5L441 -0L567 -0" />
<glyph unicode="&#x15F;" glyph-name="scedilla" horiz-adv-x="378" d="M134.325 -11.2622C137.102 -19.0485 135.171 -30.6459 139.991 -37.0192C164.367 -69.2571 149.75 -123.806 85.0496 -96.103C108.445 -95.9876 127.906 -94.8271 133.612 -73.977C140.3 -45.739 113.316 -51.3065 114.146 -11.8494M31.5 158L94.5 252L126 315L126 252L220 189L252 126L252 63L220 31.5L158 -0M126 252L189 189L220 126L220 63L158 -0M31.5 31.5L94.5 -0L252 -0L346 63L410 158" />
<glyph unicode="&#x130;" glyph-name="Idotaccent" horiz-adv-x="504" d="M432.203 798.126L401.203 767.126L432.203 736.126L463.203 767.126L432.203 798.126M472 598L410 504L346 346L284 189L252 126L189 31.5L126 -0M536 472L472 410L378 378L284 378L220 410L189 472L189 536L220 598L284 630L410 662L536 662L472 598L441 536L378 346L315 158L284 94.5L220 31.5L126 -0L63 -0L31.5 31.5L31.5 94.5L63 126L94.5 94.5L63 63" />
<glyph unicode="&#x2D8;" glyph-name="breve" horiz-adv-x="693" d="M218.86 362.168C218.86 362.168 287.051 260 331.281 260C375.511 260 443.702 362.168 443.702 362.168M218.86 362.168C218.86 362.168 289.384 280.692 331.281 280.692C373.178 280.692 443.702 362.168 443.702 362.168" />
<glyph unicode="&#xE6;" glyph-name="ae" horiz-adv-x="660" d="M397.881 62.9999L460.881 94.4999L491.881 126L523.881 189L523.881 252L491.881 284L460.881 284L397.881 252L366.381 220L334.881 158L334.881 94.5L366.381 31.5L429.881 -4.99993e-05L523.881 -4.99993e-05L617.881 63L681.881 158M460.881 284L397.881 220L366.381 158L366.381 63L429.881 -4.99993e-05M346 189L315 252L252 284L189 284L126 252L94.5 220L63 158L63 94.5L94.5 31.5L158 -0L220 -0L284 31.5L315 94.5M189 284L126 220L94.5 158L94.5 63L158 -0M378 284L315 94.5L315 31.5L378 -0" />
<glyph unicode="&#xe7;" glyph-name="ccedilla" horiz-adv-x="378" d="M284 252L252 220L284 220L284 252L252 284L189 284L126 252L94.5 220L63 158L63 94.5L94.5 31.5L158 0L252 0L346 63L410 158M189 284L126 220L94.5 158L94.5 63L158 0" />
<glyph unicode="&#xe7;" glyph-name="ccedilla" horiz-adv-x="378" d="M205.508 0.51077C211.513 -70.8436 203.482 -75.3103 179.747 -87.0079M205.508 0.51077C211.513 -70.8436 227.654 -89.8138 179.747 -87.0079" />
<glyph unicode="&#xdf;" glyph-name="germandbls" horiz-adv-x="756" d="M182 -0L244 31.5L308 126L339 189L402 378L465 536L496 598L561.288 659.821L622 662C622 662 669.346 646.761 686 630C702.654 613.239 711.968 588.625 717 567C722.032 545.375 722.032 525.625 717 504C711.968 482.375 686 441 686 441L622 410L496 378M496 598L465 504L402 252L370 158L339 94.5L276 31.5L182 -0L118.5 -0L87 31.5C87 31.5 80.1405 77.9398 87 94.5C93.8595 111.06 103.651 126 118.5 126C133.349 126 150 109.349 150 94.5C150 79.6508 118.5 63 118.5 63M622 662C622 662 642.654 645.637 654 630C665.346 614.363 680.813 588.665 686 567C691.187 545.335 691.187 525.665 686 504C680.813 482.335 654 441 654 441L622 410M496 378L591 346L622 315C622 315 647.61 278.689 654 252C660.39 225.311 659.236 189.948 654 158C648.764 126.052 634.606 83.5086 622 63C609.394 42.4914 591 31.5 591 31.5L528 -0C528 -0 481.478 -6.90296 465 -0C448.522 6.90296 440.771 14.9668 434 31.5C427.229 48.0332 434 94.5 434 94.5M496 378L560 346L591 315C591 315 615.797 278.657 622 252C628.203 225.343 627.076 189.921 622 158C616.924 126.079 607.478 89.8514 591 63C574.522 36.1486 528 -0 528 -0" />
<glyph unicode="&#xb8;" glyph-name="cedilla" horiz-adv-x="662" d="M334 -0C337.605 -10.1067 335.099 -25.1602 341.354 -33.4328C372.995 -75.2779 354.022 -146.083 270.04 -110.124C300.408 -109.974 325.668 -108.468 333.074 -81.4044C341.756 -44.7512 306.73 -51.9778 307.808 -0.762217Z" />
<glyph unicode="&#x131;" glyph-name="dotlessi" horiz-adv-x="252" d="M126 284L63 94.5L63 31.5L126 -0L189 31.5L220 63L284 158M158 284L94.5 94.5L94.5 31.5L126 -0" />
<glyph unicode="&#xc7;" glyph-name="Ccedilla" horiz-adv-x="662" d="M334 -0C337.605 -10.1067 335.099 -25.1602 341.354 -33.4328C372.995 -75.2779 354.022 -146.083 270.04 -110.124C300.408 -109.974 325.668 -108.468 333.074 -81.4044C341.756 -44.7512 306.73 -51.9778 307.808 -0.762217ZM126 598L94.5 536L94.5 472L126 410L220 378L315 378L441 410L504 441L567 504L598 567L598 630L567 662L504 662L410 630L315 536L252 441L189 315L158 189L158 94.5L189 31.5L284 -0L346 -0L441 31.5L504 94.5L536 158L536 220L504 284L441 284L378 252L346 189M504 662L441 630L346 536L284 441L220 315L189 189L189 94.5L220 31.5L284 -0" />
<glyph unicode="&#x15E;" glyph-name="Scedilla" horiz-adv-x="630" d="M191.453 -21.382C195.058 -31.4887 192.552 -46.5422 198.807 -54.8148C230.448 -96.6599 211.475 -167.465 127.493 -131.506C157.861 -131.356 183.121 -129.85 190.527 -102.786C199.209 -66.1332 164.183 -73.3598 165.261 -22.1442M220 567L189 504L189 441L220 378L284 346L378 346L472 378L536 410L630 504L662 598L662 630L630 662L598 662L536 630L504 598L472 536L441 441L378 220L346 126L284 31.5L220 -0M472 536L441 410L410 189L378 94.5L315 31.5L220 -0L126 -0L63 31.5L31.5 94.5L31.5 126L63 158L94.5 126L63 94.5" />
</font>
</defs>
</svg>
