<?xml version="1.0" encoding="UTF-8" ?>
<!DOCTYPE svg PUBLIC "-//W3C//DTD SVG 1.1//EN" "http://www.w3.org/Graphics/SVG/1.1/DTD/svg11.dtd" >

<svg xmlns="http://www.w3.org/2000/svg" xmlns:xlink="http://www.w3.org/1999/xlink" version="1.1">

<metadata>
Font name: Hershey Serif medium italic

Originally prepared in 2011 and converted to SVG fonts
in 2019 by Windell H. Oskay, www.evilmadscientist.com

Contents adapted from emergent.unpythonic.net/software/hershey
 by way of "Hershey Fonts in SVG" by Marty McGuire
 http://www.thingiverse.com/thing:6168
 
-------------------------------------------------------------------
The Hershey Fonts are a set of vector fonts with a liberal license.

USE RESTRICTION:
    This distribution of the Hershey Fonts may be used by anyone for
    any purpose, commercial or otherwise, providing that:
        1. The following acknowledgements must be distributed with
            the font data:
            - The Hershey Fonts were originally created by Dr.
                A. V. Hershey while working at the U. S.
                National Bureau of Standards.
            - The format of the Font data in this distribution
                was originally created by
                    James Hurt
                    Cognition, Inc.
                    900 Technology Park Drive
                    Billerica, MA 01821
                    (mit-eddie!ci-dandelion!hurt)
        2. The font data in this distribution may be converted into
            any other format *EXCEPT* the format distributed by
            the U.S. NTIS where each point is described
            in eight bytes as "xxx yyy:", where xxx and yyy are
            the coordinate values as ASCII numbers.

</metadata>
<defs>
<font id="HersheySerifMedItalic" horiz-adv-x="378" >
<font-face
font-family="Hershey Serif medium italic"
units-per-em="1000"
ascent="800"
descent="-200"
cap-height="500"
x-height="300"
/>
<missing-glyph horiz-adv-x="378" />
<glyph unicode=" " glyph-name="space" horiz-adv-x="378" />
<glyph unicode="!" glyph-name="exclam" horiz-adv-x="346" d="M 321 662 L 290 630 L 227 252 M 321 630 L 227 252 M 321 662 L 353 630 L 227 252 M 164 63 L 132 31.5 L 164 0 L 195 31.5 L 164 63" />
<glyph unicode="&#x22;" glyph-name="quotedbl" horiz-adv-x="567" d="M 220 662 L 158 441 M 252 662 L 158 441 M 504 662 L 441 441 M 536 662 L 441 441" />
<glyph unicode="#" glyph-name="numbersign" horiz-adv-x="662" d="M 346 788 L 126 -220 M 536 788 L 315 -220 M 126 378 L 567 378 M 94.5 189 L 536 189" />
<glyph unicode="$" glyph-name="dollar" horiz-adv-x="662" d="M 378 788 L 126 -126 M 536 788 L 284 -126 M 567 536 L 536 504 L 567 472 L 598 504 L 598 536 L 567 598 L 536 630 L 441 662 L 315 662 L 220 630 L 158 567 L 158 504 L 189 441 L 220 410 L 441 284 L 504 220 M 158 504 L 220 441 L 441 315 L 472 284 L 504 220 L 504 126 L 472 63 L 441 31.5 L 346 0 L 220 0 L 126 31.5 L 94.5 63 L 63 126 L 63 158 L 94.5 189 L 126 158 L 94.5 126" />
<glyph unicode="%" glyph-name="percent" horiz-adv-x="756" d="M 662 662 L 94.5 0 M 252 662 L 315 598 L 315 536 L 284 472 L 220 441 L 158 441 L 94.5 504 L 94.5 567 L 126 630 L 189 662 L 252 662 L 315 630 L 410 598 L 504 598 L 598 630 L 662 662 M 536 220 L 472 189 L 441 126 L 441 63 L 504 0 L 567 0 L 630 31.5 L 662 94.5 L 662 158 L 598 220 L 536 220" />
<glyph unicode="&amp;" glyph-name="ampersand" horiz-adv-x="788" d="M 662 410 L 630 378 L 662 346 L 693 378 L 693 410 L 662 441 L 630 441 L 598 410 L 567 346 L 504 189 L 441 94.5 L 378 31.5 L 315 0 L 220 0 L 126 31.5 L 94.5 94.5 L 94.5 189 L 126 252 L 315 378 L 378 441 L 410 504 L 410 567 L 378 630 L 315 662 L 252 630 L 220 567 L 220 504 L 252 410 L 315 315 L 472 94.5 L 536 31.5 L 630 0 L 662 0 L 693 31.5 L 693 63 M 220 0 L 158 31.5 L 126 94.5 L 126 189 L 158 252 L 220 315 M 220 504 L 252 441 L 504 94.5 L 567 31.5 L 630 0" />
<glyph unicode="&apos;" glyph-name="quotesingle" horiz-adv-x="284" d="M 220 662 L 158 441 M 252 662 L 158 441" />
<glyph unicode="(" glyph-name="parenleft" horiz-adv-x="472" d="M 472 788 L 346 693 L 252 598 L 189 504 L 126 378 L 94.5 220 L 94.5 94.5 L 126 -63 L 158 -158 L 189 -220 M 346 693 L 252 567 L 189 441 L 158 346 L 126 189 L 126 31.5 L 158 -126 L 189 -220" />
<glyph unicode=")" glyph-name="parenright" horiz-adv-x="472" d="M 284 788 L 315 724 L 346 630 L 378 472 L 378 346 L 346 189 L 284 63 L 220 -31.5 L 126 -126 L 0 -220 M 284 788 L 315 693 L 346 536 L 346 378 L 315 220 L 284 126 L 220 0 L 126 -126" />
<glyph unicode="*" glyph-name="asterisk" horiz-adv-x="504" d="M 252 472 L 252 94.5 M 94.5 378 L 410 189 M 410 378 L 94.5 189" />
<glyph unicode="+" glyph-name="plus" horiz-adv-x="819" d="M 410 567 L 410 0 M 126 284 L 693 284" />
<glyph unicode="," glyph-name="comma" horiz-adv-x="346" d="M 94.5 0 L 63 31.5 L 94.5 63 L 126 31.5 L 126 0 L 94.5 -63 L 31.5 -126" />
<glyph unicode="-" glyph-name="hyphen" horiz-adv-x="819" d="M 126 284 L 693 284" />
<glyph unicode="." glyph-name="period" horiz-adv-x="346" d="M 94.5 63 L 63 31.5 L 94.5 0 L 126 31.5 L 94.5 63" />
<glyph unicode="/" glyph-name="slash" horiz-adv-x="693" d="M 630 788 L 63 -220" />
<glyph unicode="0" glyph-name="zero" horiz-adv-x="662" d="M 378 662 L 284 630 L 220 567 L 158 472 L 126 378 L 94.5 252 L 94.5 158 L 126 63 L 158 31.5 L 220 0 L 284 0 L 378 31.5 L 441 94.5 L 504 189 L 536 284 L 567 410 L 567 504 L 536 598 L 504 630 L 441 662 L 378 662 M 378 662 L 315 630 L 252 567 L 189 472 L 158 378 L 126 252 L 126 158 L 158 63 L 220 0 M 284 0 L 346 31.5 L 410 94.5 L 472 189 L 504 284 L 536 410 L 536 504 L 504 598 L 441 662" />
<glyph unicode="1" glyph-name="one" horiz-adv-x="662" d="M 378 536 L 220 0 M 441 662 L 252 0 M 441 662 L 346 567 L 252 504 L 189 472 M 410 567 L 284 504 L 189 472" />
<glyph unicode="2" glyph-name="two" horiz-adv-x="662" d="M 220 536 L 252 504 L 220 472 L 189 504 L 189 536 L 220 598 L 252 630 L 346 662 L 441 662 L 536 630 L 567 567 L 567 504 L 536 441 L 472 378 L 378 315 L 252 252 L 158 189 L 94.5 126 L 31.5 0 M 441 662 L 504 630 L 536 567 L 536 504 L 504 441 L 441 378 L 252 252 M 63 63 L 94.5 94.5 L 158 94.5 L 315 31.5 L 410 31.5 L 472 63 L 504 126 M 158 94.5 L 315 0 L 410 0 L 472 31.5 L 504 126" />
<glyph unicode="3" glyph-name="three" horiz-adv-x="662" d="M 220 536 L 252 504 L 220 472 L 189 504 L 189 536 L 220 598 L 252 630 L 346 662 L 441 662 L 536 630 L 567 567 L 567 504 L 536 441 L 441 378 L 346 346 M 441 662 L 504 630 L 536 567 L 536 504 L 504 441 L 441 378 M 284 346 L 346 346 L 441 315 L 472 284 L 504 220 L 504 126 L 472 63 L 441 31.5 L 346 0 L 220 0 L 126 31.5 L 94.5 63 L 63 126 L 63 158 L 94.5 189 L 126 158 L 94.5 126 M 346 346 L 410 315 L 441 284 L 472 220 L 472 126 L 441 63 L 410 31.5 L 346 0" />
<glyph unicode="4" glyph-name="four" horiz-adv-x="662" d="M 504 630 L 315 0 M 536 662 L 346 0 M 536 662 L 63 189 L 567 189" />
<glyph unicode="5" glyph-name="five" horiz-adv-x="662" d="M 284 662 L 126 346 M 284 662 L 598 662 M 284 630 L 441 630 L 598 662 M 126 346 L 158 378 L 252 410 L 346 410 L 441 378 L 472 346 L 504 284 L 504 189 L 472 94.5 L 410 31.5 L 315 0 L 220 0 L 126 31.5 L 94.5 63 L 63 126 L 63 158 L 94.5 189 L 126 158 L 94.5 126 M 346 410 L 410 378 L 441 346 L 472 284 L 472 189 L 441 94.5 L 378 31.5 L 315 0" />
<glyph unicode="6" glyph-name="six" horiz-adv-x="662" d="M 536 567 L 504 536 L 536 504 L 567 536 L 567 567 L 536 630 L 472 662 L 378 662 L 284 630 L 220 567 L 158 472 L 126 378 L 94.5 252 L 94.5 126 L 126 63 L 158 31.5 L 220 0 L 315 0 L 410 31.5 L 472 94.5 L 504 158 L 504 252 L 472 315 L 441 346 L 378 378 L 284 378 L 220 346 L 158 284 L 126 220 M 378 662 L 315 630 L 252 567 L 189 472 L 158 378 L 126 252 L 126 94.5 L 158 31.5 M 315 0 L 378 31.5 L 441 94.5 L 472 158 L 472 284 L 441 346" />
<glyph unicode="7" glyph-name="seven" horiz-adv-x="662" d="M 189 662 L 126 472 M 598 662 L 567 567 L 504 472 L 346 284 L 284 189 L 252 126 L 220 0 M 504 472 L 315 284 L 252 189 L 220 126 L 189 0 M 158 567 L 252 662 L 315 662 L 472 567 M 189 598 L 252 630 L 315 630 L 472 567 L 536 567 L 567 598 L 598 662" />
<glyph unicode="8" glyph-name="eight" horiz-adv-x="662" d="M 346 662 L 252 630 L 220 598 L 189 536 L 189 441 L 220 378 L 284 346 L 378 346 L 504 378 L 536 410 L 567 472 L 567 567 L 536 630 L 441 662 L 346 662 M 346 662 L 284 630 L 252 598 L 220 536 L 220 441 L 252 378 L 284 346 M 378 346 L 472 378 L 504 410 L 536 472 L 536 567 L 504 630 L 441 662 M 284 346 L 158 315 L 94.5 252 L 63 189 L 63 94.5 L 94.5 31.5 L 189 0 L 315 0 L 441 31.5 L 472 63 L 504 126 L 504 220 L 472 284 L 441 315 L 378 346 M 284 346 L 189 315 L 126 252 L 94.5 189 L 94.5 94.5 L 126 31.5 L 189 0 M 315 0 L 410 31.5 L 441 63 L 472 126 L 472 252 L 441 315" />
<glyph unicode="9" glyph-name="nine" horiz-adv-x="662" d="M 536 441 L 504 378 L 441 315 L 378 284 L 284 284 L 220 315 L 189 346 L 158 410 L 158 504 L 189 567 L 252 630 L 346 662 L 441 662 L 504 630 L 536 598 L 567 536 L 567 410 L 536 284 L 504 189 L 441 94.5 L 378 31.5 L 284 0 L 189 0 L 126 31.5 L 94.5 94.5 L 94.5 126 L 126 158 L 158 126 L 126 94.5 M 220 315 L 189 378 L 189 504 L 220 567 L 284 630 L 346 662 M 504 630 L 536 567 L 536 410 L 504 284 L 472 189 L 410 94.5 L 346 31.5 L 284 0" />
<glyph unicode=":" glyph-name="colon" horiz-adv-x="346" d="M 189 441 L 158 410 L 189 378 L 220 410 L 189 441 M 94.5 63 L 63 31.5 L 94.5 0 L 126 31.5" />
<glyph unicode=";" glyph-name="semicolon" horiz-adv-x="346" d="M 189 441 L 158 410 L 189 378 L 220 410 L 189 441 M 94.5 0 L 63 31.5 L 94.5 63 L 126 31.5 L 126 0 L 94.5 -63 L 31.5 -126" />
<glyph unicode="&#x3c;" glyph-name="less" horiz-adv-x="756" d="M 630 567 L 126 284 L 630 0" />
<glyph unicode="=" glyph-name="equal" horiz-adv-x="819" d="M 126 378 L 693 378 M 126 189 L 693 189" />
<glyph unicode="&#x3e;" glyph-name="greater" horiz-adv-x="756" d="M 126 567 L 630 284 L 126 0" />
<glyph unicode="?" glyph-name="question" horiz-adv-x="662" d="M 220 536 L 252 504 L 220 472 L 189 504 L 189 536 L 220 598 L 252 630 L 346 662 L 472 662 L 567 630 L 598 567 L 598 504 L 567 441 L 536 410 L 346 346 L 284 315 L 284 252 L 315 220 L 378 220 M 472 662 L 536 630 L 567 567 L 567 504 L 536 441 L 504 410 L 441 378 M 252 63 L 220 31.5 L 252 0 L 284 31.5 L 252 63" />
<glyph unicode="@" glyph-name="at" horiz-adv-x="850" d="M 567 410 L 536 472 L 472 504 L 378 504 L 315 472 L 284 441 L 252 346 L 252 252 L 284 189 L 346 158 L 441 158 L 504 189 L 536 252 M 378 504 L 315 441 L 284 346 L 284 252 L 315 189 L 346 158 M 567 504 L 536 252 L 536 189 L 598 158 L 662 158 L 724 220 L 756 315 L 756 378 L 724 472 L 693 536 L 630 598 L 567 630 L 472 662 L 378 662 L 284 630 L 220 598 L 158 536 L 126 472 L 94.5 378 L 94.5 284 L 126 189 L 158 126 L 220 63 L 284 31.5 L 378 0 L 472 0 L 567 31.5 L 630 63 L 662 94.5 M 598 504 L 567 252 L 567 189 L 598 158" />
<glyph unicode="A" glyph-name="A" horiz-adv-x="630" d="M 410 662 L 0 0 M 410 662 L 441 0 M 378 598 L 410 0 M 126 189 L 410 189 M -63 0 L 126 0 M 315 0 L 504 0" />
<glyph unicode="B" glyph-name="B" horiz-adv-x="756" d="M 284 662 L 94.5 0 M 315 662 L 126 0 M 189 662 L 536 662 L 630 630 L 662 567 L 662 504 L 630 410 L 598 378 L 504 346 M 536 662 L 598 630 L 630 567 L 630 504 L 598 410 L 567 378 L 504 346 M 220 346 L 504 346 L 567 315 L 598 252 L 598 189 L 567 94.5 L 504 31.5 L 378 0 L 0 0 M 504 346 L 536 315 L 567 252 L 567 189 L 536 94.5 L 472 31.5 L 378 0" />
<glyph unicode="C" glyph-name="C" horiz-adv-x="662" d="M 567 598 L 598 598 L 630 662 L 598 472 L 598 536 L 567 598 L 536 630 L 472 662 L 378 662 L 284 630 L 220 567 L 158 472 L 126 378 L 94.5 252 L 94.5 158 L 126 63 L 158 31.5 L 252 0 L 346 0 L 410 31.5 L 472 94.5 L 504 158 M 378 662 L 315 630 L 252 567 L 189 472 L 158 378 L 126 252 L 126 158 L 158 63 L 189 31.5 L 252 0" />
<glyph unicode="D" glyph-name="D" horiz-adv-x="724" d="M 284 662 L 94.5 0 M 315 662 L 126 0 M 189 662 L 472 662 L 567 630 L 598 598 L 630 504 L 630 378 L 598 252 L 536 126 L 472 63 L 410 31.5 L 284 0 L 0 0 M 472 662 L 536 630 L 567 598 L 598 504 L 598 378 L 567 252 L 504 126 L 441 63 L 378 31.5 L 284 0" />
<glyph unicode="E" glyph-name="E" horiz-adv-x="724" d="M 284 662 L 94.5 0 M 315 662 L 126 0 M 441 472 L 378 220 M 189 662 L 662 662 L 630 472 L 630 662 M 220 346 L 410 346 M 0 0 L 472 0 L 536 158 L 441 0" />
<glyph unicode="F" glyph-name="F" horiz-adv-x="693" d="M 284 662 L 94.5 0 M 315 662 L 126 0 M 441 472 L 378 220 M 189 662 L 662 662 L 630 472 L 630 662 M 220 346 L 410 346 M 0 0 L 220 0" />
<glyph unicode="G" glyph-name="G" horiz-adv-x="693" d="M 567 598 L 598 598 L 630 662 L 598 472 L 598 536 L 567 598 L 536 630 L 472 662 L 378 662 L 284 630 L 220 567 L 158 472 L 126 378 L 94.5 252 L 94.5 158 L 126 63 L 158 31.5 L 252 0 L 315 0 L 410 31.5 L 472 94.5 L 536 220 M 378 662 L 315 630 L 252 567 L 189 472 L 158 378 L 126 252 L 126 158 L 158 63 L 189 31.5 L 252 0 M 315 0 L 378 31.5 L 441 94.5 L 504 220 M 410 220 L 630 220" />
<glyph unicode="H" glyph-name="H" horiz-adv-x="819" d="M 284 662 L 94.5 0 M 315 662 L 126 0 M 693 662 L 504 0 M 724 662 L 536 0 M 189 662 L 410 662 M 598 662 L 819 662 M 220 346 L 598 346 M 0 0 L 220 0 M 410 0 L 630 0" />
<glyph unicode="I" glyph-name="I" horiz-adv-x="410" d="M 284 662 L 94.5 0 M 315 662 L 126 0 M 189 662 L 410 662 M 0 0 L 220 0" />
<glyph unicode="J" glyph-name="J" horiz-adv-x="567" d="M 472 662 L 315 126 L 284 63 L 252 31.5 L 189 0 L 126 0 L 63 31.5 L 31.5 94.5 L 31.5 158 L 63 189 L 94.5 158 L 63 126 M 441 662 L 284 126 L 252 63 L 189 0 M 346 662 L 567 662" />
<glyph unicode="K" glyph-name="K" horiz-adv-x="724" d="M 284 662 L 94.5 0 M 315 662 L 126 0 M 724 662 L 189 252 M 410 378 L 536 0 M 378 378 L 504 0 M 189 662 L 410 662 M 598 662 L 788 662 M 0 0 L 220 0 M 410 0 L 598 0" />
<glyph unicode="L" glyph-name="L" horiz-adv-x="630" d="M 284 662 L 94.5 0 M 315 662 L 126 0 M 189 662 L 410 662 M 0 0 L 472 0 L 536 189 L 441 0" />
<glyph unicode="M" glyph-name="M" horiz-adv-x="850" d="M 284 662 L 94.5 0 M 284 662 L 315 0 M 315 662 L 346 63 M 724 662 L 315 0 M 724 662 L 536 0 M 756 662 L 567 0 M 189 662 L 315 662 M 724 662 L 850 662 M 0 0 L 189 0 M 441 0 L 662 0" />
<glyph unicode="N" glyph-name="N" horiz-adv-x="788" d="M 284 662 L 94.5 0 M 284 662 L 504 94.5 M 284 567 L 504 0 M 693 662 L 504 0 M 189 662 L 284 662 M 598 662 L 788 662 M 0 0 L 189 0" />
<glyph unicode="O" glyph-name="O" horiz-adv-x="693" d="M 378 662 L 284 630 L 220 567 L 158 472 L 126 378 L 94.5 252 L 94.5 158 L 126 63 L 158 31.5 L 220 0 L 315 0 L 410 31.5 L 472 94.5 L 536 189 L 567 284 L 598 410 L 598 504 L 567 598 L 536 630 L 472 662 L 378 662 M 378 662 L 315 630 L 252 567 L 189 472 L 158 378 L 126 252 L 126 158 L 158 63 L 220 0 M 315 0 L 378 31.5 L 441 94.5 L 504 189 L 536 284 L 567 410 L 567 504 L 536 598 L 472 662" />
<glyph unicode="P" glyph-name="P" horiz-adv-x="724" d="M 284 662 L 94.5 0 M 315 662 L 126 0 M 189 662 L 567 662 L 662 630 L 693 567 L 693 504 L 662 410 L 598 346 L 472 315 L 220 315 M 567 662 L 630 630 L 662 567 L 662 504 L 630 410 L 567 346 L 472 315 M 0 0 L 220 0" />
<glyph unicode="Q" glyph-name="Q" horiz-adv-x="693" d="M 378 662 L 284 630 L 220 567 L 158 472 L 126 378 L 94.5 252 L 94.5 158 L 126 63 L 158 31.5 L 220 0 L 315 0 L 410 31.5 L 472 94.5 L 536 189 L 567 284 L 598 410 L 598 504 L 567 598 L 536 630 L 472 662 L 378 662 M 378 662 L 315 630 L 252 567 L 189 472 L 158 378 L 126 252 L 126 158 L 158 63 L 220 0 M 315 0 L 378 31.5 L 441 94.5 L 504 189 L 536 284 L 567 410 L 567 504 L 536 598 L 472 662 M 158 63 L 158 94.5 L 189 158 L 252 189 L 284 189 L 346 158 L 378 94.5 L 378 -126 L 410 -158 L 472 -158 L 504 -94.5 L 504 -63 M 378 94.5 L 410 -94.5 L 441 -126 L 472 -126 L 504 -94.5" />
<glyph unicode="R" glyph-name="R" horiz-adv-x="756" d="M 284 662 L 94.5 0 M 315 662 L 126 0 M 189 662 L 536 662 L 630 630 L 662 567 L 662 504 L 630 410 L 598 378 L 504 346 L 220 346 M 536 662 L 598 630 L 630 567 L 630 504 L 598 410 L 567 378 L 504 346 M 378 346 L 441 315 L 472 284 L 504 31.5 L 536 0 L 598 0 L 630 63 L 630 94.5 M 472 284 L 536 63 L 567 31.5 L 598 31.5 L 630 63 M 0 0 L 220 0" />
<glyph unicode="S" glyph-name="S" horiz-adv-x="724" d="M 598 598 L 630 598 L 662 662 L 630 472 L 630 536 L 598 598 L 567 630 L 472 662 L 346 662 L 252 630 L 189 567 L 189 504 L 220 441 L 252 410 L 472 284 L 536 220 M 189 504 L 252 441 L 472 315 L 504 284 L 536 220 L 536 126 L 504 63 L 472 31.5 L 378 0 L 252 0 L 158 31.5 L 126 63 L 94.5 126 L 94.5 189 L 63 0 L 94.5 63 L 126 63" />
<glyph unicode="T" glyph-name="T" horiz-adv-x="662" d="M 410 662 L 220 0 M 441 662 L 252 0 M 220 662 L 126 472 L 189 662 L 662 662 L 630 472 L 630 662 M 126 0 L 346 0" />
<glyph unicode="U" glyph-name="U" horiz-adv-x="788" d="M 252 662 L 158 315 L 126 189 L 126 94.5 L 158 31.5 L 252 0 L 378 0 L 472 31.5 L 536 94.5 L 567 189 L 693 662 M 284 662 L 189 315 L 158 189 L 158 94.5 L 189 31.5 L 252 0 M 158 662 L 378 662 M 598 662 L 788 662" />
<glyph unicode="V" glyph-name="V" horiz-adv-x="630" d="M 189 662 L 220 0 M 220 662 L 252 63 M 630 662 L 220 0 M 126 662 L 315 662 M 504 662 L 693 662" />
<glyph unicode="W" glyph-name="W" horiz-adv-x="819" d="M 252 662 L 189 0 M 284 662 L 220 63 M 504 662 L 189 0 M 504 662 L 441 0 M 536 662 L 472 63 M 756 662 L 441 0 M 158 662 L 378 662 M 662 662 L 850 662" />
<glyph unicode="X" glyph-name="X" horiz-adv-x="693" d="M 220 662 L 441 0 M 252 662 L 472 0 M 662 662 L 31.5 0 M 158 662 L 346 662 M 536 662 L 724 662 M -31.5 0 L 158 0 M 346 0 L 536 0" />
<glyph unicode="Y" glyph-name="Y" horiz-adv-x="662" d="M 189 662 L 315 346 L 220 0 M 220 662 L 346 346 L 252 0 M 662 662 L 346 346 M 126 662 L 315 662 M 536 662 L 724 662 M 126 0 L 346 0" />
<glyph unicode="Z" glyph-name="Z" horiz-adv-x="693" d="M 630 662 L 31.5 0 M 662 662 L 63 0 M 252 662 L 158 472 L 220 662 L 662 662 M 31.5 0 L 472 0 L 536 189 L 441 0" />
<glyph unicode="[" glyph-name="bracketleft" horiz-adv-x="441" d="M 126 788 L 126 -220 M 158 788 L 158 -220 M 126 788 L 346 788 M 126 -220 L 346 -220" />
<glyph unicode="\" glyph-name="backslash" horiz-adv-x="441" d="M 0 662 L 441 -94.5" />
<glyph unicode="]" glyph-name="bracketright" horiz-adv-x="441" d="M 284 788 L 284 -220 M 315 788 L 315 -220 M 94.5 788 L 315 788 M 94.5 -220 L 315 -220" />
<glyph unicode="^" glyph-name="asciicircum" horiz-adv-x="693" d="M 94.5 220 L 346 378 L 598 220 M 94.5 220 L 346 346 L 598 220" />
<glyph unicode="_" glyph-name="underscore" horiz-adv-x="630" d="M 0 -220 L 630 -220" />
<glyph unicode="`" glyph-name="grave" horiz-adv-x="378" d="M 126 662 L 284 472 M 126 662 L 94.5 630 L 284 472" />
<glyph unicode="a" glyph-name="a" horiz-adv-x="662" d="M 504 441 L 441 220 L 410 94.5 L 410 31.5 L 441 0 L 536 0 L 598 63 L 630 126 M 536 441 L 472 220 L 441 94.5 L 441 31.5 L 472 0 M 441 220 L 441 315 L 410 410 L 346 441 L 284 441 L 189 410 L 126 315 L 94.5 220 L 94.5 126 L 126 63 L 158 31.5 L 220 0 L 284 0 L 346 31.5 L 410 126 L 441 220 M 284 441 L 220 410 L 158 315 L 126 220 L 126 94.5 L 158 31.5" />
<glyph unicode="b" glyph-name="b" horiz-adv-x="598" d="M 252 662 L 126 252 L 126 158 L 158 63 L 189 31.5 M 284 662 L 158 252 M 158 252 L 189 346 L 252 410 L 315 441 L 378 441 L 441 410 L 472 378 L 504 315 L 504 220 L 472 126 L 410 31.5 L 315 0 L 252 0 L 189 31.5 L 158 126 L 158 252 M 441 410 L 472 346 L 472 220 L 441 126 L 378 31.5 L 315 0 M 158 662 L 284 662" />
<glyph unicode="c" glyph-name="c" horiz-adv-x="567" d="M 441 346 L 441 315 L 472 315 L 472 346 L 441 410 L 378 441 L 284 441 L 189 410 L 126 315 L 94.5 220 L 94.5 126 L 126 63 L 158 31.5 L 220 0 L 284 0 L 378 31.5 L 441 126 M 284 441 L 220 410 L 158 315 L 126 220 L 126 94.5 L 158 31.5" />
<glyph unicode="d" glyph-name="d" horiz-adv-x="662" d="M 567 662 L 441 220 L 410 94.5 L 410 31.5 L 441 0 L 536 0 L 598 63 L 630 126 M 598 662 L 472 220 L 441 94.5 L 441 31.5 L 472 0 M 441 220 L 441 315 L 410 410 L 346 441 L 284 441 L 189 410 L 126 315 L 94.5 220 L 94.5 126 L 126 63 L 158 31.5 L 220 0 L 284 0 L 346 31.5 L 410 126 L 441 220 M 284 441 L 220 410 L 158 315 L 126 220 L 126 94.5 L 158 31.5 M 472 662 L 598 662" />
<glyph unicode="e" glyph-name="e" horiz-adv-x="567" d="M 126 158 L 252 189 L 346 220 L 441 284 L 472 346 L 441 410 L 378 441 L 284 441 L 189 410 L 126 315 L 94.5 220 L 94.5 126 L 126 63 L 158 31.5 L 220 0 L 284 0 L 378 31.5 L 441 94.5 M 284 441 L 220 410 L 158 315 L 126 220 L 126 94.5 L 158 31.5" />
<glyph unicode="f" glyph-name="f" horiz-adv-x="472" d="M 472 630 L 441 598 L 472 567 L 504 598 L 504 630 L 472 662 L 410 662 L 346 630 L 315 598 L 284 536 L 252 441 L 158 0 L 126 -126 L 94.5 -189 M 410 662 L 346 598 L 315 536 L 284 410 L 220 126 L 189 0 L 158 -94.5 L 126 -158 L 94.5 -189 L 31.5 -220 L -31.5 -220 L -63 -189 L -63 -158 L -31.5 -126 L 0 -158 L -31.5 -189 M 126 441 L 441 441" />
<glyph unicode="g" glyph-name="g" horiz-adv-x="630" d="M 536 441 L 410 0 L 378 -94.5 L 315 -189 L 220 -220 L 126 -220 L 63 -189 L 31.5 -158 L 31.5 -126 L 63 -94.5 L 94.5 -126 L 63 -158 M 504 441 L 378 0 L 346 -94.5 L 284 -189 L 220 -220 M 441 220 L 441 315 L 410 410 L 346 441 L 284 441 L 189 410 L 126 315 L 94.5 220 L 94.5 126 L 126 63 L 158 31.5 L 220 0 L 284 0 L 346 31.5 L 410 126 L 441 220 M 284 441 L 220 410 L 158 315 L 126 220 L 126 94.5 L 158 31.5" />
<glyph unicode="h" glyph-name="h" horiz-adv-x="662" d="M 252 662 L 63 0 M 284 662 L 94.5 0 M 158 220 L 220 346 L 284 410 L 346 441 L 410 441 L 472 410 L 504 378 L 504 315 L 441 126 L 441 31.5 L 472 0 M 410 441 L 472 378 L 472 315 L 410 126 L 410 31.5 L 441 0 L 536 0 L 598 63 L 630 126 M 158 662 L 284 662" />
<glyph unicode="i" glyph-name="i" horiz-adv-x="410" d="M 284 662 L 252 630 L 284 598 L 315 630 L 284 662 M 31.5 315 L 63 378 L 126 441 L 220 441 L 252 410 L 252 315 L 189 126 L 189 31.5 L 220 0 M 189 441 L 220 410 L 220 315 L 158 126 L 158 31.5 L 189 0 L 284 0 L 346 63 L 378 126" />
<glyph unicode="j" glyph-name="j" horiz-adv-x="410" d="M 315 662 L 284 630 L 315 598 L 346 630 L 315 662 M 63 315 L 94.5 378 L 158 441 L 252 441 L 284 410 L 284 315 L 189 0 L 158 -94.5 L 126 -158 L 94.5 -189 L 31.5 -220 L -31.5 -220 L -63 -189 L -63 -158 L -31.5 -126 L 0 -158 L -31.5 -189 M 220 441 L 252 410 L 252 315 L 158 0 L 126 -94.5 L 94.5 -158 L 31.5 -220" />
<glyph unicode="k" glyph-name="k" horiz-adv-x="630" d="M 252 662 L 63 0 M 284 662 L 94.5 0 M 504 410 L 472 378 L 504 346 L 536 378 L 536 410 L 504 441 L 472 441 L 410 410 L 284 284 L 220 252 L 158 252 M 220 252 L 284 220 L 346 31.5 L 378 0 M 220 252 L 252 220 L 315 31.5 L 346 0 L 410 0 L 472 31.5 L 536 126 M 158 662 L 284 662" />
<glyph unicode="l" glyph-name="l" horiz-adv-x="378" d="M 252 662 L 126 220 L 94.5 94.5 L 94.5 31.5 L 126 0 L 220 0 L 284 63 L 315 126 M 284 662 L 158 220 L 126 94.5 L 126 31.5 L 158 0 M 158 662 L 284 662" />
<glyph unicode="m" glyph-name="m" horiz-adv-x="1039.5" d="M 31.5 315 L 63 378 L 126 441 L 220 441 L 252 410 L 252 346 L 220 220 L 158 0 M 189 441 L 220 410 L 220 346 L 189 220 L 126 0 M 220 220 L 284 346 L 346 410 L 410 441 L 472 441 L 536 410 L 567 378 L 567 315 L 472 0 M 472 441 L 536 378 L 536 315 L 441 0 M 536 220 L 598 346 L 662 410 L 724 441 L 788 441 L 850 410 L 882 378 L 882 315 L 819 126 L 819 31.5 L 850 0 M 788 441 L 850 378 L 850 315 L 788 126 L 788 31.5 L 819 0 L 914 0 L 976 63 L 1008.0 126" />
<glyph unicode="n" glyph-name="n" horiz-adv-x="724" d="M 31.5 315 L 63 378 L 126 441 L 220 441 L 252 410 L 252 346 L 220 220 L 158 0 M 189 441 L 220 410 L 220 346 L 189 220 L 126 0 M 220 220 L 284 346 L 346 410 L 410 441 L 472 441 L 536 410 L 567 378 L 567 315 L 504 126 L 504 31.5 L 536 0 M 472 441 L 536 378 L 536 315 L 472 126 L 472 31.5 L 504 0 L 598 0 L 662 63 L 693 126" />
<glyph unicode="o" glyph-name="o" horiz-adv-x="567" d="M 284 441 L 189 410 L 126 315 L 94.5 220 L 94.5 126 L 126 63 L 158 31.5 L 220 0 L 284 0 L 378 31.5 L 441 126 L 472 220 L 472 315 L 441 378 L 410 410 L 346 441 L 284 441 M 284 441 L 220 410 L 158 315 L 126 220 L 126 94.5 L 158 31.5 M 284 0 L 346 31.5 L 410 126 L 441 220 L 441 346 L 410 410" />
<glyph unicode="p" glyph-name="p" horiz-adv-x="662" d="M 31.5 315 L 63 378 L 126 441 L 220 441 L 252 410 L 252 346 L 220 220 L 94.5 -220 M 189 441 L 220 410 L 220 346 L 189 220 L 63 -220 M 220 220 L 252 315 L 315 410 L 378 441 L 441 441 L 504 410 L 536 378 L 567 315 L 567 220 L 536 126 L 472 31.5 L 378 0 L 315 0 L 252 31.5 L 220 126 L 220 220 M 504 410 L 536 346 L 536 220 L 504 126 L 441 31.5 L 378 0 M -31.5 -220 L 189 -220" />
<glyph unicode="q" glyph-name="q" horiz-adv-x="630" d="M 504 441 L 315 -220 M 536 441 L 346 -220 M 441 220 L 441 315 L 410 410 L 346 441 L 284 441 L 189 410 L 126 315 L 94.5 220 L 94.5 126 L 126 63 L 158 31.5 L 220 0 L 284 0 L 346 31.5 L 410 126 L 441 220 M 284 441 L 220 410 L 158 315 L 126 220 L 126 94.5 L 158 31.5 M 220 -220 L 441 -220" />
<glyph unicode="r" glyph-name="r" horiz-adv-x="536" d="M 31.5 315 L 63 378 L 126 441 L 220 441 L 252 410 L 252 346 L 220 220 L 158 0 M 189 441 L 220 410 L 220 346 L 189 220 L 126 0 M 220 220 L 284 346 L 346 410 L 410 441 L 472 441 L 504 410 L 504 378 L 472 346 L 441 378 L 472 410" />
<glyph unicode="s" glyph-name="s" horiz-adv-x="536" d="M 441 378 L 441 346 L 472 346 L 472 378 L 441 410 L 346 441 L 252 441 L 158 410 L 126 378 L 126 315 L 158 284 L 378 158 L 410 126 M 126 346 L 158 315 L 378 189 L 410 158 L 410 63 L 378 31.5 L 284 0 L 189 0 L 94.5 31.5 L 63 63 L 63 94.5 L 94.5 94.5 L 94.5 63" />
<glyph unicode="t" glyph-name="t" horiz-adv-x="441" d="M 284 662 L 158 220 L 126 94.5 L 126 31.5 L 158 0 L 252 0 L 315 63 L 346 126 M 315 662 L 189 220 L 158 94.5 L 158 31.5 L 189 0 M 94.5 441 L 378 441" />
<glyph unicode="u" glyph-name="u" horiz-adv-x="724" d="M 31.5 315 L 63 378 L 126 441 L 220 441 L 252 410 L 252 315 L 189 126 L 189 63 L 252 0 M 189 441 L 220 410 L 220 315 L 158 126 L 158 63 L 189 31.5 L 252 0 L 315 0 L 378 31.5 L 441 94.5 L 504 220 M 567 441 L 504 220 L 472 94.5 L 472 31.5 L 504 0 L 598 0 L 662 63 L 693 126 M 598 441 L 536 220 L 504 94.5 L 504 31.5 L 536 0" />
<glyph unicode="v" glyph-name="v" horiz-adv-x="630" d="M 31.5 315 L 63 378 L 126 441 L 220 441 L 252 410 L 252 315 L 189 126 L 189 63 L 252 0 M 189 441 L 220 410 L 220 315 L 158 126 L 158 63 L 189 31.5 L 252 0 L 284 0 L 378 31.5 L 441 94.5 L 504 189 L 536 315 L 536 441 L 504 441 L 536 378" />
<glyph unicode="w" glyph-name="w" horiz-adv-x="914" d="M 31.5 315 L 63 378 L 126 441 L 220 441 L 252 410 L 252 315 L 189 126 L 189 63 L 252 0 M 189 441 L 220 410 L 220 315 L 158 126 L 158 63 L 189 31.5 L 252 0 L 315 0 L 378 31.5 L 441 94.5 L 472 158 M 536 441 L 472 158 L 472 63 L 504 31.5 L 567 0 L 630 0 L 693 31.5 L 756 94.5 L 788 158 L 819 284 L 819 441 L 788 441 L 819 378 M 567 441 L 504 158 L 504 63 L 567 0" />
<glyph unicode="x" glyph-name="x" horiz-adv-x="630" d="M 94.5 315 L 158 410 L 220 441 L 315 441 L 346 378 L 346 284 M 284 441 L 315 378 L 315 284 L 284 158 L 252 94.5 L 189 31.5 L 126 0 L 94.5 0 L 63 31.5 L 63 63 L 94.5 94.5 L 126 63 L 94.5 31.5 M 284 158 L 284 63 L 315 0 L 410 0 L 472 31.5 L 536 126 M 536 410 L 504 378 L 536 346 L 567 378 L 567 410 L 536 441 L 504 441 L 441 410 L 378 346 L 346 284 L 315 158 L 315 63 L 346 0" />
<glyph unicode="y" glyph-name="y" horiz-adv-x="662" d="M 31.5 315 L 63 378 L 126 441 L 220 441 L 252 410 L 252 315 L 189 126 L 189 63 L 252 0 M 189 441 L 220 410 L 220 315 L 158 126 L 158 63 L 189 31.5 L 252 0 L 315 0 L 378 31.5 L 441 94.5 L 504 220 M 598 441 L 472 0 L 441 -94.5 L 378 -189 L 284 -220 L 189 -220 L 126 -189 L 94.5 -158 L 94.5 -126 L 126 -94.5 L 158 -126 L 126 -158 M 567 441 L 441 0 L 410 -94.5 L 346 -189 L 284 -220" />
<glyph unicode="z" glyph-name="z" horiz-adv-x="630" d="M 536 441 L 504 378 L 441 315 L 189 126 L 126 63 L 94.5 0 M 126 315 L 158 378 L 220 441 L 315 441 L 441 378 M 158 378 L 220 410 L 315 410 L 441 378 L 504 378 M 126 63 L 189 63 L 315 31.5 L 410 31.5 L 472 63 M 189 63 L 315 0 L 410 0 L 472 63 L 504 126" />
<glyph unicode="{" glyph-name="braceleft" horiz-adv-x="441" d="M 284 788 L 220 756 L 189 724 L 158 662 L 158 598 L 189 536 L 220 504 L 252 441 L 252 378 L 189 315 M 220 756 L 189 693 L 189 630 L 220 567 L 252 536 L 284 472 L 284 410 L 252 346 L 126 284 L 252 220 L 284 158 L 284 94.5 L 252 31.5 L 220 0 L 189 -63 L 189 -126 L 220 -189 M 189 252 L 252 189 L 252 126 L 220 63 L 189 31.5 L 158 -31.5 L 158 -94.5 L 189 -158 L 220 -189 L 284 -220" />
<glyph unicode="|" glyph-name="bar" horiz-adv-x="252" d="M 126 788 L 126 -220" />
<glyph unicode="}" glyph-name="braceright" horiz-adv-x="441" d="M 158 788 L 220 756 L 252 724 L 284 662 L 284 598 L 252 536 L 220 504 L 189 441 L 189 378 L 252 315 M 220 756 L 252 693 L 252 630 L 220 567 L 189 536 L 158 472 L 158 410 L 189 346 L 315 284 L 189 220 L 158 158 L 158 94.5 L 189 31.5 L 220 0 L 252 -63 L 252 -126 L 220 -189 M 252 252 L 189 189 L 189 126 L 220 63 L 252 31.5 L 284 -31.5 L 284 -94.5 L 252 -158 L 220 -189 L 158 -220" />
<glyph unicode="~" glyph-name="asciitilde" horiz-adv-x="756" d="M 94.5 189 L 94.5 252 L 126 346 L 189 378 L 252 378 L 315 346 L 441 252 L 504 220 L 567 220 L 630 252 L 662 315 M 94.5 252 L 126 315 L 189 346 L 252 346 L 315 315 L 441 220 L 504 189 L 567 189 L 630 220 L 662 315 L 662 378" />
<glyph unicode="&#xa0;" glyph-name="nbspace" horiz-adv-x="378" />
<glyph unicode="&#xa1;" glyph-name="exclamdown" horiz-adv-x="346" d="M 94.5 0 L 126 31.5 L 189 410 M 94.5 31.5 L 189 410 M 94.5 0 L 63 31.5 L 189 410 M 252 598 L 284 630 L 252 662 L 220 630 L 252 598" />
<glyph unicode="&#xa2;" glyph-name="cent" horiz-adv-x="485" d="M 441 346 L 441 315 L 472 315 L 472 346 L 441 410 L 378 441 L 284 441 L 189 410 L 126 315 L 94.5 220 L 94.5 126 L 126 63 L 158 31.5 L 220 0 L 284 0 L 378 31.5 L 441 126 M 284 441 L 220 410 L 158 315 L 126 220 L 126 94.5 L 158 31.5 M 485 595 L 88.2 -110" />
<glyph unicode="&#xa5;" glyph-name="yen" horiz-adv-x="662" d="M 189 662 L 315 346 L 220 0 M 220 662 L 346 346 L 252 0 M 662 662 L 346 346 M 126 662 L 315 662 M 536 662 L 724 662 M 126 0 L 346 0 M 132 189 L 472 189 M 132 265 L 472 265" />
<glyph unicode="&#xa6;" glyph-name="brokenbar" horiz-adv-x="75.6" d="M 208 236 L 208 -66.1 M 208 709 L 208 406" />
<glyph unicode="&#xa8;" glyph-name="dieresis" horiz-adv-x="567" d=" M 259 693 L 228 662 L 259 630 L 291 662 L 259 693 M 497 693 L 465 662 L 497 630 L 528 662 L 497 693" />
<glyph unicode="&#xa9;" glyph-name="copyright" horiz-adv-x="693" d="M 378 662 L 315 630 L 252 567 L 220 504 L 189 410 L 189 252 L 220 158 L 252 94.5 L 315 31.5 L 378 0 L 504 0 L 567 31.5 L 630 94.5 L 662 158 L 693 252 L 693 410 L 662 504 L 630 567 L 567 630 L 504 662 L 378 662 M 410 630 L 315 598 L 252 504 L 220 410 L 220 252 L 252 158 L 315 63 L 410 31.5 L 472 31.5 L 567 63 L 630 158 L 662 252 L 662 410 L 630 504 L 567 598 L 472 630 L 410 630 M 551 410 L 536 441 L 504 472 L 472 488 L 410 488 L 378 472 L 346 441 L 331 410 L 315 362 L 315 284 L 331 236 L 346 205 L 378 173 L 410 158 L 472 158 L 504 173 L 536 205 L 551 236 M 551 410 L 536 410 L 520 441 L 504 457 L 472 472 L 410 472 L 378 457 L 346 410 L 331 362 L 331 284 L 346 236 L 378 189 L 410 173 L 472 173 L 504 189 L 520 205 L 536 236 L 551 236" />
<glyph unicode="&#xaa;" glyph-name="ordfeminine" horiz-adv-x="331" d="M 378 850 L 346 740 L 331 677 L 331 646 L 346 630 L 394 630 L 425 662 L 441 693 M 394 850 L 362 740 L 346 677 L 346 646 L 362 630 M 346 740 L 346 788 L 331 835 L 299 850 L 268 850 L 220 835 L 189 788 L 173 740 L 173 693 L 189 662 L 205 646 L 236 630 L 268 630 L 299 646 L 331 693 L 346 740 M 268 850 L 236 835 L 205 788 L 189 740 L 189 677 L 205 646" />
<glyph unicode="&#xab;" glyph-name="guillemotleft" horiz-adv-x="454" d="M 252 454 L 50.4 227 L 252 0 M 378 454 L 176 227 L 378 0" />
<glyph unicode="&#xae;" glyph-name="registered" horiz-adv-x="693" d="M 378 662 L 315 630 L 252 567 L 220 504 L 189 410 L 189 252 L 220 158 L 252 94.5 L 315 31.5 L 378 0 L 504 0 L 567 31.5 L 630 94.5 L 662 158 L 693 252 L 693 410 L 662 504 L 630 567 L 567 630 L 504 662 L 378 662 M 410 630 L 315 598 L 252 504 L 220 410 L 220 252 L 252 158 L 315 63 L 410 31.5 L 472 31.5 L 567 63 L 630 158 L 662 252 L 662 410 L 630 504 L 567 598 L 472 630 L 410 630 M 331 488 L 331 158 M 346 472 L 346 158 L 331 158 M 331 488 L 457 488 L 504 472 L 520 457 L 536 425 L 536 378 L 520 346 L 504 331 L 457 315 L 346 315 M 346 472 L 457 472 L 504 457 L 520 425 L 520 378 L 504 346 L 457 331 L 346 331 M 425 315 L 520 158 L 536 158 M 441 315 L 536 158" />
<glyph unicode="&#xb0;" glyph-name="degree" horiz-adv-x="249" d="M 236 765 L 208 756 L 189 737 L 170 709 L 161 680 L 151 643 L 151 614 L 161 586 L 170 576 L 189 567 L 217 567 L 246 576 L 265 595 L 284 624 L 293 652 L 302 690 L 302 718 L 293 747 L 284 756 L 265 765 L 236 765 M 236 765 L 217 756 L 198 737 L 180 709 L 170 680 L 161 643 L 161 614 L 170 586 L 189 567 M 217 567 L 236 576 L 255 595 L 274 624 L 284 652 L 293 690 L 293 718 L 284 747 L 265 765" />
<glyph unicode="&#xb1;" glyph-name="plusminus" horiz-adv-x="655" d="M 554 37.8 L 1008.0 37.8 M 781 643 L 781 189 M 554 416 L 1008.0 416" />
<glyph unicode="&#xb2;" glyph-name="twosuperior" horiz-adv-x="331" d="M 236 898 L 252 882 L 236 866 L 220 882 L 220 898 L 236 929 L 252 945 L 299 961 L 346 961 L 394 945 L 410 914 L 410 882 L 394 850 L 362 819 L 315 788 L 252 756 L 205 724 L 173 693 L 142 630 M 346 961 L 378 945 L 394 914 L 394 882 L 378 850 L 346 819 L 252 756 M 158 662 L 173 677 L 205 677 L 284 646 L 331 646 L 362 662 L 378 693 M 205 677 L 284 630 L 331 630 L 362 646 L 378 693" />
<glyph unicode="&#xb3;" glyph-name="threesuperior" horiz-adv-x="331" d="M 236 898 L 252 882 L 236 866 L 220 882 L 220 898 L 236 929 L 252 945 L 299 961 L 346 961 L 394 945 L 410 914 L 410 882 L 394 850 L 346 819 L 299 803 M 346 961 L 378 945 L 394 914 L 394 882 L 378 850 L 346 819 M 268 803 L 299 803 L 346 788 L 362 772 L 378 740 L 378 693 L 362 662 L 346 646 L 299 630 L 236 630 L 189 646 L 173 662 L 158 693 L 158 709 L 173 724 L 189 709 L 173 693 M 299 803 L 331 788 L 346 772 L 362 740 L 362 693 L 346 662 L 331 646 L 299 630" />
<glyph unicode="&#xb4;" glyph-name="acute" horiz-adv-x="378" d=" M 410 788 L 252 598 M 410 788 L 441 756 L 252 598" />
<glyph unicode="&#xb7;" glyph-name="middot" horiz-adv-x="333" d="M 189 378 L 151 340 L 189 302 L 227 340 L 189 378" />
<glyph unicode="&#xb9;" glyph-name="onesuperior" horiz-adv-x="331" d="M 315 898 L 236 630 M 346 961 L 252 630 M 346 961 L 299 914 L 252 882 L 220 866 M 331 914 L 268 882 L 220 866" />
<glyph unicode="&#xba;" glyph-name="ordmasculine" horiz-adv-x="249" d="M 236 765 L 208 756 L 189 737 L 170 709 L 161 680 L 151 643 L 151 614 L 161 586 L 170 576 L 189 567 L 217 567 L 246 576 L 265 595 L 284 624 L 293 652 L 302 690 L 302 718 L 293 747 L 284 756 L 265 765 L 236 765 M 236 765 L 217 756 L 198 737 L 180 709 L 170 680 L 161 643 L 161 614 L 170 586 L 189 567 M 217 567 L 236 576 L 255 595 L 274 624 L 284 652 L 293 690 L 293 718 L 284 747 L 265 765" />
<glyph unicode="&#xbb;" glyph-name="guillemotright" horiz-adv-x="454" d="M 50.4 454 L 252 227 L 50.4 0 M 176 454 L 378 227 L 176 0" />
<glyph unicode="&#xbc;" glyph-name="onequarter" horiz-adv-x="714" d="M 227 699 L 132 378 M 265 775 L 151 378 M 265 775 L 208 718 L 151 680 L 113 662 M 246 718 L 170 680 L 113 662 M 693 788 L 126 -220 M 775 359 L 662 -18.9 M 794 378 L 680 -18.9 M 794 378 L 510 94.5 L 813 94.5" />
<glyph unicode="&#xbd;" glyph-name="onehalf" horiz-adv-x="714" d="M 227 699 L 132 378 M 265 775 L 151 378 M 265 775 L 208 718 L 151 680 L 113 662 M 246 718 L 170 680 L 113 662 M 693 788 L 126 -220 M 605 302 L 624 284 L 605 265 L 586 284 L 586 302 L 605 340 L 624 359 L 680 378 L 737 378 L 794 359 L 813 321 L 813 284 L 794 246 L 756 208 L 699 170 L 624 132 L 567 94.5 L 529 56.7 L 491 -18.9 M 737 378 L 775 359 L 794 321 L 794 284 L 775 246 L 737 208 L 624 132 M 510 18.9 L 529 37.8 L 567 37.8 L 662 0 L 718 0 L 756 18.9 L 775 56.7 M 567 37.8 L 662 -18.9 L 718 -18.9 L 756 0 L 775 56.7" />
<glyph unicode="&#xbe;" glyph-name="threequarters" horiz-adv-x="714" d="M 132 699 L 151 680 L 132 662 L 113 680 L 113 699 L 132 737 L 151 756 L 208 775 L 265 775 L 321 756 L 340 718 L 340 680 L 321 643 L 265 605 L 208 586 M 265 775 L 302 756 L 321 718 L 321 680 L 302 643 L 265 605 M 170 586 L 208 586 L 265 567 L 284 548 L 302 510 L 302 454 L 284 416 L 265 397 L 208 378 L 132 378 L 75.6 397 L 56.7 416 L 37.8 454 L 37.8 472 L 56.7 491 L 75.6 472 L 56.7 454 M 208 586 L 246 567 L 265 548 L 284 510 L 284 454 L 265 416 L 246 397 L 208 378 M 693 788 L 126 -220 M 775 359 L 662 -18.9 M 794 378 L 680 -18.9 M 794 378 L 510 94.5 L 813 94.5" />
<glyph unicode="&#xbf;" glyph-name="questiondown" horiz-adv-x="662" d="M 441 126 L 410 158 L 441 189 L 472 158 L 472 126 L 441 63 L 410 31.5 L 315 0 L 189 0 L 94.5 31.5 L 63 94.5 L 63 158 L 94.5 220 L 126 252 L 315 315 L 378 346 L 378 410 L 346 441 L 284 441 M 189 0 L 126 31.5 L 94.5 94.5 L 94.5 158 L 126 220 L 158 252 L 220 284 M 410 598 L 441 630 L 410 662 L 378 630 L 410 598" />
<glyph unicode="&#xc0;" glyph-name="Agrave" horiz-adv-x="630" d="M 410 662 L 0 0 M 410 662 L 441 0 M 378 598 L 410 0 M 126 189 L 410 189 M -63 0 L 126 0 M 315 0 L 504 0 M 284 1039.5 L 441 850 M 284 1039.5 L 252 1008.0 L 441 850" />
<glyph unicode="&#xc1;" glyph-name="Aacute" horiz-adv-x="630" d="M 410 662 L 0 0 M 410 662 L 441 0 M 378 598 L 410 0 M 126 189 L 410 189 M -63 0 L 126 0 M 315 0 L 504 0 M 630 1071.0 L 472 882 M 630 1071.0 L 662 1039.5 L 472 882" />
<glyph unicode="&#xc2;" glyph-name="Acircumflex" horiz-adv-x="630" d="M 410 662 L 0 0 M 410 662 L 441 0 M 378 598 L 410 0 M 126 189 L 410 189 M -63 0 L 126 0 M 315 0 L 504 0 M 246 813 L 397 907 L 548 813 M 246 813 L 397 888 L 548 813" />
<glyph unicode="&#xc3;" glyph-name="Atilde" horiz-adv-x="630" d="M 410 662 L 0 0 M 410 662 L 441 0 M 378 598 L 410 0 M 126 189 L 410 189 M -63 0 L 126 0 M 315 0 L 504 0 M 220 813 L 220 850 L 239 907 L 277 926 L 315 926 L 353 907 L 428 850 L 466 832 L 504 832 L 542 850 L 561 888 M 220 850 L 239 888 L 277 907 L 315 907 L 353 888 L 428 832 L 466 813 L 504 813 L 542 832 L 561 888 L 561 926" />
<glyph unicode="&#xc4;" glyph-name="Adieresis" horiz-adv-x="630" d="M 410 662 L 0 0 M 410 662 L 441 0 M 378 598 L 410 0 M 126 189 L 410 189 M -63 0 L 126 0 M 315 0 L 504 0 M 380 914 L 349 882 L 380 850 L 412 882 L 380 914 M 628 914 L 596 882 L 628 850 L 659 882 L 628 914" />
<glyph unicode="&#xc5;" glyph-name="Aring" horiz-adv-x="630" d="M 410 662 L 0 0 M 410 662 L 441 0 M 378 598 L 410 0 M 126 189 L 410 189 M -63 0 L 126 0 M 315 0 L 504 0 M 444 1048.9 L 416 1039.5 L 397 1020.6 L 378 992 L 369 964 L 359 926 L 359 898 L 369 869 L 378 860 L 397 850 L 425 850 L 454 860 L 472 879 L 491 907 L 501 936 L 510 973 L 510 1001.7 L 501 1030.0 L 491 1039.5 L 472 1048.9 L 444 1048.9 M 444 1048.9 L 425 1039.5 L 406 1020.6 L 387 992 L 378 964 L 369 926 L 369 898 L 378 869 L 397 850 M 425 850 L 444 860 L 463 879 L 482 907 L 491 936 L 501 973 L 501 1001.7 L 491 1030.0 L 472 1048.9" />
<glyph unicode="&#xc8;" glyph-name="Egrave" horiz-adv-x="724" d="M 284 662 L 94.5 0 M 315 662 L 126 0 M 441 472 L 378 220 M 189 662 L 662 662 L 630 472 L 630 662 M 220 346 L 410 346 M 0 0 L 472 0 L 536 158 L 441 0 M 331 1039.5 L 488 850 M 331 1039.5 L 299 1008.0 L 488 850" />
<glyph unicode="&#xc9;" glyph-name="Eacute" horiz-adv-x="724" d="M 284 662 L 94.5 0 M 315 662 L 126 0 M 441 472 L 378 220 M 189 662 L 662 662 L 630 472 L 630 662 M 220 346 L 410 346 M 0 0 L 472 0 L 536 158 L 441 0 M 677 1071.0 L 520 882 M 677 1071.0 L 709 1039.5 L 520 882" />
<glyph unicode="&#xca;" glyph-name="Ecircumflex" horiz-adv-x="724" d="M 284 662 L 94.5 0 M 315 662 L 126 0 M 441 472 L 378 220 M 189 662 L 662 662 L 630 472 L 630 662 M 220 346 L 410 346 M 0 0 L 472 0 L 536 158 L 441 0 M 274 813 L 425 907 L 576 813 M 274 813 L 425 888 L 576 813" />
<glyph unicode="&#xcb;" glyph-name="Edieresis" horiz-adv-x="724" d="M 284 662 L 94.5 0 M 315 662 L 126 0 M 441 472 L 378 220 M 189 662 L 662 662 L 630 472 L 630 662 M 220 346 L 410 346 M 0 0 L 472 0 L 536 158 L 441 0 M 432 914 L 400 882 L 432 850 L 463 882 L 432 914 M 671 914 L 639 882 L 671 850 L 702 882 L 671 914" />
<glyph unicode="&#xcc;" glyph-name="Igrave" horiz-adv-x="410" d="M 284 662 L 94.5 0 M 315 662 L 126 0 M 189 662 L 410 662 M 0 0 L 220 0 M 173 1039.5 L 331 850 M 173 1039.5 L 142 1008.0 L 331 850" />
<glyph unicode="&#xcd;" glyph-name="Iacute" horiz-adv-x="410" d="M 284 662 L 94.5 0 M 315 662 L 126 0 M 189 662 L 410 662 M 0 0 L 220 0 M 520 1071.0 L 362 882 M 520 1071.0 L 551 1039.5 L 362 882" />
<glyph unicode="&#xce;" glyph-name="Icircumflex" horiz-adv-x="410" d="M 284 662 L 94.5 0 M 315 662 L 126 0 M 189 662 L 410 662 M 0 0 L 220 0 M 180 813 L 331 907 L 482 813 M 180 813 L 331 888 L 482 813" />
<glyph unicode="&#xcf;" glyph-name="Idieresis" horiz-adv-x="410" d="M 284 662 L 94.5 0 M 315 662 L 126 0 M 189 662 L 410 662 M 0 0 L 220 0 M 264 914 L 233 882 L 264 850 L 296 882 L 264 914 M 523 914 L 492 882 L 523 850 L 555 882 L 523 914" />
<glyph unicode="&#xd0;" glyph-name="Eth" horiz-adv-x="724" d="M 63 252 L 346 252 M 284 662 L 94.5 0 M 315 662 L 126 0 M 189 662 L 472 662 L 567 630 L 598 598 L 630 504 L 630 378 L 598 252 L 536 126 L 472 63 L 410 31.5 L 284 0 L 0 0 M 472 662 L 536 630 L 567 598 L 598 504 L 598 378 L 567 252 L 504 126 L 441 63 L 378 31.5 L 284 0" />
<glyph unicode="&#xd1;" glyph-name="Ntilde" horiz-adv-x="788" d="M 284 662 L 94.5 0 M 284 662 L 504 94.5 M 284 567 L 504 0 M 693 662 L 504 0 M 189 662 L 284 662 M 598 662 L 788 662 M 0 0 L 189 0 M 309 813 L 309 850 L 328 907 L 365 926 L 403 926 L 441 907 L 517 850 L 554 832 L 592 832 L 630 850 L 649 888 M 309 850 L 328 888 L 365 907 L 403 907 L 441 888 L 517 832 L 554 813 L 592 813 L 630 832 L 649 888 L 649 926" />
<glyph unicode="&#xd2;" glyph-name="Ograve" horiz-adv-x="693" d="M 378 662 L 284 630 L 220 567 L 158 472 L 126 378 L 94.5 252 L 94.5 158 L 126 63 L 158 31.5 L 220 0 L 315 0 L 410 31.5 L 472 94.5 L 536 189 L 567 284 L 598 410 L 598 504 L 567 598 L 536 630 L 472 662 L 378 662 M 378 662 L 315 630 L 252 567 L 189 472 L 158 378 L 126 252 L 126 158 L 158 63 L 220 0 M 315 0 L 378 31.5 L 441 94.5 L 504 189 L 536 284 L 567 410 L 567 504 L 536 598 L 472 662 M 315 1039.5 L 472 850 M 315 1039.5 L 284 1008.0 L 472 850" />
<glyph unicode="&#xd3;" glyph-name="Oacute" horiz-adv-x="693" d="M 378 662 L 284 630 L 220 567 L 158 472 L 126 378 L 94.5 252 L 94.5 158 L 126 63 L 158 31.5 L 220 0 L 315 0 L 410 31.5 L 472 94.5 L 536 189 L 567 284 L 598 410 L 598 504 L 567 598 L 536 630 L 472 662 L 378 662 M 378 662 L 315 630 L 252 567 L 189 472 L 158 378 L 126 252 L 126 158 L 158 63 L 220 0 M 315 0 L 378 31.5 L 441 94.5 L 504 189 L 536 284 L 567 410 L 567 504 L 536 598 L 472 662 M 662 1071.0 L 504 882 M 662 1071.0 L 693 1039.5 L 504 882" />
<glyph unicode="&#xd4;" glyph-name="Ocircumflex" horiz-adv-x="693" d="M 378 662 L 284 630 L 220 567 L 158 472 L 126 378 L 94.5 252 L 94.5 158 L 126 63 L 158 31.5 L 220 0 L 315 0 L 410 31.5 L 472 94.5 L 536 189 L 567 284 L 598 410 L 598 504 L 567 598 L 536 630 L 472 662 L 378 662 M 378 662 L 315 630 L 252 567 L 189 472 L 158 378 L 126 252 L 126 158 L 158 63 L 220 0 M 315 0 L 378 31.5 L 441 94.5 L 504 189 L 536 284 L 567 410 L 567 504 L 536 598 L 472 662 M 265 813 L 416 907 L 567 813 M 265 813 L 416 888 L 567 813" />
<glyph unicode="&#xd5;" glyph-name="Otilde" horiz-adv-x="693" d="M 378 662 L 284 630 L 220 567 L 158 472 L 126 378 L 94.5 252 L 94.5 158 L 126 63 L 158 31.5 L 220 0 L 315 0 L 410 31.5 L 472 94.5 L 536 189 L 567 284 L 598 410 L 598 504 L 567 598 L 536 630 L 472 662 L 378 662 M 378 662 L 315 630 L 252 567 L 189 472 L 158 378 L 126 252 L 126 158 L 158 63 L 220 0 M 315 0 L 378 31.5 L 441 94.5 L 504 189 L 536 284 L 567 410 L 567 504 L 536 598 L 472 662 M 233 813 L 233 850 L 252 907 L 290 926 L 328 926 L 365 907 L 441 850 L 479 832 L 517 832 L 554 850 L 573 888 M 233 850 L 252 888 L 290 907 L 328 907 L 365 888 L 441 832 L 479 813 L 517 813 L 554 832 L 573 888 L 573 926" />
<glyph unicode="&#xd6;" glyph-name="Odieresis" horiz-adv-x="693" d="M 378 662 L 284 630 L 220 567 L 158 472 L 126 378 L 94.5 252 L 94.5 158 L 126 63 L 158 31.5 L 220 0 L 315 0 L 410 31.5 L 472 94.5 L 536 189 L 567 284 L 598 410 L 598 504 L 567 598 L 536 630 L 472 662 L 378 662 M 378 662 L 315 630 L 252 567 L 189 472 L 158 378 L 126 252 L 126 158 L 158 63 L 220 0 M 315 0 L 378 31.5 L 441 94.5 L 504 189 L 536 284 L 567 410 L 567 504 L 536 598 L 472 662 M 344 914 L 312 882 L 344 850 L 375 882 L 344 914 M 601 914 L 570 882 L 601 850 L 633 882 L 601 914" />
<glyph unicode="&#xd7;" glyph-name="multiply" horiz-adv-x="567" d="M 189 441 L 536 0 L 567 0 M 189 441 L 220 441 L 567 0 M 567 441 L 536 441 L 189 0 M 567 441 L 220 0 L 189 0" />
<glyph unicode="&#xd8;" glyph-name="Oslash" horiz-adv-x="693" d="M 378 662 L 284 630 L 220 567 L 158 472 L 126 378 L 94.5 252 L 94.5 158 L 126 63 L 158 31.5 L 220 0 L 315 0 L 410 31.5 L 472 94.5 L 536 189 L 567 284 L 598 410 L 598 504 L 567 598 L 536 630 L 472 662 L 378 662 M 378 662 L 315 630 L 252 567 L 189 472 L 158 378 L 126 252 L 126 158 L 158 63 L 220 0 M 315 0 L 378 31.5 L 441 94.5 L 504 189 L 536 284 L 567 410 L 567 504 L 536 598 L 472 662 M 595 765 L 85.1 -142" />
<glyph unicode="&#xd9;" glyph-name="Ugrave" horiz-adv-x="788" d="M 252 662 L 158 315 L 126 189 L 126 94.5 L 158 31.5 L 252 0 L 378 0 L 472 31.5 L 536 94.5 L 567 189 L 693 662 M 284 662 L 189 315 L 158 189 L 158 94.5 L 189 31.5 L 252 0 M 158 662 L 378 662 M 598 662 L 788 662 M 362 1039.5 L 520 850 M 362 1039.5 L 331 1008.0 L 520 850" />
<glyph unicode="&#xda;" glyph-name="Uacute" horiz-adv-x="788" d="M 252 662 L 158 315 L 126 189 L 126 94.5 L 158 31.5 L 252 0 L 378 0 L 472 31.5 L 536 94.5 L 567 189 L 693 662 M 284 662 L 189 315 L 158 189 L 158 94.5 L 189 31.5 L 252 0 M 158 662 L 378 662 M 598 662 L 788 662 M 709 1071.0 L 551 882 M 709 1071.0 L 740 1039.5 L 551 882" />
<glyph unicode="&#xdb;" glyph-name="Ucircumflex" horiz-adv-x="788" d="M 252 662 L 158 315 L 126 189 L 126 94.5 L 158 31.5 L 252 0 L 378 0 L 472 31.5 L 536 94.5 L 567 189 L 693 662 M 284 662 L 189 315 L 158 189 L 158 94.5 L 189 31.5 L 252 0 M 158 662 L 378 662 M 598 662 L 788 662 M 293 813 L 444 907 L 595 813 M 293 813 L 444 888 L 595 813" />
<glyph unicode="&#xdc;" glyph-name="Udieresis" horiz-adv-x="788" d="M 252 662 L 158 315 L 126 189 L 126 94.5 L 158 31.5 L 252 0 L 378 0 L 472 31.5 L 536 94.5 L 567 189 L 693 662 M 284 662 L 189 315 L 158 189 L 158 94.5 L 189 31.5 L 252 0 M 158 662 L 378 662 M 598 662 L 788 662 M 388 914 L 356 882 L 388 850 L 419 882 L 388 914 M 652 914 L 620 882 L 652 850 L 683 882 L 652 914" />
<glyph unicode="&#xdd;" glyph-name="Yacute" horiz-adv-x="662" d="M 189 662 L 315 346 L 220 0 M 220 662 L 346 346 L 252 0 M 662 662 L 346 346 M 126 662 L 315 662 M 536 662 L 724 662 M 126 0 L 346 0 M 646 1071.0 L 488 882 M 646 1071.0 L 677 1039.5 L 488 882" />
<glyph unicode="&#xe0;" glyph-name="agrave" horiz-adv-x="662" d="M 504 441 L 441 220 L 410 94.5 L 410 31.5 L 441 0 L 536 0 L 598 63 L 630 126 M 536 441 L 472 220 L 441 94.5 L 441 31.5 L 472 0 M 441 220 L 441 315 L 410 410 L 346 441 L 284 441 L 189 410 L 126 315 L 94.5 220 L 94.5 126 L 126 63 L 158 31.5 L 220 0 L 284 0 L 346 31.5 L 410 126 L 441 220 M 284 441 L 220 410 L 158 315 L 126 220 L 126 94.5 L 158 31.5 M 236 819 L 394 630 M 236 819 L 205 788 L 394 630" />
<glyph unicode="&#xe1;" glyph-name="aacute" horiz-adv-x="662" d="M 504 441 L 441 220 L 410 94.5 L 410 31.5 L 441 0 L 536 0 L 598 63 L 630 126 M 536 441 L 472 220 L 441 94.5 L 441 31.5 L 472 0 M 441 220 L 441 315 L 410 410 L 346 441 L 284 441 L 189 410 L 126 315 L 94.5 220 L 94.5 126 L 126 63 L 158 31.5 L 220 0 L 284 0 L 346 31.5 L 410 126 L 441 220 M 284 441 L 220 410 L 158 315 L 126 220 L 126 94.5 L 158 31.5 M 551 788 L 394 598 M 551 788 L 583 756 L 394 598" />
<glyph unicode="&#xe2;" glyph-name="acircumflex" horiz-adv-x="662" d="M 504 441 L 441 220 L 410 94.5 L 410 31.5 L 441 0 L 536 0 L 598 63 L 630 126 M 536 441 L 472 220 L 441 94.5 L 441 31.5 L 472 0 M 441 220 L 441 315 L 410 410 L 346 441 L 284 441 L 189 410 L 126 315 L 94.5 220 L 94.5 126 L 126 63 L 158 31.5 L 220 0 L 284 0 L 346 31.5 L 410 126 L 441 220 M 284 441 L 220 410 L 158 315 L 126 220 L 126 94.5 L 158 31.5 M 198 567 L 350 662 L 501 567 M 198 567 L 350 643 L 501 567" />
<glyph unicode="&#xe3;" glyph-name="atilde" horiz-adv-x="662" d="M 504 441 L 441 220 L 410 94.5 L 410 31.5 L 441 0 L 536 0 L 598 63 L 630 126 M 536 441 L 472 220 L 441 94.5 L 441 31.5 L 472 0 M 441 220 L 441 315 L 410 410 L 346 441 L 284 441 L 189 410 L 126 315 L 94.5 220 L 94.5 126 L 126 63 L 158 31.5 L 220 0 L 284 0 L 346 31.5 L 410 126 L 441 220 M 284 441 L 220 410 L 158 315 L 126 220 L 126 94.5 L 158 31.5 M 189 605 L 189 643 L 208 699 L 246 718 L 284 718 L 321 699 L 397 643 L 435 624 L 472 624 L 510 643 L 529 680 M 189 643 L 208 680 L 246 699 L 284 699 L 321 680 L 397 624 L 435 605 L 472 605 L 510 624 L 529 680 L 529 718" />
<glyph unicode="&#xe4;" glyph-name="adieresis" horiz-adv-x="662" d="M 504 441 L 441 220 L 410 94.5 L 410 31.5 L 441 0 L 536 0 L 598 63 L 630 126 M 536 441 L 472 220 L 441 94.5 L 441 31.5 L 472 0 M 441 220 L 441 315 L 410 410 L 346 441 L 284 441 L 189 410 L 126 315 L 94.5 220 L 94.5 126 L 126 63 L 158 31.5 L 220 0 L 284 0 L 346 31.5 L 410 126 L 441 220 M 284 441 L 220 410 L 158 315 L 126 220 L 126 94.5 L 158 31.5 M 295 693 L 264 662 L 295 630 L 327 662 L 295 693 M 555 693 L 524 662 L 555 630 L 587 662 L 555 693" />
<glyph unicode="&#xe5;" glyph-name="aring" horiz-adv-x="662" d="M 504 441 L 441 220 L 410 94.5 L 410 31.5 L 441 0 L 536 0 L 598 63 L 630 126 M 536 441 L 472 220 L 441 94.5 L 441 31.5 L 472 0 M 441 220 L 441 315 L 410 410 L 346 441 L 284 441 L 189 410 L 126 315 L 94.5 220 L 94.5 126 L 126 63 L 158 31.5 L 220 0 L 284 0 L 346 31.5 L 410 126 L 441 220 M 284 441 L 220 410 L 158 315 L 126 220 L 126 94.5 L 158 31.5 M 350 860 L 321 850 L 302 832 L 284 803 L 274 775 L 265 737 L 265 709 L 274 680 L 284 671 L 302 662 L 331 662 L 359 671 L 378 690 L 397 718 L 406 747 L 416 784 L 416 813 L 406 841 L 397 850 L 378 860 L 350 860 M 350 860 L 331 850 L 312 832 L 293 803 L 284 775 L 274 737 L 274 709 L 284 680 L 302 662 M 331 662 L 350 671 L 369 690 L 387 718 L 397 747 L 406 784 L 406 813 L 397 841 L 378 860" />
<glyph unicode="&#xe8;" glyph-name="egrave" horiz-adv-x="567" d="M 126 158 L 252 189 L 346 220 L 441 284 L 472 346 L 441 410 L 378 441 L 284 441 L 189 410 L 126 315 L 94.5 220 L 94.5 126 L 126 63 L 158 31.5 L 220 0 L 284 0 L 378 31.5 L 441 94.5 M 284 441 L 220 410 L 158 315 L 126 220 L 126 94.5 L 158 31.5 M 189 819 L 346 630 M 189 819 L 158 788 L 346 630" />
<glyph unicode="&#xe9;" glyph-name="eacute" horiz-adv-x="567" d="M 126 158 L 252 189 L 346 220 L 441 284 L 472 346 L 441 410 L 378 441 L 284 441 L 189 410 L 126 315 L 94.5 220 L 94.5 126 L 126 63 L 158 31.5 L 220 0 L 284 0 L 378 31.5 L 441 94.5 M 284 441 L 220 410 L 158 315 L 126 220 L 126 94.5 L 158 31.5 M 504 788 L 346 598 M 504 788 L 536 756 L 346 598" />
<glyph unicode="&#xea;" glyph-name="ecircumflex" horiz-adv-x="567" d="M 126 158 L 252 189 L 346 220 L 441 284 L 472 346 L 441 410 L 378 441 L 284 441 L 189 410 L 126 315 L 94.5 220 L 94.5 126 L 126 63 L 158 31.5 L 220 0 L 284 0 L 378 31.5 L 441 94.5 M 284 441 L 220 410 L 158 315 L 126 220 L 126 94.5 L 158 31.5 M 170 567 L 321 662 L 472 567 M 170 567 L 321 643 L 472 567" />
<glyph unicode="&#xeb;" glyph-name="edieresis" horiz-adv-x="567" d="M 126 158 L 252 189 L 346 220 L 441 284 L 472 346 L 441 410 L 378 441 L 284 441 L 189 410 L 126 315 L 94.5 220 L 94.5 126 L 126 63 L 158 31.5 L 220 0 L 284 0 L 378 31.5 L 441 94.5 M 284 441 L 220 410 L 158 315 L 126 220 L 126 94.5 L 158 31.5 M 248 693 L 217 662 L 248 630 L 280 662 L 248 693 M 508 693 L 476 662 L 508 630 L 539 662 L 508 693" />
<glyph unicode="&#xec;" glyph-name="igrave" horiz-adv-x="410" d="M 31.5 315 L 63 378 L 126 441 L 220 441 L 252 410 L 252 315 L 189 126 L 189 31.5 L 220 0 M 189 441 L 220 410 L 220 315 L 158 126 L 158 31.5 L 189 0 L 284 0 L 346 63 L 378 126 M 110 819 L 268 630 M 110 819 L 78.8 788 L 268 630" />
<glyph unicode="&#xed;" glyph-name="iacute" horiz-adv-x="410" d="M 31.5 315 L 63 378 L 126 441 L 220 441 L 252 410 L 252 315 L 189 126 L 189 31.5 L 220 0 M 189 441 L 220 410 L 220 315 L 158 126 L 158 31.5 L 189 0 L 284 0 L 346 63 L 378 126 M 425 788 L 268 598 M 425 788 L 457 756 L 268 598" />
<glyph unicode="&#xee;" glyph-name="icircumflex" horiz-adv-x="410" d="M 31.5 315 L 63 378 L 126 441 L 220 441 L 252 410 L 252 315 L 189 126 L 189 31.5 L 220 0 M 189 441 L 220 410 L 220 315 L 158 126 L 158 31.5 L 189 0 L 284 0 L 346 63 L 378 126 M 123 567 L 274 662 L 425 567 M 123 567 L 274 643 L 425 567" />
<glyph unicode="&#xef;" glyph-name="idieresis" horiz-adv-x="410" d="M 31.5 315 L 63 378 L 126 441 L 220 441 L 252 410 L 252 315 L 189 126 L 189 31.5 L 220 0 M 189 441 L 220 410 L 220 315 L 158 126 L 158 31.5 L 189 0 L 284 0 L 346 63 L 378 126 M 181 693 L 149 662 L 181 630 L 212 662 L 181 693 M 418 693 L 386 662 L 418 630 L 449 662 L 418 693" />
<glyph unicode="&#xf1;" glyph-name="ntilde" horiz-adv-x="724" d="M 31.5 315 L 63 378 L 126 441 L 220 441 L 252 410 L 252 346 L 220 220 L 158 0 M 189 441 L 220 410 L 220 346 L 189 220 L 126 0 M 220 220 L 284 346 L 346 410 L 410 441 L 472 441 L 536 410 L 567 378 L 567 315 L 504 126 L 504 31.5 L 536 0 M 472 441 L 536 378 L 536 315 L 472 126 L 472 31.5 L 504 0 L 598 0 L 662 63 L 693 126 M 202 605 L 202 643 L 220 699 L 258 718 L 296 718 L 334 699 L 410 643 L 447 624 L 485 624 L 523 643 L 542 680 M 202 643 L 220 680 L 258 699 L 296 699 L 334 680 L 410 624 L 447 605 L 485 605 L 523 624 L 542 680 L 542 718" />
<glyph unicode="&#xf2;" glyph-name="ograve" horiz-adv-x="567" d="M 284 441 L 189 410 L 126 315 L 94.5 220 L 94.5 126 L 126 63 L 158 31.5 L 220 0 L 284 0 L 378 31.5 L 441 126 L 472 220 L 472 315 L 441 378 L 410 410 L 346 441 L 284 441 M 284 441 L 220 410 L 158 315 L 126 220 L 126 94.5 L 158 31.5 M 284 0 L 346 31.5 L 410 126 L 441 220 L 441 346 L 410 410 M 189 819 L 346 630 M 189 819 L 158 788 L 346 630" />
<glyph unicode="&#xf3;" glyph-name="oacute" horiz-adv-x="567" d="M 284 441 L 189 410 L 126 315 L 94.5 220 L 94.5 126 L 126 63 L 158 31.5 L 220 0 L 284 0 L 378 31.5 L 441 126 L 472 220 L 472 315 L 441 378 L 410 410 L 346 441 L 284 441 M 284 441 L 220 410 L 158 315 L 126 220 L 126 94.5 L 158 31.5 M 284 0 L 346 31.5 L 410 126 L 441 220 L 441 346 L 410 410 M 504 788 L 346 598 M 504 788 L 536 756 L 346 598" />
<glyph unicode="&#xf4;" glyph-name="ocircumflex" horiz-adv-x="567" d="M 284 441 L 189 410 L 126 315 L 94.5 220 L 94.5 126 L 126 63 L 158 31.5 L 220 0 L 284 0 L 378 31.5 L 441 126 L 472 220 L 472 315 L 441 378 L 410 410 L 346 441 L 284 441 M 284 441 L 220 410 L 158 315 L 126 220 L 126 94.5 L 158 31.5 M 284 0 L 346 31.5 L 410 126 L 441 220 L 441 346 L 410 410 M 170 567 L 321 662 L 472 567 M 170 567 L 321 643 L 472 567" />
<glyph unicode="&#xf5;" glyph-name="otilde" horiz-adv-x="567" d="M 284 441 L 189 410 L 126 315 L 94.5 220 L 94.5 126 L 126 63 L 158 31.5 L 220 0 L 284 0 L 378 31.5 L 441 126 L 472 220 L 472 315 L 441 378 L 410 410 L 346 441 L 284 441 M 284 441 L 220 410 L 158 315 L 126 220 L 126 94.5 L 158 31.5 M 284 0 L 346 31.5 L 410 126 L 441 220 L 441 346 L 410 410 M 170 605 L 170 643 L 189 699 L 227 718 L 265 718 L 302 699 L 378 643 L 416 624 L 454 624 L 491 643 L 510 680 M 170 643 L 189 680 L 227 699 L 265 699 L 302 680 L 378 624 L 416 605 L 454 605 L 491 624 L 510 680 L 510 718" />
<glyph unicode="&#xf6;" glyph-name="odieresis" horiz-adv-x="567" d="M 284 441 L 189 410 L 126 315 L 94.5 220 L 94.5 126 L 126 63 L 158 31.5 L 220 0 L 284 0 L 378 31.5 L 441 126 L 472 220 L 472 315 L 441 378 L 410 410 L 346 441 L 284 441 M 284 441 L 220 410 L 158 315 L 126 220 L 126 94.5 L 158 31.5 M 284 0 L 346 31.5 L 410 126 L 441 220 L 441 346 L 410 410 M 257 693 L 225 662 L 257 630 L 288 662 L 257 693 M 499 693 L 468 662 L 499 630 L 531 662 L 499 693" />
<glyph unicode="&#xf7;" glyph-name="divide" horiz-adv-x="614" d="M 315 551 L 284 520 L 315 488 L 346 520 L 315 551 M 315 268 L 284 236 L 315 205 L 346 236 L 315 268 M 94.5 378 L 520 378" />
<glyph unicode="&#xf8;" glyph-name="oslash" horiz-adv-x="567" d="M 284 441 L 189 410 L 126 315 L 94.5 220 L 94.5 126 L 126 63 L 158 31.5 L 220 0 L 284 0 L 378 31.5 L 441 126 L 472 220 L 472 315 L 441 378 L 410 410 L 346 441 L 284 441 M 284 441 L 220 410 L 158 315 L 126 220 L 126 94.5 L 158 31.5 M 284 0 L 346 31.5 L 410 126 L 441 220 L 441 346 L 410 410 M 463 551 L 66.1 -154" />
<glyph unicode="&#xf9;" glyph-name="ugrave" horiz-adv-x="724" d="M 31.5 315 L 63 378 L 126 441 L 220 441 L 252 410 L 252 315 L 189 126 L 189 63 L 252 0 M 189 441 L 220 410 L 220 315 L 158 126 L 158 63 L 189 31.5 L 252 0 L 315 0 L 378 31.5 L 441 94.5 L 504 220 M 567 441 L 504 220 L 472 94.5 L 472 31.5 L 504 0 L 598 0 L 662 63 L 693 126 M 598 441 L 536 220 L 504 94.5 L 504 31.5 L 536 0 M 268 819 L 425 630 M 268 819 L 236 788 L 425 630" />
<glyph unicode="&#xfa;" glyph-name="uacute" horiz-adv-x="724" d="M 31.5 315 L 63 378 L 126 441 L 220 441 L 252 410 L 252 315 L 189 126 L 189 63 L 252 0 M 189 441 L 220 410 L 220 315 L 158 126 L 158 63 L 189 31.5 L 252 0 L 315 0 L 378 31.5 L 441 94.5 L 504 220 M 567 441 L 504 220 L 472 94.5 L 472 31.5 L 504 0 L 598 0 L 662 63 L 693 126 M 598 441 L 536 220 L 504 94.5 L 504 31.5 L 536 0 M 583 788 L 425 598 M 583 788 L 614 756 L 425 598" />
<glyph unicode="&#xfb;" glyph-name="ucircumflex" horiz-adv-x="724" d="M 31.5 315 L 63 378 L 126 441 L 220 441 L 252 410 L 252 315 L 189 126 L 189 63 L 252 0 M 189 441 L 220 410 L 220 315 L 158 126 L 158 63 L 189 31.5 L 252 0 L 315 0 L 378 31.5 L 441 94.5 L 504 220 M 567 441 L 504 220 L 472 94.5 L 472 31.5 L 504 0 L 598 0 L 662 63 L 693 126 M 598 441 L 536 220 L 504 94.5 L 504 31.5 L 536 0 M 217 567 L 369 662 L 520 567 M 217 567 L 369 643 L 520 567" />
<glyph unicode="&#xfc;" glyph-name="udieresis" horiz-adv-x="724" d="M 31.5 315 L 63 378 L 126 441 L 220 441 L 252 410 L 252 315 L 189 126 L 189 63 L 252 0 M 189 441 L 220 410 L 220 315 L 158 126 L 158 63 L 189 31.5 L 252 0 L 315 0 L 378 31.5 L 441 94.5 L 504 220 M 567 441 L 504 220 L 472 94.5 L 472 31.5 L 504 0 L 598 0 L 662 63 L 693 126 M 598 441 L 536 220 L 504 94.5 L 504 31.5 L 536 0 M 335 693 L 304 662 L 335 630 L 367 662 L 335 693 M 578 693 L 547 662 L 578 630 L 610 662 L 578 693" />
<glyph unicode="&#xfd;" glyph-name="yacute" horiz-adv-x="662" d="M 31.5 315 L 63 378 L 126 441 L 220 441 L 252 410 L 252 315 L 189 126 L 189 63 L 252 0 M 189 441 L 220 410 L 220 315 L 158 126 L 158 63 L 189 31.5 L 252 0 L 315 0 L 378 31.5 L 441 94.5 L 504 220 M 598 441 L 472 0 L 441 -94.5 L 378 -189 L 284 -220 L 189 -220 L 126 -189 L 94.5 -158 L 94.5 -126 L 126 -94.5 L 158 -126 L 126 -158 M 567 441 L 441 0 L 410 -94.5 L 346 -189 L 284 -220 M 551 788 L 394 598 M 551 788 L 583 756 L 394 598" />
<glyph unicode="&#xff;" glyph-name="ydieresis" horiz-adv-x="662" d="M 31.5 315 L 63 378 L 126 441 L 220 441 L 252 410 L 252 315 L 189 126 L 189 63 L 252 0 M 189 441 L 220 410 L 220 315 L 158 126 L 158 63 L 189 31.5 L 252 0 L 315 0 L 378 31.5 L 441 94.5 L 504 220 M 598 441 L 472 0 L 441 -94.5 L 378 -189 L 284 -220 L 189 -220 L 126 -189 L 94.5 -158 L 94.5 -126 L 126 -94.5 L 158 -126 L 126 -158 M 567 441 L 441 0 L 410 -94.5 L 346 -189 L 284 -220 M 296 693 L 265 662 L 296 630 L 328 662 L 296 693 M 554 693 L 523 662 L 554 630 L 586 662 L 554 693" />
<glyph unicode="&#x2013;" glyph-name="endash" horiz-adv-x="614" d="M 94.5 284 L 520 284" />
<glyph unicode="&#x2014;" glyph-name="emdash" horiz-adv-x="819" d="M 126 284 L 693 284" />
<glyph unicode="&#x201c;" glyph-name="quotedblleft" horiz-adv-x="472" d="M 170 709 L 241 539 M 170 709 L 156 680 L 241 539 M 312 709 L 383 539 M 312 709 L 298 680 L 383 539" />
<glyph unicode="&#x201d;" glyph-name="quotedblright" horiz-adv-x="472" d="M 170 652 L 99.2 482 M 170 652 L 184 624 L 99.2 482 M 312 652 L 241 482 M 312 652 L 326 624 L 241 482" />
<glyph unicode="&#x2039;" glyph-name="guilsinglleft" horiz-adv-x="302" d="M 252 454 L 50.4 227 L 252 0" />
<glyph unicode="&#x203a;" glyph-name="guilsinglright" horiz-adv-x="302" d="M 50.4 454 L 252 227 L 50.4 0" />
<glyph unicode="&#x20ac;" glyph-name="Euro" horiz-adv-x="662" d="M 567 598 L 598 598 L 630 662 L 598 472 L 598 536 L 567 598 L 536 630 L 472 662 L 378 662 L 284 630 L 220 567 L 158 472 L 126 378 L 94.5 252 L 94.5 158 L 126 63 L 158 31.5 L 252 0 L 346 0 L 410 31.5 L 472 94.5 L 504 158 M 378 662 L 315 630 L 252 567 L 189 472 L 158 378 L 126 252 L 126 158 L 158 63 L 189 31.5 L 252 0 M 37.8 227 L 378 227 M 37.8 302 L 378 302" />
<glyph unicode="&#x0178;" glyph-name="Ydieresis" horiz-adv-x="662" d="M 189 662 L 315 346 L 220 0 M 220 662 L 346 346 L 252 0 M 662 662 L 346 346 M 126 662 L 315 662 M 536 662 L 724 662 M 126 0 L 346 0 M 333 914 L 301 882 L 333 850 L 364 882 L 333 914 M 581 914 L 549 882 L 581 850 L 612 882 L 581 914" />
<glyph unicode="&#x102;" glyph-name="Abreve" horiz-adv-x="630" d="M 410 662 L 0 0 M 410 662 L 441 0 M 378 598 L 410 0 M 126 189 L 410 189 M -63 0 L 126 0 M 315 0 L 504 0 M253.892 986.229C253.892 986.229 361.49 880 431.281 880C501.071 880 608.669 986.229 608.669 986.229M253.892 986.229C253.892 986.229 365.172 901.515 431.281 901.515C497.39 901.515 608.669 986.229 608.669 986.229" />
<glyph unicode="&#x114;" glyph-name="Ebreve" horiz-adv-x="724" d="M 284 662 L 94.5 0 M 315 662 L 126 0 M 441 472 L 378 220 M 189 662 L 662 662 L 630 472 L 630 662 M 220 346 L 410 346 M 0 0 L 472 0 L 536 158 L 441 0 M283.892 986.229C283.892 986.229 391.49 880 461.281 880C531.071 880 638.669 986.229 638.669 986.229M283.892 986.229C283.892 986.229 395.172 901.515 461.281 901.515C527.39 901.515 638.669 986.229 638.669 986.229" />
<glyph unicode="&#x11E;" glyph-name="Gbreve" horiz-adv-x="693" d="M 567 598 L 598 598 L 630 662 L 598 472 L 598 536 L 567 598 L 536 630 L 472 662 L 378 662 L 284 630 L 220 567 L 158 472 L 126 378 L 94.5 252 L 94.5 158 L 126 63 L 158 31.5 L 252 0 L 315 0 L 410 31.5 L 472 94.5 L 536 220 M 378 662 L 315 630 L 252 567 L 189 472 L 158 378 L 126 252 L 126 158 L 158 63 L 189 31.5 L 252 0 M 315 0 L 378 31.5 L 441 94.5 L 504 220 M 410 220 L 630 220 M273.892 986.229C273.892 986.229 381.49 880 451.281 880C521.071 880 628.669 986.229 628.669 986.229M273.892 986.229C273.892 986.229 385.172 901.515 451.281 901.515C517.39 901.515 628.669 986.229 628.669 986.229" />
<glyph unicode="&#x12C;" glyph-name="Ibreve" horiz-adv-x="410" d="M 284 662 L 94.5 0 M 315 662 L 126 0 M 189 662 L 410 662 M 0 0 L 220 0 M183.892 986.229C183.892 986.229 291.49 880 361.281 880C431.071 880 538.669 986.229 538.669 986.229M183.892 986.229C183.892 986.229 295.172 901.515 361.281 901.515C427.39 901.515 538.669 986.229 538.669 986.229" />
<glyph unicode="&#x14E;" glyph-name="Obreve" horiz-adv-x="693" d="M 378 662 L 284 630 L 220 567 L 158 472 L 126 378 L 94.5 252 L 94.5 158 L 126 63 L 158 31.5 L 220 0 L 315 0 L 410 31.5 L 472 94.5 L 536 189 L 567 284 L 598 410 L 598 504 L 567 598 L 536 630 L 472 662 L 378 662 M 378 662 L 315 630 L 252 567 L 189 472 L 158 378 L 126 252 L 126 158 L 158 63 L 220 0 M 315 0 L 378 31.5 L 441 94.5 L 504 189 L 536 284 L 567 410 L 567 504 L 536 598 L 472 662 M273.892 986.229C273.892 986.229 381.49 880 451.281 880C521.071 880 628.669 986.229 628.669 986.229M273.892 986.229C273.892 986.229 385.172 901.515 451.281 901.515C517.39 901.515 628.669 986.229 628.669 986.229" />
<glyph unicode="&#x16C;" glyph-name="Ubreve" horiz-adv-x="788" d="M 252 662 L 158 315 L 126 189 L 126 94.5 L 158 31.5 L 252 0 L 378 0 L 472 31.5 L 536 94.5 L 567 189 L 693 662 M 284 662 L 189 315 L 158 189 L 158 94.5 L 189 31.5 L 252 0 M 158 662 L 378 662 M 598 662 L 788 662 M303.892 986.229C303.892 986.229 411.49 880 481.281 880C551.071 880 658.669 986.229 658.669 986.229M303.892 986.229C303.892 986.229 415.172 901.515 481.281 901.515C547.39 901.515 658.669 986.229 658.669 986.229" />
<glyph unicode="&#x103;" glyph-name="abreve" horiz-adv-x="662" d="M 504 441 L 441 220 L 410 94.5 L 410 31.5 L 441 0 L 536 0 L 598 63 L 630 126 M 536 441 L 472 220 L 441 94.5 L 441 31.5 L 472 0 M 441 220 L 441 315 L 410 410 L 346 441 L 284 441 L 189 410 L 126 315 L 94.5 220 L 94.5 126 L 126 63 L 158 31.5 L 220 0 L 284 0 L 346 31.5 L 410 126 L 441 220 M 284 441 L 220 410 L 158 315 L 126 220 L 126 94.5 L 158 31.5 M223.892 746.229C223.892 746.229 331.49 640 401.281 640C471.071 640 578.669 746.229 578.669 746.229M223.892 746.229C223.892 746.229 335.172 661.515 401.281 661.515C467.39 661.515 578.669 746.229 578.669 746.229" />
<glyph unicode="&#x115;" glyph-name="ebreve" horiz-adv-x="567" d="M 126 158 L 252 189 L 346 220 L 441 284 L 472 346 L 441 410 L 378 441 L 284 441 L 189 410 L 126 315 L 94.5 220 L 94.5 126 L 126 63 L 158 31.5 L 220 0 L 284 0 L 378 31.5 L 441 94.5 M 284 441 L 220 410 L 158 315 L 126 220 L 126 94.5 L 158 31.5 M193.892 746.229C193.892 746.229 301.49 640 371.281 640C441.071 640 548.669 746.229 548.669 746.229M193.892 746.229C193.892 746.229 305.172 661.515 371.281 661.515C437.39 661.515 548.669 746.229 548.669 746.229" />
<glyph unicode="&#x11F;" glyph-name="gbreve" horiz-adv-x="630" d="M 536 441 L 410 0 L 378 -94.5 L 315 -189 L 220 -220 L 126 -220 L 63 -189 L 31.5 -158 L 31.5 -126 L 63 -94.5 L 94.5 -126 L 63 -158 M 504 441 L 378 0 L 346 -94.5 L 284 -189 L 220 -220 M 441 220 L 441 315 L 410 410 L 346 441 L 284 441 L 189 410 L 126 315 L 94.5 220 L 94.5 126 L 126 63 L 158 31.5 L 220 0 L 284 0 L 346 31.5 L 410 126 L 441 220 M 284 441 L 220 410 L 158 315 L 126 220 L 126 94.5 L 158 31.5 M213.892 746.229C213.892 746.229 321.49 640 391.281 640C461.071 640 568.669 746.229 568.669 746.229M213.892 746.229C213.892 746.229 325.172 661.515 391.281 661.515C457.39 661.515 568.669 746.229 568.669 746.229" />
<glyph unicode="&#x12D;" glyph-name="ibreve" horiz-adv-x="410" d="M 31.5 315 L 63 378 L 126 441 L 220 441 L 252 410 L 252 315 L 189 126 L 189 31.5 L 220 0 M 189 441 L 220 410 L 220 315 L 158 126 L 158 31.5 L 189 0 L 284 0 L 346 63 L 378 126 M143.892 746.229C143.892 746.229 251.49 640 321.281 640C391.071 640 498.669 746.229 498.669 746.229M143.892 746.229C143.892 746.229 255.172 661.515 321.281 661.515C387.39 661.515 498.669 746.229 498.669 746.229" />
<glyph unicode="&#x14F;" glyph-name="obreve" horiz-adv-x="567" d="M 284 441 L 189 410 L 126 315 L 94.5 220 L 94.5 126 L 126 63 L 158 31.5 L 220 0 L 284 0 L 378 31.5 L 441 126 L 472 220 L 472 315 L 441 378 L 410 410 L 346 441 L 284 441 M 284 441 L 220 410 L 158 315 L 126 220 L 126 94.5 L 158 31.5 M 284 0 L 346 31.5 L 410 126 L 441 220 L 441 346 L 410 410 M193.892 746.229C193.892 746.229 301.49 640 371.281 640C441.071 640 548.669 746.229 548.669 746.229M193.892 746.229C193.892 746.229 305.172 661.515 371.281 661.515C437.39 661.515 548.669 746.229 548.669 746.229" />
<glyph unicode="&#x16D;" glyph-name="ubreve" horiz-adv-x="724" d="M 31.5 315 L 63 378 L 126 441 L 220 441 L 252 410 L 252 315 L 189 126 L 189 63 L 252 0 M 189 441 L 220 410 L 220 315 L 158 126 L 158 63 L 189 31.5 L 252 0 L 315 0 L 378 31.5 L 441 94.5 L 504 220 M 567 441 L 504 220 L 472 94.5 L 472 31.5 L 504 0 L 598 0 L 662 63 L 693 126 M 598 441 L 536 220 L 504 94.5 L 504 31.5 L 536 0 M243.892 746.229C243.892 746.229 351.49 640 421.281 640C491.071 640 598.669 746.229 598.669 746.229M243.892 746.229C243.892 746.229 355.172 661.515 421.281 661.515C487.39 661.515 598.669 746.229 598.669 746.229" />
<glyph unicode="&#x2D8;" glyph-name="breve" horiz-adv-x="693" d="M153.892 326.229C153.892 326.229 261.49 220 331.281 220C401.071 220 508.669 326.229 508.669 326.229M153.892 326.229C153.892 326.229 265.172 241.515 331.281 241.515C397.39 241.515 508.669 326.229 508.669 326.229" />
<glyph unicode="&#x15E;" glyph-name="Scedilla" horiz-adv-x="724" d="M309.41 -13.3021C310.376 -23.989 304.189 -43.1189 308.179 -52.6918C328.364 -101.114 292.305 -164.935 219.968 -109.137C249.411 -116.578 274.246 -121.43 288.178 -97.0741C305.741 -63.7518 270.02 -61.9996 283.858 -12.677M598 598L630 598L662 662L630 472L630 536L598 598L567 630L472 662L346 662L252 630L189 567L189 504L220 441L252 410L472 284L536 220M189 504L252 441L472 315L504 284L536 220L536 126L504 63L472 31.5L378 -0L252 -0L158 31.5L126 63L94.5 126L94.5 189L63 -0L94.5 63L126 63" />
<glyph unicode="&#x130;" glyph-name="Idotaccent" horiz-adv-x="410" d="M319.246 826L287.246 794L319.246 762L350.246 794L319.246 826M284 662L94.5 -0M315 662L126 -0M189 662L410 662M0 -0L220 -0" />
<glyph unicode="&#xb8;" glyph-name="cedilla" horiz-adv-x="662" d="M277.552 -5.80494C278.518 -16.4918 272.331 -30.4419 276.321 -40.0148C296.506 -88.4373 260.447 -152.258 188.11 -96.46C217.553 -103.901 242.389 -108.753 256.32 -84.3971C273.883 -51.0747 238.162 -49.3226 252 -0Z" />
<glyph unicode="&#xC6;" glyph-name="AE" horiz-adv-x="960" d="M594 662L404.5 -0M625 662L436 -0M751 472L688 220M499 662L972 662L940 472L940 662M530 346L720 346M310 -0L782 -0L846 158L751 -0M580 662L30 -0M184 189L460 189M-33 -0L156 -0M345 -0L534 -0" />
<glyph unicode="&#xdf;" glyph-name="germandbls" horiz-adv-x="756" d="M505.825 662L433.65 630L393.474 598L343.696 536L321.043 457L190 -0M505.214 346L608.39 378L649.566 410L699.344 472L717.696 536L703.474 598L680.65 630L595.825 662L543.782 662L505.825 662L402.65 630L361.474 598L311.696 536L286.175 447L158 -0M501.214 346L541.214 346L626.325 315L649.436 284L663.084 220L636.13 126L586.065 63L545.032 31.5L442 -0L320.307 -0L351.759 109.687M541.214 346L595.325 315L617.436 284L631.084 220L604.13 126L554.065 63L514.032 31.5L442 -0M188.307 -0L64 -0M595.825 662L649.65 630L671.474 598L685.696 536L667.344 472L617.566 410L577.39 378L505.214 346" />
<glyph unicode="&#xE6;" glyph-name="ae" horiz-adv-x="880" d="M471.685 158L597.685 189L691.685 220L786.685 284L817.685 346L786.685 410L723.685 441L629.685 441L534.685 410L471.685 315L456.316 268.649L440.185 220L440.185 126L471.685 63L503.685 31.5L565.685 4.00163e-05L629.685 4.00163e-05L723.685 31.5L786.685 94.5M629.685 441L565.685 410L503.685 315L471.685 220L471.685 94.5L503.685 31.5M504 441L474.082 332.916M441 220L410 94.5L410 31.5L441 -0L476 -0M536 441L519.873 389.552M441 114.5L441 31.5L472 -0M441 220L441 315L410 410L346 441L284 441L189 410L126 315L94.5 220L94.5 126L126 63L158 31.5L220 -0L284 -0L346 31.5L410 126L441 220M284 441L220 410L158 315L126 220L126 94.5L158 31.5" />
<glyph unicode="&#xc7;" glyph-name="Ccedilla" horiz-adv-x="662" d="M277.552 -5.80494C278.518 -16.4918 272.331 -30.4419 276.321 -40.0148C296.506 -88.4373 260.447 -152.258 188.11 -96.46C217.553 -103.901 242.389 -108.753 256.32 -84.3971C273.883 -51.0747 238.162 -49.3226 252 -0ZM567 598L598 598L630 662L598 472L598 536L567 598L536 630L472 662L378 662L284 630L220 567L158 472L126 378L94.5 252L94.5 158L126 63L158 31.5L252 -0L346 -0L410 31.5L472 94.5L504 158M378 662L315 630L252 567L189 472L158 378L126 252L126 158L158 63L189 31.5L252 -0" />
<glyph unicode="&#xe7;" glyph-name="ccedilla" horiz-adv-x="567" d="M173.632 -107.005C215.152 -114.327 231.913 -115.524 243.349 -91.762C252.707 -72.3185 239.892 -73.6134 234.936 -56.9557C229.981 -40.298 241.765 -16.5708 245.259 0.0376365C247.454 -19.1778 239.124 -30.562 250.775 -50.7501C262.427 -70.9382 275.86 -74.6124 258.858 -102.854C241.856 -131.095 207.933 -121.121 173.632 -107.005ZM441 346L441 315L472 315L472 346L441 410L378 441L284 441L189 410L126 315L94.5 220L94.5 126L126 63L158 31.5L220 -0L284 -0L378 31.5L441 126M284 441L220 410L158 315L126 220L126 94.5L158 31.5" />
<glyph unicode="&#x15F;" glyph-name="scedilla" horiz-adv-x="536" d="M245.733 -15.4247C246.699 -26.1116 240.512 -45.2415 244.502 -54.8144C264.687 -103.237 228.628 -167.057 156.291 -111.26C185.734 -118.701 210.57 -123.552 224.501 -99.1967C242.064 -65.8743 206.343 -64.1222 220.181 -14.7996M441 378L441 346L472 346L472 378L441 410L346 441L252 441L158 410L126 378L126 315L158 284L378 158L410 126M126 346L158 315L378 189L410 158L410 63L378 31.5L284 -0L189 -0L94.5 31.5L63 63L63 94.5L94.5 94.5L94.5 63" />
<glyph unicode="&#xa3;" glyph-name="sterling" horiz-adv-x="630" d="M121.675 252L405.175 252M0.914765 -0L472.915 -0L527.11 189L441.915 -0M94.9148 -0L228.201 464.823C272.835 620.48 324.294 662 463.072 662L456.083 500.381L502.508 662.287L467.803 662.287M126.915 -0C126.915 -0 232.648 368.736 260.118 464.536C287.588 560.336 332.268 642.646 455.641 656.303" />
<glyph unicode="&#x131;" glyph-name="dotlessi" horiz-adv-x="410" d="M31.5 315L63 378L126 441L220 441L252 410L252 315L189 126L189 31.5L220 -0M189 441L220 410L220 315L158 126L158 31.5L189 -0L284 -0L346 63L378 126" />
</font>
</defs>
</svg>
