<?xml version="1.0" encoding="UTF-8" ?>
<!DOCTYPE svg PUBLIC "-//W3C//DTD SVG 1.1//EN" "http://www.w3.org/Graphics/SVG/1.1/DTD/svg11.dtd" >

<svg xmlns="http://www.w3.org/2000/svg" xmlns:xlink="http://www.w3.org/1999/xlink" version="1.1">

<metadata>
Font name:               EMS Little Princess
License:                 SIL Open Font License http://scripts.sil.org/OFL
Created by:              Sheldon B. Michaels
SVG font conversion by:  Windell H. Oskay
A derivative of:         Princess Sofia
Designer:                Crystal Kluge, Tart Workshop
Link:                    http://www.tartworkshop.com
Google font page:        https://fonts.google.com/specimen/Princess+Sofia
</metadata>
<defs>
<font id="EMSLittlePrincess" horiz-adv-x="378" >
<font-face
font-family="EMS Little Princess"
units-per-em="1000"
ascent="800"
descent="-200"
cap-height="500"
x-height="300"
/>
<missing-glyph horiz-adv-x="378" />
<glyph unicode=" " glyph-name="space" horiz-adv-x="378" />
<glyph unicode="!" glyph-name="exclam" horiz-adv-x="249" d="M 163 822 L 151 224 M 147 66.1 L 116 31.5 L 147 -12.6 L 185 25.2 L 147 66.1" />
<glyph unicode="&#x22;" glyph-name="quotedbl" horiz-adv-x="375" d="M 97.6 693 L 104 665 L 107 362 L 91.4 381 M 268 699 L 287 674 L 293 343 L 277 365" />
<glyph unicode="#" glyph-name="numbersign" horiz-adv-x="627" d="M 69.3 353 L 132 384 L 211 397 L 296 397 L 387 387 L 476 387 L 539 391 L 583 406 M 69.3 510 L 132 548 L 195 564 L 268 567 L 337 564 L 425 551 L 513 558 L 573 570 L 617 586 M 324 696 L 296 586 L 258 485 L 202 372 L 151 284 M 510 709 L 482 655 L 432 498 L 365 324 L 350 271 L 331 246" />
<glyph unicode="$" glyph-name="dollar" horiz-adv-x="558" d="M 239 88.2 L 230 126 L 198 151 L 167 151 L 94.5 107 L 47.2 31.5 L 47.2 -66.1 L 110 -148 L 211 -164 L 296 -148 L 397 -88.2 L 460 -6.3 L 472 63 L 422 183 L 321 293 L 198 422 L 135 517 L 135 598 L 189 665 L 261 680 L 343 671 L 413 630 L 463 573 L 460 520 L 419 460 M 287 687 L 296 832 L 280 819 M 261 -167 L 252 -290" />
<glyph unicode="%" glyph-name="percent" horiz-adv-x="671" d="M 151 621 L 59.9 564 L 37.8 482 L 53.5 435 L 110 416 L 180 432 L 230 466 L 224 545 L 186 583 L 161 602 L 243 573 L 328 576 L 416 598 L 491 611 L 567 627 L 630 655 L 589 652 L 491 564 L 375 419 L 243 236 L 158 94.5 L 104 -34.6 L 88.2 -139 L 120 -202 L 161 -236 M 520 252 L 441 208 L 397 113 L 403 50.4 L 482 44.1 L 573 101 L 614 170 L 583 249 L 520 252" />
<glyph unicode="&amp;" glyph-name="ampersand" horiz-adv-x="844" d="M 658 756 L 580 706 L 542 756 L 460 784 L 394 772 L 350 740 L 309 699 L 309 652 L 359 617 L 447 592 L 504 608 L 488 624 L 422 621 L 309 580 L 198 488 L 135 394 L 110 268 L 129 164 L 205 75.6 L 324 22.1 L 441 34.6 L 548 81.9 L 649 154 L 712 255 L 728 343 L 684 444 L 621 498 L 564 517 M 422 217 L 356 230 L 312 287 L 318 378 L 378 444 L 447 488 L 539 513 L 649 548 L 806 608 L 876 684 L 876 756 L 832 797 L 791 810" />
<glyph unicode="&apos;" glyph-name="quotesingle" horiz-adv-x="205" d="M 97.6 690 L 107 665 L 113 350 L 88.2 372" />
<glyph unicode="(" glyph-name="parenleft" horiz-adv-x="337" d="M 365 850 L 331 854 L 220 800 L 176 674 L 151 422 L 145 139 L 161 -132 L 186 -268 L 224 -324 L 258 -353 L 299 -365 L 343 -365" />
<glyph unicode=")" glyph-name="parenright" horiz-adv-x="324" d="M -40.9 -353 L -31.5 -353 L 56.7 -331 L 145 -230 L 173 -75.6 L 180 135 L 183 447 L 167 662 L 148 797 L 113 857 L 53.5 876 L 9.45 869 L -37.8 854" />
<glyph unicode="*" glyph-name="asterisk" horiz-adv-x="428" d="M 246 265 L 239 816 M 117 403 L 387 715 M 66.1 548 L 356 561 L 403 567 L 432 580" />
<glyph unicode="+" glyph-name="plus" horiz-adv-x="567" d="M 293 148 L 290 375 M 75.6 246 L 485 236" />
<glyph unicode="," glyph-name="comma" horiz-adv-x="161" d="M 56.7 -31.5 L 28.4 12.6 L 78.8 44.1 L 69.3 -41 L 28.4 -113" />
<glyph unicode="-" glyph-name="hyphen" horiz-adv-x="598" d="M 81.9 261 L 539 255" />
<glyph unicode="." glyph-name="period" horiz-adv-x="211" d="M 50.4 18.9 L 81.9 53.6 L 123 25.2 L 101 0 L 50.4 18.9" />
<glyph unicode="/" glyph-name="slash" horiz-adv-x="463" d="M 34.6 -296 L 22 -189 L 53.5 -56.7 L 132 135 L 268 384 L 444 668 L 558 816" />
<glyph unicode="0" glyph-name="zero" horiz-adv-x="765" d="M 293 554 L 186 488 L 113 362 L 97.6 211 L 145 50.4 L 280 -50.4 L 406 -81.9 L 536 -41 L 649 113 L 684 299 L 643 444 L 551 558 L 444 586 L 293 554" />
<glyph unicode="1" glyph-name="one" horiz-adv-x="416" d="M 239 -192 L 265 343 L 255 687 L 198 614 L 139 570 L 63 542" />
<glyph unicode="2" glyph-name="two" horiz-adv-x="655" d="M 265 350 L 198 343 L 142 381 L 126 504 L 151 608 L 230 687 L 328 718 L 413 690 L 507 586 L 532 435 L 495 284 L 438 154 L 343 56.7 L 224 -41 L 161 -88.2 L 117 -85 L 31.5 -107 L 167 -88.2 L 274 -135 L 381 -180 L 517 -195 L 567 -176 L 611 -142" />
<glyph unicode="3" glyph-name="three" horiz-adv-x="737" d="M 340 44.1 L 375 81.9 L 369 139 L 324 164 L 239 161 L 132 107 L 59.9 -15.8 L 69.3 -135 L 167 -205 L 318 -211 L 482 -154 L 598 -66.1 L 643 63 L 617 224 L 523 309 L 425 334 L 356 334 L 296 299 L 432 381 L 529 485 L 548 605 L 482 709 L 356 734 L 227 687 L 167 580 L 154 479 L 211 422" />
<glyph unicode="4" glyph-name="four" horiz-adv-x="762" d="M 529 -261 L 517 -243 L 539 334 L 507 454 M 428 772 L 428 624 L 381 476 L 293 343 L 233 277 L 151 227 L 97.6 198 L -3.15 192 L 117 186 L 220 158 L 375 117 L 498 104 L 633 120 L 734 164 L 788 217" />
<glyph unicode="5" glyph-name="five" horiz-adv-x="706" d="M 633 737 L 545 690 L 387 687 L 255 687 L 139 655 L 31.5 598 L 135 655 L 135 274 L 236 369 L 343 444 L 441 460 L 520 435 L 602 356 L 621 246 L 614 94.5 L 558 -31.5 L 485 -107 L 387 -176 L 277 -217 L 158 -183 L 120 -72.5 L 161 37.8 L 214 97.7 L 290 120 L 346 104" />
<glyph unicode="6" glyph-name="six" horiz-adv-x="778" d="M 284 -25.2 L 233 12.6 L 224 107 L 277 189 L 397 258 L 542 261 L 621 195 L 662 88.2 L 643 -22.1 L 558 -107 L 435 -167 L 321 -164 L 192 -94.5 L 113 18.9 L 101 198 L 132 397 L 217 536 L 346 636 L 485 677 L 602 684 L 668 643 L 706 602" />
<glyph unicode="7" glyph-name="seven" horiz-adv-x="671" d="M 265 -230 L 249 -113 L 299 69.3 L 369 271 L 479 469 L 554 583 L 624 652 L 772 696 L 611 652 L 488 668 L 321 702 L 202 680 L 110 617 L 66.1 536 L 85 438" />
<glyph unicode="8" glyph-name="eight" horiz-adv-x="662" d="M 56.7 -18.9 L 81.9 -135 L 176 -198 L 306 -198 L 432 -139 L 513 -37.8 L 526 88.2 L 454 189 L 299 318 L 192 413 L 135 498 L 145 611 L 230 690 L 340 728 L 454 706 L 529 627 L 551 510 L 507 422 L 397 331 L 167 176 L 78.8 81.9 L 56.7 -18.9" />
<glyph unicode="9" glyph-name="nine" horiz-adv-x="728" d="M 88.2 -129 L 101 -139 L 173 -198 L 299 -205 L 454 -120 L 570 25.2 L 621 173 L 624 318 L 605 485 L 548 630 L 441 721 L 343 724 L 217 649 L 161 551 L 123 419 L 132 274 L 198 180 L 331 148 L 447 173 L 554 249 L 621 350" />
<glyph unicode=":" glyph-name="colon" horiz-adv-x="224" d="M 69.3 394 L 104 425 L 148 403 L 120 375 L 69.3 394 M 53.5 22.1 L 97.6 53.6 L 135 31.5 L 110 -3.15 L 53.5 22.1" />
<glyph unicode=";" glyph-name="semicolon" horiz-adv-x="211" d="M 44.1 410 L 78.8 444 L 120 410 L 91.4 378 L 44.1 410 M 97.6 -22.1 L 81.9 12.6 L 120 37.8 L 107 -56.7 L 88.2 -97.6 L 50.4 -126" />
<glyph unicode="&#x3c;" glyph-name="less" horiz-adv-x="457" d="M 362 -9.45 L 85 265 L 350 529" />
<glyph unicode="=" glyph-name="equal" horiz-adv-x="627" d="M 94.5 365 L 539 353 M 94.5 170 L 526 161" />
<glyph unicode="&#x3e;" glyph-name="greater" horiz-adv-x="532" d="M 154 -12.6 L 432 299 L 94.5 532" />
<glyph unicode="?" glyph-name="question" horiz-adv-x="523" d="M 183 25.2 L 217 56.7 L 318 12.6 L 296 -15.8 L 183 25.2 M 236 173 L 186 186 L 164 255 L 208 343 L 293 416 L 435 501 L 504 598 L 520 728 L 444 810 L 331 863 L 195 835 L 94.5 731 L 56.7 624 L 69.3 501 L 113 441 L 151 444 L 211 491" />
<glyph unicode="@" glyph-name="at" horiz-adv-x="958" d="M 605 438 L 526 337 L 432 230 L 362 211 L 331 246 L 362 356 L 428 438 L 495 479 L 551 476 L 576 447 L 576 369 L 583 230 L 639 192 L 734 208 L 819 274 L 869 394 L 873 491 L 794 608 L 671 690 L 532 712 L 381 684 L 243 608 L 123 472 L 91.4 312 L 123 192 L 208 101 L 315 44.1 L 441 12.6 L 576 18.9 L 665 34.6 L 728 59.9" />
<glyph unicode="A" glyph-name="A" horiz-adv-x="769" d="M 78.8 -142 L 53.5 -81.9 L -3.15 -59.9 L -85.1 -85 L -132 -158 L -142 -265 L -85.1 -328 L 9.45 -337 L 117 -280 L 224 -135 L 299 69.3 L 378 356 L 441 586 L 526 740 L 592 806 L 646 841 L 709 841 L 721 810 L 665 803 L 558 772 L 495 753 L 324 762 L 173 747 L 53.5 706 L -50.4 605 L -72.4 495 L -25.2 422 L 72.5 400 M 687 784 L 627 432 L 595 113 L 331 117 L 595 117 L 595 -69.3 L 627 -274 L 690 -432 L 756 -529 L 810 -564 L 866 -576 L 929 -570 L 1001.7 -532" />
<glyph unicode="B" glyph-name="B" horiz-adv-x="939" d="M 195 -56.7 L 148 -50.4 L 91.4 -72.5 L 63 -126 L 47.2 -208 L 88.2 -290 L 198 -340 L 290 -318 L 381 -243 L 413 -132 L 391 -9.45 L 331 126 L 293 287 L 299 416 L 365 532 L 447 598 M 173 315 L 91.4 365 L 81.9 488 L 145 655 L 290 794 L 432 841 L 586 828 L 734 759 L 863 636 L 891 454 L 835 296 L 728 176 L 668 132 L 551 94.5 L 504 81.9 L 523 107 L 715 78.8 L 794 -22.1 L 794 -123 L 743 -208 L 680 -249 L 589 -255 L 554 -224 L 532 -167" />
<glyph unicode="C" glyph-name="C" horiz-adv-x="989" d="M 677 447 L 668 406 L 721 353 L 813 359 L 926 432 L 973 542 L 970 636 L 891 750 L 772 816 L 598 822 L 410 762 L 208 608 L 97.6 450 L 66.1 268 L 88.2 101 L 145 -50.4 L 268 -173 L 391 -265 L 520 -312 L 696 -299 L 828 -246 L 917 -173" />
<glyph unicode="D" glyph-name="D" horiz-adv-x="1162.3" d="M 252 183 L 158 198 L 101 290 L 91.4 444 L 135 576 L 246 696 L 378 762 L 551 806 L 728 784 L 869 709 L 976 542 L 1033.2 324 L 1039.5 97.7 L 973 -50.4 L 847 -170 L 662 -243 L 520 -258 L 372 -217 L 198 -183 L 113 -230 L 110 -293 L 186 -337 L 318 -277 L 428 -170 L 454 -28.4 L 425 154 L 394 372 L 422 561 L 469 639 L 598 709" />
<glyph unicode="E" glyph-name="E" horiz-adv-x="967" d="M 520 -6.3 L 435 -12.6 L 356 59.9 L 387 186 L 507 296 L 652 328 L 794 268 L 879 135 L 857 -31.5 L 756 -198 L 551 -302 L 359 -315 L 158 -198 L 69.3 25.2 L 126 261 L 261 422 L 428 526 L 523 551 L 621 551 L 570 520 L 495 523 L 413 586 L 387 668 L 466 772 L 586 828 L 706 822 L 797 750 L 822 687 L 775 605" />
<glyph unicode="F" glyph-name="F" horiz-adv-x="696" d="M 261 -12.6 L 186 25.2 L 104 -3.15 L 53.5 -120 L 97.6 -293 L 258 -353 L 387 -284 L 485 -145 L 504 31.5 L 476 592 L 513 756 L 636 876 L 756 885 L 794 835 L 756 769 L 680 731 L 542 715 L 324 731 L 88.2 759 L -6.3 728 L -69.3 674 L -88.2 589 L -81.9 507 L -44.1 463 L -9.45 463 M 302 397 L 630 488 L 598 454" />
<glyph unicode="G" glyph-name="G" horiz-adv-x="1099.3" d="M 94.5 687 L 12.6 586 L -12.6 454 L 37.8 312 L 176 258 L 340 261 L 532 331 L 718 438 L 869 564 L 970 668 L 954 781 L 888 847 L 728 835 L 573 765 L 419 624 L 293 441 L 230 318 L 186 145 L 211 -22.1 L 324 -167 L 526 -170 L 702 -85 L 869 69.3 L 989 249 L 961 145 L 983 -59.9 L 989 -249 L 945 -328 L 876 -384 L 781 -391" />
<glyph unicode="H" glyph-name="H" horiz-adv-x="954" d="M 243 331 L 164 302 L 63 369 L 47.2 520 L 94.5 652 L 287 869 L 507 287 L 545 28.4 L 507 -158 L 416 -252 L 271 -328 L 170 -296 L 69.3 -189 L 47.2 -50.4 L 110 81.9 L 176 135 L 252 129 L 321 34.6 M 1174.9 747 L 1080.4 794 L 958 747 L 860 649 L 791 466 L 775 255 L 769 113 L 548 75.6 L 762 107 L 788 -28.4 L 838 -220 L 847 -299 L 932 -239" />
<glyph unicode="I" glyph-name="I" horiz-adv-x="655" d="M 142 -186 L 129 -255 L 214 -318 L 343 -312 L 476 -202 L 520 -9.45 L 507 249 L 444 567 L 391 835 L 274 674 L 170 488 L 113 315 L 104 154 L 189 40.9 L 255 22.1 L 343 22.1" />
<glyph unicode="J" glyph-name="J" horiz-adv-x="665" d="M 554 37.8 L 391 -25.2 L 261 -28.4 L 132 56.7 L 78.8 239 L 135 419 L 274 595 L 419 721 L 662 869 L 784 948 L 813 1004.8 L 762 1039.5 L 639 1020.6 L 529 926 L 472 822 L 425 564 L 422 299 L 482 -56.7 L 504 -233 L 460 -362 L 369 -463 L 249 -542 L 142 -570 L 9.45 -532 L -31.5 -397 L 25.2 -274 L 205 -167 L 356 -135 L 472 -142 L 580 -180 L 693 -315 L 693 -384 L 639 -450" />
<glyph unicode="K" glyph-name="K" horiz-adv-x="1058.4" d="M 271 -78.8 L 315 -9.45 L 265 78.8 L 180 94.5 L 72.5 34.6 L 44.1 -97.6 L 91.4 -239 L 214 -302 L 340 -287 L 491 -167 L 520 -3.15 L 501 365 L 469 712 L 476 854 L 265 756 L 120 627 L 72.5 469 L 132 356 L 192 331 L 265 346 M 1181.2 806 L 1058.4 794 L 939 699 L 863 558 L 800 425 L 712 343 L 614 306 L 532 293 L 696 290 L 806 205 L 901 25.2 L 970 -208 L 1045.8 -369 L 1121.4 -438 L 1209.6 -469 L 1269.4 -450" />
<glyph unicode="L" glyph-name="L" horiz-adv-x="743" d="M 101 321 L 107 271 L 220 211 L 403 227 L 554 318 L 740 491 L 825 658 L 847 825 L 791 917 L 687 932 L 564 850 L 482 699 L 441 444 L 425 220 L 410 25.2 L 362 -85 L 271 -192 L 135 -265 L -9.45 -249 L -53.6 -214 L -85.1 -81.9 L 44.1 12.6 L 224 -37.8 L 378 -164 L 513 -318 L 627 -410 L 753 -432 L 822 -391" />
<glyph unicode="M" glyph-name="M" horiz-adv-x="980" d="M -59.9 -192 L -40.9 -192 L 72.5 -142 L 198 -3.15 L 315 170 L 438 466 L 513 662 L 542 797 L 498 495 L 476 -34.6 L 576 173 L 718 482 L 898 772 L 961 901 L 967 951 L 923 986 L 873 926 L 803 728 L 759 472 L 781 148 L 895 -208 L 992 -384 L 1156.1 -482 L 1300.9 -435 L 1411.2 -315 L 1420.7 -208 L 1348.2 -101 L 1247.4 -97.6 L 1181.2 -151 L 1143.4 -252 M 139 602 L 78.8 687 L 101 784 L 189 857 L 312 860 L 463 816 L 498 806 L 561 800 L 614 832" />
<glyph unicode="N" glyph-name="N" horiz-adv-x="731" d="M 59.9 -44.1 L 69.3 6.3 L -18.9 53.6 L -107 12.6 L -158 -91.4 L -139 -180 L -53.6 -268 L 75.6 -293 L 217 -195 L 274 -53.5 L 277 214 L 265 413 L 224 595 L 183 772 L 318 476 L 479 135 L 580 -110 L 652 -287 L 595 -41 L 570 255 L 630 617 L 753 904 L 895 1004.8 L 980 999 L 1023.8 926 L 1011.2 866 L 980 816 L 932 803" />
<glyph unicode="O" glyph-name="O" horiz-adv-x="948" d="M 463 677 L 306 636 L 195 529 L 110 353 L 94.5 189 L 132 9.45 L 271 -120 L 422 -151 L 576 -126 L 743 -9.45 L 825 180 L 835 384 L 756 558 L 655 655 L 532 677 L 438 630 L 381 523 L 397 422 L 454 384 L 536 391" />
<glyph unicode="P" glyph-name="P" horiz-adv-x="926" d="M 274 -78.8 L 243 -25.2 L 161 -22.1 L 85 -78.8 L 53.5 -208 L 117 -328 L 252 -359 L 384 -318 L 460 -208 L 460 -94.5 L 387 113 L 324 293 L 309 539 L 356 662 L 432 731 M 195 400 L 154 400 L 91.4 488 L 97.6 639 L 211 816 L 350 882 L 526 910 L 731 857 L 857 747 L 939 570 L 923 394 L 813 280 L 693 224 L 573 198 L 498 224 L 432 299 L 447 350 L 501 403" />
<glyph unicode="Q" glyph-name="Q" horiz-adv-x="1064.7" d="M 507 274 L 573 154 L 580 25.2 L 539 -37.8 L 425 -104 L 284 -66.1 L 173 66.1 L 110 268 L 145 501 L 255 718 L 400 844 L 583 866 L 721 803 L 844 636 L 904 435 L 904 268 L 841 85.1 L 734 -69.3 L 586 -167 L 428 -198 L 233 -189 L 454 -217 L 592 -271 L 753 -337 L 895 -394 L 1061.6 -441 L 1203.3 -391 L 1228.5 -299 L 1193.8 -230 L 1137.2 -189 L 1055.2 -173 L 1026.9 -230" />
<glyph unicode="R" glyph-name="R" horiz-adv-x="929" d="M 189 -170 L 192 -107 L 113 -78.8 L 31.5 -107 L -34.6 -208 L -6.3 -331 L 88.2 -387 L 205 -365 L 318 -287 L 372 -176 L 375 -22.1 L 331 255 L 346 432 L 397 529 L 444 576 L 517 627 L 554 636 M 167 246 L 75.6 306 L 34.6 454 L 75.6 614 L 211 762 L 362 847 L 532 879 L 699 847 L 847 731 L 904 580 L 866 432 L 765 293 L 633 211 L 548 170 L 454 148 L 551 164 L 655 107 L 740 -59.9 L 844 -309 L 907 -460 L 983 -513 L 1099.3 -510" />
<glyph unicode="S" glyph-name="S" horiz-adv-x="684" d="M 167 37.8 L 72.5 -59.9 L 34.6 -151 L 66.1 -287 L 176 -337 L 318 -337 L 466 -243 L 576 -148 L 589 -9.45 L 529 101 L 208 576 L 186 677 L 202 747 L 293 835 L 381 876 L 482 882 L 589 813 L 617 696 L 551 602" />
<glyph unicode="T" glyph-name="T" horiz-adv-x="753" d="M 410 -85 L 365 -31.5 L 284 -50.4 L 220 -120 L 217 -217 L 271 -318 L 372 -343 L 488 -302 L 570 -186 L 548 9.45 L 507 328 L 510 472 L 526 551 L 573 652 M 94.5 772 L 129 775 L 183 756 L 243 652 L 252 520 L 208 372 L 145 284 L 47.2 233 L -15.8 246 L -28.4 328 L 41 479 L 151 567 L 290 614 L 460 636 L 636 662 L 800 706 L 910 759 L 970 822 L 980 882" />
<glyph unicode="U" glyph-name="U" horiz-adv-x="832" d="M 101 595 L 25.2 567 L -37.8 614 L -44.1 696 L 9.45 803 L 101 866 L 186 876 L 287 803 L 296 633 L 265 454 L 195 277 L 142 69.3 L 113 -78.8 L 120 -180 L 154 -246 L 211 -255 L 284 -233 L 406 -101 L 551 132 L 658 343 L 759 602 L 617 154 L 605 -81.9 L 617 -227 L 643 -290 L 674 -328 L 740 -337 L 803 -315" />
<glyph unicode="V" glyph-name="V" horiz-adv-x="803" d="M 148 491 L 176 425 L 158 362 L 85 315 L 22 340 L -40.9 432 L -37.8 529 L 18.9 658 L 107 718 L 186 731 L 290 630 L 375 369 L 476 -41 L 520 -369 L 507 -151 L 567 85.1 L 677 397 L 794 639 L 910 816 L 1004.8 914 L 1080.4 942 L 1156.1 923" />
<glyph unicode="W" glyph-name="W" horiz-adv-x="1442.7" d="M 0 432 L 15.8 564 L 110 649 L 233 674 L 315 693 L 416 734 L 296 598 L 211 410 L 180 249 L 198 107 L 309 34.6 L 419 66.1 L 602 205 L 693 334 L 693 394 L 630 387 L 529 299 L 491 186 L 479 3.15 L 561 -189 L 687 -284 L 873 -321 L 1033.2 -274 L 1209.6 -110 L 1282.1 66.1 L 1316.7 284 L 1282.1 488 L 1187.6 652 L 1115.1 693 L 1004.8 674 L 942 614" />
<glyph unicode="X" glyph-name="X" horiz-adv-x="693" d="M 81.9 -34.6 L 91.4 9.45 L 41 56.7 L -56.7 25.2 L -107 -63 L -101 -176 L -31.5 -255 L 53.5 -249 L 180 -173 L 302 -22.1 L 391 129 L 529 406 L 652 649 L 775 788 L 895 873 L 1004.8 882 M 66.1 665 L 18.9 643 L -37.8 674 L -37.8 769 L 31.5 873 L 123 895 L 189 854 L 261 674 L 353 284 L 444 -44.1 L 583 -410 L 655 -504 L 721 -551 L 800 -570 L 923 -545 L 980 -469 L 980 -375 L 923 -331 L 869 -356" />
<glyph unicode="Y" glyph-name="Y" horiz-adv-x="778" d="M 28.4 624 L -37.8 611 L -88.2 649 L -81.9 731 L -37.8 810 L 31.5 869 L 139 891 L 208 841 L 236 724 L 198 580 L 129 375 L 97.6 195 L 126 91.4 L 239 47.2 L 337 88.2 L 454 173 L 551 312 L 693 523 L 759 662 L 781 772 L 762 816 L 690 813 L 598 690 L 551 501 L 564 287 L 627 56.7 L 677 -167 L 677 -350 L 633 -450 L 554 -548 L 419 -621 L 312 -633 L 236 -592 L 236 -460 L 315 -340 L 447 -211 L 551 -135 L 617 -123 L 743 -88.2 L 822 -97.6 L 850 -129 L 822 -189" />
<glyph unicode="Z" glyph-name="Z" horiz-adv-x="728" d="M 123 819 L 183 841 L 239 781 L 287 624 L 274 450 L 255 394 L 195 346 L 154 369 L 126 495 L 176 621 L 287 728 L 425 791 L 621 803 L 794 797 L 995 863 L 1077.3 901 L 1080.4 970 L 1030.1 986 L 904 939 L 828 863 L 718 677 L 592 397 L 454 126 L 331 -34.6 L 217 -120 L 139 -192 L 66.1 -230 L -9.45 -243 L -53.6 -227 L -63 -158 L 34.6 -81.9 L 120 -72.5 L 202 -104 L 369 -239 L 529 -394 L 630 -472 L 715 -507 L 803 -517 L 895 -485 L 964 -438" />
<glyph unicode="[" glyph-name="bracketleft" horiz-adv-x="258" d="M 258 -375 L 107 -372 L 107 885 L 246 888" />
<glyph unicode="\" glyph-name="backslash" horiz-adv-x="551" d="M 9.45 800 L 91.4 536 L 211 233 L 328 0 L 454 -180 L 542 -265 L 592 -284" />
<glyph unicode="]" glyph-name="bracketright" horiz-adv-x="287" d="M 34.6 -387 L 151 -381 L 164 312 L 145 885 L 12.6 891" />
<glyph unicode="^" glyph-name="asciicircum" horiz-adv-x="573" d="M 88.2 460 L 261 662 L 290 693 L 495 454" />
<glyph unicode="_" glyph-name="underscore" horiz-adv-x="769" d="M 56.7 -180 L 359 -161 L 595 -170 L 712 -151" />
<glyph unicode="`" glyph-name="grave" horiz-adv-x="910" d="M 428 743 L 416 772 L 375 750 L 432 706 L 507 674 L 558 665" />
<glyph unicode="a" glyph-name="a" horiz-adv-x="472" d="M 340 306 L 268 198 L 205 113 L 132 50.4 L 88.2 47.2 L 56.7 69.3 L 72.5 161 L 110 249 L 198 315 L 255 321 L 306 271 L 331 12.6 L 350 -18.9 L 394 -9.45 L 428 9.45" />
<glyph unicode="b" glyph-name="b" horiz-adv-x="545" d="M 135 -233 L 277 -167 L 381 -56.7 L 432 85.1 L 422 189 L 375 233 L 287 211 L 224 135 L 192 47.2 L 164 -41 L 161 -198 L 110 37.8 L 88.2 258 L 120 507 L 180 668 L 255 753 L 365 797 L 444 806 L 491 794 L 520 772" />
<glyph unicode="c" glyph-name="c" horiz-adv-x="432" d="M 290 284 L 334 318 L 321 375 L 265 410 L 189 397 L 132 359 L 75.6 293 L 56.7 186 L 91.4 85.1 L 180 40.9 L 258 31.5 L 343 63 L 372 94.5" />
<glyph unicode="d" glyph-name="d" horiz-adv-x="554" d="M 419 255 L 309 312 L 195 306 L 104 233 L 66.1 132 L 72.5 50.4 L 120 0 L 224 12.6 L 321 69.3 L 384 173 L 422 261 M 243 794 L 299 806 L 353 753 L 375 624 L 375 211 L 391 -3.15 L 410 -85 L 454 -132 L 504 -142 L 573 -126" />
<glyph unicode="e" glyph-name="e" horiz-adv-x="447" d="M 88.2 255 L 170 217 L 246 227 L 309 277 L 318 343 L 280 384 L 205 381 L 129 334 L 78.8 239 L 66.1 132 L 129 40.9 L 220 12.6 L 287 31.5 L 387 120" />
<glyph unicode="f" glyph-name="f" horiz-adv-x="328" d="M -192 -340 L -158 -394 L -56.7 -410 L 101 -324 L 167 -224 L 189 -101 L 186 47.2 L 135 312 L 113 476 L 120 649 L 154 781 L 220 841 L 280 854 L 331 854 L 378 816 M -22.1 454 L 28.4 476 L 220 495 L 274 510" />
<glyph unicode="g" glyph-name="g" horiz-adv-x="476" d="M 343 397 L 296 290 L 249 214 L 180 173 L 104 176 L 59.9 227 L 63 321 L 135 416 L 211 447 L 324 450 L 309 450 L 318 12.6 L 306 -167 L 277 -318 L 220 -413 L 139 -495 L 44.1 -539 L -31.5 -539 L -126 -495 L -154 -435" />
<glyph unicode="h" glyph-name="h" horiz-adv-x="605" d="M 495 948 L 384 954 L 271 891 L 186 734 L 139 570 L 104 391 L 91.4 205 L 94.5 18.9 L 129 139 L 186 287 L 233 353 L 287 394 L 328 394 L 353 356 L 391 195 L 441 12.6 L 482 -113 L 526 -176 L 558 -202 L 608 -198 L 646 -164" />
<glyph unicode="i" glyph-name="i" horiz-adv-x="280" d="M 186 0 L 132 -9.45 L 101 3.15 L 113 312 L 110 331 L 66.1 324 L 28.4 299 M 56.7 517 L 85 542 L 164 488 L 126 454 L 56.7 517" />
<glyph unicode="j" glyph-name="j" horiz-adv-x="299" d="M 315 -362 L 353 -293 L 353 -236 L 284 -183 L 139 -176 L -40.9 -233 L -170 -328 L -224 -432 L -246 -539 L -208 -580 L -142 -592 L -37.8 -554 L 78.8 -460 L 148 -350 L 183 -220 L 186 -50.4 L 120 369 L 41 318 M 110 561 L 81.9 589 L 53.5 564 L 117 510 L 145 551" />
<glyph unicode="k" glyph-name="k" horiz-adv-x="488" d="M 110 -230 L 107 315 L 145 636 L 195 784 L 271 866 L 318 891 L 387 901 L 416 885 M 66.1 22.1 L 164 192 L 224 274 L 299 312 L 343 287 L 337 233 L 252 135 L 120 34.6 L 161 66.1 L 287 -22.1 L 369 -63 L 428 -56.7 L 488 -12.6" />
<glyph unicode="l" glyph-name="l" horiz-adv-x="265" d="M 202 -142 L 135 -142 L 81.9 -88.2 L 81.9 107 L 110 554 L 110 803 L 97.6 850 L 56.7 860 L 9.45 841 L -34.6 810" />
<glyph unicode="m" glyph-name="m" horiz-adv-x="797" d="M -18.9 324 L 44.1 362 L 101 362 L 129 318 L 139 202 L 151 -15.8 L 164 148 L 220 265 L 265 334 L 315 369 L 378 365 L 410 309 L 422 224 L 428 69.3 L 447 202 L 498 318 L 542 381 L 592 413 L 639 403 L 662 337 L 668 139 L 684 -50.4 L 699 -126 L 721 -154 L 765 -167 L 813 -173 L 854 -145" />
<glyph unicode="n" glyph-name="n" horiz-adv-x="532" d="M 18.9 280 L 104 334 L 126 224 L 145 97.7 L 145 -53.5 L 170 97.7 L 230 224 L 274 287 L 315 318 L 356 321 L 375 287 L 397 113 L 406 -50.4 L 441 -107 L 482 -110 L 536 -91.4" />
<glyph unicode="o" glyph-name="o" horiz-adv-x="410" d="M 208 365 L 145 343 L 88.2 287 L 63 192 L 69.3 132 L 123 85.1 L 202 78.8 L 277 132 L 309 180 L 328 261 L 318 312 L 274 343 L 208 365" />
<glyph unicode="p" glyph-name="p" horiz-adv-x="466" d="M -126 -435 L -120 -435 L -18.9 -391 L 94.5 -296 L 145 -195 L 142 -12.6 L 117 296 L 161 375 L 236 463 L 309 498 L 384 476 L 406 400 L 397 280 L 343 198 L 293 151 L 224 148 L 148 176 L 110 299 L 101 510 L -6.3 469" />
<glyph unicode="q" glyph-name="q" horiz-adv-x="482" d="M 532 -337 L 454 -369 L 378 -353 L 331 -268 L 312 -56.7 L 318 186 L 334 362 L 290 413 L 186 425 L 129 400 L 72.5 331 L 56.7 224 L 78.8 151 L 126 126 L 195 151 L 280 220 L 337 346 L 369 479" />
<glyph unicode="r" glyph-name="r" horiz-adv-x="397" d="M 0 362 L 44.1 394 L 85 394 L 113 334 L 151 -56.7 L 158 186 L 176 274 L 243 397 L 328 488 L 365 510 L 419 513 L 457 488 L 447 450 L 422 410 L 362 340" />
<glyph unicode="s" glyph-name="s" horiz-adv-x="387" d="M 56.7 94.5 L 18.9 25.2 L 31.5 -56.7 L 113 -88.2 L 202 -63 L 265 9.45 L 293 85.1 L 271 142 L 88.2 416 L 81.9 454 L 101 504 L 151 542 L 214 554 L 274 542 L 299 488 L 268 438" />
<glyph unicode="t" glyph-name="t" horiz-adv-x="312" d="M 274 -9.45 L 220 -31.5 L 164 -31.5 L 123 12.6 L 110 113 L 135 454 L 132 542 L 287 567 L 41 523 L 135 542 L 139 598 L 126 643 L 113 662 L 75.6 668 L 37.8 649" />
<glyph unicode="u" glyph-name="u" horiz-adv-x="447" d="M 12.6 306 L 22 312 L 91.4 343 L 104 324 L 101 72.4 L 101 56.7 L 145 72.4 L 211 139 L 268 224 L 315 299 L 334 324 L 318 12.6 L 331 -41 L 369 -41 L 406 -41 L 454 -22.1" />
<glyph unicode="v" glyph-name="v" horiz-adv-x="482" d="M 9.45 318 L 56.7 359 L 107 334 L 139 261 L 220 -6.3 L 321 158 L 413 324 L 463 472 L 438 614 L 378 709 L 302 721 L 261 709 L 224 677" />
<glyph unicode="w" glyph-name="w" horiz-adv-x="617" d="M -22.1 397 L 47.2 419 L 85 378 L 151 78.8 L 192 101 L 296 350 L 309 369 L 346 198 L 419 22.1 L 435 25.2 L 466 198 L 526 369 L 614 520 L 699 598 L 762 621 L 800 624 L 832 605" />
<glyph unicode="x" glyph-name="x" horiz-adv-x="425" d="M 31.5 -25.2 L 391 435 M -12.6 381 L -3.15 378 L 63 397 L 110 350 L 277 -9.45 L 331 -69.3 L 397 -81.9 L 444 -66.1 L 498 -31.5" />
<glyph unicode="y" glyph-name="y" horiz-adv-x="542" d="M -3.15 375 L 9.45 375 L 59.9 384 L 107 350 L 126 208 L 132 101 L 183 97.7 L 287 205 L 359 309 L 403 391 L 410 293 L 419 88.2 L 425 -101 L 384 -280 L 346 -350 L 271 -400 L 167 -435 L 66.1 -410 L 9.45 -378 L -25.2 -318 L -9.45 -252 L 53.5 -183" />
<glyph unicode="z" glyph-name="z" horiz-adv-x="495" d="M 37.8 337 L 120 406 L 183 419 L 324 400 L 469 419 L 356 271 L 255 167 L 164 88.2 L 94.5 44.1 L 47.2 25.2 L 6.3 18.9 L 44.1 50.4 L 104 50.4 L 198 6.3 L 381 -97.6 L 447 -135 L 520 -132 L 586 -94.5 L 639 -44.1" />
<glyph unicode="{" glyph-name="braceleft" horiz-adv-x="482" d="M 428 -375 L 362 -362 L 302 -309 L 296 -59.9 L 265 101 L 220 173 L 173 205 L 85 198 L 164 205 L 224 233 L 293 312 L 331 400 L 337 589 L 350 740 L 410 863 L 476 891 L 536 882" />
<glyph unicode="|" glyph-name="bar" horiz-adv-x="284" d="M 158 -306 L 139 778 L 129 797" />
<glyph unicode="}" glyph-name="braceright" horiz-adv-x="438" d="M -40.9 -384 L 78.8 -365 L 158 -309 L 195 -198 L 198 75.6 L 224 154 L 277 192 L 302 211 L 365 211 L 271 211 L 198 265 L 173 369 L 180 545 L 173 706 L 145 816 L 69.3 888 L -34.6 885" />
<glyph unicode="~" glyph-name="asciitilde" horiz-adv-x="636" d="M 72.5 192 L 126 287 L 176 328 L 246 334 L 353 299 L 435 271 L 488 265 L 561 312" />
<glyph unicode="&#xa0;" glyph-name="nbspace" horiz-adv-x="378" />
<glyph unicode="&#xa1;" glyph-name="exclamdown" horiz-adv-x="249" d="M 88.2 -12.6 L 101 586 M 104 743 L 135 778 L 104 822 L 66.1 784 L 104 743" />
<glyph unicode="&#xa2;" glyph-name="cent" horiz-adv-x="170" d="M 290 284 L 334 318 L 321 375 L 265 410 L 189 397 L 132 359 L 75.6 293 L 56.7 186 L 91.4 85.1 L 180 40.9 L 258 31.5 L 343 63 L 372 94.5 M 170 -146 L 159 505 L 153 516" />
<glyph unicode="&#xa5;" glyph-name="yen" horiz-adv-x="510" d="M 53.5 662 L 110 469 L 164 378 L 224 321 L 280 312 L 340 334 L 413 413 L 469 504 L 491 589 L 498 639 L 463 665 L 419 655 L 384 611 L 343 510 L 328 391 L 306 268 L 306 94.5 L 315 -53.5 M 186 135 L 416 135 M 186 261 L 416 261" />
<glyph unicode="&#xa6;" glyph-name="brokenbar" horiz-adv-x="85" d="M 217 -91.7 L 212 233 L 209 239 M 217 381 L 212 706 L 209 712" />
<glyph unicode="&#xa8;" glyph-name="dieresis" horiz-adv-x="567" d=" M 166 579 L 198 614 L 239 585 L 216 560 L 166 579 M 397 557 L 428 592 L 469 564 L 447 538 L 397 557" />
<glyph unicode="&#xa9;" glyph-name="copyright" horiz-adv-x="948" d="M 463 677 L 306 636 L 195 529 L 110 353 L 94.5 189 L 132 9.45 L 271 -120 L 422 -151 L 576 -126 L 743 -9.45 L 825 180 L 835 384 L 756 558 L 655 655 L 532 677 L 438 630 L 381 523 L 397 422 L 454 384 L 536 391 M 447 305 L 444 289 L 465 267 L 501 270 L 547 299 L 566 343 L 564 381 L 533 426 L 485 452 L 416 455 L 340 431 L 260 369 L 215 306 L 203 233 L 212 166 L 234 106 L 284 56.7 L 333 20.2 L 384 1.26 L 455 6.3 L 508 27.7 L 543 56.7" />
<glyph unicode="&#xaa;" glyph-name="ordfeminine" horiz-adv-x="236" d="M 280 783 L 244 729 L 213 687 L 176 655 L 154 654 L 139 665 L 146 710 L 165 754 L 209 788 L 238 791 L 263 765 L 276 636 L 285 621 L 307 625 L 324 635" />
<glyph unicode="&#xab;" glyph-name="guillemotleft" horiz-adv-x="274" d="M 145 -7.56 L 34 212 L 140 423 M 271 -7.56 L 160 212 L 266 423" />
<glyph unicode="&#xae;" glyph-name="registered" horiz-adv-x="948" d="M 463 677 L 306 636 L 195 529 L 110 353 L 94.5 189 L 132 9.45 L 271 -120 L 422 -151 L 576 -126 L 743 -9.45 L 825 180 L 835 384 L 756 558 L 655 655 L 532 677 L 438 630 L 381 523 L 397 422 L 454 384 L 536 391 M 315 58 L 316 83.2 L 285 94.5 L 252 83.2 L 226 42.8 L 237 -6.3 L 275 -29 L 321 -20.2 L 367 11.3 L 388 55.4 L 389 117 L 372 228 L 378 299 L 398 338 L 417 357 L 446 377 L 461 381 M 306 224 L 270 248 L 253 307 L 270 372 L 324 431 L 384 465 L 452 478 L 519 465 L 578 418 L 601 358 L 586 299 L 546 243 L 493 210 L 459 194 L 421 185 L 460 192 L 501 169 L 536 102 L 577 2.52 L 602 -58 L 633 -79.4 L 679 -78.1" />
<glyph unicode="&#xb0;" glyph-name="degree" horiz-adv-x="341" d="M 252 770 L 205 758 L 172 726 L 146 673 L 142 624 L 153 570 L 195 531 L 240 522 L 286 529 L 336 564 L 361 621 L 364 682 L 340 734 L 310 764 L 273 770 L 245 756 L 228 724 L 232 694 L 249 682 L 274 684" />
<glyph unicode="&#xb1;" glyph-name="plusminus" horiz-adv-x="454" d="M 519 20.2 L 885 15.1 M 688 307 L 685 489 M 514 386 L 842 378" />
<glyph unicode="&#xb2;" glyph-name="twosuperior" horiz-adv-x="328" d="M 243 805 L 209 802 L 181 821 L 173 882 L 186 934 L 225 973 L 274 989 L 317 975 L 364 923 L 376 847 L 358 772 L 329 707 L 282 658 L 222 610 L 191 586 L 169 587 L 126 576 L 194 586 L 247 562 L 301 540 L 369 532 L 394 542 L 416 559" />
<glyph unicode="&#xb3;" glyph-name="threesuperior" horiz-adv-x="369" d="M 280 652 L 298 671 L 295 699 L 272 712 L 230 710 L 176 684 L 140 622 L 145 562 L 194 528 L 269 524 L 351 553 L 410 597 L 432 662 L 419 742 L 372 784 L 323 797 L 288 797 L 258 780 L 326 821 L 375 873 L 384 932 L 351 984 L 288 997 L 224 973 L 194 920 L 187 869 L 216 841" />
<glyph unicode="&#xb4;" glyph-name="acute" horiz-adv-x="378" d=" M 297 682 L 291 644 L 272 597 L 250 562 L 228 534" />
<glyph unicode="&#xb7;" glyph-name="middot" horiz-adv-x="253" d="M 136 325 L 174 367 L 223 333 L 197 302 L 136 325" />
<glyph unicode="&#xb9;" glyph-name="onesuperior" horiz-adv-x="208" d="M 230 534 L 243 802 L 238 973 L 209 937 L 180 915 L 142 901" />
<glyph unicode="&#xba;" glyph-name="ordmasculine" horiz-adv-x="341" d="M 252 770 L 205 758 L 172 726 L 146 673 L 142 624 L 153 570 L 195 531 L 240 522 L 286 529 L 336 564 L 361 621 L 364 682 L 340 734 L 310 764 L 273 770 L 245 756 L 228 724 L 232 694 L 249 682 L 274 684" />
<glyph unicode="&#xbb;" glyph-name="guillemotright" horiz-adv-x="319" d="M 61.7 -10.1 L 173 239 L 37.8 426 M 188 -10.1 L 299 239 L 164 426" />
<glyph unicode="&#xbc;" glyph-name="onequarter" horiz-adv-x="636" d="M 144 301 L 159 622 L 153 828 L 119 784 L 83.2 758 L 37.8 741 M 255 -296 L 243 -189 L 274 -56.7 L 353 135 L 488 384 L 665 668 L 778 816 M 790 -195 L 782 -183 L 796 163 L 777 234 M 730 425 L 730 336 L 701 248 L 648 168 L 612 129 L 563 98.3 L 531 81.3 L 471 77.5 L 542 73.7 L 605 56.7 L 697 32.1 L 771 24.6 L 852 34 L 913 60.5 L 945 92.6" />
<glyph unicode="&#xbd;" glyph-name="onehalf" horiz-adv-x="578" d="M 144 301 L 159 622 L 153 828 L 119 784 L 83.2 758 L 37.8 741 M 255 -296 L 243 -189 L 274 -56.7 L 353 135 L 488 384 L 665 668 L 778 816 M 631 172 L 592 168 L 558 191 L 548 265 L 563 327 L 610 374 L 669 393 L 720 376 L 777 314 L 792 223 L 769 132 L 735 54.8 L 679 -3.78 L 607 -62.4 L 569 -90.7 L 542 -88.8 L 491 -102 L 573 -90.7 L 637 -119 L 701 -146 L 782 -155 L 813 -144 L 839 -123" />
<glyph unicode="&#xbe;" glyph-name="threequarters" horiz-adv-x="810" d="M 204 442 L 225 465 L 221 499 L 195 514 L 144 512 L 79.4 480 L 35.9 406 L 41.6 335 L 100 293 L 191 289 L 289 323 L 359 376 L 386 454 L 370 550 L 314 601 L 255 616 L 214 616 L 178 595 L 259 644 L 318 707 L 329 779 L 289 841 L 214 856 L 136 828 L 100 764 L 92.6 703 L 127 669 M 255 -296 L 243 -189 L 274 -56.7 L 353 135 L 488 384 L 665 668 L 778 816 M 790 -195 L 782 -183 L 796 163 L 777 234 M 730 425 L 730 336 L 701 248 L 648 168 L 612 129 L 563 98.3 L 531 81.3 L 471 77.5 L 542 73.7 L 605 56.7 L 697 32.1 L 771 24.6 L 852 34 L 913 60.5 L 945 92.6" />
<glyph unicode="&#xbf;" glyph-name="questiondown" horiz-adv-x="523" d="M 394 822 L 359 791 L 258 835 L 280 863 L 394 822 M 340 674 L 391 661 L 413 592 L 369 504 L 284 432 L 142 346 L 72.5 249 L 56.7 120 L 132 37.8 L 246 -15.8 L 381 12.6 L 482 117 L 520 224 L 507 346 L 463 406 L 425 403 L 365 356" />
<glyph unicode="&#xc0;" glyph-name="Agrave" horiz-adv-x="769" d="M 78.8 -142 L 53.5 -81.9 L -3.15 -59.9 L -85.1 -85 L -132 -158 L -142 -265 L -85.1 -328 L 9.45 -337 L 117 -280 L 224 -135 L 299 69.3 L 378 356 L 441 586 L 526 740 L 592 806 L 646 841 L 709 841 L 721 810 L 665 803 L 558 772 L 495 753 L 324 762 L 173 747 L 53.5 706 L -50.4 605 L -72.4 495 L -25.2 422 L 72.5 400 M 687 784 L 627 432 L 595 113 L 331 117 L 595 117 L 595 -69.3 L 627 -274 L 690 -432 L 756 -529 L 810 -564 L 866 -576 L 929 -570 L 1001.7 -532 M 389 1041.2 L 395 1012.8 L 417 975 L 471 921" />
<glyph unicode="&#xc1;" glyph-name="Aacute" horiz-adv-x="769" d="M 78.8 -142 L 53.5 -81.9 L -3.15 -59.9 L -85.1 -85 L -132 -158 L -142 -265 L -85.1 -328 L 9.45 -337 L 117 -280 L 224 -135 L 299 69.3 L 378 356 L 441 586 L 526 740 L 592 806 L 646 841 L 709 841 L 721 810 L 665 803 L 558 772 L 495 753 L 324 762 L 173 747 L 53.5 706 L -50.4 605 L -72.4 495 L -25.2 422 L 72.5 400 M 687 784 L 627 432 L 595 113 L 331 117 L 595 117 L 595 -69.3 L 627 -274 L 690 -432 L 756 -529 L 810 -564 L 866 -576 L 929 -570 L 1001.7 -532 M 707 1137.2 L 701 1099.4 L 682 1052.1 L 660 1017.5 L 638 989" />
<glyph unicode="&#xc2;" glyph-name="Acircumflex" horiz-adv-x="769" d="M 78.8 -142 L 53.5 -81.9 L -3.15 -59.9 L -85.1 -85 L -132 -158 L -142 -265 L -85.1 -328 L 9.45 -337 L 117 -280 L 224 -135 L 299 69.3 L 378 356 L 441 586 L 526 740 L 592 806 L 646 841 L 709 841 L 721 810 L 665 803 L 558 772 L 495 753 L 324 762 L 173 747 L 53.5 706 L -50.4 605 L -72.4 495 L -25.2 422 L 72.5 400 M 687 784 L 627 432 L 595 113 L 331 117 L 595 117 L 595 -69.3 L 627 -274 L 690 -432 L 756 -529 L 810 -564 L 866 -576 L 929 -570 L 1001.7 -532 M 375 857 L 459 876 L 555 912 L 651 970 L 685 989 L 672 931 L 672 889 L 689 862 L 706 855" />
<glyph unicode="&#xc3;" glyph-name="Atilde" horiz-adv-x="769" d="M 78.8 -142 L 53.5 -81.9 L -3.15 -59.9 L -85.1 -85 L -132 -158 L -142 -265 L -85.1 -328 L 9.45 -337 L 117 -280 L 224 -135 L 299 69.3 L 378 356 L 441 586 L 526 740 L 592 806 L 646 841 L 709 841 L 721 810 L 665 803 L 558 772 L 495 753 L 324 762 L 173 747 L 53.5 706 L -50.4 605 L -72.4 495 L -25.2 422 L 72.5 400 M 687 784 L 627 432 L 595 113 L 331 117 L 595 117 L 595 -69.3 L 627 -274 L 690 -432 L 756 -529 L 810 -564 L 866 -576 L 929 -570 L 1001.7 -532 M 346 811 L 381 873 L 414 900 L 459 904 L 530 881 L 583 863 L 618 858 L 666 889" />
<glyph unicode="&#xc4;" glyph-name="Adieresis" horiz-adv-x="769" d="M 78.8 -142 L 53.5 -81.9 L -3.15 -59.9 L -85.1 -85 L -132 -158 L -142 -265 L -85.1 -328 L 9.45 -337 L 117 -280 L 224 -135 L 299 69.3 L 378 356 L 441 586 L 526 740 L 592 806 L 646 841 L 709 841 L 721 810 L 665 803 L 558 772 L 495 753 L 324 762 L 173 747 L 53.5 706 L -50.4 605 L -72.4 495 L -25.2 422 L 72.5 400 M 687 784 L 627 432 L 595 113 L 331 117 L 595 117 L 595 -69.3 L 627 -274 L 690 -432 L 756 -529 L 810 -564 L 866 -576 L 929 -570 L 1001.7 -532 M 444 1007.5 L 475 1042.1 L 516 1013.8 L 494 989 L 444 1007.5 M 676 984 L 708 1019.0 L 749 991 L 727 965 L 676 984" />
<glyph unicode="&#xc5;" glyph-name="Aring" horiz-adv-x="769" d="M 78.8 -142 L 53.5 -81.9 L -3.15 -59.9 L -85.1 -85 L -132 -158 L -142 -265 L -85.1 -328 L 9.45 -337 L 117 -280 L 224 -135 L 299 69.3 L 378 356 L 441 586 L 526 740 L 592 806 L 646 841 L 709 841 L 721 810 L 665 803 L 558 772 L 495 753 L 324 762 L 173 747 L 53.5 706 L -50.4 605 L -72.4 495 L -25.2 422 L 72.5 400 M 687 784 L 627 432 L 595 113 L 331 117 L 595 117 L 595 -69.3 L 627 -274 L 690 -432 L 756 -529 L 810 -564 L 866 -576 L 929 -570 L 1001.7 -532 M 653 1242.7 L 606 1230.4 L 573 1198.3 L 547 1145.3 L 542 1096.2 L 554 1042.3 L 595 1003.6 L 641 994 L 687 1001.7 L 737 1036.7 L 762 1093.4 L 765 1154.8 L 741 1206.8 L 711 1236.1 L 674 1242.7 L 645 1228.5 L 628 1196.4 L 633 1166.1 L 650 1154.8 L 675 1156.7" />
<glyph unicode="&#xc8;" glyph-name="Egrave" horiz-adv-x="967" d="M 520 -6.3 L 435 -12.6 L 356 59.9 L 387 186 L 507 296 L 652 328 L 794 268 L 879 135 L 857 -31.5 L 756 -198 L 551 -302 L 359 -315 L 158 -198 L 69.3 25.2 L 126 261 L 261 422 L 428 526 L 523 551 L 621 551 L 570 520 L 495 523 L 413 586 L 387 668 L 466 772 L 586 828 L 706 822 L 797 750 L 822 687 L 775 605 M 428 1032.0 L 435 1003.7 L 457 966 L 510 912" />
<glyph unicode="&#xc9;" glyph-name="Eacute" horiz-adv-x="967" d="M 520 -6.3 L 435 -12.6 L 356 59.9 L 387 186 L 507 296 L 652 328 L 794 268 L 879 135 L 857 -31.5 L 756 -198 L 551 -302 L 359 -315 L 158 -198 L 69.3 25.2 L 126 261 L 261 422 L 428 526 L 523 551 L 621 551 L 570 520 L 495 523 L 413 586 L 387 668 L 466 772 L 586 828 L 706 822 L 797 750 L 822 687 L 775 605 M 806 1132.0 L 800 1094.2 L 781 1047.0 L 759 1012.3 L 737 984" />
<glyph unicode="&#xca;" glyph-name="Ecircumflex" horiz-adv-x="967" d="M 520 -6.3 L 435 -12.6 L 356 59.9 L 387 186 L 507 296 L 652 328 L 794 268 L 879 135 L 857 -31.5 L 756 -198 L 551 -302 L 359 -315 L 158 -198 L 69.3 25.2 L 126 261 L 261 422 L 428 526 L 523 551 L 621 551 L 570 520 L 495 523 L 413 586 L 387 668 L 466 772 L 586 828 L 706 822 L 797 750 L 822 687 L 775 605 M 382 911 L 470 931 L 571 968 L 671 1029.3 L 706 1049.0 L 693 988 L 693 944 L 711 915 L 728 909" />
<glyph unicode="&#xcb;" glyph-name="Edieresis" horiz-adv-x="967" d="M 520 -6.3 L 435 -12.6 L 356 59.9 L 387 186 L 507 296 L 652 328 L 794 268 L 879 135 L 857 -31.5 L 756 -198 L 551 -302 L 359 -315 L 158 -198 L 69.3 25.2 L 126 261 L 261 422 L 428 526 L 523 551 L 621 551 L 570 520 L 495 523 L 413 586 L 387 668 L 466 772 L 586 828 L 706 822 L 797 750 L 822 687 L 775 605 M 477 1003.1 L 509 1037.8 L 550 1009.4 L 528 984 L 477 1003.1 M 693 982 L 724 1016.5 L 765 988 L 743 963 L 693 982" />
<glyph unicode="&#xcc;" glyph-name="Igrave" horiz-adv-x="655" d="M 142 -186 L 129 -255 L 214 -318 L 343 -312 L 476 -202 L 520 -9.45 L 507 249 L 444 567 L 391 835 L 274 674 L 170 488 L 113 315 L 104 154 L 189 40.9 L 255 22.1 L 343 22.1 M 217 1026.0 L 224 998 L 246 960 L 299 906" />
<glyph unicode="&#xcd;" glyph-name="Iacute" horiz-adv-x="655" d="M 142 -186 L 129 -255 L 214 -318 L 343 -312 L 476 -202 L 520 -9.45 L 507 249 L 444 567 L 391 835 L 274 674 L 170 488 L 113 315 L 104 154 L 189 40.9 L 255 22.1 L 343 22.1 M 628 1135.3 L 622 1097.5 L 603 1050.3 L 581 1015.6 L 559 987" />
<glyph unicode="&#xce;" glyph-name="Icircumflex" horiz-adv-x="655" d="M 142 -186 L 129 -255 L 214 -318 L 343 -312 L 476 -202 L 520 -9.45 L 507 249 L 444 567 L 391 835 L 274 674 L 170 488 L 113 315 L 104 154 L 189 40.9 L 255 22.1 L 343 22.1 M 193 913 L 280 933 L 381 970 L 482 1031.1 L 517 1050.8 L 504 990 L 504 946 L 521 917 L 539 911" />
<glyph unicode="&#xcf;" glyph-name="Idieresis" horiz-adv-x="655" d="M 142 -186 L 129 -255 L 214 -318 L 343 -312 L 476 -202 L 520 -9.45 L 507 249 L 444 567 L 391 835 L 274 674 L 170 488 L 113 315 L 104 154 L 189 40.9 L 255 22.1 L 343 22.1 M 292 997 L 323 1031.5 L 364 1003.2 L 342 978 L 292 997 M 570 978 L 601 1012.2 L 642 984 L 620 959 L 570 978" />
<glyph unicode="&#xd0;" glyph-name="Eth" horiz-adv-x="1162.3" d="M 176 293 L 633 287 M 252 183 L 158 198 L 101 290 L 91.4 444 L 135 576 L 246 696 L 378 762 L 551 806 L 728 784 L 869 709 L 976 542 L 1033.2 324 L 1039.5 97.7 L 973 -50.4 L 847 -170 L 662 -243 L 520 -258 L 372 -217 L 198 -183 L 113 -230 L 110 -293 L 186 -337 L 318 -277 L 428 -170 L 454 -28.4 L 425 154 L 394 372 L 422 561 L 469 639 L 598 709" />
<glyph unicode="&#xd1;" glyph-name="Ntilde" horiz-adv-x="731" d="M 59.9 -44.1 L 69.3 6.3 L -18.9 53.6 L -107 12.6 L -158 -91.4 L -139 -180 L -53.6 -268 L 75.6 -293 L 217 -195 L 274 -53.5 L 277 214 L 265 413 L 224 595 L 183 772 L 318 476 L 479 135 L 580 -110 L 652 -287 L 595 -41 L 570 255 L 630 617 L 753 904 L 895 1004.8 L 980 999 L 1023.8 926 L 1011.2 866 L 980 816 L 932 803 M 301 905 L 340 973 L 376 1003.0 L 427 1007.6 L 504 982 L 564 962 L 603 957 L 655 992" />
<glyph unicode="&#xd2;" glyph-name="Ograve" horiz-adv-x="948" d="M 463 677 L 306 636 L 195 529 L 110 353 L 94.5 189 L 132 9.45 L 271 -120 L 422 -151 L 576 -126 L 743 -9.45 L 825 180 L 835 384 L 756 558 L 655 655 L 532 677 L 438 630 L 381 523 L 397 422 L 454 384 L 536 391 M 389 1042.9 L 396 1014.5 L 418 977 L 471 923" />
<glyph unicode="&#xd3;" glyph-name="Oacute" horiz-adv-x="948" d="M 463 677 L 306 636 L 195 529 L 110 353 L 94.5 189 L 132 9.45 L 271 -120 L 422 -151 L 576 -126 L 743 -9.45 L 825 180 L 835 384 L 756 558 L 655 655 L 532 677 L 438 630 L 381 523 L 397 422 L 454 384 L 536 391 M 769 1152.0 L 762 1114.2 L 744 1067.0 L 721 1032.3 L 699 1004.0" />
<glyph unicode="&#xd4;" glyph-name="Ocircumflex" horiz-adv-x="948" d="M 463 677 L 306 636 L 195 529 L 110 353 L 94.5 189 L 132 9.45 L 271 -120 L 422 -151 L 576 -126 L 743 -9.45 L 825 180 L 835 384 L 756 558 L 655 655 L 532 677 L 438 630 L 381 523 L 397 422 L 454 384 L 536 391 M 264 871 L 347 890 L 443 925 L 539 984 L 572 1002.6 L 560 944 L 560 903 L 576 875 L 593 869" />
<glyph unicode="&#xd5;" glyph-name="Otilde" horiz-adv-x="948" d="M 463 677 L 306 636 L 195 529 L 110 353 L 94.5 189 L 132 9.45 L 271 -120 L 422 -151 L 576 -126 L 743 -9.45 L 825 180 L 835 384 L 756 558 L 655 655 L 532 677 L 438 630 L 381 523 L 397 422 L 454 384 L 536 391 M 334 916 L 373 985 L 410 1015.6 L 462 1020.3 L 541 995 L 601 974 L 640 969 L 694 1004.0" />
<glyph unicode="&#xd6;" glyph-name="Odieresis" horiz-adv-x="948" d="M 463 677 L 306 636 L 195 529 L 110 353 L 94.5 189 L 132 9.45 L 271 -120 L 422 -151 L 576 -126 L 743 -9.45 L 825 180 L 835 384 L 756 558 L 655 655 L 532 677 L 438 630 L 381 523 L 397 422 L 454 384 L 536 391 M 564 964 L 595 999 L 636 970 L 614 945 L 564 964 M 851 1017.5 L 883 1052.1 L 924 1023.8 L 902 999 L 851 1017.5" />
<glyph unicode="&#xd7;" glyph-name="multiply" horiz-adv-x="387" d="M 3.15 -28.4 L 198 265 L 346 472 M 107 498 L 192 224 L 293 -3.15" />
<glyph unicode="&#xd8;" glyph-name="Oslash" horiz-adv-x="948" d="M 463 677 L 306 636 L 195 529 L 110 353 L 94.5 189 L 132 9.45 L 271 -120 L 422 -151 L 576 -126 L 743 -9.45 L 825 180 L 835 384 L 756 558 L 655 655 L 532 677 L 438 630 L 381 523 L 397 422 L 454 384 L 536 391 M 208 -320 L 194 -204 L 228 -61.2 L 313 146 L 459 415 L 650 721 L 772 881" />
<glyph unicode="&#xd9;" glyph-name="Ugrave" horiz-adv-x="832" d="M 101 595 L 25.2 567 L -37.8 614 L -44.1 696 L 9.45 803 L 101 866 L 186 876 L 287 803 L 296 633 L 265 454 L 195 277 L 142 69.3 L 113 -78.8 L 120 -180 L 154 -246 L 211 -255 L 284 -233 L 406 -101 L 551 132 L 658 343 L 759 602 L 617 154 L 605 -81.9 L 617 -227 L 643 -290 L 674 -328 L 740 -337 L 803 -315 M 317 1041.6 L 323 1013.2 L 345 975 L 398 922" />
<glyph unicode="&#xda;" glyph-name="Uacute" horiz-adv-x="832" d="M 101 595 L 25.2 567 L -37.8 614 L -44.1 696 L 9.45 803 L 101 866 L 186 876 L 287 803 L 296 633 L 265 454 L 195 277 L 142 69.3 L 113 -78.8 L 120 -180 L 154 -246 L 211 -255 L 284 -233 L 406 -101 L 551 132 L 658 343 L 759 602 L 617 154 L 605 -81.9 L 617 -227 L 643 -290 L 674 -328 L 740 -337 L 803 -315 M 720 1131.3 L 713 1093.5 L 694 1046.2 L 672 1011.6 L 650 983" />
<glyph unicode="&#xdb;" glyph-name="Ucircumflex" horiz-adv-x="832" d="M 101 595 L 25.2 567 L -37.8 614 L -44.1 696 L 9.45 803 L 101 866 L 186 876 L 287 803 L 296 633 L 265 454 L 195 277 L 142 69.3 L 113 -78.8 L 120 -180 L 154 -246 L 211 -255 L 284 -233 L 406 -101 L 551 132 L 658 343 L 759 602 L 617 154 L 605 -81.9 L 617 -227 L 643 -290 L 674 -328 L 740 -337 L 803 -315 M 353 866 L 437 885 L 534 920 L 631 979 L 665 998 L 652 939 L 652 897 L 669 870 L 686 864" />
<glyph unicode="&#xdc;" glyph-name="Udieresis" horiz-adv-x="832" d="M 101 595 L 25.2 567 L -37.8 614 L -44.1 696 L 9.45 803 L 101 866 L 186 876 L 287 803 L 296 633 L 265 454 L 195 277 L 142 69.3 L 113 -78.8 L 120 -180 L 154 -246 L 211 -255 L 284 -233 L 406 -101 L 551 132 L 658 343 L 759 602 L 617 154 L 605 -81.9 L 617 -227 L 643 -290 L 674 -328 L 740 -337 L 803 -315 M 460 979 L 492 1013.6 L 533 985 L 511 960 L 460 979 M 682 1024.5 L 713 1059.2 L 754 1030.8 L 732 1005.6 L 682 1024.5" />
<glyph unicode="&#xdd;" glyph-name="Yacute" horiz-adv-x="778" d="M 28.4 624 L -37.8 611 L -88.2 649 L -81.9 731 L -37.8 810 L 31.5 869 L 139 891 L 208 841 L 236 724 L 198 580 L 129 375 L 97.6 195 L 126 91.4 L 239 47.2 L 337 88.2 L 454 173 L 551 312 L 693 523 L 759 662 L 781 772 L 762 816 L 690 813 L 598 690 L 551 501 L 564 287 L 627 56.7 L 677 -167 L 677 -350 L 633 -450 L 554 -548 L 419 -621 L 312 -633 L 236 -592 L 236 -460 L 315 -340 L 447 -211 L 551 -135 L 617 -123 L 743 -88.2 L 822 -97.6 L 850 -129 L 822 -189 M 706 1137.2 L 700 1099.4 L 681 1052.1 L 659 1017.5 L 637 989" />
<glyph unicode="&#xe0;" glyph-name="agrave" horiz-adv-x="472" d="M 340 306 L 268 198 L 205 113 L 132 50.4 L 88.2 47.2 L 56.7 69.3 L 72.5 161 L 110 249 L 198 315 L 255 321 L 306 271 L 331 12.6 L 350 -18.9 L 394 -9.45 L 428 9.45 M 116 618 L 122 590 L 144 552 L 198 498" />
<glyph unicode="&#xe1;" glyph-name="aacute" horiz-adv-x="472" d="M 340 306 L 268 198 L 205 113 L 132 50.4 L 88.2 47.2 L 56.7 69.3 L 72.5 161 L 110 249 L 198 315 L 255 321 L 306 271 L 331 12.6 L 350 -18.9 L 394 -9.45 L 428 9.45 M 356 717 L 349 679 L 330 632 L 308 597 L 286 569" />
<glyph unicode="&#xe2;" glyph-name="acircumflex" horiz-adv-x="472" d="M 340 306 L 268 198 L 205 113 L 132 50.4 L 88.2 47.2 L 56.7 69.3 L 72.5 161 L 110 249 L 198 315 L 255 321 L 306 271 L 331 12.6 L 350 -18.9 L 394 -9.45 L 428 9.45 M -21.8 527 L 69.8 548 L 175 586 L 281 651 L 317 671 L 303 607 L 303 561 L 322 531 L 340 525" />
<glyph unicode="&#xe3;" glyph-name="atilde" horiz-adv-x="472" d="M 340 306 L 268 198 L 205 113 L 132 50.4 L 88.2 47.2 L 56.7 69.3 L 72.5 161 L 110 249 L 198 315 L 255 321 L 306 271 L 331 12.6 L 350 -18.9 L 394 -9.45 L 428 9.45 M 55 417 L 91.1 480 L 125 508 L 172 512 L 244 489 L 299 470 L 335 465 L 384 497" />
<glyph unicode="&#xe4;" glyph-name="adieresis" horiz-adv-x="472" d="M 340 306 L 268 198 L 205 113 L 132 50.4 L 88.2 47.2 L 56.7 69.3 L 72.5 161 L 110 249 L 198 315 L 255 321 L 306 271 L 331 12.6 L 350 -18.9 L 394 -9.45 L 428 9.45 M 121 591 L 152 626 L 193 597 L 171 572 L 121 591 M 331 613 L 363 648 L 404 619 L 382 594 L 331 613" />
<glyph unicode="&#xe5;" glyph-name="aring" horiz-adv-x="472" d="M 340 306 L 268 198 L 205 113 L 132 50.4 L 88.2 47.2 L 56.7 69.3 L 72.5 161 L 110 249 L 198 315 L 255 321 L 306 271 L 331 12.6 L 350 -18.9 L 394 -9.45 L 428 9.45 M 328 770 L 281 758 L 248 726 L 222 673 L 217 624 L 229 570 L 270 531 L 316 522 L 362 529 L 412 564 L 437 621 L 439 682 L 416 734 L 386 764 L 349 770 L 320 756 L 303 724 L 308 694 L 325 682 L 350 684" />
<glyph unicode="&#xe8;" glyph-name="egrave" horiz-adv-x="447" d="M 88.2 255 L 170 217 L 246 227 L 309 277 L 318 343 L 280 384 L 205 381 L 129 334 L 78.8 239 L 66.1 132 L 129 40.9 L 220 12.6 L 287 31.5 L 387 120 M 85.6 612 L 91.9 584 L 114 546 L 168 492" />
<glyph unicode="&#xe9;" glyph-name="eacute" horiz-adv-x="447" d="M 88.2 255 L 170 217 L 246 227 L 309 277 L 318 343 L 280 384 L 205 381 L 129 334 L 78.8 239 L 66.1 132 L 129 40.9 L 220 12.6 L 287 31.5 L 387 120 M 336 696 L 330 658 L 311 611 L 289 576 L 267 548" />
<glyph unicode="&#xea;" glyph-name="ecircumflex" horiz-adv-x="447" d="M 88.2 255 L 170 217 L 246 227 L 309 277 L 318 343 L 280 384 L 205 381 L 129 334 L 78.8 239 L 66.1 132 L 129 40.9 L 220 12.6 L 287 31.5 L 387 120 M -44.1 501 L 41.2 521 L 139 557 L 237 616 L 271 636 L 259 576 L 259 533 L 276 506 L 293 499" />
<glyph unicode="&#xeb;" glyph-name="edieresis" horiz-adv-x="447" d="M 88.2 255 L 170 217 L 246 227 L 309 277 L 318 343 L 280 384 L 205 381 L 129 334 L 78.8 239 L 66.1 132 L 129 40.9 L 220 12.6 L 287 31.5 L 387 120 M 135 592 L 166 627 L 207 599 L 185 573 L 135 592 M 291 594 L 323 629 L 364 600 L 342 575 L 291 594" />
<glyph unicode="&#xec;" glyph-name="igrave" horiz-adv-x="280" d="M 186 0 L 132 -9.45 L 101 3.15 L 113 312 L 110 331 L 66.1 324 L 28.4 299  M 18.3 615 L 24.6 587 L 46.6 549 L 100 496" />
<glyph unicode="&#xed;" glyph-name="iacute" horiz-adv-x="280" d="M 186 0 L 132 -9.45 L 101 3.15 L 113 312 L 110 331 L 66.1 324 L 28.4 299  M 272 711 L 265 673 L 247 626 L 225 591 L 202 563" />
<glyph unicode="&#xee;" glyph-name="icircumflex" horiz-adv-x="280" d="M 186 0 L 132 -9.45 L 101 3.15 L 113 312 L 110 331 L 66.1 324 L 28.4 299  M -102 500 L -16 519 L 82.3 555 L 181 615 L 215 634 L 202 574 L 202 532 L 219 504 L 236 497" />
<glyph unicode="&#xef;" glyph-name="idieresis" horiz-adv-x="280" d="M 186 0 L 132 -9.45 L 101 3.15 L 113 312 L 110 331 L 66.1 324 L 28.4 299  M 23.4 568 L 54.9 603 L 95.8 575 L 73.8 549 L 23.4 568 M 229 599 L 261 634 L 302 605 L 280 580 L 229 599" />
<glyph unicode="&#xf1;" glyph-name="ntilde" horiz-adv-x="532" d="M 18.9 280 L 104 334 L 126 224 L 145 97.7 L 145 -53.5 L 170 97.7 L 230 224 L 274 287 L 315 318 L 356 321 L 375 287 L 397 113 L 406 -50.4 L 441 -107 L 482 -110 L 536 -91.4 M 64.6 460 L 103 528 L 140 558 L 190 562 L 267 537 L 326 517 L 365 512 L 417 546" />
<glyph unicode="&#xf2;" glyph-name="ograve" horiz-adv-x="410" d="M 208 365 L 145 343 L 88.2 287 L 63 192 L 69.3 132 L 123 85.1 L 202 78.8 L 277 132 L 309 180 L 328 261 L 318 312 L 274 343 L 208 365 M 76.6 619 L 82.9 590 L 105 553 L 159 499" />
<glyph unicode="&#xf3;" glyph-name="oacute" horiz-adv-x="410" d="M 208 365 L 145 343 L 88.2 287 L 63 192 L 69.3 132 L 123 85.1 L 202 78.8 L 277 132 L 309 180 L 328 261 L 318 312 L 274 343 L 208 365 M 334 684 L 327 647 L 308 599 L 286 565 L 264 536" />
<glyph unicode="&#xf4;" glyph-name="ocircumflex" horiz-adv-x="410" d="M 208 365 L 145 343 L 88.2 287 L 63 192 L 69.3 132 L 123 85.1 L 202 78.8 L 277 132 L 309 180 L 328 261 L 318 312 L 274 343 L 208 365 M -50.3 522 L 40.7 542 L 145 581 L 250 644 L 286 665 L 273 601 L 273 556 L 291 526 L 309 519" />
<glyph unicode="&#xf5;" glyph-name="otilde" horiz-adv-x="410" d="M 208 365 L 145 343 L 88.2 287 L 63 192 L 69.3 132 L 123 85.1 L 202 78.8 L 277 132 L 309 180 L 328 261 L 318 312 L 274 343 L 208 365 M 27.2 468 L 66.8 538 L 104 568 L 155 573 L 234 547 L 295 526 L 334 522 L 388 557" />
<glyph unicode="&#xf6;" glyph-name="odieresis" horiz-adv-x="410" d="M 208 365 L 145 343 L 88.2 287 L 63 192 L 69.3 132 L 123 85.1 L 202 78.8 L 277 132 L 309 180 L 328 261 L 318 312 L 274 343 L 208 365 M 96.4 617 L 128 652 L 169 624 L 147 598 L 96.4 617 M 320 565 L 351 599 L 392 571 L 370 546 L 320 565" />
<glyph unicode="&#xf7;" glyph-name="divide" horiz-adv-x="718" d="M 328 460 L 359 495 L 400 466 L 378 441 L 328 460 M 324 208 L 355 243 L 396 214 L 374 189 L 324 208 M 98.3 356 L 646 350" />
<glyph unicode="&#xf8;" glyph-name="oslash" horiz-adv-x="410" d="M 208 365 L 145 343 L 88.2 287 L 63 192 L 69.3 132 L 123 85.1 L 202 78.8 L 277 132 L 309 180 L 328 261 L 318 312 L 274 343 L 208 365 M 68.4 -207 L 59.5 -132 L 81.6 -39.7 L 137 94.8 L 232 269 L 355 467 L 434 571" />
<glyph unicode="&#xf9;" glyph-name="ugrave" horiz-adv-x="447" d="M 12.6 306 L 22 312 L 91.4 343 L 104 324 L 101 72.4 L 101 56.7 L 145 72.4 L 211 139 L 268 224 L 315 299 L 334 324 L 318 12.6 L 331 -41 L 369 -41 L 406 -41 L 454 -22.1 M 87.5 616 L 93.8 588 L 116 550 L 169 497" />
<glyph unicode="&#xfa;" glyph-name="uacute" horiz-adv-x="447" d="M 12.6 306 L 22 312 L 91.4 343 L 104 324 L 101 72.4 L 101 56.7 L 145 72.4 L 211 139 L 268 224 L 315 299 L 334 324 L 318 12.6 L 331 -41 L 369 -41 L 406 -41 L 454 -22.1 M 332 680 L 326 642 L 307 595 L 285 560 L 263 532" />
<glyph unicode="&#xfb;" glyph-name="ucircumflex" horiz-adv-x="447" d="M 12.6 306 L 22 312 L 91.4 343 L 104 324 L 101 72.4 L 101 56.7 L 145 72.4 L 211 139 L 268 224 L 315 299 L 334 324 L 318 12.6 L 331 -41 L 369 -41 L 406 -41 L 454 -22.1 M -52.3 548 L 39.9 569 L 146 608 L 252 673 L 289 693 L 275 629 L 275 583 L 294 553 L 312 546" />
<glyph unicode="&#xfc;" glyph-name="udieresis" horiz-adv-x="447" d="M 12.6 306 L 22 312 L 91.4 343 L 104 324 L 101 72.4 L 101 56.7 L 145 72.4 L 211 139 L 268 224 L 315 299 L 334 324 L 318 12.6 L 331 -41 L 369 -41 L 406 -41 L 454 -22.1 M 43.5 616 L 75 651 L 116 622 L 93.9 597 L 43.5 616 M 326 560 L 357 595 L 398 566 L 376 541 L 326 560" />
<glyph unicode="&#xfd;" glyph-name="yacute" horiz-adv-x="542" d="M -3.15 375 L 9.45 375 L 59.9 384 L 107 350 L 126 208 L 132 101 L 183 97.7 L 287 205 L 359 309 L 403 391 L 410 293 L 419 88.2 L 425 -101 L 384 -280 L 346 -350 L 271 -400 L 167 -435 L 66.1 -410 L 9.45 -378 L -25.2 -318 L -9.45 -252 L 53.5 -183 M 396 681 L 390 643 L 371 596 L 349 561 L 327 533" />
<glyph unicode="&#xff;" glyph-name="ydieresis" horiz-adv-x="542" d="M -3.15 375 L 9.45 375 L 59.9 384 L 107 350 L 126 208 L 132 101 L 183 97.7 L 287 205 L 359 309 L 403 391 L 410 293 L 419 88.2 L 425 -101 L 384 -280 L 346 -350 L 271 -400 L 167 -435 L 66.1 -410 L 9.45 -378 L -25.2 -318 L -9.45 -252 L 53.5 -183 M 147 574 L 178 609 L 219 581 L 197 555 L 147 574 M 376 602 L 408 637 L 449 608 L 427 583 L 376 602" />
<glyph unicode="&#x2013;" glyph-name="endash" horiz-adv-x="898" d="M 123 261 L 808 255" />
<glyph unicode="&#x2014;" glyph-name="emdash" horiz-adv-x="1197.0" d="M 164 261 L 1077.3 255" />
<glyph unicode="&#x201c;" glyph-name="quotedblleft" horiz-adv-x="319" d="M 79.4 726 L 73.7 751 L 55.3 731 L 80.8 692 L 115 663 L 137 655 M 221 726 L 215 751 L 197 731 L 223 692 L 257 663 L 279 655" />
<glyph unicode="&#x201d;" glyph-name="quotedblright" horiz-adv-x="319" d="M 184 754 L 190 780 L 208 760 L 183 720 L 149 692 L 126 683 M 326 754 L 332 780 L 350 760 L 325 720 L 291 692 L 268 683" />
<glyph unicode="&#x2039;" glyph-name="guilsinglleft" horiz-adv-x="183" d="M 145 -7.56 L 34 212 L 140 423" />
<glyph unicode="&#x203a;" glyph-name="guilsinglright" horiz-adv-x="213" d="M 61.7 -10.1 L 173 239 L 37.8 426" />
<glyph unicode="&#x20ac;" glyph-name="Euro" horiz-adv-x="989" d="M 677 447 L 668 406 L 721 353 L 813 359 L 926 432 L 973 542 L 970 636 L 891 750 L 772 816 L 598 822 L 410 762 L 208 608 L 97.6 450 L 66.1 268 L 88.2 101 L 145 -50.4 L 268 -173 L 391 -265 L 520 -312 L 696 -299 L 828 -246 L 917 -173 M 18.9 198 L 476 192 M 18.9 324 L 476 318" />
<glyph unicode="&#x0178;" glyph-name="Ydieresis" horiz-adv-x="778" d="M 28.4 624 L -37.8 611 L -88.2 649 L -81.9 731 L -37.8 810 L 31.5 869 L 139 891 L 208 841 L 236 724 L 198 580 L 129 375 L 97.6 195 L 126 91.4 L 239 47.2 L 337 88.2 L 454 173 L 551 312 L 693 523 L 759 662 L 781 772 L 762 816 L 690 813 L 598 690 L 551 501 L 564 287 L 627 56.7 L 677 -167 L 677 -350 L 633 -450 L 554 -548 L 419 -621 L 312 -633 L 236 -592 L 236 -460 L 315 -340 L 447 -211 L 551 -135 L 617 -123 L 743 -88.2 L 822 -97.6 L 850 -129 L 822 -189 M 345 980 L 377 1014.4 L 418 986 L 396 961 L 345 980 M 569 1021.8 L 601 1056.5 L 642 1028.1 L 620 1002.9 L 569 1021.8" />
<glyph unicode="&#x102;" glyph-name="Abreve" horiz-adv-x="769" d="M 78.8 -142 L 53.5 -81.9 L -3.15 -59.9 L -85.1 -85 L -132 -158 L -142 -265 L -85.1 -328 L 9.45 -337 L 117 -280 L 224 -135 L 299 69.3 L 378 356 L 441 586 L 526 740 L 592 806 L 646 841 L 709 841 L 721 810 L 665 803 L 558 772 L 495 753 L 324 762 L 173 747 L 53.5 706 L -50.4 605 L -72.4 495 L -25.2 422 L 72.5 400 M 687 784 L 627 432 L 595 113 L 331 117 L 595 117 L 595 -69.3 L 627 -274 L 690 -432 L 756 -529 L 810 -564 L 866 -576 L 929 -570 L 1001.7 -532 M424.995 1117.64C463.978 1083.84 452.319 1033.21 541.138 1033.21C629.958 1033.21 676.639 1144.16 676.639 1144.16" />
<glyph unicode="&#x114;" glyph-name="Ebreve" horiz-adv-x="967" d="M 520 -6.3 L 435 -12.6 L 356 59.9 L 387 186 L 507 296 L 652 328 L 794 268 L 879 135 L 857 -31.5 L 756 -198 L 551 -302 L 359 -315 L 158 -198 L 69.3 25.2 L 126 261 L 261 422 L 428 526 L 523 551 L 621 551 L 570 520 L 495 523 L 413 586 L 387 668 L 466 772 L 586 828 L 706 822 L 797 750 L 822 687 L 775 605 M447.995 1121.08C486.978 1087.28 475.319 1036.65 564.138 1036.65C652.958 1036.65 699.639 1147.59 699.639 1147.59" />
<glyph unicode="&#x11E;" glyph-name="Gbreve" horiz-adv-x="1099.3" d="M 94.5 687 L 12.6 586 L -12.6 454 L 37.8 312 L 176 258 L 340 261 L 532 331 L 718 438 L 869 564 L 970 668 L 954 781 L 888 847 L 728 835 L 573 765 L 419 624 L 293 441 L 230 318 L 186 145 L 211 -22.1 L 324 -167 L 526 -170 L 702 -85 L 869 69.3 L 989 249 L 961 145 L 983 -59.9 L 989 -249 L 945 -328 L 876 -384 L 781 -391 M489.995 1107.7C528.978 1073.91 517.319 1023.27 606.138 1023.27C694.958 1023.27 741.639 1134.22 741.639 1134.22" />
<glyph unicode="&#x12C;" glyph-name="Ibreve" horiz-adv-x="655" d="M 142 -186 L 129 -255 L 214 -318 L 343 -312 L 476 -202 L 520 -9.45 L 507 249 L 444 567 L 391 835 L 274 674 L 170 488 L 113 315 L 104 154 L 189 40.9 L 255 22.1 L 343 22.1 M328.995 1095.6C367.978 1061.8 356.319 1011.16 445.138 1011.16C533.958 1011.16 580.639 1122.11 580.639 1122.11" />
<glyph unicode="&#x14E;" glyph-name="Obreve" horiz-adv-x="948" d="M 463 677 L 306 636 L 195 529 L 110 353 L 94.5 189 L 132 9.45 L 271 -120 L 422 -151 L 576 -126 L 743 -9.45 L 825 180 L 835 384 L 756 558 L 655 655 L 532 677 L 438 630 L 381 523 L 397 422 L 454 384 L 536 391 M441.995 1093.31C480.978 1059.51 469.319 1008.88 558.138 1008.88C646.958 1008.88 693.639 1119.82 693.639 1119.82" />
<glyph unicode="&#x16C;" glyph-name="Ubreve" horiz-adv-x="832" d="M 101 595 L 25.2 567 L -37.8 614 L -44.1 696 L 9.45 803 L 101 866 L 186 876 L 287 803 L 296 633 L 265 454 L 195 277 L 142 69.3 L 113 -78.8 L 120 -180 L 154 -246 L 211 -255 L 284 -233 L 406 -101 L 551 132 L 658 343 L 759 602 L 617 154 L 605 -81.9 L 617 -227 L 643 -290 L 674 -328 L 740 -337 L 803 -315 M404.995 1111.63C443.978 1077.83 432.319 1027.2 521.138 1027.2C609.958 1027.2 656.639 1138.15 656.639 1138.15" />
<glyph unicode="&#x103;" glyph-name="abreve" horiz-adv-x="472" d="M 340 306 L 268 198 L 205 113 L 132 50.4 L 88.2 47.2 L 56.7 69.3 L 72.5 161 L 110 249 L 198 315 L 255 321 L 306 271 L 331 12.6 L 350 -18.9 L 394 -9.45 L 428 9.45 M110.995 699.995C149.978 666.196 138.319 615.561 227.138 615.561C315.958 615.561 362.639 726.507 362.639 726.507" />
<glyph unicode="&#x115;" glyph-name="ebreve" horiz-adv-x="447" d="M 88.2 255 L 170 217 L 246 227 L 309 277 L 318 343 L 280 384 L 205 381 L 129 334 L 78.8 239 L 66.1 132 L 129 40.9 L 220 12.6 L 287 31.5 L 387 120 M102.995 707.284C141.978 673.485 130.319 622.851 219.138 622.851C307.958 622.851 354.639 733.797 354.639 733.797" />
<glyph unicode="&#x11F;" glyph-name="gbreve" horiz-adv-x="476" d="M 343 397 L 296 290 L 249 214 L 180 173 L 104 176 L 59.9 227 L 63 321 L 135 416 L 211 447 L 324 450 L 309 450 L 318 12.6 L 306 -167 L 277 -318 L 220 -413 L 139 -495 L 44.1 -539 L -31.5 -539 L -126 -495 L -154 -435 M111.995 689.438C150.978 655.639 139.319 605.004 228.138 605.004C316.958 605.004 363.639 715.95 363.639 715.95" />
<glyph unicode="&#x12D;" glyph-name="ibreve" horiz-adv-x="280" d="M 186 0 L 132 -9.45 L 101 3.15 L 113 312 L 110 331 L 66.1 324 L 28.4 299  M49.9954 664.513C88.9784 630.715 77.319 580.08 166.138 580.08C254.958 580.08 301.639 691.026 301.639 691.026" />
<glyph unicode="&#x14F;" glyph-name="obreve" horiz-adv-x="410" d="M 208 365 L 145 343 L 88.2 287 L 63 192 L 69.3 132 L 123 85.1 L 202 78.8 L 277 132 L 309 180 L 328 261 L 318 312 L 274 343 L 208 365 M90.9954 674.805C129.978 641.006 118.319 590.371 207.138 590.371C295.958 590.371 342.639 701.317 342.639 701.317" />
<glyph unicode="&#x16D;" glyph-name="ubreve" horiz-adv-x="447" d="M 12.6 306 L 22 312 L 91.4 343 L 104 324 L 101 72.4 L 101 56.7 L 145 72.4 L 211 139 L 268 224 L 315 299 L 334 324 L 318 12.6 L 331 -41 L 369 -41 L 406 -41 L 454 -22.1 M102.995 687.607C141.978 653.809 130.319 603.174 219.138 603.174C307.958 603.174 354.639 714.12 354.639 714.12" />
<glyph unicode="&#xc7;" glyph-name="Ccedilla" horiz-adv-x="989" d="M595.458 -307.437C622.709 -492.809 580.372 -584.983 443.673 -591.007M677 447L668 406L721 353L813 359L926 432L973 542L970 636L891 750L772 816L598 822L410 762L208 608L97.6 450L66.1 268L88.2 101L145 -50.4L268 -173L391 -265L520 -312L696 -299L828 -246L917 -173" />
<glyph unicode="&#xC6;" glyph-name="AE" horiz-adv-x="1510.0" d="M1064.88 -6.3C981.091 -24.6378 855.219 -12.0125 923.343 178.946C991.467 369.905 1535.71 422.439 1396.93 -24.4769C1258.15 -471.393 610.87 -362.093 618.674 56.6462C626.477 475.386 1217.48 614.133 1152.4 542.015C1087.33 469.898 931.035 585.515 936.758 655.2C942.482 724.885 1030.87 804.736 1137.62 830.246C1244.37 855.756 1429.48 755.107 1319.88 605M108.8 -142C31.6218 42.3572 -141.877 -128.632 -107.137 -252.841C-72.3961 -377.05 59.3486 -341.133 159.159 -262.978C258.968 -184.823 281.884 -59.0435 329 69.3L408 356C435.127 494.968 489.734 658.249 556 740C622.266 821.751 716.455 899.242 751 810C481.565 697.31 187.832 827.157 16.0756 646.339C-79.4702 508.629 -33.7228 418.21 102.5 400M717 784L657 432L625 113L361 117L625 117" />
<glyph unicode="&#x130;" glyph-name="Idotaccent" horiz-adv-x="655" d="M323.649 961.915L351.949 986.915L430.949 932.915L392.949 898.915L323.649 961.915M142 -186L129 -255L214 -318L343 -312L476 -202L520 -9.45L507 249L444 567L391 835L274 674L170 488L113 315L104 154L189 40.9L255 22.1L343 22.1" />
<glyph unicode="&#xdf;" glyph-name="germandbls" horiz-adv-x="780" d="M10.0709 -181.461C3.44332 -427.372 468.417 -395.502 341.713 -5.76517C245.393 290.513 225.756 415.991 325.5 532.741C425.245 649.491 614.125 569.913 550.665 446.955C487.205 323.996 279.482 255.791 493.776 237.478C708.07 219.165 839.413 -100.687 685.317 -216.079C531.22 -331.471 497.866 -153.664 497.866 -153.664" />
<glyph unicode="&#x131;" glyph-name="dotlessi" horiz-adv-x="280" d="M186 -0L132 -9.45L101 3.15L113 312L110 331L66.1 324L28.4 299" />
<glyph unicode="&#x15E;" glyph-name="Scedilla" horiz-adv-x="684" d="M256.694 -339.135C283.945 -524.507 241.608 -616.681 104.909 -622.704M167 37.8C109.838 -15.0443 41.0502 -82.9029 34.6 -151C27.5954 -261.401 81.8062 -316.616 176 -337C317.047 -364.922 508.787 -261.22 576 -148C626.933 -27.1359 553.423 61.0416 529 101C468.509 200.563 252.372 472.319 208 576C178.46 645.069 172.069 692.982 202 747C218.241 775.802 262.282 813.879 293 835C349.223 871.087 423.596 896.39 482 882C566.382 856.257 631.521 780.693 617 696C609.651 657.502 551 602 551 602" />
<glyph unicode="&#xE6;" glyph-name="ae" horiz-adv-x="530" d="M288.26 253.015C215.057 147.17 141.692 27.7784 88.1107 51.4988C25.3093 79.301 68.3055 169.192 116.192 238.938C191.148 328.839 202.771 301.684 292.741 261.658C382.711 221.633 455.508 205.001 509 277C562.492 348.999 481.508 407.118 403.191 377.751C324.874 348.384 267.936 285.953 271.786 151.372C275.636 16.7913 450.408 -50.5844 587 120" />
<glyph unicode="&#x15F;" glyph-name="scedilla" horiz-adv-x="387" d="M130.389 -87.5097C156.875 -190.728 115.728 -242.053 -17.1272 -245.407M56.7 94.5C56.7 94.5 23.5513 51.7629 18.9 25.2C14.2487 -1.36289 13.7185 -34.5899 31.5 -56.7C49.2816 -78.8101 83.0532 -86.8081 113 -88.2C142.947 -89.5919 175.473 -79.8348 202 -63C228.527 -46.1652 249.984 -15.8797 265 9.45C307.236 78.4915 285.575 114.055 271 142C241.033 199.753 110.734 358.974 88.2 416C73.9421 452.951 74.1575 467.18 101 504C112.623 519.517 131.675 533.392 151 542C170.325 550.608 193.113 554.096 214 554C234.887 553.904 258.199 554.449 274 542C289.801 529.551 300.197 507.686 299 488C297.803 468.314 268 438 268 438" />
<glyph unicode="&#xe7;" glyph-name="ccedilla" horiz-adv-x="432" d="M258 31.5C271.198 -58.421 250.694 -103.133 184.489 -106.055M290 284L334 318L321 375L265 410L189 397L132 359L75.6 293L56.7 186L91.4 85.1L180 40.9L258 31.5L343 63L372 94.5" />
<glyph unicode="&#xb8;" glyph-name="cedilla" horiz-adv-x="989" d="M595.458 -307.437C622.709 -492.809 580.372 -584.983 443.673 -591.007" />
<glyph unicode="&#xa3;" glyph-name="sterling" horiz-adv-x="790" d="M176 72.4L633 66.2M101 321L107 271L220 211L403 227L554 318L740 491L825 658L847 825L791 917L687 932L564 850L482 699L441 444L425 220L410 25.2L362 -85L271 -192L135 -265L-9.45 -249L-53.6 -214L-85.1 -81.9L44.1 12.6L224 -37.8L378 -164L513 -318L627 -410L753 -432L822 -391" />
<glyph unicode="&#x2D8;" glyph-name="breve" horiz-adv-x="573" d="M180.995 638.479C219.978 604.68 208.319 554.045 297.138 554.045C385.958 554.045 432.639 664.991 432.639 664.991" />
</font>
</defs>
</svg>
