<?xml version="1.0" encoding="UTF-8" ?>
<!DOCTYPE svg PUBLIC "-//W3C//DTD SVG 1.1//EN" "http://www.w3.org/Graphics/SVG/1.1/DTD/svg11.dtd" >

<svg xmlns="http://www.w3.org/2000/svg" xmlns:xlink="http://www.w3.org/1999/xlink" version="1.1">

<metadata>
Font name:               EMS Misty Night
License:                 SIL Open Font License http://scripts.sil.org/OFL
Created by:              Sheldon B. Michaels
SVG font conversion by:  Windell H. Oskay
A derivative of:         Foglihten No03
Designer:                Grzegorz L, GLUK fonts
Link:                    http://www.glukfonts.pl
FontSquirrel page:       https://www.fontsquirrel.com/fonts/foglihten

</metadata>
<defs>
<font id="EMSMistyNight" horiz-adv-x="378" >
<font-face
font-family="EMS Misty Night"
units-per-em="1000"
ascent="800"
descent="-200"
cap-height="500"
x-height="300"
/>
<missing-glyph horiz-adv-x="378" />
<glyph unicode=" " glyph-name="space" horiz-adv-x="378" />
<glyph unicode="!" glyph-name="exclam" horiz-adv-x="236" d="M 151 202 L 135 205 L 126 400 L 110 526 L 110 611 L 132 627 L 192 627 L 214 608 L 208 454 L 189 346 L 186 198 M 158 113 L 107 94.5 L 97.6 37.8 L 123 -6.3 L 164 -18.9 L 211 3.15 L 230 47.2 L 211 101 L 158 113" />
<glyph unicode="&#x22;" glyph-name="quotedbl" horiz-adv-x="268" d="M 161 463 L 170 646 L 217 646 L 227 630 L 217 460 L 189 460 M 41 463 L 53.5 646 L 97.6 646 L 107 633 L 97.6 460 L 72.5 460" />
<glyph unicode="#" glyph-name="numbersign" horiz-adv-x="611" d="M 142 378 L 69.3 378 L 69.3 432 L 189 432 L 208 611 L 265 611 L 243 432 L 381 432 L 397 611 L 454 611 L 435 428 L 558 428 L 558 381 L 428 381 L 416 220 L 539 220 L 539 164 L 403 164 L 394 -18.9 L 337 -18.9 L 353 167 L 214 167 L 198 -12.6 L 148 -12.6 L 164 161 L 47.2 161 L 47.2 220 L 173 220 L 189 378 M 315 378 L 236 378 L 224 217 L 359 217 L 372 378" />
<glyph unicode="$" glyph-name="dollar" horiz-adv-x="576" d="M 479 652 L 495 394 M 435 649 L 441 567 M 447 400 L 441 469 L 425 504 L 387 539 L 331 570 L 293 564 L 293 413 M 293 621 L 340 617 L 381 608 M 296 643 L 296 696 M 249 693 L 249 617 M 249 567 L 249 435 M 249 621 L 176 608 L 113 570 L 75.6 520 L 66.1 460 L 85 403 L 126 350 L 189 306 L 249 274 L 309 246 L 372 208 L 419 167 L 432 135 L 432 97.7 L 400 53.6 L 353 31.5 L 318 28.4 M 479 97.7 L 491 148 L 460 205 L 391 258 L 265 328 L 186 378 L 148 413 L 132 441 L 120 466 L 120 485 M 217 564 L 183 545 L 167 520 L 164 485 L 202 435 L 265 391 L 346 343 L 432 296 L 504 239 L 542 173 L 536 91.3 L 488 31.5 L 413 -3.15 L 350 -22.1 L 293 -25.2 L 293 -107 L 293 217 M 255 230 L 255 53.6 M 255 25.2 L 202 44.1 L 167 59.9 L 123 101 L 97.6 142 L 91.4 173 L 91.4 220 M 41 220 L 50.4 -53.6 M 94.5 -50.4 L 91.4 40.9 M 145 6.3 L 255 -22.1 L 255 -117" />
<glyph unicode="%" glyph-name="percent" horiz-adv-x="674" d="M 189 558 L 142 551 L 110 510 L 107 457 L 110 410 L 135 375 L 180 353 L 227 359 L 252 406 L 249 495 L 227 539 L 189 558 M 180 309 L 255 324 L 299 362 L 328 419 L 331 482 L 309 539 L 271 580 L 220 602 L 154 605 L 94.5 580 L 41 517 L 34.6 447 L 47.2 384 L 88.2 337 L 129 312 L 180 309 M 598 589 L 44.1 25.2 L 81.9 -12.6 L 633 554 M 495 255 L 428 246 L 375 214 L 343 158 L 343 69.3 L 375 6.3 L 419 -25.2 L 476 -37.8 L 526 -34.6 L 583 -12.6 L 624 34.6 L 639 91.3 L 630 164 L 602 217 L 558 243 L 495 255 M 460 211 L 432 189 L 416 154 L 416 56.7 L 441 22.1 L 466 6.3 L 517 6.3 L 545 22.1 L 558 50.4 L 561 91.3 L 558 161 L 526 202 L 507 211 L 460 211" />
<glyph unicode="&amp;" glyph-name="ampersand" horiz-adv-x="835" d="M 428 28.4 L 381 -9.45 L 312 -25.2 L 208 -15.8 L 117 18.9 L 56.7 78.8 L 28.4 161 L 34.6 255 L 88.2 337 L 145 372 M 107 293 L 81.9 227 L 81.9 176 L 94.5 126 L 120 78.8 M 384 346 L 246 346 L 202 324 L 164 293 L 148 252 L 142 217 L 142 164 L 154 110 L 192 56.7 L 246 31.5 L 309 31.5 L 365 56.7 L 400 101 L 413 132 L 419 167 L 419 346 M 472 343 L 472 120 M 454 53.6 L 517 0 L 605 -25.2 L 690 -12.6 L 750 25.2 L 788 69.3 L 813 132 M 759 142 L 734 85.1 L 674 37.8 L 586 25.2 L 548 59.9 L 526 94.5 L 526 346 L 753 346 M 753 400 L 523 400 M 523 444 L 532 721 M 482 721 L 479 551 M 435 595 L 365 624 L 287 624 L 205 605 L 139 539 L 132 463 L 161 416 L 202 384 L 208 384 M 441 507 L 413 545 L 372 567 L 299 570 L 258 545 L 236 510 L 230 472 L 252 425 L 287 397 L 343 397 L 410 397 L 428 403 L 444 419 L 454 444 M 192 532 L 183 485 L 192 450" />
<glyph unicode="&apos;" glyph-name="quotesingle" horiz-adv-x="151" d="M 44.1 463 L 66.1 649 L 117 649 L 104 460 L 81.9 460" />
<glyph unicode="(" glyph-name="parenleft" horiz-adv-x="362" d="M 249 -34.6 L 173 25.2 L 117 101 L 72.5 202 L 53.5 302 L 69.3 378 L 101 466 L 151 539 L 214 611 L 287 662 L 315 630 L 261 589 L 205 501 L 173 400 L 164 287 L 173 198 L 192 120 L 227 47.2 L 277 0 L 309 -28.4 L 287 -69.3 M 135 164 L 110 268 L 110 340 L 129 416" />
<glyph unicode=")" glyph-name="parenright" horiz-adv-x="372" d="M 132 -34.6 L 208 25.2 L 265 101 L 312 202 L 328 302 L 312 378 L 280 466 L 233 539 L 167 611 L 94.5 662 L 69.3 630 L 120 589 L 176 501 L 208 400 L 217 287 L 208 198 L 189 120 L 154 47.2 L 107 0 L 72.5 -28.4 L 97.6 -69.3 M 249 164 L 271 268 L 271 340 L 255 416" />
<glyph unicode="*" glyph-name="asterisk" horiz-adv-x="510" d="M 173 384 L 85 435 L 53.5 378 L 189 302 L 50.4 224 L 59.9 202 M 78.8 164 L 217 243 L 217 91.3 L 287 91.3 L 290 239 L 422 167 L 447 220 L 318 299 L 460 378 L 447 403 M 432 432 L 284 350 L 284 517 L 224 517 L 217 359 M 236 302 L 255 318 L 271 299 L 252 280 L 236 302" />
<glyph unicode="+" glyph-name="plus" horiz-adv-x="526" d="M 31.5 312 L 243 312 L 243 520 L 296 520 L 296 315 L 498 315 L 498 293 M 498 261 L 296 261 L 296 59.9 M 261 63 L 243 63 L 243 261 M 205 261 L 31.5 261 L 31.5 284" />
<glyph unicode="," glyph-name="comma" horiz-adv-x="227" d="M 50.4 -47.2 L 78.8 -47.2 L 107 -34.6 L 126 -18.9 L 126 0 L 78.8 3.15 L 53.5 50.4 L 63 104 L 113 126 L 167 110 L 180 56.7 L 176 12.6 L 167 -28.4 L 145 -56.7 L 110 -78.8 L 78.8 -81.9 L 50.4 -78.8 M 117 81.9 L 104 63 L 120 50.4 L 129 66.2 L 117 81.9 M 47.2 -44.1 L 75.6 -44.1 L 104 -31.5 L 120 -15.8 L 120 0 L 75.6 6.3 L 50.4 50.4 L 59.9 107 L 110 126 L 164 113 L 176 59.9 L 173 12.6 L 164 -25.2 L 142 -56.7 L 107 -75.6 L 75.6 -78.8 L 47.2 -75.6 M 113 85.1 L 97.6 63 L 117 53.6 L 126 69.3 L 113 85.1" />
<glyph unicode="-" glyph-name="hyphen" horiz-adv-x="384" d="M 362 296 L 362 318 L 28.4 318 M 31.5 287 L 31.5 261 L 362 261" />
<glyph unicode="." glyph-name="period" horiz-adv-x="230" d="M 113 126 L 63 104 L 53.5 50.4 L 78.8 6.3 L 120 -9.45 L 164 12.6 L 186 59.9 L 167 110 L 113 126 M 117 85.1 L 101 63 L 120 50.4 L 129 66.2 L 117 85.1" />
<glyph unicode="/" glyph-name="slash" horiz-adv-x="662" d="M 567 662 L 47.2 -12.6 L 88.2 -50.4 L 611 627" />
<glyph unicode="0" glyph-name="zero" horiz-adv-x="573" d="M 85 517 L 148 583 L 233 621 L 309 624 L 391 602 L 466 545 L 526 438 L 532 350 L 542 239 L 513 145 L 469 59.9 L 397 3.15 L 302 -25.2 L 246 -25.2 L 167 3.15 L 88.2 72.4 L 47.2 164 L 31.5 302 L 37.8 410 L 59.9 472 L 85 517 M 158 476 L 180 523 L 217 554 L 271 570 L 334 561 L 378 517 L 416 406 L 425 309 L 422 198 L 406 123 L 381 72.4 L 315 28.4 L 271 31.5 L 227 44.1 L 186 81.9 L 154 164 L 139 236 L 135 356 M 104 460 L 85 346 L 81.9 261 L 94.5 183 L 120 120 L 139 94.5 M 457 135 L 479 224 L 482 302 L 476 372 L 454 463 L 432 510" />
<glyph unicode="1" glyph-name="one" horiz-adv-x="353" d="M 28.4 413 L 183 611 L 208 611 M 236 614 L 236 40.9 L 340 40.9 M 343 -6.3 L 6.3 -6.3 M 9.45 37.8 L 126 37.8 L 126 447 L 75.6 384 M 186 520 L 186 44.1" />
<glyph unicode="2" glyph-name="two" horiz-adv-x="551" d="M 63 630 L 63 362 M 104 630 L 104 564 L 154 595 L 224 621 L 293 624 L 359 617 L 413 592 L 460 554 L 482 520 L 498 476 L 495 419 L 479 372 L 432 318 L 359 255 L 126 88.2 M 180 88.2 L 488 88.2 L 488 189 M 539 189 L 539 -12.6 M 482 47.2 L 101 47.2 M 485 -12.6 L 37.8 -12.6 L 37.8 50.4 M 63 94.5 L 362 372 L 391 428 L 391 495 L 353 554 L 302 570 L 220 570 L 158 536 L 120 482 L 101 410 L 101 359 M 419 523 L 444 479 L 444 425 L 428 387 L 397 346" />
<glyph unicode="3" glyph-name="three" horiz-adv-x="517" d="M 37.8 186 L 37.8 53.6 L 94.5 6.3 L 198 -28.4 L 315 -18.9 L 400 15.8 L 454 69.3 L 479 120 L 482 205 L 454 261 L 422 302 L 381 328 L 365 337 M 334 356 L 362 369 L 403 400 L 432 444 L 438 482 L 422 545 L 381 586 L 315 617 L 227 624 L 173 617 L 132 605 L 101 586 L 101 633 M 56.7 639 L 56.7 428 M 107 432 L 107 491 L 132 532 L 164 558 L 214 570 L 280 570 L 331 542 L 350 504 L 350 457 L 334 416 L 309 384 L 268 372 L 217 372 M 387 454 L 394 482 L 387 507 M 217 346 L 220 324 L 274 324 L 321 302 L 356 261 L 378 202 L 369 129 L 353 72.4 L 309 37.8 L 258 25.2 L 198 31.5 L 167 44.1 L 145 53.6 L 110 85.1 L 97.6 104 L 81.9 135 L 81.9 189 M 403 78.8 L 425 135 L 428 167 L 425 195 L 416 239" />
<glyph unicode="4" glyph-name="four" horiz-adv-x="611" d="M 340 611 L 261 611 L 214 460 L 161 356 L 104 261 L 31.5 161 L 31.5 113 L 343 113 M 372 117 L 372 69.3 L 362 44.1 L 236 44.1 M 236 0 L 608 0 M 602 44.1 L 507 44.1 L 491 53.6 L 482 69.3 L 482 110 L 551 110 M 551 142 L 551 173 L 482 173 L 482 350 M 425 302 L 425 44.1 M 441 350 L 378 350 L 378 173 L 101 173 L 387 608 M 290 576 L 271 501 L 318 576 L 290 576" />
<glyph unicode="5" glyph-name="five" horiz-adv-x="526" d="M 50.4 173 L 50.4 53.6 L 104 15.8 L 180 -9.45 L 268 -22.1 L 375 3.15 L 447 59.9 L 498 142 L 501 233 L 463 324 L 432 362 L 372 391 M 85 170 L 85 117 L 104 85.1 L 151 47.2 L 217 22.1 L 287 25.2 L 362 72.4 L 387 135 L 394 230 L 381 293 L 331 343 L 277 365 L 214 369 L 151 356 L 117 331 M 416 94.5 L 441 151 L 447 205 L 444 252 L 422 306 M 85 331 L 63 334 L 88.2 598 L 422 598 L 422 671 M 466 674 L 466 501 M 410 513 L 123 513 L 123 391 L 161 410 L 198 419 L 268 416 M 129 551 L 410 554" />
<glyph unicode="6" glyph-name="six" horiz-adv-x="554" d="M 463 457 L 463 564 M 428 586 L 365 621 L 255 617 L 167 576 L 88.2 466 L 56.7 378 L 50.4 258 L 63 151 L 104 63 L 186 -6.3 L 277 -25.2 M 362 -12.6 L 444 25.2 L 510 113 L 523 192 L 517 261 L 491 337 L 447 387 L 375 419 L 312 432 L 224 413 L 164 359 M 142 334 L 161 444 L 202 520 L 246 561 L 299 570 L 362 564 L 406 526 L 428 485 L 425 457 M 151 214 L 170 296 L 224 353 L 290 381 L 350 369 L 403 318 L 428 227 L 416 135 L 391 69.3 L 331 28.4 L 265 28.4 L 202 59.9 L 180 97.7 L 164 145 M 123 126 L 104 173 L 97.6 255 L 104 356 L 113 419 M 450 315 L 476 246 L 476 186 L 463 126 L 444 85.1" />
<glyph unicode="7" glyph-name="seven" horiz-adv-x="523" d="M 243 -3.15 L 180 -3.15 L 183 94.5 L 195 161 L 224 252 L 274 346 L 321 413 L 362 466 L 406 507 M 369 513 L 72.5 513 L 72.5 428 M 25.2 428 L 25.2 605 M 75.6 598 L 507 598 M 78.8 551 L 403 551 M 504 561 L 504 529 L 422 479 L 350 381 L 312 293 L 290 195 L 290 -6.3 M 217 40.9 L 243 183 L 246 44.1 L 217 40.9" />
<glyph unicode="8" glyph-name="eight" horiz-adv-x="586" d="M 164 372 L 117 413 L 91.4 482 L 126 564 L 186 602 L 271 621 L 356 614 L 441 592 L 491 542 L 513 476 L 495 416 L 454 375 L 419 356 M 189 419 L 243 381 L 324 369 L 397 403 L 416 444 L 419 504 L 387 545 L 334 567 L 255 567 L 189 532 L 180 476 M 148 510 L 139 485 L 148 454 M 457 513 L 466 476 L 454 447 M 428 337 L 491 302 L 536 249 L 561 180 L 548 110 L 507 40.9 L 410 -12.6 L 293 -28.4 L 211 -15.8 L 110 31.5 L 50.4 110 L 47.2 224 L 97.6 299 L 158 340 L 211 350 M 243 318 L 324 321 L 387 299 L 438 236 L 450 167 L 438 104 L 391 44.1 L 309 31.5 L 211 47.2 L 170 91.3 L 151 176 L 167 255 L 195 293 L 243 318 M 120 249 L 101 183 L 101 161 L 123 94.5 M 485 246 L 501 195 L 501 158 L 491 123 L 476 94.5" />
<glyph unicode="9" glyph-name="nine" horiz-adv-x="536" d="M 85 139 L 85 31.5 M 126 6.3 L 208 -25.2 L 306 -22.1 L 400 37.8 L 469 148 L 495 217 L 504 353 L 491 441 L 466 504 L 403 573 L 324 617 L 227 617 L 135 595 L 78.8 536 L 34.6 460 L 34.6 340 L 72.5 239 L 139 189 L 220 164 L 287 164 L 353 202 L 378 227 M 403 381 L 384 312 L 343 258 L 265 217 L 198 230 L 151 287 L 123 394 L 135 466 L 189 551 L 255 570 L 315 567 L 359 520 L 391 447 M 425 479 L 454 400 L 450 328 L 450 258 L 444 198 M 113 510 L 81.9 460 L 75.6 387 L 85 334 L 107 287 M 413 268 L 394 154 L 340 63 L 290 22.1 L 214 25.2 L 158 59.9 L 135 94.5 L 135 132" />
<glyph unicode=":" glyph-name="colon" horiz-adv-x="227" d="M 110 126 L 59.9 104 L 50.4 50.4 L 75.6 3.15 L 120 -9.45 L 164 12.6 L 186 56.7 L 167 110 L 110 126 M 117 81.9 L 101 63 L 120 50.4 L 126 66.2 L 117 81.9 M 107 510 L 56.7 488 L 47.2 435 L 72.5 391 L 113 375 L 161 397 L 180 444 L 161 495 L 107 510 M 117 469 L 101 447 L 120 435 L 126 450 L 117 469" />
<glyph unicode=";" glyph-name="semicolon" horiz-adv-x="239" d="M 53.5 -44.1 L 81.9 -44.1 L 110 -31.5 L 129 -15.8 L 129 3.15 L 81.9 6.3 L 56.7 53.6 L 66.1 107 L 117 129 L 170 113 L 183 59.9 L 180 15.8 L 170 -25.2 L 148 -53.6 L 113 -72.5 L 81.9 -78.8 L 53.5 -75.6 M 120 85.1 L 107 66.2 L 126 53.6 L 132 69.3 L 120 85.1 M 117 510 L 66.1 488 L 56.7 435 L 81.9 387 L 123 375 L 170 397 L 192 441 L 170 495 L 117 510 M 120 466 L 104 447 L 123 435 L 132 450 L 120 466" />
<glyph unicode="&#x3c;" glyph-name="less" horiz-adv-x="542" d="M 384 573 L 31.5 299 L 422 -12.6 L 476 40.9 L 151 268 M 110 299 L 479 548 L 425 605" />
<glyph unicode="=" glyph-name="equal" horiz-adv-x="595" d="M 41 428 L 567 428 L 567 403 M 564 359 L 37.8 359 L 37.8 381 M 41 249 L 567 249 L 567 227 M 564 183 L 37.8 183 L 37.8 205" />
<glyph unicode="&#x3e;" glyph-name="greater" horiz-adv-x="536" d="M 123 608 L 69.3 558 L 435 302 M 391 268 L 72.5 47.2 L 123 -18.9 L 513 299 L 161 583" />
<glyph unicode="?" glyph-name="question" horiz-adv-x="488" d="M 186 186 L 186 265 L 211 312 L 252 350 L 296 387 L 324 422 L 334 460 L 331 491 L 302 542 L 249 567 L 202 570 L 132 548 L 97.6 504 L 101 450 M 50.4 454 L 50.4 621 M 91.4 621 L 91.4 586 L 117 608 L 164 624 L 258 627 L 321 614 L 369 589 L 428 542 L 450 476 L 444 419 L 406 359 L 362 328 L 318 309 L 271 280 L 249 258 L 249 243 L 249 189 M 356 387 L 391 444 L 391 482 L 372 529 M 208 117 L 158 94.5 L 148 40.9 L 173 -6.3 L 214 -18.9 L 261 3.15 L 284 50.4 L 261 101 L 208 117 M 211 75.6 L 195 53.6 L 214 40.9 L 224 56.7 L 211 75.6" />
<glyph unicode="@" glyph-name="at" horiz-adv-x="1083.6" d="M 803 -151 L 658 -211 L 479 -214 L 290 -161 L 129 -22.1 L 50.4 170 L 47.2 334 L 78.8 501 L 167 643 L 277 743 L 435 803 L 627 819 L 784 778 L 929 687 L 1014.3 548 L 1045.8 428 L 1033.2 265 L 964 104 L 857 28.4 L 750 25.2 L 684 94.5 L 665 151 M 621 104 L 554 37.8 L 447 25.2 L 350 53.6 L 280 154 L 252 290 L 274 397 L 312 485 L 400 576 L 513 621 L 627 624 L 712 586 L 750 614 M 674 539 L 542 554 L 435 476 L 378 334 L 372 217 L 381 145 L 422 81.9 L 482 63 L 561 88.2 L 608 154 L 649 236 L 671 482 M 419 536 L 340 428 L 312 318 L 315 230 L 331 158 M 731 532 L 702 198 M 784 633 L 750 192 L 753 110 L 788 72.4 L 838 75.6 L 898 110 L 945 180 L 980 255 L 995 391 L 970 517 L 926 611 L 850 680 L 734 740 L 602 765 L 488 762 L 343 712 L 239 633 L 148 513 L 104 397 L 97.6 277 L 126 101 L 233 -37.8 L 343 -117 L 485 -161 L 636 -158 L 775 -107" />
<glyph unicode="A" glyph-name="A" horiz-adv-x="721" d="M 3.15 3.15 L 12.6 3.15 L 302 3.15 M 400 3.15 L 718 3.15 M 718 40.9 L 627 40.9 L 419 551 L 419 617 M 375 614 L 340 614 L 107 53.6 L 101 44.1 L 6.3 44.1 M 299 37.8 L 183 40.9 L 170 59.9 L 208 161 L 460 161 M 472 117 L 513 44.1 L 397 44.1 M 551 63 L 378 520 M 343 498 L 340 469 L 438 205 L 230 205 L 302 384" />
<glyph unicode="B" glyph-name="B" horiz-adv-x="696" d="M 31.5 0 L 463 0 L 542 18.9 L 608 50.4 L 662 97.7 L 677 154 L 674 211 L 646 271 L 589 306 L 532 324 M 438 346 L 517 372 L 573 416 L 589 476 L 576 513 L 536 554 L 472 580 L 403 595 L 290 598 L 34.6 598 M 28.4 561 L 117 561 L 142 561 L 164 542 L 164 56.7 L 154 40.9 L 28.4 40.9 M 252 44.1 L 454 44.1 L 517 81.9 L 554 126 L 564 183 L 545 236 L 504 277 L 450 299 L 378 315 L 271 315 L 271 113 M 217 59.9 L 217 548 M 249 554 L 362 545 L 422 529 L 466 479 L 466 435 L 441 397 L 391 369 L 324 359 L 268 359 L 268 488 M 507 510 L 523 472 L 520 438 L 501 419 M 583 255 L 611 217 L 617 180 L 614 142 L 589 94.5" />
<glyph unicode="C" glyph-name="C" horiz-adv-x="639" d="M 510 391 L 495 482 L 441 548 L 356 570 L 255 551 L 186 485 L 148 365 L 161 214 L 192 132 L 271 50.4 L 387 34.6 L 479 66.2 L 520 101 L 548 142 M 158 101 L 120 161 L 101 220 L 94.5 324 L 107 394 L 129 466 M 598 132 L 558 56.7 L 472 -6.3 L 375 -25.2 L 280 -22.1 L 170 18.9 L 81.9 117 L 41 220 L 41 384 L 97.6 517 L 198 589 L 312 627 L 369 624 L 441 605 M 498 665 L 504 564 M 542 662 L 561 394" />
<glyph unicode="D" glyph-name="D" horiz-adv-x="712" d="M 22 6.3 L 422 6.3 L 532 37.8 L 592 81.9 L 646 161 L 671 227 L 674 306 L 671 334 L 665 397 L 617 485 L 573 532 L 513 567 L 466 586 L 419 598 L 15.8 598 M 18.9 554 L 132 554 L 151 536 L 151 56.7 L 139 34.6 L 15.8 34.6 M 239 47.2 L 394 47.2 L 457 69.3 L 501 104 L 539 158 L 558 239 L 561 324 L 551 400 L 523 466 L 479 520 L 432 542 L 365 551 L 236 551 M 255 498 L 255 110 M 205 50.4 L 205 551 M 573 466 L 605 391 L 614 334 L 617 268 L 608 208 L 592 161 L 576 132" />
<glyph unicode="E" glyph-name="E" horiz-adv-x="674" d="M 34.6 6.3 L 598 6.3 L 598 -91.4 M 646 -91.4 L 646 195 M 608 135 L 602 81.9 L 576 59.9 L 252 59.9 L 268 75.6 L 268 249 M 268 280 L 337 280 L 375 268 L 387 233 L 387 154 L 425 154 L 425 463 M 387 419 L 387 369 L 375 343 L 353 331 L 271 331 L 271 485 M 246 554 L 498 554 L 526 532 L 542 495 L 545 406 M 586 413 L 567 674 M 539 602 L 31.5 602 M 28.4 561 L 129 561 L 151 551 L 164 529 L 164 66.2 L 148 37.8 L 25.2 37.8 M 214 69.3 L 214 532" />
<glyph unicode="F" glyph-name="F" horiz-adv-x="624" d="M 18.9 3.15 L 394 3.15 M 394 40.9 L 280 40.9 L 258 56.7 L 258 258 M 252 290 L 365 290 L 391 274 L 391 167 L 435 167 L 435 472 M 397 422 L 397 369 L 372 343 L 255 343 L 252 482 M 233 548 L 523 548 L 561 510 L 561 403 M 608 410 L 583 680 M 551 605 L 25.2 605 M 18.9 564 L 123 564 L 151 536 L 151 63 L 135 37.8 L 22 37.8 M 205 529 L 205 53.6" />
<glyph unicode="G" glyph-name="G" horiz-adv-x="721" d="M 315 246 L 495 246 L 513 230 L 513 117 L 476 69.3 L 416 31.5 L 315 28.4 L 214 81.9 L 167 173 L 145 293 L 154 400 L 198 510 L 271 567 L 343 576 L 410 567 L 457 532 L 491 485 L 507 441 L 507 387 M 564 387 L 542 671 M 501 668 L 507 564 M 435 602 L 362 627 L 233 608 L 139 554 L 69.3 466 L 34.6 359 L 34.6 249 L 75.6 120 L 151 34.6 L 246 -9.45 L 381 -28.4 L 479 6.3 L 529 47.2 M 132 476 L 97.6 378 L 88.2 284 L 110 173 L 148 113 M 561 239 L 561 97.7 M 580 28.4 L 580 -59.9 M 614 -63 L 614 233 L 633 249 L 712 249 M 715 290 L 321 290" />
<glyph unicode="H" glyph-name="H" horiz-adv-x="784" d="M 18.9 -9.45 L 381 -9.45 M 413 -9.45 L 778 -9.45 M 772 34.6 L 662 34.6 L 643 50.4 L 643 539 L 662 558 L 778 558 M 778 598 L 422 598 M 381 598 L 18.9 598 M 22 558 L 132 558 L 148 532 L 148 56.7 L 129 40.9 L 15.8 40.9 M 378 37.8 L 280 37.8 L 261 56.7 L 261 302 L 532 302 M 536 239 L 536 59.9 L 513 37.8 L 419 37.8 M 589 50.4 L 589 558 M 425 561 L 510 561 L 536 536 L 536 369 L 517 350 L 261 350 M 258 413 L 258 542 L 274 558 L 381 558 M 205 558 L 205 44.1" />
<glyph unicode="I" glyph-name="I" horiz-adv-x="413" d="M 31.5 -6.3 L 403 -6.3 M 400 37.8 L 290 37.8 L 271 56.7 L 271 536 L 296 561 L 406 561 M 406 602 L 25.2 602 M 25.2 564 L 145 564 L 164 545 L 164 59.9 L 142 37.8 L 31.5 37.8 M 217 47.2 L 217 558" />
<glyph unicode="J" glyph-name="J" horiz-adv-x="488" d="M 9.45 0 L 66.1 -15.8 L 148 -22.1 L 243 12.6 L 299 63 L 324 113 L 337 161 L 337 536 L 359 561 L 463 561 M 466 605 L 41 605 M 37.8 558 L 239 558 M 227 526 L 227 135 L 220 88.2 L 192 50.4 L 148 25.2 L 91.4 31.5 L 34.6 50.4 M 284 545 L 284 120" />
<glyph unicode="K" glyph-name="K" horiz-adv-x="721" d="M 28.4 3.15 L 359 3.15 M 356 37.8 L 271 37.8 L 271 217 L 318 284 L 602 -91.4 L 712 -180 L 841 -220 L 926 -214 L 989 -192 L 1030.1 -167 M 989 -129 L 936 -158 L 857 -158 L 810 -142 L 759 -107 L 712 -63 L 472 261 L 441 293 L 403 321 M 362 337 L 498 513 L 545 548 L 580 558 L 677 558 M 680 605 L 435 605 M 372 602 L 31.5 602 M 31.5 558 L 139 558 L 154 542 L 154 56.7 L 135 37.8 L 28.4 37.8 M 214 50.4 L 214 558 M 268 359 L 268 542 L 287 561 L 369 561 M 435 558 L 472 558 L 268 296 M 394 271 L 466 176 L 548 56.7 L 627 -40.9 L 668 -88.2 L 702 -117" />
<glyph unicode="L" glyph-name="L" horiz-adv-x="639" d="M 22 -6.3 L 554 -6.3 L 554 -81.9 M 602 -81.9 L 602 198 M 570 139 L 570 94.5 L 536 59.9 L 236 59.9 M 265 104 L 265 536 L 287 558 L 403 558 M 406 602 L 18.9 602 M 15.8 558 L 139 558 L 158 539 L 158 56.7 L 139 40.9 L 22 40.9 M 208 523 L 208 81.9" />
<glyph unicode="M" glyph-name="M" horiz-adv-x="936" d="M 12.6 0 L 306 0 M 309 37.8 L 205 37.8 L 186 56.7 L 211 413 M 233 375 L 432 -6.3 L 460 -9.45 L 684 432 M 684 353 L 715 69.3 L 702 44.1 L 595 44.1 M 598 0 L 932 0 M 929 40.9 L 847 40.9 L 828 63 L 778 532 L 797 558 L 879 558 M 879 602 L 728 602 L 479 120 M 460 170 L 239 602 L 66.1 602 M 66.1 564 L 173 564 L 183 548 L 135 63 L 110 40.9 L 9.45 40.9 M 227 513 L 435 107 M 772 47.2 L 721 504" />
<glyph unicode="N" glyph-name="N" horiz-adv-x="737" d="M 18.9 0 L 324 0 M 321 40.9 L 211 40.9 L 195 56.7 L 195 472 M 227 422 L 545 -12.6 L 564 -12.6 M 598 -12.6 L 598 539 L 614 558 L 715 558 M 721 605 L 413 605 M 416 561 L 520 561 L 542 539 L 542 161 M 498 230 L 230 598 L 18.9 598 M 15.8 558 L 120 558 L 145 532 L 145 63 L 123 40.9 L 18.9 40.9 M 220 523 L 523 113" />
<glyph unicode="O" glyph-name="O" horiz-adv-x="649" d="M 56.7 422 L 41 309 L 47.2 220 L 97.6 81.9 L 180 9.45 L 309 -34.6 L 422 -15.8 L 532 50.4 L 602 161 L 624 274 L 611 413 L 551 523 L 435 605 L 302 624 L 208 598 L 148 558 M 183 504 L 151 438 L 145 343 L 158 217 L 189 117 L 252 47.2 L 359 28.4 L 454 75.6 L 495 161 L 507 287 L 495 397 L 460 491 L 403 554 L 337 570 M 110 454 L 97.6 350 L 94.5 261 L 110 192 L 126 142 L 154 94.5 M 542 158 L 561 243 L 561 343 L 539 441 L 504 507" />
<glyph unicode="P" glyph-name="P" horiz-adv-x="712" d="M 28.4 -6.3 L 410 -6.3 M 410 37.8 L 287 37.8 L 268 56.7 L 268 158 M 268 202 L 435 202 L 523 214 L 614 258 L 665 331 L 680 410 L 665 472 L 595 548 L 510 589 L 447 598 L 28.4 598 M 28.4 558 L 139 558 L 161 536 L 161 59.9 L 139 37.8 L 28.4 37.8 M 271 482 L 271 252 L 441 252 L 498 274 L 539 315 L 561 362 L 558 447 L 532 501 L 472 539 L 410 554 L 252 554 M 220 520 L 220 40.9 M 580 504 L 605 457 L 621 419 L 621 384 L 605 337 L 576 299" />
<glyph unicode="Q" glyph-name="Q" horiz-adv-x="649" d="M 189 -239 L 142 -233 L 113 -195 L 104 -126 L 120 -66.1 L 180 -22.1 L 331 37.8 L 416 94.5 L 479 192 L 498 274 L 491 369 L 472 457 L 444 510 L 394 554 L 324 573 M 170 504 L 135 416 L 132 306 L 142 208 L 161 120 L 230 63 M 186 22.1 L 117 72.4 L 53.5 167 L 31.5 255 L 34.6 369 L 72.5 485 L 139 561 L 252 614 L 359 614 L 447 592 L 529 536 L 589 447 L 611 343 L 598 217 L 561 135 L 495 63 L 413 18.9 L 202 -63 M 243 -72.5 L 375 -88.2 L 485 -113 L 583 -135 L 712 -170 L 803 -183 L 888 -170 L 923 -148 L 942 -113 L 942 -81.9 M 1001.7 -81.9 L 1001.7 -123 L 973 -189 L 923 -243 L 819 -271 L 756 -274 L 643 -249 L 472 -198 L 334 -148 L 236 -120 L 183 -123 L 161 -142 L 158 -170 L 176 -189 L 195 -186 M 107 170 L 85 233 L 81.9 331 L 94.5 410 L 107 454 M 501 495 L 542 406 L 548 315 L 545 243 L 517 164 M 416 -132 L 586 -180 L 693 -211 L 784 -227 L 860 -224 L 920 -195" />
<glyph unicode="R" glyph-name="R" horiz-adv-x="734" d="M 18.9 3.15 L 378 3.15 M 378 40.9 L 271 40.9 L 255 56.7 L 255 230 M 293 233 L 365 233 L 397 214 L 419 189 L 636 -94.5 L 690 -145 L 740 -183 L 797 -205 L 863 -217 L 951 -211 L 1011.2 -186 L 1042.7 -164 M 1020.6 -129 L 954 -161 L 869 -154 L 825 -139 L 740 -69.3 L 545 189 L 526 211 L 510 224 M 482 183 L 539 113 L 586 47.2 L 639 -25.2 L 696 -88.2 L 731 -123 M 472 243 L 567 274 L 624 321 L 658 381 L 655 450 L 630 510 L 551 561 L 491 589 L 391 602 L 15.8 602 M 12.6 558 L 129 558 L 145 542 L 145 63 L 123 40.9 L 22 40.9 M 198 47.2 L 198 529 M 230 551 L 387 551 L 435 545 L 469 532 L 504 510 L 532 476 L 539 419 L 532 362 L 488 315 L 435 293 L 378 290 L 255 290 L 255 482 M 570 491 L 598 435 L 598 391 L 580 340 L 564 321" />
<glyph unicode="S" glyph-name="S" horiz-adv-x="564" d="M 75.6 -40.9 L 75.6 53.6 M 31.5 -44.1 L 31.5 243 M 78.8 243 L 78.8 180 L 97.6 126 L 135 88.2 L 205 50.4 L 309 37.8 L 387 66.2 L 422 104 L 422 145 L 410 183 L 365 211 L 243 268 L 139 328 L 75.6 397 L 53.5 457 L 66.1 513 L 123 576 L 180 598 L 268 611 L 312 611 L 365 595 M 428 643 L 428 554 M 476 643 L 482 394 M 435 397 L 435 457 L 410 501 L 375 539 L 331 554 L 277 564 L 227 558 L 170 532 L 151 488 L 183 432 L 227 400 L 381 321 L 438 293 L 501 236 L 532 164 L 513 85.1 L 469 40.9 L 410 9.45 L 334 -9.45 L 230 -9.45 L 142 15.8 M 463 101 L 479 142 L 472 183 L 441 220 L 391 255 L 220 343 L 167 375 L 129 416 L 110 460 L 113 476" />
<glyph unicode="T" glyph-name="T" horiz-adv-x="652" d="M 135 -6.3 L 532 -6.3 M 529 37.8 L 406 37.8 L 394 50.4 L 394 482 M 387 551 L 561 551 L 592 517 L 605 384 M 649 384 L 621 652 M 592 602 L 129 602 M 53.5 655 L 25.2 378 M 75.6 447 L 81.9 501 L 101 532 L 129 542 L 280 542 L 280 56.7 L 271 37.8 L 135 37.8 M 337 50.4 L 337 545" />
<glyph unicode="U" glyph-name="U" horiz-adv-x="747" d="M 22 561 L 123 561 L 135 539 L 135 161 L 158 97.7 L 195 47.2 L 236 12.6 L 284 -9.45 L 340 -22.1 L 406 -22.1 L 485 -3.15 L 536 31.5 L 576 85.1 L 595 123 L 605 176 L 605 536 L 624 554 L 728 554 M 731 605 L 428 605 M 425 561 L 523 561 L 548 545 L 548 158 L 529 117 L 498 72.4 L 454 40.9 L 400 25.2 L 346 25.2 L 296 44.1 L 268 69.3 L 249 110 M 205 117 L 186 158 L 189 214 L 189 551 M 18.9 602 L 372 602 M 372 554 L 261 554 L 246 542 L 246 236" />
<glyph unicode="V" glyph-name="V" horiz-adv-x="724" d="M 15.8 561 L 104 561 L 337 -15.8 L 391 -15.8 L 611 539 L 633 558 L 715 561 M 715 605 L 406 605 M 410 558 L 539 558 L 554 542 L 394 126 M 372 183 L 220 561 L 299 561 M 299 602 L 3.15 602 M 173 532 L 359 78.8" />
<glyph unicode="W" glyph-name="W" horiz-adv-x="1102.5" d="M 12.6 561 L 101 561 L 337 -15.8 L 391 -15.8 L 539 346 M 554 406 L 721 -12.6 L 772 -12.6 L 999 542 L 1011.2 558 L 1099.3 558 M 1099.3 605 L 794 605 M 800 558 L 910 558 L 932 558 L 939 532 L 775 129 M 756 186 L 602 561 L 715 561 M 718 602 L 397 602 M 397 558 L 485 558 L 529 463 L 387 123 M 372 183 L 217 558 L 258 558 M 265 602 L 12.6 602 M 173 529 L 350 97.7 M 558 532 L 731 101" />
<glyph unicode="X" glyph-name="X" horiz-adv-x="724" d="M 18.9 -6.3 L 324 -6.3 M 359 -3.15 L 721 -3.15 M 718 37.8 L 624 37.8 L 432 334 L 576 551 L 602 564 L 684 561 M 684 605 L 375 605 M 378 561 L 485 561 L 495 545 L 397 384 M 369 422 L 271 561 L 328 561 M 331 605 L 53.5 605 M 53.5 561 L 142 561 L 315 315 L 126 40.9 L 15.8 40.9 M 343 271 L 220 78.8 L 214 56.7 L 224 40.9 L 318 40.9 M 365 40.9 L 463 40.9 L 476 59.9 L 365 230 M 239 523 L 551 44.1 L 532 44.1 L 532 81.9" />
<glyph unicode="Y" glyph-name="Y" horiz-adv-x="699" d="M 154 -6.3 L 561 -6.3 M 561 37.8 L 422 37.8 L 410 50.4 L 410 205 L 586 545 L 608 558 L 696 558 M 693 605 L 387 605 M 387 558 L 501 558 L 520 539 L 378 261 M 343 340 L 230 561 L 309 561 M 312 608 L 6.3 608 M 6.3 561 L 110 561 L 126 536 L 306 186 L 306 53.6 L 290 37.8 L 151 37.8 M 359 44.1 L 359 192 L 189 536" />
<glyph unicode="Z" glyph-name="Z" horiz-adv-x="687" d="M 18.9 3.15 L 598 3.15 L 598 -85 M 643 -85 L 652 192 M 608 139 L 598 88.2 L 589 66.2 L 567 56.7 L 205 56.7 M 261 129 L 605 554 L 652 554 M 652 598 L 107 598 L 107 662 M 56.7 655 L 41 381 M 88.2 447 L 101 501 L 142 542 L 466 542 M 410 472 L 63 44.1 L 25.2 44.1 M 139 53.6 L 532 548" />
<glyph unicode="[" glyph-name="bracketleft" horiz-adv-x="318" d="M 309 -167 L 53.5 -167 L 53.5 724 M 47.2 765 L 309 765 M 309 724 L 151 724 L 167 690 L 167 -72.5 L 145 -107 M 104 -101 L 104 696 M 161 -126 L 315 -126" />
<glyph unicode="\" glyph-name="backslash" horiz-adv-x="662" d="M 59.9 624 L 567 -40.9 L 611 -9.45 L 91.4 662" />
<glyph unicode="]" glyph-name="bracketright" horiz-adv-x="315" d="M 12.6 -167 L 268 -167 L 268 728 M 274 765 L 12.6 765 M 12.6 728 L 173 728 L 154 693 L 154 -69.3 L 176 -107 M 217 -97.6 L 217 696 M 161 -123 L 6.3 -123" />
<glyph unicode="^" glyph-name="asciicircum" horiz-adv-x="526" d="M 261 595 L 97.6 422 L 53.5 472 L 261 671 L 485 472 L 441 419 L 306 567" />
<glyph unicode="_" glyph-name="underscore" horiz-adv-x="356" d="M 6.3 -145 L 353 -145" />
<glyph unicode="`" glyph-name="grave" horiz-adv-x="302" d="M 192 687 L 97.6 762 L 59.9 797 L 59.9 819 L 94.5 854 L 126 850 L 255 693 L 236 674" />
<glyph unicode="a" glyph-name="a" horiz-adv-x="724" d="M 3.15 3.15 L 12.6 3.15 L 302 3.15 M 400 3.15 L 718 3.15 M 718 40.9 L 627 40.9 L 419 551 L 419 617 M 375 614 L 340 614 L 107 53.6 L 101 44.1 L 6.3 44.1 M 299 37.8 L 183 40.9 L 170 59.9 L 208 161 L 460 161 M 472 117 L 513 44.1 L 397 44.1 M 551 63 L 378 520 M 343 501 L 340 469 L 438 205 L 233 205 L 302 384" />
<glyph unicode="b" glyph-name="b" horiz-adv-x="696" d="M 31.5 0 L 463 0 L 542 18.9 L 608 50.4 L 662 97.7 L 677 154 L 674 211 L 646 271 L 589 306 L 532 324 M 438 346 L 517 372 L 570 416 L 589 476 L 573 513 L 532 554 L 472 580 L 403 598 L 290 598 L 34.6 598 M 28.4 561 L 117 561 L 142 561 L 164 542 L 164 56.7 L 154 40.9 L 28.4 40.9 M 252 44.1 L 454 44.1 L 517 81.9 L 554 126 L 564 183 L 545 236 L 504 277 L 450 299 L 375 315 L 271 315 L 271 113 M 217 59.9 L 217 548 M 249 554 L 359 545 L 422 529 L 466 479 L 466 435 L 438 397 L 391 369 L 324 359 L 268 359 L 268 488 M 507 510 L 523 472 L 517 441 L 501 419 M 583 255 L 611 217 L 617 180 L 614 142 L 589 94.5" />
<glyph unicode="c" glyph-name="c" horiz-adv-x="633" d="M 510 391 L 495 482 L 438 548 L 353 570 L 252 551 L 183 485 L 148 365 L 161 214 L 192 132 L 271 50.4 L 387 34.6 L 479 66.2 L 517 101 L 548 142 M 154 101 L 120 161 L 101 220 L 94.5 324 L 104 394 L 129 466 M 598 132 L 558 56.7 L 472 -3.15 L 372 -25.2 L 277 -22.1 L 170 18.9 L 78.8 117 L 37.8 220 L 37.8 384 L 94.5 520 L 195 589 L 312 627 L 369 624 L 441 605 M 498 665 L 501 564 M 539 662 L 561 394" />
<glyph unicode="d" glyph-name="d" horiz-adv-x="709" d="M 18.9 6.3 L 422 6.3 L 529 37.8 L 589 81.9 L 646 161 L 671 227 L 674 306 L 671 334 L 665 397 L 617 485 L 570 532 L 513 567 L 466 586 L 416 598 L 15.8 598 M 15.8 554 L 132 554 L 151 536 L 151 56.7 L 139 34.6 L 15.8 34.6 M 236 47.2 L 391 47.2 L 454 69.3 L 498 104 L 539 158 L 558 243 L 558 324 L 548 400 L 520 466 L 479 520 L 428 542 L 365 551 L 236 551 M 255 498 L 255 110 M 205 50.4 L 205 551 M 570 466 L 605 391 L 614 334 L 617 268 L 605 208 L 592 161 L 576 132" />
<glyph unicode="e" glyph-name="e" horiz-adv-x="671" d="M 34.6 6.3 L 595 6.3 L 595 -88.2 M 646 -88.2 L 646 195 M 608 135 L 602 81.9 L 576 59.9 L 252 59.9 L 268 75.6 L 268 249 M 268 280 L 337 280 L 375 268 L 387 233 L 387 154 L 425 154 L 425 463 M 387 419 L 387 369 L 375 343 L 353 331 L 271 331 L 271 485 M 246 554 L 498 554 L 526 532 L 542 495 L 545 406 M 539 602 L 28.4 602 M 25.2 561 L 126 561 L 151 551 L 164 529 L 164 69.3 L 145 37.8 L 25.2 37.8 M 214 69.3 L 214 532 M 586 416 L 564 677" />
<glyph unicode="f" glyph-name="f" horiz-adv-x="636" d="M 18.9 3.15 L 394 3.15 M 394 40.9 L 280 40.9 L 258 56.7 L 258 258 M 252 290 L 365 290 L 394 274 L 394 167 L 438 167 L 438 472 M 397 422 L 397 369 L 372 343 L 255 343 L 255 482 M 233 548 L 526 548 L 561 510 L 561 403 M 608 410 L 586 680 M 551 605 L 25.2 605 M 18.9 564 L 123 564 L 154 536 L 154 63 L 135 37.8 L 25.2 37.8 M 205 529 L 205 53.6" />
<glyph unicode="g" glyph-name="g" horiz-adv-x="709" d="M 302 246 L 482 246 L 501 230 L 501 117 L 463 69.3 L 403 31.5 L 302 28.4 L 202 81.9 L 154 173 L 129 293 L 142 400 L 186 510 L 258 567 L 328 576 L 397 567 L 444 532 L 479 485 L 495 441 L 495 387 M 551 387 L 526 671 M 485 668 L 491 564 M 422 602 L 346 627 L 220 608 L 126 554 L 53.5 466 L 22 359 L 22 249 L 63 120 L 139 34.6 L 233 -9.45 L 365 -28.4 L 466 6.3 L 517 47.2 M 120 476 L 85 378 L 75.6 287 L 97.6 173 L 135 113 M 548 239 L 548 97.7 M 564 28.4 L 564 -59.9 M 602 -63 L 602 233 L 617 249 L 699 249 M 702 290 L 306 290" />
<glyph unicode="h" glyph-name="h" horiz-adv-x="797" d="M 18.9 -9.45 L 381 -9.45 M 416 -9.45 L 775 -9.45 M 772 34.6 L 658 34.6 L 643 53.6 L 643 539 L 662 558 L 775 558 M 775 598 L 422 598 M 378 598 L 15.8 598 M 22 558 L 132 558 L 145 532 L 145 56.7 L 126 40.9 L 15.8 40.9 M 375 37.8 L 280 37.8 L 261 56.7 L 261 302 L 532 302 M 532 239 L 532 59.9 L 510 37.8 L 416 37.8 M 586 50.4 L 586 558 M 422 561 L 510 561 L 536 536 L 536 369 L 517 350 L 261 350 M 255 413 L 255 542 L 274 558 L 381 558 M 205 558 L 205 44.1" />
<glyph unicode="i" glyph-name="i" horiz-adv-x="416" d="M 22 -6.3 L 394 -6.3 M 391 37.8 L 280 37.8 L 261 56.7 L 261 536 L 287 561 L 397 561 M 397 602 L 15.8 602 M 15.8 564 L 135 564 L 154 545 L 154 59.9 L 132 37.8 L 22 37.8 M 208 47.2 L 208 558" />
<glyph unicode="j" glyph-name="j" horiz-adv-x="488" d="M 0 0 L 56.7 -15.8 L 139 -22.1 L 233 12.6 L 290 63 L 315 117 L 328 161 L 328 536 L 350 561 L 454 561 M 457 605 L 31.5 605 M 25.2 558 L 230 558 M 217 526 L 217 135 L 211 88.2 L 183 50.4 L 139 25.2 L 81.9 31.5 L 25.2 53.6 M 274 545 L 274 120" />
<glyph unicode="k" glyph-name="k" horiz-adv-x="734" d="M 18.9 3.15 L 350 3.15 M 346 37.8 L 261 37.8 L 261 217 L 309 284 L 526 -3.15 L 554 -22.1 L 589 -25.2 L 627 -22.1 L 724 6.3 M 394 321 L 432 293 L 463 261 L 617 50.4 L 630 40.9 L 724 40.9 M 353 337 L 488 513 L 536 548 L 570 558 L 668 558 M 671 605 L 425 605 M 362 602 L 22 602 M 22 558 L 129 558 L 145 542 L 145 56.7 L 126 37.8 L 18.9 37.8 M 205 50.4 L 205 558 M 258 359 L 258 542 L 277 561 L 356 561 M 425 558 L 460 558 L 258 296 M 384 271 L 457 176 L 539 56.7 L 573 28.4" />
<glyph unicode="l" glyph-name="l" horiz-adv-x="633" d="M 25.2 -6.3 L 558 -6.3 L 558 -81.9 M 605 -81.9 L 605 198 M 573 139 L 573 94.5 L 536 59.9 L 239 59.9 M 268 104 L 268 536 L 290 558 L 406 558 M 410 602 L 22 602 M 18.9 558 L 142 558 L 161 539 L 161 56.7 L 142 40.9 L 25.2 40.9 M 211 523 L 211 81.9" />
<glyph unicode="m" glyph-name="m" horiz-adv-x="945" d="M 25.2 0 L 318 0 M 321 37.8 L 217 37.8 L 198 56.7 L 224 413 M 246 375 L 444 -6.3 L 472 -9.45 L 696 432 M 696 356 L 728 69.3 L 715 44.1 L 608 44.1 M 611 0 L 945 0 M 942 40.9 L 860 40.9 L 841 63 L 791 532 L 810 558 L 891 558 M 888 602 L 737 602 L 491 120 M 472 170 L 252 602 L 78.8 602 M 78.8 564 L 186 564 L 195 548 L 148 63 L 123 40.9 L 22 40.9 M 239 513 L 447 107 M 784 47.2 L 734 504" />
<glyph unicode="n" glyph-name="n" horiz-adv-x="740" d="M 25.2 0 L 331 0 M 328 40.9 L 217 40.9 L 202 56.7 L 202 472 M 233 422 L 548 -12.6 L 567 -12.6 M 602 -12.6 L 602 539 L 621 558 L 721 558 M 724 605 L 419 605 M 419 561 L 523 561 L 545 539 L 545 161 M 501 230 L 236 598 L 22 598 M 18.9 558 L 126 558 L 151 536 L 151 63 L 129 40.9 L 25.2 40.9 M 227 523 L 529 117" />
<glyph unicode="o" glyph-name="o" horiz-adv-x="652" d="M 53.5 422 L 37.8 309 L 44.1 220 L 94.5 85.1 L 173 9.45 L 306 -34.6 L 416 -15.8 L 529 50.4 L 595 161 L 621 274 L 608 413 L 548 523 L 432 605 L 299 624 L 202 598 L 145 558 M 180 507 L 145 438 L 139 343 L 151 220 L 186 117 L 249 47.2 L 356 28.4 L 450 75.6 L 491 161 L 501 287 L 491 397 L 457 491 L 400 554 L 331 570 M 107 454 L 91.4 350 L 91.4 261 L 107 192 L 123 142 L 148 94.5 M 536 158 L 558 243 L 558 343 L 536 441 L 501 507" />
<glyph unicode="p" glyph-name="p" horiz-adv-x="696" d="M 18.9 -3.15 L 403 -3.15 M 403 37.8 L 280 37.8 L 261 56.7 L 261 158 M 258 202 L 428 202 L 513 214 L 608 258 L 658 331 L 674 410 L 655 476 L 589 548 L 504 589 L 441 598 L 18.9 598 M 22 558 L 132 558 L 154 536 L 154 59.9 L 132 40.9 L 18.9 40.9 M 265 482 L 265 252 L 435 252 L 488 274 L 532 315 L 554 362 L 551 447 L 523 501 L 466 539 L 400 554 L 246 554 M 214 520 L 214 40.9 M 570 504 L 598 460 L 614 419 L 614 384 L 598 337 L 570 299" />
<glyph unicode="q" glyph-name="q" horiz-adv-x="649" d="M 205 -239 L 158 -233 L 129 -195 L 120 -126 L 135 -66.1 L 195 -22.1 L 346 37.8 L 432 94.5 L 491 192 L 513 274 L 507 372 L 488 457 L 460 510 L 410 554 L 337 573 M 186 507 L 151 416 L 145 306 L 158 208 L 176 120 L 243 63 M 202 22.1 L 132 72.4 L 66.1 167 L 47.2 255 L 50.4 372 L 88.2 485 L 154 564 L 268 614 L 372 614 L 463 592 L 545 536 L 605 447 L 627 343 L 614 220 L 576 135 L 507 63 L 428 18.9 L 217 -63 M 123 170 L 101 236 L 97.6 331 L 110 410 L 123 454 M 517 495 L 558 406 L 564 315 L 561 243 L 532 164 M 202 -189 L 176 -180 L 167 -154 L 173 -132 L 186 -120 L 214 -123 L 255 -151 L 299 -186 L 340 -211 L 397 -246 L 428 -249 L 463 -246 L 517 -224 L 551 -180 L 570 -126 L 573 -110 L 573 -37.8 M 526 -37.8 L 526 -101 L 510 -135 L 491 -148 L 463 -161 L 435 -158 L 394 -139 L 287 -81.9 L 261 -78.8 M 340 -158 L 400 -189 L 441 -202 L 479 -195" />
<glyph unicode="r" glyph-name="r" horiz-adv-x="750" d="M 41 3.15 L 400 3.15 M 400 40.9 L 293 40.9 L 277 56.7 L 277 230 M 495 243 L 589 274 L 646 321 L 680 381 L 677 450 L 652 510 L 573 564 L 513 589 L 413 602 L 37.8 602 M 34.6 558 L 151 558 L 164 542 L 164 63 L 145 40.9 L 44.1 40.9 M 220 47.2 L 220 529 M 252 551 L 410 551 L 457 545 L 491 532 L 526 510 L 554 476 L 561 419 L 554 362 L 510 315 L 457 293 L 400 290 L 277 290 L 277 482 M 592 491 L 621 435 L 621 391 L 602 340 L 586 321 M 306 236 L 381 236 L 410 220 L 428 198 L 460 161 L 548 31.5 L 580 3.15 L 602 -9.45 L 649 -9.45 L 696 0 L 750 9.45 M 753 50.4 L 699 37.8 L 680 37.8 L 639 81.9 L 567 189 L 545 214 L 529 220 M 501 183 L 539 142 L 580 72.4 L 598 47.2 L 611 37.8" />
<glyph unicode="s" glyph-name="s" horiz-adv-x="576" d="M 88.2 -40.9 L 88.2 53.6 M 44.1 -44.1 L 44.1 243 M 91.4 243 L 91.4 180 L 110 126 L 148 88.2 L 214 50.4 L 318 37.8 L 397 66.2 L 432 104 L 435 145 L 422 183 L 378 211 L 255 268 L 151 328 L 88.2 397 L 66.1 457 L 78.8 513 L 135 576 L 192 598 L 277 611 L 324 611 L 378 595 M 441 643 L 441 554 M 488 643 L 495 394 M 444 397 L 444 460 L 422 501 L 387 539 L 343 554 L 290 564 L 239 558 L 183 532 L 164 491 L 192 432 L 239 400 L 391 324 L 450 293 L 513 236 L 542 164 L 526 85.1 L 479 40.9 L 422 9.45 L 346 -9.45 L 243 -9.45 L 151 15.8 M 476 101 L 491 142 L 485 183 L 454 220 L 403 255 L 230 343 L 180 375 L 142 416 L 123 460 L 126 476" />
<glyph unicode="t" glyph-name="t" horiz-adv-x="639" d="M 123 -6.3 L 520 -6.3 M 520 37.8 L 397 37.8 L 381 50.4 L 381 482 M 378 551 L 551 551 L 583 517 L 592 384 M 636 384 L 611 652 M 583 602 L 120 602 M 44.1 655 L 15.8 378 M 63 447 L 72.5 501 L 91.4 532 L 117 542 L 271 542 L 271 56.7 L 258 37.8 L 126 37.8 M 328 50.4 L 328 545" />
<glyph unicode="u" glyph-name="u" horiz-adv-x="750" d="M 41 561 L 142 561 L 154 539 L 154 161 L 176 97.7 L 214 47.2 L 255 12.6 L 302 -9.45 L 359 -22.1 L 425 -22.1 L 504 -3.15 L 554 31.5 L 595 85.1 L 614 123 L 624 176 L 624 536 L 643 554 L 747 554 M 750 605 L 447 605 M 444 561 L 542 561 L 567 545 L 567 158 L 548 117 L 513 72.4 L 472 40.9 L 419 25.2 L 365 25.2 L 315 44.1 L 287 69.3 L 268 110 M 224 117 L 205 158 L 208 214 L 208 551 M 37.8 602 L 391 602 M 391 554 L 280 554 L 265 542 L 265 236" />
<glyph unicode="v" glyph-name="v" horiz-adv-x="734" d="M 25.2 561 L 117 561 L 350 -15.8 L 400 -15.8 L 624 539 L 646 558 L 728 561 M 728 605 L 419 605 M 419 558 L 551 558 L 567 542 L 403 126 M 381 183 L 230 561 L 312 561 M 312 602 L 15.8 602 M 186 532 L 372 78.8" />
<glyph unicode="w" glyph-name="w" horiz-adv-x="1105.7" d="M 12.6 561 L 97.6 561 L 337 -15.8 L 391 -15.8 L 539 346 M 551 406 L 721 -12.6 L 772 -12.6 L 999 542 L 1011.2 558 L 1099.3 558 M 1099.3 605 L 794 605 M 800 558 L 910 558 L 932 558 L 936 532 L 775 129 M 756 186 L 602 564 L 715 564 M 718 602 L 397 602 M 397 558 L 485 558 L 526 463 L 387 123 M 372 183 L 217 558 L 258 558 M 265 602 L 12.6 602 M 173 529 L 350 97.7 M 558 532 L 731 101" />
<glyph unicode="x" glyph-name="x" horiz-adv-x="712" d="M 6.3 -6.3 L 312 -6.3 M 346 -3.15 L 709 -3.15 M 706 37.8 L 611 37.8 L 419 334 L 564 551 L 589 564 L 671 564 M 671 605 L 362 605 M 365 561 L 472 561 L 482 545 L 384 384 M 356 422 L 258 561 L 315 561 M 318 605 L 41 605 M 41 561 L 129 561 L 302 315 L 113 40.9 L 3.15 40.9 M 331 271 L 208 78.8 L 202 56.7 L 211 40.9 L 306 40.9 M 353 40.9 L 450 40.9 L 463 59.9 L 353 230 M 227 523 L 542 44.1 L 520 44.1 L 520 85.1" />
<glyph unicode="y" glyph-name="y" horiz-adv-x="712" d="M 167 -3.15 L 573 -3.15 M 573 37.8 L 435 37.8 L 422 50.4 L 422 205 L 598 545 L 621 558 L 709 558 M 702 605 L 400 605 M 400 558 L 513 558 L 532 539 L 391 261 M 356 340 L 243 561 L 321 561 M 324 608 L 15.8 608 M 15.8 561 L 123 561 L 135 536 L 318 186 L 318 53.6 L 302 37.8 L 164 37.8 M 369 44.1 L 369 192 L 198 536" />
<glyph unicode="z" glyph-name="z" horiz-adv-x="674" d="M 15.8 3.15 L 592 3.15 L 592 -85 M 639 -85 L 646 192 M 605 139 L 595 88.2 L 583 66.2 L 561 56.7 L 202 56.7 M 258 129 L 602 554 L 649 554 M 649 598 L 104 598 L 104 662 M 53.5 655 L 37.8 381 M 85 447 L 94.5 501 L 139 542 L 463 542 M 406 476 L 59.9 44.1 L 22 44.1 M 135 53.6 L 526 548" />
<glyph unicode="{" glyph-name="braceleft" horiz-adv-x="334" d="M 356 -164 L 183 -164 L 142 -145 L 97.6 -104 L 75.6 -34.6 L 94.5 59.9 L 139 183 L 37.8 277 M 9.45 299 L 129 394 L 132 413 L 97.6 551 L 85 614 L 91.4 671 L 123 724 L 189 756 L 343 759 M 337 715 L 246 715 L 208 715 L 186 693 L 173 658 L 183 605 L 236 438 L 233 413 L 88.2 299 L 217 198 L 230 183 L 233 148 L 176 -18.9 L 170 -53.6 L 186 -91.4 L 205 -113 L 239 -123 L 356 -123 M 132 -50.4 L 129 -6.3 L 176 154 L 176 170 M 183 428 L 180 447 L 126 627 M 350 -161 L 176 -161 L 135 -142 L 91.4 -104 L 69.3 -31.5 L 88.2 63 L 132 186 L 31.5 280 M 3.15 299 L 123 397 L 126 413 L 91.4 551 L 78.8 614 L 85 671 L 120 728 L 183 756 L 337 759 M 331 715 L 239 715 L 202 718 L 180 693 L 167 662 L 176 605 L 230 441 L 227 416 L 81.9 299 L 211 202 L 224 186 L 227 148 L 173 -18.9 L 164 -53.6 L 183 -91.4 L 198 -113 L 233 -123 L 350 -123 M 126 -50.4 L 123 -6.3 L 173 154 L 173 173 M 176 428 L 173 447 L 120 630" />
<glyph unicode="|" glyph-name="bar" horiz-adv-x="173" d="M 59.9 747 L 59.9 -142 M 85 -142 L 101 -142 L 101 743" />
<glyph unicode="}" glyph-name="braceright" horiz-adv-x="340" d="M 6.3 -161 L 183 -161 L 224 -142 L 265 -104 L 287 -31.5 L 268 63 L 227 186 L 328 280 M 353 299 L 233 397 L 233 413 L 268 551 L 277 614 L 274 671 L 239 728 L 176 756 L 18.9 759 M 25.2 715 L 117 715 L 154 718 L 180 693 L 189 662 L 180 605 L 129 441 L 129 416 L 274 299 L 148 202 L 135 186 L 129 148 L 186 -18.9 L 195 -53.6 L 176 -91.4 L 161 -113 L 126 -123 L 6.3 -123 M 230 -50.4 L 233 -6.3 L 186 154 L 186 173 M 183 428 L 183 447 L 236 630 M 6.3 -161 L 183 -161 L 224 -142 L 265 -104 L 287 -31.5 L 268 63 L 227 186 L 328 280 M 353 299 L 233 397 L 233 413 L 268 551 L 277 614 L 274 671 L 239 728 L 176 756 L 18.9 759 M 25.2 715 L 117 715 L 154 718 L 180 693 L 189 662 L 180 605 L 129 441 L 129 416 L 274 299 L 148 202 L 135 186 L 129 148 L 186 -18.9 L 195 -53.6 L 176 -91.4 L 161 -113 L 126 -123 L 6.3 -123 M 230 -50.4 L 233 -6.3 L 186 154 L 186 173 M 183 428 L 183 447 L 236 630" />
<glyph unicode="~" glyph-name="asciitilde" horiz-adv-x="592" d="M 50.4 271 L 81.9 369 L 113 403 L 158 410 L 233 381 L 315 337 L 416 287 L 441 280 L 457 287 L 488 365 M 536 353 L 507 255 L 469 217 L 435 205 L 384 214 L 239 290 L 170 331 L 135 334 L 117 315 L 107 284 L 101 255 M 139 372 L 145 372 L 192 359 L 265 324 L 353 274 L 413 249 L 450 249" />
<glyph unicode="&#xa0;" glyph-name="nbspace" horiz-adv-x="378" />
<glyph unicode="&#xa1;" glyph-name="exclamdown" horiz-adv-x="236" d="M 129 406 L 145 403 L 154 208 L 170 81.9 L 170 -3.15 L 148 -18.9 L 88.2 -18.9 L 66.1 2.84e-14 L 72.4 154 L 91.4 261 L 94.5 410 M 123 495 L 173 513 L 183 570 L 158 614 L 117 627 L 69.3 605 L 50.4 561 L 69.3 507 L 123 495" />
<glyph unicode="&#xa2;" glyph-name="cent" horiz-adv-x="173" d="M 510 391 L 495 482 L 438 548 L 353 570 L 252 551 L 183 485 L 148 365 L 161 214 L 192 132 L 271 50.4 L 387 34.6 L 479 66.2 L 517 101 L 548 142 M 154 101 L 120 161 L 101 220 L 94.5 324 L 104 394 L 129 466 M 598 132 L 558 56.7 L 472 -3.15 L 372 -25.2 L 277 -22.1 L 170 18.9 L 78.8 117 L 37.8 220 L 37.8 384 L 94.5 520 L 195 589 L 312 627 L 369 624 L 441 605 M 498 665 L 501 564 M 539 662 L 561 394 M 249 747 L 249 -142 M 274 -142 L 290 -142 L 290 743" />
<glyph unicode="&#xa5;" glyph-name="yen" horiz-adv-x="699" d="M 154 -6.3 L 561 -6.3 M 561 37.8 L 422 37.8 L 410 50.4 L 410 205 L 586 545 L 608 558 L 696 558 M 693 605 L 387 605 M 387 558 L 501 558 L 520 539 L 378 261 M 343 340 L 230 561 L 309 561 M 312 608 L 6.3 608 M 6.3 561 L 110 561 L 126 536 L 306 186 L 306 53.6 L 290 37.8 L 151 37.8 M 359 44.1 L 359 192 L 189 536 M 520 170 L 520 192 L 186 192 M 189 161 L 189 135 L 520 135 M 520 296 L 520 318 L 186 318 M 189 287 L 189 261 L 520 261" />
<glyph unicode="&#xa6;" glyph-name="brokenbar" horiz-adv-x="52" d="M 188 224 L 188 -42.5 M 196 -42.5 L 200 -42.5 L 200 223 M 188 696 L 188 430 M 196 430 L 200 430 L 200 696" />
<glyph unicode="&#xa8;" glyph-name="dieresis" horiz-adv-x="567" d=" M 169 882 L 118 860 L 109 806 L 134 762 L 175 747 L 219 769 L 241 816 L 222 866 L 169 882 M 172 841 L 156 819 L 175 806 L 184 822 L 172 841 M 436 882 L 386 860 L 376 806 L 401 762 L 442 747 L 487 769 L 509 816 L 490 866 L 436 882 M 439 841 L 424 819 L 442 806 L 452 822 L 439 841" />
<glyph unicode="&#xa9;" glyph-name="copyright" horiz-adv-x="784" d="M 372 25.2 L 432 25.2 L 529 63 L 592 120 L 646 192 L 674 274 L 684 375 L 662 488 L 627 561 L 580 621 L 510 665 L 444 687 L 372 696 L 287 687 L 198 652 L 139 598 L 85 517 L 59.9 438 L 53.5 356 L 63 271 L 85 202 L 120 148 L 170 91.4 L 230 53.6 L 306 31.5 L 372 25.2 M 487 506 L 487 406 L 487 454 L 457 472 L 430 490 L 402 502 L 369 506 L 337 504 L 302 493 L 268 471 L 241 435 L 224 397 L 219 358 L 220 307 L 232 265 L 252 227 L 290 192 L 335 173 L 406 172 L 444 183 L 469 198 L 488 216" />
<glyph unicode="&#xaa;" glyph-name="ordfeminine" horiz-adv-x="252" d="M 189 724 L 173 756 L 142 772 L 110 772 L 78.8 756 L 63 740 L 47.2 709 L 47.2 677 L 63 646 L 94.5 630 L 126 630 L 158 646 L 173 677 M 110 772 L 78.8 740 L 63 709 L 63 662 L 94.5 630 M 205 772 L 173 677 L 173 646 L 205 630 L 236 646 L 252 662 L 284 709 M 220 772 L 189 677 L 189 646 L 205 630" />
<glyph unicode="&#xab;" glyph-name="guillemotleft" horiz-adv-x="325" d="M 154 459 L 12.6 239 L 169 -10.1 L 190 32.8 L 60.5 214 M 44.1 239 L 192 438 L 170 484 M 280 459 L 139 239 L 295 -10.1 L 316 32.8 L 186 214 M 170 239 L 318 438 L 296 484" />
<glyph unicode="&#xae;" glyph-name="registered" horiz-adv-x="784" d="M 372 25.2 L 432 25.2 L 529 63 L 592 120 L 646 192 L 674 274 L 684 375 L 662 488 L 627 561 L 580 621 L 510 665 L 444 687 L 372 696 L 287 687 L 198 652 L 139 598 L 85 517 L 59.9 438 L 53.5 356 L 63 271 L 85 202 L 120 148 L 170 91.4 L 230 53.6 L 306 31.5 L 372 25.2 M 213 175 L 312 175 L 261 175 L 261 501 L 213 501 L 387 501 L 417 495 L 441 482 L 461 457 L 468 428 L 466 403 L 458 372 L 444 354 L 424 339 L 397 332 L 261 332 L 351 332 L 466 173 L 411 173 L 507 173" />
<glyph unicode="&#xb0;" glyph-name="degree" horiz-adv-x="234" d="M 140 694 L 135 660 L 137 633 L 152 592 L 177 570 L 215 557 L 249 562 L 283 582 L 303 615 L 310 649 L 306 691 L 288 724 L 253 748 L 214 754 L 185 747 L 167 734 M 178 718 L 168 698 L 166 670 L 170 632 L 180 602 L 198 581 L 231 576 L 259 590 L 271 615 L 275 653 L 271 686 L 261 714 L 244 733 L 224 738 M 156 703 L 152 672 L 151 645 L 156 625 L 161 610 L 169 595 M 285 614 L 291 640 L 291 670 L 284 699 L 274 719" />
<glyph unicode="&#xb1;" glyph-name="plusminus" horiz-adv-x="421" d="M 743 47.9 L 743 65.5 L 476 65.5 M 479 40.3 L 479 20.2 L 743 20.2 M 479 438 L 648 438 L 648 605 L 690 605 L 690 441 L 852 441 L 852 423 M 852 398 L 690 398 L 690 237 M 663 239 L 648 239 L 648 398 M 617 398 L 479 398 L 479 416" />
<glyph unicode="&#xb2;" glyph-name="twosuperior" horiz-adv-x="331" d="M 94.5 898 L 110 882 L 94.5 866 L 78.8 882 L 78.8 898 L 94.5 929 L 110 945 L 158 961 L 205 961 L 252 945 L 268 914 L 268 882 L 252 850 L 220 819 L 173 788 L 110 756 L 63 724 L 31.5 693 L 0 630 M 205 961 L 236 945 L 252 914 L 252 882 L 236 850 L 205 819 L 110 756 M 15.8 662 L 31.5 677 L 63 677 L 142 646 L 189 646 L 220 662 L 236 693 M 63 677 L 142 630 L 189 630 L 220 646 L 236 693" />
<glyph unicode="&#xb3;" glyph-name="threesuperior" horiz-adv-x="331" d="M 94.5 898 L 110 882 L 94.5 866 L 78.8 882 L 78.8 898 L 94.5 929 L 110 945 L 158 961 L 205 961 L 252 945 L 268 914 L 268 882 L 252 850 L 205 819 L 158 803 M 205 961 L 236 945 L 252 914 L 252 882 L 236 850 L 205 819 M 126 803 L 158 803 L 205 788 L 220 772 L 236 740 L 236 693 L 220 662 L 205 646 L 158 630 L 94.5 630 L 47.2 646 L 31.5 662 L 15.8 693 L 15.8 709 L 31.5 724 L 47.2 709 L 31.5 693 M 158 803 L 189 788 L 205 772 L 220 740 L 220 693 L 205 662 L 189 646 L 158 630" />
<glyph unicode="&#xb4;" glyph-name="acute" horiz-adv-x="378" d=" M 280 813 L 375 888 L 413 923 L 413 945 L 378 980 L 346 976 L 217 819 L 236 800" />
<glyph unicode="&#xb7;" glyph-name="middot" horiz-adv-x="359" d="M 212 378 L 151 352 L 140 287 L 170 234 L 219 215 L 272 242 L 299 299 L 276 359 L 212 378 M 215 329 L 197 302 L 219 287 L 231 306 L 215 329" />
<glyph unicode="&#xb9;" glyph-name="onesuperior" horiz-adv-x="331" d="M 173 898 L 94.5 630 M 205 961 L 110 630 M 205 961 L 158 914 L 110 882 L 78.8 866 M 189 914 L 126 882 L 78.8 866" />
<glyph unicode="&#xba;" glyph-name="ordmasculine" horiz-adv-x="234" d="M 140 694 L 135 660 L 137 633 L 152 592 L 177 570 L 215 557 L 249 562 L 283 582 L 303 615 L 310 649 L 306 691 L 288 724 L 253 748 L 214 754 L 185 747 L 167 734 M 178 718 L 168 698 L 166 670 L 170 632 L 180 602 L 198 581 L 231 576 L 259 590 L 271 615 L 275 653 L 271 686 L 261 714 L 244 733 L 224 738 M 156 703 L 152 672 L 151 645 L 156 625 L 161 610 L 169 595 M 285 614 L 291 640 L 291 670 L 284 699 L 274 719" />
<glyph unicode="&#xbb;" glyph-name="guillemotright" horiz-adv-x="321" d="M 49.1 486 L 27.7 446 L 174 242 M 156 214 L 29 37.8 L 49.1 -15.1 L 205 239 L 64.3 466 M 175 486 L 154 446 L 300 242 M 282 214 L 155 37.8 L 175 -15.1 L 331 239 L 190 466" />
<glyph unicode="&#xbc;" glyph-name="onequarter" horiz-adv-x="521" d="M 17 626 L 110 745 L 125 745 M 142 747 L 142 403 L 204 403 M 206 374 L 3.78 374 M 5.67 401 L 75.6 401 L 75.6 646 L 45.4 609 M 112 690 L 112 404 M 662 662 L 142 -12.6 L 183 -50.4 L 706 627 M 677 367 L 629 367 L 601 276 L 569 214 L 535 157 L 491 96.4 L 491 68 L 679 68 M 696 69.9 L 696 41.6 L 690 26.5 L 614 26.5 M 614 0 L 837 0 M 833 26.5 L 777 26.5 L 767 32.1 L 762 41.6 L 762 66.1 L 803 66.1 M 803 85 L 803 104 L 762 104 L 762 210 M 728 181 L 728 26.5 M 737 210 L 699 210 L 699 104 L 533 104 L 705 365 M 646 346 L 635 301 L 663 346 L 646 346" />
<glyph unicode="&#xbd;" glyph-name="onehalf" horiz-adv-x="488" d="M 17 626 L 110 745 L 125 745 M 142 747 L 142 403 L 204 403 M 206 374 L 3.78 374 M 5.67 401 L 75.6 401 L 75.6 646 L 45.4 609 M 112 690 L 112 404 M 662 662 L 142 -12.6 L 183 -50.4 L 706 627 M 510 378 L 510 217 M 535 378 L 535 338 L 565 357 L 607 372 L 648 374 L 688 370 L 720 355 L 748 333 L 762 312 L 771 285 L 769 251 L 760 223 L 731 191 L 688 153 L 548 52.9 M 580 52.9 L 765 52.9 L 765 113 M 796 113 L 796 -7.56 M 762 28.3 L 533 28.3 M 764 -7.56 L 495 -7.56 L 495 30.2 M 510 56.7 L 690 223 L 707 257 L 707 297 L 684 333 L 654 342 L 605 342 L 567 321 L 544 289 L 533 246 L 533 215 M 724 314 L 739 287 L 739 255 L 730 232 L 711 208" />
<glyph unicode="&#xbe;" glyph-name="threequarters" horiz-adv-x="609" d="M 22.7 490 L 22.7 410 L 56.7 382 L 119 361 L 189 367 L 240 387 L 272 420 L 287 450 L 289 501 L 272 535 L 253 559 L 229 575 L 219 580 M 200 592 L 217 599 L 242 618 L 259 644 L 263 667 L 253 705 L 229 730 L 189 748 L 136 752 L 104 748 L 79.4 741 L 60.5 730 L 60.5 758 M 34 762 L 34 635 M 64.3 637 L 64.3 673 L 79.4 697 L 98.3 713 L 129 720 L 168 720 L 198 703 L 210 680 L 210 652 L 200 627 L 185 609 L 161 601 L 130 601 M 232 650 L 236 667 L 232 682 M 130 586 L 132 573 L 164 573 L 193 559 L 214 535 L 227 499 L 221 455 L 212 421 L 185 401 L 155 393 L 119 397 L 100 404 L 86.9 410 L 66.1 429 L 58.6 440 L 49.1 459 L 49.1 491 M 242 425 L 255 459 L 257 478 L 255 495 L 249 522 M 662 662 L 142 -12.6 L 183 -50.4 L 706 627 M 677 367 L 629 367 L 601 276 L 569 214 L 535 157 L 491 96.4 L 491 68 L 679 68 M 696 69.9 L 696 41.6 L 690 26.5 L 614 26.5 M 614 0 L 837 0 M 833 26.5 L 777 26.5 L 767 32.1 L 762 41.6 L 762 66.1 L 803 66.1 M 803 85 L 803 104 L 762 104 L 762 210 M 728 181 L 728 26.5 M 737 210 L 699 210 L 699 104 L 533 104 L 705 365 M 646 346 L 635 301 L 663 346 L 646 346" />
<glyph unicode="&#xbf;" glyph-name="questiondown" horiz-adv-x="488" d="M 315 422 L 315 343 L 290 296 L 249 258 L 205 221 L 176 186 L 167 148 L 170 117 L 198 66.2 L 252 41 L 299 37.8 L 369 59.9 L 403 104 L 400 158 M 450 154 L 450 -12.6 M 410 -12.6 L 410 22.1 L 384 2.84e-14 L 337 -15.7 L 243 -18.9 L 180 -6.3 L 132 18.9 L 72.4 66.2 L 50.4 132 L 56.7 189 L 94.5 249 L 139 280 L 183 299 L 230 328 L 252 350 L 252 365 L 252 419 M 145 221 L 110 164 L 110 126 L 129 78.8 M 293 491 L 343 513 L 353 567 L 328 614 L 287 627 L 239 605 L 217 558 L 239 507 L 293 491 M 290 532 L 306 554 L 287 567 L 277 551 L 290 532" />
<glyph unicode="&#xc0;" glyph-name="Agrave" horiz-adv-x="721" d="M 3.15 3.15 L 12.6 3.15 L 302 3.15 M 400 3.15 L 718 3.15 M 718 40.9 L 627 40.9 L 419 551 L 419 617 M 375 614 L 340 614 L 107 53.6 L 101 44.1 L 6.3 44.1 M 299 37.8 L 183 40.9 L 170 59.9 L 208 161 L 460 161 M 472 117 L 513 44.1 L 397 44.1 M 551 63 L 378 520 M 343 498 L 340 469 L 438 205 L 230 205 L 302 384 M 364 813 L 269 888 L 232 923 L 232 945 L 266 980 L 298 976 L 427 819 L 408 800" />
<glyph unicode="&#xc1;" glyph-name="Aacute" horiz-adv-x="721" d="M 3.15 3.15 L 12.6 3.15 L 302 3.15 M 400 3.15 L 718 3.15 M 718 40.9 L 627 40.9 L 419 551 L 419 617 M 375 614 L 340 614 L 107 53.6 L 101 44.1 L 6.3 44.1 M 299 37.8 L 183 40.9 L 170 59.9 L 208 161 L 460 161 M 472 117 L 513 44.1 L 397 44.1 M 551 63 L 378 520 M 343 498 L 340 469 L 438 205 L 230 205 L 302 384 M 421 781 L 515 857 L 553 891 L 553 914 L 518 948 L 487 945 L 358 788 L 376 769" />
<glyph unicode="&#xc2;" glyph-name="Acircumflex" horiz-adv-x="721" d="M 3.15 3.15 L 12.6 3.15 L 302 3.15 M 400 3.15 L 718 3.15 M 718 40.9 L 627 40.9 L 419 551 L 419 617 M 375 614 L 340 614 L 107 53.6 L 101 44.1 L 6.3 44.1 M 299 37.8 L 183 40.9 L 170 59.9 L 208 161 L 460 161 M 472 117 L 513 44.1 L 397 44.1 M 551 63 L 378 520 M 343 498 L 340 469 L 438 205 L 230 205 L 302 384 M 335 849 L 237 745 L 211 775 L 335 894 L 470 775 L 443 743 L 362 832" />
<glyph unicode="&#xc3;" glyph-name="Atilde" horiz-adv-x="721" d="M 3.15 3.15 L 12.6 3.15 L 302 3.15 M 400 3.15 L 718 3.15 M 718 40.9 L 627 40.9 L 419 551 L 419 617 M 375 614 L 340 614 L 107 53.6 L 101 44.1 L 6.3 44.1 M 299 37.8 L 183 40.9 L 170 59.9 L 208 161 L 460 161 M 472 117 L 513 44.1 L 397 44.1 M 551 63 L 378 520 M 343 498 L 340 469 L 438 205 L 230 205 L 302 384 M 182 785 L 204 853 L 226 878 L 257 882 L 309 862 L 367 831 L 437 796 L 455 792 L 466 796 L 488 851 M 521 842 L 501 774 L 475 747 L 451 739 L 415 745 L 314 798 L 265 827 L 241 829 L 228 816 L 221 794 L 217 774 M 243 856 L 248 856 L 281 847 L 331 822 L 393 787 L 435 770 L 462 770" />
<glyph unicode="&#xc4;" glyph-name="Adieresis" horiz-adv-x="721" d="M 3.15 3.15 L 12.6 3.15 L 302 3.15 M 400 3.15 L 718 3.15 M 718 40.9 L 627 40.9 L 419 551 L 419 617 M 375 614 L 340 614 L 107 53.6 L 101 44.1 L 6.3 44.1 M 299 37.8 L 183 40.9 L 170 59.9 L 208 161 L 460 161 M 472 117 L 513 44.1 L 397 44.1 M 551 63 L 378 520 M 343 498 L 340 469 L 438 205 L 230 205 L 302 384 M 283 945 L 233 923 L 223 869 L 248 825 L 289 810 L 334 832 L 356 879 L 337 929 L 283 945 M 286 904 L 271 882 L 289 869 L 299 885 L 286 904 M 539 945 L 489 923 L 479 869 L 504 825 L 545 810 L 589 832 L 611 879 L 593 929 L 539 945 M 542 904 L 526 882 L 545 869 L 555 885 L 542 904" />
<glyph unicode="&#xc5;" glyph-name="Aring" horiz-adv-x="721" d="M 3.15 3.15 L 12.6 3.15 L 302 3.15 M 400 3.15 L 718 3.15 M 718 40.9 L 627 40.9 L 419 551 L 419 617 M 375 614 L 340 614 L 107 53.6 L 101 44.1 L 6.3 44.1 M 299 37.8 L 183 40.9 L 170 59.9 L 208 161 L 460 161 M 472 117 L 513 44.1 L 397 44.1 M 551 63 L 378 520 M 343 498 L 340 469 L 438 205 L 230 205 L 302 384 M 328 930 L 323 896 L 325 869 L 340 828 L 365 806 L 404 793 L 438 799 L 471 818 L 491 851 L 498 885 L 494 927 L 476 960 L 441 985 L 402 990 L 373 983 L 355 971 M 366 954 L 356 935 L 354 906 L 358 868 L 368 838 L 387 817 L 419 812 L 447 826 L 459 851 L 463 889 L 459 922 L 449 951 L 432 970 L 412 974 M 344 939 L 340 908 L 339 882 L 344 861 L 349 846 L 357 832 M 473 850 L 479 876 L 479 906 L 472 936 L 462 955" />
<glyph unicode="&#xc8;" glyph-name="Egrave" horiz-adv-x="674" d="M 34.6 6.3 L 598 6.3 L 598 -91.4 M 646 -91.4 L 646 195 M 608 135 L 602 81.9 L 576 59.9 L 252 59.9 L 268 75.6 L 268 249 M 268 280 L 337 280 L 375 268 L 387 233 L 387 154 L 425 154 L 425 463 M 387 419 L 387 369 L 375 343 L 353 331 L 271 331 L 271 485 M 246 554 L 498 554 L 526 532 L 542 495 L 545 406 M 586 413 L 567 674 M 539 602 L 31.5 602 M 28.4 561 L 129 561 L 151 551 L 164 529 L 164 66.2 L 148 37.8 L 25.2 37.8 M 214 69.3 L 214 532 M 340 813 L 246 888 L 208 923 L 208 945 L 243 980 L 274 976 L 403 819 L 384 800" />
<glyph unicode="&#xc9;" glyph-name="Eacute" horiz-adv-x="674" d="M 34.6 6.3 L 598 6.3 L 598 -91.4 M 646 -91.4 L 646 195 M 608 135 L 602 81.9 L 576 59.9 L 252 59.9 L 268 75.6 L 268 249 M 268 280 L 337 280 L 375 268 L 387 233 L 387 154 L 425 154 L 425 463 M 387 419 L 387 369 L 375 343 L 353 331 L 271 331 L 271 485 M 246 554 L 498 554 L 526 532 L 542 495 L 545 406 M 586 413 L 567 674 M 539 602 L 31.5 602 M 28.4 561 L 129 561 L 151 551 L 164 529 L 164 66.2 L 148 37.8 L 25.2 37.8 M 214 69.3 L 214 532 M 397 781 L 491 857 L 529 891 L 529 914 L 495 948 L 463 945 L 334 788 L 353 769" />
<glyph unicode="&#xca;" glyph-name="Ecircumflex" horiz-adv-x="674" d="M 34.6 6.3 L 598 6.3 L 598 -91.4 M 646 -91.4 L 646 195 M 608 135 L 602 81.9 L 576 59.9 L 252 59.9 L 268 75.6 L 268 249 M 268 280 L 337 280 L 375 268 L 387 233 L 387 154 L 425 154 L 425 463 M 387 419 L 387 369 L 375 343 L 353 331 L 271 331 L 271 485 M 246 554 L 498 554 L 526 532 L 542 495 L 545 406 M 586 413 L 567 674 M 539 602 L 31.5 602 M 28.4 561 L 129 561 L 151 551 L 164 529 L 164 66.2 L 148 37.8 L 25.2 37.8 M 214 69.3 L 214 532 M 321 849 L 223 745 L 197 775 L 321 894 L 455 775 L 429 743 L 348 832" />
<glyph unicode="&#xcb;" glyph-name="Edieresis" horiz-adv-x="674" d="M 34.6 6.3 L 598 6.3 L 598 -91.4 M 646 -91.4 L 646 195 M 608 135 L 602 81.9 L 576 59.9 L 252 59.9 L 268 75.6 L 268 249 M 268 280 L 337 280 L 375 268 L 387 233 L 387 154 L 425 154 L 425 463 M 387 419 L 387 369 L 375 343 L 353 331 L 271 331 L 271 485 M 246 554 L 498 554 L 526 532 L 542 495 L 545 406 M 586 413 L 567 674 M 539 602 L 31.5 602 M 28.4 561 L 129 561 L 151 551 L 164 529 L 164 66.2 L 148 37.8 L 25.2 37.8 M 214 69.3 L 214 532 M 254 945 L 203 923 L 194 869 L 219 825 L 260 810 L 304 832 L 326 879 L 307 929 L 254 945 M 257 904 L 241 882 L 260 869 L 269 885 L 257 904 M 521 945 L 471 923 L 461 869 L 487 825 L 528 810 L 572 832 L 594 879 L 575 929 L 521 945 M 524 904 L 509 882 L 528 869 L 537 885 L 524 904" />
<glyph unicode="&#xcc;" glyph-name="Igrave" horiz-adv-x="413" d="M 31.5 -6.3 L 403 -6.3 M 400 37.8 L 290 37.8 L 271 56.7 L 271 536 L 296 561 L 406 561 M 406 602 L 25.2 602 M 25.2 564 L 145 564 L 164 545 L 164 59.9 L 142 37.8 L 31.5 37.8 M 217 47.2 L 217 558 M 209 813 L 115 888 L 77.2 923 L 77.2 945 L 112 980 L 143 976 L 272 819 L 254 800" />
<glyph unicode="&#xcd;" glyph-name="Iacute" horiz-adv-x="413" d="M 31.5 -6.3 L 403 -6.3 M 400 37.8 L 290 37.8 L 271 56.7 L 271 536 L 296 561 L 406 561 M 406 602 L 25.2 602 M 25.2 564 L 145 564 L 164 545 L 164 59.9 L 142 37.8 L 31.5 37.8 M 217 47.2 L 217 558 M 266 781 L 361 857 L 398 891 L 398 914 L 364 948 L 332 945 L 203 788 L 222 769" />
<glyph unicode="&#xce;" glyph-name="Icircumflex" horiz-adv-x="413" d="M 31.5 -6.3 L 403 -6.3 M 400 37.8 L 290 37.8 L 271 56.7 L 271 536 L 296 561 L 406 561 M 406 602 L 25.2 602 M 25.2 564 L 145 564 L 164 545 L 164 59.9 L 142 37.8 L 31.5 37.8 M 217 47.2 L 217 558 M 243 849 L 145 745 L 118 775 L 243 894 L 377 775 L 351 743 L 269 832" />
<glyph unicode="&#xcf;" glyph-name="Idieresis" horiz-adv-x="413" d="M 31.5 -6.3 L 403 -6.3 M 400 37.8 L 290 37.8 L 271 56.7 L 271 536 L 296 561 L 406 561 M 406 602 L 25.2 602 M 25.2 564 L 145 564 L 164 545 L 164 59.9 L 142 37.8 L 31.5 37.8 M 217 47.2 L 217 558 M 135 945 L 84.7 923 L 75.2 869 L 100 825 L 141 810 L 185 832 L 208 879 L 189 929 L 135 945 M 138 904 L 122 882 L 141 869 L 151 885 L 138 904 M 378 945 L 328 923 L 319 869 L 344 825 L 385 810 L 429 832 L 451 879 L 432 929 L 378 945 M 382 904 L 366 882 L 385 869 L 394 885 L 382 904" />
<glyph unicode="&#xd0;" glyph-name="Eth" horiz-adv-x="712" d="M 362 296 L 362 318 L 28.4 318 M 31.5 287 L 31.5 261 L 362 261 M 22 6.3 L 422 6.3 L 532 37.8 L 592 81.9 L 646 161 L 671 227 L 674 306 L 671 334 L 665 397 L 617 485 L 573 532 L 513 567 L 466 586 L 419 598 L 15.8 598 M 18.9 554 L 132 554 L 151 536 L 151 56.7 L 139 34.6 L 15.8 34.6 M 239 47.2 L 394 47.2 L 457 69.3 L 501 104 L 539 158 L 558 239 L 561 324 L 551 400 L 523 466 L 479 520 L 432 542 L 365 551 L 236 551 M 255 498 L 255 110 M 205 50.4 L 205 551 M 573 466 L 605 391 L 614 334 L 617 268 L 608 208 L 592 161 L 576 132" />
<glyph unicode="&#xd1;" glyph-name="Ntilde" horiz-adv-x="737" d="M 18.9 0 L 324 0 M 321 40.9 L 211 40.9 L 195 56.7 L 195 472 M 227 422 L 545 -12.6 L 564 -12.6 M 598 -12.6 L 598 539 L 614 558 L 715 558 M 721 605 L 413 605 M 416 561 L 520 561 L 542 539 L 542 161 M 498 230 L 230 598 L 18.9 598 M 15.8 558 L 120 558 L 145 532 L 145 63 L 123 40.9 L 18.9 40.9 M 220 523 L 523 113 M 185 785 L 207 853 L 229 878 L 260 882 L 313 862 L 370 831 L 441 796 L 459 792 L 470 796 L 492 851 M 525 842 L 505 774 L 478 747 L 454 739 L 419 745 L 318 798 L 269 827 L 245 829 L 232 816 L 225 794 L 220 774 M 247 856 L 251 856 L 284 847 L 335 822 L 397 787 L 439 770 L 465 770" />
<glyph unicode="&#xd2;" glyph-name="Ograve" horiz-adv-x="649" d="M 56.7 422 L 41 309 L 47.2 220 L 97.6 81.9 L 180 9.45 L 309 -34.6 L 422 -15.8 L 532 50.4 L 602 161 L 624 274 L 611 413 L 551 523 L 435 605 L 302 624 L 208 598 L 148 558 M 183 504 L 151 438 L 145 343 L 158 217 L 189 117 L 252 47.2 L 359 28.4 L 454 75.6 L 495 161 L 507 287 L 495 397 L 460 491 L 403 554 L 337 570 M 110 454 L 97.6 350 L 94.5 261 L 110 192 L 126 142 L 154 94.5 M 542 158 L 561 243 L 561 343 L 539 441 L 504 507 M 328 813 L 233 888 L 195 923 L 195 945 L 230 980 L 261 976 L 391 819 L 372 800" />
<glyph unicode="&#xd3;" glyph-name="Oacute" horiz-adv-x="649" d="M 56.7 422 L 41 309 L 47.2 220 L 97.6 81.9 L 180 9.45 L 309 -34.6 L 422 -15.8 L 532 50.4 L 602 161 L 624 274 L 611 413 L 551 523 L 435 605 L 302 624 L 208 598 L 148 558 M 183 504 L 151 438 L 145 343 L 158 217 L 189 117 L 252 47.2 L 359 28.4 L 454 75.6 L 495 161 L 507 287 L 495 397 L 460 491 L 403 554 L 337 570 M 110 454 L 97.6 350 L 94.5 261 L 110 192 L 126 142 L 154 94.5 M 542 158 L 561 243 L 561 343 L 539 441 L 504 507 M 384 781 L 479 857 L 517 891 L 517 914 L 482 948 L 450 945 L 321 788 L 340 769" />
<glyph unicode="&#xd4;" glyph-name="Ocircumflex" horiz-adv-x="649" d="M 56.7 422 L 41 309 L 47.2 220 L 97.6 81.9 L 180 9.45 L 309 -34.6 L 422 -15.8 L 532 50.4 L 602 161 L 624 274 L 611 413 L 551 523 L 435 605 L 302 624 L 208 598 L 148 558 M 183 504 L 151 438 L 145 343 L 158 217 L 189 117 L 252 47.2 L 359 28.4 L 454 75.6 L 495 161 L 507 287 L 495 397 L 460 491 L 403 554 L 337 570 M 110 454 L 97.6 350 L 94.5 261 L 110 192 L 126 142 L 154 94.5 M 542 158 L 561 243 L 561 343 L 539 441 L 504 507 M 314 849 L 215 745 L 189 775 L 314 894 L 448 775 L 421 743 L 340 832" />
<glyph unicode="&#xd5;" glyph-name="Otilde" horiz-adv-x="649" d="M 56.7 422 L 41 309 L 47.2 220 L 97.6 81.9 L 180 9.45 L 309 -34.6 L 422 -15.8 L 532 50.4 L 602 161 L 624 274 L 611 413 L 551 523 L 435 605 L 302 624 L 208 598 L 148 558 M 183 504 L 151 438 L 145 343 L 158 217 L 189 117 L 252 47.2 L 359 28.4 L 454 75.6 L 495 161 L 507 287 L 495 397 L 460 491 L 403 554 L 337 570 M 110 454 L 97.6 350 L 94.5 261 L 110 192 L 126 142 L 154 94.5 M 542 158 L 561 243 L 561 343 L 539 441 L 504 507 M 165 785 L 187 853 L 209 878 L 240 882 L 293 862 L 350 831 L 420 796 L 438 792 L 449 796 L 471 851 M 504 842 L 484 774 L 458 747 L 434 739 L 398 745 L 297 798 L 248 827 L 224 829 L 211 816 L 204 794 L 200 774 M 226 856 L 231 856 L 264 847 L 315 822 L 376 787 L 418 770 L 445 770" />
<glyph unicode="&#xd6;" glyph-name="Odieresis" horiz-adv-x="649" d="M 56.7 422 L 41 309 L 47.2 220 L 97.6 81.9 L 180 9.45 L 309 -34.6 L 422 -15.8 L 532 50.4 L 602 161 L 624 274 L 611 413 L 551 523 L 435 605 L 302 624 L 208 598 L 148 558 M 183 504 L 151 438 L 145 343 L 158 217 L 189 117 L 252 47.2 L 359 28.4 L 454 75.6 L 495 161 L 507 287 L 495 397 L 460 491 L 403 554 L 337 570 M 110 454 L 97.6 350 L 94.5 261 L 110 192 L 126 142 L 154 94.5 M 542 158 L 561 243 L 561 343 L 539 441 L 504 507 M 252 945 L 202 923 L 192 869 L 217 825 L 258 810 L 302 832 L 324 879 L 306 929 L 252 945 M 255 904 L 239 882 L 258 869 L 268 885 L 255 904 M 498 945 L 447 923 L 438 869 L 463 825 L 504 810 L 548 832 L 570 879 L 551 929 L 498 945 M 501 904 L 485 882 L 504 869 L 513 885 L 501 904" />
<glyph unicode="&#xd7;" glyph-name="multiply" horiz-adv-x="614" d="M 135 -22.1 L 570 498 L 353 239 L 135 501 L 573 -18.9" />
<glyph unicode="&#xd8;" glyph-name="Oslash" horiz-adv-x="649" d="M 56.7 422 L 41 309 L 47.2 220 L 97.6 81.9 L 180 9.45 L 309 -34.6 L 422 -15.8 L 532 50.4 L 602 161 L 624 274 L 611 413 L 551 523 L 435 605 L 302 624 L 208 598 L 148 558 M 183 504 L 151 438 L 145 343 L 158 217 L 189 117 L 252 47.2 L 359 28.4 L 454 75.6 L 495 161 L 507 287 L 495 397 L 460 491 L 403 554 L 337 570 M 110 454 L 97.6 350 L 94.5 261 L 110 192 L 126 142 L 154 94.5 M 542 158 L 561 243 L 561 343 L 539 441 L 504 507 M 578 680 L 17 -47.6 L 61.2 -88.5 L 626 643" />
<glyph unicode="&#xd9;" glyph-name="Ugrave" horiz-adv-x="747" d="M 22 561 L 123 561 L 135 539 L 135 161 L 158 97.7 L 195 47.2 L 236 12.6 L 284 -9.45 L 340 -22.1 L 406 -22.1 L 485 -3.15 L 536 31.5 L 576 85.1 L 595 123 L 605 176 L 605 536 L 624 554 L 728 554 M 731 605 L 428 605 M 425 561 L 523 561 L 548 545 L 548 158 L 529 117 L 498 72.4 L 454 40.9 L 400 25.2 L 346 25.2 L 296 44.1 L 268 69.3 L 249 110 M 205 117 L 186 158 L 189 214 L 189 551 M 18.9 602 L 372 602 M 372 554 L 261 554 L 246 542 L 246 236 M 376 813 L 282 888 L 244 923 L 244 945 L 279 980 L 310 976 L 439 819 L 421 800" />
<glyph unicode="&#xda;" glyph-name="Uacute" horiz-adv-x="747" d="M 22 561 L 123 561 L 135 539 L 135 161 L 158 97.7 L 195 47.2 L 236 12.6 L 284 -9.45 L 340 -22.1 L 406 -22.1 L 485 -3.15 L 536 31.5 L 576 85.1 L 595 123 L 605 176 L 605 536 L 624 554 L 728 554 M 731 605 L 428 605 M 425 561 L 523 561 L 548 545 L 548 158 L 529 117 L 498 72.4 L 454 40.9 L 400 25.2 L 346 25.2 L 296 44.1 L 268 69.3 L 249 110 M 205 117 L 186 158 L 189 214 L 189 551 M 18.9 602 L 372 602 M 372 554 L 261 554 L 246 542 L 246 236 M 433 781 L 528 857 L 565 891 L 565 914 L 531 948 L 499 945 L 370 788 L 389 769" />
<glyph unicode="&#xdb;" glyph-name="Ucircumflex" horiz-adv-x="747" d="M 22 561 L 123 561 L 135 539 L 135 161 L 158 97.7 L 195 47.2 L 236 12.6 L 284 -9.45 L 340 -22.1 L 406 -22.1 L 485 -3.15 L 536 31.5 L 576 85.1 L 595 123 L 605 176 L 605 536 L 624 554 L 728 554 M 731 605 L 428 605 M 425 561 L 523 561 L 548 545 L 548 158 L 529 117 L 498 72.4 L 454 40.9 L 400 25.2 L 346 25.2 L 296 44.1 L 268 69.3 L 249 110 M 205 117 L 186 158 L 189 214 L 189 551 M 18.9 602 L 372 602 M 372 554 L 261 554 L 246 542 L 246 236 M 343 849 L 245 745 L 218 775 L 343 894 L 477 775 L 451 743 L 369 832" />
<glyph unicode="&#xdc;" glyph-name="Udieresis" horiz-adv-x="747" d="M 22 561 L 123 561 L 135 539 L 135 161 L 158 97.7 L 195 47.2 L 236 12.6 L 284 -9.45 L 340 -22.1 L 406 -22.1 L 485 -3.15 L 536 31.5 L 576 85.1 L 595 123 L 605 176 L 605 536 L 624 554 L 728 554 M 731 605 L 428 605 M 425 561 L 523 561 L 548 545 L 548 158 L 529 117 L 498 72.4 L 454 40.9 L 400 25.2 L 346 25.2 L 296 44.1 L 268 69.3 L 249 110 M 205 117 L 186 158 L 189 214 L 189 551 M 18.9 602 L 372 602 M 372 554 L 261 554 L 246 542 L 246 236 M 291 945 L 241 923 L 232 869 L 257 825 L 298 810 L 342 832 L 364 879 L 345 929 L 291 945 M 295 904 L 279 882 L 298 869 L 307 885 L 295 904 M 556 945 L 505 923 L 496 869 L 521 825 L 562 810 L 606 832 L 628 879 L 609 929 L 556 945 M 559 904 L 543 882 L 562 869 L 572 885 L 559 904" />
<glyph unicode="&#xdd;" glyph-name="Yacute" horiz-adv-x="699" d="M 154 -6.3 L 561 -6.3 M 561 37.8 L 422 37.8 L 410 50.4 L 410 205 L 586 545 L 608 558 L 696 558 M 693 605 L 387 605 M 387 558 L 501 558 L 520 539 L 378 261 M 343 340 L 230 561 L 309 561 M 312 608 L 6.3 608 M 6.3 561 L 110 561 L 126 536 L 306 186 L 306 53.6 L 290 37.8 L 151 37.8 M 359 44.1 L 359 192 L 189 536 M 410 781 L 504 857 L 542 891 L 542 914 L 507 948 L 476 945 L 346 788 L 365 769" />
<glyph unicode="&#xe0;" glyph-name="agrave" horiz-adv-x="724" d="M 3.15 3.15 L 12.6 3.15 L 302 3.15 M 400 3.15 L 718 3.15 M 718 40.9 L 627 40.9 L 419 551 L 419 617 M 375 614 L 340 614 L 107 53.6 L 101 44.1 L 6.3 44.1 M 299 37.8 L 183 40.9 L 170 59.9 L 208 161 L 460 161 M 472 117 L 513 44.1 L 397 44.1 M 551 63 L 378 520 M 343 501 L 340 469 L 438 205 L 233 205 L 302 384 M 365 781 L 271 857 L 233 891 L 233 914 L 268 948 L 299 945 L 428 788 L 410 769" />
<glyph unicode="&#xe1;" glyph-name="aacute" horiz-adv-x="724" d="M 3.15 3.15 L 12.6 3.15 L 302 3.15 M 400 3.15 L 718 3.15 M 718 40.9 L 627 40.9 L 419 551 L 419 617 M 375 614 L 340 614 L 107 53.6 L 101 44.1 L 6.3 44.1 M 299 37.8 L 183 40.9 L 170 59.9 L 208 161 L 460 161 M 472 117 L 513 44.1 L 397 44.1 M 551 63 L 378 520 M 343 501 L 340 469 L 438 205 L 233 205 L 302 384 M 454 813 L 548 888 L 586 923 L 586 945 L 551 980 L 520 976 L 391 819 L 410 800" />
<glyph unicode="&#xe2;" glyph-name="acircumflex" horiz-adv-x="724" d="M 3.15 3.15 L 12.6 3.15 L 302 3.15 M 400 3.15 L 718 3.15 M 718 40.9 L 627 40.9 L 419 551 L 419 617 M 375 614 L 340 614 L 107 53.6 L 101 44.1 L 6.3 44.1 M 299 37.8 L 183 40.9 L 170 59.9 L 208 161 L 460 161 M 472 117 L 513 44.1 L 397 44.1 M 551 63 L 378 520 M 343 501 L 340 469 L 438 205 L 233 205 L 302 384 M 374 830 L 276 726 L 249 756 L 374 875 L 508 756 L 482 724 L 401 813" />
<glyph unicode="&#xe3;" glyph-name="atilde" horiz-adv-x="724" d="M 3.15 3.15 L 12.6 3.15 L 302 3.15 M 400 3.15 L 718 3.15 M 718 40.9 L 627 40.9 L 419 551 L 419 617 M 375 614 L 340 614 L 107 53.6 L 101 44.1 L 6.3 44.1 M 299 37.8 L 183 40.9 L 170 59.9 L 208 161 L 460 161 M 472 117 L 513 44.1 L 397 44.1 M 551 63 L 378 520 M 343 501 L 340 469 L 438 205 L 233 205 L 302 384 M 182 763 L 204 831 L 226 856 L 257 860 L 310 840 L 368 809 L 438 774 L 456 770 L 467 774 L 489 829 M 522 820 L 502 752 L 476 725 L 451 717 L 416 723 L 315 776 L 266 805 L 242 807 L 229 794 L 222 772 L 218 752 M 244 833 L 248 833 L 282 825 L 332 800 L 394 765 L 436 747 L 462 747" />
<glyph unicode="&#xe4;" glyph-name="adieresis" horiz-adv-x="724" d="M 3.15 3.15 L 12.6 3.15 L 302 3.15 M 400 3.15 L 718 3.15 M 718 40.9 L 627 40.9 L 419 551 L 419 617 M 375 614 L 340 614 L 107 53.6 L 101 44.1 L 6.3 44.1 M 299 37.8 L 183 40.9 L 170 59.9 L 208 161 L 460 161 M 472 117 L 513 44.1 L 397 44.1 M 551 63 L 378 520 M 343 501 L 340 469 L 438 205 L 233 205 L 302 384 M 260 882 L 209 860 L 200 806 L 225 762 L 266 747 L 310 769 L 332 816 L 313 866 L 260 882 M 263 841 L 247 819 L 266 806 L 275 822 L 263 841 M 503 882 L 452 860 L 443 806 L 468 762 L 509 747 L 553 769 L 575 816 L 556 866 L 503 882 M 506 841 L 490 819 L 509 806 L 518 822 L 506 841" />
<glyph unicode="&#xe5;" glyph-name="aring" horiz-adv-x="724" d="M 3.15 3.15 L 12.6 3.15 L 302 3.15 M 400 3.15 L 718 3.15 M 718 40.9 L 627 40.9 L 419 551 L 419 617 M 375 614 L 340 614 L 107 53.6 L 101 44.1 L 6.3 44.1 M 299 37.8 L 183 40.9 L 170 59.9 L 208 161 L 460 161 M 472 117 L 513 44.1 L 397 44.1 M 551 63 L 378 520 M 343 501 L 340 469 L 438 205 L 233 205 L 302 384 M 301 930 L 296 896 L 298 869 L 313 828 L 337 806 L 376 793 L 410 799 L 443 818 L 464 851 L 471 885 L 467 927 L 449 960 L 414 985 L 374 990 L 346 983 L 328 971 M 338 954 L 329 935 L 327 906 L 331 868 L 340 838 L 359 817 L 391 812 L 420 826 L 432 851 L 436 889 L 432 922 L 421 951 L 404 970 L 385 974 M 317 939 L 313 908 L 312 882 L 317 861 L 321 846 L 330 832 M 446 850 L 452 876 L 452 906 L 445 936 L 435 955" />
<glyph unicode="&#xe8;" glyph-name="egrave" horiz-adv-x="671" d="M 34.6 6.3 L 595 6.3 L 595 -88.2 M 646 -88.2 L 646 195 M 608 135 L 602 81.9 L 576 59.9 L 252 59.9 L 268 75.6 L 268 249 M 268 280 L 337 280 L 375 268 L 387 233 L 387 154 L 425 154 L 425 463 M 387 419 L 387 369 L 375 343 L 353 331 L 271 331 L 271 485 M 246 554 L 498 554 L 526 532 L 542 495 L 545 406 M 539 602 L 28.4 602 M 25.2 561 L 126 561 L 151 551 L 164 529 L 164 69.3 L 145 37.8 L 25.2 37.8 M 214 69.3 L 214 532 M 586 416 L 564 677 M 339 781 L 244 857 L 206 891 L 206 914 L 241 948 L 272 945 L 402 788 L 383 769" />
<glyph unicode="&#xe9;" glyph-name="eacute" horiz-adv-x="671" d="M 34.6 6.3 L 595 6.3 L 595 -88.2 M 646 -88.2 L 646 195 M 608 135 L 602 81.9 L 576 59.9 L 252 59.9 L 268 75.6 L 268 249 M 268 280 L 337 280 L 375 268 L 387 233 L 387 154 L 425 154 L 425 463 M 387 419 L 387 369 L 375 343 L 353 331 L 271 331 L 271 485 M 246 554 L 498 554 L 526 532 L 542 495 L 545 406 M 539 602 L 28.4 602 M 25.2 561 L 126 561 L 151 551 L 164 529 L 164 69.3 L 145 37.8 L 25.2 37.8 M 214 69.3 L 214 532 M 586 416 L 564 677 M 427 813 L 521 888 L 559 923 L 559 945 L 524 980 L 493 976 L 364 819 L 383 800" />
<glyph unicode="&#xea;" glyph-name="ecircumflex" horiz-adv-x="671" d="M 34.6 6.3 L 595 6.3 L 595 -88.2 M 646 -88.2 L 646 195 M 608 135 L 602 81.9 L 576 59.9 L 252 59.9 L 268 75.6 L 268 249 M 268 280 L 337 280 L 375 268 L 387 233 L 387 154 L 425 154 L 425 463 M 387 419 L 387 369 L 375 343 L 353 331 L 271 331 L 271 485 M 246 554 L 498 554 L 526 532 L 542 495 L 545 406 M 539 602 L 28.4 602 M 25.2 561 L 126 561 L 151 551 L 164 529 L 164 69.3 L 145 37.8 L 25.2 37.8 M 214 69.3 L 214 532 M 586 416 L 564 677 M 358 830 L 260 726 L 233 756 L 358 875 L 492 756 L 466 724 L 385 813" />
<glyph unicode="&#xeb;" glyph-name="edieresis" horiz-adv-x="671" d="M 34.6 6.3 L 595 6.3 L 595 -88.2 M 646 -88.2 L 646 195 M 608 135 L 602 81.9 L 576 59.9 L 252 59.9 L 268 75.6 L 268 249 M 268 280 L 337 280 L 375 268 L 387 233 L 387 154 L 425 154 L 425 463 M 387 419 L 387 369 L 375 343 L 353 331 L 271 331 L 271 485 M 246 554 L 498 554 L 526 532 L 542 495 L 545 406 M 539 602 L 28.4 602 M 25.2 561 L 126 561 L 151 551 L 164 529 L 164 69.3 L 145 37.8 L 25.2 37.8 M 214 69.3 L 214 532 M 586 416 L 564 677 M 230 882 L 180 860 L 170 806 L 195 762 L 236 747 L 280 769 L 302 816 L 284 866 L 230 882 M 233 841 L 217 819 L 236 806 L 246 822 L 233 841 M 479 882 L 428 860 L 419 806 L 444 762 L 485 747 L 529 769 L 551 816 L 532 866 L 479 882 M 482 841 L 466 819 L 485 806 L 495 822 L 482 841" />
<glyph unicode="&#xec;" glyph-name="igrave" horiz-adv-x="416" d="M 22 -6.3 L 394 -6.3 M 391 37.8 L 280 37.8 L 261 56.7 L 261 536 L 287 561 L 397 561 M 397 602 L 15.8 602 M 15.8 564 L 135 564 L 154 545 L 154 59.9 L 132 37.8 L 22 37.8 M 208 47.2 L 208 558 M 211 781 L 117 857 L 78.8 891 L 78.8 914 L 113 948 L 145 945 L 274 788 L 255 769" />
<glyph unicode="&#xed;" glyph-name="iacute" horiz-adv-x="416" d="M 22 -6.3 L 394 -6.3 M 391 37.8 L 280 37.8 L 261 56.7 L 261 536 L 287 561 L 397 561 M 397 602 L 15.8 602 M 15.8 564 L 135 564 L 154 545 L 154 59.9 L 132 37.8 L 22 37.8 M 208 47.2 L 208 558 M 299 813 L 394 888 L 432 923 L 432 945 L 397 980 L 365 976 L 236 819 L 255 800" />
<glyph unicode="&#xee;" glyph-name="icircumflex" horiz-adv-x="416" d="M 22 -6.3 L 394 -6.3 M 391 37.8 L 280 37.8 L 261 56.7 L 261 536 L 287 561 L 397 561 M 397 602 L 15.8 602 M 15.8 564 L 135 564 L 154 545 L 154 59.9 L 132 37.8 L 22 37.8 M 208 47.2 L 208 558 M 225 830 L 127 726 L 100 756 L 225 875 L 359 756 L 333 724 L 251 813" />
<glyph unicode="&#xef;" glyph-name="idieresis" horiz-adv-x="416" d="M 22 -6.3 L 394 -6.3 M 391 37.8 L 280 37.8 L 261 56.7 L 261 536 L 287 561 L 397 561 M 397 602 L 15.8 602 M 15.8 564 L 135 564 L 154 545 L 154 59.9 L 132 37.8 L 22 37.8 M 208 47.2 L 208 558 M 94.4 882 L 44 860 L 34.6 806 L 59.8 762 L 101 747 L 145 769 L 167 816 L 148 866 L 94.4 882 M 97.6 841 L 81.8 819 L 101 806 L 110 822 L 97.6 841 M 359 882 L 309 860 L 299 806 L 325 762 L 365 747 L 410 769 L 432 816 L 413 866 L 359 882 M 362 841 L 347 819 L 365 806 L 375 822 L 362 841" />
<glyph unicode="&#xf1;" glyph-name="ntilde" horiz-adv-x="740" d="M 25.2 0 L 331 0 M 328 40.9 L 217 40.9 L 202 56.7 L 202 472 M 233 422 L 548 -12.6 L 567 -12.6 M 602 -12.6 L 602 539 L 621 558 L 721 558 M 724 605 L 419 605 M 419 561 L 523 561 L 545 539 L 545 161 M 501 230 L 236 598 L 22 598 M 18.9 558 L 126 558 L 151 536 L 151 63 L 129 40.9 L 25.2 40.9 M 227 523 L 529 117 M 186 763 L 208 831 L 230 856 L 261 860 L 314 840 L 371 809 L 442 774 L 459 770 L 470 774 L 492 829 M 526 820 L 506 752 L 479 725 L 455 717 L 420 723 L 318 776 L 270 805 L 245 807 L 232 794 L 226 772 L 221 752 M 248 833 L 252 833 L 285 825 L 336 800 L 398 765 L 440 747 L 466 747" />
<glyph unicode="&#xf2;" glyph-name="ograve" horiz-adv-x="652" d="M 53.5 422 L 37.8 309 L 44.1 220 L 94.5 85.1 L 173 9.45 L 306 -34.6 L 416 -15.8 L 529 50.4 L 595 161 L 621 274 L 608 413 L 548 523 L 432 605 L 299 624 L 202 598 L 145 558 M 180 507 L 145 438 L 139 343 L 151 220 L 186 117 L 249 47.2 L 356 28.4 L 450 75.6 L 491 161 L 501 287 L 491 397 L 457 491 L 400 554 L 331 570 M 107 454 L 91.4 350 L 91.4 261 L 107 192 L 123 142 L 148 94.5 M 536 158 L 558 243 L 558 343 L 536 441 L 501 507 M 329 781 L 235 857 L 197 891 L 197 914 L 232 948 L 263 945 L 392 788 L 373 769" />
<glyph unicode="&#xf3;" glyph-name="oacute" horiz-adv-x="652" d="M 53.5 422 L 37.8 309 L 44.1 220 L 94.5 85.1 L 173 9.45 L 306 -34.6 L 416 -15.8 L 529 50.4 L 595 161 L 621 274 L 608 413 L 548 523 L 432 605 L 299 624 L 202 598 L 145 558 M 180 507 L 145 438 L 139 343 L 151 220 L 186 117 L 249 47.2 L 356 28.4 L 450 75.6 L 491 161 L 501 287 L 491 397 L 457 491 L 400 554 L 331 570 M 107 454 L 91.4 350 L 91.4 261 L 107 192 L 123 142 L 148 94.5 M 536 158 L 558 243 L 558 343 L 536 441 L 501 507 M 417 813 L 512 888 L 550 923 L 550 945 L 515 980 L 484 976 L 354 819 L 373 800" />
<glyph unicode="&#xf4;" glyph-name="ocircumflex" horiz-adv-x="652" d="M 53.5 422 L 37.8 309 L 44.1 220 L 94.5 85.1 L 173 9.45 L 306 -34.6 L 416 -15.8 L 529 50.4 L 595 161 L 621 274 L 608 413 L 548 523 L 432 605 L 299 624 L 202 598 L 145 558 M 180 507 L 145 438 L 139 343 L 151 220 L 186 117 L 249 47.2 L 356 28.4 L 450 75.6 L 491 161 L 501 287 L 491 397 L 457 491 L 400 554 L 331 570 M 107 454 L 91.4 350 L 91.4 261 L 107 192 L 123 142 L 148 94.5 M 536 158 L 558 243 L 558 343 L 536 441 L 501 507 M 352 830 L 254 726 L 228 756 L 352 875 L 487 756 L 460 724 L 379 813" />
<glyph unicode="&#xf5;" glyph-name="otilde" horiz-adv-x="652" d="M 53.5 422 L 37.8 309 L 44.1 220 L 94.5 85.1 L 173 9.45 L 306 -34.6 L 416 -15.8 L 529 50.4 L 595 161 L 621 274 L 608 413 L 548 523 L 432 605 L 299 624 L 202 598 L 145 558 M 180 507 L 145 438 L 139 343 L 151 220 L 186 117 L 249 47.2 L 356 28.4 L 450 75.6 L 491 161 L 501 287 L 491 397 L 457 491 L 400 554 L 331 570 M 107 454 L 91.4 350 L 91.4 261 L 107 192 L 123 142 L 148 94.5 M 536 158 L 558 243 L 558 343 L 536 441 L 501 507 M 165 763 L 187 831 L 209 856 L 240 860 L 293 840 L 351 809 L 421 774 L 439 770 L 450 774 L 472 829 M 505 820 L 485 752 L 459 725 L 434 717 L 399 723 L 298 776 L 249 805 L 225 807 L 212 794 L 205 772 L 201 752 M 227 833 L 232 833 L 265 825 L 315 800 L 377 765 L 419 747 L 445 747" />
<glyph unicode="&#xf6;" glyph-name="odieresis" horiz-adv-x="652" d="M 53.5 422 L 37.8 309 L 44.1 220 L 94.5 85.1 L 173 9.45 L 306 -34.6 L 416 -15.8 L 529 50.4 L 595 161 L 621 274 L 608 413 L 548 523 L 432 605 L 299 624 L 202 598 L 145 558 M 180 507 L 145 438 L 139 343 L 151 220 L 186 117 L 249 47.2 L 356 28.4 L 450 75.6 L 491 161 L 501 287 L 491 397 L 457 491 L 400 554 L 331 570 M 107 454 L 91.4 350 L 91.4 261 L 107 192 L 123 142 L 148 94.5 M 536 158 L 558 243 L 558 343 L 536 441 L 501 507 M 212 882 L 161 860 L 152 806 L 177 762 L 218 747 L 262 769 L 284 816 L 265 866 L 212 882 M 215 841 L 199 819 L 218 806 L 227 822 L 215 841 M 478 882 L 428 860 L 418 806 L 444 762 L 484 747 L 529 769 L 551 816 L 532 866 L 478 882 M 481 841 L 466 819 L 484 806 L 494 822 L 481 841" />
<glyph unicode="&#xf7;" glyph-name="divide" horiz-adv-x="576" d="M 302 614 L 252 592 L 243 539 L 268 495 L 309 479 L 353 501 L 375 548 L 356 598 L 302 614 M 306 573 L 290 551 L 309 539 L 318 554 L 306 573 M 302 268 L 252 246 L 243 192 L 268 148 L 309 132 L 353 154 L 375 202 L 356 252 L 302 268 M 306 227 L 290 205 L 309 192 L 318 208 L 306 227 M 543 391 L 543 413 L 42.5 413 M 47.2 381 L 47.2 356 L 543 356" />
<glyph unicode="&#xf8;" glyph-name="oslash" horiz-adv-x="652" d="M 53.5 422 L 37.8 309 L 44.1 220 L 94.5 85.1 L 173 9.45 L 306 -34.6 L 416 -15.8 L 529 50.4 L 595 161 L 621 274 L 608 413 L 548 523 L 432 605 L 299 624 L 202 598 L 145 558 M 180 507 L 145 438 L 139 343 L 151 220 L 186 117 L 249 47.2 L 356 28.4 L 450 75.6 L 491 161 L 501 287 L 491 397 L 457 491 L 400 554 L 331 570 M 107 454 L 91.4 350 L 91.4 261 L 107 192 L 123 142 L 148 94.5 M 536 158 L 558 243 L 558 343 L 536 441 L 501 507 M 463 507 L 99.2 35.3 L 128 8.82 L 494 483" />
<glyph unicode="&#xf9;" glyph-name="ugrave" horiz-adv-x="750" d="M 41 561 L 142 561 L 154 539 L 154 161 L 176 97.7 L 214 47.2 L 255 12.6 L 302 -9.45 L 359 -22.1 L 425 -22.1 L 504 -3.15 L 554 31.5 L 595 85.1 L 614 123 L 624 176 L 624 536 L 643 554 L 747 554 M 750 605 L 447 605 M 444 561 L 542 561 L 567 545 L 567 158 L 548 117 L 513 72.4 L 472 40.9 L 419 25.2 L 365 25.2 L 315 44.1 L 287 69.3 L 268 110 M 224 117 L 205 158 L 208 214 L 208 551 M 37.8 602 L 391 602 M 391 554 L 280 554 L 265 542 L 265 236 M 378 781 L 284 857 L 246 891 L 246 914 L 280 948 L 312 945 L 441 788 L 422 769" />
<glyph unicode="&#xfa;" glyph-name="uacute" horiz-adv-x="750" d="M 41 561 L 142 561 L 154 539 L 154 161 L 176 97.7 L 214 47.2 L 255 12.6 L 302 -9.45 L 359 -22.1 L 425 -22.1 L 504 -3.15 L 554 31.5 L 595 85.1 L 614 123 L 624 176 L 624 536 L 643 554 L 747 554 M 750 605 L 447 605 M 444 561 L 542 561 L 567 545 L 567 158 L 548 117 L 513 72.4 L 472 40.9 L 419 25.2 L 365 25.2 L 315 44.1 L 287 69.3 L 268 110 M 224 117 L 205 158 L 208 214 L 208 551 M 37.8 602 L 391 602 M 391 554 L 280 554 L 265 542 L 265 236 M 466 813 L 561 888 L 598 923 L 598 945 L 564 980 L 532 976 L 403 819 L 422 800" />
<glyph unicode="&#xfb;" glyph-name="ucircumflex" horiz-adv-x="750" d="M 41 561 L 142 561 L 154 539 L 154 161 L 176 97.7 L 214 47.2 L 255 12.6 L 302 -9.45 L 359 -22.1 L 425 -22.1 L 504 -3.15 L 554 31.5 L 595 85.1 L 614 123 L 624 176 L 624 536 L 643 554 L 747 554 M 750 605 L 447 605 M 444 561 L 542 561 L 567 545 L 567 158 L 548 117 L 513 72.4 L 472 40.9 L 419 25.2 L 365 25.2 L 315 44.1 L 287 69.3 L 268 110 M 224 117 L 205 158 L 208 214 L 208 551 M 37.8 602 L 391 602 M 391 554 L 280 554 L 265 542 L 265 236 M 382 830 L 284 726 L 257 756 L 382 875 L 516 756 L 490 724 L 408 813" />
<glyph unicode="&#xfc;" glyph-name="udieresis" horiz-adv-x="750" d="M 41 561 L 142 561 L 154 539 L 154 161 L 176 97.7 L 214 47.2 L 255 12.6 L 302 -9.45 L 359 -22.1 L 425 -22.1 L 504 -3.15 L 554 31.5 L 595 85.1 L 614 123 L 624 176 L 624 536 L 643 554 L 747 554 M 750 605 L 447 605 M 444 561 L 542 561 L 567 545 L 567 158 L 548 117 L 513 72.4 L 472 40.9 L 419 25.2 L 365 25.2 L 315 44.1 L 287 69.3 L 268 110 M 224 117 L 205 158 L 208 214 L 208 551 M 37.8 602 L 391 602 M 391 554 L 280 554 L 265 542 L 265 236 M 268 882 L 217 860 L 208 806 L 233 762 L 274 747 L 318 769 L 340 816 L 321 866 L 268 882 M 271 841 L 255 819 L 274 806 L 283 822 L 271 841 M 520 882 L 470 860 L 460 806 L 485 762 L 526 747 L 570 769 L 592 816 L 574 866 L 520 882 M 523 841 L 507 819 L 526 806 L 536 822 L 523 841" />
<glyph unicode="&#xfd;" glyph-name="yacute" horiz-adv-x="712" d="M 167 -3.15 L 573 -3.15 M 573 37.8 L 435 37.8 L 422 50.4 L 422 205 L 598 545 L 621 558 L 709 558 M 702 605 L 400 605 M 400 558 L 513 558 L 532 539 L 391 261 M 356 340 L 243 561 L 321 561 M 324 608 L 15.8 608 M 15.8 561 L 123 561 L 135 536 L 318 186 L 318 53.6 L 302 37.8 L 164 37.8 M 369 44.1 L 369 192 L 198 536 M 447 813 L 542 888 L 580 923 L 580 945 L 545 980 L 513 976 L 384 819 L 403 800" />
<glyph unicode="&#xff;" glyph-name="ydieresis" horiz-adv-x="712" d="M 167 -3.15 L 573 -3.15 M 573 37.8 L 435 37.8 L 422 50.4 L 422 205 L 598 545 L 621 558 L 709 558 M 702 605 L 400 605 M 400 558 L 513 558 L 532 539 L 391 261 M 356 340 L 243 561 L 321 561 M 324 608 L 15.8 608 M 15.8 561 L 123 561 L 135 536 L 318 186 L 318 53.6 L 302 37.8 L 164 37.8 M 369 44.1 L 369 192 L 198 536 M 248 882 L 198 860 L 188 806 L 213 762 L 254 747 L 298 769 L 320 816 L 302 866 L 248 882 M 251 841 L 235 819 L 254 806 L 264 822 L 251 841 M 502 882 L 451 860 L 442 806 L 467 762 L 508 747 L 552 769 L 574 816 L 555 866 L 502 882 M 505 841 L 489 819 L 508 806 L 517 822 L 505 841" />
<glyph unicode="&#x2013;" glyph-name="endash" horiz-adv-x="576" d="M 543 296 L 543 318 L 42.5 318 M 47.2 287 L 47.2 261 L 543 261" />
<glyph unicode="&#x2014;" glyph-name="emdash" horiz-adv-x="769" d="M 724 296 L 724 318 L 56.7 318 M 63 287 L 63 261 L 724 261" />
<glyph unicode="&#x201c;" glyph-name="quotedblleft" horiz-adv-x="534" d="M 172 646 L 129 714 L 112 746 L 112 765 L 128 797 L 142 794 L 200 652 L 191 635 M 313 646 L 271 714 L 254 746 L 254 765 L 269 797 L 284 794 L 342 652 L 333 635" />
<glyph unicode="&#x201d;" glyph-name="quotedblright" horiz-adv-x="534" d="M 169 646 L 211 714 L 228 746 L 228 765 L 213 797 L 198 794 L 140 652 L 149 635 M 310 646 L 353 714 L 370 746 L 370 765 L 354 797 L 340 794 L 282 652 L 291 635" />
<glyph unicode="&#x2039;" glyph-name="guilsinglleft" horiz-adv-x="217" d="M 154 459 L 12.6 239 L 169 -10.1 L 190 32.8 L 60.5 214 M 44.1 239 L 192 438 L 170 484" />
<glyph unicode="&#x203a;" glyph-name="guilsinglright" horiz-adv-x="214" d="M 49.1 486 L 27.7 446 L 174 242 M 156 214 L 29 37.8 L 49.1 -15.1 L 205 239 L 64.3 466" />
<glyph unicode="&#x20ac;" glyph-name="Euro" horiz-adv-x="639" d="M 510 391 L 495 482 L 441 548 L 356 570 L 255 551 L 186 485 L 148 365 L 161 214 L 192 132 L 271 50.4 L 387 34.6 L 479 66.2 L 520 101 L 548 142 M 158 101 L 120 161 L 101 220 L 94.5 324 L 107 394 L 129 466 M 598 132 L 558 56.7 L 472 -6.3 L 375 -25.2 L 280 -22.1 L 170 18.9 L 81.9 117 L 41 220 L 41 384 L 97.6 517 L 198 589 L 312 627 L 369 624 L 441 605 M 498 665 L 504 564 M 542 662 L 561 394 M 362 233 L 362 255 L 28.4 255 M 31.5 224 L 31.5 198 L 362 198 M 362 359 L 362 381 L 28.4 381 M 31.5 350 L 31.5 324 L 362 324" />
<glyph unicode="&#x0178;" glyph-name="Ydieresis" horiz-adv-x="699" d="M 154 -6.3 L 561 -6.3 M 561 37.8 L 422 37.8 L 410 50.4 L 410 205 L 586 545 L 608 558 L 696 558 M 693 605 L 387 605 M 387 558 L 501 558 L 520 539 L 378 261 M 343 340 L 230 561 L 309 561 M 312 608 L 6.3 608 M 6.3 561 L 110 561 L 126 536 L 306 186 L 306 53.6 L 290 37.8 L 151 37.8 M 359 44.1 L 359 192 L 189 536 M 280 945 L 229 923 L 220 869 L 245 825 L 286 810 L 330 832 L 352 879 L 333 929 L 280 945 M 283 904 L 267 882 L 286 869 L 296 885 L 283 904 M 520 945 L 470 923 L 460 869 L 486 825 L 527 810 L 571 832 L 593 879 L 574 929 L 520 945 M 523 904 L 508 882 L 527 869 L 536 885 L 523 904" />
<glyph unicode="&#x102;" glyph-name="Abreve" horiz-adv-x="721" d="M 3.15 3.15 L 12.6 3.15 L 302 3.15 M 400 3.15 L 718 3.15 M 718 40.9 L 627 40.9 L 419 551 L 419 617 M 375 614 L 340 614 L 107 53.6 L 101 44.1 L 6.3 44.1 M 299 37.8 L 183 40.9 L 170 59.9 L 208 161 L 460 161 M 472 117 L 513 44.1 L 397 44.1 M 551 63 L 378 520 M 343 498 L 340 469 L 438 205 L 230 205 L 302 384 M409.909 825.41C388.162 834.444 366.732 868.401 366.732 868.401L344.302 850.143C344.302 850.143 360.366 797.081 427.252 796.579C494.138 796.077 516.798 850.143 516.798 850.143L490.808 868.009C490.808 868.009 472.86 837.119 447.662 832.298" />
<glyph unicode="&#x114;" glyph-name="Ebreve" horiz-adv-x="674" d="M 34.6 6.3 L 598 6.3 L 598 -91.4 M 646 -91.4 L 646 195 M 608 135 L 602 81.9 L 576 59.9 L 252 59.9 L 268 75.6 L 268 249 M 268 280 L 337 280 L 375 268 L 387 233 L 387 154 L 425 154 L 425 463 M 387 419 L 387 369 L 375 343 L 353 331 L 271 331 L 271 485 M 246 554 L 498 554 L 526 532 L 542 495 L 545 406 M 586 413 L 567 674 M 539 602 L 31.5 602 M 28.4 561 L 129 561 L 151 551 L 164 529 L 164 66.2 L 148 37.8 L 25.2 37.8 M 214 69.3 L 214 532 M334.909 825.41C313.162 834.444 291.732 868.401 291.732 868.401L269.302 850.143C269.302 850.143 285.366 797.081 352.252 796.579C419.138 796.077 441.798 850.143 441.798 850.143L415.808 868.009C415.808 868.009 397.86 837.119 372.662 832.298" />
<glyph unicode="&#x11E;" glyph-name="Gbreve" horiz-adv-x="721" d="M 315 246 L 495 246 L 513 230 L 513 117 L 476 69.3 L 416 31.5 L 315 28.4 L 214 81.9 L 167 173 L 145 293 L 154 400 L 198 510 L 271 567 L 343 576 L 410 567 L 457 532 L 491 485 L 507 441 L 507 387 M 564 387 L 542 671 M 501 668 L 507 564 M 435 602 L 362 627 L 233 608 L 139 554 L 69.3 466 L 34.6 359 L 34.6 249 L 75.6 120 L 151 34.6 L 246 -9.45 L 381 -28.4 L 479 6.3 L 529 47.2 M 132 476 L 97.6 378 L 88.2 284 L 110 173 L 148 113 M 561 239 L 561 97.7 M 580 28.4 L 580 -59.9 M 614 -63 L 614 233 L 633 249 L 712 249 M 715 290 L 321 290 M409.909 825.41C388.162 834.444 366.732 868.401 366.732 868.401L344.302 850.143C344.302 850.143 360.366 797.081 427.252 796.579C494.138 796.077 516.798 850.143 516.798 850.143L490.808 868.009C490.808 868.009 472.86 837.119 447.662 832.298" />
<glyph unicode="&#x12C;" glyph-name="Ibreve" horiz-adv-x="413" d="M 31.5 -6.3 L 403 -6.3 M 400 37.8 L 290 37.8 L 271 56.7 L 271 536 L 296 561 L 406 561 M 406 602 L 25.2 602 M 25.2 564 L 145 564 L 164 545 L 164 59.9 L 142 37.8 L 31.5 37.8 M 217 47.2 L 217 558 M211.909 825.41C190.162 834.444 168.732 868.401 168.732 868.401L146.302 850.143C146.302 850.143 162.366 797.081 229.252 796.579C296.138 796.077 318.798 850.143 318.798 850.143L292.808 868.009C292.808 868.009 274.86 837.119 249.662 832.298" />
<glyph unicode="&#x14E;" glyph-name="Obreve" horiz-adv-x="649" d="M 56.7 422 L 41 309 L 47.2 220 L 97.6 81.9 L 180 9.45 L 309 -34.6 L 422 -15.8 L 532 50.4 L 602 161 L 624 274 L 611 413 L 551 523 L 435 605 L 302 624 L 208 598 L 148 558 M 183 504 L 151 438 L 145 343 L 158 217 L 189 117 L 252 47.2 L 359 28.4 L 454 75.6 L 495 161 L 507 287 L 495 397 L 460 491 L 403 554 L 337 570 M 110 454 L 97.6 350 L 94.5 261 L 110 192 L 126 142 L 154 94.5 M 542 158 L 561 243 L 561 343 L 539 441 L 504 507 M326.909 825.41C305.162 834.444 283.732 868.401 283.732 868.401L261.302 850.143C261.302 850.143 277.366 797.081 344.252 796.579C411.138 796.077 433.798 850.143 433.798 850.143L407.808 868.009C407.808 868.009 389.86 837.119 364.662 832.298" />
<glyph unicode="&#x16C;" glyph-name="Ubreve" horiz-adv-x="747" d="M 22 561 L 123 561 L 135 539 L 135 161 L 158 97.7 L 195 47.2 L 236 12.6 L 284 -9.45 L 340 -22.1 L 406 -22.1 L 485 -3.15 L 536 31.5 L 576 85.1 L 595 123 L 605 176 L 605 536 L 624 554 L 728 554 M 731 605 L 428 605 M 425 561 L 523 561 L 548 545 L 548 158 L 529 117 L 498 72.4 L 454 40.9 L 400 25.2 L 346 25.2 L 296 44.1 L 268 69.3 L 249 110 M 205 117 L 186 158 L 189 214 L 189 551 M 18.9 602 L 372 602 M 372 554 L 261 554 L 246 542 L 246 236 M357.909 825.41C336.162 834.444 314.732 868.401 314.732 868.401L292.302 850.143C292.302 850.143 308.366 797.081 375.252 796.579C442.138 796.077 464.798 850.143 464.798 850.143L438.808 868.009C438.808 868.009 420.86 837.119 395.662 832.298" />
<glyph unicode="&#x103;" glyph-name="abreve" horiz-adv-x="724" d="M 3.15 3.15 L 12.6 3.15 L 302 3.15 M 400 3.15 L 718 3.15 M 718 40.9 L 627 40.9 L 419 551 L 419 617 M 375 614 L 340 614 L 107 53.6 L 101 44.1 L 6.3 44.1 M 299 37.8 L 183 40.9 L 170 59.9 L 208 161 L 460 161 M 472 117 L 513 44.1 L 397 44.1 M 551 63 L 378 520 M 343 501 L 340 469 L 438 205 L 233 205 L 302 384 M350.909 805.41C329.162 814.444 307.732 848.401 307.732 848.401L285.302 830.143C285.302 830.143 301.366 777.081 368.252 776.579C435.138 776.077 457.798 830.143 457.798 830.143L431.808 848.009C431.808 848.009 413.86 817.119 388.662 812.298" />
<glyph unicode="&#x115;" glyph-name="ebreve" horiz-adv-x="671" d="M 34.6 6.3 L 595 6.3 L 595 -88.2 M 646 -88.2 L 646 195 M 608 135 L 602 81.9 L 576 59.9 L 252 59.9 L 268 75.6 L 268 249 M 268 280 L 337 280 L 375 268 L 387 233 L 387 154 L 425 154 L 425 463 M 387 419 L 387 369 L 375 343 L 353 331 L 271 331 L 271 485 M 246 554 L 498 554 L 526 532 L 542 495 L 545 406 M 539 602 L 28.4 602 M 25.2 561 L 126 561 L 151 551 L 164 529 L 164 69.3 L 145 37.8 L 25.2 37.8 M 214 69.3 L 214 532 M 586 416 L 564 677 M273.909 805.41C252.162 814.444 230.732 848.401 230.732 848.401L208.302 830.143C208.302 830.143 224.366 777.081 291.252 776.579C358.138 776.077 380.798 830.143 380.798 830.143L354.808 848.009C354.808 848.009 336.86 817.119 311.662 812.298" />
<glyph unicode="&#x11F;" glyph-name="gbreve" horiz-adv-x="709" d="M 302 246 L 482 246 L 501 230 L 501 117 L 463 69.3 L 403 31.5 L 302 28.4 L 202 81.9 L 154 173 L 129 293 L 142 400 L 186 510 L 258 567 L 328 576 L 397 567 L 444 532 L 479 485 L 495 441 L 495 387 M 551 387 L 526 671 M 485 668 L 491 564 M 422 602 L 346 627 L 220 608 L 126 554 L 53.5 466 L 22 359 L 22 249 L 63 120 L 139 34.6 L 233 -9.45 L 365 -28.4 L 466 6.3 L 517 47.2 M 120 476 L 85 378 L 75.6 287 L 97.6 173 L 135 113 M 548 239 L 548 97.7 M 564 28.4 L 564 -59.9 M 602 -63 L 602 233 L 617 249 L 699 249 M 702 290 L 306 290 M345.909 805.41C324.162 814.444 302.732 848.401 302.732 848.401L280.302 830.143C280.302 830.143 296.366 777.081 363.252 776.579C430.138 776.077 452.798 830.143 452.798 830.143L426.808 848.009C426.808 848.009 408.86 817.119 383.662 812.298" />
<glyph unicode="&#x12D;" glyph-name="ibreve" horiz-adv-x="416" d="M 22 -6.3 L 394 -6.3 M 391 37.8 L 280 37.8 L 261 56.7 L 261 536 L 287 561 L 397 561 M 397 602 L 15.8 602 M 15.8 564 L 135 564 L 154 545 L 154 59.9 L 132 37.8 L 22 37.8 M 208 47.2 L 208 558 M252.909 805.41C231.162 814.444 209.732 848.401 209.732 848.401L187.302 830.143C187.302 830.143 203.366 777.081 270.252 776.579C337.138 776.077 359.798 830.143 359.798 830.143L333.808 848.009C333.808 848.009 315.86 817.119 290.662 812.298" />
<glyph unicode="&#x14F;" glyph-name="obreve" horiz-adv-x="652" d="M 53.5 422 L 37.8 309 L 44.1 220 L 94.5 85.1 L 173 9.45 L 306 -34.6 L 416 -15.8 L 529 50.4 L 595 161 L 621 274 L 608 413 L 548 523 L 432 605 L 299 624 L 202 598 L 145 558 M 180 507 L 145 438 L 139 343 L 151 220 L 186 117 L 249 47.2 L 356 28.4 L 450 75.6 L 491 161 L 501 287 L 491 397 L 457 491 L 400 554 L 331 570 M 107 454 L 91.4 350 L 91.4 261 L 107 192 L 123 142 L 148 94.5 M 536 158 L 558 243 L 558 343 L 536 441 L 501 507 M327.909 805.41C306.162 814.444 284.732 848.401 284.732 848.401L262.302 830.143C262.302 830.143 278.366 777.081 345.252 776.579C412.138 776.077 434.798 830.143 434.798 830.143L408.808 848.009C408.808 848.009 390.86 817.119 365.662 812.298" />
<glyph unicode="&#x16D;" glyph-name="ubreve" horiz-adv-x="750" d="M 41 561 L 142 561 L 154 539 L 154 161 L 176 97.7 L 214 47.2 L 255 12.6 L 302 -9.45 L 359 -22.1 L 425 -22.1 L 504 -3.15 L 554 31.5 L 595 85.1 L 614 123 L 624 176 L 624 536 L 643 554 L 747 554 M 750 605 L 447 605 M 444 561 L 542 561 L 567 545 L 567 158 L 548 117 L 513 72.4 L 472 40.9 L 419 25.2 L 365 25.2 L 315 44.1 L 287 69.3 L 268 110 M 224 117 L 205 158 L 208 214 L 208 551 M 37.8 602 L 391 602 M 391 554 L 280 554 L 265 542 L 265 236 M358.909 805.41C337.162 814.444 315.732 848.401 315.732 848.401L293.302 830.143C293.302 830.143 309.366 777.081 376.252 776.579C443.138 776.077 465.798 830.143 465.798 830.143L439.808 848.009C439.808 848.009 421.86 817.119 396.662 812.298" />
<glyph unicode="&#xc7;" glyph-name="Ccedilla" horiz-adv-x="639" d="M331.555 -36.6981L331.555 -86.401C453.762 -86.401 343.741 -174.102 277.733 -174.102M375 -33.2L375 -62.9029C497.207 -62.9029 363.216 -195.075 297.208 -195.075M510 391L495 482L441 548L356 570L255 551L186 485L148 365L161 214L192 132L271 50.4L387 34.6L479 66.2L520 101L548 142M158 101L120 161L101 220L94.5 324L107 394L129 466M598 132L558 56.7L472 -6.3L375 -25.2L280 -22.1L170 18.9L81.9 117L41 220L41 384L97.6 517L198 589L312 627L369 624L441 605M498 665L504 564M542 662L561 394" />
<glyph unicode="&#x2D8;" glyph-name="breve" horiz-adv-x="526" d="M234.848 509.017C198.604 524.073 162.886 580.668 162.886 580.668L125.504 550.238C125.504 550.238 152.277 461.802 263.753 460.965C375.23 460.128 412.996 550.238 412.996 550.238L369.681 580.014C369.681 580.014 339.767 528.531 297.771 520.497" />
<glyph unicode="&#xa3;" glyph-name="sterling" horiz-adv-x="639" d="M408 296L408 318L74.4 318M77.5 287L77.5 261L408 261M48 -6.3L540 -6.3L540 -81.9M588 -81.9L588 198M556 139L556 94.5L522 59.9L222 59.9M194 523L194 81.9M251 104L251 536L273 558L367 558L393.098 531.902L393.098 481.015M48 40.9L125 40.9L144 56.7L144 579L168.768 602L410 602L453.863 558.137L453.863 453.019" />
<glyph unicode="&#x130;" glyph-name="Idotaccent" horiz-adv-x="413" d="M215 831L199 809L218 796L227 812L215 831M212 872L161 850L152 796L177 752L218 737L262 759L284 806L265 856L212 872M31.5 -6.3L403 -6.3M400 37.8L290 37.8L271 56.7L271 536L296 561L406 561M406 602L25.2 602M25.2 564L145 564L164 545L164 59.9L142 37.8L31.5 37.8M217 47.2L217 558" />
<glyph unicode="&#xE6;" glyph-name="ae" horiz-adv-x="1170.0" d="M3.15 3.15L12.6 3.15L302 3.15M375 614L340 614L107 53.6L101 44.1L6.3 44.1M299 37.8L183 40.9C169.282 48.1763 171.727 45.1041 170 59.9L208 161L460 161M472 117L513 44.1L397 44.1M551 63L378 520M343 498C339.971 477.49 338.588 472.803 345.265 454.816L438 205L230 205L302 384M528.4 559L629 559C663.967 556.103 663.818 548.347 664 527L664 64.2C662.655 43.1577 664.328 48.2538 648 35.8M419 617L419 574.853C419 550.519 419.892 543.747 431.446 520.476L627 40.9L648 35.8M394.6 4.29999L1098 4.29999L1098 -93.4M714 67.3L714 530M1039 600L531.5 600M1086 411L1067 672M746 552L998 552C1027.74 552 1041.04 521.341 1042 493L1045 404M887 417L887 367C889.45 347.159 870.783 329.228 853 329L771 329L771 483M768 278L837 278C873.909 278.122 882.95 263.268 887 231L887 152L925 152L925 461M1108 133C1108.02 94.8287 1111.58 57.9 1076 57.9L752 57.9L768 73.6L768 247M1146 -93.4L1146 193" />
<glyph unicode="&#xe7;" glyph-name="ccedilla" horiz-adv-x="633" d="M331.555 -36.6981L331.555 -86.401C453.762 -86.401 343.741 -174.102 277.733 -174.102M375 -33.2L375 -62.9029C497.207 -62.9029 363.216 -195.075 297.208 -195.075M510 391L495 482L438 548L353 570L252 551L183 485L148 365L161 214L192 132L271 50.4L387 34.6L479 66.2L517 101L548 142M154 101L120 161L101 220L94.5 324L104 394L129 466M598 132L558 56.7L472 -3.15L372 -25.2L277 -22.1L170 18.9L78.8 117L37.8 220L37.8 384L94.5 520L195 589L312 627L369 624L441 605M498 665L501 564M539 662L561 394" />
<glyph unicode="&#x131;" glyph-name="dotlessi" horiz-adv-x="416" d="M22 -6.3L394 -6.3M391 37.8L280 37.8L261 56.7L261 536L287 561L397 561M397 602L15.8 602M15.8 564L135 564L154 545L154 59.9L132 37.8L22 37.8M208 47.2L208 558" />
<glyph unicode="&#x15E;" glyph-name="Scedilla" horiz-adv-x="564" d="M263.555 -38.6981L263.555 -88.401C385.762 -88.401 275.741 -176.102 209.733 -176.102M307 -35.2L307 -64.9029C429.207 -64.9029 295.216 -197.075 229.208 -197.075M75.6 -40.9L75.6 53.6M31.5 -44.1L31.5 243M78.8 243L78.8 180L97.6 126L135 88.2L205 50.4L309 37.8L387 66.2L422 104L422 145L410 183L365 211L243 268L139 328L75.6 397L53.5 457L66.1 513L123 576L180 598L268 611L312 611L365 595M428 643L428 554M476 643L482 394M435 397L435 457L410 501L375 539L331 554L277 564L227 558L170 532L151 488L183 432L227 400L381 321L438 293L501 236L532 164L513 85.1L469 40.9L410 9.45L334 -9.45L230 -9.45L142 15.8M463 101L479 142L472 183L441 220L391 255L220 343L167 375L129 416L110 460L113 476" />
<glyph unicode="&#xdf;" glyph-name="germandbls" horiz-adv-x="696" d="M371.5 -0L463 -0L542 18.9L608 50.4L662 97.7L677 154L674 211L646 271L589 306L532 324M438 346L517 372L573 416L589 476L576 513L536 554L472 580L403 595L290 598L34.6 598M28.4 561L117 561L142 561L164 542L164 56.7L154 40.9L28.4 40.9M217 99.9L217 548M507 510L523 472L520 438L501 419M583 255L611 217L617 180L614 142L589 94.5M372 44.1L454 44.1L517 81.9L554 126L564 183L545 236L504 277L450 299C422.534 303.041 415.91 315 388 315L388 359C413.657 368.984 417.051 383.589 441 397L466 435L466 479L422 529L362 545L249 554M271 483.846L271 1L29.864 1" />
<glyph unicode="&#x15F;" glyph-name="scedilla" horiz-adv-x="576" d="M274.932 -36.6981L274.932 -86.401C397.138 -86.401 287.117 -174.102 221.11 -174.102M318.377 -33.2L318.377 -62.9029C440.584 -62.9029 306.593 -195.075 240.585 -195.075M88.2 -40.9L88.2 53.6M44.1 -44.1L44.1 243M91.4 243L91.4 180L110 126L148 88.2L214 50.4L318 37.8L397 66.2L432 104L435 145L422 183L378 211L255 268L151 328L88.2 397L66.1 457L78.8 513L135 576L192 598L277 611L324 611L378 595M441 643L441 554M488 643L495 394M444 397L444 460L422 501L387 539L343 554L290 564L239 558L183 532L164 491L192 432L239 400L391 324L450 293L513 236L542 164L526 85.1L479 40.9L422 9.45L346 -9.45L243 -9.45L151 15.8M476 101L491 142L485 183L454 220L403 255L230 343L180 375L142 416L123 460L126 476" />
<glyph unicode="&#xb8;" glyph-name="cedilla" horiz-adv-x="639" d="M375 -33.2L375 -62.9029C497.207 -62.9029 363.216 -195.075 297.208 -195.075" />
<glyph unicode="&#xb8;" glyph-name="cedilla" horiz-adv-x="639" d="M331.555 -36.6981L331.555 -86.401C453.762 -86.401 343.741 -174.102 277.733 -174.102" />
<glyph unicode="&#xC6;" glyph-name="AE" horiz-adv-x="1170.0" d="M3.15 3.15L12.6 3.15L302 3.15M375 614L340 614L107 53.6L101 44.1L6.3 44.1M299 37.8L183 40.9C169.282 48.1763 171.727 45.1041 170 59.9L208 161L460 161M472 117L513 44.1L397 44.1M551 63L378 520M343 498C339.971 477.49 338.588 472.803 345.265 454.816L438 205L230 205L302 384M528.4 559L629 559C663.967 556.103 663.818 548.347 664 527L664 64.2C662.655 43.1577 664.328 48.2538 648 35.8M419 617L419 574.853C419 550.519 419.892 543.747 431.446 520.476L627 40.9L648 35.8M394.6 4.29999L1098 4.29999L1098 -93.4M714 67.3L714 530M1039 600L531.5 600M1086 411L1067 672M746 552L998 552C1027.74 552 1041.04 521.341 1042 493L1045 404M887 417L887 367C889.45 347.159 870.783 329.228 853 329L771 329L771 483M768 278L837 278C873.909 278.122 882.95 263.268 887 231L887 152L925 152L925 461M1108 133C1108.02 94.8287 1111.58 57.9 1076 57.9L752 57.9L768 73.6L768 247M1146 -93.4L1146 193" />
</font>
</defs>
</svg>
