<?xml version="1.0" encoding="UTF-8" ?>
<!DOCTYPE svg PUBLIC "-//W3C//DTD SVG 1.1//EN" "http://www.w3.org/Graphics/SVG/1.1/DTD/svg11.dtd" >

<svg xmlns="http://www.w3.org/2000/svg" xmlns:xlink="http://www.w3.org/1999/xlink" version="1.1">

<metadata>
Font name:               EMS Nixish
License:                 SIL Open Font License http://scripts.sil.org/OFL
Created by:              Sheldon B. Michaels
SVG font conversion by:  Windell H. Oskay
A derivative of:         Nixie One
Designer:                Jovanny Lemonad
Link:                    http://jovanny.ru
Google font page:        https://fonts.google.com/specimen/Nixie+One
</metadata>
<defs>
<font id="EMSNixish" horiz-adv-x="378" >
<font-face
font-family="EMS Nixish"
units-per-em="1000"
ascent="800"
descent="-200"
cap-height="500"
x-height="300"
/>
<missing-glyph horiz-adv-x="378" />
<glyph unicode=" " glyph-name="space" horiz-adv-x="378" />
<glyph unicode="!" glyph-name="exclam" horiz-adv-x="290" d="M 171 690 L 171 202 M 175 94.5 L 149 78.8 L 137 47.2 L 152 28.4 L 171 22 L 193 25.2 L 209 47.2 L 209 75.6 L 197 88.2 L 175 94.5" />
<glyph unicode="&#x22;" glyph-name="quotedbl" horiz-adv-x="337" d="M 78.8 693 L 78.8 495 M 208 690 L 208 495" />
<glyph unicode="#" glyph-name="numbersign" horiz-adv-x="762" d="M 145 34.6 L 306 687 M 570 693 L 410 34.6 M 614 220 L 34.6 220 M 101 498 L 687 498" />
<glyph unicode="$" glyph-name="dollar" horiz-adv-x="636" d="M 63 34.6 L 63 224 L 63 135 L 113 97.6 L 170 59.9 L 239 31.5 L 312 25.2 L 391 31.5 L 454 53.6 L 510 97.6 L 532 148 L 542 198 L 539 239 L 504 287 L 432 328 L 359 350 L 290 369 L 224 387 L 164 410 L 113 438 L 75.6 488 L 63 539 L 75.6 602 L 123 662 L 189 690 L 249 696 L 334 693 L 397 671 L 447 643 L 488 611 L 517 583 L 517 495 L 517 690 M 290 765 L 290 -41" />
<glyph unicode="%" glyph-name="percent" horiz-adv-x="794" d="M 183 394 L 220 394 L 265 419 L 296 444 L 318 476 L 331 513 L 334 558 L 328 595 L 306 636 L 271 671 L 227 693 L 186 696 L 132 687 L 78.8 655 L 50.4 605 L 41 551 L 41 501 L 69.3 454 L 107 413 L 142 400 L 183 394 M 551 22 L 589 22 L 633 47.2 L 665 72.4 L 687 104 L 699 142 L 702 186 L 696 224 L 674 265 L 639 296 L 595 318 L 554 324 L 501 315 L 447 284 L 419 233 L 410 180 L 410 129 L 438 81.9 L 476 40.9 L 510 28.4 L 551 22 M 151 34.6 L 580 690" />
<glyph unicode="&amp;" glyph-name="ampersand" horiz-adv-x="706" d="M 479 611 L 428 655 L 372 693 L 331 696 L 284 696 L 224 680 L 176 639 L 158 586 L 161 523 L 195 463 L 576 31.5 L 646 31.5 M 268 375 L 198 359 L 123 328 L 63 261 L 44.1 205 L 53.5 139 L 81.9 75.6 L 145 25.2 L 227 9.45 L 309 25.2 L 384 69.3 L 441 120 L 488 189 L 595 346" />
<glyph unicode="&apos;" glyph-name="quotesingle" horiz-adv-x="208" d="M 78.8 690 L 78.8 482" />
<glyph unicode="(" glyph-name="parenleft" horiz-adv-x="296" d="M 198 -120 L 142 -34.6 L 101 63 L 75.6 170 L 72.5 315 L 78.8 454 L 107 583 L 142 680 L 198 765" />
<glyph unicode=")" glyph-name="parenright" horiz-adv-x="293" d="M 50.4 -123 L 107 -34.6 L 148 59.9 L 173 167 L 176 312 L 170 454 L 142 583 L 107 677 L 50.4 762" />
<glyph unicode="*" glyph-name="asterisk" horiz-adv-x="466" d="M 208 397 L 208 690 M 69.3 624 L 350 463 M 66.1 463 L 343 624" />
<glyph unicode="+" glyph-name="plus" horiz-adv-x="510" d="M 224 132 L 224 517 M 34.6 331 L 419 331" />
<glyph unicode="," glyph-name="comma" horiz-adv-x="261" d="M 129 25.2 L 110 22 L 91.4 28.4 L 75.6 47.2 L 85 78.8 L 113 94.5 L 135 88.2 L 145 75.6 L 145 47.2 L 145 9.45 L 142 -25.2 L 129 -47.2 L 113 -69.3 L 81.9 -91.4" />
<glyph unicode="-" glyph-name="hyphen" horiz-adv-x="583" d="M 75.6 331 L 463 331" />
<glyph unicode="." glyph-name="period" horiz-adv-x="261" d="M 104 94.5 L 78.8 78.8 L 69.3 47.2 L 81.9 28.4 L 104 22 L 123 25.2 L 139 47.2 L 139 75.6 L 126 88.2 L 104 94.5" />
<glyph unicode="/" glyph-name="slash" horiz-adv-x="529" d="M 28.4 34.6 L 454 690" />
<glyph unicode="0" glyph-name="zero" horiz-adv-x="662" d="M 306 25.2 L 365 31.5 L 438 69.3 L 488 123 L 526 195 L 548 255 L 551 321 L 551 391 L 548 454 L 545 498 L 517 561 L 469 621 L 406 671 L 343 696 L 290 696 L 211 677 L 145 627 L 101 558 L 69.3 485 L 63 403 L 63 309 L 75.6 236 L 91.4 176 L 129 113 L 173 69.3 L 236 31.5 L 306 25.2" />
<glyph unicode="1" glyph-name="one" horiz-adv-x="365" d="M 78.8 31.5 L 284 31.5 L 180 31.5 L 180 693 L 31.5 567" />
<glyph unicode="2" glyph-name="two" horiz-adv-x="605" d="M 53.5 602 L 101 646 L 164 677 L 230 696 L 299 696 L 362 687 L 416 662 L 463 621 L 495 548 L 491 495 L 469 444 L 406 378 L 318 324 L 227 277 L 154 230 L 107 192 L 69.3 135 L 59.9 97.6 L 59.9 31.5 L 491 31.5 L 491 173" />
<glyph unicode="3" glyph-name="three" horiz-adv-x="608" d="M 56.7 120 L 107 75.6 L 170 40.9 L 239 25.2 L 293 25.2 L 359 34.6 L 425 63 L 466 104 L 491 158 L 498 227 L 482 290 L 435 340 L 381 362 L 312 375 L 211 375 L 334 375 L 384 391 L 432 422 L 466 469 L 479 526 L 472 576 L 441 633 L 406 668 L 346 690 L 280 693 L 214 690 L 135 662 L 69.3 614" />
<glyph unicode="4" glyph-name="four" horiz-adv-x="592" d="M 205 712 L 202 649 L 192 573 L 183 510 L 158 441 L 126 375 L 88.2 302 L 22 202 L 526 202 L 419 202 L 419 25.2 L 419 507" />
<glyph unicode="5" glyph-name="five" horiz-adv-x="583" d="M 69.3 3.15 L 139 9.45 L 227 18.9 L 312 44.1 L 391 81.9 L 447 135 L 482 192 L 485 255 L 482 309 L 457 362 L 419 400 L 359 428 L 277 444 L 183 435 L 117 410 L 72.5 381 L 72.5 687 L 457 687" />
<glyph unicode="6" glyph-name="six" horiz-adv-x="608" d="M 81.9 450 L 331 450 L 394 428 L 447 397 L 491 346 L 513 296 L 517 230 L 510 164 L 469 104 L 428 59.9 L 362 28.4 L 287 25.2 L 224 34.6 L 161 69.3 L 101 129 L 63 214 L 56.7 296 L 63 387 L 75.6 438 L 97.6 510 L 145 583 L 211 643 L 284 690 L 362 718 L 441 715" />
<glyph unicode="7" glyph-name="seven" horiz-adv-x="482" d="M 3.15 548 L 3.15 687 L 425 687 L 353 554 L 293 447 L 246 334 L 214 255 L 195 189 L 183 123 L 180 34.6" />
<glyph unicode="8" glyph-name="eight" horiz-adv-x="649" d="M 299 25.2 L 378 31.5 L 460 59.9 L 523 113 L 548 173 L 539 230 L 507 277 L 460 312 L 406 334 L 312 369 L 230 397 L 154 432 L 113 476 L 88.2 542 L 97.6 602 L 148 662 L 224 690 L 302 699 L 362 693 L 444 668 L 498 617 L 517 564 L 517 504 L 472 447 L 413 413 L 334 384 L 220 346 L 145 315 L 94.5 274 L 66.1 236 L 59.9 158 L 88.2 101 L 135 59.9 L 195 34.6 L 255 25.2 L 299 25.2" />
<glyph unicode="9" glyph-name="nine" horiz-adv-x="605" d="M 120 3.15 L 186 6.3 L 255 31.5 L 318 63 L 378 104 L 428 170 L 469 239 L 488 318 L 501 397 L 495 469 L 479 551 L 428 624 L 362 677 L 306 696 L 239 696 L 164 680 L 94.5 633 L 59.9 586 L 44.1 517 L 41 450 L 63 375 L 94.5 334 L 135 302 L 208 274 L 277 268 L 476 268" />
<glyph unicode=":" glyph-name="colon" horiz-adv-x="277" d="M 113 501 L 85 488 L 75.6 457 L 91.4 435 L 110 428 L 129 435 L 145 454 L 145 482 L 135 495 L 113 501 M 113 97.6 L 85 81.9 L 75.6 50.4 L 91.4 31.5 L 110 25.2 L 129 28.4 L 145 50.4 L 145 78.8 L 135 91.4 L 113 97.6" />
<glyph unicode=";" glyph-name="semicolon" horiz-adv-x="268" d="M 113 501 L 88.2 488 L 78.8 457 L 91.4 438 L 113 432 L 132 435 L 148 457 L 148 485 L 135 495 L 113 501 M 129 28.4 L 110 25.2 L 91.4 31.5 L 75.6 50.4 L 85 81.9 L 113 94.5 L 135 88.2 L 145 75.6 L 145 47.2 L 145 9.45 L 142 -22 L 129 -44.1 L 113 -66.1 L 81.9 -91.4" />
<glyph unicode="&#x3c;" glyph-name="less" horiz-adv-x="513" d="M 406 479 L 37.8 268 L 406 53.6" />
<glyph unicode="=" glyph-name="equal" horiz-adv-x="586" d="M 72.5 432 L 469 432 M 69.3 233 L 466 233" />
<glyph unicode="&#x3e;" glyph-name="greater" horiz-adv-x="513" d="M 56.7 44.1 L 428 258 L 56.7 476" />
<glyph unicode="?" glyph-name="question" horiz-adv-x="558" d="M 249 94.5 L 224 81.9 L 211 50.4 L 227 31.5 L 246 25.2 L 268 28.4 L 284 47.2 L 284 75.6 L 271 88.2 L 249 94.5 M 246 198 L 249 243 L 261 277 L 290 309 L 337 346 L 384 384 L 422 422 L 450 463 L 460 501 L 454 551 L 432 608 L 391 655 L 343 684 L 284 699 L 220 696 L 173 687 L 129 671 L 85 643 L 53.5 602 L 37.8 561 L 34.6 513" />
<glyph unicode="@" glyph-name="at" horiz-adv-x="926" d="M 611 485 L 611 145 L 558 81.9 L 482 34.6 L 384 25.2 L 296 69.3 L 249 129 L 227 227 L 227 340 L 280 438 L 353 491 L 425 507 L 510 482 L 564 432 L 595 394 L 614 350 L 614 101 L 643 47.2 L 699 22 L 753 34.6 L 797 88.2 L 822 142 L 835 217 L 835 331 L 819 406 L 791 488 L 740 561 L 687 611 L 624 655 L 554 684 L 498 693 L 428 699 L 353 687 L 274 662 L 192 605 L 135 545 L 88.2 463 L 66.1 381 L 53.5 293 L 63 192 L 88.2 94.5 L 129 18.9 L 180 -41 L 261 -101 L 359 -145 L 444 -148 L 539 -145 L 614 -123 L 658 -94.5 L 696 -63" />
<glyph unicode="A" glyph-name="A" horiz-adv-x="728" d="M -9.45 34.6 L 180 34.6 L 78.8 34.6 L 337 693 L 504 274 L 173 274 L 507 274 L 602 31.5 L 501 31.5 L 693 31.5" />
<glyph unicode="B" glyph-name="B" horiz-adv-x="662" d="M 31.5 690 L 365 690 L 419 674 L 463 646 L 498 598 L 504 551 L 504 501 L 488 460 L 457 425 L 425 397 L 391 381 L 356 372 L 142 372 L 362 372 L 400 372 L 457 362 L 507 334 L 539 287 L 554 233 L 554 173 L 539 123 L 507 75.6 L 466 47.2 L 419 37.8 L 387 31.5 L 47.2 31.5 L 139 31.5 L 139 687" />
<glyph unicode="C" glyph-name="C" horiz-adv-x="699" d="M 595 696 L 595 498 L 595 592 L 536 630 L 482 665 L 425 690 L 359 696 L 296 693 L 227 671 L 158 627 L 104 554 L 69.3 479 L 59.9 400 L 63 299 L 85 214 L 126 139 L 202 69.3 L 293 31.5 L 435 28.4 L 510 50.4 L 561 81.9 L 598 117" />
<glyph unicode="D" glyph-name="D" horiz-adv-x="740" d="M 37.8 34.6 L 353 34.6 L 428 53.6 L 495 88.2 L 561 154 L 605 220 L 627 296 L 627 406 L 608 488 L 561 570 L 513 627 L 438 671 L 359 693 L 37.8 693 L 139 693 L 139 37.8" />
<glyph unicode="E" glyph-name="E" horiz-adv-x="621" d="M 513 180 L 513 34.6 L 31.5 34.6 L 135 34.6 L 135 365 L 416 365 L 416 447 L 416 284 L 416 365 L 132 365 L 132 687 L 41 687 L 507 687 L 507 548" />
<glyph unicode="F" glyph-name="F" horiz-adv-x="589" d="M 37.8 31.5 L 252 31.5 L 142 31.5 L 142 365 L 428 365 L 428 284 L 428 447 L 428 369 L 142 369 L 142 690 L 44.1 690 L 501 690 L 501 548" />
<glyph unicode="G" glyph-name="G" horiz-adv-x="772" d="M 504 369 L 702 369 L 598 369 L 598 28.4 L 598 135 L 539 85.1 L 476 47.2 L 403 25.2 L 337 25.2 L 284 31.5 L 208 59.9 L 151 113 L 91.4 195 L 63 312 L 59.9 413 L 91.4 523 L 154 611 L 236 677 L 318 699 L 410 693 L 498 662 L 561 617 L 592 570 L 592 501 L 592 693" />
<glyph unicode="H" glyph-name="H" horiz-adv-x="788" d="M 41 31.5 L 236 31.5 L 145 31.5 L 145 687 L 37.8 687 L 236 687 L 145 687 L 145 365 L 589 365 L 589 690 L 498 690 L 690 690 L 592 690 L 592 31.5 L 690 31.5 L 504 31.5" />
<glyph unicode="I" glyph-name="I" horiz-adv-x="340" d="M 34.6 31.5 L 243 31.5 L 142 31.5 L 142 693 L 246 693 L 41 693" />
<glyph unicode="J" glyph-name="J" horiz-adv-x="520" d="M 18.9 110 L 63 59.9 L 120 28.4 L 173 25.2 L 230 31.5 L 287 59.9 L 324 104 L 334 154 L 340 205 L 340 687 L 236 687 L 438 687" />
<glyph unicode="K" glyph-name="K" horiz-adv-x="699" d="M 37.8 687 L 236 687 L 139 687 L 139 31.5 L 41 31.5 L 230 31.5 L 139 31.5 L 139 268 L 532 687 L 621 687 L 410 687 L 532 687 L 277 416 L 561 31.5 L 649 31.5 L 450 31.5" />
<glyph unicode="L" glyph-name="L" horiz-adv-x="586" d="M 37.8 693 L 261 693 L 142 693 L 142 34.6 L 41 34.6 L 510 34.6 L 510 173" />
<glyph unicode="M" glyph-name="M" horiz-adv-x="976" d="M 37.8 31.5 L 233 31.5 L 142 31.5 L 142 687 L 41 687 L 164 687 L 460 37.8 L 762 690 L 879 690 L 775 690 L 775 31.5 L 690 31.5 L 879 31.5" />
<glyph unicode="N" glyph-name="N" horiz-adv-x="794" d="M 41 34.6 L 230 34.6 L 142 34.6 L 142 687 L 37.8 687 L 154 687 L 583 31.5 L 699 31.5 L 598 31.5 L 598 690 L 510 690 L 699 690" />
<glyph unicode="O" glyph-name="O" horiz-adv-x="784" d="M 372 25.2 L 432 25.2 L 529 63 L 592 120 L 646 192 L 674 274 L 684 375 L 662 488 L 627 561 L 580 621 L 510 665 L 444 687 L 372 696 L 287 687 L 198 652 L 139 598 L 85 517 L 59.9 438 L 53.5 356 L 63 271 L 85 202 L 120 148 L 170 91.4 L 230 53.6 L 306 31.5 L 372 25.2" />
<glyph unicode="P" glyph-name="P" horiz-adv-x="649" d="M 41 31.5 L 255 31.5 L 145 31.5 L 145 687 L 44.1 687 L 394 687 L 444 677 L 495 649 L 532 611 L 554 554 L 554 482 L 542 403 L 507 346 L 454 315 L 391 306 L 148 306" />
<glyph unicode="Q" glyph-name="Q" horiz-adv-x="794" d="M 287 34.6 L 211 59.9 L 139 120 L 81.9 208 L 63 293 L 53.5 384 L 78.8 507 L 129 595 L 217 668 L 318 696 L 419 696 L 513 668 L 573 624 L 624 570 L 662 488 L 677 406 L 680 309 L 658 224 L 614 145 L 554 81.9 L 488 44.1 L 419 28.4 L 346 25.2 L 296 34.6 L 287 47.2 L 315 104 L 372 126 L 413 113 L 438 78.8 L 454 9.45 L 476 -31.5 L 513 -56.7 L 558 -50.4 L 592 -31.5" />
<glyph unicode="R" glyph-name="R" horiz-adv-x="696" d="M 47.2 34.6 L 246 34.6 L 145 34.6 L 145 687 L 47.2 687 L 397 687 L 457 674 L 504 649 L 545 598 L 558 542 L 554 491 L 539 428 L 510 394 L 469 362 L 416 350 L 145 350 L 324 350 L 554 31.5 L 444 31.5 L 636 31.5" />
<glyph unicode="S" glyph-name="S" horiz-adv-x="665" d="M 78.8 31.5 L 78.8 224 L 78.8 129 L 120 97.6 L 192 53.6 L 277 28.4 L 375 25.2 L 457 47.2 L 520 94.5 L 548 151 L 554 230 L 520 290 L 454 328 L 372 353 L 243 391 L 142 428 L 97.6 466 L 72.5 517 L 78.8 589 L 113 646 L 167 680 L 243 693 L 340 693 L 406 671 L 457 639 L 498 608 L 529 576 L 529 498 L 529 693" />
<glyph unicode="T" glyph-name="T" horiz-adv-x="630" d="M 192 31.5 L 400 31.5 L 290 31.5 L 290 687 L 31.5 687 L 31.5 539 L 31.5 687 L 554 687 L 554 539" />
<glyph unicode="U" glyph-name="U" horiz-adv-x="778" d="M 22 690 L 211 690 L 126 690 L 126 208 L 142 158 L 173 110 L 220 69.3 L 274 37.8 L 334 25.2 L 403 25.2 L 469 50.4 L 526 88.2 L 570 132 L 592 180 L 598 227 L 598 687 L 504 687 L 699 687" />
<glyph unicode="V" glyph-name="V" horiz-adv-x="734" d="M -3.15 690 L 186 690 L 81.9 690 L 340 31.5 L 595 687 L 498 687 L 693 687" />
<glyph unicode="W" glyph-name="W" horiz-adv-x="1011.2" d="M -3.15 693 L 183 693 L 85 693 L 290 28.4 L 479 693 L 671 28.4 L 882 690 L 784 690 L 964 690" />
<glyph unicode="X" glyph-name="X" horiz-adv-x="668" d="M 6.3 34.6 L 198 34.6 L 91.4 34.6 L 523 687 L 605 687 L 413 687 M 9.45 690 L 205 690 L 107 690 L 536 34.6 L 614 34.6 L 428 34.6" />
<glyph unicode="Y" glyph-name="Y" horiz-adv-x="649" d="M 205 31.5 L 400 31.5 L 293 31.5 L 293 321 L 81.9 687 L -3.15 687 L 186 687 L 81.9 687 L 293 318 L 507 690 L 416 690 L 602 690" />
<glyph unicode="Z" glyph-name="Z" horiz-adv-x="633" d="M 63 548 L 63 693 L 532 693 L 53.5 34.6 L 517 34.6 L 517 170" />
<glyph unicode="[" glyph-name="bracketleft" horiz-adv-x="315" d="M 243 -120 L 104 -120 L 104 759 L 236 759" />
<glyph unicode="\" glyph-name="backslash" horiz-adv-x="529" d="M 25.2 693 L 450 31.5" />
<glyph unicode="]" glyph-name="bracketright" horiz-adv-x="309" d="M 18.9 -117 L 151 -117 L 151 759 L 22 759" />
<glyph unicode="^" glyph-name="asciicircum" horiz-adv-x="485" d="M 28.4 466 L 220 721 L 416 466" />
<glyph unicode="_" glyph-name="underscore" horiz-adv-x="721" d="M 183 -41 L 485 -41" />
<glyph unicode="`" glyph-name="grave" horiz-adv-x="261" d="M 53.5 709 L 151 576" />
<glyph unicode="a" glyph-name="a" horiz-adv-x="589" d="M 75.6 447 L 129 488 L 202 507 L 287 501 L 346 482 L 397 425 L 413 375 L 413 158 L 372 104 L 302 50.4 L 233 25.2 L 142 31.5 L 72.5 69.3 L 41 120 L 41 176 L 69.3 236 L 142 280 L 227 290 L 413 290 L 413 34.6 L 510 34.6" />
<glyph unicode="b" glyph-name="b" horiz-adv-x="611" d="M -6.3 690 L 94.5 690 L 94.5 31.5 L 94.5 164 L 135 117 L 189 63 L 233 37.8 L 306 22 L 372 31.5 L 435 69.3 L 485 139 L 507 214 L 507 309 L 488 372 L 454 428 L 397 466 L 331 488 L 265 491 L 97.6 491" />
<glyph unicode="c" glyph-name="c" horiz-adv-x="561" d="M 457 498 L 457 337 L 457 400 L 391 457 L 296 498 L 224 498 L 161 479 L 107 438 L 69.3 375 L 53.5 302 L 53.5 217 L 75.6 145 L 126 72.4 L 198 31.5 L 252 25.2 L 312 25.2 L 400 53.6 L 454 97.6" />
<glyph unicode="d" glyph-name="d" horiz-adv-x="643" d="M 353 690 L 466 690 L 466 154 L 400 94.5 L 343 47.2 L 268 25.2 L 224 28.4 L 135 59.9 L 78.8 126 L 47.2 214 L 53.5 315 L 85 400 L 161 466 L 236 491 L 312 495 L 466 495 L 466 31.5 L 561 31.5" />
<glyph unicode="e" glyph-name="e" horiz-adv-x="580" d="M 59.9 271 L 479 271 L 479 340 L 457 400 L 425 441 L 372 482 L 302 501 L 230 504 L 158 476 L 97.6 422 L 69.3 359 L 56.7 290 L 56.7 214 L 72.5 154 L 123 81.9 L 186 40.9 L 236 25.2 L 312 25.2 L 394 50.4 L 457 94.5" />
<glyph unicode="f" glyph-name="f" horiz-adv-x="435" d="M 37.8 34.6 L 249 34.6 L 135 34.6 L 135 495 L 37.8 495 L 318 495 L 132 495 L 132 551 L 142 608 L 180 665 L 230 693 L 290 699 L 356 677 L 400 639" />
<glyph unicode="g" glyph-name="g" horiz-adv-x="617" d="M 145 97.6 L 81.9 69.3 L 37.8 25.2 L 28.4 -28.4 L 34.6 -91.4 L 97.6 -145 L 173 -161 L 261 -167 L 353 -164 L 428 -142 L 476 -107 L 504 -63 L 504 0 L 476 53.6 L 416 85.1 L 340 104 L 280 104 L 220 101 L 158 97.6 L 110 107 L 59.9 126 L 50.4 161 L 69.3 195 L 120 227 L 161 205 L 230 189 L 299 189 L 372 208 L 438 252 L 460 306 L 463 384 L 444 432 L 416 466 L 460 498 L 554 498 L 554 381 L 554 498 L 466 498 L 416 466 L 362 491 L 268 504 L 180 491 L 91.4 441 L 66.1 369 L 69.3 302 L 97.6 249 L 120 224" />
<glyph unicode="h" glyph-name="h" horiz-adv-x="662" d="M 28.4 690 L 123 690 L 123 34.6 L 28.4 34.6 L 211 34.6 L 123 34.6 L 123 375 L 180 435 L 233 482 L 306 504 L 362 504 L 422 485 L 460 457 L 495 406 L 501 343 L 501 31.5 L 413 31.5 L 598 31.5" />
<glyph unicode="i" glyph-name="i" horiz-adv-x="309" d="M 37.8 31.5 L 246 31.5 L 139 31.5 L 139 498 L 37.8 498 M 132 595 L 161 611 L 161 636 L 142 652 L 117 646 L 107 621 L 113 608 L 132 595" />
<glyph unicode="j" glyph-name="j" horiz-adv-x="265" d="M -139 -113 L -101 -145 L -53.5 -167 L 9.45 -167 L 59.9 -145 L 101 -107 L 113 -28.4 L 113 488 L 15.8 488 M 113 595 L 132 608 L 139 636 L 123 652 L 91.4 649 L 85 621 L 88.2 605 L 113 595" />
<glyph unicode="k" glyph-name="k" horiz-adv-x="598" d="M 18.9 693 L 123 693 L 123 34.6 L 22 34.6 L 214 34.6 L 126 34.6 L 126 170 L 422 495 L 507 495 L 312 495 L 422 495 L 252 312 L 450 31.5 L 536 31.5 L 346 31.5" />
<glyph unicode="l" glyph-name="l" horiz-adv-x="293" d="M 25.2 31.5 L 220 31.5 L 120 31.5 L 120 693 L 25.2 693" />
<glyph unicode="m" glyph-name="m" horiz-adv-x="964" d="M 37.8 31.5 L 227 31.5 L 139 31.5 L 139 498 L 41 498 L 135 498 L 135 378 L 189 441 L 258 491 L 324 501 L 387 491 L 422 460 L 460 400 L 466 346 L 466 34.6 L 378 34.6 L 554 34.6 L 469 34.6 L 469 353 L 482 384 L 526 441 L 583 488 L 643 501 L 702 495 L 747 469 L 784 422 L 800 365 L 800 306 L 800 34.6 L 709 34.6 L 891 34.6" />
<glyph unicode="n" glyph-name="n" horiz-adv-x="680" d="M 44.1 31.5 L 224 31.5 L 142 31.5 L 142 495 L 44.1 495 L 139 495 L 139 365 L 192 435 L 239 472 L 296 501 L 350 504 L 410 495 L 466 469 L 504 422 L 517 381 L 517 331 L 517 37.8 L 428 37.8 L 621 37.8" />
<glyph unicode="o" glyph-name="o" horiz-adv-x="602" d="M 280 25.2 L 346 31.5 L 419 69.3 L 472 129 L 498 205 L 504 287 L 491 356 L 454 422 L 403 466 L 334 498 L 280 504 L 195 495 L 117 438 L 69.3 369 L 53.5 280 L 56.7 195 L 91.4 120 L 148 59.9 L 224 28.4 L 280 25.2" />
<glyph unicode="p" glyph-name="p" horiz-adv-x="639" d="M 18.9 -164 L 239 -164 L 113 -164 L 113 495 L 25.2 495 L 113 495 L 113 375 L 176 435 L 265 498 L 356 507 L 444 472 L 504 400 L 526 306 L 523 214 L 504 139 L 457 85.1 L 394 50.4 L 334 37.8 L 284 31.5 L 120 31.5" />
<glyph unicode="q" glyph-name="q" horiz-adv-x="630" d="M 353 -161 L 564 -161 L 460 -161 L 460 498 L 460 378 L 422 422 L 372 463 L 309 495 L 243 507 L 180 491 L 113 447 L 75.6 391 L 56.7 334 L 50.4 268 L 56.7 202 L 78.8 142 L 132 81.9 L 208 44.1 L 296 34.6 L 460 34.6" />
<glyph unicode="r" glyph-name="r" horiz-adv-x="523" d="M 252 31.5 L 31.5 31.5 L 132 31.5 L 132 495 L 41 495 L 132 495 L 132 350 L 176 400 L 217 441 L 268 472 L 312 495 L 365 501 L 441 501 L 441 378" />
<glyph unicode="s" glyph-name="s" horiz-adv-x="564" d="M 63 31.5 L 63 195 L 63 126 L 104 88.2 L 151 53.6 L 214 28.4 L 274 22 L 350 31.5 L 416 59.9 L 450 101 L 460 145 L 450 195 L 406 230 L 353 249 L 258 265 L 170 280 L 113 302 L 75.6 334 L 63 372 L 63 413 L 85 454 L 142 491 L 195 501 L 277 501 L 331 485 L 372 460 L 410 425 L 438 400 L 438 334 L 438 495" />
<glyph unicode="t" glyph-name="t" horiz-adv-x="406" d="M 113 690 L 113 495 L 18.9 495 L 306 495 L 113 495 L 113 145 L 126 94.5 L 151 56.7 L 192 31.5 L 233 25.2 L 284 31.5 L 334 53.6 L 362 78.8" />
<glyph unicode="u" glyph-name="u" horiz-adv-x="665" d="M 9.45 495 L 117 495 L 117 170 L 120 129 L 145 88.2 L 173 56.7 L 214 31.5 L 274 22 L 334 31.5 L 400 56.7 L 447 104 L 491 158 L 491 31.5 L 592 31.5 L 491 31.5 L 491 498 L 391 498" />
<glyph unicode="v" glyph-name="v" horiz-adv-x="630" d="M -6.3 495 L 192 495 L 91.4 495 L 290 28.4 L 495 495 L 576 495 L 394 495" />
<glyph unicode="w" glyph-name="w" horiz-adv-x="873" d="M 0 495 L 192 495 L 94.5 495 L 261 31.5 L 413 495 L 564 28.4 L 731 498 L 825 498 L 630 498" />
<glyph unicode="x" glyph-name="x" horiz-adv-x="589" d="M 18.9 31.5 L 214 31.5 L 104 31.5 L 438 495 L 510 495 L 324 495 M 217 495 L 25.2 495 L 107 495 L 438 31.5 L 517 31.5 L 328 31.5" />
<glyph unicode="y" glyph-name="y" horiz-adv-x="636" d="M 31.5 -117 L 59.9 -142 L 97.6 -170 L 135 -170 L 176 -170 L 220 -145 L 261 -94.5 L 299 -6.3 L 495 491 L 576 491 L 394 491 M 6.3 495 L 186 495 L 94.5 495 L 312 31.5" />
<glyph unicode="z" glyph-name="z" horiz-adv-x="551" d="M 53.5 369 L 53.5 491 L 444 491 L 41 31.5 L 444 31.5 L 444 158" />
<glyph unicode="{" glyph-name="braceleft" horiz-adv-x="343" d="M 271 -117 L 205 -117 L 180 -101 L 158 -75.6 L 142 -47.2 L 135 -9.45 L 135 246 L 117 287 L 85 309 L 59.9 321 L 18.9 321 L 63 321 L 104 346 L 129 372 L 139 406 L 139 690 L 151 715 L 183 750 L 220 765 L 271 765" />
<glyph unicode="|" glyph-name="bar" horiz-adv-x="277" d="M 110 -170 L 110 690" />
<glyph unicode="}" glyph-name="braceright" horiz-adv-x="337" d="M 18.9 -120 L 69.3 -120 L 107 -107 L 129 -81.9 L 148 -56.7 L 148 -18.9 L 148 239 L 164 277 L 195 309 L 230 321 L 265 321 L 230 321 L 189 340 L 164 372 L 151 403 L 151 444 L 151 690 L 135 721 L 113 743 L 75.6 762 L 28.4 762" />
<glyph unicode="~" glyph-name="asciitilde" horiz-adv-x="545" d="M 85 290 L 88.2 324 L 110 362 L 145 378 L 186 375 L 227 356 L 258 321 L 296 293 L 346 280 L 391 299 L 410 324 L 413 365" />
<glyph unicode="&#xa0;" glyph-name="nbspace" horiz-adv-x="378" />
<glyph unicode="&#xa1;" glyph-name="exclamdown" horiz-adv-x="290" d="M 117 22 L 117 510 M 113 617 L 139 633 L 151 665 L 135 684 L 117 690 L 94.5 687 L 78.8 665 L 78.8 636 L 91.4 624 L 113 617" />
<glyph unicode="&#xa2;" glyph-name="cent" horiz-adv-x="277" d="M 457 498 L 457 337 L 457 400 L 391 457 L 296 498 L 224 498 L 161 479 L 107 438 L 69.3 375 L 53.5 302 L 53.5 217 L 75.6 145 L 126 72.4 L 198 31.5 L 252 25.2 L 312 25.2 L 400 53.6 L 454 97.6 M 236 -170 L 236 690" />
<glyph unicode="&#xa5;" glyph-name="yen" horiz-adv-x="649" d="M 205 31.5 L 400 31.5 L 293 31.5 L 293 321 L 81.9 687 L -3.15 687 L 186 687 L 81.9 687 L 293 318 L 507 690 L 416 690 L 602 690 M 107 236 L 495 236 M 107 362 L 495 362" />
<glyph unicode="&#xa6;" glyph-name="brokenbar" horiz-adv-x="83.2" d="M 203 -51 L 203 207 M 203 421 L 203 679" />
<glyph unicode="&#xa8;" glyph-name="dieresis" horiz-adv-x="567" d=" M 173 756 L 148 740 L 138 709 L 151 690 L 173 684 L 192 687 L 208 709 L 208 737 L 195 750 L 173 756 M 413 756 L 388 740 L 378 709 L 391 690 L 413 684 L 432 687 L 448 709 L 448 737 L 435 750 L 413 756" />
<glyph unicode="&#xa9;" glyph-name="copyright" horiz-adv-x="784" d="M 372 25.2 L 432 25.2 L 529 63 L 592 120 L 646 192 L 674 274 L 684 375 L 662 488 L 627 561 L 580 621 L 510 665 L 444 687 L 372 696 L 287 687 L 198 652 L 139 598 L 85 517 L 59.9 438 L 53.5 356 L 63 271 L 85 202 L 120 148 L 170 91.4 L 230 53.6 L 306 31.5 L 372 25.2 M 487 506 L 487 406 L 487 454 L 457 472 L 430 490 L 402 502 L 369 506 L 337 504 L 302 493 L 268 471 L 241 435 L 224 397 L 219 358 L 220 307 L 232 265 L 252 227 L 290 192 L 335 173 L 406 172 L 444 183 L 469 198 L 488 216" />
<glyph unicode="&#xaa;" glyph-name="ordfeminine" horiz-adv-x="295" d="M 148 822 L 175 843 L 211 852 L 254 849 L 284 839 L 309 811 L 317 786 L 317 677 L 296 650 L 261 624 L 227 611 L 181 614 L 146 633 L 131 658 L 131 687 L 145 717 L 181 739 L 224 743 L 317 743 L 317 616 L 365 616" />
<glyph unicode="&#xab;" glyph-name="guillemotleft" horiz-adv-x="308" d="M 163 383 L 15.1 214 L 163 42.8 M 289 383 L 141 214 L 289 42.8" />
<glyph unicode="&#xae;" glyph-name="registered" horiz-adv-x="784" d="M 372 25.2 L 432 25.2 L 529 63 L 592 120 L 646 192 L 674 274 L 684 375 L 662 488 L 627 561 L 580 621 L 510 665 L 444 687 L 372 696 L 287 687 L 198 652 L 139 598 L 85 517 L 59.9 438 L 53.5 356 L 63 271 L 85 202 L 120 148 L 170 91.4 L 230 53.6 L 306 31.5 L 372 25.2 M 213 175 L 312 175 L 261 175 L 261 501 L 213 501 L 387 501 L 417 495 L 441 482 L 461 457 L 468 428 L 466 403 L 458 372 L 444 354 L 424 339 L 397 332 L 261 332 L 351 332 L 466 173 L 411 173 L 507 173" />
<glyph unicode="&#xb0;" glyph-name="degree" horiz-adv-x="282" d="M 225 575 L 243 575 L 272 586 L 291 603 L 307 625 L 316 649 L 318 679 L 312 713 L 301 735 L 287 753 L 266 766 L 247 773 L 225 776 L 199 773 L 173 763 L 155 747 L 139 722 L 131 698 L 129 674 L 132 648 L 139 627 L 149 611 L 164 594 L 182 583 L 205 576 L 225 575" />
<glyph unicode="&#xb1;" glyph-name="plusminus" horiz-adv-x="408" d="M 514 75.6 L 824 75.6 M 633 295 L 633 602 M 481 454 L 789 454" />
<glyph unicode="&#xb2;" glyph-name="twosuperior" horiz-adv-x="302" d="M 137 899 L 161 921 L 192 937 L 225 947 L 260 947 L 291 942 L 318 929 L 342 909 L 358 873 L 356 846 L 345 821 L 313 788 L 269 761 L 224 737 L 187 713 L 164 695 L 145 666 L 140 647 L 140 614 L 356 614 L 356 685" />
<glyph unicode="&#xb3;" glyph-name="threesuperior" horiz-adv-x="304" d="M 139 658 L 164 636 L 195 619 L 230 611 L 257 611 L 290 616 L 323 630 L 343 650 L 356 677 L 359 712 L 351 743 L 328 769 L 301 780 L 266 786 L 216 786 L 277 786 L 302 794 L 326 810 L 343 833 L 350 862 L 346 887 L 331 915 L 313 932 L 284 943 L 250 945 L 217 943 L 178 929 L 145 906" />
<glyph unicode="&#xb4;" glyph-name="acute" horiz-adv-x="378" d=" M 262 788 L 136 618" />
<glyph unicode="&#xb7;" glyph-name="middot" horiz-adv-x="345" d="M 200 416 L 170 397 L 159 359 L 174 336 L 200 329 L 223 333 L 242 359 L 242 393 L 227 408 L 200 416" />
<glyph unicode="&#xb9;" glyph-name="onesuperior" horiz-adv-x="183" d="M 150 614 L 252 614 L 200 614 L 200 945 L 126 882" />
<glyph unicode="&#xba;" glyph-name="ordmasculine" horiz-adv-x="282" d="M 225 575 L 243 575 L 272 586 L 291 603 L 307 625 L 316 649 L 318 679 L 312 713 L 301 735 L 287 753 L 266 766 L 247 773 L 225 776 L 199 773 L 173 763 L 155 747 L 139 722 L 131 698 L 129 674 L 132 648 L 139 627 L 149 611 L 164 594 L 182 583 L 205 576 L 225 575" />
<glyph unicode="&#xbb;" glyph-name="guillemotright" horiz-adv-x="308" d="M 22.7 35.3 L 171 207 L 22.7 381 M 149 35.3 L 297 207 L 149 381" />
<glyph unicode="&#xbc;" glyph-name="onequarter" horiz-adv-x="517" d="M 47.2 397 L 170 397 L 108 397 L 108 794 L 18.9 718 M 123 34.6 L 548 690 M 595 427 L 593 389 L 588 344 L 582 306 L 567 265 L 548 225 L 525 181 L 486 121 L 788 121 L 724 121 L 724 15.1 L 724 304" />
<glyph unicode="&#xbd;" glyph-name="onehalf" horiz-adv-x="524" d="M 47.2 397 L 170 397 L 108 397 L 108 794 L 18.9 718 M 123 34.6 L 548 690 M 505 361 L 533 387 L 571 406 L 610 418 L 652 418 L 690 412 L 722 397 L 750 372 L 769 329 L 767 297 L 754 266 L 716 227 L 663 195 L 609 166 L 565 138 L 537 115 L 514 81.3 L 508 58.6 L 508 18.9 L 767 18.9 L 767 104" />
<glyph unicode="&#xbe;" glyph-name="threequarters" horiz-adv-x="648" d="M 34 450 L 64.3 423 L 102 403 L 144 393 L 176 393 L 215 399 L 255 416 L 280 440 L 295 472 L 299 514 L 289 552 L 261 582 L 229 595 L 187 603 L 127 603 L 200 603 L 231 612 L 259 631 L 280 660 L 287 694 L 284 724 L 265 758 L 244 779 L 208 792 L 168 794 L 129 792 L 81.3 775 L 41.6 747 M 123 34.6 L 548 690 M 595 427 L 593 389 L 588 344 L 582 306 L 567 265 L 548 225 L 525 181 L 486 121 L 788 121 L 724 121 L 724 15.1 L 724 304" />
<glyph unicode="&#xbf;" glyph-name="questiondown" horiz-adv-x="558" d="M 246 630 L 271 643 L 284 674 L 268 693 L 249 699 L 227 696 L 211 677 L 211 649 L 224 636 L 246 630 M 249 526 L 246 482 L 233 447 L 205 416 L 158 378 L 110 340 L 72.5 302 L 44.1 261 L 34.7 224 L 41 173 L 63 117 L 104 69.3 L 151 41 L 211 25.2 L 274 28.4 L 321 37.8 L 365 53.5 L 410 81.9 L 441 123 L 457 164 L 460 211" />
<glyph unicode="&#xc0;" glyph-name="Agrave" horiz-adv-x="728" d="M -9.45 34.6 L 180 34.6 L 78.8 34.6 L 337 693 L 504 274 L 173 274 L 507 274 L 602 31.5 L 501 31.5 L 693 31.5 M 228 992 L 326 860" />
<glyph unicode="&#xc1;" glyph-name="Aacute" horiz-adv-x="728" d="M -9.45 34.6 L 180 34.6 L 78.8 34.6 L 337 693 L 504 274 L 173 274 L 507 274 L 602 31.5 L 501 31.5 L 693 31.5 M 494 1021.7 L 368 852" />
<glyph unicode="&#xc2;" glyph-name="Acircumflex" horiz-adv-x="728" d="M -9.45 34.6 L 180 34.6 L 78.8 34.6 L 337 693 L 504 274 L 173 274 L 507 274 L 602 31.5 L 501 31.5 L 693 31.5 M 235 828 L 351 981 L 468 828" />
<glyph unicode="&#xc3;" glyph-name="Atilde" horiz-adv-x="728" d="M -9.45 34.6 L 180 34.6 L 78.8 34.6 L 337 693 L 504 274 L 173 274 L 507 274 L 602 31.5 L 501 31.5 L 693 31.5 M 229 842 L 232 867 L 247 893 L 271 904 L 300 902 L 329 889 L 351 864 L 377 845 L 412 836 L 443 849 L 456 867 L 459 895" />
<glyph unicode="&#xc4;" glyph-name="Adieresis" horiz-adv-x="728" d="M -9.45 34.6 L 180 34.6 L 78.8 34.6 L 337 693 L 504 274 L 173 274 L 507 274 L 602 31.5 L 501 31.5 L 693 31.5 M 241 945 L 216 929 L 207 898 L 219 879 L 241 873 L 260 876 L 276 898 L 276 926 L 263 939 L 241 945 M 505 945 L 480 929 L 471 898 L 483 879 L 505 873 L 524 876 L 540 898 L 540 926 L 527 939 L 505 945" />
<glyph unicode="&#xc5;" glyph-name="Aring" horiz-adv-x="728" d="M -9.45 34.6 L 180 34.6 L 78.8 34.6 L 337 693 L 504 274 L 173 274 L 507 274 L 602 31.5 L 501 31.5 L 693 31.5 M 377 858 L 395 858 L 424 869 L 443 886 L 459 908 L 468 933 L 471 963 L 464 997 L 454 1018.7 L 439 1036.7 L 419 1049.9 L 399 1056.5 L 377 1059.3 L 352 1056.5 L 325 1046.1 L 307 1030.0 L 291 1005.5 L 284 982 L 282 957 L 284 932 L 291 911 L 301 895 L 317 878 L 335 867 L 357 860 L 377 858" />
<glyph unicode="&#xc8;" glyph-name="Egrave" horiz-adv-x="621" d="M 513 180 L 513 34.6 L 31.5 34.6 L 135 34.6 L 135 365 L 416 365 L 416 447 L 416 284 L 416 365 L 132 365 L 132 687 L 41 687 L 507 687 L 507 548 M 175 992 L 272 860" />
<glyph unicode="&#xc9;" glyph-name="Eacute" horiz-adv-x="621" d="M 513 180 L 513 34.6 L 31.5 34.6 L 135 34.6 L 135 365 L 416 365 L 416 447 L 416 284 L 416 365 L 132 365 L 132 687 L 41 687 L 507 687 L 507 548 M 374 981 L 248 811" />
<glyph unicode="&#xca;" glyph-name="Ecircumflex" horiz-adv-x="621" d="M 513 180 L 513 34.6 L 31.5 34.6 L 135 34.6 L 135 365 L 416 365 L 416 447 L 416 284 L 416 365 L 132 365 L 132 687 L 41 687 L 507 687 L 507 548 M 203 828 L 318 981 L 436 828" />
<glyph unicode="&#xcb;" glyph-name="Edieresis" horiz-adv-x="621" d="M 513 180 L 513 34.6 L 31.5 34.6 L 135 34.6 L 135 365 L 416 365 L 416 447 L 416 284 L 416 365 L 132 365 L 132 687 L 41 687 L 507 687 L 507 548 M 199 945 L 174 929 L 165 898 L 177 879 L 199 873 L 218 876 L 234 898 L 234 926 L 221 939 L 199 945 M 440 945 L 415 929 L 405 898 L 418 879 L 440 873 L 459 876 L 475 898 L 475 926 L 462 939 L 440 945" />
<glyph unicode="&#xcc;" glyph-name="Igrave" horiz-adv-x="340" d="M 34.6 31.5 L 243 31.5 L 142 31.5 L 142 693 L 246 693 L 41 693 M 34.6 992 L 132 860" />
<glyph unicode="&#xcd;" glyph-name="Iacute" horiz-adv-x="340" d="M 34.6 31.5 L 243 31.5 L 142 31.5 L 142 693 L 246 693 L 41 693 M 234 985 L 108 815" />
<glyph unicode="&#xce;" glyph-name="Icircumflex" horiz-adv-x="340" d="M 34.6 31.5 L 243 31.5 L 142 31.5 L 142 693 L 246 693 L 41 693 M 24.6 828 L 140 981 L 257 828" />
<glyph unicode="&#xcf;" glyph-name="Idieresis" horiz-adv-x="340" d="M 34.6 31.5 L 243 31.5 L 142 31.5 L 142 693 L 246 693 L 41 693 M 56.2 945 L 31 929 L 21.5 898 L 34.1 879 L 56.2 873 L 75.1 876 L 90.8 898 L 90.8 926 L 78.2 939 L 56.2 945 M 303 945 L 278 929 L 268 898 L 281 879 L 303 873 L 322 876 L 338 898 L 338 926 L 325 939 L 303 945" />
<glyph unicode="&#xd0;" glyph-name="Eth" horiz-adv-x="740" d="M 12.6 331 L 400 331 M 37.8 34.6 L 353 34.6 L 428 53.6 L 495 88.2 L 561 154 L 605 220 L 627 296 L 627 406 L 608 488 L 561 570 L 513 627 L 438 671 L 359 693 L 37.8 693 L 139 693 L 139 37.8" />
<glyph unicode="&#xd1;" glyph-name="Ntilde" horiz-adv-x="794" d="M 41 34.6 L 230 34.6 L 142 34.6 L 142 687 L 37.8 687 L 154 687 L 583 31.5 L 699 31.5 L 598 31.5 L 598 690 L 510 690 L 699 690 M 245 842 L 247 867 L 262 893 L 287 904 L 315 902 L 344 889 L 366 864 L 392 845 L 428 836 L 459 849 L 472 867 L 474 895" />
<glyph unicode="&#xd2;" glyph-name="Ograve" horiz-adv-x="784" d="M 372 25.2 L 432 25.2 L 529 63 L 592 120 L 646 192 L 674 274 L 684 375 L 662 488 L 627 561 L 580 621 L 510 665 L 444 687 L 372 696 L 287 687 L 198 652 L 139 598 L 85 517 L 59.9 438 L 53.5 356 L 63 271 L 85 202 L 120 148 L 170 91.4 L 230 53.6 L 306 31.5 L 372 25.2 M 257 992 L 354 860" />
<glyph unicode="&#xd3;" glyph-name="Oacute" horiz-adv-x="784" d="M 372 25.2 L 432 25.2 L 529 63 L 592 120 L 646 192 L 674 274 L 684 375 L 662 488 L 627 561 L 580 621 L 510 665 L 444 687 L 372 696 L 287 687 L 198 652 L 139 598 L 85 517 L 59.9 438 L 53.5 356 L 63 271 L 85 202 L 120 148 L 170 91.4 L 230 53.6 L 306 31.5 L 372 25.2 M 461 1035.0 L 335 865" />
<glyph unicode="&#xd4;" glyph-name="Ocircumflex" horiz-adv-x="784" d="M 372 25.2 L 432 25.2 L 529 63 L 592 120 L 646 192 L 674 274 L 684 375 L 662 488 L 627 561 L 580 621 L 510 665 L 444 687 L 372 696 L 287 687 L 198 652 L 139 598 L 85 517 L 59.9 438 L 53.5 356 L 63 271 L 85 202 L 120 148 L 170 91.4 L 230 53.6 L 306 31.5 L 372 25.2 M 252 828 L 368 981 L 485 828" />
<glyph unicode="&#xd5;" glyph-name="Otilde" horiz-adv-x="784" d="M 372 25.2 L 432 25.2 L 529 63 L 592 120 L 646 192 L 674 274 L 684 375 L 662 488 L 627 561 L 580 621 L 510 665 L 444 687 L 372 696 L 287 687 L 198 652 L 139 598 L 85 517 L 59.9 438 L 53.5 356 L 63 271 L 85 202 L 120 148 L 170 91.4 L 230 53.6 L 306 31.5 L 372 25.2 M 243 842 L 245 867 L 260 893 L 284 904 L 313 902 L 342 889 L 364 864 L 390 845 L 426 836 L 456 849 L 470 867 L 472 895" />
<glyph unicode="&#xd6;" glyph-name="Odieresis" horiz-adv-x="784" d="M 372 25.2 L 432 25.2 L 529 63 L 592 120 L 646 192 L 674 274 L 684 375 L 662 488 L 627 561 L 580 621 L 510 665 L 444 687 L 372 696 L 287 687 L 198 652 L 139 598 L 85 517 L 59.9 438 L 53.5 356 L 63 271 L 85 202 L 120 148 L 170 91.4 L 230 53.6 L 306 31.5 L 372 25.2 M 270 945 L 245 929 L 235 898 L 248 879 L 270 873 L 289 876 L 305 898 L 305 926 L 292 939 L 270 945 M 533 945 L 508 929 L 499 898 L 511 879 L 533 873 L 552 876 L 568 898 L 568 926 L 555 939 L 533 945" />
<glyph unicode="&#xd7;" glyph-name="multiply" horiz-adv-x="614" d="M 135 -22.1 L 570 498 L 353 239 L 135 501 L 573 -18.9" />
<glyph unicode="&#xd8;" glyph-name="Oslash" horiz-adv-x="784" d="M 372 25.2 L 432 25.2 L 529 63 L 592 120 L 646 192 L 674 274 L 684 375 L 662 488 L 627 561 L 580 621 L 510 665 L 444 687 L 372 696 L 287 687 L 198 652 L 139 598 L 85 517 L 59.9 438 L 53.5 356 L 63 271 L 85 202 L 120 148 L 170 91.4 L 230 53.6 L 306 31.5 L 372 25.2 M 107 -33.2 L 604 733" />
<glyph unicode="&#xd9;" glyph-name="Ugrave" horiz-adv-x="778" d="M 22 690 L 211 690 L 126 690 L 126 208 L 142 158 L 173 110 L 220 69.3 L 274 37.8 L 334 25.2 L 403 25.2 L 469 50.4 L 526 88.2 L 570 132 L 592 180 L 598 227 L 598 687 L 504 687 L 699 687 M 254 992 L 351 860" />
<glyph unicode="&#xda;" glyph-name="Uacute" horiz-adv-x="778" d="M 22 690 L 211 690 L 126 690 L 126 208 L 142 158 L 173 110 L 220 69.3 L 274 37.8 L 334 25.2 L 403 25.2 L 469 50.4 L 526 88.2 L 570 132 L 592 180 L 598 227 L 598 687 L 504 687 L 699 687 M 472 1023.9 L 346 854" />
<glyph unicode="&#xdb;" glyph-name="Ucircumflex" horiz-adv-x="778" d="M 22 690 L 211 690 L 126 690 L 126 208 L 142 158 L 173 110 L 220 69.3 L 274 37.8 L 334 25.2 L 403 25.2 L 469 50.4 L 526 88.2 L 570 132 L 592 180 L 598 227 L 598 687 L 504 687 L 699 687 M 250 828 L 366 981 L 483 828" />
<glyph unicode="&#xdc;" glyph-name="Udieresis" horiz-adv-x="778" d="M 22 690 L 211 690 L 126 690 L 126 208 L 142 158 L 173 110 L 220 69.3 L 274 37.8 L 334 25.2 L 403 25.2 L 469 50.4 L 526 88.2 L 570 132 L 592 180 L 598 227 L 598 687 L 504 687 L 699 687 M 267 945 L 241 929 L 232 898 L 245 879 L 267 873 L 286 876 L 301 898 L 301 926 L 289 939 L 267 945 M 530 945 L 505 929 L 496 898 L 508 879 L 530 873 L 549 876 L 565 898 L 565 926 L 552 939 L 530 945" />
<glyph unicode="&#xdd;" glyph-name="Yacute" horiz-adv-x="649" d="M 205 31.5 L 400 31.5 L 293 31.5 L 293 321 L 81.9 687 L -3.15 687 L 186 687 L 81.9 687 L 293 318 L 507 690 L 416 690 L 602 690 M 389 988 L 263 818" />
<glyph unicode="&#xe0;" glyph-name="agrave" horiz-adv-x="589" d="M 75.6 447 L 129 488 L 202 507 L 287 501 L 346 482 L 397 425 L 413 375 L 413 158 L 372 104 L 302 50.4 L 233 25.2 L 142 31.5 L 72.5 69.3 L 41 120 L 41 176 L 69.3 236 L 142 280 L 227 290 L 413 290 L 413 34.6 L 510 34.6 M 159 803 L 257 671" />
<glyph unicode="&#xe1;" glyph-name="aacute" horiz-adv-x="589" d="M 75.6 447 L 129 488 L 202 507 L 287 501 L 346 482 L 397 425 L 413 375 L 413 158 L 372 104 L 302 50.4 L 233 25.2 L 142 31.5 L 72.5 69.3 L 41 120 L 41 176 L 69.3 236 L 142 280 L 227 290 L 413 290 L 413 34.6 L 510 34.6 M 374 832 L 248 662" />
<glyph unicode="&#xe2;" glyph-name="acircumflex" horiz-adv-x="589" d="M 75.6 447 L 129 488 L 202 507 L 287 501 L 346 482 L 397 425 L 413 375 L 413 158 L 372 104 L 302 50.4 L 233 25.2 L 142 31.5 L 72.5 69.3 L 41 120 L 41 176 L 69.3 236 L 142 280 L 227 290 L 413 290 L 413 34.6 L 510 34.6 M 175 658 L 290 811 L 407 658" />
<glyph unicode="&#xe3;" glyph-name="atilde" horiz-adv-x="589" d="M 75.6 447 L 129 488 L 202 507 L 287 501 L 346 482 L 397 425 L 413 375 L 413 158 L 372 104 L 302 50.4 L 233 25.2 L 142 31.5 L 72.5 69.3 L 41 120 L 41 176 L 69.3 236 L 142 280 L 227 290 L 413 290 L 413 34.6 L 510 34.6 M 175 644 L 177 668 L 193 695 L 217 706 L 245 703 L 274 690 L 296 666 L 323 646 L 358 637 L 389 650 L 402 668 L 404 697" />
<glyph unicode="&#xe4;" glyph-name="adieresis" horiz-adv-x="589" d="M 75.6 447 L 129 488 L 202 507 L 287 501 L 346 482 L 397 425 L 413 375 L 413 158 L 372 104 L 302 50.4 L 233 25.2 L 142 31.5 L 72.5 69.3 L 41 120 L 41 176 L 69.3 236 L 142 280 L 227 290 L 413 290 L 413 34.6 L 510 34.6 M 173 756 L 148 740 L 139 709 L 151 690 L 173 684 L 192 687 L 208 709 L 208 737 L 195 750 L 173 756 M 435 756 L 410 740 L 400 709 L 413 690 L 435 684 L 454 687 L 469 709 L 469 737 L 457 750 L 435 756" />
<glyph unicode="&#xe5;" glyph-name="aring" horiz-adv-x="589" d="M 75.6 447 L 129 488 L 202 507 L 287 501 L 346 482 L 397 425 L 413 375 L 413 158 L 372 104 L 302 50.4 L 233 25.2 L 142 31.5 L 72.5 69.3 L 41 120 L 41 176 L 69.3 236 L 142 280 L 227 290 L 413 290 L 413 34.6 L 510 34.6 M 253 669 L 271 669 L 301 680 L 319 697 L 335 719 L 344 744 L 347 774 L 340 808 L 330 830 L 316 848 L 295 861 L 275 868 L 253 870 L 228 868 L 201 857 L 183 841 L 167 816 L 160 793 L 158 768 L 161 743 L 167 722 L 178 706 L 193 689 L 211 678 L 233 671 L 253 669" />
<glyph unicode="&#xe8;" glyph-name="egrave" horiz-adv-x="580" d="M 59.9 271 L 479 271 L 479 340 L 457 400 L 425 441 L 372 482 L 302 501 L 230 504 L 158 476 L 97.6 422 L 69.3 359 L 56.7 290 L 56.7 214 L 72.5 154 L 123 81.9 L 186 40.9 L 236 25.2 L 312 25.2 L 394 50.4 L 457 94.5 M 154 803 L 252 671" />
<glyph unicode="&#xe9;" glyph-name="eacute" horiz-adv-x="580" d="M 59.9 271 L 479 271 L 479 340 L 457 400 L 425 441 L 372 482 L 302 501 L 230 504 L 158 476 L 97.6 422 L 69.3 359 L 56.7 290 L 56.7 214 L 72.5 154 L 123 81.9 L 186 40.9 L 236 25.2 L 312 25.2 L 394 50.4 L 457 94.5 M 378 849 L 252 679" />
<glyph unicode="&#xea;" glyph-name="ecircumflex" horiz-adv-x="580" d="M 59.9 271 L 479 271 L 479 340 L 457 400 L 425 441 L 372 482 L 302 501 L 230 504 L 158 476 L 97.6 422 L 69.3 359 L 56.7 290 L 56.7 214 L 72.5 154 L 123 81.9 L 186 40.9 L 236 25.2 L 312 25.2 L 394 50.4 L 457 94.5 M 172 658 L 287 811 L 404 658" />
<glyph unicode="&#xeb;" glyph-name="edieresis" horiz-adv-x="580" d="M 59.9 271 L 479 271 L 479 340 L 457 400 L 425 441 L 372 482 L 302 501 L 230 504 L 158 476 L 97.6 422 L 69.3 359 L 56.7 290 L 56.7 214 L 72.5 154 L 123 81.9 L 186 40.9 L 236 25.2 L 312 25.2 L 394 50.4 L 457 94.5 M 175 756 L 150 740 L 141 709 L 153 690 L 175 684 L 194 687 L 210 709 L 210 737 L 197 750 L 175 756 M 423 756 L 398 740 L 388 709 L 401 690 L 423 684 L 442 687 L 458 709 L 458 737 L 445 750 L 423 756" />
<glyph unicode="&#xec;" glyph-name="igrave" horiz-adv-x="309" d="M 37.8 31.5 L 246 31.5 L 139 31.5 L 139 498 L 37.8 498  M 18.9 803 L 117 671" />
<glyph unicode="&#xed;" glyph-name="iacute" horiz-adv-x="309" d="M 37.8 31.5 L 246 31.5 L 139 31.5 L 139 498 L 37.8 498  M 224 840 L 98.2 670" />
<glyph unicode="&#xee;" glyph-name="icircumflex" horiz-adv-x="309" d="M 37.8 31.5 L 246 31.5 L 139 31.5 L 139 498 L 37.8 498  M 15.1 658 L 130 811 L 248 658" />
<glyph unicode="&#xef;" glyph-name="idieresis" horiz-adv-x="309" d="M 37.8 31.5 L 246 31.5 L 139 31.5 L 139 498 L 37.8 498  M 36.9 756 L 11.7 740 L 2.22 709 L 14.8 690 L 36.9 684 L 55.8 687 L 71.5 709 L 71.5 737 L 58.9 750 L 36.9 756 M 291 756 L 266 740 L 256 709 L 269 690 L 291 684 L 310 687 L 325 709 L 325 737 L 313 750 L 291 756" />
<glyph unicode="&#xf1;" glyph-name="ntilde" horiz-adv-x="680" d="M 44.1 31.5 L 224 31.5 L 142 31.5 L 142 495 L 44.1 495 L 139 495 L 139 365 L 192 435 L 239 472 L 296 501 L 350 504 L 410 495 L 466 469 L 504 422 L 517 381 L 517 331 L 517 37.8 L 428 37.8 L 621 37.8 M 196 644 L 198 668 L 214 695 L 238 706 L 267 703 L 295 690 L 318 666 L 344 646 L 379 637 L 410 650 L 423 668 L 426 697" />
<glyph unicode="&#xf2;" glyph-name="ograve" horiz-adv-x="602" d="M 280 25.2 L 346 31.5 L 419 69.3 L 472 129 L 498 205 L 504 287 L 491 356 L 454 422 L 403 466 L 334 498 L 280 504 L 195 495 L 117 438 L 69.3 369 L 53.5 280 L 56.7 195 L 91.4 120 L 148 59.9 L 224 28.4 L 280 25.2 M 165 803 L 263 671" />
<glyph unicode="&#xf3;" glyph-name="oacute" horiz-adv-x="602" d="M 280 25.2 L 346 31.5 L 419 69.3 L 472 129 L 498 205 L 504 287 L 491 356 L 454 422 L 403 466 L 334 498 L 280 504 L 195 495 L 117 438 L 69.3 369 L 53.5 280 L 56.7 195 L 91.4 120 L 148 59.9 L 224 28.4 L 280 25.2 M 373 845 L 247 675" />
<glyph unicode="&#xf4;" glyph-name="ocircumflex" horiz-adv-x="602" d="M 280 25.2 L 346 31.5 L 419 69.3 L 472 129 L 498 205 L 504 287 L 491 356 L 454 422 L 403 466 L 334 498 L 280 504 L 195 495 L 117 438 L 69.3 369 L 53.5 280 L 56.7 195 L 91.4 120 L 148 59.9 L 224 28.4 L 280 25.2 M 179 658 L 294 811 L 411 658" />
<glyph unicode="&#xf5;" glyph-name="otilde" horiz-adv-x="602" d="M 280 25.2 L 346 31.5 L 419 69.3 L 472 129 L 498 205 L 504 287 L 491 356 L 454 422 L 403 466 L 334 498 L 280 504 L 195 495 L 117 438 L 69.3 369 L 53.5 280 L 56.7 195 L 91.4 120 L 148 59.9 L 224 28.4 L 280 25.2 M 178 644 L 180 668 L 196 695 L 220 706 L 248 703 L 277 690 L 299 666 L 326 646 L 361 637 L 392 650 L 405 668 L 407 697" />
<glyph unicode="&#xf6;" glyph-name="odieresis" horiz-adv-x="602" d="M 280 25.2 L 346 31.5 L 419 69.3 L 472 129 L 498 205 L 504 287 L 491 356 L 454 422 L 403 466 L 334 498 L 280 504 L 195 495 L 117 438 L 69.3 369 L 53.5 280 L 56.7 195 L 91.4 120 L 148 59.9 L 224 28.4 L 280 25.2 M 183 756 L 158 740 L 148 709 L 161 690 L 183 684 L 202 687 L 218 709 L 218 737 L 205 750 L 183 756 M 438 756 L 412 740 L 403 709 L 416 690 L 438 684 L 457 687 L 472 709 L 472 737 L 460 750 L 438 756" />
<glyph unicode="&#xf7;" glyph-name="divide" horiz-adv-x="874" d="M 387 630 L 362 614 L 353 583 L 365 564 L 387 558 L 406 561 L 422 583 L 422 611 L 410 624 L 387 630 M 387 315 L 362 299 L 353 268 L 365 249 L 387 243 L 406 246 L 422 268 L 422 296 L 410 309 L 387 315 M 113 425 L 695 425" />
<glyph unicode="&#xf8;" glyph-name="oslash" horiz-adv-x="602" d="M 280 25.2 L 346 31.5 L 419 69.3 L 472 129 L 498 205 L 504 287 L 491 356 L 454 422 L 403 466 L 334 498 L 280 504 L 195 495 L 117 438 L 69.3 369 L 53.5 280 L 56.7 195 L 91.4 120 L 148 59.9 L 224 28.4 L 280 25.2 M 103 -23.8 L 460 527" />
<glyph unicode="&#xf9;" glyph-name="ugrave" horiz-adv-x="665" d="M 9.45 495 L 117 495 L 117 170 L 120 129 L 145 88.2 L 173 56.7 L 214 31.5 L 274 22 L 334 31.5 L 400 56.7 L 447 104 L 491 158 L 491 31.5 L 592 31.5 L 491 31.5 L 491 498 L 391 498 M 197 803 L 295 671" />
<glyph unicode="&#xfa;" glyph-name="uacute" horiz-adv-x="665" d="M 9.45 495 L 117 495 L 117 170 L 120 129 L 145 88.2 L 173 56.7 L 214 31.5 L 274 22 L 334 31.5 L 400 56.7 L 447 104 L 491 158 L 491 31.5 L 592 31.5 L 491 31.5 L 491 498 L 391 498 M 398 820 L 272 650" />
<glyph unicode="&#xfb;" glyph-name="ucircumflex" horiz-adv-x="665" d="M 9.45 495 L 117 495 L 117 170 L 120 129 L 145 88.2 L 173 56.7 L 214 31.5 L 274 22 L 334 31.5 L 400 56.7 L 447 104 L 491 158 L 491 31.5 L 592 31.5 L 491 31.5 L 491 498 L 391 498 M 198 658 L 313 811 L 430 658" />
<glyph unicode="&#xfc;" glyph-name="udieresis" horiz-adv-x="665" d="M 9.45 495 L 117 495 L 117 170 L 120 129 L 145 88.2 L 173 56.7 L 214 31.5 L 274 22 L 334 31.5 L 400 56.7 L 447 104 L 491 158 L 491 31.5 L 592 31.5 L 491 31.5 L 491 498 L 391 498 M 210 756 L 185 740 L 176 709 L 188 690 L 210 684 L 229 687 L 245 709 L 245 737 L 232 750 L 210 756 M 473 756 L 448 740 L 439 709 L 451 690 L 473 684 L 492 687 L 508 709 L 508 737 L 495 750 L 473 756" />
<glyph unicode="&#xfd;" glyph-name="yacute" horiz-adv-x="636" d="M 31.5 -117 L 59.9 -142 L 97.6 -170 L 135 -170 L 176 -170 L 220 -145 L 261 -94.5 L 299 -6.3 L 495 491 L 576 491 L 394 491 M 6.3 495 L 186 495 L 94.5 495 L 312 31.5 M 387 841 L 261 671" />
<glyph unicode="&#xff;" glyph-name="ydieresis" horiz-adv-x="636" d="M 31.5 -117 L 59.9 -142 L 97.6 -170 L 135 -170 L 176 -170 L 220 -145 L 261 -94.5 L 299 -6.3 L 495 491 L 576 491 L 394 491 M 6.3 495 L 186 495 L 94.5 495 L 312 31.5 M 198 756 L 173 740 L 163 709 L 176 690 L 198 684 L 217 687 L 233 709 L 233 737 L 220 750 L 198 756 M 457 756 L 432 740 L 422 709 L 435 690 L 457 684 L 476 687 L 492 709 L 492 737 L 479 750 L 457 756" />
<glyph unicode="&#x2013;" glyph-name="endash" horiz-adv-x="874" d="M 113 331 L 695 331" />
<glyph unicode="&#x2014;" glyph-name="emdash" horiz-adv-x="1165.5" d="M 151 331 L 926 331" />
<glyph unicode="&#x201c;" glyph-name="quotedblleft" horiz-adv-x="442" d="M 95 695 L 139 576 M 237 695 L 281 576" />
<glyph unicode="&#x201d;" glyph-name="quotedblright" horiz-adv-x="442" d="M 96.4 695 L 52.4 576 M 238 695 L 194 576" />
<glyph unicode="&#x2039;" glyph-name="guilsinglleft" horiz-adv-x="205" d="M 163 383 L 15.1 214 L 163 42.8" />
<glyph unicode="&#x203a;" glyph-name="guilsinglright" horiz-adv-x="205" d="M 22.7 35.3 L 171 207 L 22.7 381" />
<glyph unicode="&#x20ac;" glyph-name="Euro" horiz-adv-x="699" d="M 595 696 L 595 498 L 595 592 L 536 630 L 482 665 L 425 690 L 359 696 L 296 693 L 227 671 L 158 627 L 104 554 L 69.3 479 L 59.9 400 L 63 299 L 85 214 L 126 139 L 202 69.3 L 293 31.5 L 435 28.4 L 510 50.4 L 561 81.9 L 598 117 M 12.6 268 L 400 268 M 12.6 394 L 400 394" />
<glyph unicode="&#x0178;" glyph-name="Ydieresis" horiz-adv-x="649" d="M 205 31.5 L 400 31.5 L 293 31.5 L 293 321 L 81.9 687 L -3.15 687 L 186 687 L 81.9 687 L 293 318 L 507 690 L 416 690 L 602 690 M 215 945 L 189 929 L 180 898 L 193 879 L 215 873 L 233 876 L 249 898 L 249 926 L 237 939 L 215 945 M 453 945 L 428 929 L 419 898 L 431 879 L 453 873 L 472 876 L 488 898 L 488 926 L 475 939 L 453 945" />
<glyph unicode="&#x102;" glyph-name="Abreve" horiz-adv-x="728" d="M -9.45 34.6 L 180 34.6 L 78.8 34.6 L 337 693 L 504 274 L 173 274 L 507 274 L 602 31.5 L 501 31.5 L 693 31.5 M452.341 1048.47C452.341 1048.47 459.75 939.311 354.359 938.524C248.969 937.737 254.128 1048.47 254.128 1048.47" />
<glyph unicode="&#x114;" glyph-name="Ebreve" horiz-adv-x="621" d="M 513 180 L 513 34.6 L 31.5 34.6 L 135 34.6 L 135 365 L 416 365 L 416 447 L 416 284 L 416 365 L 132 365 L 132 687 L 41 687 L 507 687 L 507 548 M418.341 1048.47C418.341 1048.47 425.75 939.311 320.359 938.524C214.969 937.737 220.128 1048.47 220.128 1048.47" />
<glyph unicode="&#x11E;" glyph-name="Gbreve" horiz-adv-x="772" d="M 504 369 L 702 369 L 598 369 L 598 28.4 L 598 135 L 539 85.1 L 476 47.2 L 403 25.2 L 337 25.2 L 284 31.5 L 208 59.9 L 151 113 L 91.4 195 L 63 312 L 59.9 413 L 91.4 523 L 154 611 L 236 677 L 318 699 L 410 693 L 498 662 L 561 617 L 592 570 L 592 501 L 592 693 M466.341 1048.47C466.341 1048.47 473.75 939.311 368.359 938.524C262.969 937.737 268.128 1048.47 268.128 1048.47" />
<glyph unicode="&#x12C;" glyph-name="Ibreve" horiz-adv-x="340" d="M 34.6 31.5 L 243 31.5 L 142 31.5 L 142 693 L 246 693 L 41 693 M289.341 1048.47C289.341 1048.47 296.75 939.311 191.359 938.524C85.9689 937.737 91.1277 1048.47 91.1277 1048.47" />
<glyph unicode="&#x14E;" glyph-name="Obreve" horiz-adv-x="784" d="M 372 25.2 L 432 25.2 L 529 63 L 592 120 L 646 192 L 674 274 L 684 375 L 662 488 L 627 561 L 580 621 L 510 665 L 444 687 L 372 696 L 287 687 L 198 652 L 139 598 L 85 517 L 59.9 438 L 53.5 356 L 63 271 L 85 202 L 120 148 L 170 91.4 L 230 53.6 L 306 31.5 L 372 25.2 M470.341 1048.47C470.341 1048.47 477.75 939.311 372.359 938.524C266.969 937.737 272.128 1048.47 272.128 1048.47" />
<glyph unicode="&#x16C;" glyph-name="Ubreve" horiz-adv-x="778" d="M 22 690 L 211 690 L 126 690 L 126 208 L 142 158 L 173 110 L 220 69.3 L 274 37.8 L 334 25.2 L 403 25.2 L 469 50.4 L 526 88.2 L 570 132 L 592 180 L 598 227 L 598 687 L 504 687 L 699 687 M468.341 1048.47C468.341 1048.47 475.75 939.311 370.359 938.524C264.969 937.737 270.128 1048.47 270.128 1048.47" />
<glyph unicode="&#x103;" glyph-name="abreve" horiz-adv-x="589" d="M 75.6 447 L 129 488 L 202 507 L 287 501 L 346 482 L 397 425 L 413 375 L 413 158 L 372 104 L 302 50.4 L 233 25.2 L 142 31.5 L 72.5 69.3 L 41 120 L 41 176 L 69.3 236 L 142 280 L 227 290 L 413 290 L 413 34.6 L 510 34.6 M388.341 868.472C388.341 868.472 395.75 759.311 290.359 758.524C184.969 757.737 190.128 868.472 190.128 868.472" />
<glyph unicode="&#x115;" glyph-name="ebreve" horiz-adv-x="580" d="M 59.9 271 L 479 271 L 479 340 L 457 400 L 425 441 L 372 482 L 302 501 L 230 504 L 158 476 L 97.6 422 L 69.3 359 L 56.7 290 L 56.7 214 L 72.5 154 L 123 81.9 L 186 40.9 L 236 25.2 L 312 25.2 L 394 50.4 L 457 94.5 M385.341 868.472C385.341 868.472 392.75 759.311 287.359 758.524C181.969 757.737 187.128 868.472 187.128 868.472" />
<glyph unicode="&#x11F;" glyph-name="gbreve" horiz-adv-x="617" d="M 145 97.6 L 81.9 69.3 L 37.8 25.2 L 28.4 -28.4 L 34.6 -91.4 L 97.6 -145 L 173 -161 L 261 -167 L 353 -164 L 428 -142 L 476 -107 L 504 -63 L 504 0 L 476 53.6 L 416 85.1 L 340 104 L 280 104 L 220 101 L 158 97.6 L 110 107 L 59.9 126 L 50.4 161 L 69.3 195 L 120 227 L 161 205 L 230 189 L 299 189 L 372 208 L 438 252 L 460 306 L 463 384 L 444 432 L 416 466 L 460 498 L 554 498 L 554 381 L 554 498 L 466 498 L 416 466 L 362 491 L 268 504 L 180 491 L 91.4 441 L 66.1 369 L 69.3 302 L 97.6 249 L 120 224 M357.341 868.472C357.341 868.472 364.75 759.311 259.359 758.524C153.969 757.737 159.128 868.472 159.128 868.472" />
<glyph unicode="&#x12D;" glyph-name="ibreve" horiz-adv-x="309" d="M 37.8 31.5 L 246 31.5 L 139 31.5 L 139 498 L 37.8 498  M299.341 868.472C299.341 868.472 306.75 759.311 201.359 758.524C95.9689 757.737 101.128 868.472 101.128 868.472" />
<glyph unicode="&#x14F;" glyph-name="obreve" horiz-adv-x="602" d="M 280 25.2 L 346 31.5 L 419 69.3 L 472 129 L 498 205 L 504 287 L 491 356 L 454 422 L 403 466 L 334 498 L 280 504 L 195 495 L 117 438 L 69.3 369 L 53.5 280 L 56.7 195 L 91.4 120 L 148 59.9 L 224 28.4 L 280 25.2 M392.341 868.472C392.341 868.472 399.75 759.311 294.359 758.524C188.969 757.737 194.128 868.472 194.128 868.472" />
<glyph unicode="&#x16D;" glyph-name="ubreve" horiz-adv-x="665" d="M 9.45 495 L 117 495 L 117 170 L 120 129 L 145 88.2 L 173 56.7 L 214 31.5 L 274 22 L 334 31.5 L 400 56.7 L 447 104 L 491 158 L 491 31.5 L 592 31.5 L 491 31.5 L 491 498 L 391 498 M412.341 868.472C412.341 868.472 419.75 759.311 314.359 758.524C208.969 757.737 214.128 868.472 214.128 868.472" />
<glyph unicode="&#x130;" glyph-name="Idotaccent" horiz-adv-x="340" d="M140 777L169 793L169 818L150 834L125 828L115 803L121 790L140 777M34.6 31.5L243 31.5L142 31.5L142 693L246 693L41 693" />
<glyph unicode="&#xc7;" glyph-name="Ccedilla" horiz-adv-x="699" d="M362.178 28.5739L362.178 -31.1291C484.385 -31.1291 399.686 -146.354 308.356 -118.83M595 696L595 498L595 592L536 630L482 665L425 690L359 696L296 693L227 671L158 627L104 554L69.3 479L59.9 400L63 299L85 214L126 139L202 69.3L293 31.5L435 28.4L510 50.4L561 81.9L598 117" />
<glyph unicode="&#x15E;" glyph-name="Scedilla" horiz-adv-x="665" d="M341.413 24.421L341.413 -35.2819C463.62 -35.2819 378.922 -150.507 287.591 -122.983M78.8 31.5L78.8 224L78.8 129C78.8 129 101.266 110.414 120 97.6C138.734 84.7865 165.648 65.317 192 53.6C218.352 41.883 246.281 33.3709 277 28.4C307.719 23.4291 344.708 21.709 375 25.2C405.292 28.691 432.472 35.2589 457 47.2C481.528 59.1411 504.89 76.32 520 94.5C535.11 112.68 541.721 128.132 548 151C554.279 173.868 559.387 205.896 554 230C548.613 254.104 537.044 272.839 520 290C502.956 307.161 478.754 317.266 454 328C429.246 338.734 407.156 342.463 372 353C336.844 363.537 281.308 378.356 243 391C204.692 403.644 165.878 414.025 142 428C118.122 441.975 109.382 450.823 97.6 466C85.8177 481.177 76.4592 495.848 72.5 517C68.5408 538.152 71.6609 567.005 78.8 589C85.9391 610.995 97.8117 630.482 113 646C128.188 661.518 145.067 671.602 167 680C188.933 688.398 214.087 690.545 243 693C271.913 695.455 312.597 697.447 340 693C367.403 688.553 386.44 680.234 406 671C425.56 661.766 441.688 649.563 457 639C472.312 628.437 486.023 618.597 498 608C509.977 597.403 529 576 529 576L529 498L529 693" />
<glyph unicode="&#x15F;" glyph-name="scedilla" horiz-adv-x="564" d="M272.868 22.1546L272.868 -28.0714C375.676 -28.0714 304.422 -125.006 227.589 -101.851M63 31.5L63 195L63 126C63 126 89.3262 100.303 104 88.2C118.674 76.0966 132.616 63.8242 151 53.6C169.384 43.3758 193.264 33.5489 214 28.4C234.736 23.2511 251.179 21.7936 274 22C296.821 22.2064 326.126 25.0118 350 31.5C373.874 37.9882 399.302 47.3891 416 59.9C432.698 72.4109 442.754 86.2758 450 101C457.246 115.724 459.791 128.983 460 145C460.209 161.017 459.311 179.749 450 195C440.689 210.251 422.385 220.876 406 230C389.615 239.124 377.614 242.57 353 249C328.386 255.43 288.5 259.832 258 265C227.5 270.168 194.163 273.349 170 280C145.837 286.651 128.789 292.578 113 302C97.2112 311.422 83.8963 321.652 75.6 334C67.3037 346.348 65.1529 358.667 63 372C60.8471 385.333 59.4439 398.852 63 413C66.5561 427.148 72.0811 439.958 85 454C97.9189 468.042 123.142 483.444 142 491C160.858 498.556 172.443 498.891 195 501C217.557 503.109 254.185 504.309 277 501C299.815 497.691 315.106 492.056 331 485C346.894 477.944 358.733 470.001 372 460C385.267 449.999 398.987 434.987 410 425C421.013 415.013 438 400 438 400L438 334L438 495" />
<glyph unicode="&#xe7;" glyph-name="ccedilla" horiz-adv-x="561" d="M282.105 24.786L282.105 -22.4905C378.876 -22.4905 311.806 -113.733 239.485 -91.9374M457 498L457 337L457 400L391 457L296 498L224 498L161 479L107 438L69.3 375L53.5 302L53.5 217L75.6 145L126 72.4L198 31.5L252 25.2L312 25.2L400 53.6L454 97.6" />
<glyph unicode="&#xdf;" glyph-name="germandbls" horiz-adv-x="611" d="M109.357 491L14.669 491M11.1688 23.9716L111.969 23.9716L111.969 495.958C116.673 609.091 223.916 688.013 323.469 688.013C423.021 688.013 462.031 637.278 462.031 573.238C462.031 509.197 320.051 506.047 320.051 434.42C320.051 362.793 523.638 359.145 523.638 185.396C523.638 11.6462 274.061 -23.6225 182.365 80.4611" />
<glyph unicode="&#xC6;" glyph-name="AE" horiz-adv-x="920" d="M837.949 177.794L837.949 32.3935L356.449 32.3935L459.949 32.3935L459.949 362.794L740.949 362.794L740.949 444.794L740.949 281.794L740.949 362.794L459.949 362.794L459.949 688.103L831.949 688.103L831.949 549.103M-9.45 34.6L180 34.6L78.8 34.6L457 693M460 274L217 274" />
<glyph unicode="&#x131;" glyph-name="dotlessi" horiz-adv-x="309" d="M37.8 31.5L246 31.5L139 31.5L139 498L37.8 498" />
<glyph unicode="&#x2D8;" glyph-name="breve" horiz-adv-x="485" d="M321.341 628.472C321.341 628.472 328.75 519.311 223.359 518.524C117.969 517.737 123.128 628.472 123.128 628.472" />
<glyph unicode="&#xa3;" glyph-name="sterling" horiz-adv-x="586" d="M38.6 331L426 331M388.455 546.574L385.28 580.914C380.938 627.856 333.022 699.504 250.541 695.539C131.764 689.828 142 553 142 553L142 513.568L142 34.6L41 34.6L510 34.6L510 173" />
<glyph unicode="&#xb8;" glyph-name="cedilla" horiz-adv-x="699" d="M362.178 28.5739L362.178 -31.1291C484.385 -31.1291 399.686 -146.354 308.356 -118.83" />
<glyph unicode="&#xE6;" glyph-name="ae" horiz-adv-x="890" d="M75.6 447C137.337 507.374 210.89 510.677 287 501C363.11 491.323 392.171 440.091 413 375L413 158C362.517 88.2554 309.196 38.3427 225.02 29.1901C140.844 20.0376 44.9482 47.4475 41.9975 138.953C39.0469 230.459 106.74 271.842 186.101 278.01C265.461 284.178 414.45 282.5 414.45 282.5L835 283C838.67 398.328 774.746 499.308 629.25 503.974C483.753 508.641 428.191 416.002 415.674 292.974C403.157 169.946 445.595 86.9495 542 43.8742C638.405 0.79883 729.87 33.0371 813 94.5" />
</font>
</defs>
</svg>
