<?xml version="1.0" encoding="UTF-8" ?>
<!DOCTYPE svg PUBLIC "-//W3C//DTD SVG 1.1//EN" "http://www.w3.org/Graphics/SVG/1.1/DTD/svg11.dtd" >

<svg xmlns="http://www.w3.org/2000/svg" xmlns:xlink="http://www.w3.org/1999/xlink" version="1.1">

<metadata>
Font name: Hershey Gothic Italian

Originally prepared in 2011 and converted to SVG fonts
in 2019 by Windell H. Oskay, www.evilmadscientist.com

Contents adapted from emergent.unpythonic.net/software/hershey
 by way of "Hershey Fonts in SVG" by Marty McGuire
 http://www.thingiverse.com/thing:6168
 
-------------------------------------------------------------------
The Hershey Fonts are a set of vector fonts with a liberal license.

USE RESTRICTION:
    This distribution of the Hershey Fonts may be used by anyone for
    any purpose, commercial or otherwise, providing that:
        1. The following acknowledgements must be distributed with
            the font data:
            - The Hershey Fonts were originally created by Dr.
                A. V. Hershey while working at the U. S.
                National Bureau of Standards.
            - The format of the Font data in this distribution
                was originally created by
                    James Hurt
                    Cognition, Inc.
                    900 Technology Park Drive
                    Billerica, MA 01821
                    (mit-eddie!ci-dandelion!hurt)
        2. The font data in this distribution may be converted into
            any other format *EXCEPT* the format distributed by
            the U.S. NTIS where each point is described
            in eight bytes as "xxx yyy:", where xxx and yyy are
            the coordinate values as ASCII numbers.

</metadata>
<defs>
<font id="HersheyGothItalian" horiz-adv-x="378" >
<font-face
font-family="Hershey Gothic Italian"
units-per-em="1000"
ascent="800"
descent="-200"
cap-height="500"
x-height="300"
/>
<missing-glyph horiz-adv-x="378" />
<glyph unicode=" " glyph-name="space" horiz-adv-x="378" />
<glyph unicode="!" glyph-name="exclam" horiz-adv-x="378" d="M 328 662 L 296 630 L 233 598 L 296 567 L 328 220 M 328 567 L 359 598 L 328 630 L 296 598 L 328 567 L 328 220 M 328 662 L 359 630 L 422 598 L 359 567 L 328 220 M 328 94.5 L 265 31.5 L 328 0 L 391 31.5 L 328 94.5 M 328 63 L 296 31.5 L 359 31.5 L 328 63" />
<glyph unicode="&#x22;" glyph-name="quotedbl" horiz-adv-x="567" d="M 220 662 L 189 630 L 189 441 M 220 630 L 189 441 M 220 662 L 252 630 L 189 441 M 504 662 L 472 630 L 472 441 M 504 630 L 472 441 M 504 662 L 536 630 L 472 441" />
<glyph unicode="#" glyph-name="numbersign" horiz-adv-x="662" d="M 410 788 L 189 -220 M 598 788 L 378 -220 M 189 378 L 630 378 M 158 189 L 598 189" />
<glyph unicode="$" glyph-name="dollar" horiz-adv-x="630" d="M 315 788 L 315 -126 M 441 788 L 441 -126 M 441 662 L 504 630 L 536 567 L 536 504 L 598 536 L 567 598 L 536 630 L 441 662 L 315 662 L 220 630 L 158 567 L 158 472 L 189 410 L 284 346 L 472 284 L 536 252 L 567 189 L 567 94.5 L 536 31.5 M 567 536 L 536 598 M 189 472 L 220 410 L 284 378 L 472 315 L 536 284 L 567 220 M 220 63 L 189 126 M 220 630 L 189 567 L 189 504 L 220 441 L 284 410 L 472 346 L 567 284 L 598 220 L 598 126 L 567 63 L 536 31.5 L 441 0 L 315 0 L 220 31.5 L 189 63 L 158 126 L 220 158 L 220 94.5 L 252 31.5 L 315 0" />
<glyph unicode="%" glyph-name="percent" horiz-adv-x="756" d="M 724 662 L 158 0 M 315 662 L 378 598 L 378 536 L 346 472 L 284 441 L 220 441 L 158 504 L 158 567 L 189 630 L 252 662 L 315 662 L 378 630 L 472 598 L 567 598 L 662 630 L 724 662 M 598 220 L 536 189 L 504 126 L 504 63 L 567 0 L 630 0 L 693 31.5 L 724 94.5 L 724 158 L 662 220 L 598 220" />
<glyph unicode="&amp;" glyph-name="ampersand" horiz-adv-x="819" d="M 693 410 L 724 378 L 756 378 L 788 410 M 662 378 L 693 346 L 756 346 M 662 346 L 693 315 L 724 315 L 756 346 L 788 410 M 693 410 L 504 220 M 472 189 L 284 0 L 158 158 L 346 346 M 378 378 L 504 504 L 378 662 L 220 472 L 410 284 L 536 94.5 L 598 31.5 L 662 0 L 724 0 L 756 31.5 L 788 94.5 M 284 31.5 L 189 158 M 472 504 L 378 630 M 252 472 L 410 315 L 536 126 L 598 63 L 662 31.5 L 756 31.5 M 315 31.5 L 189 189 M 472 472 L 346 630 M 252 504 L 441 315 L 567 126 L 598 94.5 L 662 63 L 756 63 L 788 94.5" />
<glyph unicode="&apos;" glyph-name="quotesingle" horiz-adv-x="284" d="M 220 662 L 189 630 L 189 441 M 220 630 L 189 441 M 220 662 L 252 630 L 189 441" />
<glyph unicode="(" glyph-name="parenleft" horiz-adv-x="441" d="M 378 788 L 315 724 L 252 630 L 189 504 L 158 346 L 158 220 L 189 63 L 252 -63 L 315 -158 L 378 -220 M 252 598 L 220 504 L 189 378 L 189 189 L 220 63 L 252 -31.5 M 315 724 L 284 662 L 252 567 L 220 378 L 220 189 L 252 0 L 284 -94.5 L 315 -158" />
<glyph unicode=")" glyph-name="parenright" horiz-adv-x="441" d="M 189 788 L 252 724 L 315 630 L 378 504 L 410 346 L 410 220 L 378 63 L 315 -63 L 252 -158 L 189 -220 M 315 598 L 346 504 L 378 378 L 378 189 L 346 63 L 315 -31.5 M 252 724 L 284 662 L 315 567 L 346 378 L 346 189 L 315 0 L 284 -94.5 L 252 -158" />
<glyph unicode="*" glyph-name="asterisk" horiz-adv-x="504" d="M 315 662 L 284 630 L 346 315 L 315 284 M 315 662 L 315 284 M 315 662 L 346 630 L 284 315 L 315 284 M 158 567 L 189 567 L 441 378 L 472 378 M 158 567 L 472 378 M 158 567 L 158 536 L 472 410 L 472 378 M 472 567 L 441 567 L 189 378 L 158 378 M 472 567 L 158 378 M 472 567 L 472 536 L 158 410 L 158 378" />
<glyph unicode="+" glyph-name="plus" horiz-adv-x="788" d="M 441 567 L 441 31.5 L 472 31.5 M 441 567 L 472 567 L 472 31.5 M 189 315 L 724 315 L 724 284 M 189 315 L 189 284 L 724 284" />
<glyph unicode="," glyph-name="comma" horiz-adv-x="378" d="M 252 -94.5 L 252 -31.5 L 189 31.5 L 252 94.5 L 284 31.5 L 284 -31.5 L 252 -94.5 L 189 -126 M 252 63 L 220 31.5 L 252 0 L 252 63" />
<glyph unicode="-" glyph-name="hyphen" horiz-adv-x="819" d="M 189 284 L 756 284" />
<glyph unicode="." glyph-name="period" horiz-adv-x="378" d="M 252 94.5 L 189 31.5 L 252 0 L 315 31.5 L 252 94.5 M 252 63 L 220 31.5 L 284 31.5 L 252 63" />
<glyph unicode="/" glyph-name="slash" horiz-adv-x="724" d="M 693 788 L 126 -220 L 158 -220 M 693 788 L 724 788 L 158 -220" />
<glyph unicode="0" glyph-name="zero" horiz-adv-x="630" d="M 189 598 L 189 94.5 L 126 63 M 220 567 L 220 94.5 L 315 31.5 M 252 598 L 252 94.5 L 315 63 L 346 31.5 M 189 598 L 252 598 L 410 630 L 472 662 M 410 630 L 441 598 L 504 567 L 504 63 M 441 630 L 536 567 L 536 94.5 M 472 662 L 504 630 L 567 598 L 630 598 L 567 567 L 567 63 M 126 63 L 189 63 L 252 31.5 L 284 0 L 346 31.5 L 504 63 L 567 63" />
<glyph unicode="1" glyph-name="one" horiz-adv-x="630" d="M 284 598 L 315 567 L 346 504 L 346 94.5 L 284 63 M 346 567 L 315 598 L 346 630 L 378 567 L 378 63 L 441 31.5 M 284 598 L 378 662 L 410 598 L 410 94.5 L 472 63 L 504 63 M 284 63 L 315 63 L 378 31.5 L 410 0 L 441 31.5 L 504 63" />
<glyph unicode="2" glyph-name="two" horiz-adv-x="630" d="M 189 598 L 252 598 L 315 630 L 346 662 L 410 630 L 504 598 L 567 598 M 315 598 L 378 630 M 189 598 L 252 567 L 315 567 L 378 598 L 410 630 M 504 598 L 504 346 M 536 567 L 536 378 M 567 598 L 567 346 L 346 346 L 252 315 L 189 252 L 158 158 L 158 0 M 158 0 L 284 63 L 410 94.5 L 504 94.5 L 630 63 M 252 31.5 L 346 63 L 504 63 L 598 31.5 M 158 0 L 315 31.5 L 472 31.5 L 567 0 L 630 63" />
<glyph unicode="3" glyph-name="three" horiz-adv-x="630" d="M 189 598 L 220 598 L 284 630 L 315 662 L 378 630 L 504 598 L 567 598 M 284 598 L 346 630 M 189 598 L 252 567 L 315 567 L 378 630 M 504 598 L 504 378 M 536 567 L 536 410 M 567 598 L 567 378 L 504 378 L 410 346 L 346 315 M 346 346 L 410 315 L 504 284 L 567 284 L 567 63 M 536 252 L 536 94.5 M 504 284 L 504 63 M 158 63 L 220 94.5 L 284 94.5 L 346 63 L 378 31.5 M 284 63 L 346 31.5 M 158 63 L 220 63 L 284 31.5 L 315 0 L 378 31.5 L 504 63 L 567 63" />
<glyph unicode="4" glyph-name="four" horiz-adv-x="630" d="M 472 662 L 158 346 L 158 189 L 441 189 M 504 189 L 630 189 L 662 158 L 662 220 L 630 189 M 189 346 L 189 220 M 220 410 L 220 189 M 441 630 L 441 94.5 L 378 63 M 472 536 L 504 598 L 472 630 L 472 63 L 536 31.5 M 472 662 L 536 598 L 504 536 L 504 94.5 L 567 63 L 598 63 M 378 63 L 410 63 L 472 31.5 L 504 0 L 536 31.5 L 598 63" />
<glyph unicode="5" glyph-name="five" horiz-adv-x="630" d="M 189 662 L 189 378 M 189 662 L 567 662 M 220 630 L 504 630 M 189 598 L 472 598 L 536 630 L 567 662 M 504 472 L 472 441 L 410 410 L 284 378 L 189 378 M 410 410 L 441 410 L 504 378 L 504 63 M 472 441 L 536 410 L 536 94.5 M 504 472 L 536 441 L 598 410 L 630 410 L 567 378 L 567 63 M 158 63 L 220 94.5 L 284 94.5 L 346 63 L 378 31.5 M 284 63 L 346 31.5 M 158 63 L 220 63 L 284 31.5 L 315 0 L 378 31.5 L 504 63 L 567 63" />
<glyph unicode="6" glyph-name="six" horiz-adv-x="630" d="M 189 598 L 189 94.5 L 126 63 M 220 567 L 220 94.5 L 315 31.5 M 252 598 L 252 94.5 L 315 63 L 346 31.5 M 189 598 L 252 598 L 378 630 L 441 662 L 472 630 L 536 598 L 567 598 M 410 630 L 472 598 M 378 630 L 441 567 L 504 567 L 567 598 M 252 346 L 284 346 L 410 378 L 472 410 L 504 441 M 410 378 L 441 378 L 504 346 L 504 63 M 472 410 L 536 346 L 536 94.5 M 504 441 L 536 410 L 598 378 L 630 378 L 567 346 L 567 63 M 126 63 L 189 63 L 252 31.5 L 284 0 L 346 31.5 L 504 63 L 567 63" />
<glyph unicode="7" glyph-name="seven" horiz-adv-x="630" d="M 158 598 L 220 662 L 315 630 L 472 630 L 630 662 M 189 630 L 284 598 L 441 598 L 536 630 M 158 598 L 284 567 L 378 567 L 504 598 L 630 662 M 630 662 L 598 598 L 536 504 L 410 378 L 346 284 L 315 189 L 315 94.5 L 346 0 M 378 315 L 346 220 L 346 126 L 378 31.5 M 472 441 L 410 346 L 378 252 L 378 158 L 410 63 L 346 0" />
<glyph unicode="8" glyph-name="eight" horiz-adv-x="630" d="M 189 567 L 189 378 M 220 536 L 220 410 M 252 567 L 252 378 M 189 567 L 252 567 L 410 598 L 472 630 L 504 662 M 410 598 L 441 598 L 504 567 L 504 378 M 472 630 L 536 598 L 536 410 M 504 662 L 536 630 L 598 598 L 630 598 L 567 567 L 567 378 M 189 378 L 252 378 L 504 284 L 567 284 M 567 378 L 504 378 L 252 284 L 189 284 M 189 284 L 189 94.5 L 126 63 M 220 252 L 220 94.5 L 315 31.5 M 252 284 L 252 94.5 L 315 63 L 346 31.5 M 504 284 L 504 63 M 536 252 L 536 94.5 M 567 284 L 567 63 M 126 63 L 189 63 L 252 31.5 L 284 0 L 346 31.5 L 504 63 L 567 63" />
<glyph unicode="9" glyph-name="nine" horiz-adv-x="630" d="M 189 598 L 189 315 L 126 284 M 220 567 L 220 284 L 284 252 M 252 598 L 252 315 L 315 284 L 346 284 M 189 598 L 252 598 L 410 630 L 472 662 M 410 630 L 441 598 L 504 567 L 504 63 M 441 630 L 536 567 L 536 94.5 M 472 662 L 504 630 L 567 598 L 630 598 L 567 567 L 567 63 M 126 284 L 158 284 L 220 252 L 252 220 L 284 252 L 346 284 L 472 315 L 504 315 M 158 63 L 220 94.5 L 284 94.5 L 346 63 L 378 31.5 M 284 63 L 346 31.5 M 158 63 L 220 63 L 284 31.5 L 315 0 L 378 31.5 L 504 63 L 567 63" />
<glyph unicode=":" glyph-name="colon" horiz-adv-x="378" d="M 252 441 L 189 378 L 252 346 L 315 378 L 252 441 M 252 410 L 220 378 L 284 378 L 252 410 M 252 94.5 L 189 31.5 L 252 0 L 315 31.5 L 252 94.5 M 252 63 L 220 31.5 L 284 31.5 L 252 63" />
<glyph unicode=";" glyph-name="semicolon" horiz-adv-x="378" d="M 252 441 L 189 378 L 252 346 L 315 378 L 252 441 M 252 410 L 220 378 L 284 378 L 252 410 M 252 -94.5 L 252 -31.5 L 189 31.5 L 252 94.5 L 284 31.5 L 284 -31.5 L 252 -94.5 L 189 -126 M 252 63 L 220 31.5 L 252 0 L 252 63" />
<glyph unicode="&#x3c;" glyph-name="less" horiz-adv-x="756" d="M 693 567 L 189 284 L 693 0" />
<glyph unicode="=" glyph-name="equal" horiz-adv-x="788" d="M 189 441 L 724 441 L 724 410 M 189 441 L 189 410 L 724 410 M 189 189 L 724 189 L 724 158 M 189 189 L 189 158 L 724 158" />
<glyph unicode="&#x3e;" glyph-name="greater" horiz-adv-x="756" d="M 189 567 L 693 284 L 189 0" />
<glyph unicode="?" glyph-name="question" horiz-adv-x="567" d="M 158 536 L 189 598 L 220 630 L 315 662 L 378 662 L 472 630 L 504 598 L 536 536 L 536 472 L 504 410 L 441 346 L 378 315 M 189 536 L 220 598 M 472 598 L 504 567 L 504 441 L 472 410 M 158 536 L 220 504 L 220 567 L 252 630 L 315 662 M 378 662 L 441 630 L 472 567 L 472 441 L 441 378 L 378 315 M 346 315 L 346 220 L 378 315 L 315 315 L 346 220 M 346 94.5 L 284 31.5 L 346 0 L 410 31.5 L 346 94.5 M 346 63 L 315 31.5 L 378 31.5 L 346 63" />
<glyph unicode="@" glyph-name="at" horiz-adv-x="850" d="M 630 410 L 598 472 L 536 504 L 441 504 L 378 472 L 346 441 L 315 346 L 315 252 L 346 189 L 410 158 L 504 158 L 567 189 L 598 252 M 441 504 L 378 441 L 346 346 L 346 252 L 378 189 L 410 158 M 630 504 L 598 252 L 598 189 L 662 158 L 724 158 L 788 220 L 819 315 L 819 378 L 788 472 L 756 536 L 693 598 L 630 630 L 536 662 L 441 662 L 346 630 L 284 598 L 220 536 L 189 472 L 158 378 L 158 284 L 189 189 L 220 126 L 284 63 L 346 31.5 L 441 0 L 536 0 L 630 31.5 L 693 63 L 724 94.5 M 662 504 L 630 252 L 630 189 L 662 158" />
<glyph unicode="A" glyph-name="A" horiz-adv-x="819" d="M 346 598 L 284 567 L 220 504 L 189 441 L 158 346 L 158 252 L 189 189 L 252 158 M 220 472 L 189 378 L 189 252 L 220 189 M 346 598 L 284 536 L 252 472 L 220 378 L 220 284 L 252 158 L 252 94.5 L 220 31.5 L 158 0 M 598 598 L 662 598 L 662 63 L 598 63 M 693 598 L 693 63 M 724 630 L 724 31.5 M 158 662 L 252 630 L 441 598 L 598 598 L 724 630 L 788 662 M 220 346 L 662 346 M 158 0 L 252 31.5 L 441 63 L 598 63 L 724 31.5 L 788 0" />
<glyph unicode="B" glyph-name="B" horiz-adv-x="819" d="M 284 630 L 284 31.5 M 315 630 L 315 31.5 M 410 662 L 346 630 L 346 31.5 L 410 0 M 158 536 L 220 598 L 284 630 L 410 662 L 567 662 L 662 630 L 724 567 L 724 504 L 693 441 M 662 598 L 693 567 L 693 504 L 662 441 M 567 662 L 630 630 L 662 567 L 662 504 L 630 472 M 441 189 L 378 220 L 346 284 L 346 346 L 378 410 L 410 441 L 504 472 L 598 472 L 693 441 L 756 378 L 788 315 L 788 220 L 756 126 L 693 63 L 630 31.5 L 536 0 L 410 0 L 284 31.5 L 220 63 L 158 126 M 724 378 L 756 315 L 756 189 L 724 126 M 598 472 L 693 410 L 724 315 L 724 189 L 693 94.5 L 630 31.5" />
<glyph unicode="C" glyph-name="C" horiz-adv-x="819" d="M 788 662 L 756 598 L 724 536 L 662 598 L 598 630 L 504 662 L 441 662 L 346 630 L 284 598 L 220 536 L 189 472 L 158 378 L 158 284 L 189 189 L 220 126 L 284 63 L 346 31.5 L 441 0 L 504 0 L 598 31.5 L 662 63 L 724 126 L 756 63 L 788 0 M 756 598 L 724 441 L 724 220 L 756 63 M 724 504 L 693 536 M 724 410 L 693 504 L 662 567 L 598 630 M 220 504 L 189 410 L 189 252 L 220 158 M 346 630 L 284 567 L 252 504 L 220 410 L 220 252 L 252 158 L 284 94.5 L 346 31.5 M 693 126 L 724 158 M 598 31.5 L 662 94.5 L 693 158 L 724 252" />
<glyph unicode="D" glyph-name="D" horiz-adv-x="819" d="M 252 630 L 252 31.5 M 284 630 L 284 31.5 M 346 662 L 315 630 L 315 31.5 L 346 0 M 158 504 L 189 567 L 252 630 L 346 662 L 504 662 L 598 630 L 662 598 L 724 536 L 756 472 L 788 378 L 788 284 L 756 189 L 724 126 L 662 63 L 598 31.5 L 504 0 L 346 0 L 252 31.5 L 189 94.5 L 158 158 M 724 504 L 756 410 L 756 252 L 724 158 M 598 630 L 662 567 L 693 504 L 724 410 L 724 252 L 693 158 L 662 94.5 L 598 31.5" />
<glyph unicode="E" glyph-name="E" horiz-adv-x="819" d="M 788 662 L 756 598 L 724 536 L 662 598 L 598 630 L 504 662 L 441 662 L 346 630 L 284 598 L 220 536 L 189 472 L 158 378 L 158 284 L 189 189 L 220 126 L 284 63 L 346 31.5 L 441 0 L 504 0 L 598 31.5 L 662 63 L 724 126 L 756 63 L 788 0 M 756 598 L 724 441 L 724 220 L 756 63 M 724 504 L 693 536 M 724 441 L 662 567 L 598 630 M 220 504 L 189 410 L 189 252 L 220 158 M 346 630 L 284 567 L 252 504 L 220 410 L 220 252 L 252 158 L 284 94.5 L 346 31.5 M 693 126 L 724 158 M 598 31.5 L 662 94.5 L 693 158 L 724 252 M 220 346 L 252 378 L 346 378 L 567 315 L 662 315 L 724 346 M 410 346 L 472 315 L 567 284 L 630 284 L 693 315 M 315 378 L 472 284 L 567 252 L 630 252 L 693 284 L 724 346 M 724 441 L 693 472 L 662 472 L 630 441 L 662 410 L 693 441" />
<glyph unicode="F" glyph-name="F" horiz-adv-x="819" d="M 220 598 L 220 31.5 M 315 630 L 252 598 L 252 63 M 378 662 L 315 630 L 284 567 L 284 63 L 346 63 M 158 536 L 220 598 L 284 630 L 378 662 L 504 662 L 598 630 L 662 598 L 693 567 L 788 662 M 788 662 L 756 598 L 724 472 L 724 378 L 756 252 L 788 189 M 724 567 L 693 504 M 598 630 L 662 567 L 693 472 L 724 378 M 284 346 L 315 378 L 378 378 L 536 346 L 630 346 L 693 378 M 441 346 L 536 315 L 598 315 L 662 346 M 346 378 L 536 284 L 598 284 L 662 315 L 693 378 L 693 472 L 662 504 L 630 504 L 598 472 L 630 441 L 662 472 M 158 0 L 220 31.5 L 346 63 L 504 63 L 693 31.5 L 788 0" />
<glyph unicode="G" glyph-name="G" horiz-adv-x="819" d="M 788 662 L 756 598 L 724 536 L 662 598 L 598 630 L 504 662 L 441 662 L 346 630 L 284 598 L 220 536 L 189 472 L 158 378 L 158 284 L 189 189 L 220 126 L 284 63 L 346 31.5 L 441 0 L 536 0 L 598 31.5 L 662 63 L 693 94.5 L 724 158 L 756 63 L 788 0 M 756 598 L 724 441 L 724 220 L 756 63 M 724 504 L 693 536 M 724 410 L 693 504 L 662 567 L 598 630 M 220 504 L 189 410 L 189 252 L 220 158 M 346 630 L 284 567 L 252 504 L 220 410 L 220 252 L 252 158 L 284 94.5 L 346 31.5 M 662 94.5 L 693 158 L 693 284 M 598 31.5 L 630 63 L 662 158 L 662 315 M 252 252 L 284 284 L 315 252 L 284 220 L 252 220 L 220 252 M 220 346 L 252 410 L 315 441 L 378 441 L 472 410 L 567 346 L 630 315 M 252 378 L 315 410 L 378 410 L 472 378 L 536 346 M 220 346 L 284 378 L 378 378 L 567 315 L 693 315 L 724 346" />
<glyph unicode="H" glyph-name="H" horiz-adv-x="819" d="M 220 630 L 220 31.5 L 158 0 M 252 598 L 252 31.5 M 346 598 L 284 598 L 284 31.5 M 158 662 L 220 630 L 346 598 L 504 598 L 693 630 L 788 662 M 284 346 L 315 410 L 378 472 L 472 504 L 598 504 L 693 472 L 756 410 L 788 315 L 788 220 L 756 189 L 693 158 M 724 410 L 756 346 L 756 252 L 724 189 M 598 504 L 662 472 L 693 441 L 724 378 L 724 252 L 693 158 L 693 94.5 L 724 31.5 L 788 0 M 158 0 L 284 31.5 L 410 31.5 L 567 0" />
<glyph unicode="I" glyph-name="I" horiz-adv-x="819" d="M 441 567 L 441 63 M 472 536 L 472 94.5 M 504 567 L 504 63 M 158 662 L 284 598 L 410 567 L 536 567 L 662 598 L 788 662 M 158 0 L 252 31.5 L 378 63 L 567 63 L 693 31.5 L 788 0" />
<glyph unicode="J" glyph-name="J" horiz-adv-x="819" d="M 536 567 L 598 567 L 598 94.5 L 567 31.5 L 504 0 M 630 567 L 630 94.5 L 598 63 M 662 598 L 662 63 M 158 662 L 284 598 L 410 567 L 536 567 L 662 598 L 788 662 M 189 378 L 158 315 L 158 189 L 189 94.5 L 252 31.5 L 346 0 L 504 0 L 598 31.5 L 662 63 L 724 126 L 788 220 M 189 189 L 220 94.5 L 252 63 M 158 252 L 220 189 L 252 94.5 L 284 31.5 L 346 0" />
<glyph unicode="K" glyph-name="K" horiz-adv-x="819" d="M 220 630 L 220 31.5 L 158 0 M 252 598 L 252 31.5 M 346 598 L 284 598 L 284 31.5 M 158 662 L 220 630 L 346 598 L 504 598 L 693 630 L 788 662 M 284 346 L 315 410 L 378 472 L 472 504 L 567 504 L 662 472 L 693 441 L 693 378 L 662 346 L 504 284 L 441 252 L 410 220 L 410 189 L 441 158 L 472 189 L 441 220 M 630 472 L 662 441 L 662 378 L 630 346 M 567 504 L 630 441 L 630 378 L 598 346 L 504 284 M 504 284 L 598 284 L 693 252 L 724 189 L 724 126 L 693 94.5 M 630 252 L 693 189 L 693 126 M 504 284 L 598 252 L 662 189 L 693 94.5 L 724 31.5 L 756 0 L 788 0 M 158 0 L 284 31.5 L 410 31.5 L 567 0" />
<glyph unicode="L" glyph-name="L" horiz-adv-x="819" d="M 220 630 L 220 31.5 M 252 598 L 252 63 M 346 598 L 284 598 L 284 63 L 346 63 M 788 504 L 724 410 L 693 346 L 662 252 L 662 189 L 693 126 L 756 94.5 M 724 378 L 693 284 L 693 189 L 724 126 M 788 504 L 756 441 L 724 315 L 724 220 L 756 94.5 L 788 0 M 158 662 L 220 630 L 346 598 L 504 598 L 693 630 L 788 662 M 158 0 L 220 31.5 L 346 63 L 504 63 L 693 31.5 L 788 0" />
<glyph unicode="M" glyph-name="M" horiz-adv-x="819" d="M 441 567 L 441 63 M 472 536 L 472 94.5 M 504 567 L 504 63 M 346 63 L 284 126 L 220 158 L 189 189 L 158 284 L 158 441 L 189 536 L 252 598 L 315 630 L 410 662 L 536 662 L 630 630 L 693 598 L 756 536 L 788 441 L 788 284 L 756 189 L 724 158 L 662 126 L 598 63 M 220 189 L 189 284 L 189 441 L 220 536 M 284 126 L 252 189 L 220 284 L 220 472 L 252 567 L 315 630 M 724 536 L 756 441 L 756 284 L 724 189 M 630 630 L 693 567 L 724 472 L 724 284 L 693 189 L 662 126 M 158 662 L 284 598 L 410 567 L 536 567 L 662 598 L 788 662 M 158 0 L 252 31.5 L 378 63 L 567 63 L 693 31.5 L 788 0" />
<glyph unicode="N" glyph-name="N" horiz-adv-x="819" d="M 220 598 L 220 31.5 L 158 0 M 284 598 L 252 567 L 252 31.5 M 378 662 L 315 630 L 284 567 L 284 31.5 M 158 536 L 220 598 L 284 630 L 378 662 L 504 662 L 598 630 L 662 598 L 724 536 L 756 472 L 788 378 L 788 252 L 756 189 L 693 158 M 724 504 L 756 410 L 756 284 L 724 189 M 598 630 L 662 567 L 693 504 L 724 410 L 724 284 L 693 158 L 693 94.5 L 724 31.5 L 756 0 L 788 0 M 158 0 L 284 31.5 L 410 31.5 L 567 0" />
<glyph unicode="O" glyph-name="O" horiz-adv-x="819" d="M 441 662 L 346 630 L 284 598 L 220 536 L 189 472 L 158 378 L 158 284 L 189 189 L 220 126 L 284 63 L 346 31.5 L 441 0 L 504 0 L 598 31.5 L 662 63 L 724 126 L 756 189 L 788 284 L 788 378 L 756 472 L 724 536 L 662 598 L 598 630 L 504 662 L 441 662 M 220 504 L 189 410 L 189 252 L 220 158 M 346 630 L 284 567 L 252 504 L 220 410 L 220 252 L 252 158 L 284 94.5 L 346 31.5 M 724 158 L 756 252 L 756 410 L 724 504 M 598 31.5 L 662 94.5 L 693 158 L 724 252 L 724 410 L 693 504 L 662 567 L 598 630" />
<glyph unicode="P" glyph-name="P" horiz-adv-x="819" d="M 220 567 L 220 31.5 M 315 598 L 252 536 L 252 63 M 441 662 L 378 630 L 315 567 L 284 504 L 284 63 L 346 63 M 158 504 L 220 567 L 346 630 L 441 662 L 536 662 L 630 630 L 693 598 L 756 536 L 788 441 L 788 378 L 756 284 L 693 220 L 598 189 L 472 189 L 378 220 L 315 284 L 284 378 M 724 536 L 756 472 L 756 346 L 724 284 M 630 630 L 693 567 L 724 472 L 724 346 L 693 252 L 598 189 M 158 0 L 220 31.5 L 346 63 L 504 63 L 693 31.5 L 788 0" />
<glyph unicode="Q" glyph-name="Q" horiz-adv-x="819" d="M 441 662 L 346 630 L 284 598 L 220 536 L 189 472 L 158 378 L 158 284 L 189 189 L 220 126 L 284 63 L 346 31.5 L 441 0 L 504 0 L 598 31.5 L 662 63 L 724 126 L 756 189 L 788 284 L 788 378 L 756 472 L 724 536 L 662 598 L 598 630 L 504 662 L 441 662 M 220 504 L 189 410 L 189 252 L 220 158 M 346 630 L 284 567 L 252 504 L 220 410 L 220 252 L 252 158 L 284 94.5 L 346 31.5 M 724 158 L 756 252 L 756 410 L 724 504 M 598 31.5 L 662 94.5 L 693 158 L 724 252 L 724 410 L 693 504 L 662 567 L 598 630 M 220 252 L 252 189 L 346 158 L 536 126 L 756 126 L 788 94.5 L 788 31.5 L 756 0 L 756 31.5 L 788 63 M 410 126 L 472 126 M 252 189 L 346 126 L 441 94.5 L 504 94.5 L 536 126" />
<glyph unicode="R" glyph-name="R" horiz-adv-x="819" d="M 220 567 L 220 31.5 L 158 0 M 252 567 L 252 31.5 M 284 598 L 284 31.5 M 158 504 L 220 567 L 284 598 L 346 630 L 441 662 L 567 662 L 693 630 L 756 567 L 788 504 L 788 410 L 756 346 L 724 315 M 693 598 L 724 567 L 756 504 L 756 410 L 724 346 M 567 662 L 630 630 L 693 567 L 724 504 L 724 378 L 693 315 M 662 284 L 567 252 L 472 252 L 410 284 L 410 346 L 472 378 L 567 378 L 662 346 L 724 284 L 788 189 L 788 126 L 756 94.5 L 724 94.5 M 662 315 L 693 284 L 756 158 L 756 126 L 724 220 M 536 378 L 598 346 L 662 284 L 693 220 L 724 94.5 L 756 31.5 L 788 0 M 158 0 L 284 31.5 L 410 31.5 L 567 0" />
<glyph unicode="S" glyph-name="S" horiz-adv-x="819" d="M 536 662 L 724 630 L 788 662 L 756 598 L 756 536 L 693 598 L 630 630 L 536 662 L 410 662 L 315 630 L 220 536 L 189 441 L 189 378 L 220 284 L 284 220 L 378 189 L 472 189 L 536 220 L 567 252 L 598 315 L 598 346 M 756 630 L 724 598 L 756 536 M 220 346 L 252 284 L 284 252 L 378 220 L 472 220 L 536 252 M 252 567 L 220 504 L 220 410 L 252 346 L 315 284 L 410 252 L 472 252 L 536 284 L 598 346 L 630 378 L 662 378 M 284 315 L 315 315 L 346 346 L 410 410 L 472 441 L 567 441 L 630 410 L 693 346 L 724 284 L 724 189 L 693 94.5 L 630 31.5 M 410 441 L 472 472 L 567 472 L 662 441 L 724 378 L 756 284 L 756 189 L 724 126 M 189 126 L 220 63 L 189 31.5 M 346 346 L 346 378 L 378 441 L 410 472 L 472 504 L 567 504 L 662 472 L 756 378 L 788 284 L 788 220 L 756 126 L 693 63 L 630 31.5 L 536 0 L 410 0 L 315 31.5 L 252 63 L 189 126 L 189 63 L 158 0 L 220 31.5 L 410 0" />
<glyph unicode="T" glyph-name="T" horiz-adv-x="819" d="M 441 598 L 315 598 L 252 567 L 220 536 L 189 472 L 158 378 L 158 252 L 189 158 L 220 94.5 L 252 63 L 315 31.5 L 410 0 L 504 0 L 598 31.5 L 662 63 L 724 126 L 756 189 L 788 284 L 788 410 L 756 504 L 693 567 L 630 598 M 567 598 L 536 567 L 536 504 L 567 472 L 598 504 L 567 536 M 189 252 L 220 158 L 284 94.5 L 346 63 L 441 31.5 L 536 31.5 L 630 63 M 220 536 L 189 410 L 189 315 L 220 220 L 284 126 L 346 94.5 L 441 63 L 536 63 L 630 94.5 L 693 126 L 756 220 L 788 284 M 158 662 L 252 567 M 252 598 L 284 630 M 189 630 L 220 630 L 252 662 L 315 630 L 441 598 L 630 598 L 724 630 L 788 662" />
<glyph unicode="U" glyph-name="U" horiz-adv-x="819" d="M 284 598 L 220 536 L 189 472 L 158 378 L 158 284 L 189 189 L 220 126 L 284 63 L 346 31.5 L 441 0 L 567 0 L 662 31.5 L 724 63 M 252 536 L 220 472 L 189 378 L 189 252 L 220 158 M 252 567 L 284 536 L 284 504 L 252 441 L 220 346 L 220 252 L 252 158 L 284 94.5 L 346 31.5 M 598 598 L 662 598 L 662 94.5 L 630 31.5 L 567 0 M 693 598 L 693 94.5 L 662 63 M 724 630 L 724 63 L 788 0 M 158 662 L 252 630 L 441 598 L 598 598 L 724 630 L 788 662" />
<glyph unicode="V" glyph-name="V" horiz-adv-x="819" d="M 158 662 L 472 0 M 189 630 L 220 598 L 441 126 L 472 63 M 220 630 L 252 598 L 472 126 L 504 94.5 M 788 662 L 472 0 M 630 410 L 567 252 M 693 472 L 567 315 L 536 220 L 536 158 M 158 662 L 220 630 L 378 598 L 567 598 L 724 630 L 788 662" />
<glyph unicode="W" glyph-name="W" horiz-adv-x="819" d="M 284 598 L 220 536 L 189 472 L 158 378 L 158 284 L 189 189 L 220 126 L 284 63 L 346 31.5 L 441 0 L 504 0 L 598 31.5 L 662 63 L 724 126 L 756 189 L 788 284 L 788 378 L 756 472 L 724 536 L 662 598 M 220 472 L 189 378 L 189 284 L 220 189 L 252 126 M 220 536 L 252 504 L 252 472 L 220 378 L 220 284 L 252 158 L 284 94.5 L 346 31.5 M 693 126 L 724 189 L 756 284 L 756 378 L 724 472 M 598 31.5 L 662 94.5 L 693 158 L 724 284 L 724 378 L 693 472 L 693 504 L 724 536 M 441 567 L 441 0 M 472 536 L 472 31.5 M 504 567 L 504 0 M 158 662 L 284 598 L 410 567 L 536 567 L 662 598 L 788 662" />
<glyph unicode="X" glyph-name="X" horiz-adv-x="819" d="M 158 662 L 662 63 L 693 31.5 M 189 630 L 252 598 L 724 31.5 M 284 598 L 788 0 M 788 662 L 504 346 M 441 284 L 220 31.5 M 410 252 L 315 189 L 284 126 M 441 284 L 315 220 L 284 189 L 252 126 L 252 63 M 158 662 L 284 598 L 410 567 L 536 567 L 662 598 L 788 662 M 158 0 L 220 31.5 L 346 63 L 504 63 L 693 31.5 L 788 0" />
<glyph unicode="Y" glyph-name="Y" horiz-adv-x="819" d="M 662 598 L 662 31.5 M 693 598 L 693 63 M 724 630 L 724 63 M 252 598 L 189 536 L 158 441 L 158 346 L 189 252 L 252 189 L 315 158 L 410 126 L 504 126 L 598 158 L 662 189 M 284 189 L 378 158 L 567 158 M 158 346 L 189 284 L 252 220 L 346 189 L 536 189 L 598 158 M 158 662 L 284 598 L 410 567 L 536 567 L 662 598 L 788 662 M 158 126 L 220 63 L 284 31.5 L 410 0 L 536 0 L 662 31.5 L 788 94.5" />
<glyph unicode="Z" glyph-name="Z" horiz-adv-x="819" d="M 158 662 L 189 630 L 252 598 L 346 598 L 504 662 L 598 662 L 693 630 L 724 567 L 724 504 L 693 441 M 662 630 L 693 567 L 693 504 L 662 441 M 598 662 L 630 630 L 662 567 L 662 472 M 662 410 L 536 378 L 472 378 L 410 410 L 410 472 L 472 504 L 536 504 L 662 472 M 536 504 L 598 472 L 630 441 L 598 410 L 536 378 M 693 441 L 756 378 L 788 284 L 788 220 L 756 126 L 693 63 L 630 31.5 L 536 0 L 410 0 L 315 31.5 L 252 63 L 189 126 L 158 220 L 158 284 L 189 378 L 220 410 L 284 441 L 346 441 L 410 410 L 410 346 L 378 315 L 346 346 L 378 378 M 662 441 L 724 378 L 756 315 L 756 189 L 724 126 M 662 410 L 693 378 L 724 315 L 724 189 L 693 94.5 L 630 31.5" />
<glyph unicode="[" glyph-name="bracketleft" horiz-adv-x="441" d="M 189 788 L 189 -220 M 220 788 L 220 -220 M 189 788 L 410 788 M 189 -220 L 410 -220" />
<glyph unicode="\" glyph-name="backslash" horiz-adv-x="441" d="M 63 662 L 504 -94.5" />
<glyph unicode="]" glyph-name="bracketright" horiz-adv-x="441" d="M 346 788 L 346 -220 M 378 788 L 378 -220 M 158 788 L 378 788 M 158 -220 L 378 -220" />
<glyph unicode="^" glyph-name="asciicircum" horiz-adv-x="693" d="M 158 220 L 410 378 L 662 220 M 158 220 L 410 346 L 662 220" />
<glyph unicode="_" glyph-name="underscore" horiz-adv-x="819" d="M 63 -220 L 882 -220" />
<glyph unicode="`" glyph-name="grave" horiz-adv-x="378" d="M 189 662 L 346 472 M 189 662 L 158 630 L 346 472" />
<glyph unicode="a" glyph-name="a" horiz-adv-x="536" d="M 252 315 L 158 220 L 158 94.5 L 252 0 L 378 63 M 189 220 L 189 94.5 L 252 31.5 M 220 284 L 220 126 L 315 31.5 M 315 252 L 158 410 L 189 441 L 220 410 L 189 378 M 220 410 L 346 410 L 410 441 L 472 378 L 472 94.5 L 504 63 M 410 410 L 441 378 L 441 94.5 L 410 63 L 441 31.5 L 472 63 L 441 94.5 M 346 410 L 410 346 L 410 94.5 L 378 63 L 441 0 L 504 63" />
<glyph unicode="b" glyph-name="b" horiz-adv-x="536" d="M 220 598 L 158 662 L 189 536 L 189 94.5 L 284 0 L 441 63 L 504 94.5 M 220 598 L 220 94.5 L 284 31.5 M 220 598 L 284 662 L 252 536 L 252 126 L 346 31.5 M 252 378 L 410 441 L 504 346 L 504 94.5 M 410 410 L 472 346 L 472 94.5 M 346 410 L 441 315 L 441 63" />
<glyph unicode="c" glyph-name="c" horiz-adv-x="378" d="M 158 346 L 158 63 L 220 0 L 284 63 M 189 346 L 189 63 L 220 31.5 M 220 378 L 220 94.5 L 252 63 L 284 63 M 158 346 L 346 441 L 410 378 L 346 346 L 284 410 M 315 410 L 378 378" />
<glyph unicode="d" glyph-name="d" horiz-adv-x="504" d="M 315 441 L 158 346 L 158 94.5 L 252 0 L 315 31.5 L 410 63 L 472 63 M 189 346 L 189 94.5 L 252 31.5 M 220 378 L 220 126 L 315 31.5 M 252 567 L 252 662 L 284 567 L 472 346 L 472 63 M 252 567 L 441 346 L 441 94.5 M 252 567 L 158 567 L 252 536 L 410 346 L 410 63" />
<glyph unicode="e" glyph-name="e" horiz-adv-x="410" d="M 158 346 L 158 63 L 220 0 L 284 63 M 189 346 L 189 63 L 220 31.5 M 220 378 L 220 94.5 L 252 63 L 284 63 M 158 346 L 346 441 L 441 315 L 220 189 M 315 410 L 410 315 M 284 410 L 378 284" />
<glyph unicode="f" glyph-name="f" horiz-adv-x="378" d="M 189 567 L 189 94.5 L 158 63 L 220 0 M 220 567 L 220 94.5 L 189 63 L 220 31.5 L 252 63 L 220 94.5 M 252 598 L 252 94.5 L 284 63 L 220 0 M 189 567 L 378 662 L 441 598 L 378 567 L 315 630 M 346 630 L 410 598 M 94.5 441 L 189 441 M 252 441 L 378 441" />
<glyph unicode="g" glyph-name="g" horiz-adv-x="536" d="M 158 346 L 158 94.5 L 252 0 L 410 63 M 189 346 L 189 94.5 L 252 31.5 M 220 378 L 220 126 L 315 31.5 M 158 346 L 220 378 L 378 441 L 472 346 L 472 -63 L 441 -126 L 410 -158 L 346 -189 L 284 -189 L 220 -158 L 158 -189 L 220 -220 L 284 -189 M 378 410 L 441 346 L 441 -63 L 410 -126 M 252 -189 L 189 -189 M 315 410 L 410 315 L 410 -94.5 L 378 -158 L 346 -189" />
<glyph unicode="h" glyph-name="h" horiz-adv-x="567" d="M 220 598 L 158 662 L 189 536 L 189 94.5 L 158 63 L 220 0 M 220 598 L 220 94.5 L 189 63 L 220 31.5 L 252 63 L 220 94.5 M 220 598 L 284 662 L 252 536 L 252 94.5 L 284 63 L 220 0 M 252 378 L 346 410 L 410 441 L 504 346 L 504 63 L 410 -63 L 410 -158 L 441 -220 L 472 -220 L 410 -158 M 410 410 L 472 346 L 472 63 L 441 0 M 346 410 L 441 315 L 441 31.5 L 410 -63" />
<glyph unicode="i" glyph-name="i" horiz-adv-x="315" d="M 220 662 L 158 598 L 220 536 L 284 598 L 220 662 M 220 630 L 189 598 L 220 567 L 252 598 L 220 630 M 220 441 L 158 378 L 189 346 L 189 94.5 L 158 63 L 220 0 M 220 346 L 252 378 L 220 410 L 189 378 L 220 346 L 220 94.5 L 189 63 L 220 31.5 L 252 63 L 220 94.5 M 220 441 L 284 378 L 252 346 L 252 94.5 L 284 63 L 220 0" />
<glyph unicode="j" glyph-name="j" horiz-adv-x="315" d="M 220 662 L 158 598 L 220 536 L 284 598 L 220 662 M 220 630 L 189 598 L 220 567 L 252 598 L 220 630 M 220 441 L 158 378 L 189 346 L 189 63 L 284 -63 M 220 346 L 252 378 L 220 410 L 189 378 L 220 346 L 220 63 L 252 0 M 220 441 L 284 378 L 252 346 L 252 31.5 L 284 -63 L 284 -158 L 220 -220 L 158 -189 L 158 -220 L 220 -220" />
<glyph unicode="k" glyph-name="k" horiz-adv-x="536" d="M 220 598 L 158 662 L 189 536 L 189 94.5 L 158 63 L 220 0 M 220 598 L 220 94.5 L 189 63 L 220 31.5 L 252 63 L 220 94.5 M 220 598 L 284 662 L 252 536 L 252 94.5 L 284 63 L 220 0 M 252 346 L 346 410 L 410 441 L 472 346 L 378 284 L 252 189 M 378 410 L 441 346 M 346 410 L 410 315 M 346 252 L 378 220 L 410 63 L 472 0 L 536 63 M 378 252 L 410 189 L 441 63 L 472 31.5 M 378 284 L 410 252 L 472 94.5 L 504 63 L 536 63" />
<glyph unicode="l" glyph-name="l" horiz-adv-x="315" d="M 220 598 L 158 662 L 189 536 L 189 94.5 L 158 63 L 220 0 M 220 598 L 220 94.5 L 189 63 L 220 31.5 L 252 63 L 220 94.5 M 220 598 L 284 662 L 252 536 L 252 94.5 L 284 63 L 220 0" />
<glyph unicode="m" glyph-name="m" horiz-adv-x="819" d="M 126 378 L 158 378 L 189 346 L 189 94.5 L 158 63 L 220 0 M 189 410 L 220 378 L 220 94.5 L 189 63 L 220 31.5 L 252 63 L 220 94.5 M 126 378 L 189 441 L 252 378 L 252 94.5 L 284 63 L 220 0 M 252 378 L 346 410 L 410 441 L 504 378 L 504 94.5 L 536 63 L 472 0 M 410 410 L 472 378 L 472 94.5 L 441 63 L 472 31.5 L 504 63 L 472 94.5 M 346 410 L 441 346 L 441 94.5 L 410 63 L 472 0 M 504 378 L 598 410 L 662 441 L 756 378 L 756 94.5 L 788 63 L 724 0 M 662 410 L 724 378 L 724 94.5 L 693 63 L 724 31.5 L 756 63 L 724 94.5 M 598 410 L 693 346 L 693 94.5 L 662 63 L 724 0" />
<glyph unicode="n" glyph-name="n" horiz-adv-x="567" d="M 126 378 L 158 378 L 189 346 L 189 94.5 L 158 63 L 220 0 M 189 410 L 220 378 L 220 94.5 L 189 63 L 220 31.5 L 252 63 L 220 94.5 M 126 378 L 189 441 L 252 378 L 252 94.5 L 284 63 L 220 0 M 252 378 L 346 410 L 410 441 L 504 378 L 504 94.5 L 536 63 L 472 0 M 410 410 L 472 378 L 472 94.5 L 441 63 L 472 31.5 L 504 63 L 472 94.5 M 346 410 L 441 346 L 441 94.5 L 410 63 L 472 0" />
<glyph unicode="o" glyph-name="o" horiz-adv-x="504" d="M 158 346 L 158 94.5 L 252 0 L 410 63 L 472 94.5 M 189 346 L 189 94.5 L 252 31.5 M 220 378 L 220 126 L 315 31.5 M 158 346 L 220 378 L 378 441 L 472 346 L 472 94.5 M 378 410 L 441 346 L 441 94.5 M 315 410 L 410 315 L 410 63" />
<glyph unicode="p" glyph-name="p" horiz-adv-x="536" d="M 158 441 L 189 378 L 189 94.5 L 126 63 L 189 63 L 189 -126 L 158 -220 L 220 -158 M 220 378 L 220 -158 M 158 441 L 220 410 L 252 378 L 252 94.5 L 315 63 L 346 31.5 M 220 63 L 252 63 L 315 31.5 M 252 31.5 L 284 0 L 441 63 L 504 94.5 M 252 31.5 L 252 -126 L 284 -220 L 220 -158 M 252 378 L 346 410 L 410 441 L 504 346 L 504 94.5 M 410 410 L 472 346 L 472 94.5 M 346 410 L 441 315 L 441 63" />
<glyph unicode="q" glyph-name="q" horiz-adv-x="536" d="M 158 346 L 158 94.5 L 252 0 L 410 63 M 189 346 L 189 94.5 L 252 31.5 M 220 378 L 220 126 L 315 31.5 M 158 346 L 220 378 L 378 441 L 472 346 L 472 -126 L 504 -220 L 441 -158 M 378 410 L 441 346 L 441 -158 M 315 410 L 410 315 L 410 -126 L 378 -220 L 441 -158" />
<glyph unicode="r" glyph-name="r" horiz-adv-x="410" d="M 126 378 L 158 378 L 189 346 L 189 94.5 L 158 63 L 220 0 M 189 410 L 220 378 L 220 94.5 L 189 63 L 220 31.5 L 252 63 L 220 94.5 M 126 378 L 189 441 L 252 378 L 252 94.5 L 284 63 L 220 0 M 252 378 L 378 441 L 441 378 L 378 346 L 315 410 M 346 410 L 410 378" />
<glyph unicode="s" glyph-name="s" horiz-adv-x="504" d="M 158 346 L 158 252 L 220 189 L 410 284 L 472 220 L 472 94.5 M 189 346 L 189 252 L 220 220 M 220 378 L 220 252 L 252 220 M 410 252 L 441 220 L 441 94.5 M 378 252 L 410 220 L 410 63 M 158 346 L 346 441 L 441 410 L 378 378 L 284 410 M 315 410 L 410 410 M 472 94.5 L 284 0 L 158 63 L 220 94.5 L 346 31.5 M 220 63 L 284 31.5" />
<glyph unicode="t" glyph-name="t" horiz-adv-x="315" d="M 220 598 L 158 662 L 189 536 L 189 94.5 L 158 63 L 220 0 M 220 598 L 220 94.5 L 189 63 L 220 31.5 L 252 63 L 220 94.5 M 220 598 L 284 662 L 252 536 L 252 94.5 L 284 63 L 220 0 M 94.5 441 L 189 441 M 252 441 L 346 441" />
<glyph unicode="u" glyph-name="u" horiz-adv-x="567" d="M 126 378 L 158 378 L 189 346 L 189 63 L 284 0 L 441 63 M 189 410 L 220 378 L 220 63 L 284 31.5 M 126 378 L 189 441 L 252 378 L 252 94.5 L 346 31.5 M 472 441 L 536 378 L 504 346 L 504 94.5 L 536 63 L 567 63 M 472 346 L 504 378 L 472 410 L 441 378 L 472 346 L 472 63 L 504 31.5 M 472 441 L 410 378 L 441 346 L 441 63 L 504 0 L 567 63" />
<glyph unicode="v" glyph-name="v" horiz-adv-x="567" d="M 158 441 L 189 378 L 189 94.5 L 315 0 L 378 63 L 504 126 M 189 410 L 220 378 L 220 94.5 L 315 31.5 M 158 441 L 220 410 L 252 378 L 252 126 L 346 63 L 378 63 M 472 441 L 536 378 L 504 346 L 504 126 M 472 346 L 504 378 L 472 410 L 441 378 L 472 346 L 472 126 M 472 441 L 410 378 L 441 346 L 441 94.5" />
<glyph unicode="w" glyph-name="w" horiz-adv-x="819" d="M 158 441 L 189 378 L 189 94.5 L 315 0 L 378 63 L 441 94.5 M 189 410 L 220 378 L 220 94.5 L 315 31.5 M 158 441 L 220 410 L 252 378 L 252 126 L 346 63 L 378 63 M 472 441 L 410 378 L 441 346 L 441 94.5 L 567 0 L 630 63 L 756 126 M 472 346 L 504 378 L 472 410 L 441 378 L 472 346 L 472 94.5 L 567 31.5 M 472 441 L 536 378 L 504 346 L 504 126 L 598 63 L 630 63 M 724 441 L 788 378 L 756 346 L 756 126 M 724 346 L 756 378 L 724 410 L 693 378 L 724 346 L 724 126 M 724 441 L 662 378 L 693 346 L 693 94.5" />
<glyph unicode="x" glyph-name="x" horiz-adv-x="567" d="M 158 378 L 220 346 L 441 31.5 L 472 0 L 536 63 M 189 410 L 252 378 L 441 63 L 504 31.5 M 158 378 L 220 441 L 252 410 L 472 94.5 L 536 63 M 536 441 L 472 441 L 472 378 L 536 378 L 536 441 L 472 378 L 378 252 M 315 189 L 220 63 L 158 0 L 220 0 L 220 63 L 158 63 L 158 0 M 220 220 L 315 220 M 378 220 L 472 220" />
<glyph unicode="y" glyph-name="y" horiz-adv-x="567" d="M 126 378 L 158 378 L 189 346 L 189 63 L 284 0 L 441 63 M 189 410 L 220 378 L 220 63 L 284 31.5 M 126 378 L 189 441 L 252 378 L 252 94.5 L 346 31.5 M 472 441 L 536 378 L 504 346 L 504 -63 L 472 -126 L 441 -158 L 378 -189 L 315 -189 L 252 -158 L 189 -189 L 252 -220 L 315 -189 M 472 346 L 504 378 L 472 410 L 441 378 L 472 346 L 472 -94.5 L 441 -126 M 284 -189 L 220 -189 M 472 441 L 410 378 L 441 346 L 441 -94.5 L 410 -158 L 378 -189" />
<glyph unicode="z" glyph-name="z" horiz-adv-x="472" d="M 252 410 L 158 346 L 158 378 L 252 410 L 315 441 L 410 378 L 410 252 L 252 189 M 315 410 L 378 378 L 378 252 M 252 410 L 346 346 L 346 252 L 315 220 M 252 189 L 410 126 L 410 -63 L 378 -126 L 346 -158 L 284 -189 L 220 -189 L 158 -158 L 94.5 -189 L 158 -220 L 220 -189 M 378 126 L 378 -94.5 L 346 -126 M 189 -189 L 126 -189 M 315 158 L 346 126 L 346 -94.5 L 315 -158 L 284 -189" />
<glyph unicode="{" glyph-name="braceleft" horiz-adv-x="441" d="M 346 788 L 284 756 L 252 724 L 220 662 L 220 598 L 252 536 L 284 504 L 315 441 L 315 378 L 252 315 M 284 756 L 252 693 L 252 630 L 284 567 L 315 536 L 346 472 L 346 410 L 315 346 L 189 284 L 315 220 L 346 158 L 346 94.5 L 315 31.5 L 284 0 L 252 -63 L 252 -126 L 284 -189 M 252 252 L 315 189 L 315 126 L 284 63 L 252 31.5 L 220 -31.5 L 220 -94.5 L 252 -158 L 284 -189 L 346 -220" />
<glyph unicode="|" glyph-name="bar" horiz-adv-x="252" d="M 189 788 L 189 -220" />
<glyph unicode="}" glyph-name="braceright" horiz-adv-x="441" d="M 220 788 L 284 756 L 315 724 L 346 662 L 346 598 L 315 536 L 284 504 L 252 441 L 252 378 L 315 315 M 284 756 L 315 693 L 315 630 L 284 567 L 252 536 L 220 472 L 220 410 L 252 346 L 378 284 L 252 220 L 220 158 L 220 94.5 L 252 31.5 L 284 0 L 315 -63 L 315 -126 L 284 -189 M 315 252 L 252 189 L 252 126 L 284 63 L 315 31.5 L 346 -31.5 L 346 -94.5 L 315 -158 L 284 -189 L 220 -220" />
<glyph unicode="~" glyph-name="asciitilde" horiz-adv-x="756" d="M 158 189 L 158 252 L 189 346 L 252 378 L 315 378 L 378 346 L 504 252 L 567 220 L 630 220 L 693 252 L 724 315 M 158 252 L 189 315 L 252 346 L 315 346 L 378 315 L 504 220 L 567 189 L 630 189 L 693 220 L 724 315 L 724 378" />
<glyph unicode="&#xa0;" glyph-name="nbspace" horiz-adv-x="378" />
<glyph unicode="&#xa1;" glyph-name="exclamdown" horiz-adv-x="378" d="M 252 0 L 284 31.5 L 346 63 L 284 94.5 L 252 441 M 252 94.5 L 220 63 L 252 31.5 L 284 63 L 252 94.5 L 252 441 M 252 0 L 220 31.5 L 158 63 L 220 94.5 L 252 441 M 252 567 L 315 630 L 252 662 L 189 630 L 252 567 M 252 598 L 284 630 L 220 630 L 252 598" />
<glyph unicode="&#xa2;" glyph-name="cent" horiz-adv-x="151" d="M 158 346 L 158 63 L 220 0 L 284 63 M 189 346 L 189 63 L 220 31.5 M 220 378 L 220 94.5 L 252 63 L 284 63 M 158 346 L 346 441 L 410 378 L 346 346 L 284 410 M 315 410 L 378 378 M 302 472 L 302 -132" />
<glyph unicode="&#xa5;" glyph-name="yen" horiz-adv-x="693" d="M 126 662 L 346 315 L 346 0 M 158 662 L 378 315 L 378 31.5 M 189 662 L 410 315 L 410 0 M 598 630 L 410 315 M 63 662 L 284 662 M 504 662 L 693 662 M 252 0 L 504 0 M 94.5 662 L 158 630 M 252 662 L 189 630 M 536 662 L 598 630 M 662 662 L 598 630 M 346 31.5 L 284 0 M 346 63 L 315 0 M 410 63 L 441 0 M 410 31.5 L 472 0 M 208 170 L 548 170 M 208 265 L 548 265" />
<glyph unicode="&#xa6;" glyph-name="brokenbar" horiz-adv-x="75.6" d="M 227 236 L 227 -66.1 M 227 709 L 227 406" />
<glyph unicode="&#xa8;" glyph-name="dieresis" horiz-adv-x="567" d=" M 253 724 L 190 662 L 253 630 L 316 662 L 253 724 M 253 693 L 222 662 L 285 662 L 253 693 M 503 724 L 440 662 L 503 630 L 566 662 L 503 724 M 503 693 L 471 662 L 534 662 L 503 693" />
<glyph unicode="&#xa9;" glyph-name="copyright" horiz-adv-x="693" d="M 378 662 L 315 630 L 252 567 L 220 504 L 189 410 L 189 252 L 220 158 L 252 94.5 L 315 31.5 L 378 0 L 504 0 L 567 31.5 L 630 94.5 L 662 158 L 693 252 L 693 410 L 662 504 L 630 567 L 567 630 L 504 662 L 378 662 M 410 630 L 315 598 L 252 504 L 220 410 L 220 252 L 252 158 L 315 63 L 410 31.5 L 472 31.5 L 567 63 L 630 158 L 662 252 L 662 410 L 630 504 L 567 598 L 472 630 L 410 630 M 551 410 L 536 441 L 504 472 L 472 488 L 410 488 L 378 472 L 346 441 L 331 410 L 315 362 L 315 284 L 331 236 L 346 205 L 378 173 L 410 158 L 472 158 L 504 173 L 536 205 L 551 236 M 551 410 L 536 410 L 520 441 L 504 457 L 472 472 L 410 472 L 378 457 L 346 410 L 331 362 L 331 284 L 346 236 L 378 189 L 410 173 L 472 173 L 504 189 L 520 205 L 536 236 L 551 236" />
<glyph unicode="&#xaa;" glyph-name="ordfeminine" horiz-adv-x="268" d="M 252 788 L 205 740 L 205 677 L 252 630 L 315 662 M 220 740 L 220 677 L 252 646 M 236 772 L 236 693 L 284 646 M 284 756 L 205 835 L 220 850 L 236 835 L 220 819 M 236 835 L 299 835 L 331 850 L 362 819 L 362 677 L 378 662 M 331 835 L 346 819 L 346 677 L 331 662 L 346 646 L 362 662 L 346 677 M 299 835 L 331 803 L 331 677 L 315 662 L 346 630 L 378 662" />
<glyph unicode="&#xab;" glyph-name="guillemotleft" horiz-adv-x="454" d="M 277 454 L 75.6 227 L 277 0 M 403 454 L 202 227 L 403 0" />
<glyph unicode="&#xae;" glyph-name="registered" horiz-adv-x="693" d="M 378 662 L 315 630 L 252 567 L 220 504 L 189 410 L 189 252 L 220 158 L 252 94.5 L 315 31.5 L 378 0 L 504 0 L 567 31.5 L 630 94.5 L 662 158 L 693 252 L 693 410 L 662 504 L 630 567 L 567 630 L 504 662 L 378 662 M 410 630 L 315 598 L 252 504 L 220 410 L 220 252 L 252 158 L 315 63 L 410 31.5 L 472 31.5 L 567 63 L 630 158 L 662 252 L 662 410 L 630 504 L 567 598 L 472 630 L 410 630 M 331 488 L 331 158 M 346 472 L 346 158 L 331 158 M 331 488 L 457 488 L 504 472 L 520 457 L 536 425 L 536 378 L 520 346 L 504 331 L 457 315 L 346 315 M 346 472 L 457 472 L 504 457 L 520 425 L 520 378 L 504 346 L 457 331 L 346 331 M 425 315 L 520 158 L 536 158 M 441 315 L 536 158" />
<glyph unicode="&#xb0;" glyph-name="degree" horiz-adv-x="249" d="M 236 765 L 217 756 L 198 737 L 189 718 L 180 690 L 180 643 L 189 614 L 198 595 L 217 576 L 236 567 L 274 567 L 293 576 L 312 595 L 321 614 L 331 643 L 331 690 L 321 718 L 312 737 L 293 756 L 274 765 L 236 765" />
<glyph unicode="&#xb1;" glyph-name="plusminus" horiz-adv-x="630" d="M 605 37.8 L 1058.4 37.8 M 806 643 L 806 214 L 832 214 M 806 643 L 832 643 L 832 214 M 605 441 L 1033.2 441 L 1033.2 416 M 605 441 L 605 416 L 1033.2 416" />
<glyph unicode="&#xb2;" glyph-name="twosuperior" horiz-adv-x="315" d="M 220 929 L 252 929 L 284 945 L 299 961 L 331 945 L 378 929 L 410 929 M 284 929 L 315 945 M 220 929 L 252 914 L 284 914 L 315 929 L 331 945 M 378 929 L 378 803 M 394 914 L 394 819 M 410 929 L 410 803 L 299 803 L 252 788 L 220 756 L 205 709 L 205 630 M 205 630 L 268 662 L 331 677 L 378 677 L 441 662 M 252 646 L 299 662 L 378 662 L 425 646 M 205 630 L 284 646 L 362 646 L 410 630 L 441 662" />
<glyph unicode="&#xb3;" glyph-name="threesuperior" horiz-adv-x="315" d="M 220 929 L 236 929 L 268 945 L 284 961 L 315 945 L 378 929 L 410 929 M 268 929 L 299 945 M 220 929 L 252 914 L 284 914 L 315 945 M 378 929 L 378 819 M 394 914 L 394 835 M 410 929 L 410 819 L 378 819 L 331 803 L 299 788 M 299 803 L 331 788 L 378 772 L 410 772 L 410 662 M 394 756 L 394 677 M 378 772 L 378 662 M 205 662 L 236 677 L 268 677 L 299 662 L 315 646 M 268 662 L 299 646 M 205 662 L 236 662 L 268 646 L 284 630 L 315 646 L 378 662 L 410 662" />
<glyph unicode="&#xb4;" glyph-name="acute" horiz-adv-x="378" d=" M 410 788 L 252 598 M 410 788 L 441 756 L 252 598" />
<glyph unicode="&#xb7;" glyph-name="middot" horiz-adv-x="454" d="M 378 416 L 302 340 L 378 302 L 454 340 L 378 416 M 378 378 L 340 340 L 416 340 L 378 378" />
<glyph unicode="&#xb9;" glyph-name="onesuperior" horiz-adv-x="315" d="M 268 929 L 284 914 L 299 882 L 299 677 L 268 662 M 299 914 L 284 929 L 299 945 L 315 914 L 315 662 L 346 646 M 268 929 L 315 961 L 331 929 L 331 677 L 362 662 L 378 662 M 268 662 L 284 662 L 315 646 L 331 630 L 346 646 L 378 662" />
<glyph unicode="&#xba;" glyph-name="ordmasculine" horiz-adv-x="249" d="M 236 765 L 217 756 L 198 737 L 189 718 L 180 690 L 180 643 L 189 614 L 198 595 L 217 576 L 236 567 L 274 567 L 293 576 L 312 595 L 321 614 L 331 643 L 331 690 L 321 718 L 312 737 L 293 756 L 274 765 L 236 765" />
<glyph unicode="&#xbb;" glyph-name="guillemotright" horiz-adv-x="454" d="M 75.6 454 L 277 227 L 75.6 0 M 202 454 L 403 227 L 202 0" />
<glyph unicode="&#xbc;" glyph-name="onequarter" horiz-adv-x="680" d="M 170 737 L 189 718 L 208 680 L 208 435 L 170 416 M 208 718 L 189 737 L 208 756 L 227 718 L 227 416 L 265 397 M 170 737 L 227 775 L 246 737 L 246 435 L 284 416 L 302 416 M 170 416 L 189 416 L 227 397 L 246 378 L 265 397 L 302 416 M 756 850 L 189 -158 L 220 -158 M 756 850 L 788 850 L 220 -158 M 775 397 L 586 208 L 586 113 L 756 113 M 794 113 L 869 113 L 888 94.5 L 888 132 L 869 113 M 605 208 L 605 132 M 624 246 L 624 113 M 756 378 L 756 56.7 L 718 37.8 M 775 321 L 794 359 L 775 378 L 775 37.8 L 813 18.9 M 775 397 L 813 359 L 794 321 L 794 56.7 L 832 37.8 L 850 37.8 M 718 37.8 L 737 37.8 L 775 18.9 L 794 0 L 813 18.9 L 850 37.8" />
<glyph unicode="&#xbd;" glyph-name="onehalf" horiz-adv-x="680" d="M 170 737 L 189 718 L 208 680 L 208 435 L 170 416 M 208 718 L 189 737 L 208 756 L 227 718 L 227 416 L 265 397 M 170 737 L 227 775 L 246 737 L 246 435 L 284 416 L 302 416 M 170 416 L 189 416 L 227 397 L 246 378 L 265 397 L 302 416 M 756 850 L 189 -158 L 220 -158 M 756 850 L 788 850 L 220 -158 M 605 359 L 643 359 L 680 378 L 699 397 L 737 378 L 794 359 L 832 359 M 680 359 L 718 378 M 605 359 L 643 340 L 680 340 L 718 359 L 737 378 M 794 359 L 794 208 M 813 340 L 813 227 M 832 359 L 832 208 L 699 208 L 643 189 L 605 151 L 586 94.5 L 586 0 M 586 0 L 662 37.8 L 737 56.7 L 794 56.7 L 869 37.8 M 643 18.9 L 699 37.8 L 794 37.8 L 850 18.9 M 586 0 L 680 18.9 L 775 18.9 L 832 0 L 869 37.8" />
<glyph unicode="&#xbe;" glyph-name="threequarters" horiz-adv-x="680" d="M 113 737 L 132 737 L 170 756 L 189 775 L 227 756 L 302 737 L 340 737 M 170 737 L 208 756 M 113 737 L 151 718 L 189 718 L 227 756 M 302 737 L 302 605 M 321 718 L 321 624 M 340 737 L 340 605 L 302 605 L 246 586 L 208 567 M 208 586 L 246 567 L 302 548 L 340 548 L 340 416 M 321 529 L 321 435 M 302 548 L 302 416 M 94.5 416 L 132 435 L 170 435 L 208 416 L 227 397 M 170 416 L 208 397 M 94.5 416 L 132 416 L 170 397 L 189 378 L 227 397 L 302 416 L 340 416 M 756 850 L 189 -158 L 220 -158 M 756 850 L 788 850 L 220 -158 M 775 397 L 586 208 L 586 113 L 756 113 M 794 113 L 869 113 L 888 94.5 L 888 132 L 869 113 M 605 208 L 605 132 M 624 246 L 624 113 M 756 378 L 756 56.7 L 718 37.8 M 775 321 L 794 359 L 775 378 L 775 37.8 L 813 18.9 M 775 397 L 813 359 L 794 321 L 794 56.7 L 832 37.8 L 850 37.8 M 718 37.8 L 737 37.8 L 775 18.9 L 794 0 L 813 18.9 L 850 37.8" />
<glyph unicode="&#xbf;" glyph-name="questiondown" horiz-adv-x="567" d="M 536 126 L 504 63 L 472 31.5 L 378 0 L 315 0 L 220 31.5 L 189 63 L 158 126 L 158 189 L 189 252 L 252 315 L 315 346 M 504 126 L 472 63 M 220 63 L 189 94.5 L 189 220 L 220 252 M 536 126 L 472 158 L 472 94.5 L 441 31.5 L 378 0 M 315 0 L 252 31.5 L 220 94.5 L 220 220 L 252 284 L 315 346 M 346 346 L 346 441 L 315 346 L 378 346 L 346 441 M 346 567 L 410 630 L 346 662 L 284 630 L 346 567 M 346 598 L 378 630 L 315 630 L 346 598" />
<glyph unicode="&#xc0;" glyph-name="Agrave" horiz-adv-x="819" d="M 346 598 L 284 567 L 220 504 L 189 441 L 158 346 L 158 252 L 189 189 L 252 158 M 220 472 L 189 378 L 189 252 L 220 189 M 346 598 L 284 536 L 252 472 L 220 378 L 220 284 L 252 158 L 252 94.5 L 220 31.5 L 158 0 M 598 598 L 662 598 L 662 63 L 598 63 M 693 598 L 693 63 M 724 630 L 724 31.5 M 158 662 L 252 630 L 441 598 L 598 598 L 724 630 L 788 662 M 220 346 L 662 346 M 158 0 L 252 31.5 L 441 63 L 598 63 L 724 31.5 L 788 0 M 315 1039.5 L 472 850 M 315 1039.5 L 284 1008.0 L 472 850" />
<glyph unicode="&#xc1;" glyph-name="Aacute" horiz-adv-x="819" d="M 346 598 L 284 567 L 220 504 L 189 441 L 158 346 L 158 252 L 189 189 L 252 158 M 220 472 L 189 378 L 189 252 L 220 189 M 346 598 L 284 536 L 252 472 L 220 378 L 220 284 L 252 158 L 252 94.5 L 220 31.5 L 158 0 M 598 598 L 662 598 L 662 63 L 598 63 M 693 598 L 693 63 M 724 630 L 724 31.5 M 158 662 L 252 630 L 441 598 L 598 598 L 724 630 L 788 662 M 220 346 L 662 346 M 158 0 L 252 31.5 L 441 63 L 598 63 L 724 31.5 L 788 0 M 724 1008.0 L 567 819 M 724 1008.0 L 756 976 L 567 819" />
<glyph unicode="&#xc2;" glyph-name="Acircumflex" horiz-adv-x="819" d="M 346 598 L 284 567 L 220 504 L 189 441 L 158 346 L 158 252 L 189 189 L 252 158 M 220 472 L 189 378 L 189 252 L 220 189 M 346 598 L 284 536 L 252 472 L 220 378 L 220 284 L 252 158 L 252 94.5 L 220 31.5 L 158 0 M 598 598 L 662 598 L 662 63 L 598 63 M 693 598 L 693 63 M 724 630 L 724 31.5 M 158 662 L 252 630 L 441 598 L 598 598 L 724 630 L 788 662 M 220 346 L 662 346 M 158 0 L 252 31.5 L 441 63 L 598 63 L 724 31.5 L 788 0 M 346 772 L 472 850 L 598 772 M 346 772 L 472 835 L 598 772" />
<glyph unicode="&#xc3;" glyph-name="Atilde" horiz-adv-x="819" d="M 346 598 L 284 567 L 220 504 L 189 441 L 158 346 L 158 252 L 189 189 L 252 158 M 220 472 L 189 378 L 189 252 L 220 189 M 346 598 L 284 536 L 252 472 L 220 378 L 220 284 L 252 158 L 252 94.5 L 220 31.5 L 158 0 M 598 598 L 662 598 L 662 63 L 598 63 M 693 598 L 693 63 M 724 630 L 724 31.5 M 158 662 L 252 630 L 441 598 L 598 598 L 724 630 L 788 662 M 220 346 L 662 346 M 158 0 L 252 31.5 L 441 63 L 598 63 L 724 31.5 L 788 0 M 258 756 L 258 794 L 277 850 L 315 869 L 353 869 L 391 850 L 466 794 L 504 775 L 542 775 L 580 794 L 598 832 M 258 794 L 277 832 L 315 850 L 353 850 L 391 832 L 466 775 L 504 756 L 542 756 L 580 775 L 598 832 L 598 869" />
<glyph unicode="&#xc4;" glyph-name="Adieresis" horiz-adv-x="819" d="M 346 598 L 284 567 L 220 504 L 189 441 L 158 346 L 158 252 L 189 189 L 252 158 M 220 472 L 189 378 L 189 252 L 220 189 M 346 598 L 284 536 L 252 472 L 220 378 L 220 284 L 252 158 L 252 94.5 L 220 31.5 L 158 0 M 598 598 L 662 598 L 662 63 L 598 63 M 693 598 L 693 63 M 724 630 L 724 31.5 M 158 662 L 252 630 L 441 598 L 598 598 L 724 630 L 788 662 M 220 346 L 662 346 M 158 0 L 252 31.5 L 441 63 L 598 63 L 724 31.5 L 788 0 M 377 945 L 314 882 L 377 850 L 440 882 L 377 945 M 377 914 L 345 882 L 408 882 L 377 914 M 631 945 L 568 882 L 631 850 L 694 882 L 631 945 M 631 914 L 600 882 L 663 882 L 631 914" />
<glyph unicode="&#xc5;" glyph-name="Aring" horiz-adv-x="630" d="M 410 662 L 158 0 M 410 567 L 189 0 L 158 0 M 410 567 L 630 0 L 662 0 M 410 662 L 662 0 M 252 189 L 567 189 M 220 158 L 598 158 M 444 1048.9 L 425 1039.5 L 406 1020.6 L 397 1001.7 L 387 973 L 387 926 L 397 898 L 406 879 L 425 860 L 444 850 L 482 850 L 501 860 L 520 879 L 529 898 L 539 926 L 539 973 L 529 1001.7 L 520 1020.6 L 501 1039.5 L 482 1048.9 L 444 1048.9 M 454 1039.5 L 425 1030.0 L 406 1001.7 L 397 973 L 397 926 L 406 898 L 425 869 L 454 860 L 472 860 L 501 869 L 520 898 L 529 926 L 529 973 L 520 1001.7 L 501 1030.0 L 472 1039.5 L 454 1039.5" />
<glyph unicode="&#xc8;" glyph-name="Egrave" horiz-adv-x="819" d="M 788 662 L 756 598 L 724 536 L 662 598 L 598 630 L 504 662 L 441 662 L 346 630 L 284 598 L 220 536 L 189 472 L 158 378 L 158 284 L 189 189 L 220 126 L 284 63 L 346 31.5 L 441 0 L 504 0 L 598 31.5 L 662 63 L 724 126 L 756 63 L 788 0 M 756 598 L 724 441 L 724 220 L 756 63 M 724 504 L 693 536 M 724 441 L 662 567 L 598 630 M 220 504 L 189 410 L 189 252 L 220 158 M 346 630 L 284 567 L 252 504 L 220 410 L 220 252 L 252 158 L 284 94.5 L 346 31.5 M 693 126 L 724 158 M 598 31.5 L 662 94.5 L 693 158 L 724 252 M 220 346 L 252 378 L 346 378 L 567 315 L 662 315 L 724 346 M 410 346 L 472 315 L 567 284 L 630 284 L 693 315 M 315 378 L 472 284 L 567 252 L 630 252 L 693 284 L 724 346 M 724 441 L 693 472 L 662 472 L 630 441 L 662 410 L 693 441 M 315 1039.5 L 472 850 M 315 1039.5 L 284 1008.0 L 472 850" />
<glyph unicode="&#xc9;" glyph-name="Eacute" horiz-adv-x="819" d="M 788 662 L 756 598 L 724 536 L 662 598 L 598 630 L 504 662 L 441 662 L 346 630 L 284 598 L 220 536 L 189 472 L 158 378 L 158 284 L 189 189 L 220 126 L 284 63 L 346 31.5 L 441 0 L 504 0 L 598 31.5 L 662 63 L 724 126 L 756 63 L 788 0 M 756 598 L 724 441 L 724 220 L 756 63 M 724 504 L 693 536 M 724 441 L 662 567 L 598 630 M 220 504 L 189 410 L 189 252 L 220 158 M 346 630 L 284 567 L 252 504 L 220 410 L 220 252 L 252 158 L 284 94.5 L 346 31.5 M 693 126 L 724 158 M 598 31.5 L 662 94.5 L 693 158 L 724 252 M 220 346 L 252 378 L 346 378 L 567 315 L 662 315 L 724 346 M 410 346 L 472 315 L 567 284 L 630 284 L 693 315 M 315 378 L 472 284 L 567 252 L 630 252 L 693 284 L 724 346 M 724 441 L 693 472 L 662 472 L 630 441 L 662 410 L 693 441 M 724 1008.0 L 567 819 M 724 1008.0 L 756 976 L 567 819" />
<glyph unicode="&#xca;" glyph-name="Ecircumflex" horiz-adv-x="819" d="M 788 662 L 756 598 L 724 536 L 662 598 L 598 630 L 504 662 L 441 662 L 346 630 L 284 598 L 220 536 L 189 472 L 158 378 L 158 284 L 189 189 L 220 126 L 284 63 L 346 31.5 L 441 0 L 504 0 L 598 31.5 L 662 63 L 724 126 L 756 63 L 788 0 M 756 598 L 724 441 L 724 220 L 756 63 M 724 504 L 693 536 M 724 441 L 662 567 L 598 630 M 220 504 L 189 410 L 189 252 L 220 158 M 346 630 L 284 567 L 252 504 L 220 410 L 220 252 L 252 158 L 284 94.5 L 346 31.5 M 693 126 L 724 158 M 598 31.5 L 662 94.5 L 693 158 L 724 252 M 220 346 L 252 378 L 346 378 L 567 315 L 662 315 L 724 346 M 410 346 L 472 315 L 567 284 L 630 284 L 693 315 M 315 378 L 472 284 L 567 252 L 630 252 L 693 284 L 724 346 M 724 441 L 693 472 L 662 472 L 630 441 L 662 410 L 693 441 M 346 772 L 472 850 L 598 772 M 346 772 L 472 835 L 598 772" />
<glyph unicode="&#xcb;" glyph-name="Edieresis" horiz-adv-x="819" d="M 788 662 L 756 598 L 724 536 L 662 598 L 598 630 L 504 662 L 441 662 L 346 630 L 284 598 L 220 536 L 189 472 L 158 378 L 158 284 L 189 189 L 220 126 L 284 63 L 346 31.5 L 441 0 L 504 0 L 598 31.5 L 662 63 L 724 126 L 756 63 L 788 0 M 756 598 L 724 441 L 724 220 L 756 63 M 724 504 L 693 536 M 724 441 L 662 567 L 598 630 M 220 504 L 189 410 L 189 252 L 220 158 M 346 630 L 284 567 L 252 504 L 220 410 L 220 252 L 252 158 L 284 94.5 L 346 31.5 M 693 126 L 724 158 M 598 31.5 L 662 94.5 L 693 158 L 724 252 M 220 346 L 252 378 L 346 378 L 567 315 L 662 315 L 724 346 M 410 346 L 472 315 L 567 284 L 630 284 L 693 315 M 315 378 L 472 284 L 567 252 L 630 252 L 693 284 L 724 346 M 724 441 L 693 472 L 662 472 L 630 441 L 662 410 L 693 441 M 383 945 L 320 882 L 383 850 L 446 882 L 383 945 M 383 914 L 352 882 L 415 882 L 383 914 M 625 945 L 562 882 L 625 850 L 688 882 L 625 945 M 625 914 L 593 882 L 656 882 L 625 914" />
<glyph unicode="&#xcc;" glyph-name="Igrave" horiz-adv-x="819" d="M 441 567 L 441 63 M 472 536 L 472 94.5 M 504 567 L 504 63 M 158 662 L 284 598 L 410 567 L 536 567 L 662 598 L 788 662 M 158 0 L 252 31.5 L 378 63 L 567 63 L 693 31.5 L 788 0 M 315 1039.5 L 472 850 M 315 1039.5 L 284 1008.0 L 472 850" />
<glyph unicode="&#xcd;" glyph-name="Iacute" horiz-adv-x="819" d="M 441 567 L 441 63 M 472 536 L 472 94.5 M 504 567 L 504 63 M 158 662 L 284 598 L 410 567 L 536 567 L 662 598 L 788 662 M 158 0 L 252 31.5 L 378 63 L 567 63 L 693 31.5 L 788 0 M 724 1008.0 L 567 819 M 724 1008.0 L 756 976 L 567 819" />
<glyph unicode="&#xce;" glyph-name="Icircumflex" horiz-adv-x="819" d="M 441 567 L 441 63 M 472 536 L 472 94.5 M 504 567 L 504 63 M 158 662 L 284 598 L 410 567 L 536 567 L 662 598 L 788 662 M 158 0 L 252 31.5 L 378 63 L 567 63 L 693 31.5 L 788 0 M 346 772 L 472 850 L 598 772 M 346 772 L 472 835 L 598 772" />
<glyph unicode="&#xcf;" glyph-name="Idieresis" horiz-adv-x="819" d="M 441 567 L 441 63 M 472 536 L 472 94.5 M 504 567 L 504 63 M 158 662 L 284 598 L 410 567 L 536 567 L 662 598 L 788 662 M 158 0 L 252 31.5 L 378 63 L 567 63 L 693 31.5 L 788 0 M 384 945 L 321 882 L 384 850 L 447 882 L 384 945 M 384 914 L 352 882 L 415 882 L 384 914 M 624 945 L 561 882 L 624 850 L 687 882 L 624 945 M 624 914 L 593 882 L 656 882 L 624 914" />
<glyph unicode="&#xd0;" glyph-name="Eth" horiz-adv-x="819" d="M 113 246 L 454 246 M 252 630 L 252 31.5 M 284 630 L 284 31.5 M 346 662 L 315 630 L 315 31.5 L 346 0 M 158 504 L 189 567 L 252 630 L 346 662 L 504 662 L 598 630 L 662 598 L 724 536 L 756 472 L 788 378 L 788 284 L 756 189 L 724 126 L 662 63 L 598 31.5 L 504 0 L 346 0 L 252 31.5 L 189 94.5 L 158 158 M 724 504 L 756 410 L 756 252 L 724 158 M 598 630 L 662 567 L 693 504 L 724 410 L 724 252 L 693 158 L 662 94.5 L 598 31.5" />
<glyph unicode="&#xd1;" glyph-name="Ntilde" horiz-adv-x="819" d="M 220 598 L 220 31.5 L 158 0 M 284 598 L 252 567 L 252 31.5 M 378 662 L 315 630 L 284 567 L 284 31.5 M 158 536 L 220 598 L 284 630 L 378 662 L 504 662 L 598 630 L 662 598 L 724 536 L 756 472 L 788 378 L 788 252 L 756 189 L 693 158 M 724 504 L 756 410 L 756 284 L 724 189 M 598 630 L 662 567 L 693 504 L 724 410 L 724 284 L 693 158 L 693 94.5 L 724 31.5 L 756 0 L 788 0 M 158 0 L 284 31.5 L 410 31.5 L 567 0 M 258 756 L 258 794 L 277 850 L 315 869 L 353 869 L 391 850 L 466 794 L 504 775 L 542 775 L 580 794 L 598 832 M 258 794 L 277 832 L 315 850 L 353 850 L 391 832 L 466 775 L 504 756 L 542 756 L 580 775 L 598 832 L 598 869" />
<glyph unicode="&#xd2;" glyph-name="Ograve" horiz-adv-x="819" d="M 441 662 L 346 630 L 284 598 L 220 536 L 189 472 L 158 378 L 158 284 L 189 189 L 220 126 L 284 63 L 346 31.5 L 441 0 L 504 0 L 598 31.5 L 662 63 L 724 126 L 756 189 L 788 284 L 788 378 L 756 472 L 724 536 L 662 598 L 598 630 L 504 662 L 441 662 M 220 504 L 189 410 L 189 252 L 220 158 M 346 630 L 284 567 L 252 504 L 220 410 L 220 252 L 252 158 L 284 94.5 L 346 31.5 M 724 158 L 756 252 L 756 410 L 724 504 M 598 31.5 L 662 94.5 L 693 158 L 724 252 L 724 410 L 693 504 L 662 567 L 598 630 M 315 1039.5 L 472 850 M 315 1039.5 L 284 1008.0 L 472 850" />
<glyph unicode="&#xd3;" glyph-name="Oacute" horiz-adv-x="819" d="M 441 662 L 346 630 L 284 598 L 220 536 L 189 472 L 158 378 L 158 284 L 189 189 L 220 126 L 284 63 L 346 31.5 L 441 0 L 504 0 L 598 31.5 L 662 63 L 724 126 L 756 189 L 788 284 L 788 378 L 756 472 L 724 536 L 662 598 L 598 630 L 504 662 L 441 662 M 220 504 L 189 410 L 189 252 L 220 158 M 346 630 L 284 567 L 252 504 L 220 410 L 220 252 L 252 158 L 284 94.5 L 346 31.5 M 724 158 L 756 252 L 756 410 L 724 504 M 598 31.5 L 662 94.5 L 693 158 L 724 252 L 724 410 L 693 504 L 662 567 L 598 630 M 724 1008.0 L 567 819 M 724 1008.0 L 756 976 L 567 819" />
<glyph unicode="&#xd4;" glyph-name="Ocircumflex" horiz-adv-x="819" d="M 441 662 L 346 630 L 284 598 L 220 536 L 189 472 L 158 378 L 158 284 L 189 189 L 220 126 L 284 63 L 346 31.5 L 441 0 L 504 0 L 598 31.5 L 662 63 L 724 126 L 756 189 L 788 284 L 788 378 L 756 472 L 724 536 L 662 598 L 598 630 L 504 662 L 441 662 M 220 504 L 189 410 L 189 252 L 220 158 M 346 630 L 284 567 L 252 504 L 220 410 L 220 252 L 252 158 L 284 94.5 L 346 31.5 M 724 158 L 756 252 L 756 410 L 724 504 M 598 31.5 L 662 94.5 L 693 158 L 724 252 L 724 410 L 693 504 L 662 567 L 598 630 M 346 772 L 472 850 L 598 772 M 346 772 L 472 835 L 598 772" />
<glyph unicode="&#xd5;" glyph-name="Otilde" horiz-adv-x="819" d="M 441 662 L 346 630 L 284 598 L 220 536 L 189 472 L 158 378 L 158 284 L 189 189 L 220 126 L 284 63 L 346 31.5 L 441 0 L 504 0 L 598 31.5 L 662 63 L 724 126 L 756 189 L 788 284 L 788 378 L 756 472 L 724 536 L 662 598 L 598 630 L 504 662 L 441 662 M 220 504 L 189 410 L 189 252 L 220 158 M 346 630 L 284 567 L 252 504 L 220 410 L 220 252 L 252 158 L 284 94.5 L 346 31.5 M 724 158 L 756 252 L 756 410 L 724 504 M 598 31.5 L 662 94.5 L 693 158 L 724 252 L 724 410 L 693 504 L 662 567 L 598 630 M 258 756 L 258 794 L 277 850 L 315 869 L 353 869 L 391 850 L 466 794 L 504 775 L 542 775 L 580 794 L 598 832 M 258 794 L 277 832 L 315 850 L 353 850 L 391 832 L 466 775 L 504 756 L 542 756 L 580 775 L 598 832 L 598 869" />
<glyph unicode="&#xd6;" glyph-name="Odieresis" horiz-adv-x="819" d="M 441 662 L 346 630 L 284 598 L 220 536 L 189 472 L 158 378 L 158 284 L 189 189 L 220 126 L 284 63 L 346 31.5 L 441 0 L 504 0 L 598 31.5 L 662 63 L 724 126 L 756 189 L 788 284 L 788 378 L 756 472 L 724 536 L 662 598 L 598 630 L 504 662 L 441 662 M 220 504 L 189 410 L 189 252 L 220 158 M 346 630 L 284 567 L 252 504 L 220 410 L 220 252 L 252 158 L 284 94.5 L 346 31.5 M 724 158 L 756 252 L 756 410 L 724 504 M 598 31.5 L 662 94.5 L 693 158 L 724 252 L 724 410 L 693 504 L 662 567 L 598 630 M 382 945 L 319 882 L 382 850 L 445 882 L 382 945 M 382 914 L 350 882 L 413 882 L 382 914 M 626 945 L 563 882 L 626 850 L 689 882 L 626 945 M 626 914 L 595 882 L 658 882 L 626 914" />
<glyph unicode="&#xd7;" glyph-name="multiply" horiz-adv-x="567" d="M 189 441 L 536 0 L 567 0 M 189 441 L 220 441 L 567 0 M 567 441 L 536 441 L 189 0 M 567 441 L 220 0 L 189 0" />
<glyph unicode="&#xd8;" glyph-name="Oslash" horiz-adv-x="819" d="M 441 662 L 346 630 L 284 598 L 220 536 L 189 472 L 158 378 L 158 284 L 189 189 L 220 126 L 284 63 L 346 31.5 L 441 0 L 504 0 L 598 31.5 L 662 63 L 724 126 L 756 189 L 788 284 L 788 378 L 756 472 L 724 536 L 662 598 L 598 630 L 504 662 L 441 662 M 220 504 L 189 410 L 189 252 L 220 158 M 346 630 L 284 567 L 252 504 L 220 410 L 220 252 L 252 158 L 284 94.5 L 346 31.5 M 724 158 L 756 252 L 756 410 L 724 504 M 598 31.5 L 662 94.5 L 693 158 L 724 252 L 724 410 L 693 504 L 662 567 L 598 630 M 709 765 L 198 -142 L 227 -142 M 709 765 L 737 765 L 227 -142" />
<glyph unicode="&#xd9;" glyph-name="Ugrave" horiz-adv-x="819" d="M 284 598 L 220 536 L 189 472 L 158 378 L 158 284 L 189 189 L 220 126 L 284 63 L 346 31.5 L 441 0 L 567 0 L 662 31.5 L 724 63 M 252 536 L 220 472 L 189 378 L 189 252 L 220 158 M 252 567 L 284 536 L 284 504 L 252 441 L 220 346 L 220 252 L 252 158 L 284 94.5 L 346 31.5 M 598 598 L 662 598 L 662 94.5 L 630 31.5 L 567 0 M 693 598 L 693 94.5 L 662 63 M 724 630 L 724 63 L 788 0 M 158 662 L 252 630 L 441 598 L 598 598 L 724 630 L 788 662 M 315 1039.5 L 472 850 M 315 1039.5 L 284 1008.0 L 472 850" />
<glyph unicode="&#xda;" glyph-name="Uacute" horiz-adv-x="819" d="M 284 598 L 220 536 L 189 472 L 158 378 L 158 284 L 189 189 L 220 126 L 284 63 L 346 31.5 L 441 0 L 567 0 L 662 31.5 L 724 63 M 252 536 L 220 472 L 189 378 L 189 252 L 220 158 M 252 567 L 284 536 L 284 504 L 252 441 L 220 346 L 220 252 L 252 158 L 284 94.5 L 346 31.5 M 598 598 L 662 598 L 662 94.5 L 630 31.5 L 567 0 M 693 598 L 693 94.5 L 662 63 M 724 630 L 724 63 L 788 0 M 158 662 L 252 630 L 441 598 L 598 598 L 724 630 L 788 662 M 724 1008.0 L 567 819 M 724 1008.0 L 756 976 L 567 819" />
<glyph unicode="&#xdb;" glyph-name="Ucircumflex" horiz-adv-x="819" d="M 284 598 L 220 536 L 189 472 L 158 378 L 158 284 L 189 189 L 220 126 L 284 63 L 346 31.5 L 441 0 L 567 0 L 662 31.5 L 724 63 M 252 536 L 220 472 L 189 378 L 189 252 L 220 158 M 252 567 L 284 536 L 284 504 L 252 441 L 220 346 L 220 252 L 252 158 L 284 94.5 L 346 31.5 M 598 598 L 662 598 L 662 94.5 L 630 31.5 L 567 0 M 693 598 L 693 94.5 L 662 63 M 724 630 L 724 63 L 788 0 M 158 662 L 252 630 L 441 598 L 598 598 L 724 630 L 788 662 M 346 772 L 472 850 L 598 772 M 346 772 L 472 835 L 598 772" />
<glyph unicode="&#xdc;" glyph-name="Udieresis" horiz-adv-x="819" d="M 284 598 L 220 536 L 189 472 L 158 378 L 158 284 L 189 189 L 220 126 L 284 63 L 346 31.5 L 441 0 L 567 0 L 662 31.5 L 724 63 M 252 536 L 220 472 L 189 378 L 189 252 L 220 158 M 252 567 L 284 536 L 284 504 L 252 441 L 220 346 L 220 252 L 252 158 L 284 94.5 L 346 31.5 M 598 598 L 662 598 L 662 94.5 L 630 31.5 L 567 0 M 693 598 L 693 94.5 L 662 63 M 724 630 L 724 63 L 788 0 M 158 662 L 252 630 L 441 598 L 598 598 L 724 630 L 788 662 M 381 945 L 318 882 L 381 850 L 444 882 L 381 945 M 381 914 L 350 882 L 413 882 L 381 914 M 627 945 L 564 882 L 627 850 L 690 882 L 627 945 M 627 914 L 595 882 L 658 882 L 627 914" />
<glyph unicode="&#xdd;" glyph-name="Yacute" horiz-adv-x="819" d="M 662 598 L 662 31.5 M 693 598 L 693 63 M 724 630 L 724 63 M 252 598 L 189 536 L 158 441 L 158 346 L 189 252 L 252 189 L 315 158 L 410 126 L 504 126 L 598 158 L 662 189 M 284 189 L 378 158 L 567 158 M 158 346 L 189 284 L 252 220 L 346 189 L 536 189 L 598 158 M 158 662 L 284 598 L 410 567 L 536 567 L 662 598 L 788 662 M 158 126 L 220 63 L 284 31.5 L 410 0 L 536 0 L 662 31.5 L 788 94.5 M 724 1008.0 L 567 819 M 724 1008.0 L 756 976 L 567 819" />
<glyph unicode="&#xe0;" glyph-name="agrave" horiz-adv-x="536" d="M 252 315 L 158 220 L 158 94.5 L 252 0 L 378 63 M 189 220 L 189 94.5 L 252 31.5 M 220 284 L 220 126 L 315 31.5 M 315 252 L 158 410 L 189 441 L 220 410 L 189 378 M 220 410 L 346 410 L 410 441 L 472 378 L 472 94.5 L 504 63 M 410 410 L 441 378 L 441 94.5 L 410 63 L 441 31.5 L 472 63 L 441 94.5 M 346 410 L 410 346 L 410 94.5 L 378 63 L 441 0 L 504 63 M 205 788 L 362 598 M 205 788 L 173 756 L 362 598" />
<glyph unicode="&#xe1;" glyph-name="aacute" horiz-adv-x="536" d="M 252 315 L 158 220 L 158 94.5 L 252 0 L 378 63 M 189 220 L 189 94.5 L 252 31.5 M 220 284 L 220 126 L 315 31.5 M 315 252 L 158 410 L 189 441 L 220 410 L 189 378 M 220 410 L 346 410 L 410 441 L 472 378 L 472 94.5 L 504 63 M 410 410 L 441 378 L 441 94.5 L 410 63 L 441 31.5 L 472 63 L 441 94.5 M 346 410 L 410 346 L 410 94.5 L 378 63 L 441 0 L 504 63 M 488 788 L 331 598 M 488 788 L 520 756 L 331 598" />
<glyph unicode="&#xe2;" glyph-name="acircumflex" horiz-adv-x="536" d="M 252 315 L 158 220 L 158 94.5 L 252 0 L 378 63 M 189 220 L 189 94.5 L 252 31.5 M 220 284 L 220 126 L 315 31.5 M 315 252 L 158 410 L 189 441 L 220 410 L 189 378 M 220 410 L 346 410 L 410 441 L 472 378 L 472 94.5 L 504 63 M 410 410 L 441 378 L 441 94.5 L 410 63 L 441 31.5 L 472 63 L 441 94.5 M 346 410 L 410 346 L 410 94.5 L 378 63 L 441 0 L 504 63 M 181 567 L 307 646 L 433 567 M 181 567 L 307 630 L 433 567" />
<glyph unicode="&#xe3;" glyph-name="atilde" horiz-adv-x="536" d="M 252 315 L 158 220 L 158 94.5 L 252 0 L 378 63 M 189 220 L 189 94.5 L 252 31.5 M 220 284 L 220 126 L 315 31.5 M 315 252 L 158 410 L 189 441 L 220 410 L 189 378 M 220 410 L 346 410 L 410 441 L 472 378 L 472 94.5 L 504 63 M 410 410 L 441 378 L 441 94.5 L 410 63 L 441 31.5 L 472 63 L 441 94.5 M 346 410 L 410 346 L 410 94.5 L 378 63 L 441 0 L 504 63 M 145 567 L 145 605 L 164 662 L 202 680 L 239 680 L 277 662 L 353 605 L 391 586 L 428 586 L 466 605 L 485 643 M 145 605 L 164 643 L 202 662 L 239 662 L 277 643 L 353 586 L 391 567 L 428 567 L 466 586 L 485 643 L 485 680" />
<glyph unicode="&#xe4;" glyph-name="adieresis" horiz-adv-x="536" d="M 252 315 L 158 220 L 158 94.5 L 252 0 L 378 63 M 189 220 L 189 94.5 L 252 31.5 M 220 284 L 220 126 L 315 31.5 M 315 252 L 158 410 L 189 441 L 220 410 L 189 378 M 220 410 L 346 410 L 410 441 L 472 378 L 472 94.5 L 504 63 M 410 410 L 441 378 L 441 94.5 L 410 63 L 441 31.5 L 472 63 L 441 94.5 M 346 410 L 410 346 L 410 94.5 L 378 63 L 441 0 L 504 63 M 237 724 L 174 662 L 237 630 L 300 662 L 237 724 M 237 693 L 205 662 L 268 662 L 237 693 M 488 724 L 425 662 L 488 630 L 551 662 L 488 724 M 488 693 L 456 662 L 519 662 L 488 693" />
<glyph unicode="&#xe5;" glyph-name="aring" horiz-adv-x="630" d="M 567 441 L 567 0 L 598 0 M 567 441 L 598 441 L 598 0 M 567 346 L 504 410 L 441 441 L 346 441 L 284 410 L 220 346 L 189 252 L 189 189 L 220 94.5 L 284 31.5 L 346 0 L 441 0 L 504 31.5 L 567 94.5 M 567 346 L 441 410 L 346 410 L 284 378 L 252 346 L 220 252 L 220 189 L 252 94.5 L 284 63 L 346 31.5 L 441 31.5 L 567 94.5 M 397 860 L 378 850 L 359 832 L 350 813 L 340 784 L 340 737 L 350 709 L 359 690 L 378 671 L 397 662 L 435 662 L 454 671 L 472 690 L 482 709 L 491 737 L 491 784 L 482 813 L 472 832 L 454 850 L 435 860 L 397 860 M 406 850 L 378 841 L 359 813 L 350 784 L 350 737 L 359 709 L 378 680 L 406 671 L 425 671 L 454 680 L 472 709 L 482 737 L 482 784 L 472 813 L 454 841 L 425 850 L 406 850" />
<glyph unicode="&#xe8;" glyph-name="egrave" horiz-adv-x="410" d="M 158 346 L 158 63 L 220 0 L 284 63 M 189 346 L 189 63 L 220 31.5 M 220 378 L 220 94.5 L 252 63 L 284 63 M 158 346 L 346 441 L 441 315 L 220 189 M 315 410 L 410 315 M 284 410 L 378 284 M 142 788 L 299 598 M 142 788 L 110 756 L 299 598" />
<glyph unicode="&#xe9;" glyph-name="eacute" horiz-adv-x="410" d="M 158 346 L 158 63 L 220 0 L 284 63 M 189 346 L 189 63 L 220 31.5 M 220 378 L 220 94.5 L 252 63 L 284 63 M 158 346 L 346 441 L 441 315 L 220 189 M 315 410 L 410 315 M 284 410 L 378 284 M 425 788 L 268 598 M 425 788 L 457 756 L 268 598" />
<glyph unicode="&#xea;" glyph-name="ecircumflex" horiz-adv-x="410" d="M 158 346 L 158 63 L 220 0 L 284 63 M 189 346 L 189 63 L 220 31.5 M 220 378 L 220 94.5 L 252 63 L 284 63 M 158 346 L 346 441 L 441 315 L 220 189 M 315 410 L 410 315 M 284 410 L 378 284 M 150 567 L 276 646 L 402 567 M 150 567 L 276 630 L 402 567" />
<glyph unicode="&#xeb;" glyph-name="edieresis" horiz-adv-x="410" d="M 158 346 L 158 63 L 220 0 L 284 63 M 189 346 L 189 63 L 220 31.5 M 220 378 L 220 94.5 L 252 63 L 284 63 M 158 346 L 346 441 L 441 315 L 220 189 M 315 410 L 410 315 M 284 410 L 378 284 M 181 724 L 118 662 L 181 630 L 244 662 L 181 724 M 181 693 L 149 662 L 212 662 L 181 693 M 418 724 L 355 662 L 418 630 L 481 662 L 418 724 M 418 693 L 386 662 L 449 662 L 418 693" />
<glyph unicode="&#xec;" glyph-name="igrave" horiz-adv-x="315" d="M 220 441 L 158 378 L 189 346 L 189 94.5 L 158 63 L 220 0 M 220 346 L 252 378 L 220 410 L 189 378 L 220 346 L 220 94.5 L 189 63 L 220 31.5 L 252 63 L 220 94.5 M 220 441 L 284 378 L 252 346 L 252 94.5 L 284 63 L 220 0 M 94.5 788 L 252 598 M 94.5 788 L 63 756 L 252 598" />
<glyph unicode="&#xed;" glyph-name="iacute" horiz-adv-x="315" d="M 220 441 L 158 378 L 189 346 L 189 94.5 L 158 63 L 220 0 M 220 346 L 252 378 L 220 410 L 189 378 L 220 346 L 220 94.5 L 189 63 L 220 31.5 L 252 63 L 220 94.5 M 220 441 L 284 378 L 252 346 L 252 94.5 L 284 63 L 220 0 M 378 788 L 220 598 M 378 788 L 410 756 L 220 598" />
<glyph unicode="&#xee;" glyph-name="icircumflex" horiz-adv-x="315" d="M 220 441 L 158 378 L 189 346 L 189 94.5 L 158 63 L 220 0 M 220 346 L 252 378 L 220 410 L 189 378 L 220 346 L 220 94.5 L 189 63 L 220 31.5 L 252 63 L 220 94.5 M 220 441 L 284 378 L 252 346 L 252 94.5 L 284 63 L 220 0 M 126 567 L 252 646 L 378 567 M 126 567 L 252 630 L 378 567" />
<glyph unicode="&#xef;" glyph-name="idieresis" horiz-adv-x="315" d="M 220 441 L 158 378 L 189 346 L 189 94.5 L 158 63 L 220 0 M 220 346 L 252 378 L 220 410 L 189 378 L 220 346 L 220 94.5 L 189 63 L 220 31.5 L 252 63 L 220 94.5 M 220 441 L 284 378 L 252 346 L 252 94.5 L 284 63 L 220 0 M 130 724 L 67.1 662 L 130 630 L 193 662 L 130 724 M 130 693 L 98.6 662 L 162 662 L 130 693 M 374 724 L 311 662 L 374 630 L 437 662 L 374 724 M 374 693 L 342 662 L 405 662 L 374 693" />
<glyph unicode="&#xf1;" glyph-name="ntilde" horiz-adv-x="567" d="M 126 378 L 158 378 L 189 346 L 189 94.5 L 158 63 L 220 0 M 189 410 L 220 378 L 220 94.5 L 189 63 L 220 31.5 L 252 63 L 220 94.5 M 126 378 L 189 441 L 252 378 L 252 94.5 L 284 63 L 220 0 M 252 378 L 346 410 L 410 441 L 504 378 L 504 94.5 L 536 63 L 472 0 M 410 410 L 472 378 L 472 94.5 L 441 63 L 472 31.5 L 504 63 L 472 94.5 M 346 410 L 441 346 L 441 94.5 L 410 63 L 472 0 M 151 567 L 151 605 L 170 662 L 208 680 L 246 680 L 284 662 L 359 605 L 397 586 L 435 586 L 472 605 L 491 643 M 151 605 L 170 643 L 208 662 L 246 662 L 284 643 L 359 586 L 397 567 L 435 567 L 472 586 L 491 643 L 491 680" />
<glyph unicode="&#xf2;" glyph-name="ograve" horiz-adv-x="504" d="M 158 346 L 158 94.5 L 252 0 L 410 63 L 472 94.5 M 189 346 L 189 94.5 L 252 31.5 M 220 378 L 220 126 L 315 31.5 M 158 346 L 220 378 L 378 441 L 472 346 L 472 94.5 M 378 410 L 441 346 L 441 94.5 M 315 410 L 410 315 L 410 63 M 189 788 L 346 598 M 189 788 L 158 756 L 346 598" />
<glyph unicode="&#xf3;" glyph-name="oacute" horiz-adv-x="504" d="M 158 346 L 158 94.5 L 252 0 L 410 63 L 472 94.5 M 189 346 L 189 94.5 L 252 31.5 M 220 378 L 220 126 L 315 31.5 M 158 346 L 220 378 L 378 441 L 472 346 L 472 94.5 M 378 410 L 441 346 L 441 94.5 M 315 410 L 410 315 L 410 63 M 472 788 L 315 598 M 472 788 L 504 756 L 315 598" />
<glyph unicode="&#xf4;" glyph-name="ocircumflex" horiz-adv-x="504" d="M 158 346 L 158 94.5 L 252 0 L 410 63 L 472 94.5 M 189 346 L 189 94.5 L 252 31.5 M 220 378 L 220 126 L 315 31.5 M 158 346 L 220 378 L 378 441 L 472 346 L 472 94.5 M 378 410 L 441 346 L 441 94.5 M 315 410 L 410 315 L 410 63 M 173 567 L 299 646 L 425 567 M 173 567 L 299 630 L 425 567" />
<glyph unicode="&#xf5;" glyph-name="otilde" horiz-adv-x="504" d="M 158 346 L 158 94.5 L 252 0 L 410 63 L 472 94.5 M 189 346 L 189 94.5 L 252 31.5 M 220 378 L 220 126 L 315 31.5 M 158 346 L 220 378 L 378 441 L 472 346 L 472 94.5 M 378 410 L 441 346 L 441 94.5 M 315 410 L 410 315 L 410 63 M 139 567 L 139 605 L 157 662 L 195 680 L 233 680 L 271 662 L 346 605 L 384 586 L 422 586 L 460 605 L 479 643 M 139 605 L 157 643 L 195 662 L 233 662 L 271 643 L 346 586 L 384 567 L 422 567 L 460 586 L 479 643 L 479 680" />
<glyph unicode="&#xf6;" glyph-name="odieresis" horiz-adv-x="504" d="M 158 346 L 158 94.5 L 252 0 L 410 63 L 472 94.5 M 189 346 L 189 94.5 L 252 31.5 M 220 378 L 220 126 L 315 31.5 M 158 346 L 220 378 L 378 441 L 472 346 L 472 94.5 M 378 410 L 441 346 L 441 94.5 M 315 410 L 410 315 L 410 63 M 223 724 L 160 662 L 223 630 L 286 662 L 223 724 M 223 693 L 191 662 L 254 662 L 223 693 M 470 724 L 407 662 L 470 630 L 533 662 L 470 724 M 470 693 L 439 662 L 502 662 L 470 693" />
<glyph unicode="&#xf7;" glyph-name="divide" horiz-adv-x="614" d="M 378 583 L 315 520 L 378 488 L 441 520 L 378 583 M 378 551 L 346 520 L 410 520 L 378 551 M 378 268 L 315 205 L 378 173 L 441 205 L 378 268 M 378 236 L 346 205 L 410 205 L 378 236 M 142 378 L 567 378" />
<glyph unicode="&#xf8;" glyph-name="oslash" horiz-adv-x="504" d="M 158 346 L 158 94.5 L 252 0 L 410 63 L 472 94.5 M 189 346 L 189 94.5 L 252 31.5 M 220 378 L 220 126 L 315 31.5 M 158 346 L 220 378 L 378 441 L 472 346 L 472 94.5 M 378 410 L 441 346 L 441 94.5 M 315 410 L 410 315 L 410 63 M 485 551 L 88.2 -154 L 110 -154 M 485 551 L 507 551 L 110 -154" />
<glyph unicode="&#xf9;" glyph-name="ugrave" horiz-adv-x="567" d="M 126 378 L 158 378 L 189 346 L 189 63 L 284 0 L 441 63 M 189 410 L 220 378 L 220 63 L 284 31.5 M 126 378 L 189 441 L 252 378 L 252 94.5 L 346 31.5 M 472 441 L 536 378 L 504 346 L 504 94.5 L 536 63 L 567 63 M 472 346 L 504 378 L 472 410 L 441 378 L 472 346 L 472 63 L 504 31.5 M 472 441 L 410 378 L 441 346 L 441 63 L 504 0 L 567 63 M 220 788 L 378 598 M 220 788 L 189 756 L 378 598" />
<glyph unicode="&#xfa;" glyph-name="uacute" horiz-adv-x="567" d="M 126 378 L 158 378 L 189 346 L 189 63 L 284 0 L 441 63 M 189 410 L 220 378 L 220 63 L 284 31.5 M 126 378 L 189 441 L 252 378 L 252 94.5 L 346 31.5 M 472 441 L 536 378 L 504 346 L 504 94.5 L 536 63 L 567 63 M 472 346 L 504 378 L 472 410 L 441 378 L 472 346 L 472 63 L 504 31.5 M 472 441 L 410 378 L 441 346 L 441 63 L 504 0 L 567 63 M 504 788 L 346 598 M 504 788 L 536 756 L 346 598" />
<glyph unicode="&#xfb;" glyph-name="ucircumflex" horiz-adv-x="567" d="M 126 378 L 158 378 L 189 346 L 189 63 L 284 0 L 441 63 M 189 410 L 220 378 L 220 63 L 284 31.5 M 126 378 L 189 441 L 252 378 L 252 94.5 L 346 31.5 M 472 441 L 536 378 L 504 346 L 504 94.5 L 536 63 L 567 63 M 472 346 L 504 378 L 472 410 L 441 378 L 472 346 L 472 63 L 504 31.5 M 472 441 L 410 378 L 441 346 L 441 63 L 504 0 L 567 63 M 189 567 L 315 646 L 441 567 M 189 567 L 315 630 L 441 567" />
<glyph unicode="&#xfc;" glyph-name="udieresis" horiz-adv-x="567" d="M 126 378 L 158 378 L 189 346 L 189 63 L 284 0 L 441 63 M 189 410 L 220 378 L 220 63 L 284 31.5 M 126 378 L 189 441 L 252 378 L 252 94.5 L 346 31.5 M 472 441 L 536 378 L 504 346 L 504 94.5 L 536 63 L 567 63 M 472 346 L 504 378 L 472 410 L 441 378 L 472 346 L 472 63 L 504 31.5 M 472 441 L 410 378 L 441 346 L 441 63 L 504 0 L 567 63 M 255 724 L 192 662 L 255 630 L 318 662 L 255 724 M 255 693 L 223 662 L 286 662 L 255 693 M 501 724 L 438 662 L 501 630 L 564 662 L 501 724 M 501 693 L 470 662 L 533 662 L 501 693" />
<glyph unicode="&#xfd;" glyph-name="yacute" horiz-adv-x="567" d="M 126 378 L 158 378 L 189 346 L 189 63 L 284 0 L 441 63 M 189 410 L 220 378 L 220 63 L 284 31.5 M 126 378 L 189 441 L 252 378 L 252 94.5 L 346 31.5 M 472 441 L 536 378 L 504 346 L 504 -63 L 472 -126 L 441 -158 L 378 -189 L 315 -189 L 252 -158 L 189 -189 L 252 -220 L 315 -189 M 472 346 L 504 378 L 472 410 L 441 378 L 472 346 L 472 -94.5 L 441 -126 M 284 -189 L 220 -189 M 472 441 L 410 378 L 441 346 L 441 -94.5 L 410 -158 L 378 -189 M 504 788 L 346 598 M 504 788 L 536 756 L 346 598" />
<glyph unicode="&#xff;" glyph-name="ydieresis" horiz-adv-x="567" d="M 126 378 L 158 378 L 189 346 L 189 63 L 284 0 L 441 63 M 189 410 L 220 378 L 220 63 L 284 31.5 M 126 378 L 189 441 L 252 378 L 252 94.5 L 346 31.5 M 472 441 L 536 378 L 504 346 L 504 -63 L 472 -126 L 441 -158 L 378 -189 L 315 -189 L 252 -158 L 189 -189 L 252 -220 L 315 -189 M 472 346 L 504 378 L 472 410 L 441 378 L 472 346 L 472 -94.5 L 441 -126 M 284 -189 L 220 -189 M 472 441 L 410 378 L 441 346 L 441 -94.5 L 410 -158 L 378 -189 M 253 724 L 190 662 L 253 630 L 316 662 L 253 724 M 253 693 L 221 662 L 284 662 L 253 693 M 503 724 L 440 662 L 503 630 L 566 662 L 503 724 M 503 693 L 472 662 L 535 662 L 503 693" />
<glyph unicode="&#x2013;" glyph-name="endash" horiz-adv-x="614" d="M 142 284 L 567 284" />
<glyph unicode="&#x2014;" glyph-name="emdash" horiz-adv-x="819" d="M 189 284 L 756 284" />
<glyph unicode="&#x201c;" glyph-name="quotedblleft" horiz-adv-x="378" d="M 198 709 L 170 652 L 156 595 L 156 567 L 170 539 L 184 567 L 170 595 M 340 709 L 312 652 L 298 595 L 298 567 L 312 539 L 326 567 L 312 595" />
<glyph unicode="&#x201d;" glyph-name="quotedblright" horiz-adv-x="378" d="M 198 567 L 184 595 L 198 624 L 213 595 L 213 567 L 198 510 L 170 454 M 340 567 L 326 595 L 340 624 L 354 595 L 354 567 L 340 510 L 312 454" />
<glyph unicode="&#x2039;" glyph-name="guilsinglleft" horiz-adv-x="302" d="M 277 454 L 75.6 227 L 277 0" />
<glyph unicode="&#x203a;" glyph-name="guilsinglright" horiz-adv-x="302" d="M 75.6 454 L 277 227 L 75.6 0" />
<glyph unicode="&#x20ac;" glyph-name="Euro" horiz-adv-x="819" d="M 788 662 L 756 598 L 724 536 L 662 598 L 598 630 L 504 662 L 441 662 L 346 630 L 284 598 L 220 536 L 189 472 L 158 378 L 158 284 L 189 189 L 220 126 L 284 63 L 346 31.5 L 441 0 L 504 0 L 598 31.5 L 662 63 L 724 126 L 756 63 L 788 0 M 756 598 L 724 441 L 724 220 L 756 63 M 724 504 L 693 536 M 724 410 L 693 504 L 662 567 L 598 630 M 220 504 L 189 410 L 189 252 L 220 158 M 346 630 L 284 567 L 252 504 L 220 410 L 220 252 L 252 158 L 284 94.5 L 346 31.5 M 693 126 L 724 158 M 598 31.5 L 662 94.5 L 693 158 L 724 252 M 75.6 252 L 529 252 M 75.6 353 L 529 353" />
<glyph unicode="&#x0178;" glyph-name="Ydieresis" horiz-adv-x="819" d="M 662 598 L 662 31.5 M 693 598 L 693 63 M 724 630 L 724 63 M 252 598 L 189 536 L 158 441 L 158 346 L 189 252 L 252 189 L 315 158 L 410 126 L 504 126 L 598 158 L 662 189 M 284 189 L 378 158 L 567 158 M 158 346 L 189 284 L 252 220 L 346 189 L 536 189 L 598 158 M 158 662 L 284 598 L 410 567 L 536 567 L 662 598 L 788 662 M 158 126 L 220 63 L 284 31.5 L 410 0 L 536 0 L 662 31.5 L 788 94.5 M 377 945 L 314 882 L 377 850 L 440 882 L 377 945 M 377 914 L 345 882 L 408 882 L 377 914 M 631 945 L 568 882 L 631 850 L 694 882 L 631 945 M 631 914 L 600 882 L 663 882 L 631 914" />
<glyph unicode="&#x102;" glyph-name="Abreve" horiz-adv-x="819" d="M 346 598 L 284 567 L 220 504 L 189 441 L 158 346 L 158 252 L 189 189 L 252 158 M 220 472 L 189 378 L 189 252 L 220 189 M 346 598 L 284 536 L 252 472 L 220 378 L 220 284 L 252 158 L 252 94.5 L 220 31.5 L 158 0 M 598 598 L 662 598 L 662 63 L 598 63 M 693 598 L 693 63 M 724 630 L 724 31.5 M 158 662 L 252 630 L 441 598 L 598 598 L 724 630 L 788 662 M 220 346 L 662 346 M 158 0 L 252 31.5 L 441 63 L 598 63 L 724 31.5 L 788 0 M289.137 938.207C289.137 938.207 403.695 819.793 478 819.793C552.305 819.793 666.863 938.207 666.863 938.207M289.137 938.207C289.137 938.207 407.615 843.776 478 843.776C548.385 843.776 666.863 938.207 666.863 938.207" />
<glyph unicode="&#x114;" glyph-name="Ebreve" horiz-adv-x="819" d="M 788 662 L 756 598 L 724 536 L 662 598 L 598 630 L 504 662 L 441 662 L 346 630 L 284 598 L 220 536 L 189 472 L 158 378 L 158 284 L 189 189 L 220 126 L 284 63 L 346 31.5 L 441 0 L 504 0 L 598 31.5 L 662 63 L 724 126 L 756 63 L 788 0 M 756 598 L 724 441 L 724 220 L 756 63 M 724 504 L 693 536 M 724 441 L 662 567 L 598 630 M 220 504 L 189 410 L 189 252 L 220 158 M 346 630 L 284 567 L 252 504 L 220 410 L 220 252 L 252 158 L 284 94.5 L 346 31.5 M 693 126 L 724 158 M 598 31.5 L 662 94.5 L 693 158 L 724 252 M 220 346 L 252 378 L 346 378 L 567 315 L 662 315 L 724 346 M 410 346 L 472 315 L 567 284 L 630 284 L 693 315 M 315 378 L 472 284 L 567 252 L 630 252 L 693 284 L 724 346 M 724 441 L 693 472 L 662 472 L 630 441 L 662 410 L 693 441 M289.137 938.207C289.137 938.207 403.695 819.793 478 819.793C552.305 819.793 666.863 938.207 666.863 938.207M289.137 938.207C289.137 938.207 407.615 843.776 478 843.776C548.385 843.776 666.863 938.207 666.863 938.207" />
<glyph unicode="&#x11E;" glyph-name="Gbreve" horiz-adv-x="819" d="M 788 662 L 756 598 L 724 536 L 662 598 L 598 630 L 504 662 L 441 662 L 346 630 L 284 598 L 220 536 L 189 472 L 158 378 L 158 284 L 189 189 L 220 126 L 284 63 L 346 31.5 L 441 0 L 536 0 L 598 31.5 L 662 63 L 693 94.5 L 724 158 L 756 63 L 788 0 M 756 598 L 724 441 L 724 220 L 756 63 M 724 504 L 693 536 M 724 410 L 693 504 L 662 567 L 598 630 M 220 504 L 189 410 L 189 252 L 220 158 M 346 630 L 284 567 L 252 504 L 220 410 L 220 252 L 252 158 L 284 94.5 L 346 31.5 M 662 94.5 L 693 158 L 693 284 M 598 31.5 L 630 63 L 662 158 L 662 315 M 252 252 L 284 284 L 315 252 L 284 220 L 252 220 L 220 252 M 220 346 L 252 410 L 315 441 L 378 441 L 472 410 L 567 346 L 630 315 M 252 378 L 315 410 L 378 410 L 472 378 L 536 346 M 220 346 L 284 378 L 378 378 L 567 315 L 693 315 L 724 346 M289.137 938.207C289.137 938.207 403.695 819.793 478 819.793C552.305 819.793 666.863 938.207 666.863 938.207M289.137 938.207C289.137 938.207 407.615 843.776 478 843.776C548.385 843.776 666.863 938.207 666.863 938.207" />
<glyph unicode="&#x12C;" glyph-name="Ibreve" horiz-adv-x="819" d="M 441 567 L 441 63 M 472 536 L 472 94.5 M 504 567 L 504 63 M 158 662 L 284 598 L 410 567 L 536 567 L 662 598 L 788 662 M 158 0 L 252 31.5 L 378 63 L 567 63 L 693 31.5 L 788 0 M289.137 938.207C289.137 938.207 403.695 819.793 478 819.793C552.305 819.793 666.863 938.207 666.863 938.207M289.137 938.207C289.137 938.207 407.615 843.776 478 843.776C548.385 843.776 666.863 938.207 666.863 938.207" />
<glyph unicode="&#x14E;" glyph-name="Obreve" horiz-adv-x="819" d="M 441 662 L 346 630 L 284 598 L 220 536 L 189 472 L 158 378 L 158 284 L 189 189 L 220 126 L 284 63 L 346 31.5 L 441 0 L 504 0 L 598 31.5 L 662 63 L 724 126 L 756 189 L 788 284 L 788 378 L 756 472 L 724 536 L 662 598 L 598 630 L 504 662 L 441 662 M 220 504 L 189 410 L 189 252 L 220 158 M 346 630 L 284 567 L 252 504 L 220 410 L 220 252 L 252 158 L 284 94.5 L 346 31.5 M 724 158 L 756 252 L 756 410 L 724 504 M 598 31.5 L 662 94.5 L 693 158 L 724 252 L 724 410 L 693 504 L 662 567 L 598 630 M289.137 938.207C289.137 938.207 403.695 819.793 478 819.793C552.305 819.793 666.863 938.207 666.863 938.207M289.137 938.207C289.137 938.207 407.615 843.776 478 843.776C548.385 843.776 666.863 938.207 666.863 938.207" />
<glyph unicode="&#x16C;" glyph-name="Ubreve" horiz-adv-x="819" d="M 284 598 L 220 536 L 189 472 L 158 378 L 158 284 L 189 189 L 220 126 L 284 63 L 346 31.5 L 441 0 L 567 0 L 662 31.5 L 724 63 M 252 536 L 220 472 L 189 378 L 189 252 L 220 158 M 252 567 L 284 536 L 284 504 L 252 441 L 220 346 L 220 252 L 252 158 L 284 94.5 L 346 31.5 M 598 598 L 662 598 L 662 94.5 L 630 31.5 L 567 0 M 693 598 L 693 94.5 L 662 63 M 724 630 L 724 63 L 788 0 M 158 662 L 252 630 L 441 598 L 598 598 L 724 630 L 788 662 M289.137 938.207C289.137 938.207 403.695 819.793 478 819.793C552.305 819.793 666.863 938.207 666.863 938.207M289.137 938.207C289.137 938.207 407.615 843.776 478 843.776C548.385 843.776 666.863 938.207 666.863 938.207" />
<glyph unicode="&#x103;" glyph-name="abreve" horiz-adv-x="536" d="M 252 315 L 158 220 L 158 94.5 L 252 0 L 378 63 M 189 220 L 189 94.5 L 252 31.5 M 220 284 L 220 126 L 315 31.5 M 315 252 L 158 410 L 189 441 L 220 410 L 189 378 M 220 410 L 346 410 L 410 441 L 472 378 L 472 94.5 L 504 63 M 410 410 L 441 378 L 441 94.5 L 410 63 L 441 31.5 L 472 63 L 441 94.5 M 346 410 L 410 346 L 410 94.5 L 378 63 L 441 0 L 504 63 M119.137 758.207C119.137 758.207 233.695 639.793 308 639.793C382.305 639.793 496.863 758.207 496.863 758.207M119.137 758.207C119.137 758.207 237.615 663.776 308 663.776C378.385 663.776 496.863 758.207 496.863 758.207" />
<glyph unicode="&#x115;" glyph-name="ebreve" horiz-adv-x="410" d="M 158 346 L 158 63 L 220 0 L 284 63 M 189 346 L 189 63 L 220 31.5 M 220 378 L 220 94.5 L 252 63 L 284 63 M 158 346 L 346 441 L 441 315 L 220 189 M 315 410 L 410 315 M 284 410 L 378 284 M79.1368 758.207C79.1368 758.207 193.695 639.793 268 639.793C342.305 639.793 456.863 758.207 456.863 758.207M79.1368 758.207C79.1368 758.207 197.615 663.776 268 663.776C338.385 663.776 456.863 758.207 456.863 758.207" />
<glyph unicode="&#x11F;" glyph-name="gbreve" horiz-adv-x="536" d="M 158 346 L 158 94.5 L 252 0 L 410 63 M 189 346 L 189 94.5 L 252 31.5 M 220 378 L 220 126 L 315 31.5 M 158 346 L 220 378 L 378 441 L 472 346 L 472 -63 L 441 -126 L 410 -158 L 346 -189 L 284 -189 L 220 -158 L 158 -189 L 220 -220 L 284 -189 M 378 410 L 441 346 L 441 -63 L 410 -126 M 252 -189 L 189 -189 M 315 410 L 410 315 L 410 -94.5 L 378 -158 L 346 -189 M119.137 758.207C119.137 758.207 233.695 639.793 308 639.793C382.305 639.793 496.863 758.207 496.863 758.207M119.137 758.207C119.137 758.207 237.615 663.776 308 663.776C378.385 663.776 496.863 758.207 496.863 758.207" />
<glyph unicode="&#x12D;" glyph-name="ibreve" horiz-adv-x="315" d="M 220 441 L 158 378 L 189 346 L 189 94.5 L 158 63 L 220 0 M 220 346 L 252 378 L 220 410 L 189 378 L 220 346 L 220 94.5 L 189 63 L 220 31.5 L 252 63 L 220 94.5 M 220 441 L 284 378 L 252 346 L 252 94.5 L 284 63 L 220 0 M49.1368 758.207C49.1368 758.207 163.695 639.793 238 639.793C312.305 639.793 426.863 758.207 426.863 758.207M49.1368 758.207C49.1368 758.207 167.615 663.776 238 663.776C308.385 663.776 426.863 758.207 426.863 758.207" />
<glyph unicode="&#x14F;" glyph-name="obreve" horiz-adv-x="504" d="M 158 346 L 158 94.5 L 252 0 L 410 63 L 472 94.5 M 189 346 L 189 94.5 L 252 31.5 M 220 378 L 220 126 L 315 31.5 M 158 346 L 220 378 L 378 441 L 472 346 L 472 94.5 M 378 410 L 441 346 L 441 94.5 M 315 410 L 410 315 L 410 63 M109.137 758.207C109.137 758.207 223.695 639.793 298 639.793C372.305 639.793 486.863 758.207 486.863 758.207M109.137 758.207C109.137 758.207 227.615 663.776 298 663.776C368.385 663.776 486.863 758.207 486.863 758.207" />
<glyph unicode="&#x16D;" glyph-name="ubreve" horiz-adv-x="567" d="M 126 378 L 158 378 L 189 346 L 189 63 L 284 0 L 441 63 M 189 410 L 220 378 L 220 63 L 284 31.5 M 126 378 L 189 441 L 252 378 L 252 94.5 L 346 31.5 M 472 441 L 536 378 L 504 346 L 504 94.5 L 536 63 L 567 63 M 472 346 L 504 378 L 472 410 L 441 378 L 472 346 L 472 63 L 504 31.5 M 472 441 L 410 378 L 441 346 L 441 63 L 504 0 L 567 63 M129.137 758.207C129.137 758.207 243.695 639.793 318 639.793C392.305 639.793 506.863 758.207 506.863 758.207M129.137 758.207C129.137 758.207 247.615 663.776 318 663.776C388.385 663.776 506.863 758.207 506.863 758.207" />
<glyph unicode="&#xb8;" glyph-name="cedilla" horiz-adv-x="756" d="M472 -0L464.413 -35.2187L504.862 -53.196L507.858 -128.101L419.47 -153.569L364.04 -110.124L401.493 -111.622L462.915 -104.132L461.417 -74.1695L414.976 -62.1847L416.474 -0.762239Z" />
<glyph unicode="&#xb8;" glyph-name="cedilla" horiz-adv-x="756" d="M446.436 -11.249C445.826 -71.4469 491.557 -66.2929 491.379 -116.117L425.463 -129.599L364.04 -110.124" />
<glyph unicode="&#xC6;" glyph-name="AE" horiz-adv-x="1250.0" d="M1211.9 662L1179.9 598L1147.9 536L1085.9 598L1021.9 630L927.898 662L864.898 662L769.898 630L707.898 598L643.898 536L612.898 472L581.898 378L581.898 284L612.898 189L643.898 126L707.898 63L769.898 31.5L864.898 -0L927.898 -0L1021.9 31.5L1085.9 63L1147.9 126L1179.9 63L1211.9 -0M1179.9 598L1147.9 441L1147.9 220L1179.9 63M1147.9 504L1116.9 536M1147.9 441L1085.9 567L1021.9 630M643.898 504L612.898 410L612.898 252L643.898 158M769.898 630L707.898 567L675.898 504L643.898 410L643.898 252L675.898 158L707.898 94.5L769.898 31.5M1116.9 126L1147.9 158M1021.9 31.5L1085.9 94.5L1116.9 158L1147.9 252M643.898 346L675.898 378L769.898 378L990.898 315L1085.9 315L1147.9 346M833.898 346L895.898 315L990.898 284L1053.9 284L1116.9 315M738.898 378L895.898 284L990.898 252L1053.9 252L1116.9 284L1147.9 346M1147.9 441L1116.9 472L1085.9 472L1053.9 441L1085.9 410L1116.9 441M158 -0L252 31.5L441 63L598 63L724 31.5L788 -0M220 346L582 346M158 662L252 630L441 598L598 598L724 630L788 662M346 598L284 536L252 472L220 378L220 284L252 158L252 94.5L220 31.5L158 -0M220 472L189 378L189 252L220 189M346 598L284 567L220 504L189 441L158 346L158 252L189 189L252 158" />
<glyph unicode="&#xe7;" glyph-name="ccedilla" horiz-adv-x="378" d="M213.551 -32.4208C212.941 -92.6187 258.672 -87.4647 258.494 -137.288L192.578 -150.771L131.155 -131.296M231.675 -21.8482L231.528 -56.3905L271.977 -74.3678L274.974 -149.273L186.585 -174.741L131.155 -131.296L168.608 -132.794L230.03 -125.303L228.532 -95.3413L182.091 -83.3565L183.589 -21.934M158 346L158 63L220 -0L284 63M189 346L189 63L220 31.5M220 378L220 94.5L252 63L284 63M158 346L346 441L410 378L346 346L284 410M315 410L378 378" />
<glyph unicode="&#x131;" glyph-name="dotlessi" horiz-adv-x="315" d="M220 441L158 378L189 346L189 94.5L158 63L220 -0M220 346L252 378L220 410L189 378L220 346L220 94.5L189 63L220 31.5L252 63L220 94.5M220 441L284 378L252 346L252 94.5L284 63L220 -0" />
<glyph unicode="&#x2D8;" glyph-name="breve" horiz-adv-x="693" d="M189.137 358.207C189.137 358.207 303.695 239.793 378 239.793C452.305 239.793 566.863 358.207 566.863 358.207M189.137 358.207C189.137 358.207 307.615 263.776 378 263.776C448.385 263.776 566.863 358.207 566.863 358.207" />
<glyph unicode="&#xc7;" glyph-name="Ccedilla" horiz-adv-x="819" d="M472 2.77417e-05C459.094 -39.2781 470.093 -37.7429 504.862 -53.196C526.371 -164.393 431.992 -163.384 364.04 -110.124L401.493 -111.622C507.858 -128.101 490.668 -70.0478 425.569 -38.1846L416.474 -0.762211ZM446.436 -11.249C451.828 -28.7686 442.635 -29.8948 450.501 -41.1107C481.685 -85.577 539.997 -118.491 425.463 -129.599L364.04 -110.124M788 662L756 598L724 536L662 598L598 630L504 662L441 662L346 630L284 598L220 536L189 472L158 378L158 284L189 189L220 126L284 63L346 31.5L441 -0L504 -0L598 31.5L662 63L724 126L756 63L788 -0M756 598L724 441L724 220L756 63M724 504L693 536M724 410L693 504L662 567L598 630M220 504L189 410L189 252L220 158M346 630L284 567L252 504L220 410L220 252L252 158L284 94.5L346 31.5M693 126L724 158M598 31.5L662 94.5L693 158L724 252" />
<glyph unicode="&#x130;" glyph-name="Idotaccent" horiz-adv-x="819" d="M467.237 861.305L405.237 797.305L467.237 735.305L531.237 797.305L467.237 861.305M467.237 829.305L436.237 797.305L467.237 766.305L499.237 797.305L467.237 829.305M441 567L441 63M472 536L472 94.5M504 567L504 63M158 662L284 598L410 567L536 567L662 598L788 662M158 -0L252 31.5L378 63L567 63L693 31.5L788 -0" />
<glyph unicode="&#xE6;" glyph-name="ae" horiz-adv-x="710" d="M539.27 410L633.27 284M570.27 410L665.27 315M474.142 376.76L601.27 441L696.27 315L475.27 189M252 315L158 220L158 94.5L252 -0L378 63M189 220L189 94.5L252 31.5M220 284L220 126L315 31.5M315 252L158 410L189 441L220 410L189 378M220 410L346 410L410 441L472 378L472 94.5L504 63M410 410L441 378L441 94.5L410 63L441 31.5L472 63L441 94.5M346 410L410 346L410 94.5L378 63L441 -0L504 63" />
<glyph unicode="&#x15F;" glyph-name="scedilla" horiz-adv-x="504" d="M318.814 -48.2282L318.536 -69.3691L358.3 -88.748L357.758 -137.096L297.841 -150.579L236.419 -131.103M344.378 -4.97919L344.792 -56.1979L377.241 -74.1752L380.237 -149.081L291.849 -174.548L236.419 -131.103L293.871 -132.601L335.294 -125.111L333.796 -95.1487L291.354 -83.1638L291.602 -35.7414ZM158 346L158 252L220 189L410 284L472 220L472 94.5M189 346L189 252L220 220M220 378L220 252L252 220M410 252L441 220L441 94.5M378 252L410 220L410 63M158 346L346 441L441 410L378 378L284 410M315 410L410 410M472 94.5L284 -0L158 63L220 94.5L346 31.5M220 63L284 31.5" />
<glyph unicode="&#xdf;" glyph-name="germandbls" horiz-adv-x="602" d="M534.916 264.548L534.916 76.1428M507.773 283.707L507.773 23.4534M278.811 599.202L216.811 663.202L247.811 537.202L247.811 95.7018L342.811 1.20183L435.945 41.8487M278.811 599.202L278.811 95.7018L342.811 32.7018M278.811 599.202L342.811 663.202L310.811 537.202L310.811 127.202L404.811 32.7018M468.811 491.202L530.811 427.202L530.811 355.702M404.811 491.202L499.811 396.202L499.811 345.715M155.936 380.966L468.811 522.202L562.811 427.202L562.811 368.897L402.394 290.094L562.059 290.094L562.059 61.773C562.059 61.773 485.354 8.20823 480.63 -32.4294C475.906 -73.0671 568.446 -110.665 568.446 -110.665" />
<glyph unicode="&#xa3;" glyph-name="sterling" horiz-adv-x="819" d="M158.818 201.678C296.612 236.533 385.979 264.678 534.679 193.577M153 246C153 246 301.982 240.116 374.14 248.942C446.298 257.767 544.463 289.206 544.463 289.206M220 630L220 31.5M252 598L252 63M346 598L284 598L284 63L346 63M788 504L724 410L693 346L662 252L662 189L693 126L756 94.5M724 378L693 284L693 189L724 126M788 504L756 441L724 315L724 220L756 94.5L788 -0M158 662L220 630L346 598L504 598L693 630L788 662M158 -0L220 31.5L346 63L504 63L693 31.5L788 -0" />
<glyph unicode="&#x15E;" glyph-name="Scedilla" horiz-adv-x="819" d="M466.436 -35.249C465.826 -95.4468 511.557 -90.2928 511.379 -140.116L445.463 -153.599L384.04 -134.124M492 -24L484.413 -59.2187L524.862 -77.196L527.858 -152.101L439.47 -177.569L384.04 -134.124L421.493 -135.622L482.915 -128.132L481.417 -98.1695L434.976 -86.1846L436.474 -24.7622ZM536 662L724 630L788 662L756 598L756 536L693 598L630 630L536 662L410 662L315 630L220 536L189 441L189 378L220 284L284 220L378 189L472 189L536 220L567 252L598 315L598 346M756 630L724 598L756 536M220 346L252 284L284 252L378 220L472 220L536 252M252 567L220 504L220 410L252 346L315 284L410 252L472 252L536 284L598 346L630 378L662 378M284 315L315 315L346 346L410 410L472 441L567 441L630 410L693 346L724 284L724 189L693 94.5L630 31.5M410 441L472 472L567 472L662 441L724 378L756 284L756 189L724 126M189 126L220 63L189 31.5M346 346L346 378L378 441L410 472L472 504L567 504L662 472L756 378L788 284L788 220L756 126L693 63L630 31.5L536 -0L410 -0L315 31.5L252 63L189 126L189 63L158 -0L220 31.5L410 -0" />
</font>
</defs>
</svg>
