<?xml version="1.0" encoding="UTF-8"?>
<!-- Created with Inkscape (http://www.inkscape.org/) -->
<svg width="105mm" height="148mm" version="1.1" viewBox="0 0 105 148" xmlns="http://www.w3.org/2000/svg" xmlns:cc="http://creativecommons.org/ns#" xmlns:dc="http://purl.org/dc/elements/1.1/" xmlns:rdf="http://www.w3.org/1999/02/22-rdf-syntax-ns#">
 <metadata>
  <rdf:RDF>
   <cc:Work rdf:about="">
    <dc:format>image/svg+xml</dc:format>
    <dc:type rdf:resource="http://purl.org/dc/dcmitype/StillImage"/>
    <dc:title>Grbl logo pop-up</dc:title>
    <dc:description>Pop-up example for use with GRBL-Plotter
Plot on paper size A6</dc:description>
    <dc:date>2019-09-29</dc:date>
    <dc:creator>
     <cc:Agent>
      <dc:title>SH</dc:title>
     </cc:Agent>
    </dc:creator>
   </cc:Work>
  </rdf:RDF>
 </metadata>
 <title>Grbl logo pop-up</title>
 <g>
  <g transform="matrix(.95897 0 0 1.028 0 1.2629)" fill="none" stroke="#00ff00" stroke-width=".26648" aria-label="Plotter">
   <path d="m101.11 88.52q-0.164-0.02-0.307-0.02-0.143-0.02-0.307-0.02-0.45 0-0.859 0.1841-0.409 0.1636-0.634 0.3272-0.225 0.1432-0.2454 0.1636l0.02 0.02v2.7406q0.02-0.02 0.225-0.1432 0.2045-0.1432 0.5931-0.2863 0.4093-0.1636 0.8183-0.1636 0.368 0 0.675 0.082zm-3.2932 11.167v-10.983h-3.1702v10.983z"/>
   <path d="m93.264 95.106v-0.4704q0-1.2885-0.3272-2.4133-0.3273-1.1454-1.0022-1.9839-0.6545-0.859-1.6771-1.3499-1.0226-0.4908-2.4133-0.4908-1.2885 0-2.3112 0.4704-1.0226 0.4499-1.7384 1.2476-0.7158 0.7976-1.1044 1.8816-0.3886 1.0635-0.3886 2.3111 0 1.268 0.3681 2.3316 0.3886 1.043 1.1044 1.7998 0.7159 0.7363 1.7385 1.1453 1.0431 0.409 2.3316 0.409 1.043 0 1.8202-0.2045 0.7977-0.2045 1.4112-0.6135 0.634-0.4295 1.1249-1.084 0.5113-0.6749 0.9408-1.5953l-3.1496-0.225q-0.3477 0.5727-0.8386 0.8795-0.4704 0.3068-1.1453 0.3068-0.7159 0-1.2067-0.2864-0.4909-0.2863-0.7977-0.7363-0.3067-0.4704-0.4499-1.0635-0.1227-0.6135-0.1227-1.2271 0-0.5931 0.1022-1.1862 0.1228-0.5932 0.3886-1.0636 0.2864-0.4704 0.7568-0.7567 0.4704-0.3068 1.1658-0.3068 0.9612 0 1.4725 0.5318 0.5113 0.5113 0.6954 1.3907h-2.8429q-0.061 0.2864-0.1227 0.5931-0.041 0.2864-0.041 0.5727 0 0.3068 0.02 0.6136 0.041 0.2863 0.082 0.5726z"/>
   <path d="m81.316 91.077v-2.3929h-2.1066v-2.3316l-3.1292 1.6362v0.6954h-1.5135v2.3929h1.5135v5.6449q0 1.5953 0.6954 2.3315 0.6953 0.7363 2.3111 0.7363 0.5522 0 1.1044-0.041 0.5522-0.02 1.084-0.1022v-2.4339q-0.225 0.041-0.4704 0.061t-0.4909 0.02q-0.6545 0-0.8794-0.3476-0.2046-0.3468-0.2046-0.94v-4.929z"/>
   <path d="m73.173 91.077v-2.3929h-2.1066v-2.3316l-3.1292 1.6362v0.6954h-1.5135v2.3929h1.5135v5.6449q0 1.5953 0.6954 2.3315 0.6953 0.7363 2.3111 0.7363 0.5522 0 1.1044-0.041 0.5522-0.02 1.084-0.1022v-2.4339q-0.225 0.041-0.4704 0.061-0.2455 0.02-0.4909 0.02-0.6545 0-0.8794-0.3476-0.2046-0.3477-0.2046-0.9409v-4.929z"/>
   <path d="m65.418 94.083q0-2.5156-1.2271-4.0291-1.2272-1.5339-3.7019-1.6771v2.4952q0.6749 0.1227 1.0226 0.4295 0.3477 0.2863 0.4909 0.7363 0.1636 0.4295 0.184 0.9817 0.02 0.5318 0.02 1.1453 0 0.5318-0.041 1.084t-0.2045 1.0226q-0.1637 0.4704-0.5114 0.7977-0.3476 0.3068-0.9612 0.3886v2.536q0.2659-0.041 0.5113-0.061t0.4908-0.061q1.0431-0.2045 1.7794-0.7362 0.7567-0.5523 1.2271-1.3294 0.4909-0.7772 0.6954-1.7385 0.225-0.9613 0.225-1.9839zm-6.4629 5.9309v-2.5358q-0.6954-0.1636-1.0636-0.4704-0.3476-0.3068-0.5113-0.7363-0.1431-0.4295-0.1636-0.9612 0-0.5522 0-1.2067 0-0.5522 0.041-1.084 0.041-0.5522 0.2045-1.0022 0.1637-0.4499 0.5114-0.7362 0.3681-0.3068 0.9817-0.3886v-2.5157q-1.2272 0.041-2.168 0.5113-0.9203 0.45-1.5339 1.2476-0.6136 0.7772-0.9204 1.8203-0.3067 1.0431-0.3067 2.2497 0 1.0227 0.184 1.9839 0.2045 0.9408 0.6545 1.718 0.4499 0.7772 1.1658 1.309 0.7158 0.5317 1.7589 0.7158 0.2863 0.041 0.5726 0.041 0.3068 0.02 0.5932 0.041z"/>
   <path d="m52.2 99.687v-14.317h-3.0883v14.317z"/>
   <path d="m47.781 90.054q0-1.2271-0.2249-2.1066-0.225-0.8999-0.7159-1.4521-0.4908-0.5726-1.2885-0.8385-0.7976-0.2864-1.9429-0.2864h-2.1271v2.6179h0.1227q0.6545 0 1.1863 0 0.5522 0 0.9408 0.1841t0.5931 0.6545q0.225 0.4499 0.225 1.3498 0 0.6545-0.1227 1.0431-0.1228 0.3886-0.3886 0.5931-0.2455 0.2045-0.6341 0.2659-0.3885 0.041-0.8999 0.041h-1.0226v2.5975h1.6158q1.2066 0 2.0861-0.2046 0.8999-0.2249 1.4726-0.7567 0.5726-0.5522 0.8385-1.4521 0.2863-0.8999 0.2863-2.2498zm-7.8536 9.6331v-14.317h-3.2111v14.317z"/>
  </g>
 </g>
 <g fill="none" stroke="#ff0000" stroke-dasharray="0.6, 0.6" stroke-width=".2">
  <path transform="translate(0,-528)" d="m97 602h8" style="paint-order:stroke fill markers"/>
  <path d="m91.272 73.457h2.5288" style="paint-order:stroke fill markers"/>
  <path transform="translate(0,-528)" d="m88 587h9" style="paint-order:stroke fill markers"/>
  <path transform="translate(0,-528)" d="M 78.5161,587.026 81,587" style="paint-order:stroke fill markers"/>
  <path transform="translate(0,-528)" d="m60 587h11" style="paint-order:stroke fill markers"/>
  <path d="m63.953 73.532h3.5" style="paint-order:stroke fill markers"/>
  <path transform="translate(0,-528)" d="m42 587h11" style="paint-order:stroke fill markers"/>
  <path d="m37.004 73.465h2.4065" style="paint-order:stroke fill markers"/>
  <path transform="translate(0,-528)" d="M 32.2839,601.974 35,602" style="paint-order:stroke fill markers"/>
  <path d="m18.891 88.952 3.1012 0.02" style="paint-order:stroke fill markers"/>
  <path transform="translate(0,-528)" d="m35 632h62" style="paint-order:stroke fill markers"/>
  <path d="m63 34h3" style="paint-order:stroke fill markers"/>
  <path d="m47 34h3" style="paint-order:stroke fill markers"/>
  <path d="m18 34h3" style="paint-order:stroke fill markers"/>
  <path transform="translate(0,-528)" d="m0 602h25" style="paint-order:stroke fill markers"/>
  <path d="m83.175 19h3" style="paint-order:stroke fill markers"/>
 </g>
 <g transform="translate(0,-528)" fill="none" stroke="#000000" stroke-width=".2">
  <path d="m86.175 547v15" style="paint-order:stroke fill markers"/>
  <path d="m83.287 561.97c-0.3699 0.157-0.7029 0.383-0.9827 0.662-0.5595 0.559-0.9056 1.331-0.9056 2.184v24.535c0 3.411 1.384 6.5 3.6217 8.735 1.1188 1.118 2.4511 2.023 3.9305 2.648 0.7398 0.313 1.5163 0.555 2.3213 0.72m2.5288 0 3.0541-2.835-3.0906-3.087c-3.4151 0-6.1826-2.767-6.1826-6.177v-24.535c0-0.853-0.404-1.573-0.9058-2.184-0.268-0.327-0.2662-0.338-0.5376-0.552" stroke-linecap="round"/>
  <path d="m83.175 547v15" style="paint-order:stroke fill markers"/>
  <path d="m66 562v15" style="paint-order:stroke fill markers"/>
  <path d="m63 577h-1.6513v6.177h4.6799c2.5005 0 4.7548 1.505 5.7121 3.812 0.9568 2.308 0.428 4.965-1.3404 6.731-1.7682 1.767-4.4275 2.296-6.7377 1.34-2.3104-0.956-3.8167-3.209-3.8167-5.706v-24.535l-3.0914-3.088-3.0911 3.088v24.535c0 4.997 3.013 9.5 7.6329 11.412 0.5776 0.239 1.1661 0.432 1.7606 0.579 0.2972 0.07 0.596 0.136 0.8957 0.187m3.6012 0.08c0.2973-0.04 0.5931-0.08 0.8867-0.143 2.3492-0.467 4.5629-1.614 6.3312-3.38 3.5381-3.533 4.5949-8.847 2.681-13.463-0.9569-2.308-2.5626-4.215-4.5542-5.544-0.9958-0.665-2.0881-1.185-3.2441-1.54-1.1559-0.354-2.3755-0.542-3.6258-0.542" stroke-linecap="round"/>
  <g>
   <path d="m63 562v15" style="paint-order:stroke fill markers"/>
   <path d="m50 562v15" style="paint-order:stroke fill markers"/>
   <path d="m47 562v15" style="paint-order:stroke fill markers"/>
  </g>
  <path d="m35.116 589.35v9.264c0 0.853 0.346 1.626 0.9054 2.185 0.2797 0.279 0.6128 0.506 0.9826 0.662m2.4065 0c0.3699-0.156 0.703-0.383 0.9827-0.662 0.5594-0.559 0.9054-1.332 0.9054-2.185v-9.264c0-1.706 0.692-3.25 1.8108-4.368 1.1187-1.118 2.6643-1.809 4.3715-1.809h4.6803v-6.177h-2.1608m-3 0c-0.8665 0.05-1.2065 0.09-2.0114 0.251-0.8049 0.164-1.5813 0.407-2.321 0.72-1.4793 0.625-2.8115 1.529-3.9303 2.647-2.2376 2.235-3.6217 5.324-3.6217 8.736" stroke-linecap="round"/>
  <path d="m19.745 595.53c-2.5008 0-4.755-1.505-5.7118-3.814-0.957-2.308-0.4279-4.965 1.3402-6.731 1.7683-1.767 4.4275-2.295 6.7377-1.339 2.3103 0.956 3.8165 3.208 3.8165 5.707v15.268c0 0.853-0.173 1.666-0.4859 2.405-0.3128 0.739-0.7655 1.404-1.325 1.963-0.5594 0.559-1.2255 1.011-1.9652 1.324-0.7396 0.312-1.5529 0.485-2.4065 0.485-1.7066 0-3.0894 1.384-3.0894 3.088 0 0.426 0.086 0.832 0.2427 1.202 0.1563 0.369 0.3825 0.702 0.662 0.981 0.2795 0.28 0.9608 0.726 1.3304 0.882m3.1012 0.02c0.4025-0.08 1.0688-0.365 1.456-0.485s0.7404-0.324 1.1103-0.48c1.4794-0.625 2.8116-1.53 3.9305-2.647 1.1189-1.118 2.0243-2.449 2.65-3.927 0.6258-1.478 0.9718-3.103 0.9718-4.809v-15.268c0-4.997-3.0136-9.5-7.633-11.413-0.2888-0.12-0.5803-0.228-0.8739-0.324-0.2936-0.1-0.5894-0.181-0.8867-0.255-0.2972-0.07-0.596-0.136-0.8957-0.187-0.2997-0.05-0.6003-0.09-0.9012-0.12m-2.9099 0.08c-0.2973 0.04-0.3832 0.05-0.6769 0.106-0.2937 0.06-0.5852 0.128-0.874 0.207-0.2888 0.08-0.5749 0.17-0.8577 0.27s-0.5622 0.211-0.8377 0.332-0.5471 0.253-0.8141 0.394c-0.2671 0.142-0.5296 0.293-0.7869 0.455-0.2574 0.162-0.5096 0.334-0.756 0.515-0.2465 0.182-0.4872 0.373-0.7215 0.575-0.2344 0.201-0.4624 0.412-0.6834 0.633-3.537 3.534-4.5948 8.847-2.681 13.463 1.914 4.616 6.4228 7.627 11.424 7.627h3.0916l3.091-3.09-3.091-3.087h-3.0916" stroke-linecap="round"/>
  <g>
   <path d="m21 562-0.08 15.055" style="paint-order:stroke fill markers"/>
   <path d="m18 562 0.01 15.135" style="paint-order:stroke fill markers"/>
   <path d="m35 632v-45" style="paint-order:stroke fill markers"/>
   <path d="m97 632v-45" style="paint-order:stroke fill markers"/>
  </g>
 </g>
 <g fill="none" stroke="#0000ff" stroke-dasharray="0.6, 0.6" stroke-width=".2">
  <path d="M 83.2869,33.973 86,34" style="paint-order:stroke fill markers"/>
  <path d="m63 49h3" style="paint-order:stroke fill markers"/>
  <path d="m47 49h3" style="paint-order:stroke fill markers"/>
  <path d="m18.202 49.02 2.5197 0.037" style="paint-order:stroke fill markers"/>
  <path transform="translate(0,-528)" d="m35 617h62"/>
 </g>
</svg>
