<?xml version="1.0" encoding="UTF-8"?>
<!-- Created with Inkscape (http://www.inkscape.org/) -->
<svg id="svg3253" width="90.873mm" height="100mm" version="1.0" xmlns="http://www.w3.org/2000/svg" xmlns:cc="http://creativecommons.org/ns#" xmlns:dc="http://purl.org/dc/elements/1.1/" xmlns:rdf="http://www.w3.org/1999/02/22-rdf-syntax-ns#">
 <title id="title4522">bunny</title>
 <metadata id="metadata3258">
  <rdf:RDF>
   <cc:Work rdf:about="">
    <dc:format>image/svg+xml</dc:format>
    <dc:type rdf:resource="http://purl.org/dc/dcmitype/StillImage"/>
    <dc:title>bunny</dc:title>
    <dc:date>2019-30-03</dc:date>
    <dc:creator>
     <cc:Agent>
      <dc:title>SH</dc:title>
     </cc:Agent>
    </dc:creator>
    <dc:description>Graphic with many nodes as drill pattern for string art</dc:description>
   </cc:Work>
  </rdf:RDF>
 </metadata>
 <g id="layer1" transform="translate(-.0040651 226.33)">
  <path id="path3912" d="m169.85-225.94c-4.2583 0.064183-8.5384 0.30937-12.845 0.77118-4.2097 0.45141-8.4447 1.1098-12.71 2.0084-4.1159 0.86721-8.2597 1.9582-12.435 3.3028-3.9805 1.2818-7.9899 2.794-12.032 4.5626-4.4775 1.9593-8.5355 3.983-12.227 6.0637-4.2752 2.4098-8.0586 4.896-11.433 7.4469-3.8967 2.9462-7.2472 5.9787-10.178 9.0795-3.2936 3.4846-6.0572 7.0554-8.4709 10.687-2.5851 3.8895-4.7686 7.8487-6.7715 11.846-4.0913-0.19224-8.2335 0.014197-12.357 0.60992-4.0518 0.58532-8.0858 1.5464-12.036 2.8745-3.8798 1.3043-7.6789 2.9624-11.335 4.966-3.5857 1.9649-7.034 4.2621-10.286 6.8835-3.1736 2.5582-6.1603 5.4252-8.9056 8.5937-3.3887 3.9111-6.2147 8.0535-8.4833 12.331-2.4102 4.5438-4.1914 9.2396-5.3502 13.971-1.2148 4.9606-1.7457 9.9608-1.6001 14.867 0.14999 5.0545 1.0179 10.009 2.5953 14.719 1.58 4.717 3.872 9.1876 6.8675 13.265 2.8807 3.9213 6.4121 7.479 10.587 10.543 3.3691 2.4725 6.9767 4.46 10.758 6.0119 3.7976 1.5588 7.77 2.6781 11.851 3.4084-1.0822 4.3551-1.7465 8.7779-2.0244 13.244-0.27574 4.4314-0.17103 8.9053 0.28335 13.398 0.44419 4.3917 1.2225 8.8011 2.3063 13.206-0.47699 0.1314-0.93634 0.22762-1.413 0.37681-3.9723 1.2433-7.626 3.0165-10.898 5.2072-3.4223 2.2915-6.4267 5.0399-8.9406 8.1166-2.5874 3.1667-4.6553 6.6812-6.1242 10.403-1.4867 3.767-2.36 7.7466-2.5379 11.794-0.17437 3.9668 0.3194 7.9982 1.5586 11.958 1.1115 3.5513 2.7455 6.7905 4.8012 9.6809 2.1065 2.9618 4.6558 5.5572 7.5394 7.7467 2.6947 2.7885 6.1899 4.6801 10.049 5.4554 3.6097 0.72509 7.5383 0.4737 11.429-0.93368 3.336-1.2068 6.2715-3.1245 8.6827-5.5174 2.4751-2.4563 4.3978-5.4132 5.6342-8.6155 1.2463-3.2282 1.7951-6.7058 1.5092-10.171 2.388 3.4767 4.9111 6.8854 7.5486 10.212 2.6287 3.3159 5.371 6.5505 8.2066 9.6901 2.8466 3.1518 5.7871 6.208 8.8008 9.1545 3.0491 2.9811 6.1733 5.85 9.351 8.5923 3.2431 2.7987 6.5419 5.4656 9.8738 7.9853 3.4352 2.5978 6.9054 5.0392 10.386 7.3075-4.3458 2.8402-7.8886 6.0642-10.426 9.5601-2.9754 4.0985-4.5696 8.5709-4.4576 13.237 0.067503 2.8124 0.44237 6.0263 1.5131 8.8701 1.0773 2.8611 2.8589 5.3476 5.7406 6.6734 4.2913 1.9744 8.8938 3.4866 13.72 4.6389 4.5882 1.0954 9.3786 1.8655 14.296 2.398 4.7286 0.5121 9.5749 0.80457 14.472 0.95548 4.807 0.14814 9.6629 0.15987 14.505 0.10904 4.7693-0.050033 9.5509-0.16106 14.28-0.40438 4.821-0.24803 9.5877-0.63351 14.232-1.232 4.8358-0.62318 9.5386-1.4773 14.031-2.6476 4.7347-1.2334 9.2359-2.818 13.413-4.8537 2.7918-1.3605 4.4081-3.8874 5.3067-6.7761 0.87944-2.8273 1.0713-6.0012 1.005-8.7673-0.0398-1.6588-0.30369-3.3041-0.75364-4.8986 4.6662-1.1376 9.0249-2.5428 13.054-4.2065 4.4446-1.8355 8.4875-3.9856 12.099-6.4384 3.2711 2.9979 7.0445 5.3048 11.113 6.8918 4.0522 1.5806 8.3974 2.4471 12.831 2.571 4.3037 0.12023 8.6908-0.4593 12.974-1.7647 4.0754-1.242 8.0572-3.1411 11.784-5.7198 3.419-2.3656 6.3768-5.1372 8.8464-8.1909 2.5868-3.1985 4.6381-6.7065 6.123-10.381 1.5295-3.785 2.458-7.7469 2.752-11.73 0.2974-4.0294-0.054714-8.0804-1.0913-11.992-1.0145-3.8281-2.6847-7.5222-5.0432-10.931-2.3326-3.3714-5.1605-6.2059-8.337-8.4839-3.2507-2.3312-6.8665-4.0798-10.69-5.2248-3.78-1.1319-7.7634-1.6741-11.798-1.6064-3.9156 0.065679-7.8798 0.70565-11.754 1.9383-1.1328-3.9533-2.5348-8.0472-4.2178-12.282-1.5261-3.8397-3.2833-7.7949-5.2803-11.866-1.8282-3.7265-3.8573-7.5498-6.0942-11.47-2.0657-3.62-4.3085-7.3225-6.7338-11.108-2.525-3.9407-5.3649-7.7873-8.4781-11.526-3.0004-3.6035-6.2548-7.1071-9.726-10.499-3.3652-3.2879-6.9341-6.4704-10.673-9.5365-3.6521-2.9949-7.4663-5.8787-11.411-8.6411-3.885-2.7205-7.8967-5.3232-12.005-7.7983-4.0793-2.4576-8.2538-4.7895-12.494-6.986-4.2474-2.2001-8.5608-4.2644-12.911-6.1831-4.3971-1.9396-8.8315-3.7304-13.272-5.3625-4.5343-1.6664-9.0755-3.1673-13.591-4.4921-4.6638-1.3683-9.3002-2.5487-13.873-3.5295-4.7857-1.0264-9.5022-1.8341-14.108-2.4098 1.0691-3.0508 1.8852-6.1417 2.438-9.2347 0.56871-3.1819 0.85882-6.3662 0.85912-9.5117 4.7793 0.48771 9.6071 0.94378 14.531 1.3404 4.7497 0.38258 9.5889 0.70984 14.56 0.9568 4.7292 0.23493 9.5781 0.3972 14.584 0.46532 4.7143 0.064158 9.5675 0.044799 14.59-0.076033 4.7025-0.11313 9.5536-0.31519 14.579-0.62094 4.6904-0.28538 9.5324-0.66109 14.547-1.1391 4.6787-0.44605 9.5072-0.98118 14.502-1.6151 4.666-0.59219 9.4774-1.2706 14.448-2.0432 4.9358-0.76723 8.9549-1.7533 11.782-3.072 4.652-2.1702 6.0747-5.2413 3.0394-9.7203-1.612-2.3787-4.4813-5.1545-8.7921-8.4033-3.6932-2.7834-7.4667-5.4229-11.341-7.8823-3.8918-2.4704-7.8857-4.7591-12.003-6.8295-4.0946-2.0592-8.311-3.9024-12.67-5.4937-4.2704-1.5589-8.6774-2.876-13.241-3.9173-4.3924-1.0023-8.9296-1.749-13.629-2.21-4.4491-0.43642-9.0435-0.61666-13.798-0.51508 4.0227-1.7653 8.0016-3.6085 11.913-5.5205 3.9673-1.9393 7.8651-3.9495 11.669-6.021 3.9-2.1239 7.7011-4.3124 11.377-6.5553 3.8157-2.3283 7.4963-4.7153 11.012-7.1496 3.6404-2.5206 6.7765-4.9436 9.203-7.2449 3.8453-3.6468 5.9086-6.9878 5.3736-9.9262-0.49346-2.7099-3.197-5.0774-8.7512-7.0265-2.9553-1.0371-6.7175-1.9557-11.383-2.7445-4.1444-0.70062-8.2838-1.3215-12.429-1.8309-4.1595-0.51115-8.325-0.91013-12.508-1.165-4.1645-0.25376-8.346-0.36467-12.556-0.30122v0" style="fill:none;stroke-linecap:round;stroke-linejoin:round;stroke-width:.7422;stroke:#000000"/>
  <ellipse id="path3927" cx="49.245" cy="-131.47" rx="10.124" ry="9.1116" style="fill:none;stroke-width:.7422;stroke:#000000"/>
 </g>
</svg>
